<svg width="100" height="100" viewBox="0 0 100 100" fill="none" xmlns="http://www.w3.org/2000/svg">
<path fill-rule="evenodd" clip-rule="evenodd" d="M31.3333 35L22 20H78L68.6667 35H78L68.6667 50L78 65H68.6667L78 80H22L31.3333 65H22L31.3333 50L22 35H31.3333ZM49.3778 21H23.8L32.5111 35H40.6667L49.3778 21ZM67.4889 35H59.3333L50.6222 21H76.2L67.4889 35ZM66.8667 36L63.4111 41.5536L59.9556 36H66.8667ZM64 42.5L68.0444 36H76.2L68.0778 49.0536L64 42.5ZM62.8222 42.5L58.7778 36H50.6222L58.7444 49.0536L62.8222 42.5ZM59.3333 50L63.4111 43.4464L67.4889 50L63.4111 56.5536L59.3333 50ZM58.1556 50L50 36.8929L41.8444 50L50 63.1071L58.1556 50ZM41.2556 49.0536L49.3778 36H41.2222L37.1778 42.5L41.2556 49.0536ZM36.5889 43.4464L40.6667 50L36.5889 56.5536L32.5111 50L36.5889 43.4464ZM36 42.5L31.9222 49.0536L23.8 36H31.9556L36 42.5ZM36.5889 41.5536L33.1333 36H40.0444L36.5889 41.5536ZM41.2556 50.9464L49.3778 64H41.2222L37.1778 57.5L41.2556 50.9464ZM50.6222 64L58.7444 50.9464L62.8222 57.5L58.7778 64H50.6222ZM41.8444 65L50 78.1071L58.1556 65H41.8444ZM50 21.8929L58.1556 35H41.8444L50 21.8929ZM31.9222 50.9464L36 57.5L31.9556 64H23.8L31.9222 50.9464ZM40.0444 64L36.5889 58.4464L33.1333 64H40.0444ZM23.8 79L32.5111 65H40.6667L49.3778 79H23.8ZM67.4889 65L76.2 79H50.6222L59.3333 65H67.4889ZM63.4111 58.4464L66.8667 64H59.9556L63.4111 58.4464ZM68.0444 64L64 57.5L68.0778 50.9464L76.2 64H68.0444Z" fill="url(#paint0_radial_500_6896)"/>
<defs>
<radialGradient id="paint0_radial_500_6896" cx="0" cy="0" r="1" gradientUnits="userSpaceOnUse" gradientTransform="translate(50 50) rotate(54.6052) scale(46.6154 43.5078)">
<stop stop-color="white"/>
<stop offset="1" stop-color="white" stop-opacity="0"/>
</radialGradient>
</defs>
</svg>
