<svg width="100" height="100" viewBox="0 0 100 100" fill="none" xmlns="http://www.w3.org/2000/svg">
<path fill-rule="evenodd" clip-rule="evenodd" d="M38.0314 29.2697C34.7117 27.4796 30.9128 26.4637 26.8767 26.4637C26.6487 26.4637 26.4638 26.6486 26.4638 26.8766C26.4638 30.9128 27.4798 34.7116 29.2699 38.0314C25.4998 38.141 21.7019 39.1606 18.2065 41.1787C18.009 41.2927 17.9414 41.5452 18.0554 41.7427C20.0734 45.2381 22.8527 48.02 26.0629 50C22.8527 51.98 20.0735 54.7619 18.0554 58.2573C17.9414 58.4547 18.009 58.7073 18.2065 58.8213C21.7019 60.8394 25.4998 61.8589 29.2698 61.9686C27.4797 65.2883 26.4638 69.0871 26.4638 73.1232C26.4638 73.3513 26.6487 73.5361 26.8767 73.5361C30.9128 73.5361 34.7117 72.5202 38.0314 70.7301C38.141 74.5002 39.1606 78.2981 41.1787 81.7935C41.2927 81.991 41.5452 82.0586 41.7427 81.9446C45.2381 79.9265 48.02 77.1473 50 73.9371C51.98 77.1473 54.7619 79.9265 58.2573 81.9446C58.4548 82.0586 58.7073 81.991 58.8213 81.7935C60.8394 78.2981 61.859 74.5002 61.9686 70.7301C65.2884 72.5202 69.0872 73.5361 73.1233 73.5361C73.3514 73.5361 73.5362 73.3513 73.5362 73.1232C73.5362 69.0871 72.5203 65.2883 70.7302 61.9686C74.5003 61.8589 78.2981 60.8393 81.7935 58.8213C81.991 58.7073 82.0586 58.4547 81.9446 58.2573C79.9265 54.7619 77.1473 51.98 73.9371 50C77.1473 48.02 79.9265 45.2381 81.9446 41.7427C82.0586 41.5452 81.991 41.2927 81.7935 41.1787C78.2981 39.1606 74.5002 38.141 70.7302 38.0314C72.5203 34.7116 73.5362 30.9128 73.5362 26.8766C73.5362 26.6486 73.3514 26.4637 73.1233 26.4637C69.0872 26.4637 65.2883 27.4797 61.9686 29.2698C61.8589 25.4997 60.8394 21.7019 58.8213 18.2065C58.7073 18.009 58.4547 17.9414 58.2572 18.0554C54.7619 20.0734 51.98 22.8527 50 26.0628C48.02 22.8527 45.2381 20.0734 41.7428 18.0554C41.5453 17.9414 41.2927 18.009 41.1787 18.2065C39.1607 21.7019 38.1411 25.4997 38.0314 29.2697ZM47.7938 46.1788C46.0659 44.1727 44.043 42.5118 41.829 41.2241C40.0017 38.0119 38.9821 34.3935 38.8599 30.7047C41.9934 32.6549 44.6171 35.3471 46.4853 38.5356C46.4935 41.0969 46.9204 43.6793 47.7938 46.1788ZM46.528 37.0422C44.5587 34.0616 41.9295 31.5554 38.8486 29.7317C38.8843 26.0808 39.8022 22.39 41.6888 18.9822C45.0266 20.9902 47.667 23.7275 49.5233 26.8714C47.767 29.9913 46.7432 33.4763 46.528 37.0422ZM47.3798 40.221C47.5908 42.9257 48.2913 45.6274 49.5165 48.1953C49.2935 45.3588 48.5493 42.6688 47.3798 40.221ZM40.2214 47.3798C42.9258 47.5908 45.6273 48.2913 48.1951 49.5163C45.3588 49.2933 42.669 48.5492 40.2214 47.3798ZM38.5359 46.4853C41.0971 46.4936 43.6794 46.9205 46.1788 47.7938C44.1727 46.0659 42.5118 44.043 41.2241 41.829C38.0119 40.0018 34.3936 38.9821 30.7049 38.8599C32.6551 41.9934 35.3473 44.6171 38.5359 46.4853ZM29.7318 38.8486C31.5556 41.9295 34.0618 44.5587 37.0424 46.528C33.4765 46.7431 29.9914 47.767 26.8715 49.5233C23.7275 47.667 20.9902 45.0266 18.9822 41.6888C22.3901 39.8021 26.0809 38.8842 29.7318 38.8486ZM30.2085 38.0229C33.7885 38.0618 37.3186 38.9177 40.5143 40.5143C38.9177 37.3185 38.0618 33.7884 38.0229 30.2084C34.8433 28.4138 31.188 27.3634 27.2934 27.2933C27.3635 31.188 28.414 34.8433 30.2085 38.0229ZM61.1514 29.7317C61.1157 26.0808 60.1978 22.39 58.3112 18.9822C54.9734 20.9902 52.333 23.7275 50.4767 26.8714C52.233 29.9913 53.2568 33.4764 53.472 37.0422C55.4413 34.0617 58.0705 31.5554 61.1514 29.7317ZM53.5147 38.5357C55.3829 35.3472 58.0066 32.6549 61.1401 30.7048C61.0179 34.3935 59.9983 38.0119 58.171 41.2241C55.957 42.5118 53.9341 44.1727 52.2062 46.1788C53.0796 43.6793 53.5065 41.097 53.5147 38.5357ZM50.4836 48.1952C51.7087 45.6273 52.4092 42.9257 52.6202 40.2211C51.4507 42.6689 50.7066 45.3588 50.4836 48.1952ZM52.6884 38.3143C51.4149 40.5365 50.4934 42.9863 50 45.5876C49.5067 42.9862 48.5852 40.5364 47.3117 38.3142C47.3353 34.6188 48.2614 30.9754 50 27.7198C51.7386 30.9755 52.6647 34.6188 52.6884 38.3143ZM61.9771 30.2084C65.1567 28.4138 68.812 27.3634 72.7067 27.2933C72.6366 31.188 71.5861 34.8433 69.7915 38.0229C66.2115 38.0618 62.6814 38.9177 59.4857 40.5143C61.0823 37.3185 61.9382 33.7885 61.9771 30.2084ZM69.2952 38.8599C65.6064 38.9821 61.9881 40.0017 58.7759 41.829C57.4882 44.043 55.8273 46.0659 53.8212 47.7938C56.3207 46.9204 58.9029 46.4936 61.4642 46.4853C64.6527 44.6171 67.345 41.9934 69.2952 38.8599ZM51.8049 49.5163C54.6412 49.2933 57.331 48.5492 59.7787 47.3798C57.0742 47.5908 54.3727 48.2913 51.8049 49.5163ZM61.6856 47.3116C65.3811 47.3353 69.0245 48.2614 72.2802 50C69.0246 51.7386 65.3812 52.6647 61.6858 52.6883C59.4636 51.4148 57.0137 50.4933 54.4124 49.9999C57.0136 49.5066 59.4634 48.5851 61.6856 47.3116ZM51.8046 50.4835C54.3726 51.7087 57.0743 52.4092 59.779 52.6202C57.3312 51.4506 54.6411 50.7065 51.8046 50.4835ZM61.4644 53.5147C64.6529 55.3829 67.3451 58.0066 69.2953 61.1401C65.6065 61.0179 61.9881 59.9983 58.7759 58.171C57.4882 55.957 55.8273 53.9341 53.8212 52.2062C56.3207 53.0796 58.9031 53.5065 61.4644 53.5147ZM70.2683 61.1514C68.4446 58.0705 65.9384 55.4413 62.9578 53.472C66.5237 53.2568 70.0087 52.233 73.1285 50.4767C76.2724 52.333 79.0098 54.9734 81.0178 58.3112C77.61 60.1978 73.9192 61.1157 70.2683 61.1514ZM69.7916 61.9771C66.2116 61.9382 62.6815 61.0823 59.4857 59.4857C61.0823 62.6814 61.9382 66.2114 61.9771 69.7915C65.1567 71.586 68.812 72.6365 72.7067 72.7066C72.6366 68.8119 71.5861 65.1567 69.7916 61.9771ZM61.1401 69.2951C61.0179 65.6064 59.9983 61.9881 58.171 58.7759C55.957 57.4882 53.9341 55.8273 52.2062 53.8212C53.0795 56.3206 53.5064 58.9029 53.5146 61.4641C55.3829 64.6527 58.0066 67.3449 61.1401 69.2951ZM50.4836 51.8048C50.7066 54.6412 51.4507 57.331 52.6202 59.7787C52.4092 57.0742 51.7087 54.3727 50.4836 51.8048ZM52.6883 61.6855C52.6647 65.381 51.7386 69.0245 50 72.2801C48.2614 69.0245 47.3353 65.3811 47.3117 61.6856C48.5852 59.4634 49.5067 57.0136 50 54.4123C50.4934 57.0136 51.4148 59.4633 52.6883 61.6855ZM47.3798 59.7788C47.5908 57.0742 48.2914 54.3726 49.5164 51.8047C49.2934 54.6411 48.5493 57.331 47.3798 59.7788ZM46.4853 61.4642C44.6171 64.6528 41.9934 67.345 38.8599 69.2951C38.9821 65.6064 40.0017 61.9881 41.829 58.7759C44.043 57.4882 46.0659 55.8273 47.7938 53.8212C46.9205 56.3207 46.4936 58.903 46.4853 61.4642ZM38.8486 70.2682C41.9295 68.4445 44.5587 65.9382 46.528 62.9577C46.7432 66.5236 47.767 70.0086 49.5233 73.1285C47.667 76.2724 45.0266 79.0098 41.6888 81.0178C39.8021 77.6099 38.8842 73.9191 38.8486 70.2682ZM38.0229 69.7915C38.0618 66.2115 38.9177 62.6814 40.5143 59.4857C37.3186 61.0823 33.7885 61.9382 30.2084 61.9771C28.4139 65.1567 27.3635 68.8119 27.2934 72.7066C31.188 72.6365 34.8433 71.586 38.0229 69.7915ZM30.7048 61.1401C34.3936 61.0179 38.0119 59.9983 41.2241 58.171C42.5118 55.957 44.1727 53.9341 46.1788 52.2062C43.6793 53.0796 41.0969 53.5064 38.5356 53.5147C35.3471 55.3829 32.6549 58.0066 30.7048 61.1401ZM38.3142 52.6883C34.6188 52.6647 30.9754 51.7386 27.7198 50C30.9755 48.2614 34.619 47.3353 38.3145 47.3116C40.5367 48.5851 42.9864 49.5066 45.5877 49.9999C42.9863 50.4933 40.5365 51.4148 38.3142 52.6883ZM40.221 52.6202C42.6689 51.4506 45.3589 50.7065 48.1954 50.4835C45.6274 51.7087 42.9257 52.4092 40.221 52.6202ZM37.0422 53.472C34.0617 55.4413 31.5555 58.0705 29.7317 61.1514C26.0809 61.1157 22.3901 60.1978 18.9822 58.3112C20.9902 54.9734 23.7276 52.333 26.8715 50.4767C29.9913 52.233 33.4764 53.2568 37.0422 53.472ZM53.472 62.9576C55.4413 65.9382 58.0705 68.4444 61.1514 70.2682C61.1158 73.9191 60.1979 77.6099 58.3112 81.0178C54.9734 79.0098 52.333 76.2724 50.4767 73.1285C52.233 70.0086 53.2568 66.5235 53.472 62.9576ZM62.9577 46.528C65.9382 44.5587 68.4445 41.9295 70.2682 38.8486C73.9191 38.8842 77.6099 39.8021 81.0178 41.6888C79.0098 45.0266 76.2725 47.667 73.1285 49.5233C70.0086 47.767 66.5236 46.7431 62.9577 46.528ZM57.1586 42.8414C54.9219 44.3764 52.9325 46.3339 51.3212 48.6788C53.6661 47.0675 55.6235 45.0781 57.1586 42.8414ZM57.1586 57.1586C55.6236 54.9219 53.6661 52.9325 51.3211 51.3211C52.9325 53.6661 54.9219 55.6236 57.1586 57.1586ZM48.6789 51.3211C47.0675 53.6661 45.0781 55.6236 42.8414 57.1586C44.3764 54.9219 46.3339 52.9325 48.6789 51.3211ZM48.6788 48.6788C46.3339 47.0675 44.3765 45.0781 42.8414 42.8414C45.0781 44.3764 47.0675 46.3339 48.6788 48.6788Z" fill="url(#paint0_radial_500_6580)"/>
<defs>
<radialGradient id="paint0_radial_500_6580" cx="0" cy="0" r="1" gradientUnits="userSpaceOnUse" gradientTransform="translate(50 49.9998) rotate(90) scale(26.0137)">
<stop stop-color="white"/>
<stop offset="1" stop-color="white" stop-opacity="0.15"/>
</radialGradient>
</defs>
</svg>
