<svg width="100" height="100" viewBox="0 0 100 100" fill="none" xmlns="http://www.w3.org/2000/svg">
<path d="M13 69.6667L50 48.2456L50 7.99999L13 29.421L13 69.6667Z" fill="url(#paint0_linear_500_6001)"/>
<path fill-rule="evenodd" clip-rule="evenodd" d="M50 44.3509L50 45.6491L13 67.0702L13 65.7719L50 44.3509ZM50 43.0526L13 64.4737L13 63.1754L50 41.7544L50 43.0526ZM13 60.5789L13 61.8772L50 40.4561L50 39.1579L13 60.5789ZM13 59.2807L13 57.9824L50 36.5614L50 37.8596L13 59.2807ZM13 55.386L13 56.6842L50 35.2631L50 33.9649L13 55.386ZM13 54.0877L13 52.7895L50 31.3684L50 32.6667L13 54.0877ZM13 50.193L13 51.4912L50 30.0702L50 28.7719L13 50.193ZM13 48.8947L13 47.5965L50 26.1754L50 27.4737L13 48.8947ZM13 45L13 46.2982L50 24.8772L50 23.5789L13 45ZM13 43.7017L13 42.4035L50 20.9824L50 22.2807L13 43.7017ZM13 39.807L13 41.1053L50 19.6842L50 18.386L13 39.807ZM13 38.5088L13 37.2105L50 15.7895L50 17.0877L13 38.5088ZM13 34.614L13 35.9123L50 14.4912L50 13.193L13 34.614ZM13 33.3158L13 32.0175L50 10.5965L50 11.8947L13 33.3158ZM13 29.421L13 30.7193L50 9.29823L50 7.99999L13 29.421ZM50 48.2456L50 46.9474L13 68.3684L13 69.6667L50 48.2456Z" fill="url(#paint1_linear_500_6001)"/>
<path d="M50 48.2457L87 69.6667L87 29.4211L50 8.00006L50 48.2457Z" fill="url(#paint2_linear_500_6001)"/>
<path fill-rule="evenodd" clip-rule="evenodd" d="M87 65.772L87 67.0702L50 45.6492L50 44.3509L87 65.772ZM87 64.4737L50 43.0527L50 41.7544L87 63.1755L87 64.4737ZM50 39.158L50 40.4562L87 61.8772L87 60.579L50 39.158ZM50 37.8597L50 36.5615L87 57.9825L87 59.2807L50 37.8597ZM50 33.965L50 35.2632L87 56.6843L87 55.386L50 33.965ZM50 32.6667L50 31.3685L87 52.7895L87 54.0878L50 32.6667ZM50 28.772L50 30.0702L87 51.4913L87 50.193L50 28.772ZM50 27.4737L50 26.1755L87 47.5965L87 48.8948L50 27.4737ZM50 23.579L50 24.8773L87 46.2983L87 45L50 23.579ZM50 22.2808L50 20.9825L87 42.4036L87 43.7018L50 22.2808ZM50 18.386L50 19.6843L87 41.1053L87 39.8071L50 18.386ZM50 17.0878L50 15.7895L87 37.2106L87 38.5088L50 17.0878ZM50 13.193L50 14.4913L87 35.9123L87 34.6141L50 13.193ZM50 11.8948L50 10.5966L87 32.0176L87 33.3158L50 11.8948ZM50 8.00006L50 9.29831L87 30.7193L87 29.4211L50 8.00006ZM87 69.6667L87 68.3685L50 46.9474L50 48.2457L87 69.6667Z" fill="url(#paint3_linear_500_6001)"/>
<path d="M13 29.421L50 50.842L50 91.0876L13 69.6666L13 29.421Z" fill="url(#paint4_linear_500_6001)"/>
<path fill-rule="evenodd" clip-rule="evenodd" d="M50 54.7367L50 53.4385L13 32.0175L13 33.3157L50 54.7367ZM50 56.035L13 34.6139L13 35.9122L50 57.3332L50 56.035ZM13 38.5087L13 37.2104L50 58.6315L50 59.9297L13 38.5087ZM13 39.8069L13 41.1052L50 62.5262L50 61.228L13 39.8069ZM13 43.7017L13 42.4034L50 63.8245L50 65.1227L13 43.7017ZM13 44.9999L13 46.2982L50 67.7192L50 66.421L13 44.9999ZM13 48.8946L13 47.5964L50 69.0175L50 70.3157L13 48.8946ZM13 50.1929L13 51.4911L50 72.9122L50 71.6139L13 50.1929ZM13 54.0876L13 52.7894L50 74.2104L50 75.5087L13 54.0876ZM13 55.3859L13 56.6841L50 78.1052L50 76.8069L13 55.3859ZM13 59.2806L13 57.9824L50 79.4034L50 80.7017L13 59.2806ZM13 60.5789L13 61.8771L50 83.2982L50 81.9999L13 60.5789ZM13 64.4736L13 63.1753L50 84.5964L50 85.8946L13 64.4736ZM13 65.7718L13 67.0701L50 88.4911L50 87.1929L13 65.7718ZM13 69.6666L13 68.3683L50 89.7894L50 91.0876L13 69.6666ZM50 50.842L50 52.1403L13 30.7192L13 29.421L50 50.842Z" fill="url(#paint5_linear_500_6001)"/>
<path d="M50 50.8419L87 29.4209L87 69.6665L50 91.0875L50 50.8419Z" fill="url(#paint6_linear_500_6001)"/>
<path fill-rule="evenodd" clip-rule="evenodd" d="M87 33.3156L87 32.0174L50 53.4384L50 54.7366L87 33.3156ZM87 34.6139L50 56.0349L50 57.3331L87 35.9121L87 34.6139ZM50 59.9296L50 58.6314L87 37.2104L87 38.5086L50 59.9296ZM50 61.2279L50 62.5261L87 41.1051L87 39.8068L50 61.2279ZM50 65.1226L50 63.8244L87 42.4033L87 43.7016L50 65.1226ZM50 66.4209L50 67.7191L87 46.2981L87 44.9998L50 66.4209ZM50 70.3156L50 69.0173L87 47.5963L87 48.8946L50 70.3156ZM50 71.6138L50 72.9121L87 51.4911L87 50.1928L50 71.6138ZM50 75.5086L50 74.2103L87 52.7893L87 54.0875L50 75.5086ZM50 76.8068L50 78.1051L87 56.684L87 55.3858L50 76.8068ZM50 80.7016L50 79.4033L87 57.9823L87 59.2805L50 80.7016ZM50 81.9998L50 83.298L87 61.877L87 60.5788L50 81.9998ZM50 85.8945L50 84.5963L87 63.1753L87 64.4735L50 85.8945ZM50 87.1928L50 88.491L87 67.07L87 65.7718L50 87.1928ZM50 91.0875L50 89.7893L87 68.3682L87 69.6665L50 91.0875ZM87 29.4209L87 30.7191L50 52.1402L50 50.8419L87 29.4209Z" fill="url(#paint7_linear_500_6001)"/>
<defs>
<linearGradient id="paint0_linear_500_6001" x1="31.5" y1="58.9857" x2="14.0475" y2="28.7571" gradientUnits="userSpaceOnUse">
<stop stop-color="#353535"/>
<stop offset="1" stop-color="white"/>
</linearGradient>
<linearGradient id="paint1_linear_500_6001" x1="43.8333" y1="57.6579" x2="10.112" y2="24.5479" gradientUnits="userSpaceOnUse">
<stop stop-color="#181818"/>
<stop offset="1" stop-color="#181818" stop-opacity="0"/>
</linearGradient>
<linearGradient id="paint2_linear_500_6001" x1="53.2456" y1="50.193" x2="73.4052" y2="24.8322" gradientUnits="userSpaceOnUse">
<stop stop-color="#5F5C5B"/>
<stop offset="1" stop-color="white"/>
</linearGradient>
<linearGradient id="paint3_linear_500_6001" x1="50.6491" y1="51.1667" x2="83.2535" y2="26.175" gradientUnits="userSpaceOnUse">
<stop stop-color="#181818"/>
<stop offset="1" stop-color="#181818" stop-opacity="0"/>
</linearGradient>
<linearGradient id="paint4_linear_500_6001" x1="21.5" y1="33.5001" x2="8.97677" y2="83.7698" gradientUnits="userSpaceOnUse">
<stop stop-color="white"/>
<stop offset="1" stop-color="#5F5F5F"/>
</linearGradient>
<linearGradient id="paint5_linear_500_6001" x1="22" y1="35.5001" x2="9.67988" y2="73.2936" gradientUnits="userSpaceOnUse">
<stop stop-color="#282828"/>
<stop offset="1" stop-color="#181818"/>
</linearGradient>
<linearGradient id="paint6_linear_500_6001" x1="56" y1="49.9999" x2="86.2673" y2="56.525" gradientUnits="userSpaceOnUse">
<stop stop-color="white"/>
<stop offset="1" stop-color="#4E4E4E"/>
</linearGradient>
<linearGradient id="paint7_linear_500_6001" x1="54" y1="51.4999" x2="94.7248" y2="54.4874" gradientUnits="userSpaceOnUse">
<stop stop-color="#1C1C1C"/>
<stop offset="1" stop-color="#181818"/>
</linearGradient>
</defs>
</svg>
