<svg width="100" height="100" viewBox="0 0 100 100" fill="none" xmlns="http://www.w3.org/2000/svg">
<path d="M22 50C22 41.8694 25.4655 34.5481 31 29.4329C35.9918 24.8192 42.6667 22 50 22" stroke="url(#paint0_linear_500_6915)"/>
<path d="M78 50C78 34.536 65.464 22 50 22" stroke="url(#paint1_linear_500_6915)" stroke-linejoin="round" stroke-dasharray="1 1"/>
<path d="M78 51C78 59.1306 74.5345 66.4519 69 71.5671C64.0082 76.1808 57.3333 79 50 79" stroke="url(#paint2_linear_500_6915)"/>
<path d="M22 51C22 66.464 34.536 79 50 79" stroke="url(#paint3_linear_500_6915)" stroke-dasharray="1 1"/>
<circle cx="50" cy="50" r="19" stroke="url(#paint4_radial_500_6915)" stroke-width="2" stroke-dasharray="1.5 1.5"/>
<circle cx="50" cy="50" r="23.5" stroke="url(#paint5_radial_500_6915)" stroke-dasharray="0.5 0.5"/>
<circle cx="50" cy="50" r="16" fill="url(#paint6_radial_500_6915)"/>
<circle cx="50" cy="50" r="12" fill="url(#paint7_radial_500_6915)"/>
<defs>
<linearGradient id="paint0_linear_500_6915" x1="44.5" y1="22" x2="21" y2="48" gradientUnits="userSpaceOnUse">
<stop stop-color="white"/>
<stop offset="1" stop-color="white" stop-opacity="0"/>
</linearGradient>
<linearGradient id="paint1_linear_500_6915" x1="76" y1="38" x2="49" y2="20" gradientUnits="userSpaceOnUse">
<stop stop-color="white"/>
<stop offset="1" stop-color="white" stop-opacity="0"/>
</linearGradient>
<linearGradient id="paint2_linear_500_6915" x1="55.5" y1="79" x2="79" y2="53" gradientUnits="userSpaceOnUse">
<stop stop-color="white"/>
<stop offset="1" stop-color="white" stop-opacity="0"/>
</linearGradient>
<linearGradient id="paint3_linear_500_6915" x1="24" y1="63" x2="51" y2="81" gradientUnits="userSpaceOnUse">
<stop stop-color="white"/>
<stop offset="1" stop-color="white" stop-opacity="0"/>
</linearGradient>
<radialGradient id="paint4_radial_500_6915" cx="0" cy="0" r="1" gradientUnits="userSpaceOnUse" gradientTransform="translate(50 50) rotate(90) scale(27.5)">
<stop stop-color="white"/>
<stop offset="1" stop-color="white" stop-opacity="0"/>
</radialGradient>
<radialGradient id="paint5_radial_500_6915" cx="0" cy="0" r="1" gradientUnits="userSpaceOnUse" gradientTransform="translate(50 50) rotate(90) scale(33)">
<stop stop-color="white"/>
<stop offset="1" stop-color="white" stop-opacity="0.54"/>
</radialGradient>
<radialGradient id="paint6_radial_500_6915" cx="0" cy="0" r="1" gradientUnits="userSpaceOnUse" gradientTransform="translate(50 49.5) rotate(67.9993) scale(17.7959)">
<stop stop-color="white"/>
<stop offset="0.739583" stop-color="white" stop-opacity="0.582344"/>
<stop offset="1" stop-color="white" stop-opacity="0.19"/>
</radialGradient>
<radialGradient id="paint7_radial_500_6915" cx="0" cy="0" r="1" gradientUnits="userSpaceOnUse" gradientTransform="translate(50 49.625) rotate(67.9993) scale(13.3469)">
<stop stop-color="white"/>
<stop offset="0.739583" stop-color="white" stop-opacity="0.582344"/>
<stop offset="1" stop-color="white" stop-opacity="0.19"/>
</radialGradient>
</defs>
</svg>
