<svg width="100" height="100" viewBox="0 0 100 100" fill="none" xmlns="http://www.w3.org/2000/svg">
<path d="M31 19C31 20.1819 30.7672 21.3522 30.3149 22.4442C29.8626 23.5361 29.1997 24.5282 28.364 25.364C27.5282 26.1997 26.5361 26.8626 25.4442 27.3149C24.3522 27.7672 23.1819 28 22 28C20.8181 28 19.6478 27.7672 18.5558 27.3149C17.4639 26.8626 16.4718 26.1997 15.636 25.364C14.8003 24.5282 14.1374 23.5361 13.6851 22.4442C13.2328 21.3522 13 20.1819 13 19L31 19Z" fill="url(#paint0_linear_500_6042)"/>
<path d="M31 37C31 35.8181 30.7672 34.6478 30.3149 33.5558C29.8626 32.4639 29.1997 31.4718 28.364 30.636C27.5282 29.8003 26.5361 29.1374 25.4442 28.6851C24.3522 28.2328 23.1819 28 22 28C20.8181 28 19.6478 28.2328 18.5558 28.6851C17.4639 29.1374 16.4718 29.8003 15.636 30.636C14.8003 31.4718 14.1374 32.4639 13.6851 33.5558C13.2328 34.6478 13 35.8181 13 37L31 37Z" fill="url(#paint1_linear_500_6042)"/>
<path d="M32 19C33.1819 19 34.3522 19.2328 35.4442 19.6851C36.5361 20.1374 37.5282 20.8003 38.364 21.636C39.1997 22.4718 39.8626 23.4639 40.3149 24.5558C40.7672 25.6478 41 26.8181 41 28C41 29.1819 40.7672 30.3522 40.3149 31.4442C39.8626 32.5361 39.1997 33.5282 38.364 34.364C37.5282 35.1997 36.5361 35.8626 35.4442 36.3149C34.3522 36.7672 33.1819 37 32 37L32 19Z" fill="url(#paint2_linear_500_6042)"/>
<path d="M50 19C48.8181 19 47.6478 19.2328 46.5558 19.6851C45.4639 20.1374 44.4718 20.8003 43.636 21.636C42.8003 22.4718 42.1374 23.4639 41.6851 24.5558C41.2328 25.6478 41 26.8181 41 28C41 29.1819 41.2328 30.3522 41.6851 31.4442C42.1374 32.5361 42.8003 33.5282 43.636 34.364C44.4718 35.1997 45.4639 35.8626 46.5558 36.3149C47.6478 36.7672 48.8181 37 50 37L50 19Z" fill="url(#paint3_linear_500_6042)"/>
<path d="M60 19C61.1819 19 62.3522 19.2328 63.4442 19.6851C64.5361 20.1374 65.5282 20.8003 66.364 21.636C67.1997 22.4718 67.8626 23.4639 68.3149 24.5558C68.7672 25.6478 69 26.8181 69 28C69 29.1819 68.7672 30.3522 68.3149 31.4442C67.8626 32.5361 67.1997 33.5282 66.364 34.364C65.5282 35.1997 64.5361 35.8626 63.4442 36.3149C62.3522 36.7672 61.1819 37 60 37L60 19Z" fill="url(#paint4_linear_500_6042)"/>
<path d="M51 19C52.1819 19 53.3522 19.2328 54.4442 19.6851C55.5361 20.1374 56.5282 20.8003 57.364 21.636C58.1997 22.4718 58.8626 23.4639 59.3149 24.5558C59.7672 25.6478 60 26.8181 60 28C60 29.1819 59.7672 30.3522 59.3149 31.4442C58.8626 32.5361 58.1997 33.5282 57.364 34.364C56.5282 35.1997 55.5361 35.8626 54.4442 36.3149C53.3522 36.7672 52.1819 37 51 37L51 19Z" fill="url(#paint5_linear_500_6042)"/>
<path d="M88 19C88 20.1819 87.7672 21.3522 87.3149 22.4442C86.8626 23.5361 86.1997 24.5282 85.364 25.364C84.5282 26.1997 83.5361 26.8626 82.4442 27.3149C81.3522 27.7672 80.1819 28 79 28C77.8181 28 76.6478 27.7672 75.5558 27.3149C74.4639 26.8626 73.4718 26.1997 72.636 25.364C71.8003 24.5282 71.1374 23.5361 70.6851 22.4442C70.2328 21.3522 70 20.1819 70 19L88 19Z" fill="url(#paint6_linear_500_6042)"/>
<path d="M88 37C88 35.8181 87.7672 34.6478 87.3149 33.5558C86.8626 32.4639 86.1997 31.4718 85.364 30.636C84.5282 29.8003 83.5361 29.1374 82.4442 28.6851C81.3522 28.2328 80.1819 28 79 28C77.8181 28 76.6478 28.2328 75.5558 28.6851C74.4639 29.1374 73.4718 29.8003 72.636 30.636C71.8003 31.4718 71.1374 32.4639 70.6851 33.5558C70.2328 34.6478 70 35.8181 70 37L88 37Z" fill="url(#paint7_linear_500_6042)"/>
<path d="M13 41C14.1819 41 15.3522 41.2328 16.4442 41.6851C17.5361 42.1374 18.5282 42.8003 19.364 43.636C20.1997 44.4718 20.8626 45.4639 21.3149 46.5558C21.7672 47.6478 22 48.8181 22 50C22 51.1819 21.7672 52.3522 21.3149 53.4442C20.8626 54.5361 20.1997 55.5282 19.364 56.364C18.5282 57.1997 17.5361 57.8626 16.4442 58.3149C15.3522 58.7672 14.1819 59 13 59L13 41Z" fill="url(#paint8_linear_500_6042)"/>
<path d="M31 41C29.8181 41 28.6478 41.2328 27.5558 41.6851C26.4639 42.1374 25.4718 42.8003 24.636 43.636C23.8003 44.4718 23.1374 45.4639 22.6851 46.5558C22.2328 47.6478 22 48.8181 22 50C22 51.1819 22.2328 52.3522 22.6851 53.4442C23.1374 54.5361 23.8003 55.5282 24.636 56.364C25.4718 57.1997 26.4639 57.8626 27.5558 58.3149C28.6478 58.7672 29.8181 59 31 59L31 41Z" fill="url(#paint9_linear_500_6042)"/>
<path d="M50 41C50 42.1819 49.7672 43.3522 49.3149 44.4442C48.8626 45.5361 48.1997 46.5282 47.364 47.364C46.5282 48.1997 45.5361 48.8626 44.4442 49.3149C43.3522 49.7672 42.1819 50 41 50C39.8181 50 38.6478 49.7672 37.5558 49.3149C36.4639 48.8626 35.4718 48.1997 34.636 47.364C33.8003 46.5282 33.1374 45.5361 32.6851 44.4442C32.2328 43.3522 32 42.1819 32 41L50 41Z" fill="url(#paint10_linear_500_6042)"/>
<path d="M50 59C50 57.8181 49.7672 56.6478 49.3149 55.5558C48.8626 54.4639 48.1997 53.4718 47.364 52.636C46.5282 51.8003 45.5361 51.1374 44.4442 50.6851C43.3522 50.2328 42.1819 50 41 50C39.8181 50 38.6478 50.2328 37.5558 50.6851C36.4639 51.1374 35.4718 51.8003 34.636 52.636C33.8003 53.4718 33.1374 54.4639 32.6851 55.5558C32.2328 56.6478 32 57.8181 32 59L50 59Z" fill="url(#paint11_linear_500_6042)"/>
<path d="M69 50C69 48.8181 68.7672 47.6478 68.3149 46.5558C67.8626 45.4639 67.1997 44.4718 66.364 43.636C65.5282 42.8003 64.5361 42.1374 63.4442 41.6851C62.3522 41.2328 61.1819 41 60 41C58.8181 41 57.6478 41.2328 56.5558 41.6851C55.4639 42.1374 54.4718 42.8003 53.636 43.636C52.8003 44.4718 52.1374 45.4639 51.6851 46.5558C51.2328 47.6478 51 48.8181 51 50L69 50Z" fill="url(#paint12_linear_500_6042)"/>
<path d="M69 59C69 57.8181 68.7672 56.6478 68.3149 55.5558C67.8626 54.4639 67.1997 53.4718 66.364 52.636C65.5282 51.8003 64.5361 51.1374 63.4442 50.6851C62.3522 50.2328 61.1819 50 60 50C58.8181 50 57.6478 50.2328 56.5558 50.6851C55.4639 51.1374 54.4718 51.8003 53.636 52.636C52.8003 53.4718 52.1374 54.4639 51.6851 55.5558C51.2328 56.6478 51 57.8181 51 59L69 59Z" fill="url(#paint13_linear_500_6042)"/>
<path d="M70 41C71.1819 41 72.3522 41.2328 73.4442 41.6851C74.5361 42.1374 75.5282 42.8003 76.364 43.636C77.1997 44.4718 77.8626 45.4639 78.3149 46.5558C78.7672 47.6478 79 48.8181 79 50C79 51.1819 78.7672 52.3522 78.3149 53.4442C77.8626 54.5361 77.1997 55.5282 76.364 56.364C75.5282 57.1997 74.5361 57.8626 73.4442 58.3149C72.3522 58.7672 71.1819 59 70 59L70 41Z" fill="url(#paint14_linear_500_6042)"/>
<path d="M88 41C86.8181 41 85.6478 41.2328 84.5558 41.6851C83.4639 42.1374 82.4718 42.8003 81.636 43.636C80.8003 44.4718 80.1374 45.4639 79.6851 46.5558C79.2328 47.6478 79 48.8181 79 50C79 51.1819 79.2328 52.3522 79.6851 53.4442C80.1374 54.5361 80.8003 55.5282 81.636 56.364C82.4718 57.1997 83.4639 57.8626 84.5558 58.3149C85.6478 58.7672 86.8181 59 88 59L88 41Z" fill="url(#paint15_linear_500_6042)"/>
<path d="M22 63C20.8181 63 19.6478 63.2328 18.5558 63.6851C17.4639 64.1374 16.4718 64.8003 15.636 65.636C14.8003 66.4718 14.1374 67.4639 13.6851 68.5558C13.2328 69.6478 13 70.8181 13 72C13 73.1819 13.2328 74.3522 13.6851 75.4442C14.1374 76.5361 14.8003 77.5282 15.636 78.364C16.4718 79.1997 17.4639 79.8626 18.5558 80.3149C19.6478 80.7672 20.8181 81 22 81L22 63Z" fill="url(#paint16_linear_500_6042)"/>
<path d="M31 63C29.8181 63 28.6478 63.2328 27.5558 63.6851C26.4639 64.1374 25.4718 64.8003 24.636 65.636C23.8003 66.4718 23.1374 67.4639 22.6851 68.5558C22.2328 69.6478 22 70.8181 22 72C22 73.1819 22.2328 74.3522 22.6851 75.4442C23.1374 76.5361 23.8003 77.5282 24.636 78.364C25.4718 79.1997 26.4639 79.8626 27.5558 80.3149C28.6478 80.7672 29.8181 81 31 81L31 63Z" fill="url(#paint17_linear_500_6042)"/>
<path d="M50 63C50 64.1819 49.7672 65.3522 49.3149 66.4442C48.8626 67.5361 48.1997 68.5282 47.364 69.364C46.5282 70.1997 45.5361 70.8626 44.4442 71.3149C43.3522 71.7672 42.1819 72 41 72C39.8181 72 38.6478 71.7672 37.5558 71.3149C36.4639 70.8626 35.4718 70.1997 34.636 69.364C33.8003 68.5282 33.1374 67.5361 32.6851 66.4442C32.2328 65.3522 32 64.1819 32 63L50 63Z" fill="url(#paint18_linear_500_6042)"/>
<path d="M50 81C50 79.8181 49.7672 78.6478 49.3149 77.5558C48.8626 76.4639 48.1997 75.4718 47.364 74.636C46.5282 73.8003 45.5361 73.1374 44.4442 72.6851C43.3522 72.2328 42.1819 72 41 72C39.8181 72 38.6478 72.2328 37.5558 72.6851C36.4639 73.1374 35.4718 73.8003 34.636 74.636C33.8003 75.4718 33.1374 76.4639 32.6851 77.5558C32.2328 78.6478 32 79.8181 32 81L50 81Z" fill="url(#paint19_linear_500_6042)"/>
<path d="M51 63C52.1819 63 53.3522 63.2328 54.4442 63.6851C55.5361 64.1374 56.5282 64.8003 57.364 65.636C58.1997 66.4718 58.8626 67.4639 59.3149 68.5558C59.7672 69.6478 60 70.8181 60 72C60 73.1819 59.7672 74.3522 59.3149 75.4442C58.8626 76.5361 58.1997 77.5282 57.364 78.364C56.5282 79.1997 55.5361 79.8626 54.4442 80.3149C53.3522 80.7672 52.1819 81 51 81L51 63Z" fill="url(#paint20_linear_500_6042)"/>
<path d="M69 63C67.8181 63 66.6478 63.2328 65.5558 63.6851C64.4639 64.1374 63.4718 64.8003 62.636 65.636C61.8003 66.4718 61.1374 67.4639 60.6851 68.5558C60.2328 69.6478 60 70.8181 60 72C60 73.1819 60.2328 74.3522 60.6851 75.4442C61.1374 76.5361 61.8003 77.5282 62.636 78.364C63.4718 79.1997 64.4639 79.8626 65.5558 80.3149C66.6478 80.7672 67.8181 81 69 81L69 63Z" fill="url(#paint21_linear_500_6042)"/>
<path d="M88 72C88 70.8181 87.7672 69.6478 87.3149 68.5558C86.8626 67.4639 86.1997 66.4718 85.364 65.636C84.5282 64.8003 83.5361 64.1374 82.4442 63.6851C81.3522 63.2328 80.1819 63 79 63C77.8181 63 76.6478 63.2328 75.5558 63.6851C74.4639 64.1374 73.4718 64.8003 72.636 65.636C71.8003 66.4718 71.1374 67.4639 70.6851 68.5558C70.2328 69.6478 70 70.8181 70 72L88 72Z" fill="url(#paint22_linear_500_6042)"/>
<path d="M88 81C88 79.8181 87.7672 78.6478 87.3149 77.5558C86.8626 76.4639 86.1997 75.4718 85.364 74.636C84.5282 73.8003 83.5361 73.1374 82.4442 72.6851C81.3522 72.2328 80.1819 72 79 72C77.8181 72 76.6478 72.2328 75.5558 72.6851C74.4639 73.1374 73.4718 73.8003 72.636 74.636C71.8003 75.4718 71.1374 76.4639 70.6851 77.5558C70.2328 78.6478 70 79.8181 70 81L88 81Z" fill="url(#paint23_linear_500_6042)"/>
<defs>
<linearGradient id="paint0_linear_500_6042" x1="22" y1="19" x2="22" y2="28" gradientUnits="userSpaceOnUse">
<stop stop-color="white"/>
<stop offset="1" stop-color="white" stop-opacity="0"/>
</linearGradient>
<linearGradient id="paint1_linear_500_6042" x1="22" y1="37" x2="22" y2="28" gradientUnits="userSpaceOnUse">
<stop stop-color="white"/>
<stop offset="1" stop-color="white" stop-opacity="0"/>
</linearGradient>
<linearGradient id="paint2_linear_500_6042" x1="32" y1="28" x2="41" y2="28" gradientUnits="userSpaceOnUse">
<stop stop-color="white"/>
<stop offset="1" stop-color="white" stop-opacity="0"/>
</linearGradient>
<linearGradient id="paint3_linear_500_6042" x1="50" y1="28" x2="41" y2="28" gradientUnits="userSpaceOnUse">
<stop stop-color="white"/>
<stop offset="1" stop-color="white" stop-opacity="0"/>
</linearGradient>
<linearGradient id="paint4_linear_500_6042" x1="60" y1="28" x2="69" y2="28" gradientUnits="userSpaceOnUse">
<stop stop-color="white"/>
<stop offset="1" stop-color="white" stop-opacity="0"/>
</linearGradient>
<linearGradient id="paint5_linear_500_6042" x1="51" y1="28" x2="60" y2="28" gradientUnits="userSpaceOnUse">
<stop stop-color="white"/>
<stop offset="1" stop-color="white" stop-opacity="0"/>
</linearGradient>
<linearGradient id="paint6_linear_500_6042" x1="79" y1="19" x2="79" y2="28" gradientUnits="userSpaceOnUse">
<stop stop-color="white"/>
<stop offset="1" stop-color="white" stop-opacity="0"/>
</linearGradient>
<linearGradient id="paint7_linear_500_6042" x1="79" y1="37" x2="79" y2="28" gradientUnits="userSpaceOnUse">
<stop stop-color="white"/>
<stop offset="1" stop-color="white" stop-opacity="0"/>
</linearGradient>
<linearGradient id="paint8_linear_500_6042" x1="13" y1="50" x2="22" y2="50" gradientUnits="userSpaceOnUse">
<stop stop-color="white"/>
<stop offset="1" stop-color="white" stop-opacity="0"/>
</linearGradient>
<linearGradient id="paint9_linear_500_6042" x1="31" y1="50" x2="22" y2="50" gradientUnits="userSpaceOnUse">
<stop stop-color="white"/>
<stop offset="1" stop-color="white" stop-opacity="0"/>
</linearGradient>
<linearGradient id="paint10_linear_500_6042" x1="41" y1="41" x2="41" y2="50" gradientUnits="userSpaceOnUse">
<stop stop-color="white"/>
<stop offset="1" stop-color="white" stop-opacity="0"/>
</linearGradient>
<linearGradient id="paint11_linear_500_6042" x1="41" y1="59" x2="41" y2="50" gradientUnits="userSpaceOnUse">
<stop stop-color="white"/>
<stop offset="1" stop-color="white" stop-opacity="0"/>
</linearGradient>
<linearGradient id="paint12_linear_500_6042" x1="60" y1="50" x2="60" y2="41" gradientUnits="userSpaceOnUse">
<stop stop-color="white"/>
<stop offset="1" stop-color="white" stop-opacity="0"/>
</linearGradient>
<linearGradient id="paint13_linear_500_6042" x1="60" y1="59" x2="60" y2="50" gradientUnits="userSpaceOnUse">
<stop stop-color="white"/>
<stop offset="1" stop-color="white" stop-opacity="0"/>
</linearGradient>
<linearGradient id="paint14_linear_500_6042" x1="70" y1="50" x2="79" y2="50" gradientUnits="userSpaceOnUse">
<stop stop-color="white"/>
<stop offset="1" stop-color="white" stop-opacity="0"/>
</linearGradient>
<linearGradient id="paint15_linear_500_6042" x1="88" y1="50" x2="79" y2="50" gradientUnits="userSpaceOnUse">
<stop stop-color="white"/>
<stop offset="1" stop-color="white" stop-opacity="0"/>
</linearGradient>
<linearGradient id="paint16_linear_500_6042" x1="22" y1="72" x2="13" y2="72" gradientUnits="userSpaceOnUse">
<stop stop-color="white"/>
<stop offset="1" stop-color="white" stop-opacity="0"/>
</linearGradient>
<linearGradient id="paint17_linear_500_6042" x1="31" y1="72" x2="22" y2="72" gradientUnits="userSpaceOnUse">
<stop stop-color="white"/>
<stop offset="1" stop-color="white" stop-opacity="0"/>
</linearGradient>
<linearGradient id="paint18_linear_500_6042" x1="41" y1="63" x2="41" y2="72" gradientUnits="userSpaceOnUse">
<stop stop-color="white"/>
<stop offset="1" stop-color="white" stop-opacity="0"/>
</linearGradient>
<linearGradient id="paint19_linear_500_6042" x1="41" y1="81" x2="41" y2="72" gradientUnits="userSpaceOnUse">
<stop stop-color="white"/>
<stop offset="1" stop-color="white" stop-opacity="0"/>
</linearGradient>
<linearGradient id="paint20_linear_500_6042" x1="51" y1="72" x2="60" y2="72" gradientUnits="userSpaceOnUse">
<stop stop-color="white"/>
<stop offset="1" stop-color="white" stop-opacity="0"/>
</linearGradient>
<linearGradient id="paint21_linear_500_6042" x1="69" y1="72" x2="60" y2="72" gradientUnits="userSpaceOnUse">
<stop stop-color="white"/>
<stop offset="1" stop-color="white" stop-opacity="0"/>
</linearGradient>
<linearGradient id="paint22_linear_500_6042" x1="79" y1="72" x2="79" y2="63" gradientUnits="userSpaceOnUse">
<stop stop-color="white"/>
<stop offset="1" stop-color="white" stop-opacity="0"/>
</linearGradient>
<linearGradient id="paint23_linear_500_6042" x1="79" y1="81" x2="79" y2="72" gradientUnits="userSpaceOnUse">
<stop stop-color="white"/>
<stop offset="1" stop-color="white" stop-opacity="0"/>
</linearGradient>
</defs>
</svg>
