<svg width="100" height="100" viewBox="0 0 100 100" fill="none" xmlns="http://www.w3.org/2000/svg">
<path fill-rule="evenodd" clip-rule="evenodd" d="M49.9343 19L9 80.4014H90.8685L49.9343 19ZM57 32.4014H42.8685L49.9343 43L57 32.4014ZM49.9343 20.8028L57 31.4014H42.8685L49.9343 20.8028ZM57.9343 55L50.8685 44.4014H65L57.9343 55ZM34.8685 44.4014H49L41.9343 55L34.8685 44.4014ZM41.9343 32.8028L49 43.4014H34.8685L41.9343 32.8028ZM65.9343 67L58.8685 56.4014H73L65.9343 67ZM42.8685 56.4014H57L49.9343 67L42.8685 56.4014ZM26.8685 56.4014L33.9343 67L41 56.4014H26.8685ZM41 55.4014L33.9343 44.8028L26.8685 55.4014H41ZM66.8685 68.4014L73.9343 79L81 68.4014H66.8685ZM65 68.4014H50.8685L57.9343 79L65 68.4014ZM41.9343 79L34.8685 68.4014H49L41.9343 79ZM18.8685 68.4014L25.9343 79L33 68.4014H18.8685ZM33 67.4014L25.9343 56.8028L18.8685 67.4014H33ZM25 79.4014L17.9343 68.8028L10.8685 79.4014H25ZM41 79.4014L33.9343 68.8028L26.8685 79.4014H41ZM49.9343 68.8028L57 79.4014H42.8685L49.9343 68.8028ZM73 79.4014L65.9343 68.8028L58.8685 79.4014H73ZM81.9343 68.8028L89 79.4014H74.8685L81.9343 68.8028ZM41.9343 56.8028L49 67.4014H34.8685L41.9343 56.8028ZM65 67.4014L57.9343 56.8028L50.8685 67.4014H65ZM73.9343 56.8028L81 67.4014H66.8685L73.9343 56.8028ZM49.9343 44.8028L57 55.4014H42.8685L49.9343 44.8028ZM73 55.4014L65.9343 44.8028L58.8685 55.4014H73ZM65 43.4014L57.9343 32.8028L50.8685 43.4014H65Z" fill="url(#paint0_radial_500_6932)"/>
<defs>
<radialGradient id="paint0_radial_500_6932" cx="0" cy="0" r="1" gradientUnits="userSpaceOnUse" gradientTransform="translate(50 53) rotate(54.9042) scale(45.2217 60.2956)">
<stop stop-color="white"/>
<stop offset="1" stop-color="white" stop-opacity="0"/>
</radialGradient>
</defs>
</svg>
