<svg width="100" height="100" viewBox="0 0 100 100" fill="none" xmlns="http://www.w3.org/2000/svg">
<path fill-rule="evenodd" clip-rule="evenodd" d="M76.8175 61.5233C76.7166 61.5857 76.6144 61.6468 76.5112 61.7064C76.4033 61.7686 76.2947 61.8291 76.1855 61.8877C76.0848 61.9503 75.9829 62.0114 75.8797 62.071C75.7717 62.1333 75.663 62.1936 75.5534 62.252C75.453 62.3148 75.3513 62.376 75.2482 62.4355C75.1401 62.498 75.0311 62.5582 74.9213 62.6162C74.8212 62.6794 74.7197 62.7407 74.6167 62.8001C74.5085 62.8626 74.3992 62.9227 74.289 62.9804C74.1894 63.0439 74.0881 63.1053 73.9853 63.1647C73.8768 63.2273 73.7673 63.2872 73.6567 63.3445C73.5575 63.4084 73.4565 63.47 73.3538 63.5293C73.2452 63.592 73.1353 63.6517 73.0242 63.7085C72.9255 63.7728 72.8249 63.8346 72.7223 63.8939C72.6135 63.9567 72.5032 64.0162 72.3916 64.0723C72.2935 64.1373 72.1933 64.1993 72.0908 64.2585C66.5108 67.4801 56.6146 60.7862 49.9872 49.3072C43.3598 37.8282 42.5108 25.9109 48.0908 22.6892C48.1933 22.6301 48.2971 22.5743 48.4024 22.5218C48.5069 22.4532 48.6135 22.3875 48.7223 22.3247C48.8249 22.2654 48.9287 22.2092 49.0338 22.1559C49.1385 22.0881 49.2452 22.0228 49.3538 21.9601C49.4565 21.9008 49.5604 21.8441 49.6653 21.7901C49.7702 21.723 49.8768 21.6581 49.9853 21.5955C50.0881 21.5361 50.192 21.4791 50.2968 21.4246C50.4018 21.358 50.5085 21.2934 50.6167 21.2309C50.7197 21.1715 50.8236 21.1142 50.9283 21.0591C51.0335 20.993 51.1401 20.9287 51.2482 20.8663C51.3513 20.8068 51.4552 20.7493 51.5598 20.6938C51.6651 20.6281 51.7717 20.5641 51.8797 20.5017C51.9829 20.4422 52.0868 20.3844 52.1913 20.3285C52.2967 20.2632 52.4033 20.1994 52.5112 20.1372C52.6144 20.0775 52.7183 20.0196 52.8229 19.9634C52.9283 19.8984 53.0349 19.8348 53.1427 19.7726C61.5128 14.9401 73.6707 20.3282 80.2981 31.8072C86.9255 43.2862 85.5128 56.5093 77.1427 61.3418C77.0349 61.404 76.9265 61.4645 76.8175 61.5233ZM75.521 54.0602C75.1804 49.2796 73.3232 43.4596 70.0213 37.7405C66.7193 32.0214 62.6077 27.503 58.6378 24.8178C55.6714 22.8112 52.8184 21.8484 50.4453 22.1288C48.0198 24.6286 46.5625 28.1114 46.1397 32.0687C45.5737 37.367 46.8656 43.5004 50.1604 49.2072C53.4552 54.914 58.121 59.0995 62.9925 61.2585C66.6309 62.8709 70.3758 63.3503 73.7534 62.4996C75.1827 60.5847 75.7755 57.6325 75.521 54.0602ZM74.2681 62.3588C74.1983 62.3794 74.1285 62.3994 74.0584 62.4189C77.3199 57.7082 75.8939 47.5123 70.1945 37.6405C64.495 27.7687 56.3781 21.4359 50.6678 21.9051C50.7196 21.8541 50.7719 21.8036 50.8246 21.7535C53.4008 21.2476 56.5135 22.1409 59.7199 24.1981C63.8021 26.8172 67.9831 31.2937 71.2842 37.0113C74.5853 42.729 76.3716 48.5881 76.5987 53.433C76.7771 57.2384 75.9944 60.3807 74.2681 62.3588ZM74.7473 62.2069C74.7052 62.2212 74.6631 62.2352 74.621 62.249C78.4192 57.4991 77.2672 46.9741 71.4574 36.9113C65.6477 26.8486 57.1087 20.5884 51.0962 21.5028C51.1292 21.4732 51.1624 21.4437 51.1957 21.4144C53.9793 20.6692 57.3564 21.4811 60.8019 23.5782C64.9966 26.1313 69.2469 30.566 72.5472 36.2822C75.8474 41.9984 77.5628 47.8966 77.6765 52.8059C77.7699 56.8384 76.7844 60.1689 74.7473 62.2069ZM75.1945 62.0464C75.1848 62.0501 75.1752 62.0537 75.1655 62.0574C79.4952 57.2574 78.6288 46.4159 72.7204 36.1822C66.8119 25.9485 57.8561 19.7774 51.5344 21.127C51.5424 21.1205 51.5504 21.114 51.5584 21.1074C54.5535 20.1113 58.1998 20.8308 61.8839 22.9582C66.1912 25.4454 70.5108 29.8383 73.8101 35.553C77.1095 41.2677 78.7541 47.205 78.7545 52.1789C78.7548 56.433 77.5548 59.9506 75.1945 62.0464ZM64.6239 62.1145C67.1403 62.9785 69.6782 63.2998 72.0844 63.0108C69.7078 63.346 67.1654 63.0232 64.6239 62.1145ZM55.562 18.8993C59.1836 17.6819 63.3022 18.0874 67.2929 19.8559C72.1643 22.0148 76.8301 26.2004 80.1249 31.9072C83.4197 37.614 84.7116 43.7474 84.1456 49.0457C83.6819 53.386 81.9737 57.1555 79.1086 59.6832C84.6922 53.9516 84.8642 42.6325 79.0351 32.5363C73.2061 22.4402 63.3175 16.9295 55.562 18.8993ZM46.2141 30.2278C46.6979 27.5724 47.6895 25.2093 49.1681 23.3187C47.7147 25.258 46.7241 27.6166 46.2141 30.2278ZM77.7722 33.2655C83.6232 43.3997 83.6482 54.6389 78.2942 60.1813C81.0751 57.7357 82.6922 54.0058 83.0672 49.6721C83.52 44.4389 82.1577 38.3447 78.8619 32.6363C75.5662 26.928 70.9696 22.7011 66.2112 20.4766C62.2706 18.6345 58.2319 18.17 54.7234 19.3555C62.2003 17.49 71.9212 23.1313 77.7722 33.2655ZM64.1495 62.1523C66.7955 63.1627 69.4602 63.5512 71.9558 63.2301C69.4976 63.6078 66.8272 63.2177 64.1495 62.1523ZM48.9139 23.3204C47.3577 25.2603 46.3604 27.768 45.9442 30.6196C46.3922 27.8229 47.3881 25.321 48.9139 23.3204ZM63.7152 62.1907C66.4642 63.3456 69.2262 63.8045 71.779 63.4579C69.2723 63.8724 66.5033 63.412 63.7152 62.1907ZM53.8918 19.8085C57.2834 18.6552 61.2398 19.1798 65.1295 21.0972C69.775 23.3872 74.3023 27.6555 77.599 33.3655C80.8957 39.0755 82.3284 45.1304 81.9889 50.2986C81.7046 54.6259 80.1807 58.3145 77.4861 60.6751C82.6074 55.3241 82.3821 44.1669 76.5092 33.9947C70.6363 23.8225 61.0865 18.0488 53.8918 19.8085ZM45.6938 30.9767C46.0301 27.9514 47.0159 25.3231 48.6283 23.3595C47.0517 25.397 46.0681 28.0184 45.6938 30.9767ZM75.2463 34.7238C81.141 44.9338 81.5697 56.007 76.6844 61.1642C79.2904 58.892 80.7191 55.2463 80.9107 50.9252C81.1369 45.822 79.6336 39.8063 76.336 34.0947C73.0385 28.3831 68.5803 24.0733 64.0477 21.7177C60.2097 19.723 56.3381 19.1375 53.0673 20.2582C59.9763 18.606 69.3516 24.5139 75.2463 34.7238ZM63.3138 62.2298C66.1437 63.5274 68.9781 64.0598 71.5609 63.694C69.0339 64.14 66.1913 63.6065 63.3138 62.2298ZM48.3148 23.4304C46.665 25.3958 45.7057 28.1243 45.4592 31.3046C45.7504 28.205 46.7065 25.4842 48.3148 23.4304ZM62.9404 62.2702C65.8324 63.7082 68.7172 64.3168 71.3064 63.9379C68.7841 64.4104 65.8897 63.8014 62.9404 62.2702ZM52.2501 20.7046C55.3961 19.6166 59.1802 20.2641 62.9658 22.338C67.3857 24.7594 71.7746 29.1107 75.0731 34.8238C78.3716 40.537 79.9455 46.5135 79.8325 51.552C79.7357 55.8674 78.4045 59.4682 75.8892 61.6488C80.5352 56.6874 79.8997 45.7005 73.9833 35.453C68.0669 25.2055 58.8697 19.1617 52.2501 20.7046ZM45.2375 31.6079C45.3861 28.2881 46.3059 25.477 47.9763 23.5288C46.3535 25.5817 45.4382 28.3843 45.2375 31.6079ZM62.5909 62.3118C65.5288 63.8881 68.4447 64.5754 71.0195 64.1894C68.5239 64.6837 65.597 63.9971 62.5909 62.3118ZM47.615 23.6516C45.9391 25.5656 45.0703 28.4437 45.0267 31.8897C45.1305 28.5573 45.9933 25.6884 47.615 23.6516ZM62.2624 62.355C65.2316 64.0672 68.1612 64.8355 70.7031 64.4481C68.2545 64.96 65.3124 64.1941 62.2624 62.355ZM44.825 32.1526C44.7574 28.5917 45.5651 25.6608 47.2327 23.7962C45.6263 25.8038 44.8269 28.7251 44.825 32.1526ZM61.9522 62.4C64.9399 64.2454 67.8674 65.0969 70.3597 64.714C67.9765 65.2396 65.0352 64.3928 61.9522 62.4ZM46.8308 23.9607C45.184 25.7618 44.4467 28.7324 44.631 32.3987C44.5266 28.8886 45.253 25.9276 46.8308 23.9607Z" fill="white"/>
<path fill-rule="evenodd" clip-rule="evenodd" d="M47.6516 79.517C47.7561 79.4608 47.86 79.4028 47.9633 79.3432C48.0711 79.2809 48.1777 79.2171 48.2831 79.1518C48.3877 79.0959 48.4916 79.0382 48.5947 78.9786C48.7027 78.9163 48.8093 78.8523 48.9146 78.7866C49.0193 78.7311 49.1231 78.6735 49.2262 78.614C49.3343 78.5516 49.441 78.4873 49.5461 78.4212C49.6509 78.3662 49.7547 78.3089 49.8577 78.2495C49.966 78.1869 50.0726 78.1224 50.1776 78.0558C50.2825 78.0012 50.3863 77.9443 50.4892 77.8849C50.5976 77.8223 50.7042 77.7574 50.8091 77.6902C50.9141 77.6362 51.0179 77.5796 51.1206 77.5203C51.2293 77.4576 51.3359 77.3923 51.4406 77.3245C51.5457 77.2712 51.6495 77.2149 51.7521 77.1557C51.8609 77.0929 51.9676 77.0271 52.072 76.9585C52.1773 76.906 52.2812 76.8503 52.3836 76.7911C57.9637 73.5695 57.1146 61.6522 50.4872 50.1732C43.8598 38.6942 33.9637 32.0002 28.3836 35.2219C28.2812 35.281 28.1809 35.3431 28.0828 35.408C27.9712 35.4642 27.8609 35.5237 27.7521 35.5865C27.6495 35.6457 27.5489 35.7075 27.4502 35.7719C27.3391 35.8286 27.2292 35.8884 27.1206 35.9511C27.0179 36.0104 26.9169 36.072 26.8177 36.1359C26.7071 36.1931 26.5976 36.253 26.4892 36.3157C26.3863 36.375 26.285 36.4365 26.1854 36.5C26.0752 36.5576 25.9659 36.6177 25.8577 36.6802C25.7547 36.7397 25.6532 36.801 25.5531 36.8641C25.4433 36.9222 25.3343 36.9824 25.2262 37.0448C25.1231 37.1043 25.0214 37.1655 24.921 37.2284C24.8115 37.2867 24.7027 37.3471 24.5947 37.4094C24.4916 37.469 24.3896 37.5301 24.2889 37.5927C24.1797 37.6513 24.0711 37.7117 23.9633 37.774C23.86 37.8336 23.7579 37.8946 23.6569 37.957C23.5479 38.0158 23.4395 38.0764 23.3318 38.1386C14.9617 42.9711 13.5489 56.1942 20.1763 67.6732C26.8037 79.1522 38.9617 84.5403 47.3318 79.7078C47.4395 79.6456 47.5461 79.582 47.6516 79.517ZM41.8366 74.6626C37.8667 71.9773 33.7551 67.459 30.4532 61.7398C27.1512 56.0207 25.294 50.2008 24.9535 45.4202C24.699 41.8479 25.2917 38.8957 26.721 36.9808C30.0986 36.1301 33.8435 36.6094 37.482 38.2219C42.3535 40.3808 47.0192 44.5664 50.314 50.2732C53.6088 55.98 54.9008 62.1134 54.3347 67.4117C53.9119 71.369 52.4546 74.8518 50.0291 77.3515C47.6561 77.6319 44.803 76.6691 41.8366 74.6626ZM49.6498 77.7268C49.7025 77.6767 49.7548 77.6262 49.8067 77.5753C44.0964 78.0445 35.9794 71.7116 30.28 61.8398C24.5805 51.9681 23.1545 41.7722 26.416 37.0615C26.346 37.0809 26.2761 37.101 26.2064 37.1216C24.4801 39.0996 23.6974 42.242 23.8757 46.0474C24.1029 50.8923 25.8891 56.7514 29.1902 62.469C32.4913 68.1867 36.6723 72.6632 40.7545 75.2823C43.9609 77.3395 47.0736 78.2328 49.6498 77.7268ZM49.2787 78.0659C49.312 78.0366 49.3452 78.0072 49.3783 77.9775C43.3657 78.8919 34.8268 72.6318 29.017 62.569C23.2073 52.5062 22.0553 41.9812 25.8535 37.2314C25.8113 37.2452 25.7692 37.2592 25.7271 37.2734C23.69 39.3114 22.7045 42.642 22.7979 46.6745C22.9116 51.5838 24.627 57.482 27.9273 63.1982C31.2275 68.9143 35.4778 73.349 39.6725 75.9022C43.1181 77.9993 46.4952 78.8111 49.2787 78.0659ZM48.9161 78.3729C48.9241 78.3664 48.9321 78.3599 48.94 78.3533C42.6183 79.7029 33.6625 73.5319 27.7541 63.2982C21.8456 53.0645 20.9792 42.223 25.3089 37.423C25.2993 37.4266 25.2896 37.4303 25.28 37.434C22.9197 39.5297 21.7197 43.0474 21.72 47.3015C21.7203 52.2753 23.3649 58.2127 26.6643 63.9273C29.9637 69.642 34.2833 74.035 38.5905 76.5222C42.2746 78.6495 45.9209 79.3691 48.9161 78.3729ZM54.2603 69.2526C53.7503 71.8638 52.7597 74.2224 51.3063 76.1617C52.7849 74.2711 53.7765 71.9079 54.2603 69.2526ZM21.3659 39.7971C18.5007 42.3249 16.7926 46.0944 16.3288 50.4347C15.7628 55.733 17.0547 61.8664 20.3495 67.5732C23.6443 73.28 28.3101 77.4655 33.1816 79.6245C37.1722 81.393 41.2908 81.7985 44.9125 80.581C37.1569 82.5508 27.2683 77.0402 21.4393 66.944C15.6103 56.8478 15.7822 45.5287 21.3659 39.7971ZM35.8505 37.3659C33.309 36.4572 30.7667 36.1344 28.3901 36.4696C30.7963 36.1805 33.3342 36.5019 35.8505 37.3659ZM22.7022 66.2148C28.5532 76.3491 38.2741 81.9903 45.751 80.1249C42.2425 81.3104 38.2038 80.8458 34.2632 79.0037C29.5048 76.7793 24.9082 72.5524 21.6125 66.844C18.3167 61.1356 16.9544 55.0414 17.4072 49.8083C17.7822 45.4746 19.3993 41.7447 22.1802 39.299C16.8262 44.8415 16.8512 56.0806 22.7022 66.2148ZM54.5302 68.8607C54.0822 71.6574 53.0864 74.1593 51.5605 76.16C53.1167 74.22 54.1141 71.7123 54.5302 68.8607ZM28.5187 36.2503C30.9768 35.8726 33.6471 36.2627 36.3248 37.328C33.6788 36.3177 31.0142 35.9292 28.5187 36.2503ZM54.7806 68.5037C54.4064 71.4619 53.4228 74.0833 51.8462 76.1208C53.4586 74.1572 54.4443 71.529 54.7806 68.5037ZM22.9883 38.8053C20.2938 41.1659 18.7698 44.8545 18.4855 49.1818C18.146 54.3499 19.5788 60.4049 22.8754 66.1148C26.1721 71.8248 30.6995 76.0931 35.345 78.3832C39.2346 80.3006 43.191 80.8251 46.5826 79.6719C39.3879 81.4315 29.8381 75.6579 23.9652 65.4857C18.0923 55.3135 17.867 44.1563 22.9883 38.8053ZM36.7592 37.2897C33.9711 36.0683 31.202 35.6079 28.6953 36.0225C31.2481 35.6758 34.0102 36.1347 36.7592 37.2897ZM25.2281 64.7565C31.1229 74.9665 40.4982 80.8743 47.4071 79.2222C44.1363 80.3429 40.2647 79.7573 36.4268 77.7627C31.8941 75.407 27.436 71.0973 24.1384 65.3857C20.8408 59.6741 19.3375 53.6584 19.5638 48.5551C19.7554 44.234 21.184 40.5884 23.79 38.3161C18.9047 43.4734 19.3334 54.5466 25.2281 64.7565ZM55.0153 68.1757C54.724 71.2753 53.7679 73.996 52.1597 76.0499C53.8094 74.0845 54.7687 71.356 55.0153 68.1757ZM28.9135 35.7864C31.4404 35.3404 34.2831 35.8739 37.1606 37.2505C34.3306 35.9529 31.4963 35.4206 28.9135 35.7864ZM55.2369 67.8725C55.0363 71.0961 54.1209 73.8987 52.4981 75.9515C54.1685 74.0033 55.0883 71.1922 55.2369 67.8725ZM24.5852 37.8316C22.07 40.0122 20.7387 43.613 20.6419 47.9284C20.5289 52.9669 22.1029 58.9434 25.4014 64.6565C28.6998 70.3696 33.0887 74.721 37.5086 77.1424C41.2942 79.2163 45.0783 79.8638 48.2243 78.7758C41.6047 80.3186 32.4075 74.2748 26.4911 64.0273C20.5747 53.7799 19.9393 42.7929 24.5852 37.8316ZM37.534 37.2102C34.5847 35.679 31.6903 35.07 29.1679 35.5425C31.7572 35.1636 34.642 35.7721 37.534 37.2102ZM55.4477 67.5907C55.3439 70.923 54.4811 73.7919 52.8594 75.8287C54.5353 73.9147 55.4041 71.0366 55.4477 67.5907ZM29.4549 35.291C31.9504 34.7967 34.8774 35.4833 37.8835 37.1685C34.9456 35.5922 32.0297 34.9049 29.4549 35.291ZM55.6494 67.3277C55.6476 70.7552 54.8481 73.6765 53.2417 75.6841C54.9094 73.8195 55.717 70.8886 55.6494 67.3277ZM38.212 37.1253C35.162 35.2863 32.2199 34.5203 29.7713 35.0322C32.3132 34.6448 35.2428 35.4132 38.212 37.1253ZM55.8435 67.0816C55.9478 70.5917 55.2215 73.5527 53.6436 75.5197C55.2904 73.7186 56.0277 70.7479 55.8435 67.0816ZM30.1147 34.7664C32.4979 34.2408 35.4392 35.0876 38.5222 37.0803C35.5345 35.2349 32.607 34.3834 30.1147 34.7664Z" fill="white"/>
</svg>
