<svg width="100" height="100" viewBox="0 0 100 100" fill="none" xmlns="http://www.w3.org/2000/svg">
<path d="M85.75 36C85.75 40.8249 81.8322 45.2602 75.344 48.5043C68.8709 51.7409 59.9107 53.75 50 53.75C40.0893 53.75 31.1291 51.7409 24.656 48.5043C18.1678 45.2602 14.25 40.8249 14.25 36C14.25 31.1751 18.1678 26.7398 24.656 23.4957C31.1291 20.2591 40.0893 18.25 50 18.25C59.9107 18.25 68.8709 20.2591 75.344 23.4957C81.8322 26.7398 85.75 31.1751 85.75 36Z" stroke="url(#paint0_linear_500_6703)" stroke-width="0.5"/>
<path d="M85.75 38C85.75 42.8249 81.8322 47.2602 75.344 50.5043C68.8709 53.7409 59.9107 55.75 50 55.75C40.0893 55.75 31.1291 53.7409 24.656 50.5043C18.1678 47.2602 14.25 42.8249 14.25 38C14.25 33.1751 18.1678 28.7398 24.656 25.4957C31.1291 22.2591 40.0893 20.25 50 20.25C59.9107 20.25 68.8709 22.2591 75.344 25.4957C81.8322 28.7398 85.75 33.1751 85.75 38Z" stroke="url(#paint1_linear_500_6703)" stroke-width="0.5"/>
<path d="M85.75 40C85.75 44.8249 81.8322 49.2602 75.344 52.5043C68.8709 55.7409 59.9107 57.75 50 57.75C40.0893 57.75 31.1291 55.7409 24.656 52.5043C18.1678 49.2602 14.25 44.8249 14.25 40C14.25 35.1751 18.1678 30.7398 24.656 27.4957C31.1291 24.2591 40.0893 22.25 50 22.25C59.9107 22.25 68.8709 24.2591 75.344 27.4957C81.8322 30.7398 85.75 35.1751 85.75 40Z" stroke="url(#paint2_linear_500_6703)" stroke-width="0.5"/>
<path d="M85.75 42C85.75 46.8249 81.8322 51.2602 75.344 54.5043C68.8709 57.7409 59.9107 59.75 50 59.75C40.0893 59.75 31.1291 57.7409 24.656 54.5043C18.1678 51.2602 14.25 46.8249 14.25 42C14.25 37.1751 18.1678 32.7398 24.656 29.4957C31.1291 26.2591 40.0893 24.25 50 24.25C59.9107 24.25 68.8709 26.2591 75.344 29.4957C81.8322 32.7398 85.75 37.1751 85.75 42Z" stroke="url(#paint3_linear_500_6703)" stroke-width="0.5"/>
<path d="M85.75 44C85.75 48.8249 81.8322 53.2602 75.344 56.5043C68.8709 59.7409 59.9107 61.75 50 61.75C40.0893 61.75 31.1291 59.7409 24.656 56.5043C18.1678 53.2602 14.25 48.8249 14.25 44C14.25 39.1751 18.1678 34.7398 24.656 31.4957C31.1291 28.2591 40.0893 26.25 50 26.25C59.9107 26.25 68.8709 28.2591 75.344 31.4957C81.8322 34.7398 85.75 39.1751 85.75 44Z" stroke="url(#paint4_linear_500_6703)" stroke-width="0.5"/>
<path d="M85.75 46C85.75 50.8249 81.8322 55.2602 75.344 58.5043C68.8709 61.7409 59.9107 63.75 50 63.75C40.0893 63.75 31.1291 61.7409 24.656 58.5043C18.1678 55.2602 14.25 50.8249 14.25 46C14.25 41.1751 18.1678 36.7398 24.656 33.4957C31.1291 30.2591 40.0893 28.25 50 28.25C59.9107 28.25 68.8709 30.2591 75.344 33.4957C81.8322 36.7398 85.75 41.1751 85.75 46Z" stroke="url(#paint5_linear_500_6703)" stroke-width="0.5"/>
<path d="M85.75 48C85.75 52.8249 81.8322 57.2602 75.344 60.5043C68.8709 63.7409 59.9107 65.75 50 65.75C40.0893 65.75 31.1291 63.7409 24.656 60.5043C18.1678 57.2602 14.25 52.8249 14.25 48C14.25 43.1751 18.1678 38.7398 24.656 35.4957C31.1291 32.2591 40.0893 30.25 50 30.25C59.9107 30.25 68.8709 32.2591 75.344 35.4957C81.8322 38.7398 85.75 43.1751 85.75 48Z" stroke="url(#paint6_linear_500_6703)" stroke-width="0.5"/>
<path d="M85.75 50C85.75 54.8249 81.8322 59.2602 75.344 62.5043C68.8709 65.7409 59.9107 67.75 50 67.75C40.0893 67.75 31.1291 65.7409 24.656 62.5043C18.1678 59.2602 14.25 54.8249 14.25 50C14.25 45.1751 18.1678 40.7398 24.656 37.4957C31.1291 34.2591 40.0893 32.25 50 32.25C59.9107 32.25 68.8709 34.2591 75.344 37.4957C81.8322 40.7398 85.75 45.1751 85.75 50Z" stroke="url(#paint7_linear_500_6703)" stroke-width="0.5"/>
<path d="M85.75 52C85.75 56.8249 81.8322 61.2602 75.344 64.5043C68.8709 67.7409 59.9107 69.75 50 69.75C40.0893 69.75 31.1291 67.7409 24.656 64.5043C18.1678 61.2602 14.25 56.8249 14.25 52C14.25 47.1751 18.1678 42.7398 24.656 39.4957C31.1291 36.2591 40.0893 34.25 50 34.25C59.9107 34.25 68.8709 36.2591 75.344 39.4957C81.8322 42.7398 85.75 47.1751 85.75 52Z" stroke="url(#paint8_linear_500_6703)" stroke-width="0.5"/>
<path d="M85.75 54C85.75 58.8249 81.8322 63.2602 75.344 66.5043C68.8709 69.7409 59.9107 71.75 50 71.75C40.0893 71.75 31.1291 69.7409 24.656 66.5043C18.1678 63.2602 14.25 58.8249 14.25 54C14.25 49.1751 18.1678 44.7398 24.656 41.4957C31.1291 38.2591 40.0893 36.25 50 36.25C59.9107 36.25 68.8709 38.2591 75.344 41.4957C81.8322 44.7398 85.75 49.1751 85.75 54Z" stroke="url(#paint9_linear_500_6703)" stroke-width="0.5"/>
<path d="M85.75 56C85.75 60.8249 81.8322 65.2602 75.344 68.5043C68.8709 71.7409 59.9107 73.75 50 73.75C40.0893 73.75 31.1291 71.7409 24.656 68.5043C18.1678 65.2602 14.25 60.8249 14.25 56C14.25 51.1751 18.1678 46.7398 24.656 43.4957C31.1291 40.2591 40.0893 38.25 50 38.25C59.9107 38.25 68.8709 40.2591 75.344 43.4957C81.8322 46.7398 85.75 51.1751 85.75 56Z" stroke="url(#paint10_linear_500_6703)" stroke-width="0.5"/>
<path d="M85.75 58C85.75 62.8249 81.8322 67.2602 75.344 70.5043C68.8709 73.7409 59.9107 75.75 50 75.75C40.0893 75.75 31.1291 73.7409 24.656 70.5043C18.1678 67.2602 14.25 62.8249 14.25 58C14.25 53.1751 18.1678 48.7398 24.656 45.4957C31.1291 42.2591 40.0893 40.25 50 40.25C59.9107 40.25 68.8709 42.2591 75.344 45.4957C81.8322 48.7398 85.75 53.1751 85.75 58Z" stroke="url(#paint11_linear_500_6703)" stroke-width="0.5"/>
<path d="M85.75 60C85.75 64.8249 81.8322 69.2602 75.344 72.5043C68.8709 75.7409 59.9107 77.75 50 77.75C40.0893 77.75 31.1291 75.7409 24.656 72.5043C18.1678 69.2602 14.25 64.8249 14.25 60C14.25 55.1751 18.1678 50.7398 24.656 47.4957C31.1291 44.2591 40.0893 42.25 50 42.25C59.9107 42.25 68.8709 44.2591 75.344 47.4957C81.8322 50.7398 85.75 55.1751 85.75 60Z" stroke="url(#paint12_linear_500_6703)" stroke-width="0.5"/>
<path d="M85.75 62C85.75 66.8249 81.8322 71.2602 75.344 74.5043C68.8709 77.7409 59.9107 79.75 50 79.75C40.0893 79.75 31.1291 77.7409 24.656 74.5043C18.1678 71.2602 14.25 66.8249 14.25 62C14.25 57.1751 18.1678 52.7398 24.656 49.4957C31.1291 46.2591 40.0893 44.25 50 44.25C59.9107 44.25 68.8709 46.2591 75.344 49.4957C81.8322 52.7398 85.75 57.1751 85.75 62Z" stroke="url(#paint13_linear_500_6703)" stroke-width="0.5"/>
<path d="M85.75 64C85.75 68.8249 81.8322 73.2602 75.344 76.5043C68.8709 79.7409 59.9107 81.75 50 81.75C40.0893 81.75 31.1291 79.7409 24.656 76.5043C18.1678 73.2602 14.25 68.8249 14.25 64C14.25 59.1751 18.1678 54.7398 24.656 51.4957C31.1291 48.2591 40.0893 46.25 50 46.25C59.9107 46.25 68.8709 48.2591 75.344 51.4957C81.8322 54.7398 85.75 59.1751 85.75 64Z" stroke="url(#paint14_linear_500_6703)" stroke-width="0.5"/>
<defs>
<linearGradient id="paint0_linear_500_6703" x1="50" y1="18" x2="50" y2="54" gradientUnits="userSpaceOnUse">
<stop stop-color="white"/>
<stop offset="1" stop-color="#807D7D" stop-opacity="0.54"/>
</linearGradient>
<linearGradient id="paint1_linear_500_6703" x1="50" y1="20" x2="50" y2="56" gradientUnits="userSpaceOnUse">
<stop stop-color="white"/>
<stop offset="1" stop-color="#807D7D" stop-opacity="0.54"/>
</linearGradient>
<linearGradient id="paint2_linear_500_6703" x1="50" y1="22" x2="50" y2="58" gradientUnits="userSpaceOnUse">
<stop stop-color="white"/>
<stop offset="1" stop-color="#807D7D" stop-opacity="0.54"/>
</linearGradient>
<linearGradient id="paint3_linear_500_6703" x1="50" y1="24" x2="50" y2="60" gradientUnits="userSpaceOnUse">
<stop stop-color="white"/>
<stop offset="1" stop-color="#807D7D" stop-opacity="0.54"/>
</linearGradient>
<linearGradient id="paint4_linear_500_6703" x1="50" y1="26" x2="50" y2="62" gradientUnits="userSpaceOnUse">
<stop stop-color="white"/>
<stop offset="1" stop-color="#807D7D" stop-opacity="0.54"/>
</linearGradient>
<linearGradient id="paint5_linear_500_6703" x1="50" y1="28" x2="50" y2="64" gradientUnits="userSpaceOnUse">
<stop stop-color="white"/>
<stop offset="1" stop-color="#807D7D" stop-opacity="0.54"/>
</linearGradient>
<linearGradient id="paint6_linear_500_6703" x1="50" y1="30" x2="50" y2="66" gradientUnits="userSpaceOnUse">
<stop stop-color="white"/>
<stop offset="1" stop-color="#807D7D" stop-opacity="0.54"/>
</linearGradient>
<linearGradient id="paint7_linear_500_6703" x1="50" y1="32" x2="50" y2="68" gradientUnits="userSpaceOnUse">
<stop stop-color="white"/>
<stop offset="1" stop-color="#807D7D" stop-opacity="0.54"/>
</linearGradient>
<linearGradient id="paint8_linear_500_6703" x1="50" y1="34" x2="50" y2="70" gradientUnits="userSpaceOnUse">
<stop stop-color="white"/>
<stop offset="1" stop-color="#807D7D" stop-opacity="0.54"/>
</linearGradient>
<linearGradient id="paint9_linear_500_6703" x1="50" y1="36" x2="50" y2="72" gradientUnits="userSpaceOnUse">
<stop stop-color="white"/>
<stop offset="1" stop-color="#807D7D" stop-opacity="0.54"/>
</linearGradient>
<linearGradient id="paint10_linear_500_6703" x1="50" y1="38" x2="50" y2="74" gradientUnits="userSpaceOnUse">
<stop stop-color="white"/>
<stop offset="1" stop-color="#807D7D" stop-opacity="0.54"/>
</linearGradient>
<linearGradient id="paint11_linear_500_6703" x1="50" y1="40" x2="50" y2="76" gradientUnits="userSpaceOnUse">
<stop stop-color="white"/>
<stop offset="1" stop-color="#807D7D" stop-opacity="0.54"/>
</linearGradient>
<linearGradient id="paint12_linear_500_6703" x1="50" y1="42" x2="50" y2="78" gradientUnits="userSpaceOnUse">
<stop stop-color="white"/>
<stop offset="1" stop-color="#807D7D" stop-opacity="0.54"/>
</linearGradient>
<linearGradient id="paint13_linear_500_6703" x1="50" y1="44" x2="50" y2="80" gradientUnits="userSpaceOnUse">
<stop stop-color="white"/>
<stop offset="1" stop-color="#807D7D" stop-opacity="0.54"/>
</linearGradient>
<linearGradient id="paint14_linear_500_6703" x1="50" y1="46" x2="50" y2="82" gradientUnits="userSpaceOnUse">
<stop stop-color="white"/>
<stop offset="1" stop-color="#807D7D" stop-opacity="0.54"/>
</linearGradient>
</defs>
</svg>
