<svg width="100" height="100" viewBox="0 0 100 100" fill="none" xmlns="http://www.w3.org/2000/svg">
<path d="M61.1962 50C61.1962 58.8107 59.6482 66.7754 57.1554 72.528C55.9088 75.4047 54.4309 77.7169 52.8025 79.3064C51.1752 80.8947 49.4106 81.75 47.5796 81.75C45.7485 81.75 43.9839 80.8947 42.3566 79.3064C40.7282 77.7169 39.2503 75.4047 38.0037 72.528C35.5109 66.7754 33.9629 58.8107 33.9629 50C33.9629 41.1893 35.5109 33.2246 38.0037 27.472C39.2503 24.5953 40.7282 22.2831 42.3566 20.6936C43.9839 19.1053 45.7485 18.25 47.5796 18.25C49.4106 18.25 51.1752 19.1053 52.8025 20.6936C54.4309 22.2831 55.9088 24.5953 57.1554 27.472C59.6482 33.2246 61.1962 41.1893 61.1962 50Z" stroke="url(#paint0_linear_500_6377)" stroke-width="0.5"/>
<path d="M63.3295 50C63.3295 58.8107 61.7815 66.7754 59.2887 72.528C58.0421 75.4047 56.5642 77.7169 54.9358 79.3064C53.3085 80.8947 51.5439 81.75 49.7129 81.75C47.8818 81.75 46.1172 80.8947 44.4899 79.3064C42.8615 77.7169 41.3836 75.4047 40.137 72.528C37.6442 66.7754 36.0962 58.8107 36.0962 50C36.0962 41.1893 37.6442 33.2246 40.137 27.472C41.3836 24.5953 42.8615 22.2831 44.4899 20.6936C46.1172 19.1053 47.8818 18.25 49.7129 18.25C51.5439 18.25 53.3085 19.1053 54.9358 20.6936C56.5642 22.2831 58.0421 24.5953 59.2887 27.472C61.7815 33.2246 63.3295 41.1893 63.3295 50Z" stroke="url(#paint1_linear_500_6377)" stroke-width="0.5"/>
<path d="M65.4629 50C65.4629 58.8107 63.9149 66.7754 61.4221 72.528C60.1755 75.4047 58.6976 77.7169 57.0692 79.3064C55.4419 80.8947 53.6773 81.75 51.8463 81.75C50.0153 81.75 48.2506 80.8947 46.6234 79.3064C44.995 77.7169 43.517 75.4047 42.2705 72.528C39.7776 66.7754 38.2296 58.8107 38.2296 50C38.2296 41.1893 39.7776 33.2246 42.2705 27.472C43.517 24.5953 44.995 22.2831 46.6234 20.6936C48.2506 19.1053 50.0153 18.25 51.8463 18.25C53.6773 18.25 55.4419 19.1053 57.0692 20.6936C58.6976 22.2831 60.1755 24.5953 61.4221 27.472C63.9149 33.2246 65.4629 41.1893 65.4629 50Z" stroke="url(#paint2_linear_500_6377)" stroke-width="0.5"/>
<path d="M55.4545 40.0552C63.0848 44.4605 69.2084 49.7835 72.9439 54.8187C74.8119 57.3366 76.0754 59.7726 76.6377 61.9776C77.1996 64.181 77.058 66.1368 76.1425 67.7226C75.2269 69.3083 73.6039 70.4088 71.4148 71.0239C69.2241 71.6394 66.4827 71.7633 63.3681 71.4045C57.1397 70.687 49.4681 68.0453 41.8378 63.6399C34.2075 59.2346 28.0839 53.9116 24.3484 48.8765C22.4804 46.3585 21.2169 43.9225 20.6546 41.7175C20.0927 39.5141 20.2343 37.5583 21.1498 35.9726C22.0654 34.3868 23.6884 33.2863 25.8775 32.6712C28.0682 32.0557 30.8096 31.9319 33.9242 32.2906C40.1526 33.0081 47.8242 35.6498 55.4545 40.0552Z" stroke="url(#paint3_linear_500_6377)" stroke-width="0.5"/>
<path d="M56.5211 38.2076C64.1514 42.613 70.275 47.936 74.0105 52.9711C75.8786 55.4891 77.142 57.9251 77.7043 60.13C78.2662 62.3335 78.1246 64.2893 77.2091 65.875C76.2936 67.4607 74.6706 68.5613 72.4814 69.1764C70.2907 69.7919 67.5493 69.9157 64.4347 69.5569C58.2064 68.8395 50.5347 66.1978 42.9045 61.7924C35.2742 57.3871 29.1506 52.0641 25.4151 47.0289C23.547 44.511 22.2836 42.075 21.7213 39.87C21.1594 37.6666 21.301 35.7107 22.2165 34.125C23.132 32.5393 24.755 31.4388 26.9442 30.8237C29.1349 30.2081 31.8763 30.0843 34.9909 30.4431C41.2192 31.1606 48.8908 33.8023 56.5211 38.2076Z" stroke="url(#paint4_linear_500_6377)" stroke-width="0.5"/>
<path d="M57.5878 36.3601C65.2181 40.7655 71.3417 46.0885 75.0772 51.1236C76.9452 53.6416 78.2087 56.0776 78.771 58.2825C79.3329 60.486 79.1913 62.4418 78.2758 64.0275C77.3602 65.6132 75.7372 66.7138 73.5481 67.3289C71.3574 67.9444 68.616 68.0682 65.5014 67.7094C59.273 66.992 51.6014 64.3502 43.9711 59.9449C36.3408 55.5396 30.2172 50.2166 26.4817 45.1814C24.6137 42.6635 23.3502 40.2275 22.7879 38.0225C22.226 35.8191 22.3676 33.8632 23.2831 32.2775C24.1987 30.6918 25.8217 29.5913 28.0108 28.9762C30.2015 28.3606 32.9429 28.2368 36.0575 28.5956C42.2859 29.3131 49.9575 31.9548 57.5878 36.3601Z" stroke="url(#paint5_linear_500_6377)" stroke-width="0.5"/>
<path d="M43.9712 40.0552C36.3409 44.4605 30.2173 49.7835 26.4818 54.8187C24.6137 57.3366 23.3503 59.7726 22.788 61.9776C22.2261 64.181 22.3677 66.1368 23.2832 67.7226C24.1987 69.3083 25.8217 70.4088 28.0109 71.0239C30.2016 71.6394 32.943 71.7633 36.0576 71.4045C42.2859 70.687 49.9576 68.0453 57.5878 63.6399C65.2181 59.2346 71.3417 53.9116 75.0773 48.8765C76.9453 46.3585 78.2087 43.9225 78.771 41.7175C79.3329 39.5141 79.1913 37.5583 78.2758 35.9726C77.3603 34.3868 75.7373 33.2863 73.5481 32.6712C71.3574 32.0557 68.616 31.9319 65.5014 32.2906C59.2731 33.0081 51.6015 35.6498 43.9712 40.0552Z" stroke="url(#paint6_linear_500_6377)" stroke-width="0.5"/>
<path d="M42.9045 38.2076C35.2742 42.613 29.1507 47.936 25.4151 52.9711C23.5471 55.4891 22.2836 57.9251 21.7213 60.13C21.1594 62.3335 21.301 64.2893 22.2166 65.875C23.1321 67.4607 24.7551 68.5613 26.9443 69.1764C29.135 69.7919 31.8763 69.9157 34.9909 69.5569C41.2193 68.8395 48.8909 66.1978 56.5212 61.7924C64.1515 57.3871 70.2751 52.0641 74.0106 47.0289C75.8786 44.511 77.1421 42.075 77.7044 39.87C78.2663 37.6666 78.1247 35.7107 77.2092 34.125C76.2937 32.5393 74.6706 31.4388 72.4815 30.8237C70.2908 30.2081 67.5494 30.0843 64.4348 30.4431C58.2064 31.1606 50.5348 33.8023 42.9045 38.2076Z" stroke="url(#paint7_linear_500_6377)" stroke-width="0.5"/>
<path d="M41.8379 36.3601C34.2076 40.7655 28.084 46.0885 24.3485 51.1236C22.4804 53.6416 21.217 56.0776 20.6547 58.2825C20.0928 60.486 20.2344 62.4418 21.1499 64.0275C22.0654 65.6132 23.6884 66.7138 25.8776 67.3289C28.0683 67.9444 30.8097 68.0682 33.9243 67.7094C40.1526 66.992 47.8243 64.3502 55.4545 59.9449C63.0848 55.5396 69.2084 50.2166 72.944 45.1814C74.812 42.6635 76.0754 40.2275 76.6377 38.0225C77.1996 35.8191 77.058 33.8632 76.1425 32.2775C75.227 30.6918 73.604 29.5913 71.4148 28.9762C69.2241 28.3606 66.4827 28.2368 63.3681 28.5956C57.1398 29.3131 49.4682 31.9548 41.8379 36.3601Z" stroke="url(#paint8_linear_500_6377)" stroke-width="0.5"/>
<defs>
<linearGradient id="paint0_linear_500_6377" x1="47.5796" y1="18" x2="62.666" y2="88.38" gradientUnits="userSpaceOnUse">
<stop stop-color="white"/>
<stop offset="1" stop-color="white" stop-opacity="0"/>
</linearGradient>
<linearGradient id="paint1_linear_500_6377" x1="49.7129" y1="18" x2="64.7993" y2="88.38" gradientUnits="userSpaceOnUse">
<stop stop-color="white"/>
<stop offset="1" stop-color="white" stop-opacity="0"/>
</linearGradient>
<linearGradient id="paint2_linear_500_6377" x1="51.8463" y1="18" x2="66.9328" y2="88.38" gradientUnits="userSpaceOnUse">
<stop stop-color="white"/>
<stop offset="1" stop-color="white" stop-opacity="0"/>
</linearGradient>
<linearGradient id="paint3_linear_500_6377" x1="20.9333" y1="35.8476" x2="89.4275" y2="57.9723" gradientUnits="userSpaceOnUse">
<stop stop-color="white"/>
<stop offset="1" stop-color="white" stop-opacity="0"/>
</linearGradient>
<linearGradient id="paint4_linear_500_6377" x1="22" y1="34" x2="90.4941" y2="56.1248" gradientUnits="userSpaceOnUse">
<stop stop-color="white"/>
<stop offset="1" stop-color="white" stop-opacity="0"/>
</linearGradient>
<linearGradient id="paint5_linear_500_6377" x1="23.0666" y1="32.1525" x2="91.5608" y2="54.2773" gradientUnits="userSpaceOnUse">
<stop stop-color="white"/>
<stop offset="1" stop-color="white" stop-opacity="0"/>
</linearGradient>
<linearGradient id="paint6_linear_500_6377" x1="78.4923" y1="35.8476" x2="9.99819" y2="57.9723" gradientUnits="userSpaceOnUse">
<stop stop-color="white"/>
<stop offset="1" stop-color="white" stop-opacity="0"/>
</linearGradient>
<linearGradient id="paint7_linear_500_6377" x1="77.4257" y1="34" x2="8.93154" y2="56.1248" gradientUnits="userSpaceOnUse">
<stop stop-color="white"/>
<stop offset="1" stop-color="white" stop-opacity="0"/>
</linearGradient>
<linearGradient id="paint8_linear_500_6377" x1="76.359" y1="32.1525" x2="7.86489" y2="54.2773" gradientUnits="userSpaceOnUse">
<stop stop-color="white"/>
<stop offset="1" stop-color="white" stop-opacity="0"/>
</linearGradient>
</defs>
</svg>
