<svg width="100" height="100" viewBox="0 0 100 100" fill="none" xmlns="http://www.w3.org/2000/svg">
<path fill-rule="evenodd" clip-rule="evenodd" d="M10.0192 17.0155C10.0064 17.2525 10 17.4905 10 17.7294C10 17.9682 10.0064 18.2061 10.0192 18.4432C10.0064 18.6803 10 18.9183 10 19.1571C10 31.7729 27.9086 42 50 42C72.0914 42 90 31.7729 90 19.1571C90 18.9183 89.9936 18.6803 89.9808 18.4432C89.9936 18.2062 90 17.9682 90 17.7294C90 17.4905 89.9936 17.2526 89.9808 17.0155C89.9936 16.7784 90 16.5404 90 16.3016C90 16.0629 89.9936 15.8249 89.9808 15.5879C89.9936 15.3509 90 15.113 90 14.8743C90 14.6354 89.9936 14.3973 89.9808 14.1602C89.9936 13.9231 90 13.685 90 13.4462C90 13.2074 89.9936 12.9695 89.9808 12.7325C89.9936 12.4955 90 12.2576 90 12.0188C90 11.78 89.9936 11.542 89.9808 11.3049C89.9854 11.2193 89.9892 11.1334 89.9922 11.0475C88.1661 12.8699 85.9664 14.5538 83.4529 16.0651C81.8677 17.543 79.9684 18.9196 77.7884 20.1645C70.7266 24.1973 60.904 26.7234 50 26.7234C39.096 26.7234 29.2734 24.1973 22.2116 20.1645C19.4922 18.6115 17.2095 16.8537 15.4286 14.9498C22.3635 21.7357 35.2493 26.2953 50 26.2953C63.7809 26.2953 75.9341 22.3155 83.1276 16.2587C81.0013 17.5112 78.6569 18.6418 76.1295 19.6302C69.2258 23.1389 60.0745 25.2953 50 25.2953C39.096 25.2953 29.2734 22.7692 22.2116 18.7364C21.6053 18.3901 21.0207 18.0337 20.4585 17.6677C16.1929 15.5187 12.6356 12.9196 10.0131 9.99994C10.0044 10.1964 10 10.3934 10 10.5911C10 10.8299 10.0064 11.0678 10.0192 11.3049C10.0064 11.542 10 11.78 10 12.0188C10 12.2576 10.0064 12.4955 10.0191 12.7325C10.0064 12.9695 10 13.2074 10 13.4462C10 13.6851 10.0064 13.9231 10.0192 14.1602C10.0064 14.3973 10 14.6354 10 14.8743C10 15.113 10.0064 15.3509 10.0191 15.5879C10.0064 15.8249 10 16.0628 10 16.3016C10 16.5405 10.0064 16.7784 10.0192 17.0155ZM15.4372 16.3864C22.3742 23.1676 35.2554 27.7234 50 27.7234C64.7446 27.7234 77.6258 23.1676 84.5628 16.3864C82.7831 18.2868 80.5034 20.0414 77.7884 21.5919C70.7266 25.6247 60.904 28.1508 50 28.1508C39.096 28.1508 29.2734 25.6247 22.2116 21.5919C19.4966 20.0414 17.2169 18.2868 15.4372 16.3864ZM22.2116 23.0196C19.4944 21.4679 17.2132 19.7116 15.4328 17.8095C22.3688 24.593 35.2524 29.1508 50 29.1508C64.7476 29.1508 77.6312 24.593 84.5671 17.8095C82.7868 19.7117 80.5056 21.4679 77.7884 23.0196C70.7266 27.0524 60.904 29.5785 50 29.5785C39.096 29.5785 29.2734 27.0524 22.2116 23.0196ZM15.4329 19.2372C17.2132 21.1394 19.4944 22.8956 22.2116 24.4473C29.2734 28.4801 39.096 31.0063 50 31.0063C60.904 31.0063 70.7266 28.4801 77.7884 24.4473C80.5056 22.8956 82.7868 21.1394 84.5671 19.2372C77.6312 26.0208 64.7476 30.5785 50 30.5785C35.2524 30.5785 22.3688 26.0207 15.4329 19.2372ZM22.2116 25.8751C19.4944 24.3233 17.2131 22.5671 15.4328 20.6649C22.3688 27.4485 35.2524 32.0063 50 32.0063C64.7476 32.0063 77.6312 27.4485 84.5671 20.665C82.7868 22.5671 80.5056 24.3233 77.7884 25.8751C70.7266 29.9079 60.904 32.434 50 32.434C39.096 32.434 29.2734 29.9079 22.2116 25.8751ZM15.4329 22.0927C17.2132 23.9949 19.4944 25.7511 22.2116 27.3028C29.2734 31.3356 39.096 33.8617 50 33.8617C60.904 33.8617 70.7266 31.3356 77.7884 27.3028C80.5056 25.7511 82.7868 23.9949 84.5671 22.0927C77.6311 28.8762 64.7476 33.434 50 33.434C35.2524 33.434 22.3688 28.8762 15.4329 22.0927ZM22.2116 28.7302C19.4966 27.1797 17.2169 25.4251 15.4372 23.5247C22.3742 30.3058 35.2555 34.8617 50 34.8617C64.7445 34.8617 77.6258 30.3059 84.5628 23.5247C82.7831 25.4251 80.5034 27.1797 77.7884 28.7302C70.7266 32.763 60.904 35.2891 50 35.2891C39.096 35.2891 29.2734 32.763 22.2116 28.7302ZM15.4286 24.9436C17.2095 26.8475 19.4922 28.6053 22.2116 30.1583C29.2734 34.1911 39.096 36.7172 50 36.7172C60.904 36.7172 70.7266 34.1911 77.7884 30.1583C80.5078 28.6053 82.7905 26.8475 84.5714 24.9436C77.6365 31.7294 64.7506 36.2891 50 36.2891C35.2493 36.2891 22.3635 31.7294 15.4286 24.9436ZM22.2116 31.5856C19.4966 30.0351 17.2169 28.2805 15.4372 26.3802C22.3742 33.1613 35.2555 37.7172 50 37.7172C64.7446 37.7172 77.6258 33.1613 84.5628 26.3801C82.7831 28.2805 80.5034 30.0351 77.7884 31.5856C70.7266 35.6184 60.904 38.1445 50 38.1445C39.096 38.1445 29.2734 35.6184 22.2116 31.5856ZM15.4329 27.8033C22.3689 34.5868 35.2524 39.1445 50 39.1445C64.7476 39.1445 77.6312 34.5868 84.5671 27.8032C82.7868 29.7054 80.5056 31.4616 77.7884 33.0134C70.7266 37.0462 60.904 39.5723 50 39.5723C39.096 39.5723 29.2734 37.0462 22.2116 33.0134C19.4944 31.4616 17.2132 29.7054 15.4329 27.8033ZM77.7884 34.4411C80.5056 32.8893 82.7868 31.1331 84.5671 29.231C77.6312 36.0145 64.7476 40.5723 50 40.5723C35.2524 40.5723 22.3688 36.0145 15.4328 29.231C17.2132 31.1331 19.4944 32.8893 22.2116 34.4411C29.2734 38.4739 39.096 41 50 41C60.904 41 70.7266 38.4739 77.7884 34.4411Z" fill="url(#paint0_linear_500_6854)"/>
<path fill-rule="evenodd" clip-rule="evenodd" d="M89.9808 82.9845C89.9936 82.7475 90 82.5095 90 82.2706C90 82.0318 89.9936 81.7939 89.9808 81.5568C89.9936 81.3197 90 81.0817 90 80.8429C90 68.2271 72.0914 58 50 58C27.9086 58 10 68.2271 10 80.8429C10 81.0817 10.0064 81.3197 10.0192 81.5568C10.0064 81.7938 10 82.0318 10 82.2706C10 82.5095 10.0064 82.7474 10.0192 82.9845C10.0064 83.2216 10 83.4596 10 83.6984C10 83.9371 10.0064 84.1751 10.0192 84.4121C10.0064 84.6491 10 84.887 10 85.1257C10 85.3646 10.0064 85.6027 10.0192 85.8398C10.0064 86.0769 10 86.315 10 86.5538C10 86.7926 10.0064 87.0305 10.0192 87.2675C10.0064 87.5045 10 87.7424 10 87.9812C10 88.22 10.0064 88.458 10.0192 88.6951C10.0146 88.7807 10.0108 88.8666 10.0078 88.9525C11.8339 87.1301 14.0336 85.4462 16.5471 83.9349C18.1323 82.457 20.0316 81.0804 22.2116 79.8355C29.2734 75.8027 39.096 73.2766 50 73.2766C60.904 73.2766 70.7266 75.8027 77.7884 79.8355C80.5078 81.3885 82.7905 83.1463 84.5714 85.0502C77.6365 78.2643 64.7507 73.7047 50 73.7047C36.2191 73.7047 24.0659 77.6845 16.8724 83.7413C18.9987 82.4888 21.3431 81.3582 23.8705 80.3698C30.7742 76.8611 39.9255 74.7047 50 74.7047C60.904 74.7047 70.7266 77.2308 77.7884 81.2636C78.3947 81.6099 78.9793 81.9663 79.5415 82.3323C83.8071 84.4813 87.3644 87.0804 89.9869 90.0001C89.9956 89.8036 90 89.6066 90 89.4089C90 89.1701 89.9936 88.9322 89.9808 88.6951C89.9936 88.458 90 88.22 90 87.9812C90 87.7424 89.9936 87.5045 89.9809 87.2675C89.9936 87.0305 90 86.7926 90 86.5538C90 86.3149 89.9936 86.0769 89.9808 85.8398C89.9936 85.6027 90 85.3646 90 85.1257C90 84.887 89.9936 84.6491 89.9809 84.4121C89.9936 84.1751 90 83.9372 90 83.6984C90 83.4595 89.9936 83.2216 89.9808 82.9845ZM84.5628 83.6136C77.6258 76.8324 64.7446 72.2766 50 72.2766C35.2554 72.2766 22.3742 76.8324 15.4372 83.6136C17.2169 81.7132 19.4966 79.9586 22.2116 78.4081C29.2734 74.3753 39.096 71.8492 50 71.8492C60.904 71.8492 70.7266 74.3753 77.7884 78.4081C80.5034 79.9586 82.7831 81.7132 84.5628 83.6136ZM77.7884 76.9804C80.5056 78.5321 82.7868 80.2884 84.5672 82.1905C77.6312 75.407 64.7476 70.8492 50 70.8492C35.2524 70.8492 22.3688 75.407 15.4329 82.1905C17.2132 80.2883 19.4944 78.5321 22.2116 76.9804C29.2734 72.9476 39.096 70.4215 50 70.4215C60.904 70.4215 70.7266 72.9476 77.7884 76.9804ZM84.5671 80.7628C82.7868 78.8606 80.5056 77.1044 77.7884 75.5527C70.7266 71.5199 60.904 68.9937 50 68.9937C39.096 68.9937 29.2734 71.5199 22.2116 75.5527C19.4944 77.1044 17.2132 78.8606 15.4329 80.7628C22.3688 73.9792 35.2524 69.4215 50 69.4215C64.7476 69.4215 77.6312 73.9793 84.5671 80.7628ZM77.7884 74.1249C80.5056 75.6767 82.7869 77.4329 84.5672 79.3351C77.6312 72.5515 64.7476 67.9937 50 67.9937C35.2524 67.9937 22.3688 72.5515 15.4329 79.335C17.2132 77.4329 19.4944 75.6767 22.2116 74.1249C29.2734 70.0921 39.096 67.566 50 67.566C60.904 67.566 70.7266 70.0921 77.7884 74.1249ZM84.5671 77.9073C82.7868 76.0051 80.5056 74.2489 77.7884 72.6972C70.7266 68.6644 60.904 66.1383 50 66.1383C39.096 66.1383 29.2734 68.6644 22.2116 72.6972C19.4944 74.2489 17.2132 76.0051 15.4329 77.9073C22.3689 71.1238 35.2524 66.566 50 66.566C64.7476 66.566 77.6312 71.1238 84.5671 77.9073ZM77.7884 71.2698C80.5034 72.8203 82.7831 74.5749 84.5628 76.4753C77.6258 69.6942 64.7445 65.1383 50 65.1383C35.2555 65.1383 22.3742 69.6941 15.4372 76.4753C17.2169 74.5749 19.4966 72.8203 22.2116 71.2698C29.2734 67.237 39.096 64.7109 50 64.7109C60.904 64.7109 70.7266 67.237 77.7884 71.2698ZM84.5714 75.0564C82.7905 73.1525 80.5078 71.3947 77.7884 69.8417C70.7266 65.8089 60.904 63.2828 50 63.2828C39.096 63.2828 29.2734 65.8089 22.2116 69.8417C19.4922 71.3947 17.2095 73.1525 15.4286 75.0564C22.3635 68.2706 35.2494 63.7109 50 63.7109C64.7507 63.7109 77.6365 68.2706 84.5714 75.0564ZM77.7884 68.4144C80.5034 69.9649 82.7831 71.7195 84.5628 73.6198C77.6258 66.8387 64.7445 62.2828 50 62.2828C35.2554 62.2828 22.3742 66.8387 15.4372 73.6199C17.2169 71.7195 19.4966 69.9649 22.2116 68.4144C29.2734 64.3816 39.096 61.8555 50 61.8555C60.904 61.8555 70.7266 64.3816 77.7884 68.4144ZM84.5671 72.1967C77.6311 65.4132 64.7476 60.8555 50 60.8555C35.2524 60.8555 22.3688 65.4132 15.4329 72.1968C17.2132 70.2946 19.4944 68.5384 22.2116 66.9866C29.2734 62.9538 39.096 60.4277 50 60.4277C60.904 60.4277 70.7266 62.9538 77.7884 66.9866C80.5056 68.5384 82.7868 70.2946 84.5671 72.1967ZM22.2116 65.5589C19.4944 67.1107 17.2132 68.8669 15.4329 70.769C22.3688 63.9855 35.2524 59.4277 50 59.4277C64.7476 59.4277 77.6312 63.9855 84.5672 70.769C82.7868 68.8669 80.5056 67.1107 77.7884 65.5589C70.7266 61.5261 60.904 59 50 59C39.096 59 29.2734 61.5261 22.2116 65.5589Z" fill="url(#paint1_linear_500_6854)"/>
<path fill-rule="evenodd" clip-rule="evenodd" d="M82.9845 10.0192C82.7475 10.0064 82.5095 10 82.2706 10C82.0318 10 81.7939 10.0064 81.5568 10.0192C81.3197 10.0064 81.0817 10 80.8429 10C68.2271 10 58 27.9086 58 50C58 72.0914 68.2271 90 80.8429 90C81.0817 90 81.3197 89.9936 81.5568 89.9808C81.7938 89.9936 82.0318 90 82.2706 90C82.5095 90 82.7474 89.9936 82.9845 89.9808C83.2216 89.9936 83.4596 90 83.6984 90C83.9371 90 84.1751 89.9936 84.4121 89.9809C84.6491 89.9936 84.887 90 85.1257 90C85.3646 90 85.6027 89.9936 85.8398 89.9808C86.0769 89.9936 86.315 90 86.5538 90C86.7926 90 87.0305 89.9936 87.2675 89.9809C87.5045 89.9936 87.7424 90 87.9812 90C88.22 90 88.458 89.9936 88.6951 89.9808C88.7807 89.9854 88.8666 89.9892 88.9525 89.9922C87.1301 88.1661 85.4462 85.9664 83.9349 83.4529C82.457 81.8677 81.0804 79.9684 79.8355 77.7884C75.8027 70.7266 73.2766 60.904 73.2766 50C73.2766 39.096 75.8027 29.2734 79.8355 22.2116C81.3885 19.4922 83.1463 17.2095 85.0502 15.4286C78.2643 22.3635 73.7047 35.2493 73.7047 50C73.7047 63.7809 77.6845 75.9341 83.7413 83.1276C82.4888 81.0013 81.3582 78.6569 80.3698 76.1295C76.8611 69.2258 74.7047 60.0745 74.7047 50C74.7047 39.096 77.2308 29.2734 81.2636 22.2116C81.6099 21.6053 81.9663 21.0207 82.3323 20.4585C84.4813 16.1929 87.0804 12.6356 90.0001 10.0131C89.8036 10.0044 89.6066 10 89.4089 10C89.1701 10 88.9322 10.0064 88.6951 10.0192C88.458 10.0064 88.22 10 87.9812 10C87.7424 10 87.5045 10.0064 87.2675 10.0191C87.0305 10.0064 86.7926 10 86.5538 10C86.3149 10 86.0769 10.0064 85.8398 10.0192C85.6027 10.0064 85.3646 10 85.1257 10C84.887 10 84.6491 10.0064 84.4121 10.0191C84.1751 10.0064 83.9372 10 83.6984 10C83.4595 10 83.2216 10.0064 82.9845 10.0192ZM83.6136 15.4372C76.8324 22.3742 72.2766 35.2554 72.2766 50C72.2766 64.7446 76.8324 77.6258 83.6136 84.5628C81.7132 82.7831 79.9586 80.5034 78.4081 77.7884C74.3753 70.7266 71.8492 60.904 71.8492 50C71.8492 39.096 74.3753 29.2734 78.4081 22.2116C79.9586 19.4966 81.7132 17.2169 83.6136 15.4372ZM76.9804 22.2116C78.5321 19.4944 80.2884 17.2132 82.1905 15.4328C75.407 22.3688 70.8492 35.2524 70.8492 50C70.8492 64.7476 75.407 77.6312 82.1905 84.5671C80.2883 82.7868 78.5321 80.5056 76.9804 77.7884C72.9476 70.7266 70.4215 60.904 70.4215 50C70.4215 39.096 72.9476 29.2734 76.9804 22.2116ZM80.7628 15.4329C78.8606 17.2132 77.1044 19.4944 75.5527 22.2116C71.5199 29.2734 68.9937 39.096 68.9937 50C68.9937 60.904 71.5199 70.7266 75.5527 77.7884C77.1044 80.5056 78.8606 82.7868 80.7628 84.5671C73.9792 77.6312 69.4215 64.7476 69.4215 50C69.4215 35.2524 73.9793 22.3688 80.7628 15.4329ZM74.1249 22.2116C75.6767 19.4944 77.4329 17.2131 79.3351 15.4328C72.5515 22.3688 67.9937 35.2524 67.9937 50C67.9937 64.7476 72.5515 77.6312 79.335 84.5671C77.4329 82.7868 75.6767 80.5056 74.1249 77.7884C70.0921 70.7266 67.566 60.904 67.566 50C67.566 39.096 70.0921 29.2734 74.1249 22.2116ZM77.9073 15.4329C76.0051 17.2132 74.2489 19.4944 72.6972 22.2116C68.6644 29.2734 66.1383 39.096 66.1383 50C66.1383 60.904 68.6644 70.7266 72.6972 77.7884C74.2489 80.5056 76.0051 82.7868 77.9073 84.5671C71.1238 77.6311 66.566 64.7476 66.566 50C66.566 35.2524 71.1238 22.3688 77.9073 15.4329ZM71.2698 22.2116C72.8203 19.4966 74.5749 17.2169 76.4753 15.4372C69.6942 22.3742 65.1383 35.2555 65.1383 50C65.1383 64.7445 69.6941 77.6258 76.4753 84.5628C74.5749 82.7831 72.8203 80.5034 71.2698 77.7884C67.237 70.7266 64.7109 60.904 64.7109 50C64.7109 39.096 67.237 29.2734 71.2698 22.2116ZM75.0564 15.4286C73.1525 17.2095 71.3947 19.4922 69.8417 22.2116C65.8089 29.2734 63.2828 39.096 63.2828 50C63.2828 60.904 65.8089 70.7266 69.8417 77.7884C71.3947 80.5078 73.1525 82.7905 75.0564 84.5714C68.2706 77.6365 63.7109 64.7506 63.7109 50C63.7109 35.2493 68.2706 22.3635 75.0564 15.4286ZM68.4144 22.2116C69.9649 19.4966 71.7195 17.2169 73.6198 15.4372C66.8387 22.3742 62.2828 35.2555 62.2828 50C62.2828 64.7446 66.8387 77.6258 73.6199 84.5628C71.7195 82.7831 69.9649 80.5034 68.4144 77.7884C64.3816 70.7266 61.8555 60.904 61.8555 50C61.8555 39.096 64.3816 29.2734 68.4144 22.2116ZM72.1967 15.4329C65.4132 22.3689 60.8555 35.2524 60.8555 50C60.8555 64.7476 65.4132 77.6312 72.1968 84.5671C70.2946 82.7868 68.5384 80.5056 66.9866 77.7884C62.9538 70.7266 60.4277 60.904 60.4277 50C60.4277 39.096 62.9538 29.2734 66.9866 22.2116C68.5384 19.4944 70.2946 17.2132 72.1967 15.4329ZM65.5589 77.7884C67.1107 80.5056 68.8669 82.7868 70.769 84.5671C63.9855 77.6312 59.4277 64.7476 59.4277 50C59.4277 35.2524 63.9855 22.3688 70.769 15.4328C68.8669 17.2132 67.1107 19.4944 65.5589 22.2116C61.5261 29.2734 59 39.096 59 50C59 60.904 61.5261 70.7266 65.5589 77.7884Z" fill="url(#paint2_linear_500_6854)"/>
<path fill-rule="evenodd" clip-rule="evenodd" d="M17.0155 10.0192C17.2525 10.0064 17.4905 10 17.7294 10C17.9682 10 18.2061 10.0064 18.4432 10.0192C18.6803 10.0064 18.9183 10 19.1571 10C31.7729 10 42 27.9086 42 50C42 72.0914 31.7729 90 19.1571 90C18.9183 90 18.6803 89.9936 18.4432 89.9808C18.2062 89.9936 17.9682 90 17.7294 90C17.4905 90 17.2526 89.9936 17.0155 89.9808C16.7784 89.9936 16.5404 90 16.3016 90C16.0629 90 15.8249 89.9936 15.5879 89.9809C15.3509 89.9936 15.113 90 14.8743 90C14.6354 90 14.3973 89.9936 14.1602 89.9808C13.9231 89.9936 13.685 90 13.4462 90C13.2074 90 12.9695 89.9936 12.7325 89.9809C12.4955 89.9936 12.2576 90 12.0188 90C11.78 90 11.542 89.9936 11.3049 89.9808C11.2193 89.9854 11.1334 89.9892 11.0475 89.9922C12.8699 88.1661 14.5538 85.9664 16.0651 83.4529C17.543 81.8677 18.9196 79.9684 20.1645 77.7884C24.1973 70.7266 26.7234 60.904 26.7234 50C26.7234 39.096 24.1973 29.2734 20.1645 22.2116C18.6115 19.4922 16.8537 17.2095 14.9498 15.4286C21.7357 22.3635 26.2953 35.2493 26.2953 50C26.2953 63.7809 22.3155 75.9341 16.2587 83.1276C17.5112 81.0013 18.6418 78.6569 19.6302 76.1295C23.1389 69.2258 25.2953 60.0745 25.2953 50C25.2953 39.096 22.7692 29.2734 18.7364 22.2116C18.3901 21.6053 18.0337 21.0207 17.6677 20.4585C15.5187 16.1929 12.9196 12.6356 9.99994 10.0131C10.1964 10.0044 10.3934 10 10.5911 10C10.8299 10 11.0678 10.0064 11.3049 10.0192C11.542 10.0064 11.78 10 12.0188 10C12.2576 10 12.4955 10.0064 12.7325 10.0191C12.9695 10.0064 13.2074 10 13.4462 10C13.6851 10 13.9231 10.0064 14.1602 10.0192C14.3973 10.0064 14.6354 10 14.8743 10C15.113 10 15.3509 10.0064 15.5879 10.0191C15.8249 10.0064 16.0628 10 16.3016 10C16.5405 10 16.7784 10.0064 17.0155 10.0192ZM16.3864 15.4372C23.1676 22.3742 27.7234 35.2554 27.7234 50C27.7234 64.7446 23.1676 77.6258 16.3864 84.5628C18.2868 82.7831 20.0414 80.5034 21.5919 77.7884C25.6247 70.7266 28.1508 60.904 28.1508 50C28.1508 39.096 25.6247 29.2734 21.5919 22.2116C20.0414 19.4966 18.2868 17.2169 16.3864 15.4372ZM23.0196 22.2116C21.4679 19.4944 19.7116 17.2132 17.8095 15.4328C24.593 22.3688 29.1508 35.2524 29.1508 50C29.1508 64.7476 24.593 77.6312 17.8095 84.5671C19.7117 82.7868 21.4679 80.5056 23.0196 77.7884C27.0524 70.7266 29.5785 60.904 29.5785 50C29.5785 39.096 27.0524 29.2734 23.0196 22.2116ZM19.2372 15.4329C21.1394 17.2132 22.8956 19.4944 24.4473 22.2116C28.4801 29.2734 31.0063 39.096 31.0063 50C31.0063 60.904 28.4801 70.7266 24.4473 77.7884C22.8956 80.5056 21.1394 82.7868 19.2372 84.5671C26.0208 77.6312 30.5785 64.7476 30.5785 50C30.5785 35.2524 26.0207 22.3688 19.2372 15.4329ZM25.8751 22.2116C24.3233 19.4944 22.5671 17.2131 20.6649 15.4328C27.4485 22.3688 32.0063 35.2524 32.0063 50C32.0063 64.7476 27.4485 77.6312 20.665 84.5671C22.5671 82.7868 24.3233 80.5056 25.8751 77.7884C29.9079 70.7266 32.434 60.904 32.434 50C32.434 39.096 29.9079 29.2734 25.8751 22.2116ZM22.0927 15.4329C23.9949 17.2132 25.7511 19.4944 27.3028 22.2116C31.3356 29.2734 33.8617 39.096 33.8617 50C33.8617 60.904 31.3356 70.7266 27.3028 77.7884C25.7511 80.5056 23.9949 82.7868 22.0927 84.5671C28.8762 77.6311 33.434 64.7476 33.434 50C33.434 35.2524 28.8762 22.3688 22.0927 15.4329ZM28.7302 22.2116C27.1797 19.4966 25.4251 17.2169 23.5247 15.4372C30.3058 22.3742 34.8617 35.2555 34.8617 50C34.8617 64.7445 30.3059 77.6258 23.5247 84.5628C25.4251 82.7831 27.1797 80.5034 28.7302 77.7884C32.763 70.7266 35.2891 60.904 35.2891 50C35.2891 39.096 32.763 29.2734 28.7302 22.2116ZM24.9436 15.4286C26.8475 17.2095 28.6053 19.4922 30.1583 22.2116C34.1911 29.2734 36.7172 39.096 36.7172 50C36.7172 60.904 34.1911 70.7266 30.1583 77.7884C28.6053 80.5078 26.8475 82.7905 24.9436 84.5714C31.7294 77.6365 36.2891 64.7506 36.2891 50C36.2891 35.2493 31.7294 22.3635 24.9436 15.4286ZM31.5856 22.2116C30.0351 19.4966 28.2805 17.2169 26.3802 15.4372C33.1613 22.3742 37.7172 35.2555 37.7172 50C37.7172 64.7446 33.1613 77.6258 26.3801 84.5628C28.2805 82.7831 30.0351 80.5034 31.5856 77.7884C35.6184 70.7266 38.1445 60.904 38.1445 50C38.1445 39.096 35.6184 29.2734 31.5856 22.2116ZM27.8033 15.4329C34.5868 22.3689 39.1445 35.2524 39.1445 50C39.1445 64.7476 34.5868 77.6312 27.8032 84.5671C29.7054 82.7868 31.4616 80.5056 33.0134 77.7884C37.0462 70.7266 39.5723 60.904 39.5723 50C39.5723 39.096 37.0462 29.2734 33.0134 22.2116C31.4616 19.4944 29.7054 17.2132 27.8033 15.4329ZM34.4411 77.7884C32.8893 80.5056 31.1331 82.7868 29.231 84.5671C36.0145 77.6312 40.5723 64.7476 40.5723 50C40.5723 35.2524 36.0145 22.3688 29.231 15.4328C31.1331 17.2132 32.8893 19.4944 34.4411 22.2116C38.4739 29.2734 41 39.096 41 50C41 60.904 38.4739 70.7266 34.4411 77.7884Z" fill="url(#paint3_linear_500_6854)"/>
<defs>
<linearGradient id="paint0_linear_500_6854" x1="49" y1="44.4999" x2="51.329" y2="18.2062" gradientUnits="userSpaceOnUse">
<stop stop-color="white"/>
<stop offset="1" stop-color="white" stop-opacity="0"/>
</linearGradient>
<linearGradient id="paint1_linear_500_6854" x1="51.5" y1="56.8" x2="48.758" y2="87.7571" gradientUnits="userSpaceOnUse">
<stop stop-color="white"/>
<stop offset="1" stop-color="white" stop-opacity="0"/>
</linearGradient>
<linearGradient id="paint2_linear_500_6854" x1="56.8" y1="48.5" x2="83.7883" y2="50.8905" gradientUnits="userSpaceOnUse">
<stop stop-color="white"/>
<stop offset="1" stop-color="white" stop-opacity="0"/>
</linearGradient>
<linearGradient id="paint3_linear_500_6854" x1="43.1999" y1="48.5" x2="15.7156" y2="50.9344" gradientUnits="userSpaceOnUse">
<stop stop-color="white"/>
<stop offset="1" stop-color="white" stop-opacity="0"/>
</linearGradient>
</defs>
</svg>
