<svg width="100" height="100" viewBox="0 0 100 100" fill="none" xmlns="http://www.w3.org/2000/svg">
<path fill-rule="evenodd" clip-rule="evenodd" d="M44 38C44 34.6863 46.6863 32 50 32C53.3137 32 56 34.6863 56 38V62C56 65.3137 53.3137 68 50 68C46.6863 68 44 65.3137 44 62V38ZM54.8 38V62C54.8 64.651 52.651 66.8 50 66.8C47.349 66.8 45.2 64.651 45.2 62V38C45.2 35.349 47.349 33.2 50 33.2C52.651 33.2 54.8 35.349 54.8 38Z" fill="url(#paint0_radial_500_7056)"/>
<path fill-rule="evenodd" clip-rule="evenodd" d="M50 28.4C44.6981 28.4 40.4 32.6981 40.4 38V62C40.4 67.3019 44.6981 71.6 50 71.6C55.3019 71.6 59.6 67.3019 59.6 62V38C59.6 32.6981 55.3019 28.4 50 28.4ZM58.4 62V38C58.4 33.3608 54.6392 29.6 50 29.6C45.3608 29.6 41.6 33.3608 41.6 38V62C41.6 66.6392 45.3608 70.4 50 70.4C54.6392 70.4 58.4 66.6392 58.4 62Z" fill="url(#paint1_radial_500_7056)"/>
<path fill-rule="evenodd" clip-rule="evenodd" d="M36.8 38C36.8 30.7098 42.7098 24.8 50 24.8C57.2902 24.8 63.2 30.7098 63.2 38V62C63.2 69.2902 57.2902 75.2 50 75.2C42.7098 75.2 36.8 69.2902 36.8 62V38ZM62 38V62C62 68.6274 56.6274 74 50 74C43.3726 74 38 68.6274 38 62V38C38 31.3726 43.3726 26 50 26C56.6274 26 62 31.3726 62 38Z" fill="url(#paint2_radial_500_7056)"/>
<path fill-rule="evenodd" clip-rule="evenodd" d="M50 21.2C40.7216 21.2 33.2 28.7216 33.2 38V62C33.2 71.2784 40.7216 78.8 50 78.8C59.2784 78.8 66.8 71.2784 66.8 62V38C66.8 28.7216 59.2784 21.2 50 21.2ZM65.6 62V38C65.6 29.3844 58.6156 22.4 50 22.4C41.3844 22.4 34.4 29.3844 34.4 38V62C34.4 70.6156 41.3844 77.6 50 77.6C58.6156 77.6 65.6 70.6156 65.6 62Z" fill="url(#paint3_radial_500_7056)"/>
<path fill-rule="evenodd" clip-rule="evenodd" d="M29.6 38C29.6 26.7334 38.7334 17.6 50 17.6C61.2666 17.6 70.4 26.7334 70.4 38V62C70.4 73.2666 61.2666 82.4 50 82.4C38.7334 82.4 29.6 73.2666 29.6 62V38ZM69.2 38V62C69.2 72.6039 60.6039 81.2 50 81.2C39.3961 81.2 30.8 72.6039 30.8 62V38C30.8 27.3961 39.3961 18.8 50 18.8C60.6039 18.8 69.2 27.3961 69.2 38Z" fill="url(#paint4_radial_500_7056)"/>
<path fill-rule="evenodd" clip-rule="evenodd" d="M26 38C26 24.7452 36.7452 14 50 14C63.2548 14 74 24.7452 74 38V62C74 75.2548 63.2548 86 50 86C36.7452 86 26 75.2548 26 62V38ZM72.8 38V62C72.8 74.5921 62.5921 84.8 50 84.8C37.4079 84.8 27.2 74.5921 27.2 62V38C27.2 25.4079 37.4079 15.2 50 15.2C62.5921 15.2 72.8 25.4079 72.8 38Z" fill="url(#paint5_radial_500_7056)"/>
<defs>
<radialGradient id="paint0_radial_500_7056" cx="0" cy="0" r="1" gradientUnits="userSpaceOnUse" gradientTransform="translate(50 50) rotate(78.6901) scale(48.9506 32.6337)">
<stop stop-color="white"/>
<stop offset="1" stop-color="white" stop-opacity="0"/>
</radialGradient>
<radialGradient id="paint1_radial_500_7056" cx="0" cy="0" r="1" gradientUnits="userSpaceOnUse" gradientTransform="translate(50 50) rotate(78.6901) scale(48.9506 32.6337)">
<stop stop-color="white"/>
<stop offset="1" stop-color="white" stop-opacity="0"/>
</radialGradient>
<radialGradient id="paint2_radial_500_7056" cx="0" cy="0" r="1" gradientUnits="userSpaceOnUse" gradientTransform="translate(50 50) rotate(78.6901) scale(48.9506 32.6337)">
<stop stop-color="white"/>
<stop offset="1" stop-color="white" stop-opacity="0"/>
</radialGradient>
<radialGradient id="paint3_radial_500_7056" cx="0" cy="0" r="1" gradientUnits="userSpaceOnUse" gradientTransform="translate(50 50) rotate(78.6901) scale(48.9506 32.6337)">
<stop stop-color="white"/>
<stop offset="1" stop-color="white" stop-opacity="0"/>
</radialGradient>
<radialGradient id="paint4_radial_500_7056" cx="0" cy="0" r="1" gradientUnits="userSpaceOnUse" gradientTransform="translate(50 50) rotate(78.6901) scale(48.9506 32.6337)">
<stop stop-color="white"/>
<stop offset="1" stop-color="white" stop-opacity="0"/>
</radialGradient>
<radialGradient id="paint5_radial_500_7056" cx="0" cy="0" r="1" gradientUnits="userSpaceOnUse" gradientTransform="translate(50 50) rotate(78.6901) scale(48.9506 32.6337)">
<stop stop-color="white"/>
<stop offset="1" stop-color="white" stop-opacity="0"/>
</radialGradient>
</defs>
</svg>
