<svg width="100" height="100" viewBox="0 0 100 100" fill="none" xmlns="http://www.w3.org/2000/svg">
<path d="M68.1906 68C69.9774 66.235 71 64.1857 71 62C71 55.3726 61.598 50 50 50C38.402 50 29 55.3726 29 62C29 64.1857 30.0226 66.235 31.8094 68C35.4404 64.4132 42.227 62 50 62C57.773 62 64.5596 64.4132 68.1906 68Z" fill="url(#paint0_linear_422_482)"/>
<path d="M50 74C61.598 74 71 68.6274 71 62V74C71 80.6274 61.598 86 50 86C38.402 86 29 80.6274 29 74V62C29 68.6274 38.402 74 50 74Z" fill="url(#paint1_linear_422_482)"/>
<path d="M68.1906 50C69.9774 48.235 71 46.1857 71 44C71 37.3726 61.598 32 50 32C38.402 32 29 37.3726 29 44C29 46.1857 30.0226 48.235 31.8094 50C35.4404 46.4132 42.227 44 50 44C57.773 44 64.5596 46.4132 68.1906 50Z" fill="url(#paint2_linear_422_482)"/>
<path d="M50 56C61.598 56 71 50.6274 71 44V56C71 62.6274 61.598 68 50 68C38.402 68 29 62.6274 29 56V44C29 50.6274 38.402 56 50 56Z" fill="url(#paint3_linear_422_482)"/>
<path d="M68.1906 32C69.9774 30.235 71 28.1857 71 26C71 19.3726 61.598 14 50 14C38.402 14 29 19.3726 29 26C29 28.1857 30.0226 30.235 31.8094 32C35.4404 28.4132 42.227 26 50 26C57.773 26 64.5596 28.4132 68.1906 32Z" fill="url(#paint4_linear_422_482)"/>
<path d="M50 38C61.598 38 71 32.6274 71 26V38C71 44.6274 61.598 50 50 50C38.402 50 29 44.6274 29 38V26C29 32.6274 38.402 38 50 38Z" fill="url(#paint5_linear_422_482)"/>
<defs>
<linearGradient id="paint0_linear_422_482" x1="50" y1="50" x2="50" y2="66.5" gradientUnits="userSpaceOnUse">
<stop stop-color="#ADADAD"/>
<stop offset="1" stop-color="#606060"/>
</linearGradient>
<linearGradient id="paint1_linear_422_482" x1="50" y1="69" x2="50" y2="86" gradientUnits="userSpaceOnUse">
<stop stop-color="white" stop-opacity="0.9"/>
<stop offset="1" stop-color="#565656"/>
</linearGradient>
<linearGradient id="paint2_linear_422_482" x1="50" y1="32" x2="50" y2="48.5" gradientUnits="userSpaceOnUse">
<stop stop-color="#ADADAD"/>
<stop offset="1" stop-color="#606060"/>
</linearGradient>
<linearGradient id="paint3_linear_422_482" x1="50" y1="51" x2="50" y2="68" gradientUnits="userSpaceOnUse">
<stop stop-color="white" stop-opacity="0.9"/>
<stop offset="1" stop-color="#565656"/>
</linearGradient>
<linearGradient id="paint4_linear_422_482" x1="50" y1="14" x2="50" y2="30.5" gradientUnits="userSpaceOnUse">
<stop stop-color="white"/>
<stop offset="1" stop-color="#606060"/>
</linearGradient>
<linearGradient id="paint5_linear_422_482" x1="50" y1="33" x2="50" y2="50" gradientUnits="userSpaceOnUse">
<stop stop-color="white"/>
<stop offset="1" stop-color="#565656"/>
</linearGradient>
</defs>
</svg>
