<svg width="100" height="100" viewBox="0 0 100 100" fill="none" xmlns="http://www.w3.org/2000/svg">
<rect x="17.5" y="17.5" width="65" height="65" stroke="white"/>
<rect x="18" y="18" width="8" height="8" fill="white"/>
<rect x="26" y="18" width="8" height="8" fill="#181818"/>
<rect x="34" y="18" width="8" height="8" fill="white"/>
<rect x="42" y="18" width="8" height="8" fill="#181818"/>
<rect x="50" y="18" width="8" height="8" fill="white"/>
<rect x="58" y="18" width="8" height="8" fill="#181818"/>
<rect x="66" y="18" width="8" height="8" fill="white"/>
<rect x="74" y="18" width="8" height="8" fill="#181818"/>
<rect width="8" height="8" transform="matrix(-1 0 0 1 82 26)" fill="white"/>
<rect width="8" height="8" transform="matrix(-1 0 0 1 74 26)" fill="#181818"/>
<rect width="8" height="8" transform="matrix(-1 0 0 1 66 26)" fill="white"/>
<rect width="8" height="8" transform="matrix(-1 0 0 1 58 26)" fill="#181818"/>
<rect width="8" height="8" transform="matrix(-1 0 0 1 50 26)" fill="white"/>
<rect width="8" height="8" transform="matrix(-1 0 0 1 42 26)" fill="#181818"/>
<rect width="8" height="8" transform="matrix(-1 0 0 1 34 26)" fill="white"/>
<rect width="8" height="8" transform="matrix(-1 0 0 1 26 26)" fill="#181818"/>
<rect x="18" y="34" width="8" height="8" fill="white"/>
<rect x="26" y="34" width="8" height="8" fill="#181818"/>
<rect x="34" y="34" width="8" height="8" fill="white"/>
<rect x="42" y="34" width="8" height="8" fill="#181818"/>
<rect x="50" y="34" width="8" height="8" fill="white"/>
<rect x="58" y="34" width="8" height="8" fill="#181818"/>
<rect x="66" y="34" width="8" height="8" fill="white"/>
<rect x="74" y="34" width="8" height="8" fill="#181818"/>
<rect width="8" height="8" transform="matrix(-1 0 0 1 82 42)" fill="white"/>
<rect width="8" height="8" transform="matrix(-1 0 0 1 74 42)" fill="#181818"/>
<rect width="8" height="8" transform="matrix(-1 0 0 1 66 42)" fill="white"/>
<rect width="8" height="8" transform="matrix(-1 0 0 1 58 42)" fill="#181818"/>
<rect width="8" height="8" transform="matrix(-1 0 0 1 50 42)" fill="white"/>
<rect width="8" height="8" transform="matrix(-1 0 0 1 42 42)" fill="#181818"/>
<rect width="8" height="8" transform="matrix(-1 0 0 1 34 42)" fill="white"/>
<rect width="8" height="8" transform="matrix(-1 0 0 1 26 42)" fill="#181818"/>
<rect x="18" y="50" width="8" height="8" fill="white"/>
<rect x="26" y="50" width="8" height="8" fill="#181818"/>
<rect x="34" y="50" width="8" height="8" fill="white"/>
<rect x="42" y="50" width="8" height="8" fill="#181818"/>
<rect x="50" y="50" width="8" height="8" fill="white"/>
<rect x="58" y="50" width="8" height="8" fill="#181818"/>
<rect x="66" y="50" width="8" height="8" fill="white"/>
<rect x="74" y="50" width="8" height="8" fill="#181818"/>
<rect width="8" height="8" transform="matrix(-1 0 0 1 82 58)" fill="white"/>
<rect width="8" height="8" transform="matrix(-1 0 0 1 74 58)" fill="#181818"/>
<rect width="8" height="8" transform="matrix(-1 0 0 1 66 58)" fill="white"/>
<rect width="8" height="8" transform="matrix(-1 0 0 1 58 58)" fill="#181818"/>
<rect width="8" height="8" transform="matrix(-1 0 0 1 50 58)" fill="white"/>
<rect width="8" height="8" transform="matrix(-1 0 0 1 42 58)" fill="#181818"/>
<rect width="8" height="8" transform="matrix(-1 0 0 1 34 58)" fill="white"/>
<rect width="8" height="8" transform="matrix(-1 0 0 1 26 58)" fill="#181818"/>
<rect x="18" y="66" width="8" height="8" fill="white"/>
<rect x="26" y="66" width="8" height="8" fill="#181818"/>
<rect x="34" y="66" width="8" height="8" fill="white"/>
<rect x="42" y="66" width="8" height="8" fill="#181818"/>
<rect x="50" y="66" width="8" height="8" fill="white"/>
<rect x="58" y="66" width="8" height="8" fill="#181818"/>
<rect x="66" y="66" width="8" height="8" fill="white"/>
<rect x="74" y="66" width="8" height="8" fill="#181818"/>
<rect width="8" height="8" transform="matrix(-1 0 0 1 82 74)" fill="white"/>
<rect width="8" height="8" transform="matrix(-1 0 0 1 74 74)" fill="#181818"/>
<rect width="8" height="8" transform="matrix(-1 0 0 1 66 74)" fill="white"/>
<rect width="8" height="8" transform="matrix(-1 0 0 1 58 74)" fill="#181818"/>
<rect width="8" height="8" transform="matrix(-1 0 0 1 50 74)" fill="white"/>
<rect width="8" height="8" transform="matrix(-1 0 0 1 42 74)" fill="#181818"/>
<rect width="8" height="8" transform="matrix(-1 0 0 1 34 74)" fill="white"/>
<rect width="8" height="8" transform="matrix(-1 0 0 1 26 74)" fill="#181818"/>
</svg>
