<svg width="100" height="100" viewBox="0 0 100 100" fill="none" xmlns="http://www.w3.org/2000/svg">
<circle cx="22.5179" cy="55.8978" r="4" transform="rotate(-103 22.5179 55.8978)" fill="url(#paint0_linear_500_6482)"/>
<circle cx="25.5512" cy="63.5993" r="4" transform="rotate(-120 25.5512 63.5993)" fill="url(#paint1_linear_500_6482)"/>
<circle cx="30.7038" cy="70.0773" r="4" transform="rotate(-137 30.7038 70.0773)" fill="url(#paint2_linear_500_6482)"/>
<circle cx="37.5253" cy="74.7656" r="4" transform="rotate(-154 37.5253 74.7656)" fill="url(#paint3_linear_500_6482)"/>
<circle cx="45.4195" cy="77.2547" r="4" transform="rotate(-171 45.4195 77.2547)" fill="url(#paint4_linear_500_6482)"/>
<circle cx="53.6967" cy="77.3268" r="4" transform="rotate(172 53.6967 77.3268)" fill="url(#paint5_linear_500_6482)"/>
<circle cx="61.6333" cy="74.9759" r="4" transform="rotate(155 61.6333 74.9759)" fill="url(#paint6_linear_500_6482)"/>
<circle cx="68.5358" cy="70.4074" r="4" transform="rotate(138 68.5358 70.4074)" fill="url(#paint7_linear_500_6482)"/>
<circle cx="73.8008" cy="64.0204" r="4" transform="rotate(121 73.8008 64.0204)" fill="url(#paint8_linear_500_6482)"/>
<circle cx="76.9685" cy="56.373" r="4" transform="rotate(104 76.9685 56.373)" fill="url(#paint9_linear_500_6482)"/>
<circle cx="4" cy="4" r="4" transform="matrix(-0.224951 -0.97437 -0.97437 0.224951 81.88 46.2983)" fill="url(#paint10_linear_500_6482)"/>
<circle cx="4" cy="4" r="4" transform="matrix(-0.5 -0.866026 -0.866026 0.5 79.5129 37.0635)" fill="url(#paint11_linear_500_6482)"/>
<circle cx="4" cy="4" r="4" transform="matrix(-0.731354 -0.681998 -0.681998 0.731354 74.5494 28.9241)" fill="url(#paint12_linear_500_6482)"/>
<circle cx="4" cy="4" r="4" transform="matrix(-0.898794 -0.438371 -0.438371 0.898794 67.4227 22.5916)" fill="url(#paint13_linear_500_6482)"/>
<circle cx="4" cy="4" r="4" transform="matrix(-0.987688 -0.156434 -0.156434 0.987688 58.7562 18.6193)" fill="url(#paint14_linear_500_6482)"/>
<circle cx="4" cy="4" r="4" transform="matrix(-0.990268 0.139173 0.139173 0.990268 49.3071 17.3542)" fill="url(#paint15_linear_500_6482)"/>
<circle cx="4" cy="4" r="4" transform="matrix(-0.906308 0.422618 0.422618 0.906308 39.9012 18.9072)" fill="url(#paint16_linear_500_6482)"/>
<circle cx="4" cy="4" r="4" transform="matrix(-0.743145 0.669131 0.669131 0.743145 31.3606 23.1423)" fill="url(#paint17_linear_500_6482)"/>
<circle cx="4" cy="4" r="4" transform="matrix(-0.515038 0.857167 0.857167 0.515038 24.4312 29.6895)" fill="url(#paint18_linear_500_6482)"/>
<circle cx="4" cy="4" r="4" transform="matrix(-0.241922 0.970296 0.970296 0.241922 19.7186 37.9767)" fill="url(#paint19_linear_500_6482)"/>
<circle cx="27.606" cy="54.7237" r="3.25402" transform="rotate(-103 27.606 54.7237)" fill="url(#paint20_linear_500_6482)"/>
<circle cx="30.0736" cy="60.9888" r="3.25402" transform="rotate(-120 30.0736 60.9888)" fill="url(#paint21_linear_500_6482)"/>
<circle cx="34.2652" cy="66.2588" r="3.25402" transform="rotate(-137 34.2652 66.2588)" fill="url(#paint22_linear_500_6482)"/>
<circle cx="39.8145" cy="70.0725" r="3.25402" transform="rotate(-154 39.8145 70.0725)" fill="url(#paint23_linear_500_6482)"/>
<circle cx="46.2365" cy="72.0977" r="3.25402" transform="rotate(-171 46.2365 72.0977)" fill="url(#paint24_linear_500_6482)"/>
<circle cx="52.9701" cy="72.1563" r="3.25402" transform="rotate(172 52.9701 72.1563)" fill="url(#paint25_linear_500_6482)"/>
<circle cx="59.4265" cy="70.244" r="3.25402" transform="rotate(155 59.4265 70.244)" fill="url(#paint26_linear_500_6482)"/>
<circle cx="65.0418" cy="66.5272" r="3.25402" transform="rotate(138 65.0418 66.5272)" fill="url(#paint27_linear_500_6482)"/>
<circle cx="69.3249" cy="61.3313" r="3.25402" transform="rotate(121 69.3249 61.3313)" fill="url(#paint28_linear_500_6482)"/>
<circle cx="71.9019" cy="55.1104" r="3.25402" transform="rotate(104 71.9019 55.1104)" fill="url(#paint29_linear_500_6482)"/>
<circle cx="3.25402" cy="3.25402" r="3.25402" transform="matrix(-0.224951 -0.97437 -0.97437 0.224951 75.8974 46.9139)" fill="url(#paint30_linear_500_6482)"/>
<circle cx="3.25402" cy="3.25402" r="3.25402" transform="matrix(-0.5 -0.866026 -0.866026 0.5 73.9717 39.4013)" fill="url(#paint31_linear_500_6482)"/>
<circle cx="3.25402" cy="3.25402" r="3.25402" transform="matrix(-0.731354 -0.681998 -0.681998 0.731354 69.9338 32.7801)" fill="url(#paint32_linear_500_6482)"/>
<circle cx="3.25402" cy="3.25402" r="3.25402" transform="matrix(-0.898794 -0.438371 -0.438371 0.898794 64.1362 27.6285)" fill="url(#paint33_linear_500_6482)"/>
<circle cx="3.25402" cy="3.25402" r="3.25402" transform="matrix(-0.987688 -0.156434 -0.156434 0.987688 57.086 24.3972)" fill="url(#paint34_linear_500_6482)"/>
<circle cx="3.25402" cy="3.25402" r="3.25402" transform="matrix(-0.990268 0.139173 0.139173 0.990268 49.3991 23.3679)" fill="url(#paint35_linear_500_6482)"/>
<circle cx="3.25402" cy="3.25402" r="3.25402" transform="matrix(-0.906308 0.422618 0.422618 0.906308 41.7473 24.6311)" fill="url(#paint36_linear_500_6482)"/>
<circle cx="3.25402" cy="3.25402" r="3.25402" transform="matrix(-0.743145 0.669131 0.669131 0.743145 34.7995 28.0766)" fill="url(#paint37_linear_500_6482)"/>
<circle cx="3.25402" cy="3.25402" r="3.25402" transform="matrix(-0.515038 0.857167 0.857167 0.515038 29.1624 33.4025)" fill="url(#paint38_linear_500_6482)"/>
<circle cx="3.25402" cy="3.25402" r="3.25402" transform="matrix(-0.241922 0.970296 0.970296 0.241922 25.3286 40.1445)" fill="url(#paint39_linear_500_6482)"/>
<circle cx="31.8472" cy="53.7447" r="2.6322" transform="rotate(-103 31.8472 53.7447)" fill="url(#paint40_linear_500_6482)"/>
<circle cx="33.8432" cy="58.8122" r="2.6322" transform="rotate(-120 33.8432 58.8122)" fill="url(#paint41_linear_500_6482)"/>
<circle cx="37.2339" cy="63.0754" r="2.6322" transform="rotate(-137 37.2339 63.0754)" fill="url(#paint42_linear_500_6482)"/>
<circle cx="41.7227" cy="66.1605" r="2.6322" transform="rotate(-154 41.7227 66.1605)" fill="url(#paint43_linear_500_6482)"/>
<circle cx="46.9176" cy="67.7986" r="2.6322" transform="rotate(-171 46.9176 67.7986)" fill="url(#paint44_linear_500_6482)"/>
<circle cx="52.3643" cy="67.8459" r="2.6322" transform="rotate(172 52.3643 67.8459)" fill="url(#paint45_linear_500_6482)"/>
<circle cx="57.5871" cy="66.299" r="2.6322" transform="rotate(155 57.5871 66.299)" fill="url(#paint46_linear_500_6482)"/>
<circle cx="62.1292" cy="63.2925" r="2.6322" transform="rotate(138 62.1292 63.2925)" fill="url(#paint47_linear_500_6482)"/>
<circle cx="65.5938" cy="59.0893" r="2.6322" transform="rotate(121 65.5938 59.0893)" fill="url(#paint48_linear_500_6482)"/>
<circle cx="67.6784" cy="54.0574" r="2.6322" transform="rotate(104 67.6784 54.0574)" fill="url(#paint49_linear_500_6482)"/>
<circle cx="2.6322" cy="2.6322" r="2.6322" transform="matrix(-0.224951 -0.97437 -0.97437 0.224951 70.9103 47.4271)" fill="url(#paint50_linear_500_6482)"/>
<circle cx="2.6322" cy="2.6322" r="2.6322" transform="matrix(-0.5 -0.866026 -0.866026 0.5 69.3527 41.3503)" fill="url(#paint51_linear_500_6482)"/>
<circle cx="2.6322" cy="2.6322" r="2.6322" transform="matrix(-0.731354 -0.681998 -0.681998 0.731354 66.0864 35.9941)" fill="url(#paint52_linear_500_6482)"/>
<circle cx="2.6322" cy="2.6322" r="2.6322" transform="matrix(-0.898794 -0.438371 -0.438371 0.898794 61.3967 31.8271)" fill="url(#paint53_linear_500_6482)"/>
<circle cx="2.6322" cy="2.6322" r="2.6322" transform="matrix(-0.987688 -0.156434 -0.156434 0.987688 55.6937 29.2132)" fill="url(#paint54_linear_500_6482)"/>
<circle cx="2.6322" cy="2.6322" r="2.6322" transform="matrix(-0.990268 0.139173 0.139173 0.990268 49.4757 28.3806)" fill="url(#paint55_linear_500_6482)"/>
<circle cx="2.6322" cy="2.6322" r="2.6322" transform="matrix(-0.906308 0.422618 0.422618 0.906308 43.2862 29.4024)" fill="url(#paint56_linear_500_6482)"/>
<circle cx="2.6322" cy="2.6322" r="2.6322" transform="matrix(-0.743145 0.669131 0.669131 0.743145 37.666 32.1898)" fill="url(#paint57_linear_500_6482)"/>
<circle cx="2.6322" cy="2.6322" r="2.6322" transform="matrix(-0.515038 0.857167 0.857167 0.515038 33.1061 36.4977)" fill="url(#paint58_linear_500_6482)"/>
<circle cx="2.6322" cy="2.6322" r="2.6322" transform="matrix(-0.241922 0.970296 0.970296 0.241922 30.005 41.9515)" fill="url(#paint59_linear_500_6482)"/>
<circle cx="36.088" cy="52.7653" r="2.01042" transform="rotate(-103 36.088 52.7653)" fill="url(#paint60_linear_500_6482)"/>
<circle cx="37.6125" cy="56.6358" r="2.01042" transform="rotate(-120 37.6125 56.6358)" fill="url(#paint61_linear_500_6482)"/>
<circle cx="40.2022" cy="59.8919" r="2.01042" transform="rotate(-137 40.2022 59.8919)" fill="url(#paint62_linear_500_6482)"/>
<circle cx="43.6307" cy="62.2484" r="2.01042" transform="rotate(-154 43.6307 62.2484)" fill="url(#paint63_linear_500_6482)"/>
<circle cx="47.5985" cy="63.4995" r="2.01042" transform="rotate(-171 47.5985 63.4995)" fill="url(#paint64_linear_500_6482)"/>
<circle cx="51.7586" cy="63.5355" r="2.01042" transform="rotate(172 51.7586 63.5355)" fill="url(#paint65_linear_500_6482)"/>
<circle cx="55.7476" cy="62.3542" r="2.01042" transform="rotate(155 55.7476 62.3542)" fill="url(#paint66_linear_500_6482)"/>
<circle cx="59.2169" cy="60.0579" r="2.01042" transform="rotate(138 59.2169 60.0579)" fill="url(#paint67_linear_500_6482)"/>
<circle cx="61.8631" cy="56.8474" r="2.01042" transform="rotate(121 61.8631 56.8474)" fill="url(#paint68_linear_500_6482)"/>
<circle cx="63.4552" cy="53.0043" r="2.01042" transform="rotate(104 63.4552 53.0043)" fill="url(#paint69_linear_500_6482)"/>
<circle cx="2.01042" cy="2.01042" r="2.01042" transform="matrix(-0.224951 -0.97437 -0.97437 0.224951 65.9237 47.9398)" fill="url(#paint70_linear_500_6482)"/>
<circle cx="2.01042" cy="2.01042" r="2.01042" transform="matrix(-0.5 -0.866026 -0.866026 0.5 64.734 43.2985)" fill="url(#paint71_linear_500_6482)"/>
<circle cx="2.01042" cy="2.01042" r="2.01042" transform="matrix(-0.731354 -0.681998 -0.681998 0.731354 62.2393 39.2077)" fill="url(#paint72_linear_500_6482)"/>
<circle cx="2.01042" cy="2.01042" r="2.01042" transform="matrix(-0.898794 -0.438371 -0.438371 0.898794 58.6574 36.0251)" fill="url(#paint73_linear_500_6482)"/>
<circle cx="2.01042" cy="2.01042" r="2.01042" transform="matrix(-0.987688 -0.156434 -0.156434 0.987688 54.3016 34.0283)" fill="url(#paint74_linear_500_6482)"/>
<circle cx="2.01042" cy="2.01042" r="2.01042" transform="matrix(-0.990268 0.139173 0.139173 0.990268 49.5524 33.3925)" fill="url(#paint75_linear_500_6482)"/>
<circle cx="2.01042" cy="2.01042" r="2.01042" transform="matrix(-0.906308 0.422618 0.422618 0.906308 44.825 34.173)" fill="url(#paint76_linear_500_6482)"/>
<circle cx="2.01042" cy="2.01042" r="2.01042" transform="matrix(-0.743145 0.669131 0.669131 0.743145 40.5323 36.3018)" fill="url(#paint77_linear_500_6482)"/>
<circle cx="2.01042" cy="2.01042" r="2.01042" transform="matrix(-0.515038 0.857167 0.857167 0.515038 37.0496 39.5922)" fill="url(#paint78_linear_500_6482)"/>
<circle cx="2.01042" cy="2.01042" r="2.01042" transform="matrix(-0.241922 0.970296 0.970296 0.241922 34.681 43.7576)" fill="url(#paint79_linear_500_6482)"/>
<defs>
<linearGradient id="paint0_linear_500_6482" x1="22.5179" y1="51.8978" x2="22.5179" y2="59.8978" gradientUnits="userSpaceOnUse">
<stop stop-color="white"/>
<stop offset="1" stop-color="white" stop-opacity="0"/>
</linearGradient>
<linearGradient id="paint1_linear_500_6482" x1="25.5512" y1="59.5993" x2="25.5512" y2="67.5993" gradientUnits="userSpaceOnUse">
<stop stop-color="white"/>
<stop offset="1" stop-color="white" stop-opacity="0"/>
</linearGradient>
<linearGradient id="paint2_linear_500_6482" x1="30.7038" y1="66.0773" x2="30.7038" y2="74.0773" gradientUnits="userSpaceOnUse">
<stop stop-color="white"/>
<stop offset="1" stop-color="white" stop-opacity="0"/>
</linearGradient>
<linearGradient id="paint3_linear_500_6482" x1="37.5253" y1="70.7656" x2="37.5253" y2="78.7656" gradientUnits="userSpaceOnUse">
<stop stop-color="white"/>
<stop offset="1" stop-color="white" stop-opacity="0"/>
</linearGradient>
<linearGradient id="paint4_linear_500_6482" x1="45.4195" y1="73.2547" x2="45.4195" y2="81.2547" gradientUnits="userSpaceOnUse">
<stop stop-color="white"/>
<stop offset="1" stop-color="white" stop-opacity="0"/>
</linearGradient>
<linearGradient id="paint5_linear_500_6482" x1="53.6967" y1="73.3268" x2="53.6967" y2="81.3268" gradientUnits="userSpaceOnUse">
<stop stop-color="white"/>
<stop offset="1" stop-color="white" stop-opacity="0"/>
</linearGradient>
<linearGradient id="paint6_linear_500_6482" x1="61.6333" y1="70.976" x2="61.6333" y2="78.976" gradientUnits="userSpaceOnUse">
<stop stop-color="white"/>
<stop offset="1" stop-color="white" stop-opacity="0"/>
</linearGradient>
<linearGradient id="paint7_linear_500_6482" x1="68.5358" y1="66.4074" x2="68.5358" y2="74.4074" gradientUnits="userSpaceOnUse">
<stop stop-color="white"/>
<stop offset="1" stop-color="white" stop-opacity="0"/>
</linearGradient>
<linearGradient id="paint8_linear_500_6482" x1="73.8009" y1="60.0204" x2="73.8009" y2="68.0204" gradientUnits="userSpaceOnUse">
<stop stop-color="white"/>
<stop offset="1" stop-color="white" stop-opacity="0"/>
</linearGradient>
<linearGradient id="paint9_linear_500_6482" x1="76.9685" y1="52.373" x2="76.9685" y2="60.373" gradientUnits="userSpaceOnUse">
<stop stop-color="white"/>
<stop offset="1" stop-color="white" stop-opacity="0"/>
</linearGradient>
<linearGradient id="paint10_linear_500_6482" x1="4" y1="0" x2="4" y2="8" gradientUnits="userSpaceOnUse">
<stop stop-color="white"/>
<stop offset="1" stop-color="white" stop-opacity="0"/>
</linearGradient>
<linearGradient id="paint11_linear_500_6482" x1="4" y1="0" x2="4" y2="8" gradientUnits="userSpaceOnUse">
<stop stop-color="white"/>
<stop offset="1" stop-color="white" stop-opacity="0"/>
</linearGradient>
<linearGradient id="paint12_linear_500_6482" x1="4" y1="0" x2="4" y2="8" gradientUnits="userSpaceOnUse">
<stop stop-color="white"/>
<stop offset="1" stop-color="white" stop-opacity="0"/>
</linearGradient>
<linearGradient id="paint13_linear_500_6482" x1="4" y1="0" x2="4" y2="8" gradientUnits="userSpaceOnUse">
<stop stop-color="white"/>
<stop offset="1" stop-color="white" stop-opacity="0"/>
</linearGradient>
<linearGradient id="paint14_linear_500_6482" x1="4" y1="0" x2="4" y2="8" gradientUnits="userSpaceOnUse">
<stop stop-color="white"/>
<stop offset="1" stop-color="white" stop-opacity="0"/>
</linearGradient>
<linearGradient id="paint15_linear_500_6482" x1="4" y1="0" x2="4" y2="8" gradientUnits="userSpaceOnUse">
<stop stop-color="white"/>
<stop offset="1" stop-color="white" stop-opacity="0"/>
</linearGradient>
<linearGradient id="paint16_linear_500_6482" x1="4" y1="0" x2="4" y2="8" gradientUnits="userSpaceOnUse">
<stop stop-color="white"/>
<stop offset="1" stop-color="white" stop-opacity="0"/>
</linearGradient>
<linearGradient id="paint17_linear_500_6482" x1="4" y1="0" x2="4" y2="8" gradientUnits="userSpaceOnUse">
<stop stop-color="white"/>
<stop offset="1" stop-color="white" stop-opacity="0"/>
</linearGradient>
<linearGradient id="paint18_linear_500_6482" x1="4" y1="0" x2="4" y2="8" gradientUnits="userSpaceOnUse">
<stop stop-color="white"/>
<stop offset="1" stop-color="white" stop-opacity="0"/>
</linearGradient>
<linearGradient id="paint19_linear_500_6482" x1="4" y1="0" x2="4" y2="8" gradientUnits="userSpaceOnUse">
<stop stop-color="white"/>
<stop offset="1" stop-color="white" stop-opacity="0"/>
</linearGradient>
<linearGradient id="paint20_linear_500_6482" x1="27.606" y1="51.4696" x2="27.606" y2="57.9777" gradientUnits="userSpaceOnUse">
<stop stop-color="white"/>
<stop offset="1" stop-color="white" stop-opacity="0"/>
</linearGradient>
<linearGradient id="paint21_linear_500_6482" x1="30.0736" y1="57.7347" x2="30.0736" y2="64.2428" gradientUnits="userSpaceOnUse">
<stop stop-color="white"/>
<stop offset="1" stop-color="white" stop-opacity="0"/>
</linearGradient>
<linearGradient id="paint22_linear_500_6482" x1="34.2652" y1="63.0048" x2="34.2652" y2="69.5128" gradientUnits="userSpaceOnUse">
<stop stop-color="white"/>
<stop offset="1" stop-color="white" stop-opacity="0"/>
</linearGradient>
<linearGradient id="paint23_linear_500_6482" x1="39.8146" y1="66.8185" x2="39.8146" y2="73.3266" gradientUnits="userSpaceOnUse">
<stop stop-color="white"/>
<stop offset="1" stop-color="white" stop-opacity="0"/>
</linearGradient>
<linearGradient id="paint24_linear_500_6482" x1="46.2366" y1="68.8437" x2="46.2366" y2="75.3518" gradientUnits="userSpaceOnUse">
<stop stop-color="white"/>
<stop offset="1" stop-color="white" stop-opacity="0"/>
</linearGradient>
<linearGradient id="paint25_linear_500_6482" x1="52.9701" y1="68.9023" x2="52.9701" y2="75.4103" gradientUnits="userSpaceOnUse">
<stop stop-color="white"/>
<stop offset="1" stop-color="white" stop-opacity="0"/>
</linearGradient>
<linearGradient id="paint26_linear_500_6482" x1="59.4265" y1="66.99" x2="59.4265" y2="73.498" gradientUnits="userSpaceOnUse">
<stop stop-color="white"/>
<stop offset="1" stop-color="white" stop-opacity="0"/>
</linearGradient>
<linearGradient id="paint27_linear_500_6482" x1="65.0418" y1="63.2732" x2="65.0418" y2="69.7813" gradientUnits="userSpaceOnUse">
<stop stop-color="white"/>
<stop offset="1" stop-color="white" stop-opacity="0"/>
</linearGradient>
<linearGradient id="paint28_linear_500_6482" x1="69.3249" y1="58.0772" x2="69.3249" y2="64.5853" gradientUnits="userSpaceOnUse">
<stop stop-color="white"/>
<stop offset="1" stop-color="white" stop-opacity="0"/>
</linearGradient>
<linearGradient id="paint29_linear_500_6482" x1="71.9019" y1="51.8564" x2="71.9019" y2="58.3645" gradientUnits="userSpaceOnUse">
<stop stop-color="white"/>
<stop offset="1" stop-color="white" stop-opacity="0"/>
</linearGradient>
<linearGradient id="paint30_linear_500_6482" x1="3.25402" y1="0" x2="3.25402" y2="6.50804" gradientUnits="userSpaceOnUse">
<stop stop-color="white"/>
<stop offset="1" stop-color="white" stop-opacity="0"/>
</linearGradient>
<linearGradient id="paint31_linear_500_6482" x1="3.25402" y1="0" x2="3.25402" y2="6.50804" gradientUnits="userSpaceOnUse">
<stop stop-color="white"/>
<stop offset="1" stop-color="white" stop-opacity="0"/>
</linearGradient>
<linearGradient id="paint32_linear_500_6482" x1="3.25402" y1="0" x2="3.25402" y2="6.50804" gradientUnits="userSpaceOnUse">
<stop stop-color="white"/>
<stop offset="1" stop-color="white" stop-opacity="0"/>
</linearGradient>
<linearGradient id="paint33_linear_500_6482" x1="3.25402" y1="0" x2="3.25402" y2="6.50804" gradientUnits="userSpaceOnUse">
<stop stop-color="white"/>
<stop offset="1" stop-color="white" stop-opacity="0"/>
</linearGradient>
<linearGradient id="paint34_linear_500_6482" x1="3.25402" y1="0" x2="3.25402" y2="6.50804" gradientUnits="userSpaceOnUse">
<stop stop-color="white"/>
<stop offset="1" stop-color="white" stop-opacity="0"/>
</linearGradient>
<linearGradient id="paint35_linear_500_6482" x1="3.25402" y1="0" x2="3.25402" y2="6.50804" gradientUnits="userSpaceOnUse">
<stop stop-color="white"/>
<stop offset="1" stop-color="white" stop-opacity="0"/>
</linearGradient>
<linearGradient id="paint36_linear_500_6482" x1="3.25402" y1="0" x2="3.25402" y2="6.50804" gradientUnits="userSpaceOnUse">
<stop stop-color="white"/>
<stop offset="1" stop-color="white" stop-opacity="0"/>
</linearGradient>
<linearGradient id="paint37_linear_500_6482" x1="3.25402" y1="0" x2="3.25402" y2="6.50804" gradientUnits="userSpaceOnUse">
<stop stop-color="white"/>
<stop offset="1" stop-color="white" stop-opacity="0"/>
</linearGradient>
<linearGradient id="paint38_linear_500_6482" x1="3.25402" y1="0" x2="3.25402" y2="6.50804" gradientUnits="userSpaceOnUse">
<stop stop-color="white"/>
<stop offset="1" stop-color="white" stop-opacity="0"/>
</linearGradient>
<linearGradient id="paint39_linear_500_6482" x1="3.25402" y1="0" x2="3.25402" y2="6.50804" gradientUnits="userSpaceOnUse">
<stop stop-color="white"/>
<stop offset="1" stop-color="white" stop-opacity="0"/>
</linearGradient>
<linearGradient id="paint40_linear_500_6482" x1="31.8472" y1="51.1125" x2="31.8472" y2="56.3769" gradientUnits="userSpaceOnUse">
<stop stop-color="white"/>
<stop offset="1" stop-color="white" stop-opacity="0"/>
</linearGradient>
<linearGradient id="paint41_linear_500_6482" x1="33.8432" y1="56.1801" x2="33.8432" y2="61.4445" gradientUnits="userSpaceOnUse">
<stop stop-color="white"/>
<stop offset="1" stop-color="white" stop-opacity="0"/>
</linearGradient>
<linearGradient id="paint42_linear_500_6482" x1="37.2339" y1="60.4432" x2="37.2339" y2="65.7076" gradientUnits="userSpaceOnUse">
<stop stop-color="white"/>
<stop offset="1" stop-color="white" stop-opacity="0"/>
</linearGradient>
<linearGradient id="paint43_linear_500_6482" x1="41.7227" y1="63.5283" x2="41.7227" y2="68.7927" gradientUnits="userSpaceOnUse">
<stop stop-color="white"/>
<stop offset="1" stop-color="white" stop-opacity="0"/>
</linearGradient>
<linearGradient id="paint44_linear_500_6482" x1="46.9176" y1="65.1664" x2="46.9176" y2="70.4308" gradientUnits="userSpaceOnUse">
<stop stop-color="white"/>
<stop offset="1" stop-color="white" stop-opacity="0"/>
</linearGradient>
<linearGradient id="paint45_linear_500_6482" x1="52.3643" y1="65.2137" x2="52.3643" y2="70.4781" gradientUnits="userSpaceOnUse">
<stop stop-color="white"/>
<stop offset="1" stop-color="white" stop-opacity="0"/>
</linearGradient>
<linearGradient id="paint46_linear_500_6482" x1="57.5871" y1="63.6668" x2="57.5871" y2="68.9312" gradientUnits="userSpaceOnUse">
<stop stop-color="white"/>
<stop offset="1" stop-color="white" stop-opacity="0"/>
</linearGradient>
<linearGradient id="paint47_linear_500_6482" x1="62.1292" y1="60.6604" x2="62.1292" y2="65.9248" gradientUnits="userSpaceOnUse">
<stop stop-color="white"/>
<stop offset="1" stop-color="white" stop-opacity="0"/>
</linearGradient>
<linearGradient id="paint48_linear_500_6482" x1="65.5938" y1="56.4571" x2="65.5938" y2="61.7215" gradientUnits="userSpaceOnUse">
<stop stop-color="white"/>
<stop offset="1" stop-color="white" stop-opacity="0"/>
</linearGradient>
<linearGradient id="paint49_linear_500_6482" x1="67.6784" y1="51.4252" x2="67.6784" y2="56.6896" gradientUnits="userSpaceOnUse">
<stop stop-color="white"/>
<stop offset="1" stop-color="white" stop-opacity="0"/>
</linearGradient>
<linearGradient id="paint50_linear_500_6482" x1="2.6322" y1="0" x2="2.6322" y2="5.2644" gradientUnits="userSpaceOnUse">
<stop stop-color="white"/>
<stop offset="1" stop-color="white" stop-opacity="0"/>
</linearGradient>
<linearGradient id="paint51_linear_500_6482" x1="2.6322" y1="0" x2="2.6322" y2="5.2644" gradientUnits="userSpaceOnUse">
<stop stop-color="white"/>
<stop offset="1" stop-color="white" stop-opacity="0"/>
</linearGradient>
<linearGradient id="paint52_linear_500_6482" x1="2.6322" y1="0" x2="2.6322" y2="5.2644" gradientUnits="userSpaceOnUse">
<stop stop-color="white"/>
<stop offset="1" stop-color="white" stop-opacity="0"/>
</linearGradient>
<linearGradient id="paint53_linear_500_6482" x1="2.6322" y1="0" x2="2.6322" y2="5.2644" gradientUnits="userSpaceOnUse">
<stop stop-color="white"/>
<stop offset="1" stop-color="white" stop-opacity="0"/>
</linearGradient>
<linearGradient id="paint54_linear_500_6482" x1="2.6322" y1="0" x2="2.6322" y2="5.2644" gradientUnits="userSpaceOnUse">
<stop stop-color="white"/>
<stop offset="1" stop-color="white" stop-opacity="0"/>
</linearGradient>
<linearGradient id="paint55_linear_500_6482" x1="2.6322" y1="0" x2="2.6322" y2="5.2644" gradientUnits="userSpaceOnUse">
<stop stop-color="white"/>
<stop offset="1" stop-color="white" stop-opacity="0"/>
</linearGradient>
<linearGradient id="paint56_linear_500_6482" x1="2.6322" y1="0" x2="2.6322" y2="5.2644" gradientUnits="userSpaceOnUse">
<stop stop-color="white"/>
<stop offset="1" stop-color="white" stop-opacity="0"/>
</linearGradient>
<linearGradient id="paint57_linear_500_6482" x1="2.6322" y1="0" x2="2.6322" y2="5.2644" gradientUnits="userSpaceOnUse">
<stop stop-color="white"/>
<stop offset="1" stop-color="white" stop-opacity="0"/>
</linearGradient>
<linearGradient id="paint58_linear_500_6482" x1="2.6322" y1="0" x2="2.6322" y2="5.2644" gradientUnits="userSpaceOnUse">
<stop stop-color="white"/>
<stop offset="1" stop-color="white" stop-opacity="0"/>
</linearGradient>
<linearGradient id="paint59_linear_500_6482" x1="2.6322" y1="0" x2="2.6322" y2="5.2644" gradientUnits="userSpaceOnUse">
<stop stop-color="white"/>
<stop offset="1" stop-color="white" stop-opacity="0"/>
</linearGradient>
<linearGradient id="paint60_linear_500_6482" x1="36.088" y1="50.7549" x2="36.088" y2="54.7757" gradientUnits="userSpaceOnUse">
<stop stop-color="white"/>
<stop offset="1" stop-color="white" stop-opacity="0"/>
</linearGradient>
<linearGradient id="paint61_linear_500_6482" x1="37.6125" y1="54.6254" x2="37.6125" y2="58.6462" gradientUnits="userSpaceOnUse">
<stop stop-color="white"/>
<stop offset="1" stop-color="white" stop-opacity="0"/>
</linearGradient>
<linearGradient id="paint62_linear_500_6482" x1="40.2022" y1="57.8815" x2="40.2022" y2="61.9023" gradientUnits="userSpaceOnUse">
<stop stop-color="white"/>
<stop offset="1" stop-color="white" stop-opacity="0"/>
</linearGradient>
<linearGradient id="paint63_linear_500_6482" x1="43.6307" y1="60.238" x2="43.6307" y2="64.2588" gradientUnits="userSpaceOnUse">
<stop stop-color="white"/>
<stop offset="1" stop-color="white" stop-opacity="0"/>
</linearGradient>
<linearGradient id="paint64_linear_500_6482" x1="47.5985" y1="61.489" x2="47.5985" y2="65.5099" gradientUnits="userSpaceOnUse">
<stop stop-color="white"/>
<stop offset="1" stop-color="white" stop-opacity="0"/>
</linearGradient>
<linearGradient id="paint65_linear_500_6482" x1="51.7586" y1="61.5251" x2="51.7586" y2="65.5459" gradientUnits="userSpaceOnUse">
<stop stop-color="white"/>
<stop offset="1" stop-color="white" stop-opacity="0"/>
</linearGradient>
<linearGradient id="paint66_linear_500_6482" x1="55.7476" y1="60.3438" x2="55.7476" y2="64.3647" gradientUnits="userSpaceOnUse">
<stop stop-color="white"/>
<stop offset="1" stop-color="white" stop-opacity="0"/>
</linearGradient>
<linearGradient id="paint67_linear_500_6482" x1="59.2169" y1="58.0474" x2="59.2169" y2="62.0683" gradientUnits="userSpaceOnUse">
<stop stop-color="white"/>
<stop offset="1" stop-color="white" stop-opacity="0"/>
</linearGradient>
<linearGradient id="paint68_linear_500_6482" x1="61.8631" y1="54.8369" x2="61.8631" y2="58.8578" gradientUnits="userSpaceOnUse">
<stop stop-color="white"/>
<stop offset="1" stop-color="white" stop-opacity="0"/>
</linearGradient>
<linearGradient id="paint69_linear_500_6482" x1="63.4552" y1="50.9938" x2="63.4552" y2="55.0147" gradientUnits="userSpaceOnUse">
<stop stop-color="white"/>
<stop offset="1" stop-color="white" stop-opacity="0"/>
</linearGradient>
<linearGradient id="paint70_linear_500_6482" x1="2.01042" y1="0" x2="2.01042" y2="4.02085" gradientUnits="userSpaceOnUse">
<stop stop-color="white"/>
<stop offset="1" stop-color="white" stop-opacity="0"/>
</linearGradient>
<linearGradient id="paint71_linear_500_6482" x1="2.01042" y1="0" x2="2.01042" y2="4.02085" gradientUnits="userSpaceOnUse">
<stop stop-color="white"/>
<stop offset="1" stop-color="white" stop-opacity="0"/>
</linearGradient>
<linearGradient id="paint72_linear_500_6482" x1="2.01042" y1="0" x2="2.01042" y2="4.02085" gradientUnits="userSpaceOnUse">
<stop stop-color="white"/>
<stop offset="1" stop-color="white" stop-opacity="0"/>
</linearGradient>
<linearGradient id="paint73_linear_500_6482" x1="2.01042" y1="0" x2="2.01042" y2="4.02085" gradientUnits="userSpaceOnUse">
<stop stop-color="white"/>
<stop offset="1" stop-color="white" stop-opacity="0"/>
</linearGradient>
<linearGradient id="paint74_linear_500_6482" x1="2.01042" y1="0" x2="2.01042" y2="4.02085" gradientUnits="userSpaceOnUse">
<stop stop-color="white"/>
<stop offset="1" stop-color="white" stop-opacity="0"/>
</linearGradient>
<linearGradient id="paint75_linear_500_6482" x1="2.01042" y1="0" x2="2.01042" y2="4.02085" gradientUnits="userSpaceOnUse">
<stop stop-color="white"/>
<stop offset="1" stop-color="white" stop-opacity="0"/>
</linearGradient>
<linearGradient id="paint76_linear_500_6482" x1="2.01042" y1="0" x2="2.01042" y2="4.02085" gradientUnits="userSpaceOnUse">
<stop stop-color="white"/>
<stop offset="1" stop-color="white" stop-opacity="0"/>
</linearGradient>
<linearGradient id="paint77_linear_500_6482" x1="2.01042" y1="0" x2="2.01042" y2="4.02085" gradientUnits="userSpaceOnUse">
<stop stop-color="white"/>
<stop offset="1" stop-color="white" stop-opacity="0"/>
</linearGradient>
<linearGradient id="paint78_linear_500_6482" x1="2.01042" y1="0" x2="2.01042" y2="4.02085" gradientUnits="userSpaceOnUse">
<stop stop-color="white"/>
<stop offset="1" stop-color="white" stop-opacity="0"/>
</linearGradient>
<linearGradient id="paint79_linear_500_6482" x1="2.01042" y1="0" x2="2.01042" y2="4.02085" gradientUnits="userSpaceOnUse">
<stop stop-color="white"/>
<stop offset="1" stop-color="white" stop-opacity="0"/>
</linearGradient>
</defs>
</svg>
