<svg width="100" height="100" viewBox="0 0 100 100" fill="none" xmlns="http://www.w3.org/2000/svg">
<path fill-rule="evenodd" clip-rule="evenodd" d="M65.3143 21.7478L33.3558 22.1107L18.0795 48.57L32.7178 78.1753L65.5657 78.3216L81.8558 50.1062L65.3143 21.7478ZM72.4876 64.3323L80.4139 50.6036L67.7448 50.5472L59.7203 64.446L72.4876 64.3323ZM71.9073 65.3376L64.9898 77.319L52.3207 77.2626L59.1399 65.4513L71.9073 65.3376ZM57.9793 65.4616L51.1689 77.2574L33.8928 77.1805L40.5692 65.6166L57.9793 65.4616ZM39.7059 65.112L33.0631 76.6176L25.3391 60.996L31.5791 50.1881L39.7059 65.112ZM32.165 49.1732L40.2918 64.0971L48.4536 49.9606L40.2359 35.3463L40.1471 35.3478L32.165 49.1732ZM31.0186 49.1589L24.8064 59.9187L19.2132 48.6065L25.1337 38.3519L31.0186 49.1589ZM25.7196 37.3369L31.6046 48.1439L39.5642 34.3575L39.6787 34.3555L33.6406 23.6174L25.7196 37.3369ZM41.1496 64.6114L58.5596 64.4564L66.5931 50.5421L49.317 50.4651L41.1496 64.6114ZM66.4401 49.5414L49.3222 49.4652L41.3724 35.3272L57.9859 35.0477L66.4401 49.5414ZM57.4082 34.0573L40.8153 34.3364L34.4957 23.0978L50.9068 22.9115L57.4082 34.0573ZM52.0569 22.8984L58.5547 34.038L71.2015 33.8253L64.7437 22.7543L52.0569 22.8984ZM71.7792 34.8157L59.1324 35.0284L67.6008 49.5465L80.405 49.6036L71.7792 34.8157Z" fill="url(#paint0_linear_500_5981)"/>
<defs>
<linearGradient id="paint0_linear_500_5981" x1="32.5" y1="22.0001" x2="65" y2="80.0001" gradientUnits="userSpaceOnUse">
<stop stop-color="white"/>
<stop offset="1" stop-color="#3C3C3C"/>
</linearGradient>
</defs>
</svg>
