<svg width="100" height="100" viewBox="0 0 100 100" fill="none" xmlns="http://www.w3.org/2000/svg">
<circle cx="50" cy="50" r="27.5" stroke="url(#paint0_linear_500_5983)"/>
<circle cx="50" cy="50" r="23.5" stroke="url(#paint1_linear_500_5983)" stroke-linejoin="bevel" stroke-dasharray="1 1"/>
<path d="M54.8459 55.5322C52.7339 58.2468 51.064 61.5324 50 64.8928C48.936 61.5324 47.2662 58.2468 45.1541 55.5322C43.0688 52.8518 40.5293 50.6999 37.6891 49.6076C40.5293 48.5153 43.0688 46.3635 45.1541 43.6831C47.2662 40.9685 48.936 37.6829 50 34.3225C51.064 37.6829 52.7339 40.9685 54.8459 43.6831C56.9312 46.3635 59.4707 48.5153 62.3109 49.6076C59.4707 50.6999 56.9312 52.8518 54.8459 55.5322Z" stroke="url(#paint2_linear_500_5983)"/>
<defs>
<linearGradient id="paint0_linear_500_5983" x1="40.375" y1="22" x2="69.6875" y2="79.75" gradientUnits="userSpaceOnUse">
<stop offset="0.0246751" stop-color="white"/>
<stop offset="1" stop-color="white" stop-opacity="0"/>
</linearGradient>
<linearGradient id="paint1_linear_500_5983" x1="41.75" y1="26" x2="66.875" y2="75.5" gradientUnits="userSpaceOnUse">
<stop offset="0.0246751" stop-color="white"/>
<stop offset="1" stop-color="white" stop-opacity="0"/>
</linearGradient>
<linearGradient id="paint2_linear_500_5983" x1="47.375" y1="35.5625" x2="59.1875" y2="66.625" gradientUnits="userSpaceOnUse">
<stop stop-color="white"/>
<stop offset="1" stop-color="white" stop-opacity="0"/>
</linearGradient>
</defs>
</svg>
