<svg width="100" height="100" viewBox="0 0 100 100" fill="none" xmlns="http://www.w3.org/2000/svg">
<path d="M29.863 22L20 40.816M29.863 22L39.9644 40.816M29.863 22H50M20 40.816L49.9424 78M20 40.816H39.9644M80 40.816L70.137 22M80 40.816L49.9424 78M80 40.816H59.9205M70.137 22L59.9205 40.816M70.137 22H50M49.9424 78L39.9644 40.816M49.9424 78L59.9205 40.816M39.9644 40.816H59.9205M39.9644 40.816L50 22M59.9205 40.816L50 22" stroke="url(#paint0_radial_500_6880)"/>
<defs>
<radialGradient id="paint0_radial_500_6880" cx="0" cy="0" r="1" gradientUnits="userSpaceOnUse" gradientTransform="translate(42 41.25) rotate(55.7414) scale(52.4044 51.9774)">
<stop stop-color="white"/>
<stop offset="1" stop-color="white" stop-opacity="0"/>
</radialGradient>
</defs>
</svg>
