<svg width="100" height="100" viewBox="0 0 100 100" fill="none" xmlns="http://www.w3.org/2000/svg">
<path fill-rule="evenodd" clip-rule="evenodd" d="M50 18L94 82H6L50 18ZM12.9153 81.3H87.0847L50 73.7145L12.9153 81.3ZM88.5766 80.8907L50 73L11.4234 80.8907L50 67.7396L88.5766 80.8907ZM50 61.7756L88.312 80.0609L50 67L11.688 80.0609L50 61.7756ZM87.9772 79.1255L50 61L12.0228 79.1255L50 55.8213L87.9772 79.1255ZM50 49.875L87.5833 78.0625L50 55L12.4167 78.0625L50 49.875ZM87.1404 76.8553L50 49L12.8596 76.8553L50 43.9354L87.1404 76.8553ZM50 38.0013L86.6574 75.4918L50 43L13.3426 75.4918L50 38.0013ZM86.1417 73.9631L50 37L13.8584 73.9631L50 32.0716L86.1417 73.9631ZM50 25.1582L86.7199 73.5617L50 31L13.2801 73.5617L50 25.1582ZM84.939 70.056L50 24L15.061 70.0559L50 19.2356L84.939 70.056Z" fill="url(#paint0_linear_500_6863)"/>
<path fill-rule="evenodd" clip-rule="evenodd" d="M50 18L6.00001 82H94L50 18ZM87.0847 81.3H12.9153L50 73.7145L87.0847 81.3ZM11.4234 80.8907L50 73L88.5766 80.8907L50 67.7396L11.4234 80.8907ZM50 61.7756L11.688 80.0609L50 67L88.312 80.0609L50 61.7756ZM12.0228 79.1255L50 61L87.9772 79.1255L50 55.8213L12.0228 79.1255ZM50 49.875L12.4167 78.0625L50 55L87.5833 78.0625L50 49.875ZM12.8596 76.8553L50 49L87.1404 76.8553L50 43.9354L12.8596 76.8553ZM50 38.0013L13.3426 75.4918L50 43L86.6574 75.4918L50 38.0013ZM13.8583 73.9631L50 37L86.1416 73.9631L50 32.0716L13.8583 73.9631ZM50 25.1582L13.2801 73.5617L50 31L86.7199 73.5617L50 25.1582ZM15.061 70.056L50 24L84.939 70.0559L50 19.2356L15.061 70.056Z" fill="url(#paint1_linear_500_6863)"/>
<defs>
<linearGradient id="paint0_linear_500_6863" x1="8.5" y1="82" x2="73" y2="51.5" gradientUnits="userSpaceOnUse">
<stop stop-color="white"/>
<stop offset="1" stop-color="white" stop-opacity="0"/>
</linearGradient>
<linearGradient id="paint1_linear_500_6863" x1="91.5" y1="82" x2="29.5" y2="46" gradientUnits="userSpaceOnUse">
<stop stop-color="white"/>
<stop offset="1" stop-color="white" stop-opacity="0"/>
</linearGradient>
</defs>
</svg>
