<svg width="100" height="100" viewBox="0 0 100 100" fill="none" xmlns="http://www.w3.org/2000/svg">
<circle cx="75.221" cy="24.5079" r="8.76948" transform="rotate(-90 75.221 24.5079)" fill="url(#paint0_linear_500_6675)"/>
<circle cx="24.585" cy="75.1438" r="8.76948" transform="rotate(-90 24.585 75.1438)" fill="url(#paint1_linear_500_6675)"/>
<circle cx="24.7444" cy="24.6672" r="8.76948" transform="rotate(-90 24.7444 24.6672)" fill="url(#paint2_linear_500_6675)"/>
<circle cx="75.2211" cy="75.1438" r="8.76948" transform="rotate(-90 75.2211 75.1438)" fill="url(#paint3_linear_500_6675)"/>
<circle cx="14.1777" cy="49.7931" r="8.76948" transform="rotate(-45 14.1777 49.7931)" fill="url(#paint4_linear_500_6675)"/>
<circle cx="49.9828" cy="14.2134" r="8.76948" transform="rotate(-45 49.9828 14.2134)" fill="url(#paint5_linear_500_6675)"/>
<circle cx="49.9828" cy="85.5982" r="8.76948" transform="rotate(-45 49.9828 85.5982)" fill="url(#paint6_linear_500_6675)"/>
<circle cx="85.7878" cy="49.7931" r="8.76948" transform="rotate(-45 85.7878 49.7931)" fill="url(#paint7_linear_500_6675)"/>
<circle cx="32.6058" cy="67.1733" r="6" transform="rotate(-90 32.6058 67.1733)" fill="url(#paint8_linear_500_6675)"/>
<circle cx="32.7149" cy="32.6377" r="6" transform="rotate(-90 32.7149 32.6377)" fill="url(#paint9_linear_500_6675)"/>
<circle cx="67.2506" cy="67.1733" r="6" transform="rotate(-90 67.2506 67.1733)" fill="url(#paint10_linear_500_6675)"/>
<circle cx="25.4853" cy="49.8286" r="6" transform="rotate(-45 25.4853 49.8286)" fill="url(#paint11_linear_500_6675)"/>
<circle cx="49.9828" cy="25.4854" r="6" transform="rotate(-45 49.9828 25.4854)" fill="url(#paint12_linear_500_6675)"/>
<circle cx="49.9828" cy="74.3262" r="6" transform="rotate(-45 49.9828 74.3262)" fill="url(#paint13_linear_500_6675)"/>
<circle cx="74.4803" cy="49.8286" r="6" transform="rotate(-45 74.4803 49.8286)" fill="url(#paint14_linear_500_6675)"/>
<circle cx="67.2505" cy="32.5289" r="6" transform="rotate(-90 67.2505 32.5289)" fill="url(#paint15_linear_500_6675)"/>
<circle cx="37.7871" cy="62.0247" r="4.211" transform="rotate(-90 37.7871 62.0247)" fill="url(#paint16_linear_500_6675)"/>
<circle cx="37.8636" cy="37.7864" r="4.211" transform="rotate(-90 37.8636 37.7864)" fill="url(#paint17_linear_500_6675)"/>
<circle cx="62.1019" cy="62.0247" r="4.211" transform="rotate(-90 62.1019 62.0247)" fill="url(#paint18_linear_500_6675)"/>
<circle cx="32.7896" cy="49.8516" r="4.211" transform="rotate(-45 32.7896 49.8516)" fill="url(#paint19_linear_500_6675)"/>
<circle cx="49.9828" cy="32.7667" r="4.211" transform="rotate(-45 49.9828 32.7667)" fill="url(#paint20_linear_500_6675)"/>
<circle cx="49.9828" cy="67.0448" r="4.211" transform="rotate(-45 49.9828 67.0448)" fill="url(#paint21_linear_500_6675)"/>
<circle cx="67.1759" cy="49.8516" r="4.211" transform="rotate(-45 67.1759 49.8516)" fill="url(#paint22_linear_500_6675)"/>
<circle cx="62.1019" cy="37.71" r="4.211" transform="rotate(-90 62.1019 37.71)" fill="url(#paint23_linear_500_6675)"/>
<defs>
<linearGradient id="paint0_linear_500_6675" x1="75.221" y1="15.7384" x2="75.221" y2="33.2773" gradientUnits="userSpaceOnUse">
<stop stop-color="white"/>
<stop offset="1" stop-color="#C4C4C4" stop-opacity="0"/>
</linearGradient>
<linearGradient id="paint1_linear_500_6675" x1="24.585" y1="66.3743" x2="24.585" y2="83.9133" gradientUnits="userSpaceOnUse">
<stop stop-color="white"/>
<stop offset="1" stop-color="#C4C4C4" stop-opacity="0"/>
</linearGradient>
<linearGradient id="paint2_linear_500_6675" x1="24.7444" y1="15.8977" x2="24.7444" y2="33.4366" gradientUnits="userSpaceOnUse">
<stop stop-color="white"/>
<stop offset="1" stop-color="#C4C4C4" stop-opacity="0"/>
</linearGradient>
<linearGradient id="paint3_linear_500_6675" x1="75.2211" y1="66.3743" x2="75.2211" y2="83.9133" gradientUnits="userSpaceOnUse">
<stop stop-color="white"/>
<stop offset="1" stop-color="#C4C4C4" stop-opacity="0"/>
</linearGradient>
<linearGradient id="paint4_linear_500_6675" x1="14.1777" y1="41.0236" x2="14.1777" y2="58.5626" gradientUnits="userSpaceOnUse">
<stop stop-color="white"/>
<stop offset="1" stop-color="#C4C4C4" stop-opacity="0"/>
</linearGradient>
<linearGradient id="paint5_linear_500_6675" x1="49.9828" y1="5.44396" x2="49.9828" y2="22.9829" gradientUnits="userSpaceOnUse">
<stop stop-color="white"/>
<stop offset="1" stop-color="#C4C4C4" stop-opacity="0"/>
</linearGradient>
<linearGradient id="paint6_linear_500_6675" x1="49.9828" y1="76.8287" x2="49.9828" y2="94.3677" gradientUnits="userSpaceOnUse">
<stop stop-color="white"/>
<stop offset="1" stop-color="#C4C4C4" stop-opacity="0"/>
</linearGradient>
<linearGradient id="paint7_linear_500_6675" x1="85.7878" y1="41.0236" x2="85.7878" y2="58.5626" gradientUnits="userSpaceOnUse">
<stop stop-color="white"/>
<stop offset="1" stop-color="#C4C4C4" stop-opacity="0"/>
</linearGradient>
<linearGradient id="paint8_linear_500_6675" x1="32.6058" y1="61.1733" x2="32.6058" y2="73.1733" gradientUnits="userSpaceOnUse">
<stop stop-color="white"/>
<stop offset="1" stop-color="#C4C4C4" stop-opacity="0"/>
</linearGradient>
<linearGradient id="paint9_linear_500_6675" x1="32.7149" y1="26.6377" x2="32.7149" y2="38.6377" gradientUnits="userSpaceOnUse">
<stop stop-color="white"/>
<stop offset="1" stop-color="#C4C4C4" stop-opacity="0"/>
</linearGradient>
<linearGradient id="paint10_linear_500_6675" x1="67.2506" y1="61.1733" x2="67.2506" y2="73.1733" gradientUnits="userSpaceOnUse">
<stop stop-color="white"/>
<stop offset="1" stop-color="#C4C4C4" stop-opacity="0"/>
</linearGradient>
<linearGradient id="paint11_linear_500_6675" x1="25.4853" y1="43.8286" x2="25.4853" y2="55.8286" gradientUnits="userSpaceOnUse">
<stop stop-color="white"/>
<stop offset="1" stop-color="#C4C4C4" stop-opacity="0"/>
</linearGradient>
<linearGradient id="paint12_linear_500_6675" x1="49.9828" y1="19.4854" x2="49.9828" y2="31.4854" gradientUnits="userSpaceOnUse">
<stop stop-color="white"/>
<stop offset="1" stop-color="#C4C4C4" stop-opacity="0"/>
</linearGradient>
<linearGradient id="paint13_linear_500_6675" x1="49.9828" y1="68.3262" x2="49.9828" y2="80.3262" gradientUnits="userSpaceOnUse">
<stop stop-color="white"/>
<stop offset="1" stop-color="#C4C4C4" stop-opacity="0"/>
</linearGradient>
<linearGradient id="paint14_linear_500_6675" x1="74.4803" y1="43.8286" x2="74.4803" y2="55.8286" gradientUnits="userSpaceOnUse">
<stop stop-color="white"/>
<stop offset="1" stop-color="#C4C4C4" stop-opacity="0"/>
</linearGradient>
<linearGradient id="paint15_linear_500_6675" x1="67.2505" y1="26.5289" x2="67.2505" y2="38.5289" gradientUnits="userSpaceOnUse">
<stop stop-color="white"/>
<stop offset="1" stop-color="#C4C4C4" stop-opacity="0"/>
</linearGradient>
<linearGradient id="paint16_linear_500_6675" x1="37.7871" y1="57.8137" x2="37.7871" y2="66.2357" gradientUnits="userSpaceOnUse">
<stop stop-color="white"/>
<stop offset="1" stop-color="#C4C4C4" stop-opacity="0"/>
</linearGradient>
<linearGradient id="paint17_linear_500_6675" x1="37.8636" y1="33.5754" x2="37.8636" y2="41.9974" gradientUnits="userSpaceOnUse">
<stop stop-color="white"/>
<stop offset="1" stop-color="#C4C4C4" stop-opacity="0"/>
</linearGradient>
<linearGradient id="paint18_linear_500_6675" x1="62.1019" y1="57.8137" x2="62.1019" y2="66.2357" gradientUnits="userSpaceOnUse">
<stop stop-color="white"/>
<stop offset="1" stop-color="#C4C4C4" stop-opacity="0"/>
</linearGradient>
<linearGradient id="paint19_linear_500_6675" x1="32.7896" y1="45.6406" x2="32.7896" y2="54.0626" gradientUnits="userSpaceOnUse">
<stop stop-color="white"/>
<stop offset="1" stop-color="#C4C4C4" stop-opacity="0"/>
</linearGradient>
<linearGradient id="paint20_linear_500_6675" x1="49.9828" y1="28.5557" x2="49.9828" y2="36.9777" gradientUnits="userSpaceOnUse">
<stop stop-color="white"/>
<stop offset="1" stop-color="#C4C4C4" stop-opacity="0"/>
</linearGradient>
<linearGradient id="paint21_linear_500_6675" x1="49.9828" y1="62.8338" x2="49.9828" y2="71.2558" gradientUnits="userSpaceOnUse">
<stop stop-color="white"/>
<stop offset="1" stop-color="#C4C4C4" stop-opacity="0"/>
</linearGradient>
<linearGradient id="paint22_linear_500_6675" x1="67.1759" y1="45.6406" x2="67.1759" y2="54.0626" gradientUnits="userSpaceOnUse">
<stop stop-color="white"/>
<stop offset="1" stop-color="#C4C4C4" stop-opacity="0"/>
</linearGradient>
<linearGradient id="paint23_linear_500_6675" x1="62.1019" y1="33.499" x2="62.1019" y2="41.921" gradientUnits="userSpaceOnUse">
<stop stop-color="white"/>
<stop offset="1" stop-color="#C4C4C4" stop-opacity="0"/>
</linearGradient>
</defs>
</svg>
