<svg width="100" height="100" viewBox="0 0 100 100" fill="none" xmlns="http://www.w3.org/2000/svg">
<circle cx="32" cy="32" r="28" transform="matrix(-1 0 0 1 82 18)" stroke="url(#paint0_linear_500_6323)" stroke-width="8"/>
<g filter="url(#filter0_i_500_6323)">
<path d="M18 50C18 45.7977 18.8277 41.6365 20.4359 37.7541C22.044 33.8717 24.4011 30.3441 27.3726 27.3726C30.3441 24.4011 33.8717 22.044 37.7541 20.4359C41.6366 18.8277 45.7977 18 50 18C54.2023 18 58.3635 18.8277 62.2459 20.4359C66.1283 22.044 69.6559 24.4011 72.6274 27.3726C75.5989 30.3441 77.956 33.8717 79.5641 37.7541C81.1723 41.6366 82 45.7977 82 50L64.08 50C64.08 48.151 63.7158 46.3201 63.0082 44.6118C62.3006 42.9036 61.2635 41.3514 59.9561 40.0439C58.6486 38.7365 57.0964 37.6994 55.3882 36.9918C53.6799 36.2842 51.849 35.92 50 35.92C48.151 35.92 46.3201 36.2842 44.6118 36.9918C42.9036 37.6994 41.3514 38.7365 40.0439 40.0439C38.7365 41.3514 37.6994 42.9036 36.9918 44.6118C36.2842 46.3201 35.92 48.151 35.92 50H18Z" fill="url(#paint1_linear_500_6323)"/>
</g>
<g filter="url(#filter1_i_500_6323)">
<circle cx="50" cy="50" r="16" transform="rotate(-180 50 50)" stroke="url(#paint2_linear_500_6323)" stroke-width="8"/>
</g>
<g filter="url(#filter2_ii_500_6323)">
<path d="M70 50C70 52.6264 69.4827 55.2272 68.4776 57.6537C67.4725 60.0802 65.9993 62.285 64.1421 64.1421C62.285 65.9993 60.0802 67.4725 57.6537 68.4776C55.2272 69.4827 52.6264 70 50 70C47.3736 70 44.7728 69.4827 42.3463 68.4776C39.9198 67.4725 37.715 65.9993 35.8579 64.1421C34.0007 62.285 32.5275 60.0802 31.5224 57.6537C30.5173 55.2272 30 52.6264 30 50L41.2 50C41.2 51.1556 41.4276 52.2999 41.8699 53.3676C42.3121 54.4353 42.9603 55.4054 43.7775 56.2225C44.5946 57.0397 45.5647 57.6879 46.6324 58.1301C47.7001 58.5724 48.8444 58.8 50 58.8C51.1556 58.8 52.2999 58.5724 53.3676 58.1301C54.4353 57.6879 55.4054 57.0397 56.2225 56.2225C57.0397 55.4054 57.6879 54.4353 58.1301 53.3676C58.5724 52.2999 58.8 51.1556 58.8 50H70Z" fill="url(#paint3_linear_500_6323)"/>
</g>
<defs>
<filter id="filter0_i_500_6323" x="18" y="18" width="64" height="36" filterUnits="userSpaceOnUse" color-interpolation-filters="sRGB">
<feFlood flood-opacity="0" result="BackgroundImageFix"/>
<feBlend mode="normal" in="SourceGraphic" in2="BackgroundImageFix" result="shape"/>
<feColorMatrix in="SourceAlpha" type="matrix" values="0 0 0 0 0 0 0 0 0 0 0 0 0 0 0 0 0 0 127 0" result="hardAlpha"/>
<feOffset dy="4"/>
<feGaussianBlur stdDeviation="2.5"/>
<feComposite in2="hardAlpha" operator="arithmetic" k2="-1" k3="1"/>
<feColorMatrix type="matrix" values="0 0 0 0 1 0 0 0 0 1 0 0 0 0 1 0 0 0 0.25 0"/>
<feBlend mode="normal" in2="shape" result="effect1_innerShadow_500_6323"/>
</filter>
<filter id="filter1_i_500_6323" x="30" y="30" width="40" height="44" filterUnits="userSpaceOnUse" color-interpolation-filters="sRGB">
<feFlood flood-opacity="0" result="BackgroundImageFix"/>
<feBlend mode="normal" in="SourceGraphic" in2="BackgroundImageFix" result="shape"/>
<feColorMatrix in="SourceAlpha" type="matrix" values="0 0 0 0 0 0 0 0 0 0 0 0 0 0 0 0 0 0 127 0" result="hardAlpha"/>
<feOffset dy="4"/>
<feGaussianBlur stdDeviation="2"/>
<feComposite in2="hardAlpha" operator="arithmetic" k2="-1" k3="1"/>
<feColorMatrix type="matrix" values="0 0 0 0 0 0 0 0 0 0 0 0 0 0 0 0 0 0 0.25 0"/>
<feBlend mode="normal" in2="shape" result="effect1_innerShadow_500_6323"/>
</filter>
<filter id="filter2_ii_500_6323" x="30" y="46" width="40" height="28" filterUnits="userSpaceOnUse" color-interpolation-filters="sRGB">
<feFlood flood-opacity="0" result="BackgroundImageFix"/>
<feBlend mode="normal" in="SourceGraphic" in2="BackgroundImageFix" result="shape"/>
<feColorMatrix in="SourceAlpha" type="matrix" values="0 0 0 0 0 0 0 0 0 0 0 0 0 0 0 0 0 0 127 0" result="hardAlpha"/>
<feOffset dy="-4"/>
<feGaussianBlur stdDeviation="3"/>
<feComposite in2="hardAlpha" operator="arithmetic" k2="-1" k3="1"/>
<feColorMatrix type="matrix" values="0 0 0 0 1 0 0 0 0 1 0 0 0 0 1 0 0 0 0.25 0"/>
<feBlend mode="normal" in2="shape" result="effect1_innerShadow_500_6323"/>
<feColorMatrix in="SourceAlpha" type="matrix" values="0 0 0 0 0 0 0 0 0 0 0 0 0 0 0 0 0 0 127 0" result="hardAlpha"/>
<feOffset dy="4"/>
<feGaussianBlur stdDeviation="3"/>
<feComposite in2="hardAlpha" operator="arithmetic" k2="-1" k3="1"/>
<feColorMatrix type="matrix" values="0 0 0 0 0 0 0 0 0 0 0 0 0 0 0 0 0 0 0.2 0"/>
<feBlend mode="normal" in2="effect1_innerShadow_500_6323" result="effect2_innerShadow_500_6323"/>
</filter>
<linearGradient id="paint0_linear_500_6323" x1="-10" y1="32" x2="69.5" y2="64" gradientUnits="userSpaceOnUse">
<stop stop-color="white"/>
<stop offset="1" stop-color="#0E0E0E"/>
</linearGradient>
<linearGradient id="paint1_linear_500_6323" x1="30" y1="22" x2="88" y2="62.5" gradientUnits="userSpaceOnUse">
<stop stop-color="white"/>
<stop offset="1" stop-color="#1B1B1B"/>
</linearGradient>
<linearGradient id="paint2_linear_500_6323" x1="30" y1="51" x2="72.5" y2="65.5" gradientUnits="userSpaceOnUse">
<stop stop-color="white"/>
<stop offset="1" stop-color="#0E0E0E"/>
</linearGradient>
<linearGradient id="paint3_linear_500_6323" x1="32" y1="61.5" x2="64" y2="43.5" gradientUnits="userSpaceOnUse">
<stop stop-color="white"/>
<stop offset="1" stop-color="#313131"/>
</linearGradient>
</defs>
</svg>
