<svg width="100" height="100" viewBox="0 0 100 100" fill="none" xmlns="http://www.w3.org/2000/svg">
<circle cx="50" cy="50" r="31.4286" stroke="url(#paint0_linear_500_5730)" stroke-width="1.14286"/>
<circle cx="50" cy="50" r="20.4286" stroke="url(#paint1_linear_500_5730)" stroke-width="1.14286"/>
<path d="M50 10C50 10 51.6421 29.9169 51.9504 45.3686C60.8458 36.9866 72.669 27.3727 72.669 27.3727C72.669 27.3727 63.0763 39.17 54.7008 48.062C68.5278 48.3994 86 50 86 50C86 50 68.4934 51.6038 54.66 51.939C63.0352 60.8309 72.6274 72.6275 72.6274 72.6275C72.6274 72.6275 60.8403 63.043 51.9497 54.6701C51.6394 70.1163 50 90 50 90C50 90 48.3633 70.1493 48.0511 54.7086C39.1652 63.0724 27.4142 72.6275 27.4142 72.6275C27.4142 72.6275 37.0057 60.8318 45.3808 51.94C31.541 51.6069 14 50 14 50C14 50 31.5065 48.3962 45.3399 48.061C36.9647 39.1691 27.3726 27.3727 27.3726 27.3727C27.3726 27.3727 39.1597 36.9571 48.0503 45.33C48.3606 29.8838 50 10 50 10Z" fill="url(#paint2_linear_500_5730)"/>
<defs>
<linearGradient id="paint0_linear_500_5730" x1="38" y1="18" x2="75.5" y2="86" gradientUnits="userSpaceOnUse">
<stop stop-color="white"/>
<stop offset="1" stop-color="white" stop-opacity="0"/>
</linearGradient>
<linearGradient id="paint1_linear_500_5730" x1="42.125" y1="29" x2="66.7344" y2="73.625" gradientUnits="userSpaceOnUse">
<stop stop-color="white"/>
<stop offset="1" stop-color="white" stop-opacity="0"/>
</linearGradient>
<linearGradient id="paint2_linear_500_5730" x1="33" y1="25.5" x2="75.5" y2="71" gradientUnits="userSpaceOnUse">
<stop stop-color="white"/>
<stop offset="1" stop-color="#3A3A3A" stop-opacity="0.53"/>
</linearGradient>
</defs>
</svg>
