<svg width="100" height="100" viewBox="0 0 100 100" fill="none" xmlns="http://www.w3.org/2000/svg">
<path d="M64.7458 20.2394C73.0382 20.2394 79.7606 26.9618 79.7606 35.2542C79.7606 43.5467 73.0382 50.2691 64.7458 50.2691H49.7309V35.2542C49.7309 26.9618 56.4533 20.2394 64.7458 20.2394Z" stroke="url(#paint0_linear_500_6638)" stroke-width="0.478748"/>
<path d="M63.2203 23.3559C70.6341 23.3559 76.6441 29.3659 76.6441 36.7797C76.6441 44.1934 70.6341 50.2034 63.2203 50.2034H49.7966V36.7797C49.7966 29.3659 55.8066 23.3559 63.2203 23.3559Z" stroke="url(#paint1_linear_500_6638)" stroke-width="0.610169"/>
<path d="M61.6949 26.4068C68.2662 26.4068 73.5932 31.7338 73.5932 38.3051C73.5932 44.8763 68.2662 50.2034 61.6949 50.2034H49.7966V38.3051C49.7966 31.7338 55.1237 26.4068 61.6949 26.4068Z" stroke="url(#paint2_linear_500_6638)" stroke-width="0.610169"/>
<path d="M60.1695 29.4576C65.8983 29.4576 70.5424 34.1017 70.5424 39.8305C70.5424 45.5593 65.8983 50.2034 60.1695 50.2034H49.7966V39.8305C49.7966 34.1017 54.4407 29.4576 60.1695 29.4576Z" stroke="url(#paint3_linear_500_6638)" stroke-width="0.610169"/>
<path d="M58.6441 32.5085C63.5304 32.5085 67.4915 36.4696 67.4915 41.3559C67.4915 46.2422 63.5304 50.2034 58.6441 50.2034H49.7966V41.3559C49.7966 36.4696 53.7578 32.5085 58.6441 32.5085Z" stroke="url(#paint4_linear_500_6638)" stroke-width="0.610169"/>
<path d="M57.1186 35.5593C61.1625 35.5593 64.4407 38.8375 64.4407 42.8813C64.4407 46.9252 61.1625 50.2034 57.1186 50.2034H49.7966V42.8813C49.7966 38.8375 53.0748 35.5593 57.1186 35.5593Z" stroke="url(#paint5_linear_500_6638)" stroke-width="0.610169"/>
<path d="M55.5932 38.6101C58.7946 38.6101 61.3898 41.2054 61.3898 44.4067C61.3898 47.6081 58.7946 50.2034 55.5932 50.2034H49.7966V44.4067C49.7966 41.2054 52.3918 38.6101 55.5932 38.6101Z" stroke="url(#paint6_linear_500_6638)" stroke-width="0.610169"/>
<path d="M64.7458 79.7611C73.0382 79.7611 79.7606 73.0387 79.7606 64.7463C79.7606 56.4538 73.0382 49.7314 64.7458 49.7314H49.7309V64.7463C49.7309 73.0387 56.4533 79.7611 64.7458 79.7611Z" stroke="url(#paint7_linear_500_6638)" stroke-width="0.478748"/>
<path d="M63.2204 76.6446C70.6341 76.6446 76.6441 70.6346 76.6441 63.2208C76.6441 55.8071 70.6341 49.7971 63.2204 49.7971H49.7966V63.2208C49.7966 70.6346 55.8066 76.6446 63.2204 76.6446Z" stroke="url(#paint8_linear_500_6638)" stroke-width="0.610169"/>
<path d="M61.6949 73.5937C68.2662 73.5937 73.5932 68.2667 73.5932 61.6954C73.5932 55.1242 68.2662 49.7971 61.6949 49.7971H49.7966V61.6954C49.7966 68.2667 55.1237 73.5937 61.6949 73.5937Z" stroke="url(#paint9_linear_500_6638)" stroke-width="0.610169"/>
<path d="M60.1695 70.5429C65.8983 70.5429 70.5424 65.8988 70.5424 60.17C70.5424 54.4412 65.8983 49.7971 60.1695 49.7971H49.7966V60.17C49.7966 65.8988 54.4407 70.5429 60.1695 70.5429Z" stroke="url(#paint10_linear_500_6638)" stroke-width="0.610169"/>
<path d="M58.6441 67.492C63.5304 67.492 67.4915 63.5309 67.4915 58.6446C67.4915 53.7583 63.5304 49.7971 58.6441 49.7971H49.7966V58.6446C49.7966 63.5309 53.7578 67.492 58.6441 67.492Z" stroke="url(#paint11_linear_500_6638)" stroke-width="0.610169"/>
<path d="M57.1187 64.4412C61.1625 64.4412 64.4407 61.163 64.4407 57.1192C64.4407 53.0753 61.1625 49.7971 57.1187 49.7971H49.7966V57.1192C49.7966 61.163 53.0748 64.4412 57.1187 64.4412Z" stroke="url(#paint12_linear_500_6638)" stroke-width="0.610169"/>
<path d="M55.5932 61.3903C58.7946 61.3903 61.3898 58.7951 61.3898 55.5937C61.3898 52.3924 58.7946 49.7971 55.5932 49.7971H49.7966V55.5937C49.7966 58.7951 52.3919 61.3903 55.5932 61.3903Z" stroke="url(#paint13_linear_500_6638)" stroke-width="0.610169"/>
<path d="M35.2542 20.2394C26.9618 20.2394 20.2394 26.9618 20.2394 35.2542C20.2394 43.5467 26.9618 50.2691 35.2542 50.2691H50.2691V35.2542C50.2691 26.9618 43.5467 20.2394 35.2542 20.2394Z" stroke="url(#paint14_linear_500_6638)" stroke-width="0.478748"/>
<path d="M36.7797 23.3559C29.3659 23.3559 23.3559 29.3659 23.3559 36.7797C23.3559 44.1934 29.3659 50.2034 36.7797 50.2034H50.2034V36.7797C50.2034 29.3659 44.1934 23.3559 36.7797 23.3559Z" stroke="url(#paint15_linear_500_6638)" stroke-width="0.610169"/>
<path d="M38.3051 26.4068C31.7338 26.4068 26.4068 31.7338 26.4068 38.3051C26.4068 44.8763 31.7338 50.2034 38.3051 50.2034H50.2034V38.3051C50.2034 31.7338 44.8763 26.4068 38.3051 26.4068Z" stroke="url(#paint16_linear_500_6638)" stroke-width="0.610169"/>
<path d="M39.8305 29.4576C34.1017 29.4576 29.4576 34.1017 29.4576 39.8305C29.4576 45.5593 34.1017 50.2034 39.8305 50.2034H50.2034V39.8305C50.2034 34.1017 45.5593 29.4576 39.8305 29.4576Z" stroke="url(#paint17_linear_500_6638)" stroke-width="0.610169"/>
<path d="M41.3559 32.5085C36.4696 32.5085 32.5085 36.4696 32.5085 41.3559C32.5085 46.2422 36.4696 50.2034 41.3559 50.2034H50.2034V41.3559C50.2034 36.4696 46.2422 32.5085 41.3559 32.5085Z" stroke="url(#paint18_linear_500_6638)" stroke-width="0.610169"/>
<path d="M42.8814 35.5593C38.8375 35.5593 35.5593 38.8375 35.5593 42.8813C35.5593 46.9252 38.8375 50.2034 42.8814 50.2034H50.2034V42.8813C50.2034 38.8375 46.9252 35.5593 42.8814 35.5593Z" stroke="url(#paint19_linear_500_6638)" stroke-width="0.610169"/>
<path d="M44.4068 38.6101C41.2054 38.6101 38.6102 41.2054 38.6102 44.4067C38.6102 47.6081 41.2054 50.2034 44.4068 50.2034H50.2034V44.4067C50.2034 41.2054 47.6082 38.6101 44.4068 38.6101Z" stroke="url(#paint20_linear_500_6638)" stroke-width="0.610169"/>
<path d="M35.2542 79.7611C26.9618 79.7611 20.2394 73.0387 20.2394 64.7463C20.2394 56.4538 26.9618 49.7314 35.2542 49.7314H50.2691V64.7463C50.2691 73.0387 43.5467 79.7611 35.2542 79.7611Z" stroke="url(#paint21_linear_500_6638)" stroke-width="0.478748"/>
<path d="M36.7796 76.6446C29.3659 76.6446 23.3559 70.6346 23.3559 63.2208C23.3559 55.8071 29.3659 49.7971 36.7796 49.7971H50.2034V63.2208C50.2034 70.6346 44.1934 76.6446 36.7796 76.6446Z" stroke="url(#paint22_linear_500_6638)" stroke-width="0.610169"/>
<path d="M38.3051 73.5937C31.7338 73.5937 26.4068 68.2667 26.4068 61.6954C26.4068 55.1242 31.7338 49.7971 38.3051 49.7971H50.2034V61.6954C50.2034 68.2667 44.8763 73.5937 38.3051 73.5937Z" stroke="url(#paint23_linear_500_6638)" stroke-width="0.610169"/>
<path d="M39.8305 70.5429C34.1017 70.5429 29.4576 65.8988 29.4576 60.17C29.4576 54.4412 34.1017 49.7971 39.8305 49.7971H50.2034V60.17C50.2034 65.8988 45.5593 70.5429 39.8305 70.5429Z" stroke="url(#paint24_linear_500_6638)" stroke-width="0.610169"/>
<path d="M41.3559 67.492C36.4696 67.492 32.5085 63.5309 32.5085 58.6446C32.5085 53.7583 36.4696 49.7971 41.3559 49.7971H50.2034V58.6446C50.2034 63.5309 46.2422 67.492 41.3559 67.492Z" stroke="url(#paint25_linear_500_6638)" stroke-width="0.610169"/>
<path d="M42.8813 64.4412C38.8375 64.4412 35.5593 61.163 35.5593 57.1192C35.5593 53.0753 38.8375 49.7971 42.8813 49.7971H50.2034V57.1192C50.2034 61.163 46.9252 64.4412 42.8813 64.4412Z" stroke="url(#paint26_linear_500_6638)" stroke-width="0.610169"/>
<path d="M44.4068 61.3903C41.2054 61.3903 38.6102 58.7951 38.6102 55.5937C38.6102 52.3924 41.2054 49.7971 44.4068 49.7971H50.2034V55.5937C50.2034 58.7951 47.6081 61.3903 44.4068 61.3903Z" stroke="url(#paint27_linear_500_6638)" stroke-width="0.610169"/>
<defs>
<linearGradient id="paint0_linear_500_6638" x1="71.8962" y1="21.9068" x2="49.4915" y2="53.3686" gradientUnits="userSpaceOnUse">
<stop stop-color="white"/>
<stop offset="1" stop-color="#3E3E3E"/>
</linearGradient>
<linearGradient id="paint1_linear_500_6638" x1="69.6557" y1="24.7669" x2="49.4915" y2="53.0826" gradientUnits="userSpaceOnUse">
<stop stop-color="white"/>
<stop offset="1" stop-color="#3E3E3E"/>
</linearGradient>
<linearGradient id="paint2_linear_500_6638" x1="67.4153" y1="27.6271" x2="49.4915" y2="52.7966" gradientUnits="userSpaceOnUse">
<stop stop-color="white"/>
<stop offset="1" stop-color="#3E3E3E"/>
</linearGradient>
<linearGradient id="paint3_linear_500_6638" x1="65.1748" y1="30.4873" x2="49.4915" y2="52.5106" gradientUnits="userSpaceOnUse">
<stop stop-color="white"/>
<stop offset="1" stop-color="#3E3E3E"/>
</linearGradient>
<linearGradient id="paint4_linear_500_6638" x1="62.9343" y1="33.3474" x2="49.4915" y2="52.2246" gradientUnits="userSpaceOnUse">
<stop stop-color="white"/>
<stop offset="1" stop-color="#3E3E3E"/>
</linearGradient>
<linearGradient id="paint5_linear_500_6638" x1="60.6939" y1="36.2076" x2="49.4915" y2="51.9385" gradientUnits="userSpaceOnUse">
<stop stop-color="white"/>
<stop offset="1" stop-color="#3E3E3E"/>
</linearGradient>
<linearGradient id="paint6_linear_500_6638" x1="58.4534" y1="39.0678" x2="49.4915" y2="51.6525" gradientUnits="userSpaceOnUse">
<stop stop-color="white"/>
<stop offset="1" stop-color="#3E3E3E"/>
</linearGradient>
<linearGradient id="paint7_linear_500_6638" x1="71.8962" y1="78.0937" x2="49.4915" y2="46.6318" gradientUnits="userSpaceOnUse">
<stop stop-color="white"/>
<stop offset="1" stop-color="#3E3E3E"/>
</linearGradient>
<linearGradient id="paint8_linear_500_6638" x1="69.6557" y1="75.2335" x2="49.4915" y2="46.9179" gradientUnits="userSpaceOnUse">
<stop stop-color="white"/>
<stop offset="1" stop-color="#3E3E3E"/>
</linearGradient>
<linearGradient id="paint9_linear_500_6638" x1="67.4153" y1="72.3734" x2="49.4915" y2="47.2039" gradientUnits="userSpaceOnUse">
<stop stop-color="white"/>
<stop offset="1" stop-color="#3E3E3E"/>
</linearGradient>
<linearGradient id="paint10_linear_500_6638" x1="65.1748" y1="69.5132" x2="49.4915" y2="47.4899" gradientUnits="userSpaceOnUse">
<stop stop-color="white"/>
<stop offset="1" stop-color="#3E3E3E"/>
</linearGradient>
<linearGradient id="paint11_linear_500_6638" x1="62.9343" y1="66.6531" x2="49.4915" y2="47.7759" gradientUnits="userSpaceOnUse">
<stop stop-color="white"/>
<stop offset="1" stop-color="#3E3E3E"/>
</linearGradient>
<linearGradient id="paint12_linear_500_6638" x1="60.6939" y1="63.7929" x2="49.4915" y2="48.062" gradientUnits="userSpaceOnUse">
<stop stop-color="white"/>
<stop offset="1" stop-color="#3E3E3E"/>
</linearGradient>
<linearGradient id="paint13_linear_500_6638" x1="58.4534" y1="60.9327" x2="49.4915" y2="48.348" gradientUnits="userSpaceOnUse">
<stop stop-color="white"/>
<stop offset="1" stop-color="#3E3E3E"/>
</linearGradient>
<linearGradient id="paint14_linear_500_6638" x1="28.1038" y1="21.9068" x2="50.5085" y2="53.3686" gradientUnits="userSpaceOnUse">
<stop stop-color="white"/>
<stop offset="1" stop-color="#3E3E3E"/>
</linearGradient>
<linearGradient id="paint15_linear_500_6638" x1="30.3443" y1="24.7669" x2="50.5085" y2="53.0826" gradientUnits="userSpaceOnUse">
<stop stop-color="white"/>
<stop offset="1" stop-color="#3E3E3E"/>
</linearGradient>
<linearGradient id="paint16_linear_500_6638" x1="32.5847" y1="27.6271" x2="50.5085" y2="52.7966" gradientUnits="userSpaceOnUse">
<stop stop-color="white"/>
<stop offset="1" stop-color="#3E3E3E"/>
</linearGradient>
<linearGradient id="paint17_linear_500_6638" x1="34.8252" y1="30.4873" x2="50.5085" y2="52.5106" gradientUnits="userSpaceOnUse">
<stop stop-color="white"/>
<stop offset="1" stop-color="#3E3E3E"/>
</linearGradient>
<linearGradient id="paint18_linear_500_6638" x1="37.0657" y1="33.3474" x2="50.5085" y2="52.2246" gradientUnits="userSpaceOnUse">
<stop stop-color="white"/>
<stop offset="1" stop-color="#3E3E3E"/>
</linearGradient>
<linearGradient id="paint19_linear_500_6638" x1="39.3061" y1="36.2076" x2="50.5085" y2="51.9385" gradientUnits="userSpaceOnUse">
<stop stop-color="white"/>
<stop offset="1" stop-color="#3E3E3E"/>
</linearGradient>
<linearGradient id="paint20_linear_500_6638" x1="41.5466" y1="39.0678" x2="50.5085" y2="51.6525" gradientUnits="userSpaceOnUse">
<stop stop-color="white"/>
<stop offset="1" stop-color="#3E3E3E"/>
</linearGradient>
<linearGradient id="paint21_linear_500_6638" x1="28.1038" y1="78.0937" x2="50.5085" y2="46.6318" gradientUnits="userSpaceOnUse">
<stop stop-color="white"/>
<stop offset="1" stop-color="#3E3E3E"/>
</linearGradient>
<linearGradient id="paint22_linear_500_6638" x1="30.3443" y1="75.2335" x2="50.5085" y2="46.9179" gradientUnits="userSpaceOnUse">
<stop stop-color="white"/>
<stop offset="1" stop-color="#3E3E3E"/>
</linearGradient>
<linearGradient id="paint23_linear_500_6638" x1="32.5847" y1="72.3734" x2="50.5085" y2="47.2039" gradientUnits="userSpaceOnUse">
<stop stop-color="white"/>
<stop offset="1" stop-color="#3E3E3E"/>
</linearGradient>
<linearGradient id="paint24_linear_500_6638" x1="34.8252" y1="69.5132" x2="50.5085" y2="47.4899" gradientUnits="userSpaceOnUse">
<stop stop-color="white"/>
<stop offset="1" stop-color="#3E3E3E"/>
</linearGradient>
<linearGradient id="paint25_linear_500_6638" x1="37.0657" y1="66.6531" x2="50.5085" y2="47.7759" gradientUnits="userSpaceOnUse">
<stop stop-color="white"/>
<stop offset="1" stop-color="#3E3E3E"/>
</linearGradient>
<linearGradient id="paint26_linear_500_6638" x1="39.3061" y1="63.7929" x2="50.5085" y2="48.062" gradientUnits="userSpaceOnUse">
<stop stop-color="white"/>
<stop offset="1" stop-color="#3E3E3E"/>
</linearGradient>
<linearGradient id="paint27_linear_500_6638" x1="41.5466" y1="60.9327" x2="50.5085" y2="48.348" gradientUnits="userSpaceOnUse">
<stop stop-color="white"/>
<stop offset="1" stop-color="#3E3E3E"/>
</linearGradient>
</defs>
</svg>
