<svg width="100" height="100" viewBox="0 0 100 100" fill="none" xmlns="http://www.w3.org/2000/svg">
<path fill-rule="evenodd" clip-rule="evenodd" d="M10 17.8873H10.3444C10.1203 18.6014 10 19.3578 10 20.1408H10.3444C10.1203 20.8549 10 21.6113 10 22.3944H10.3444C10.1203 23.1084 10 23.8648 10 24.6479H10.3444C10.1203 25.3619 10 26.1183 10 26.9014H10.3444C10.1203 27.6154 10 28.3719 10 29.1549H10.3444C10.1203 29.869 10 30.6254 10 31.4085H10.3444C10.1203 32.1225 10 32.8789 10 33.662H10.3444C10.1203 34.376 10 35.1324 10 35.9155H10.3444C10.1203 36.6295 10 37.3859 10 38.169H10.3444C10.1203 38.8831 10 39.6395 10 40.4225H10.3444C10.1203 41.1366 10 41.893 10 42.6761H10.3444C10.1203 43.3901 10 44.1465 10 44.9296H10.3444C10.1203 45.6436 10 46.4 10 47.1831H10.3444C10.1203 47.8971 10 48.6536 10 49.4366H10.3444C10.1203 50.1507 10 50.9071 10 51.6901H10.3444C10.1203 52.4042 10 53.1606 10 53.9437H10.3444C10.1203 54.6577 10 55.4141 10 56.1972H10.3444C10.1203 56.9112 10 57.6676 10 58.4507H10.3444C10.1203 59.1647 10 59.9212 10 60.7042H10.3444C10.1203 61.4183 10 62.1747 10 62.9577H10.3444C10.1203 63.6718 10 64.4282 10 65.2113H10.3444C10.1203 65.9253 10 66.6817 10 67.4648H10.3444C10.1203 68.1788 10 68.9352 10 69.7183H10.3444C10.1203 70.4324 10 71.1888 10 71.9718H10.3444C10.1203 72.6859 10 73.4423 10 74.2254H10.3444C10.1203 74.9394 10 75.6958 10 76.4789H10.3444C10.1203 77.1929 10 77.9493 10 78.7324H10.3444C10.1203 79.4464 10 80.2029 10 80.9859H10.3444C10.1203 81.7 10 82.4564 10 83.2394H10.3444C10.1203 83.9535 10 84.7099 10 85.493H10.3444C10.1203 86.207 10 86.9634 10 87.7465H10.3444C10.1203 88.4605 10 89.2169 10 90H10.7921C10.7921 86.0588 14.161 82.8639 18.3168 82.8639C22.4726 82.8639 25.8416 86.0588 25.8416 90H26.6337C26.6337 86.0588 30.0026 82.8639 34.1584 82.8639C38.3142 82.8639 41.6832 86.0588 41.6832 90H42.4752C42.4752 86.0588 45.8442 82.8639 50 82.8639C54.1558 82.8639 57.5248 86.0588 57.5248 90H58.3168C58.3168 86.0588 61.6858 82.8639 65.8416 82.8639C69.9974 82.8639 73.3663 86.0588 73.3663 90H74.1584C74.1584 86.0588 77.5274 82.8639 81.6832 82.8639C85.839 82.8639 89.2079 86.0588 89.2079 90H90C90 89.2169 89.8797 88.4605 89.6556 87.7465H90C90 86.9634 89.8797 86.207 89.6556 85.493H90C90 84.7099 89.8797 83.9535 89.6556 83.2394H90C90 82.4564 89.8797 81.7 89.6556 80.9859H90C90 80.2029 89.8797 79.4464 89.6556 78.7324H90C90 77.9493 89.8797 77.1929 89.6556 76.4789H90C90 75.6958 89.8797 74.9394 89.6556 74.2254H90C90 73.4423 89.8797 72.6859 89.6556 71.9718H90C90 71.1888 89.8797 70.4324 89.6556 69.7183H90C90 68.9352 89.8797 68.1788 89.6556 67.4648H90C90 66.6817 89.8797 65.9253 89.6556 65.2113H90C90 64.4282 89.8797 63.6718 89.6556 62.9577H90C90 62.1747 89.8797 61.4183 89.6556 60.7042H90C90 59.9212 89.8797 59.1647 89.6556 58.4507H90C90 57.6676 89.8797 56.9112 89.6556 56.1972H90C90 55.4141 89.8797 54.6577 89.6556 53.9437H90C90 53.1606 89.8797 52.4042 89.6556 51.6901H90C90 50.9071 89.8797 50.1507 89.6556 49.4366H90C90 48.6536 89.8797 47.8971 89.6556 47.1831H90C90 46.4 89.8797 45.6436 89.6556 44.9296H90C90 44.1465 89.8797 43.3901 89.6556 42.6761H90C90 41.893 89.8797 41.1366 89.6556 40.4225H90C90 39.6395 89.8797 38.8831 89.6556 38.169H90C90 37.3859 89.8797 36.6295 89.6556 35.9155H90C90 35.1324 89.8797 34.376 89.6556 33.662H90C90 32.8789 89.8797 32.1225 89.6556 31.4085H90C90 30.6254 89.8797 29.869 89.6556 29.1549H90C90 28.3719 89.8797 27.6154 89.6556 26.9014H90C90 26.1183 89.8797 25.3619 89.6556 24.6479H90C90 23.8648 89.8797 23.1084 89.6556 22.3944H90C90 21.6113 89.8797 20.8549 89.6556 20.1408H90C90 19.3578 89.8797 18.6014 89.6556 17.8873H90C90 13.5313 86.2764 10 81.6832 10C77.9769 10 74.8369 12.2991 73.7624 15.4754C72.6878 12.2991 69.5478 10 65.8416 10C62.1353 10 58.9953 12.2991 57.9208 15.4754C56.8462 12.2991 53.7062 10 50 10C46.2938 10 43.1538 12.2991 42.0792 15.4754C41.0047 12.2991 37.8646 10 34.1584 10C30.4522 10 27.3122 12.2991 26.2376 15.4754C25.1631 12.2991 22.0231 10 18.3168 10C13.7236 10 10 13.5313 10 17.8873ZM18.3168 10.7512C14.6583 10.7512 11.6096 13.2272 10.9324 16.5087C12.3179 13.9805 15.1047 12.2535 18.3168 12.2535C21.529 12.2535 24.3158 13.9805 25.7013 16.5087C25.024 13.2272 21.9753 10.7512 18.3168 10.7512ZM89.0676 86.3679C88.3904 83.0864 85.3417 80.6103 81.6832 80.6103C78.0247 80.6103 74.976 83.0864 74.2987 86.3679C75.6842 83.8396 78.471 82.1127 81.6832 82.1127C84.8953 82.1127 87.6821 83.8396 89.0676 86.3679ZM65.8416 82.1127C62.6295 82.1127 59.8426 83.8396 58.4571 86.3679C59.1344 83.0864 62.1831 80.6103 65.8416 80.6103C69.5001 80.6103 72.5488 83.0864 73.226 86.3679C71.8405 83.8396 69.0537 82.1127 65.8416 82.1127ZM57.3845 86.3679C56.7072 83.0864 53.6585 80.6103 50 80.6103C46.3415 80.6103 43.2928 83.0864 42.6155 86.3679C44.001 83.8396 46.7879 82.1127 50 82.1127C53.2121 82.1127 55.999 83.8396 57.3845 86.3679ZM34.1584 82.1127C30.9463 82.1127 28.1595 83.8396 26.774 86.3679C27.4512 83.0864 30.4999 80.6103 34.1584 80.6103C37.8169 80.6103 40.8656 83.0864 41.5429 86.3679C40.1574 83.8396 37.3705 82.1127 34.1584 82.1127ZM25.7013 86.3679C25.024 83.0864 21.9753 80.6103 18.3168 80.6103C14.6583 80.6103 11.6096 83.0864 10.9324 86.3679C12.3179 83.8396 15.1047 82.1127 18.3168 82.1127C21.529 82.1127 24.3158 83.8396 25.7013 86.3679ZM81.6832 79.8592C78.471 79.8592 75.6842 81.5861 74.2987 84.1144C74.976 80.8329 78.0247 78.3568 81.6832 78.3568C85.3417 78.3568 88.3904 80.8329 89.0676 84.1144C87.6821 81.5861 84.8953 79.8592 81.6832 79.8592ZM73.226 84.1144C72.5488 80.8329 69.5001 78.3568 65.8416 78.3568C62.1831 78.3568 59.1344 80.8329 58.4571 84.1144C59.8426 81.5861 62.6295 79.8592 65.8416 79.8592C69.0537 79.8592 71.8405 81.5861 73.226 84.1144ZM50 79.8592C46.7879 79.8592 44.001 81.5861 42.6155 84.1144C43.2928 80.8329 46.3415 78.3568 50 78.3568C53.6585 78.3568 56.7072 80.8329 57.3845 84.1144C55.999 81.5861 53.2121 79.8592 50 79.8592ZM41.5429 84.1144C40.8656 80.8329 37.8169 78.3568 34.1584 78.3568C30.4999 78.3568 27.4512 80.8329 26.774 84.1144C28.1595 81.5861 30.9463 79.8592 34.1584 79.8592C37.3705 79.8592 40.1574 81.5861 41.5429 84.1144ZM18.3168 79.8592C15.1047 79.8592 12.3179 81.5861 10.9324 84.1144C11.6096 80.8329 14.6583 78.3568 18.3168 78.3568C21.9753 78.3568 25.024 80.8329 25.7013 84.1144C24.3158 81.5861 21.529 79.8592 18.3168 79.8592ZM89.0676 81.8609C88.3904 78.5794 85.3417 76.1033 81.6832 76.1033C78.0247 76.1033 74.976 78.5794 74.2987 81.8609C75.6842 79.3326 78.471 77.6056 81.6832 77.6056C84.8953 77.6056 87.6821 79.3326 89.0676 81.8609ZM65.8416 77.6056C62.6295 77.6056 59.8426 79.3326 58.4571 81.8609C59.1344 78.5794 62.1831 76.1033 65.8416 76.1033C69.5001 76.1033 72.5488 78.5794 73.226 81.8609C71.8405 79.3326 69.0537 77.6056 65.8416 77.6056ZM57.3845 81.8609C56.7072 78.5794 53.6585 76.1033 50 76.1033C46.3415 76.1033 43.2928 78.5794 42.6155 81.8609C44.001 79.3326 46.7879 77.6056 50 77.6056C53.2121 77.6056 55.999 79.3326 57.3845 81.8609ZM34.1584 77.6056C30.9463 77.6056 28.1595 79.3326 26.774 81.8609C27.4512 78.5794 30.4999 76.1033 34.1584 76.1033C37.8169 76.1033 40.8656 78.5794 41.5429 81.8609C40.1574 79.3326 37.3705 77.6056 34.1584 77.6056ZM25.7013 81.8609C25.024 78.5794 21.9753 76.1033 18.3168 76.1033C14.6583 76.1033 11.6096 78.5794 10.9324 81.8609C12.3179 79.3326 15.1047 77.6056 18.3168 77.6056C21.529 77.6056 24.3158 79.3326 25.7013 81.8609ZM81.6832 75.3521C78.471 75.3521 75.6842 77.0791 74.2987 79.6073C74.976 76.3258 78.0247 73.8498 81.6832 73.8498C85.3417 73.8498 88.3904 76.3258 89.0676 79.6073C87.6821 77.0791 84.8953 75.3521 81.6832 75.3521ZM73.226 79.6073C72.5488 76.3258 69.5001 73.8498 65.8416 73.8498C62.1831 73.8498 59.1344 76.3258 58.4571 79.6073C59.8426 77.0791 62.6295 75.3521 65.8416 75.3521C69.0537 75.3521 71.8405 77.0791 73.226 79.6073ZM50 75.3521C46.7879 75.3521 44.001 77.0791 42.6155 79.6073C43.2928 76.3258 46.3415 73.8498 50 73.8498C53.6585 73.8498 56.7072 76.3258 57.3845 79.6073C55.999 77.0791 53.2121 75.3521 50 75.3521ZM41.5429 79.6073C40.8656 76.3258 37.8169 73.8498 34.1584 73.8498C30.4999 73.8498 27.4512 76.3258 26.774 79.6073C28.1595 77.0791 30.9463 75.3521 34.1584 75.3521C37.3705 75.3521 40.1574 77.0791 41.5429 79.6073ZM18.3168 75.3521C15.1047 75.3521 12.3179 77.0791 10.9324 79.6073C11.6096 76.3258 14.6583 73.8498 18.3168 73.8498C21.9753 73.8498 25.024 76.3258 25.7013 79.6073C24.3158 77.0791 21.529 75.3521 18.3168 75.3521ZM89.0676 77.3538C88.3904 74.0723 85.3417 71.5962 81.6832 71.5962C78.0247 71.5962 74.976 74.0723 74.2987 77.3538C75.6842 74.8255 78.471 73.0986 81.6832 73.0986C84.8953 73.0986 87.6821 74.8255 89.0676 77.3538ZM65.8416 73.0986C62.6295 73.0986 59.8426 74.8255 58.4571 77.3538C59.1344 74.0723 62.1831 71.5962 65.8416 71.5962C69.5001 71.5962 72.5488 74.0723 73.226 77.3538C71.8405 74.8255 69.0537 73.0986 65.8416 73.0986ZM57.3845 77.3538C56.7072 74.0723 53.6585 71.5962 50 71.5962C46.3415 71.5962 43.2928 74.0723 42.6155 77.3538C44.001 74.8255 46.7879 73.0986 50 73.0986C53.2121 73.0986 55.999 74.8255 57.3845 77.3538ZM34.1584 73.0986C30.9463 73.0986 28.1595 74.8255 26.774 77.3538C27.4512 74.0723 30.4999 71.5962 34.1584 71.5962C37.8169 71.5962 40.8656 74.0723 41.5429 77.3538C40.1574 74.8255 37.3705 73.0986 34.1584 73.0986ZM25.7013 77.3538C25.024 74.0723 21.9753 71.5962 18.3168 71.5962C14.6583 71.5962 11.6096 74.0723 10.9324 77.3538C12.3179 74.8255 15.1047 73.0986 18.3168 73.0986C21.529 73.0986 24.3158 74.8255 25.7013 77.3538ZM81.6832 70.8451C78.471 70.8451 75.6842 72.572 74.2987 75.1003C74.976 71.8188 78.0247 69.3427 81.6832 69.3427C85.3417 69.3427 88.3904 71.8188 89.0676 75.1003C87.6821 72.572 84.8953 70.8451 81.6832 70.8451ZM73.226 75.1003C72.5488 71.8188 69.5001 69.3427 65.8416 69.3427C62.1831 69.3427 59.1344 71.8188 58.4571 75.1003C59.8426 72.572 62.6295 70.8451 65.8416 70.8451C69.0537 70.8451 71.8405 72.572 73.226 75.1003ZM50 70.8451C46.7879 70.8451 44.001 72.572 42.6155 75.1003C43.2928 71.8188 46.3415 69.3427 50 69.3427C53.6585 69.3427 56.7072 71.8188 57.3845 75.1003C55.999 72.572 53.2121 70.8451 50 70.8451ZM41.5429 75.1003C40.8656 71.8188 37.8169 69.3427 34.1584 69.3427C30.4999 69.3427 27.4512 71.8188 26.774 75.1003C28.1595 72.572 30.9463 70.8451 34.1584 70.8451C37.3705 70.8451 40.1574 72.572 41.5429 75.1003ZM18.3168 70.8451C15.1047 70.8451 12.3179 72.572 10.9324 75.1003C11.6096 71.8188 14.6583 69.3427 18.3168 69.3427C21.9753 69.3427 25.024 71.8188 25.7013 75.1003C24.3158 72.572 21.529 70.8451 18.3168 70.8451ZM89.0676 72.8468C88.3904 69.5653 85.3417 67.0892 81.6832 67.0892C78.0247 67.0892 74.976 69.5653 74.2987 72.8468C75.6842 70.3185 78.471 68.5916 81.6832 68.5916C84.8953 68.5916 87.6821 70.3185 89.0676 72.8468ZM65.8416 68.5916C62.6295 68.5916 59.8426 70.3185 58.4571 72.8468C59.1344 69.5653 62.1831 67.0892 65.8416 67.0892C69.5001 67.0892 72.5488 69.5653 73.226 72.8468C71.8405 70.3185 69.0537 68.5916 65.8416 68.5916ZM57.3845 72.8468C56.7072 69.5653 53.6585 67.0892 50 67.0892C46.3415 67.0892 43.2928 69.5653 42.6155 72.8468C44.001 70.3185 46.7879 68.5916 50 68.5916C53.2121 68.5916 55.999 70.3185 57.3845 72.8468ZM34.1584 68.5916C30.9463 68.5916 28.1595 70.3185 26.774 72.8468C27.4512 69.5653 30.4999 67.0892 34.1584 67.0892C37.8169 67.0892 40.8656 69.5653 41.5429 72.8468C40.1574 70.3185 37.3705 68.5916 34.1584 68.5916ZM25.7013 72.8468C25.024 69.5653 21.9753 67.0892 18.3168 67.0892C14.6583 67.0892 11.6096 69.5653 10.9324 72.8468C12.3179 70.3185 15.1047 68.5916 18.3168 68.5916C21.529 68.5916 24.3158 70.3185 25.7013 72.8468ZM81.6832 66.338C78.471 66.338 75.6842 68.065 74.2987 70.5932C74.976 67.3118 78.0247 64.8357 81.6832 64.8357C85.3417 64.8357 88.3904 67.3118 89.0676 70.5932C87.6821 68.065 84.8953 66.338 81.6832 66.338ZM73.226 70.5932C72.5488 67.3118 69.5001 64.8357 65.8416 64.8357C62.1831 64.8357 59.1344 67.3118 58.4571 70.5932C59.8426 68.065 62.6295 66.338 65.8416 66.338C69.0537 66.338 71.8405 68.065 73.226 70.5932ZM50 66.338C46.7879 66.338 44.001 68.065 42.6155 70.5932C43.2928 67.3118 46.3415 64.8357 50 64.8357C53.6585 64.8357 56.7072 67.3118 57.3845 70.5932C55.999 68.065 53.2121 66.338 50 66.338ZM41.5429 70.5932C40.8656 67.3118 37.8169 64.8357 34.1584 64.8357C30.4999 64.8357 27.4512 67.3118 26.774 70.5932C28.1595 68.065 30.9463 66.338 34.1584 66.338C37.3705 66.338 40.1574 68.065 41.5429 70.5932ZM18.3168 66.338C15.1047 66.338 12.3179 68.065 10.9324 70.5932C11.6096 67.3118 14.6583 64.8357 18.3168 64.8357C21.9753 64.8357 25.024 67.3118 25.7013 70.5932C24.3158 68.065 21.529 66.338 18.3168 66.338ZM89.0676 68.3397C88.3904 65.0582 85.3417 62.5822 81.6832 62.5822C78.0247 62.5822 74.976 65.0582 74.2987 68.3397C75.6842 65.8115 78.471 64.0845 81.6832 64.0845C84.8953 64.0845 87.6821 65.8115 89.0676 68.3397ZM65.8416 64.0845C62.6295 64.0845 59.8426 65.8115 58.4571 68.3397C59.1344 65.0582 62.1831 62.5822 65.8416 62.5822C69.5001 62.5822 72.5488 65.0582 73.226 68.3397C71.8405 65.8115 69.0537 64.0845 65.8416 64.0845ZM57.3845 68.3397C56.7072 65.0582 53.6585 62.5822 50 62.5822C46.3415 62.5822 43.2928 65.0582 42.6155 68.3397C44.001 65.8115 46.7879 64.0845 50 64.0845C53.2121 64.0845 55.999 65.8115 57.3845 68.3397ZM34.1584 64.0845C30.9463 64.0845 28.1595 65.8115 26.774 68.3397C27.4512 65.0582 30.4999 62.5822 34.1584 62.5822C37.8169 62.5822 40.8656 65.0582 41.5429 68.3397C40.1574 65.8115 37.3705 64.0845 34.1584 64.0845ZM25.7013 68.3397C25.024 65.0582 21.9753 62.5822 18.3168 62.5822C14.6583 62.5822 11.6096 65.0582 10.9324 68.3397C12.3179 65.8115 15.1047 64.0845 18.3168 64.0845C21.529 64.0845 24.3158 65.8115 25.7013 68.3397ZM81.6832 61.831C78.471 61.831 75.6842 63.5579 74.2987 66.0862C74.976 62.8047 78.0247 60.3286 81.6832 60.3286C85.3417 60.3286 88.3904 62.8047 89.0676 66.0862C87.6821 63.5579 84.8953 61.831 81.6832 61.831ZM73.226 66.0862C72.5488 62.8047 69.5001 60.3286 65.8416 60.3286C62.1831 60.3286 59.1344 62.8047 58.4571 66.0862C59.8426 63.5579 62.6295 61.831 65.8416 61.831C69.0537 61.831 71.8405 63.5579 73.226 66.0862ZM50 61.831C46.7879 61.831 44.001 63.5579 42.6155 66.0862C43.2928 62.8047 46.3415 60.3286 50 60.3286C53.6585 60.3286 56.7072 62.8047 57.3845 66.0862C55.999 63.5579 53.2121 61.831 50 61.831ZM41.5429 66.0862C40.8656 62.8047 37.8169 60.3286 34.1584 60.3286C30.4999 60.3286 27.4512 62.8047 26.774 66.0862C28.1595 63.5579 30.9463 61.831 34.1584 61.831C37.3705 61.831 40.1574 63.5579 41.5429 66.0862ZM18.3168 61.831C15.1047 61.831 12.3179 63.5579 10.9324 66.0862C11.6096 62.8047 14.6583 60.3286 18.3168 60.3286C21.9753 60.3286 25.024 62.8047 25.7013 66.0862C24.3158 63.5579 21.529 61.831 18.3168 61.831ZM89.0676 63.8327C88.3904 60.5512 85.3417 58.0751 81.6832 58.0751C78.0247 58.0751 74.976 60.5512 74.2987 63.8327C75.6842 61.3044 78.471 59.5775 81.6832 59.5775C84.8953 59.5775 87.6821 61.3044 89.0676 63.8327ZM65.8416 59.5775C62.6295 59.5775 59.8426 61.3044 58.4571 63.8327C59.1344 60.5512 62.1831 58.0751 65.8416 58.0751C69.5001 58.0751 72.5488 60.5512 73.226 63.8327C71.8405 61.3044 69.0537 59.5775 65.8416 59.5775ZM57.3845 63.8327C56.7072 60.5512 53.6585 58.0751 50 58.0751C46.3415 58.0751 43.2928 60.5512 42.6155 63.8327C44.001 61.3044 46.7879 59.5775 50 59.5775C53.2121 59.5775 55.999 61.3044 57.3845 63.8327ZM34.1584 59.5775C30.9463 59.5775 28.1595 61.3044 26.774 63.8327C27.4512 60.5512 30.4999 58.0751 34.1584 58.0751C37.8169 58.0751 40.8656 60.5512 41.5429 63.8327C40.1574 61.3044 37.3705 59.5775 34.1584 59.5775ZM25.7013 63.8327C25.024 60.5512 21.9753 58.0751 18.3168 58.0751C14.6583 58.0751 11.6096 60.5512 10.9324 63.8327C12.3179 61.3044 15.1047 59.5775 18.3168 59.5775C21.529 59.5775 24.3158 61.3044 25.7013 63.8327ZM81.6832 57.3239C78.471 57.3239 75.6842 59.0509 74.2987 61.5792C74.976 58.2977 78.0247 55.8216 81.6832 55.8216C85.3417 55.8216 88.3904 58.2977 89.0676 61.5792C87.6821 59.0509 84.8953 57.3239 81.6832 57.3239ZM73.226 61.5792C72.5488 58.2977 69.5001 55.8216 65.8416 55.8216C62.1831 55.8216 59.1344 58.2977 58.4571 61.5792C59.8426 59.0509 62.6295 57.3239 65.8416 57.3239C69.0537 57.3239 71.8405 59.0509 73.226 61.5792ZM50 57.3239C46.7879 57.3239 44.001 59.0509 42.6155 61.5792C43.2928 58.2977 46.3415 55.8216 50 55.8216C53.6585 55.8216 56.7072 58.2977 57.3845 61.5792C55.999 59.0509 53.2121 57.3239 50 57.3239ZM41.5429 61.5792C40.8656 58.2977 37.8169 55.8216 34.1584 55.8216C30.4999 55.8216 27.4512 58.2977 26.774 61.5792C28.1595 59.0509 30.9463 57.3239 34.1584 57.3239C37.3705 57.3239 40.1574 59.0509 41.5429 61.5792ZM18.3168 57.3239C15.1047 57.3239 12.3179 59.0509 10.9324 61.5792C11.6096 58.2977 14.6583 55.8216 18.3168 55.8216C21.9753 55.8216 25.024 58.2977 25.7013 61.5792C24.3158 59.0509 21.529 57.3239 18.3168 57.3239ZM89.0676 59.3256C88.3904 56.0442 85.3417 53.5681 81.6832 53.5681C78.0247 53.5681 74.976 56.0442 74.2987 59.3256C75.6842 56.7974 78.471 55.0704 81.6832 55.0704C84.8953 55.0704 87.6821 56.7974 89.0676 59.3256ZM65.8416 55.0704C62.6295 55.0704 59.8426 56.7974 58.4571 59.3256C59.1344 56.0442 62.1831 53.5681 65.8416 53.5681C69.5001 53.5681 72.5488 56.0442 73.226 59.3256C71.8405 56.7974 69.0537 55.0704 65.8416 55.0704ZM57.3845 59.3256C56.7072 56.0442 53.6585 53.5681 50 53.5681C46.3415 53.5681 43.2928 56.0442 42.6155 59.3256C44.001 56.7974 46.7879 55.0704 50 55.0704C53.2121 55.0704 55.999 56.7974 57.3845 59.3256ZM34.1584 55.0704C30.9463 55.0704 28.1595 56.7974 26.774 59.3256C27.4512 56.0442 30.4999 53.5681 34.1584 53.5681C37.8169 53.5681 40.8656 56.0442 41.5429 59.3256C40.1574 56.7974 37.3705 55.0704 34.1584 55.0704ZM25.7013 59.3256C25.024 56.0442 21.9753 53.5681 18.3168 53.5681C14.6583 53.5681 11.6096 56.0442 10.9324 59.3256C12.3179 56.7974 15.1047 55.0704 18.3168 55.0704C21.529 55.0704 24.3158 56.7974 25.7013 59.3256ZM81.6832 52.8169C78.471 52.8169 75.6842 54.5438 74.2987 57.0721C74.976 53.7906 78.0247 51.3146 81.6832 51.3146C85.3417 51.3146 88.3904 53.7906 89.0676 57.0721C87.6821 54.5438 84.8953 52.8169 81.6832 52.8169ZM73.226 57.0721C72.5488 53.7906 69.5001 51.3146 65.8416 51.3146C62.1831 51.3146 59.1344 53.7906 58.4571 57.0721C59.8426 54.5438 62.6295 52.8169 65.8416 52.8169C69.0537 52.8169 71.8405 54.5438 73.226 57.0721ZM50 52.8169C46.7879 52.8169 44.001 54.5438 42.6155 57.0721C43.2928 53.7906 46.3415 51.3146 50 51.3146C53.6585 51.3146 56.7072 53.7906 57.3845 57.0721C55.999 54.5438 53.2121 52.8169 50 52.8169ZM41.5429 57.0721C40.8656 53.7906 37.8169 51.3146 34.1584 51.3146C30.4999 51.3146 27.4512 53.7906 26.774 57.0721C28.1595 54.5438 30.9463 52.8169 34.1584 52.8169C37.3705 52.8169 40.1574 54.5438 41.5429 57.0721ZM18.3168 52.8169C15.1047 52.8169 12.3179 54.5438 10.9324 57.0721C11.6096 53.7906 14.6583 51.3146 18.3168 51.3146C21.9753 51.3146 25.024 53.7906 25.7013 57.0721C24.3158 54.5438 21.529 52.8169 18.3168 52.8169ZM89.0676 54.8186C88.3904 51.5371 85.3417 49.061 81.6832 49.061C78.0247 49.061 74.976 51.5371 74.2987 54.8186C75.6842 52.2903 78.471 50.5634 81.6832 50.5634C84.8953 50.5634 87.6821 52.2903 89.0676 54.8186ZM65.8416 50.5634C62.6295 50.5634 59.8426 52.2903 58.4571 54.8186C59.1344 51.5371 62.1831 49.061 65.8416 49.061C69.5001 49.061 72.5488 51.5371 73.226 54.8186C71.8405 52.2903 69.0537 50.5634 65.8416 50.5634ZM57.3845 54.8186C56.7072 51.5371 53.6585 49.061 50 49.061C46.3415 49.061 43.2928 51.5371 42.6155 54.8186C44.001 52.2903 46.7879 50.5634 50 50.5634C53.2121 50.5634 55.999 52.2903 57.3845 54.8186ZM34.1584 50.5634C30.9463 50.5634 28.1595 52.2903 26.774 54.8186C27.4512 51.5371 30.4999 49.061 34.1584 49.061C37.8169 49.061 40.8656 51.5371 41.5429 54.8186C40.1574 52.2903 37.3705 50.5634 34.1584 50.5634ZM25.7013 54.8186C25.024 51.5371 21.9753 49.061 18.3168 49.061C14.6583 49.061 11.6096 51.5371 10.9324 54.8186C12.3179 52.2903 15.1047 50.5634 18.3168 50.5634C21.529 50.5634 24.3158 52.2903 25.7013 54.8186ZM81.6832 48.3099C78.471 48.3099 75.6842 50.0368 74.2987 52.5651C74.976 49.2836 78.0247 46.8075 81.6832 46.8075C85.3417 46.8075 88.3904 49.2836 89.0676 52.5651C87.6821 50.0368 84.8953 48.3099 81.6832 48.3099ZM73.226 52.5651C72.5488 49.2836 69.5001 46.8075 65.8416 46.8075C62.1831 46.8075 59.1344 49.2836 58.4571 52.5651C59.8426 50.0368 62.6295 48.3099 65.8416 48.3099C69.0537 48.3099 71.8405 50.0368 73.226 52.5651ZM50 48.3099C46.7879 48.3099 44.001 50.0368 42.6155 52.5651C43.2928 49.2836 46.3415 46.8075 50 46.8075C53.6585 46.8075 56.7072 49.2836 57.3845 52.5651C55.999 50.0368 53.2121 48.3099 50 48.3099ZM41.5429 52.5651C40.8656 49.2836 37.8169 46.8075 34.1584 46.8075C30.4999 46.8075 27.4512 49.2836 26.774 52.5651C28.1595 50.0368 30.9463 48.3099 34.1584 48.3099C37.3705 48.3099 40.1574 50.0368 41.5429 52.5651ZM18.3168 48.3099C15.1047 48.3099 12.3179 50.0368 10.9324 52.5651C11.6096 49.2836 14.6583 46.8075 18.3168 46.8075C21.9753 46.8075 25.024 49.2836 25.7013 52.5651C24.3158 50.0368 21.529 48.3099 18.3168 48.3099ZM89.0676 50.3116C88.3904 47.0301 85.3417 44.554 81.6832 44.554C78.0247 44.554 74.976 47.0301 74.2987 50.3116C75.6842 47.7833 78.471 46.0563 81.6832 46.0563C84.8953 46.0563 87.6821 47.7833 89.0676 50.3116ZM65.8416 46.0563C62.6295 46.0563 59.8426 47.7833 58.4571 50.3116C59.1344 47.0301 62.1831 44.554 65.8416 44.554C69.5001 44.554 72.5488 47.0301 73.226 50.3116C71.8405 47.7833 69.0537 46.0563 65.8416 46.0563ZM57.3845 50.3116C56.7072 47.0301 53.6585 44.554 50 44.554C46.3415 44.554 43.2928 47.0301 42.6155 50.3116C44.001 47.7833 46.7879 46.0563 50 46.0563C53.2121 46.0563 55.999 47.7833 57.3845 50.3116ZM34.1584 46.0563C30.9463 46.0563 28.1595 47.7833 26.774 50.3116C27.4512 47.0301 30.4999 44.554 34.1584 44.554C37.8169 44.554 40.8656 47.0301 41.5429 50.3116C40.1574 47.7833 37.3705 46.0563 34.1584 46.0563ZM25.7013 50.3116C25.024 47.0301 21.9753 44.554 18.3168 44.554C14.6583 44.554 11.6096 47.0301 10.9324 50.3116C12.3179 47.7833 15.1047 46.0563 18.3168 46.0563C21.529 46.0563 24.3158 47.7833 25.7013 50.3116ZM81.6832 43.8028C78.471 43.8028 75.6842 45.5298 74.2987 48.058C74.976 44.7765 78.0247 42.3005 81.6832 42.3005C85.3417 42.3005 88.3904 44.7765 89.0676 48.058C87.6821 45.5298 84.8953 43.8028 81.6832 43.8028ZM73.226 48.058C72.5488 44.7765 69.5001 42.3005 65.8416 42.3005C62.1831 42.3005 59.1344 44.7765 58.4571 48.058C59.8426 45.5298 62.6295 43.8028 65.8416 43.8028C69.0537 43.8028 71.8405 45.5298 73.226 48.058ZM50 43.8028C46.7879 43.8028 44.001 45.5298 42.6155 48.058C43.2928 44.7765 46.3415 42.3005 50 42.3005C53.6585 42.3005 56.7072 44.7765 57.3845 48.058C55.999 45.5298 53.2121 43.8028 50 43.8028ZM41.5429 48.058C40.8656 44.7765 37.8169 42.3005 34.1584 42.3005C30.4999 42.3005 27.4512 44.7766 26.774 48.058C28.1595 45.5298 30.9463 43.8028 34.1584 43.8028C37.3705 43.8028 40.1574 45.5298 41.5429 48.058ZM18.3168 43.8028C15.1047 43.8028 12.3179 45.5298 10.9324 48.058C11.6096 44.7766 14.6583 42.3005 18.3168 42.3005C21.9753 42.3005 25.024 44.7766 25.7013 48.058C24.3158 45.5298 21.529 43.8028 18.3168 43.8028ZM89.0676 45.8045C88.3904 42.523 85.3417 40.0469 81.6832 40.0469C78.0247 40.0469 74.976 42.523 74.2987 45.8045C75.6842 43.2762 78.471 41.5493 81.6832 41.5493C84.8953 41.5493 87.6821 43.2762 89.0676 45.8045ZM65.8416 41.5493C62.6295 41.5493 59.8426 43.2762 58.4571 45.8045C59.1344 42.523 62.1831 40.0469 65.8416 40.0469C69.5001 40.0469 72.5488 42.523 73.226 45.8045C71.8405 43.2762 69.0537 41.5493 65.8416 41.5493ZM57.3845 45.8045C56.7072 42.523 53.6585 40.0469 50 40.0469C46.3415 40.0469 43.2928 42.523 42.6155 45.8045C44.001 43.2762 46.7879 41.5493 50 41.5493C53.2121 41.5493 55.999 43.2762 57.3845 45.8045ZM34.1584 41.5493C30.9463 41.5493 28.1595 43.2762 26.774 45.8045C27.4512 42.523 30.4999 40.0469 34.1584 40.0469C37.8169 40.0469 40.8656 42.523 41.5429 45.8045C40.1574 43.2762 37.3705 41.5493 34.1584 41.5493ZM25.7013 45.8045C25.024 42.523 21.9753 40.0469 18.3168 40.0469C14.6583 40.0469 11.6096 42.523 10.9324 45.8045C12.3179 43.2762 15.1047 41.5493 18.3168 41.5493C21.529 41.5493 24.3158 43.2762 25.7013 45.8045ZM81.6832 39.2958C78.471 39.2958 75.6842 41.0227 74.2987 43.551C74.976 40.2695 78.0247 37.7934 81.6832 37.7934C85.3417 37.7934 88.3904 40.2695 89.0676 43.551C87.6821 41.0227 84.8953 39.2958 81.6832 39.2958ZM73.226 43.551C72.5488 40.2695 69.5001 37.7934 65.8416 37.7934C62.1831 37.7934 59.1344 40.2695 58.4571 43.551C59.8426 41.0227 62.6295 39.2958 65.8416 39.2958C69.0537 39.2958 71.8405 41.0227 73.226 43.551ZM50 39.2958C46.7879 39.2958 44.001 41.0227 42.6155 43.551C43.2928 40.2695 46.3415 37.7934 50 37.7934C53.6585 37.7934 56.7072 40.2695 57.3845 43.551C55.999 41.0227 53.2121 39.2958 50 39.2958ZM41.5429 43.551C40.8656 40.2695 37.8169 37.7934 34.1584 37.7934C30.4999 37.7934 27.4512 40.2695 26.774 43.551C28.1595 41.0227 30.9463 39.2958 34.1584 39.2958C37.3705 39.2958 40.1574 41.0227 41.5429 43.551ZM18.3168 39.2958C15.1047 39.2958 12.3179 41.0227 10.9324 43.551C11.6096 40.2695 14.6583 37.7934 18.3168 37.7934C21.9753 37.7934 25.024 40.2695 25.7013 43.551C24.3158 41.0227 21.529 39.2958 18.3168 39.2958ZM89.0676 41.2975C88.3904 38.016 85.3417 35.5399 81.6832 35.5399C78.0247 35.5399 74.976 38.016 74.2987 41.2975C75.6842 38.7692 78.471 37.0423 81.6832 37.0423C84.8953 37.0423 87.6821 38.7692 89.0676 41.2975ZM65.8416 37.0423C62.6295 37.0423 59.8426 38.7692 58.4571 41.2975C59.1344 38.016 62.1831 35.5399 65.8416 35.5399C69.5001 35.5399 72.5488 38.016 73.226 41.2975C71.8405 38.7692 69.0537 37.0423 65.8416 37.0423ZM57.3845 41.2975C56.7072 38.016 53.6585 35.5399 50 35.5399C46.3415 35.5399 43.2928 38.016 42.6155 41.2975C44.001 38.7692 46.7879 37.0423 50 37.0423C53.2121 37.0423 55.999 38.7692 57.3845 41.2975ZM34.1584 37.0423C30.9463 37.0423 28.1595 38.7692 26.774 41.2975C27.4512 38.016 30.4999 35.5399 34.1584 35.5399C37.8169 35.5399 40.8656 38.016 41.5429 41.2975C40.1574 38.7692 37.3705 37.0423 34.1584 37.0423ZM25.7013 41.2975C25.024 38.016 21.9753 35.5399 18.3168 35.5399C14.6583 35.5399 11.6096 38.016 10.9324 41.2975C12.3179 38.7692 15.1047 37.0423 18.3168 37.0423C21.529 37.0423 24.3158 38.7692 25.7013 41.2975ZM81.6832 34.7887C78.471 34.7887 75.6842 36.5157 74.2987 39.0439C74.976 35.7625 78.0247 33.2864 81.6832 33.2864C85.3417 33.2864 88.3904 35.7625 89.0676 39.0439C87.6821 36.5157 84.8953 34.7887 81.6832 34.7887ZM73.226 39.0439C72.5488 35.7625 69.5001 33.2864 65.8416 33.2864C62.1831 33.2864 59.1344 35.7625 58.4571 39.0439C59.8426 36.5157 62.6295 34.7887 65.8416 34.7887C69.0537 34.7887 71.8405 36.5157 73.226 39.0439ZM50 34.7887C46.7879 34.7887 44.001 36.5157 42.6155 39.0439C43.2928 35.7625 46.3415 33.2864 50 33.2864C53.6585 33.2864 56.7072 35.7625 57.3845 39.0439C55.999 36.5157 53.2121 34.7887 50 34.7887ZM41.5429 39.0439C40.8656 35.7625 37.8169 33.2864 34.1584 33.2864C30.4999 33.2864 27.4512 35.7625 26.774 39.0439C28.1595 36.5157 30.9463 34.7887 34.1584 34.7887C37.3705 34.7887 40.1574 36.5157 41.5429 39.0439ZM18.3168 34.7887C15.1047 34.7887 12.3179 36.5157 10.9324 39.0439C11.6096 35.7625 14.6583 33.2864 18.3168 33.2864C21.9753 33.2864 25.024 35.7625 25.7013 39.0439C24.3158 36.5157 21.529 34.7887 18.3168 34.7887ZM89.0676 36.7904C88.3904 33.5089 85.3417 31.0329 81.6832 31.0329C78.0247 31.0329 74.976 33.5089 74.2987 36.7904C75.6842 34.2622 78.471 32.5352 81.6832 32.5352C84.8953 32.5352 87.6821 34.2622 89.0676 36.7904ZM65.8416 32.5352C62.6295 32.5352 59.8426 34.2622 58.4571 36.7904C59.1344 33.5089 62.1831 31.0329 65.8416 31.0329C69.5001 31.0329 72.5488 33.5089 73.226 36.7904C71.8405 34.2622 69.0537 32.5352 65.8416 32.5352ZM57.3845 36.7904C56.7072 33.5089 53.6585 31.0329 50 31.0329C46.3415 31.0329 43.2928 33.5089 42.6155 36.7904C44.001 34.2622 46.7879 32.5352 50 32.5352C53.2121 32.5352 55.999 34.2622 57.3845 36.7904ZM34.1584 32.5352C30.9463 32.5352 28.1595 34.2622 26.774 36.7904C27.4512 33.5089 30.4999 31.0329 34.1584 31.0329C37.8169 31.0329 40.8656 33.5089 41.5429 36.7904C40.1574 34.2622 37.3705 32.5352 34.1584 32.5352ZM25.7013 36.7904C25.024 33.5089 21.9753 31.0329 18.3168 31.0329C14.6583 31.0329 11.6096 33.5089 10.9324 36.7904C12.3179 34.2622 15.1047 32.5352 18.3168 32.5352C21.529 32.5352 24.3158 34.2622 25.7013 36.7904ZM81.6832 30.2817C78.471 30.2817 75.6842 32.0086 74.2987 34.5369C74.976 31.2554 78.0247 28.7793 81.6832 28.7793C85.3417 28.7793 88.3904 31.2554 89.0676 34.5369C87.6821 32.0086 84.8953 30.2817 81.6832 30.2817ZM73.226 34.5369C72.5488 31.2554 69.5001 28.7793 65.8416 28.7793C62.1831 28.7793 59.1344 31.2554 58.4571 34.5369C59.8426 32.0086 62.6295 30.2817 65.8416 30.2817C69.0537 30.2817 71.8405 32.0086 73.226 34.5369ZM50 30.2817C46.7879 30.2817 44.001 32.0086 42.6155 34.5369C43.2928 31.2554 46.3415 28.7793 50 28.7793C53.6585 28.7793 56.7072 31.2554 57.3845 34.5369C55.999 32.0086 53.2121 30.2817 50 30.2817ZM41.5429 34.5369C40.8656 31.2554 37.8169 28.7793 34.1584 28.7793C30.4999 28.7793 27.4512 31.2554 26.774 34.5369C28.1595 32.0086 30.9463 30.2817 34.1584 30.2817C37.3705 30.2817 40.1574 32.0086 41.5429 34.5369ZM18.3168 30.2817C15.1047 30.2817 12.3179 32.0086 10.9324 34.5369C11.6096 31.2554 14.6583 28.7793 18.3168 28.7793C21.9753 28.7793 25.024 31.2554 25.7013 34.5369C24.3158 32.0086 21.529 30.2817 18.3168 30.2817ZM89.0676 32.2834C88.3904 29.0019 85.3417 26.5258 81.6832 26.5258C78.0247 26.5258 74.976 29.0019 74.2987 32.2834C75.6842 29.7551 78.471 28.0282 81.6832 28.0282C84.8953 28.0282 87.6821 29.7551 89.0676 32.2834ZM65.8416 28.0282C62.6295 28.0282 59.8426 29.7551 58.4571 32.2834C59.1344 29.0019 62.1831 26.5258 65.8416 26.5258C69.5001 26.5258 72.5488 29.0019 73.226 32.2834C71.8405 29.7551 69.0537 28.0282 65.8416 28.0282ZM57.3845 32.2834C56.7072 29.0019 53.6585 26.5258 50 26.5258C46.3415 26.5258 43.2928 29.0019 42.6155 32.2834C44.001 29.7551 46.7879 28.0282 50 28.0282C53.2121 28.0282 55.999 29.7551 57.3845 32.2834ZM34.1584 28.0282C30.9463 28.0282 28.1595 29.7551 26.774 32.2834C27.4512 29.0019 30.4999 26.5258 34.1584 26.5258C37.8169 26.5258 40.8656 29.0019 41.5429 32.2834C40.1574 29.7551 37.3705 28.0282 34.1584 28.0282ZM25.7013 32.2834C25.024 29.0019 21.9753 26.5258 18.3168 26.5258C14.6583 26.5258 11.6096 29.0019 10.9324 32.2834C12.3179 29.7551 15.1047 28.0282 18.3168 28.0282C21.529 28.0282 24.3158 29.7551 25.7013 32.2834ZM81.6832 25.7746C78.471 25.7746 75.6842 27.5016 74.2987 30.0299C74.976 26.7484 78.0247 24.2723 81.6832 24.2723C85.3417 24.2723 88.3904 26.7484 89.0676 30.0299C87.6821 27.5016 84.8953 25.7746 81.6832 25.7746ZM73.226 30.0299C72.5488 26.7484 69.5001 24.2723 65.8416 24.2723C62.1831 24.2723 59.1344 26.7484 58.4571 30.0299C59.8426 27.5016 62.6295 25.7746 65.8416 25.7746C69.0537 25.7746 71.8405 27.5016 73.226 30.0299ZM50 25.7746C46.7879 25.7746 44.001 27.5016 42.6155 30.0299C43.2928 26.7484 46.3415 24.2723 50 24.2723C53.6585 24.2723 56.7072 26.7484 57.3845 30.0299C55.999 27.5016 53.2121 25.7746 50 25.7746ZM41.5429 30.0299C40.8656 26.7484 37.8169 24.2723 34.1584 24.2723C30.4999 24.2723 27.4512 26.7484 26.774 30.0299C28.1595 27.5016 30.9463 25.7746 34.1584 25.7746C37.3705 25.7746 40.1574 27.5016 41.5429 30.0299ZM18.3168 25.7746C15.1047 25.7746 12.3179 27.5016 10.9324 30.0299C11.6096 26.7484 14.6583 24.2723 18.3168 24.2723C21.9753 24.2723 25.024 26.7484 25.7013 30.0299C24.3158 27.5016 21.529 25.7746 18.3168 25.7746ZM89.0676 27.7763C88.3904 24.4949 85.3417 22.0188 81.6832 22.0188C78.0247 22.0188 74.976 24.4949 74.2987 27.7763C75.6842 25.2481 78.471 23.5211 81.6832 23.5211C84.8953 23.5211 87.6821 25.2481 89.0676 27.7763ZM65.8416 23.5211C62.6295 23.5211 59.8426 25.2481 58.4571 27.7763C59.1344 24.4949 62.1831 22.0188 65.8416 22.0188C69.5001 22.0188 72.5488 24.4949 73.226 27.7763C71.8405 25.2481 69.0537 23.5211 65.8416 23.5211ZM57.3845 27.7763C56.7072 24.4949 53.6585 22.0188 50 22.0188C46.3415 22.0188 43.2928 24.4949 42.6155 27.7763C44.001 25.2481 46.7879 23.5211 50 23.5211C53.2121 23.5211 55.999 25.2481 57.3845 27.7763ZM34.1584 23.5211C30.9463 23.5211 28.1595 25.2481 26.774 27.7763C27.4512 24.4949 30.4999 22.0188 34.1584 22.0188C37.8169 22.0188 40.8656 24.4949 41.5429 27.7763C40.1574 25.2481 37.3705 23.5211 34.1584 23.5211ZM25.7013 27.7763C25.024 24.4949 21.9753 22.0188 18.3168 22.0188C14.6583 22.0188 11.6096 24.4949 10.9324 27.7763C12.3179 25.2481 15.1047 23.5211 18.3168 23.5211C21.529 23.5211 24.3158 25.2481 25.7013 27.7763ZM81.6832 21.2676C78.471 21.2676 75.6842 22.9946 74.2987 25.5228C74.976 22.2413 78.0247 19.7653 81.6832 19.7653C85.3417 19.7653 88.3904 22.2413 89.0676 25.5228C87.6821 22.9946 84.8953 21.2676 81.6832 21.2676ZM73.226 25.5228C72.5488 22.2413 69.5001 19.7653 65.8416 19.7653C62.1831 19.7653 59.1344 22.2413 58.4571 25.5228C59.8426 22.9946 62.6295 21.2676 65.8416 21.2676C69.0537 21.2676 71.8405 22.9946 73.226 25.5228ZM50 21.2676C46.7879 21.2676 44.001 22.9946 42.6155 25.5228C43.2928 22.2413 46.3415 19.7653 50 19.7653C53.6585 19.7653 56.7072 22.2413 57.3845 25.5228C55.999 22.9946 53.2121 21.2676 50 21.2676ZM41.5429 25.5228C40.8656 22.2413 37.8169 19.7653 34.1584 19.7653C30.4999 19.7653 27.4512 22.2413 26.774 25.5228C28.1595 22.9946 30.9463 21.2676 34.1584 21.2676C37.3705 21.2676 40.1574 22.9946 41.5429 25.5228ZM18.3168 21.2676C15.1047 21.2676 12.3179 22.9945 10.9324 25.5228C11.6096 22.2413 14.6583 19.7653 18.3168 19.7653C21.9753 19.7653 25.024 22.2413 25.7013 25.5228C24.3158 22.9945 21.529 21.2676 18.3168 21.2676ZM89.0676 23.2693C88.3904 19.9878 85.3417 17.5117 81.6832 17.5117C78.0247 17.5117 74.976 19.9878 74.2987 23.2693C75.6842 20.741 78.471 19.0141 81.6832 19.0141C84.8953 19.0141 87.6821 20.741 89.0676 23.2693ZM65.8416 19.0141C62.6295 19.0141 59.8426 20.741 58.4571 23.2693C59.1344 19.9878 62.1831 17.5117 65.8416 17.5117C69.5001 17.5117 72.5488 19.9878 73.226 23.2693C71.8405 20.741 69.0537 19.0141 65.8416 19.0141ZM57.3845 23.2693C56.7072 19.9878 53.6585 17.5117 50 17.5117C46.3415 17.5117 43.2928 19.9878 42.6155 23.2693C44.001 20.741 46.7879 19.0141 50 19.0141C53.2121 19.0141 55.999 20.741 57.3845 23.2693ZM34.1584 19.0141C30.9463 19.0141 28.1595 20.741 26.774 23.2693C27.4512 19.9878 30.4999 17.5117 34.1584 17.5117C37.8169 17.5117 40.8656 19.9878 41.5429 23.2693C40.1574 20.741 37.3705 19.0141 34.1584 19.0141ZM25.7013 23.2693C25.024 19.9878 21.9753 17.5117 18.3168 17.5117C14.6583 17.5117 11.6096 19.9878 10.9324 23.2693C12.3179 20.741 15.1047 19.0141 18.3168 19.0141C21.529 19.0141 24.3158 20.741 25.7013 23.2693ZM81.6832 16.7606C78.471 16.7606 75.6842 18.4875 74.2987 21.0158C74.976 17.7343 78.0247 15.2582 81.6832 15.2582C85.3417 15.2582 88.3904 17.7343 89.0676 21.0158C87.6821 18.4875 84.8953 16.7606 81.6832 16.7606ZM73.226 21.0158C72.5488 17.7343 69.5001 15.2582 65.8416 15.2582C62.1831 15.2582 59.1344 17.7343 58.4571 21.0158C59.8426 18.4875 62.6295 16.7606 65.8416 16.7606C69.0537 16.7606 71.8405 18.4875 73.226 21.0158ZM50 16.7606C46.7879 16.7606 44.001 18.4875 42.6155 21.0158C43.2928 17.7343 46.3415 15.2582 50 15.2582C53.6585 15.2582 56.7072 17.7343 57.3845 21.0158C55.999 18.4875 53.2121 16.7606 50 16.7606ZM41.5429 21.0158C40.8656 17.7343 37.8169 15.2582 34.1584 15.2582C30.4999 15.2582 27.4512 17.7343 26.774 21.0158C28.1595 18.4875 30.9463 16.7606 34.1584 16.7606C37.3705 16.7606 40.1574 18.4875 41.5429 21.0158ZM18.3168 16.7606C15.1047 16.7606 12.3179 18.4875 10.9324 21.0158C11.6096 17.7343 14.6583 15.2582 18.3168 15.2582C21.9753 15.2582 25.024 17.7343 25.7013 21.0158C24.3158 18.4875 21.529 16.7606 18.3168 16.7606ZM89.0676 18.7623C88.3904 15.4808 85.3417 13.0047 81.6832 13.0047C78.0247 13.0047 74.976 15.4808 74.2987 18.7623C75.6842 16.234 78.471 14.507 81.6832 14.507C84.8953 14.507 87.6821 16.234 89.0676 18.7623ZM65.8416 14.507C62.6295 14.507 59.8426 16.234 58.4571 18.7623C59.1344 15.4808 62.1831 13.0047 65.8416 13.0047C69.5001 13.0047 72.5488 15.4808 73.226 18.7623C71.8405 16.234 69.0537 14.507 65.8416 14.507ZM57.3845 18.7623C56.7072 15.4808 53.6585 13.0047 50 13.0047C46.3415 13.0047 43.2928 15.4808 42.6155 18.7623C44.001 16.234 46.7879 14.507 50 14.507C53.2121 14.507 55.999 16.234 57.3845 18.7623ZM34.1584 14.507C30.9463 14.507 28.1595 16.234 26.774 18.7623C27.4512 15.4808 30.4999 13.0047 34.1584 13.0047C37.8169 13.0047 40.8656 15.4808 41.5429 18.7623C40.1574 16.234 37.3705 14.507 34.1584 14.507ZM25.7013 18.7623C25.024 15.4808 21.9753 13.0047 18.3168 13.0047C14.6583 13.0047 11.6096 15.4808 10.9324 18.7623C12.3179 16.234 15.1047 14.507 18.3168 14.507C21.529 14.507 24.3158 16.234 25.7013 18.7623ZM81.6832 12.2535C78.471 12.2535 75.6842 13.9805 74.2987 16.5087C74.976 13.2273 78.0247 10.7512 81.6832 10.7512C85.3417 10.7512 88.3904 13.2273 89.0676 16.5087C87.6821 13.9805 84.8953 12.2535 81.6832 12.2535ZM73.226 16.5087C72.5488 13.2273 69.5001 10.7512 65.8416 10.7512C62.1831 10.7512 59.1344 13.2273 58.4571 16.5087C59.8426 13.9805 62.6295 12.2535 65.8416 12.2535C69.0537 12.2535 71.8405 13.9805 73.226 16.5087ZM50 12.2535C46.7879 12.2535 44.001 13.9805 42.6155 16.5087C43.2928 13.2273 46.3415 10.7512 50 10.7512C53.6585 10.7512 56.7072 13.2273 57.3845 16.5087C55.999 13.9805 53.2121 12.2535 50 12.2535ZM41.5429 16.5087C40.8656 13.2273 37.8169 10.7512 34.1584 10.7512C30.4999 10.7512 27.4512 13.2272 26.774 16.5087C28.1595 13.9805 30.9463 12.2535 34.1584 12.2535C37.3705 12.2535 40.1574 13.9805 41.5429 16.5087Z" fill="url(#paint0_linear_500_6945)"/>
<defs>
<linearGradient id="paint0_linear_500_6945" x1="10" y1="45.5" x2="90" y2="46" gradientUnits="userSpaceOnUse">
<stop stop-color="white" stop-opacity="0"/>
<stop offset="0.113223" stop-color="white"/>
<stop offset="0.204828" stop-color="white" stop-opacity="0"/>
<stop offset="0.296058" stop-color="white"/>
<stop offset="0.394305" stop-color="white" stop-opacity="0"/>
<stop offset="0.497284" stop-color="white"/>
<stop offset="0.588461" stop-color="white" stop-opacity="0"/>
<stop offset="0.68702" stop-color="white"/>
<stop offset="0.7756" stop-color="white" stop-opacity="0"/>
<stop offset="0.880906" stop-color="white"/>
<stop offset="1" stop-color="white" stop-opacity="0"/>
</linearGradient>
</defs>
</svg>
