<svg width="100" height="100" viewBox="0 0 100 100" fill="none" xmlns="http://www.w3.org/2000/svg">
<path d="M26 18H18V34L26 18Z" fill="url(#paint0_linear_500_7064)"/>
<path d="M34 34V18H26L34 34Z" fill="url(#paint1_linear_500_7064)"/>
<path d="M26 50H18V34L26 50Z" fill="url(#paint2_linear_500_7064)"/>
<path d="M34 34V50H26L34 34Z" fill="url(#paint3_linear_500_7064)"/>
<path d="M26 50H18V66L26 50Z" fill="url(#paint4_linear_500_7064)"/>
<path d="M34 66V50H26L34 66Z" fill="url(#paint5_linear_500_7064)"/>
<path d="M26 82H18V66L26 82Z" fill="url(#paint6_linear_500_7064)"/>
<path d="M34 66V82H26L34 66Z" fill="url(#paint7_linear_500_7064)"/>
<path d="M42 18H34V34L42 18Z" fill="url(#paint8_linear_500_7064)"/>
<path d="M50 34V18H42L50 34Z" fill="url(#paint9_linear_500_7064)"/>
<path d="M42 50H34V34L42 50Z" fill="url(#paint10_linear_500_7064)"/>
<path d="M50 34V50H42L50 34Z" fill="url(#paint11_linear_500_7064)"/>
<path d="M42 50H34V66L42 50Z" fill="url(#paint12_linear_500_7064)"/>
<path d="M50 66V50H42L50 66Z" fill="url(#paint13_linear_500_7064)"/>
<path d="M42 82H34V66L42 82Z" fill="url(#paint14_linear_500_7064)"/>
<path d="M50 66V82H42L50 66Z" fill="url(#paint15_linear_500_7064)"/>
<path d="M58 18H50V34L58 18Z" fill="url(#paint16_linear_500_7064)"/>
<path d="M66 34V18H58L66 34Z" fill="url(#paint17_linear_500_7064)"/>
<path d="M58 50H50V34L58 50Z" fill="url(#paint18_linear_500_7064)"/>
<path d="M66 34V50H58L66 34Z" fill="url(#paint19_linear_500_7064)"/>
<path d="M58 50H50V66L58 50Z" fill="url(#paint20_linear_500_7064)"/>
<path d="M66 66V50H58L66 66Z" fill="url(#paint21_linear_500_7064)"/>
<path d="M58 82H50V66L58 82Z" fill="url(#paint22_linear_500_7064)"/>
<path d="M66 66V82H58L66 66Z" fill="url(#paint23_linear_500_7064)"/>
<path d="M74 18H66V34L74 18Z" fill="url(#paint24_linear_500_7064)"/>
<path d="M82 34V18H74L82 34Z" fill="url(#paint25_linear_500_7064)"/>
<path d="M74 50H66V34L74 50Z" fill="url(#paint26_linear_500_7064)"/>
<path d="M82 34V50H74L82 34Z" fill="url(#paint27_linear_500_7064)"/>
<path d="M74 50H66V66L74 50Z" fill="url(#paint28_linear_500_7064)"/>
<path d="M82 66V50H74L82 66Z" fill="url(#paint29_linear_500_7064)"/>
<path d="M74 82H66V66L74 82Z" fill="url(#paint30_linear_500_7064)"/>
<path d="M82 66V82H74L82 66Z" fill="url(#paint31_linear_500_7064)"/>
<defs>
<linearGradient id="paint0_linear_500_7064" x1="26" y1="18" x2="26" y2="34" gradientUnits="userSpaceOnUse">
<stop stop-color="white"/>
<stop offset="1" stop-color="white" stop-opacity="0"/>
</linearGradient>
<linearGradient id="paint1_linear_500_7064" x1="26" y1="18" x2="26" y2="34" gradientUnits="userSpaceOnUse">
<stop stop-color="white"/>
<stop offset="1" stop-color="white" stop-opacity="0"/>
</linearGradient>
<linearGradient id="paint2_linear_500_7064" x1="26" y1="50" x2="26" y2="34" gradientUnits="userSpaceOnUse">
<stop stop-color="white"/>
<stop offset="1" stop-color="white" stop-opacity="0"/>
</linearGradient>
<linearGradient id="paint3_linear_500_7064" x1="26" y1="50" x2="26" y2="34" gradientUnits="userSpaceOnUse">
<stop stop-color="white"/>
<stop offset="1" stop-color="white" stop-opacity="0"/>
</linearGradient>
<linearGradient id="paint4_linear_500_7064" x1="26" y1="50" x2="26" y2="66" gradientUnits="userSpaceOnUse">
<stop stop-color="white"/>
<stop offset="1" stop-color="white" stop-opacity="0"/>
</linearGradient>
<linearGradient id="paint5_linear_500_7064" x1="26" y1="50" x2="26" y2="66" gradientUnits="userSpaceOnUse">
<stop stop-color="white"/>
<stop offset="1" stop-color="white" stop-opacity="0"/>
</linearGradient>
<linearGradient id="paint6_linear_500_7064" x1="26" y1="82" x2="26" y2="66" gradientUnits="userSpaceOnUse">
<stop stop-color="white"/>
<stop offset="1" stop-color="white" stop-opacity="0"/>
</linearGradient>
<linearGradient id="paint7_linear_500_7064" x1="26" y1="82" x2="26" y2="66" gradientUnits="userSpaceOnUse">
<stop stop-color="white"/>
<stop offset="1" stop-color="white" stop-opacity="0"/>
</linearGradient>
<linearGradient id="paint8_linear_500_7064" x1="42" y1="18" x2="42" y2="34" gradientUnits="userSpaceOnUse">
<stop stop-color="white"/>
<stop offset="1" stop-color="white" stop-opacity="0"/>
</linearGradient>
<linearGradient id="paint9_linear_500_7064" x1="42" y1="18" x2="42" y2="34" gradientUnits="userSpaceOnUse">
<stop stop-color="white"/>
<stop offset="1" stop-color="white" stop-opacity="0"/>
</linearGradient>
<linearGradient id="paint10_linear_500_7064" x1="42" y1="50" x2="42" y2="34" gradientUnits="userSpaceOnUse">
<stop stop-color="white"/>
<stop offset="1" stop-color="white" stop-opacity="0"/>
</linearGradient>
<linearGradient id="paint11_linear_500_7064" x1="42" y1="50" x2="42" y2="34" gradientUnits="userSpaceOnUse">
<stop stop-color="white"/>
<stop offset="1" stop-color="white" stop-opacity="0"/>
</linearGradient>
<linearGradient id="paint12_linear_500_7064" x1="42" y1="50" x2="42" y2="66" gradientUnits="userSpaceOnUse">
<stop stop-color="white"/>
<stop offset="1" stop-color="white" stop-opacity="0"/>
</linearGradient>
<linearGradient id="paint13_linear_500_7064" x1="42" y1="50" x2="42" y2="66" gradientUnits="userSpaceOnUse">
<stop stop-color="white"/>
<stop offset="1" stop-color="white" stop-opacity="0"/>
</linearGradient>
<linearGradient id="paint14_linear_500_7064" x1="42" y1="82" x2="42" y2="66" gradientUnits="userSpaceOnUse">
<stop stop-color="white"/>
<stop offset="1" stop-color="white" stop-opacity="0"/>
</linearGradient>
<linearGradient id="paint15_linear_500_7064" x1="42" y1="82" x2="42" y2="66" gradientUnits="userSpaceOnUse">
<stop stop-color="white"/>
<stop offset="1" stop-color="white" stop-opacity="0"/>
</linearGradient>
<linearGradient id="paint16_linear_500_7064" x1="58" y1="18" x2="58" y2="34" gradientUnits="userSpaceOnUse">
<stop stop-color="white"/>
<stop offset="1" stop-color="white" stop-opacity="0"/>
</linearGradient>
<linearGradient id="paint17_linear_500_7064" x1="58" y1="18" x2="58" y2="34" gradientUnits="userSpaceOnUse">
<stop stop-color="white"/>
<stop offset="1" stop-color="white" stop-opacity="0"/>
</linearGradient>
<linearGradient id="paint18_linear_500_7064" x1="58" y1="50" x2="58" y2="34" gradientUnits="userSpaceOnUse">
<stop stop-color="white"/>
<stop offset="1" stop-color="white" stop-opacity="0"/>
</linearGradient>
<linearGradient id="paint19_linear_500_7064" x1="58" y1="50" x2="58" y2="34" gradientUnits="userSpaceOnUse">
<stop stop-color="white"/>
<stop offset="1" stop-color="white" stop-opacity="0"/>
</linearGradient>
<linearGradient id="paint20_linear_500_7064" x1="58" y1="50" x2="58" y2="66" gradientUnits="userSpaceOnUse">
<stop stop-color="white"/>
<stop offset="1" stop-color="white" stop-opacity="0"/>
</linearGradient>
<linearGradient id="paint21_linear_500_7064" x1="58" y1="50" x2="58" y2="66" gradientUnits="userSpaceOnUse">
<stop stop-color="white"/>
<stop offset="1" stop-color="white" stop-opacity="0"/>
</linearGradient>
<linearGradient id="paint22_linear_500_7064" x1="58" y1="82" x2="58" y2="66" gradientUnits="userSpaceOnUse">
<stop stop-color="white"/>
<stop offset="1" stop-color="white" stop-opacity="0"/>
</linearGradient>
<linearGradient id="paint23_linear_500_7064" x1="58" y1="82" x2="58" y2="66" gradientUnits="userSpaceOnUse">
<stop stop-color="white"/>
<stop offset="1" stop-color="white" stop-opacity="0"/>
</linearGradient>
<linearGradient id="paint24_linear_500_7064" x1="74" y1="18" x2="74" y2="34" gradientUnits="userSpaceOnUse">
<stop stop-color="white"/>
<stop offset="1" stop-color="white" stop-opacity="0"/>
</linearGradient>
<linearGradient id="paint25_linear_500_7064" x1="74" y1="18" x2="74" y2="34" gradientUnits="userSpaceOnUse">
<stop stop-color="white"/>
<stop offset="1" stop-color="white" stop-opacity="0"/>
</linearGradient>
<linearGradient id="paint26_linear_500_7064" x1="74" y1="50" x2="74" y2="34" gradientUnits="userSpaceOnUse">
<stop stop-color="white"/>
<stop offset="1" stop-color="white" stop-opacity="0"/>
</linearGradient>
<linearGradient id="paint27_linear_500_7064" x1="74" y1="50" x2="74" y2="34" gradientUnits="userSpaceOnUse">
<stop stop-color="white"/>
<stop offset="1" stop-color="white" stop-opacity="0"/>
</linearGradient>
<linearGradient id="paint28_linear_500_7064" x1="74" y1="50" x2="74" y2="66" gradientUnits="userSpaceOnUse">
<stop stop-color="white"/>
<stop offset="1" stop-color="white" stop-opacity="0"/>
</linearGradient>
<linearGradient id="paint29_linear_500_7064" x1="74" y1="50" x2="74" y2="66" gradientUnits="userSpaceOnUse">
<stop stop-color="white"/>
<stop offset="1" stop-color="white" stop-opacity="0"/>
</linearGradient>
<linearGradient id="paint30_linear_500_7064" x1="74" y1="82" x2="74" y2="66" gradientUnits="userSpaceOnUse">
<stop stop-color="white"/>
<stop offset="1" stop-color="white" stop-opacity="0"/>
</linearGradient>
<linearGradient id="paint31_linear_500_7064" x1="74" y1="82" x2="74" y2="66" gradientUnits="userSpaceOnUse">
<stop stop-color="white"/>
<stop offset="1" stop-color="white" stop-opacity="0"/>
</linearGradient>
</defs>
</svg>
