<svg width="100" height="100" viewBox="0 0 100 100" fill="none" xmlns="http://www.w3.org/2000/svg">
<path d="M8 27.875L18.625 27.875H20.6636C22.8263 27.875 24.9692 27.4623 26.9772 26.6591L29.25 25.75L29.25 13L26.9772 13.9091C24.9692 14.7123 22.8263 15.125 20.6636 15.125L18.625 15.125L8 15.125L8 27.875Z" fill="url(#paint0_linear_500_7148)"/>
<path d="M8 25.3466V26.1312C10.0818 26.1419 11.9294 26.1818 13.5944 26.2178C16.3407 26.2771 18.5903 26.3258 20.5749 26.2147C23.7472 26.0372 26.3022 25.4526 29.25 23.8689V22.9707C26.2534 24.6509 23.7357 25.252 20.5297 25.4314C18.5686 25.5411 16.3736 25.4933 13.663 25.4343C11.993 25.3979 10.1273 25.3573 8 25.3466Z" fill="url(#paint1_linear_500_7148)"/>
<path d="M8 22.7313V23.516C10.0818 23.5267 11.9294 23.5666 13.5944 23.6026C16.3407 23.6619 18.5903 23.7105 20.5749 23.5995C23.7472 23.422 26.3022 22.8374 29.25 21.2537V20.3554C26.2534 22.0357 23.7357 22.6368 20.5297 22.8162C18.5686 22.9259 16.3736 22.8781 13.663 22.8191C11.993 22.7827 10.1273 22.742 8 22.7313Z" fill="url(#paint2_linear_500_7148)"/>
<path d="M8 20.1161V20.9008C10.0818 20.9114 11.9294 20.9514 13.5944 20.9874C16.3407 21.0467 18.5903 21.0953 20.5749 20.9843C23.7472 20.8068 26.3022 20.2222 29.25 18.6385V17.7402C26.2534 19.4204 23.7357 20.0216 20.5297 20.201C18.5686 20.3107 16.3736 20.2629 13.663 20.2038C11.9931 20.1675 10.1273 20.1268 8 20.1161Z" fill="url(#paint3_linear_500_7148)"/>
<path d="M8 17.5009V18.2855C10.0818 18.2962 11.9294 18.3362 13.5944 18.3721C16.3407 18.4315 18.5903 18.4801 20.5749 18.3691C23.7472 18.1916 26.3022 17.6069 29.25 16.0233V15.125C26.2534 16.8052 23.7357 17.4064 20.5297 17.5858C18.5686 17.6955 16.3736 17.6477 13.663 17.5886C11.9931 17.5522 10.1273 17.5116 8 17.5009Z" fill="url(#paint4_linear_500_7148)"/>
<path d="M50.5 27.875L39.875 27.875H37.8364C35.6737 27.875 33.5308 27.4623 31.5228 26.6591L29.25 25.75L29.25 13L31.5228 13.9091C33.5308 14.7123 35.6737 15.125 37.8364 15.125L39.875 15.125L50.5 15.125V27.875Z" fill="url(#paint5_linear_500_7148)"/>
<path d="M50.5 25.3466V26.1312C48.4182 26.1419 46.5706 26.1818 44.9056 26.2178C42.1593 26.2771 39.9097 26.3258 37.9251 26.2147C34.7528 26.0372 32.1978 25.4526 29.25 23.8689V22.9707C32.2466 24.6509 34.7643 25.252 37.9703 25.4314C39.9314 25.5411 42.1264 25.4933 44.837 25.4343C46.507 25.3979 48.3727 25.3573 50.5 25.3466Z" fill="url(#paint6_linear_500_7148)"/>
<path d="M50.5 22.7313V23.516C48.4182 23.5267 46.5706 23.5666 44.9056 23.6026C42.1593 23.6619 39.9097 23.7105 37.9251 23.5995C34.7528 23.422 32.1978 22.8374 29.25 21.2537V20.3554C32.2466 22.0357 34.7643 22.6368 37.9703 22.8162C39.9314 22.9259 42.1264 22.8781 44.837 22.8191C46.507 22.7827 48.3727 22.742 50.5 22.7313Z" fill="url(#paint7_linear_500_7148)"/>
<path d="M50.5 20.1161V20.9008C48.4182 20.9114 46.5706 20.9514 44.9056 20.9874C42.1593 21.0467 39.9097 21.0953 37.9251 20.9843C34.7528 20.8068 32.1978 20.2222 29.25 18.6385V17.7402C32.2466 19.4204 34.7643 20.0216 37.9703 20.201C39.9314 20.3107 42.1264 20.2629 44.837 20.2038C46.5069 20.1675 48.3727 20.1268 50.5 20.1161Z" fill="url(#paint8_linear_500_7148)"/>
<path d="M50.5 17.5009V18.2855C48.4182 18.2962 46.5706 18.3362 44.9056 18.3721C42.1593 18.4315 39.9097 18.4801 37.9251 18.3691C34.7528 18.1916 32.1978 17.6069 29.25 16.0233V15.125C32.2466 16.8052 34.7643 17.4064 37.9703 17.5858C39.9314 17.6955 42.1264 17.6477 44.837 17.5886C46.5069 17.5522 48.3727 17.5116 50.5 17.5009Z" fill="url(#paint9_linear_500_7148)"/>
<path d="M50.5 27.875L61.125 27.875H63.1636C65.3263 27.875 67.4692 27.4623 69.4772 26.6591L71.75 25.75V13L69.4772 13.9091C67.4692 14.7123 65.3263 15.125 63.1636 15.125L61.125 15.125L50.5 15.125V27.875Z" fill="url(#paint10_linear_500_7148)"/>
<path d="M50.5 25.3466V26.1312C52.5818 26.1419 54.4294 26.1818 56.0944 26.2178C58.8407 26.2771 61.0903 26.3258 63.0749 26.2147C66.2472 26.0372 68.8022 25.4526 71.75 23.8689V22.9707C68.7534 24.6509 66.2357 25.252 63.0297 25.4314C61.0686 25.5411 58.8736 25.4933 56.163 25.4343C54.493 25.3979 52.6273 25.3573 50.5 25.3466Z" fill="url(#paint11_linear_500_7148)"/>
<path d="M50.5 22.7313V23.516C52.5818 23.5267 54.4294 23.5666 56.0944 23.6026C58.8407 23.6619 61.0903 23.7105 63.0749 23.5995C66.2472 23.422 68.8022 22.8374 71.75 21.2537V20.3554C68.7534 22.0357 66.2357 22.6368 63.0297 22.8162C61.0686 22.9259 58.8736 22.8781 56.163 22.8191C54.493 22.7827 52.6273 22.742 50.5 22.7313Z" fill="url(#paint12_linear_500_7148)"/>
<path d="M50.5 20.1161V20.9008C52.5818 20.9114 54.4294 20.9514 56.0944 20.9874C58.8407 21.0467 61.0903 21.0953 63.0749 20.9843C66.2472 20.8068 68.8022 20.2222 71.75 18.6385V17.7402C68.7534 19.4204 66.2357 20.0216 63.0297 20.201C61.0686 20.3107 58.8736 20.2629 56.163 20.2038C54.4931 20.1675 52.6273 20.1268 50.5 20.1161Z" fill="url(#paint13_linear_500_7148)"/>
<path d="M50.5 17.5009V18.2855C52.5818 18.2962 54.4294 18.3362 56.0944 18.3721C58.8407 18.4315 61.0903 18.4801 63.0749 18.3691C66.2472 18.1916 68.8022 17.6069 71.75 16.0233V15.125C68.7534 16.8052 66.2357 17.4064 63.0297 17.5858C61.0686 17.6955 58.8736 17.6477 56.163 17.5886C54.4931 17.5522 52.6273 17.5116 50.5 17.5009Z" fill="url(#paint14_linear_500_7148)"/>
<path d="M93 27.875L82.375 27.875H80.3364C78.1737 27.875 76.0308 27.4623 74.0228 26.6591L71.75 25.75V13L74.0228 13.9091C76.0308 14.7123 78.1737 15.125 80.3364 15.125L82.375 15.125L93 15.125V27.875Z" fill="url(#paint15_linear_500_7148)"/>
<path d="M93 25.3466V26.1312C90.9182 26.1419 89.0706 26.1818 87.4056 26.2178C84.6593 26.2771 82.4097 26.3258 80.4251 26.2147C77.2528 26.0372 74.6978 25.4526 71.75 23.8689V22.9707C74.7466 24.6509 77.2643 25.252 80.4703 25.4314C82.4314 25.5411 84.6264 25.4933 87.337 25.4343C89.007 25.3979 90.8727 25.3573 93 25.3466Z" fill="url(#paint16_linear_500_7148)"/>
<path d="M93 22.7313V23.516C90.9182 23.5267 89.0706 23.5666 87.4056 23.6026C84.6593 23.6619 82.4097 23.7105 80.4251 23.5995C77.2528 23.422 74.6978 22.8374 71.75 21.2537V20.3554C74.7466 22.0357 77.2643 22.6368 80.4703 22.8162C82.4314 22.9259 84.6264 22.8781 87.337 22.8191C89.007 22.7827 90.8727 22.742 93 22.7313Z" fill="url(#paint17_linear_500_7148)"/>
<path d="M93 20.1161V20.9008C90.9182 20.9114 89.0706 20.9514 87.4056 20.9874C84.6593 21.0467 82.4097 21.0953 80.4251 20.9843C77.2528 20.8068 74.6978 20.2222 71.75 18.6385V17.7402C74.7466 19.4204 77.2643 20.0216 80.4703 20.201C82.4314 20.3107 84.6264 20.2629 87.337 20.2038C89.0069 20.1675 90.8727 20.1268 93 20.1161Z" fill="url(#paint18_linear_500_7148)"/>
<path d="M93 17.5009V18.2855C90.9182 18.2962 89.0706 18.3362 87.4056 18.3721C84.6593 18.4315 82.4097 18.4801 80.4251 18.3691C77.2528 18.1916 74.6978 17.6069 71.75 16.0233V15.125C74.7466 16.8052 77.2643 17.4064 80.4703 17.5858C82.4314 17.6955 84.6264 17.6477 87.337 17.5886C89.0069 17.5522 90.8727 17.5116 93 17.5009Z" fill="url(#paint19_linear_500_7148)"/>
<path d="M8 42.75H18.625H20.6636C22.8263 42.75 24.9692 42.3373 26.9772 41.5341L29.25 40.625L29.25 27.875L26.9772 28.7841C24.9692 29.5873 22.8263 30 20.6636 30L18.625 30H8L8 42.75Z" fill="url(#paint20_linear_500_7148)"/>
<path d="M8 40.2216V41.0062C10.0818 41.0169 11.9294 41.0568 13.5944 41.0928C16.3407 41.1521 18.5903 41.2008 20.5749 41.0897C23.7472 40.9122 26.3022 40.3276 29.25 38.7439V37.8457C26.2534 39.5259 23.7357 40.127 20.5297 40.3064C18.5686 40.4161 16.3736 40.3683 13.663 40.3093C11.993 40.2729 10.1273 40.2323 8 40.2216Z" fill="url(#paint21_linear_500_7148)"/>
<path d="M8 37.6063V38.391C10.0818 38.4017 11.9294 38.4416 13.5944 38.4776C16.3407 38.5369 18.5903 38.5855 20.5749 38.4745C23.7472 38.297 26.3022 37.7124 29.25 36.1287V35.2304C26.2534 36.9107 23.7357 37.5118 20.5297 37.6912C18.5686 37.8009 16.3736 37.7531 13.663 37.6941C11.993 37.6577 10.1273 37.617 8 37.6063Z" fill="url(#paint22_linear_500_7148)"/>
<path d="M8 34.9911V35.7758C10.0818 35.7864 11.9294 35.8264 13.5944 35.8624C16.3407 35.9217 18.5903 35.9703 20.5749 35.8593C23.7472 35.6818 26.3022 35.0972 29.25 33.5135V32.6152C26.2534 34.2954 23.7357 34.8966 20.5297 35.076C18.5686 35.1857 16.3736 35.1379 13.663 35.0788C11.9931 35.0425 10.1273 35.0018 8 34.9911Z" fill="url(#paint23_linear_500_7148)"/>
<path d="M8 32.3759V33.1605C10.0818 33.1712 11.9294 33.2112 13.5944 33.2471C16.3407 33.3065 18.5903 33.3551 20.5749 33.2441C23.7472 33.0666 26.3022 32.4819 29.25 30.8983V30C26.2534 31.6802 23.7357 32.2814 20.5297 32.4608C18.5686 32.5705 16.3736 32.5227 13.663 32.4636C11.9931 32.4272 10.1273 32.3866 8 32.3759Z" fill="url(#paint24_linear_500_7148)"/>
<path d="M50.5 42.75H39.875H37.8364C35.6737 42.75 33.5308 42.3373 31.5228 41.5341L29.25 40.625L29.25 27.875L31.5228 28.7841C33.5308 29.5873 35.6737 30 37.8364 30L39.875 30H50.5V42.75Z" fill="url(#paint25_linear_500_7148)"/>
<path d="M50.5 40.2216V41.0062C48.4182 41.0169 46.5706 41.0568 44.9056 41.0928C42.1593 41.1521 39.9097 41.2008 37.9251 41.0897C34.7528 40.9122 32.1978 40.3276 29.25 38.7439V37.8457C32.2466 39.5259 34.7643 40.127 37.9703 40.3064C39.9314 40.4161 42.1264 40.3683 44.837 40.3093C46.507 40.2729 48.3727 40.2323 50.5 40.2216Z" fill="url(#paint26_linear_500_7148)"/>
<path d="M50.5 37.6063V38.391C48.4182 38.4017 46.5706 38.4416 44.9056 38.4776C42.1593 38.5369 39.9097 38.5855 37.9251 38.4745C34.7528 38.297 32.1978 37.7124 29.25 36.1287V35.2304C32.2466 36.9107 34.7643 37.5118 37.9703 37.6912C39.9314 37.8009 42.1264 37.7531 44.837 37.6941C46.507 37.6577 48.3727 37.617 50.5 37.6063Z" fill="url(#paint27_linear_500_7148)"/>
<path d="M50.5 34.9911V35.7758C48.4182 35.7864 46.5706 35.8264 44.9056 35.8624C42.1593 35.9217 39.9097 35.9703 37.9251 35.8593C34.7528 35.6818 32.1978 35.0972 29.25 33.5135V32.6152C32.2466 34.2954 34.7643 34.8966 37.9703 35.076C39.9314 35.1857 42.1264 35.1379 44.837 35.0788C46.5069 35.0425 48.3727 35.0018 50.5 34.9911Z" fill="url(#paint28_linear_500_7148)"/>
<path d="M50.5 32.3759V33.1605C48.4182 33.1712 46.5706 33.2112 44.9056 33.2471C42.1593 33.3065 39.9097 33.3551 37.9251 33.2441C34.7528 33.0666 32.1978 32.4819 29.25 30.8983V30C32.2466 31.6802 34.7643 32.2814 37.9703 32.4608C39.9314 32.5705 42.1264 32.5227 44.837 32.4636C46.5069 32.4272 48.3727 32.3866 50.5 32.3759Z" fill="url(#paint29_linear_500_7148)"/>
<path d="M50.5 42.75H61.125H63.1636C65.3263 42.75 67.4692 42.3373 69.4772 41.5341L71.75 40.625V27.875L69.4772 28.7841C67.4692 29.5873 65.3263 30 63.1636 30L61.125 30H50.5V42.75Z" fill="url(#paint30_linear_500_7148)"/>
<path d="M50.5 40.2216V41.0062C52.5818 41.0169 54.4294 41.0568 56.0944 41.0928C58.8407 41.1521 61.0903 41.2008 63.0749 41.0897C66.2472 40.9122 68.8022 40.3276 71.75 38.7439V37.8457C68.7534 39.5259 66.2357 40.127 63.0297 40.3064C61.0686 40.4161 58.8736 40.3683 56.163 40.3093C54.493 40.2729 52.6273 40.2323 50.5 40.2216Z" fill="url(#paint31_linear_500_7148)"/>
<path d="M50.5 37.6063V38.391C52.5818 38.4017 54.4294 38.4416 56.0944 38.4776C58.8407 38.5369 61.0903 38.5855 63.0749 38.4745C66.2472 38.297 68.8022 37.7124 71.75 36.1287V35.2304C68.7534 36.9107 66.2357 37.5118 63.0297 37.6912C61.0686 37.8009 58.8736 37.7531 56.163 37.6941C54.493 37.6577 52.6273 37.617 50.5 37.6063Z" fill="url(#paint32_linear_500_7148)"/>
<path d="M50.5 34.9911V35.7758C52.5818 35.7864 54.4294 35.8264 56.0944 35.8624C58.8407 35.9217 61.0903 35.9703 63.0749 35.8593C66.2472 35.6818 68.8022 35.0972 71.75 33.5135V32.6152C68.7534 34.2954 66.2357 34.8966 63.0297 35.076C61.0686 35.1857 58.8736 35.1379 56.163 35.0788C54.4931 35.0425 52.6273 35.0018 50.5 34.9911Z" fill="url(#paint33_linear_500_7148)"/>
<path d="M50.5 32.3759V33.1605C52.5818 33.1712 54.4294 33.2112 56.0944 33.2471C58.8407 33.3065 61.0903 33.3551 63.0749 33.2441C66.2472 33.0666 68.8022 32.4819 71.75 30.8983V30C68.7534 31.6802 66.2357 32.2814 63.0297 32.4608C61.0686 32.5705 58.8736 32.5227 56.163 32.4636C54.4931 32.4272 52.6273 32.3866 50.5 32.3759Z" fill="url(#paint34_linear_500_7148)"/>
<path d="M93 42.75H82.375H80.3364C78.1737 42.75 76.0308 42.3373 74.0228 41.5341L71.75 40.625V27.875L74.0228 28.7841C76.0308 29.5873 78.1737 30 80.3364 30L82.375 30H93V42.75Z" fill="url(#paint35_linear_500_7148)"/>
<path d="M93 40.2216V41.0062C90.9182 41.0169 89.0706 41.0568 87.4056 41.0928C84.6593 41.1521 82.4097 41.2008 80.4251 41.0897C77.2528 40.9122 74.6978 40.3276 71.75 38.7439V37.8457C74.7466 39.5259 77.2643 40.127 80.4703 40.3064C82.4314 40.4161 84.6264 40.3683 87.337 40.3093C89.007 40.2729 90.8727 40.2323 93 40.2216Z" fill="url(#paint36_linear_500_7148)"/>
<path d="M93 37.6063V38.391C90.9182 38.4017 89.0706 38.4416 87.4056 38.4776C84.6593 38.5369 82.4097 38.5855 80.4251 38.4745C77.2528 38.297 74.6978 37.7124 71.75 36.1287V35.2304C74.7466 36.9107 77.2643 37.5118 80.4703 37.6912C82.4314 37.8009 84.6264 37.7531 87.337 37.6941C89.007 37.6577 90.8727 37.617 93 37.6063Z" fill="url(#paint37_linear_500_7148)"/>
<path d="M93 34.9911V35.7758C90.9182 35.7864 89.0706 35.8264 87.4056 35.8624C84.6593 35.9217 82.4097 35.9703 80.4251 35.8593C77.2528 35.6818 74.6978 35.0972 71.75 33.5135V32.6152C74.7466 34.2954 77.2643 34.8966 80.4703 35.076C82.4314 35.1857 84.6264 35.1379 87.337 35.0788C89.0069 35.0425 90.8727 35.0018 93 34.9911Z" fill="url(#paint38_linear_500_7148)"/>
<path d="M93 32.3759V33.1605C90.9182 33.1712 89.0706 33.2112 87.4056 33.2471C84.6593 33.3065 82.4097 33.3551 80.4251 33.2441C77.2528 33.0666 74.6978 32.4819 71.75 30.8983V30C74.7466 31.6802 77.2643 32.2814 80.4703 32.4608C82.4314 32.5705 84.6264 32.5227 87.337 32.4636C89.0069 32.4272 90.8727 32.3866 93 32.3759Z" fill="url(#paint39_linear_500_7148)"/>
<path d="M8 57.625H18.625H20.6636C22.8263 57.625 24.9692 57.2123 26.9772 56.4091L29.25 55.5L29.25 42.75L26.9772 43.6591C24.9692 44.4623 22.8263 44.875 20.6636 44.875H18.625H8L8 57.625Z" fill="url(#paint40_linear_500_7148)"/>
<path d="M8 55.0966V55.8812C10.0818 55.8919 11.9294 55.9318 13.5944 55.9678C16.3407 56.0271 18.5903 56.0758 20.5749 55.9647C23.7472 55.7872 26.3022 55.2026 29.25 53.6189V52.7207C26.2534 54.4009 23.7357 55.002 20.5297 55.1814C18.5686 55.2911 16.3736 55.2433 13.663 55.1843C11.993 55.1479 10.1273 55.1073 8 55.0966Z" fill="url(#paint41_linear_500_7148)"/>
<path d="M8 52.4813V53.266C10.0818 53.2767 11.9294 53.3166 13.5944 53.3526C16.3407 53.4119 18.5903 53.4605 20.5749 53.3495C23.7472 53.172 26.3022 52.5874 29.25 51.0037V50.1054C26.2534 51.7857 23.7357 52.3868 20.5297 52.5662C18.5686 52.6759 16.3736 52.6281 13.663 52.5691C11.993 52.5327 10.1273 52.492 8 52.4813Z" fill="url(#paint42_linear_500_7148)"/>
<path d="M8 49.8661V50.6508C10.0818 50.6614 11.9294 50.7014 13.5944 50.7374C16.3407 50.7967 18.5903 50.8453 20.5749 50.7343C23.7472 50.5568 26.3022 49.9722 29.25 48.3885V47.4902C26.2534 49.1704 23.7357 49.7716 20.5297 49.951C18.5686 50.0607 16.3736 50.0129 13.663 49.9538C11.9931 49.9175 10.1273 49.8768 8 49.8661Z" fill="url(#paint43_linear_500_7148)"/>
<path d="M8 47.2509V48.0355C10.0818 48.0462 11.9294 48.0862 13.5944 48.1221C16.3407 48.1815 18.5903 48.2301 20.5749 48.1191C23.7472 47.9416 26.3022 47.3569 29.25 45.7733V44.875C26.2534 46.5552 23.7357 47.1564 20.5297 47.3358C18.5686 47.4455 16.3736 47.3977 13.663 47.3386C11.9931 47.3022 10.1273 47.2616 8 47.2509Z" fill="url(#paint44_linear_500_7148)"/>
<path d="M50.5 57.625H39.875H37.8364C35.6737 57.625 33.5308 57.2123 31.5228 56.4091L29.25 55.5L29.25 42.75L31.5228 43.6591C33.5308 44.4623 35.6737 44.875 37.8364 44.875H39.875H50.5V57.625Z" fill="url(#paint45_linear_500_7148)"/>
<path d="M50.5 55.0966V55.8812C48.4182 55.8919 46.5706 55.9318 44.9056 55.9678C42.1593 56.0271 39.9097 56.0758 37.9251 55.9647C34.7528 55.7872 32.1978 55.2026 29.25 53.6189V52.7207C32.2466 54.4009 34.7643 55.002 37.9703 55.1814C39.9314 55.2911 42.1264 55.2433 44.837 55.1843C46.507 55.1479 48.3727 55.1073 50.5 55.0966Z" fill="url(#paint46_linear_500_7148)"/>
<path d="M50.5 52.4813V53.266C48.4182 53.2767 46.5706 53.3166 44.9056 53.3526C42.1593 53.4119 39.9097 53.4605 37.9251 53.3495C34.7528 53.172 32.1978 52.5874 29.25 51.0037V50.1054C32.2466 51.7857 34.7643 52.3868 37.9703 52.5662C39.9314 52.6759 42.1264 52.6281 44.837 52.5691C46.507 52.5327 48.3727 52.492 50.5 52.4813Z" fill="url(#paint47_linear_500_7148)"/>
<path d="M50.5 49.8661V50.6508C48.4182 50.6614 46.5706 50.7014 44.9056 50.7374C42.1593 50.7967 39.9097 50.8453 37.9251 50.7343C34.7528 50.5568 32.1978 49.9722 29.25 48.3885V47.4902C32.2466 49.1704 34.7643 49.7716 37.9703 49.951C39.9314 50.0607 42.1264 50.0129 44.837 49.9538C46.5069 49.9175 48.3727 49.8768 50.5 49.8661Z" fill="url(#paint48_linear_500_7148)"/>
<path d="M50.5 47.2509V48.0355C48.4182 48.0462 46.5706 48.0862 44.9056 48.1221C42.1593 48.1815 39.9097 48.2301 37.9251 48.1191C34.7528 47.9416 32.1978 47.3569 29.25 45.7733V44.875C32.2466 46.5552 34.7643 47.1564 37.9703 47.3358C39.9314 47.4455 42.1264 47.3977 44.837 47.3386C46.5069 47.3022 48.3727 47.2616 50.5 47.2509Z" fill="url(#paint49_linear_500_7148)"/>
<path d="M50.5 57.625H61.125H63.1636C65.3263 57.625 67.4692 57.2123 69.4772 56.4091L71.75 55.5V42.75L69.4772 43.6591C67.4692 44.4623 65.3263 44.875 63.1636 44.875H61.125H50.5V57.625Z" fill="url(#paint50_linear_500_7148)"/>
<path d="M50.5 55.0966V55.8812C52.5818 55.8919 54.4294 55.9318 56.0944 55.9678C58.8407 56.0271 61.0903 56.0758 63.0749 55.9647C66.2472 55.7872 68.8022 55.2026 71.75 53.6189V52.7207C68.7534 54.4009 66.2357 55.002 63.0297 55.1814C61.0686 55.2911 58.8736 55.2433 56.163 55.1843C54.493 55.1479 52.6273 55.1073 50.5 55.0966Z" fill="url(#paint51_linear_500_7148)"/>
<path d="M50.5 52.4813V53.266C52.5818 53.2767 54.4294 53.3166 56.0944 53.3526C58.8407 53.4119 61.0903 53.4605 63.0749 53.3495C66.2472 53.172 68.8022 52.5874 71.75 51.0037V50.1054C68.7534 51.7857 66.2357 52.3868 63.0297 52.5662C61.0686 52.6759 58.8736 52.6281 56.163 52.5691C54.493 52.5327 52.6273 52.492 50.5 52.4813Z" fill="url(#paint52_linear_500_7148)"/>
<path d="M50.5 49.8661V50.6508C52.5818 50.6614 54.4294 50.7014 56.0944 50.7374C58.8407 50.7967 61.0903 50.8453 63.0749 50.7343C66.2472 50.5568 68.8022 49.9722 71.75 48.3885V47.4902C68.7534 49.1704 66.2357 49.7716 63.0297 49.951C61.0686 50.0607 58.8736 50.0129 56.163 49.9538C54.4931 49.9175 52.6273 49.8768 50.5 49.8661Z" fill="url(#paint53_linear_500_7148)"/>
<path d="M50.5 47.2509V48.0355C52.5818 48.0462 54.4294 48.0862 56.0944 48.1221C58.8407 48.1815 61.0903 48.2301 63.0749 48.1191C66.2472 47.9416 68.8022 47.3569 71.75 45.7733V44.875C68.7534 46.5552 66.2357 47.1564 63.0297 47.3358C61.0686 47.4455 58.8736 47.3977 56.163 47.3386C54.4931 47.3022 52.6273 47.2616 50.5 47.2509Z" fill="url(#paint54_linear_500_7148)"/>
<path d="M93 57.625H82.375H80.3364C78.1737 57.625 76.0308 57.2123 74.0228 56.4091L71.75 55.5V42.75L74.0228 43.6591C76.0308 44.4623 78.1737 44.875 80.3364 44.875H82.375H93V57.625Z" fill="url(#paint55_linear_500_7148)"/>
<path d="M93 55.0966V55.8812C90.9182 55.8919 89.0706 55.9318 87.4056 55.9678C84.6593 56.0271 82.4097 56.0758 80.4251 55.9647C77.2528 55.7872 74.6978 55.2026 71.75 53.6189V52.7207C74.7466 54.4009 77.2643 55.002 80.4703 55.1814C82.4314 55.2911 84.6264 55.2433 87.337 55.1843C89.007 55.1479 90.8727 55.1073 93 55.0966Z" fill="url(#paint56_linear_500_7148)"/>
<path d="M93 52.4813V53.266C90.9182 53.2767 89.0706 53.3166 87.4056 53.3526C84.6593 53.4119 82.4097 53.4605 80.4251 53.3495C77.2528 53.172 74.6978 52.5874 71.75 51.0037V50.1054C74.7466 51.7857 77.2643 52.3868 80.4703 52.5662C82.4314 52.6759 84.6264 52.6281 87.337 52.5691C89.007 52.5327 90.8727 52.492 93 52.4813Z" fill="url(#paint57_linear_500_7148)"/>
<path d="M93 49.8661V50.6508C90.9182 50.6614 89.0706 50.7014 87.4056 50.7374C84.6593 50.7967 82.4097 50.8453 80.4251 50.7343C77.2528 50.5568 74.6978 49.9722 71.75 48.3885V47.4902C74.7466 49.1704 77.2643 49.7716 80.4703 49.951C82.4314 50.0607 84.6264 50.0129 87.337 49.9538C89.0069 49.9175 90.8727 49.8768 93 49.8661Z" fill="url(#paint58_linear_500_7148)"/>
<path d="M93 47.2509V48.0355C90.9182 48.0462 89.0706 48.0862 87.4056 48.1221C84.6593 48.1815 82.4097 48.2301 80.4251 48.1191C77.2528 47.9416 74.6978 47.3569 71.75 45.7733V44.875C74.7466 46.5552 77.2643 47.1564 80.4703 47.3358C82.4314 47.4455 84.6264 47.3977 87.337 47.3386C89.0069 47.3022 90.8727 47.2616 93 47.2509Z" fill="url(#paint59_linear_500_7148)"/>
<path d="M8 72.5H18.625H20.6636C22.8263 72.5 24.9692 72.0873 26.9772 71.2841L29.25 70.375L29.25 57.625L26.9772 58.5341C24.9692 59.3373 22.8263 59.75 20.6636 59.75H18.625H8L8 72.5Z" fill="url(#paint60_linear_500_7148)"/>
<path d="M8 69.9716V70.7562C10.0818 70.7669 11.9294 70.8068 13.5944 70.8428C16.3407 70.9021 18.5903 70.9508 20.5749 70.8397C23.7472 70.6622 26.3022 70.0776 29.25 68.4939V67.5957C26.2534 69.2759 23.7357 69.877 20.5297 70.0564C18.5686 70.1661 16.3736 70.1183 13.663 70.0593C11.993 70.0229 10.1273 69.9823 8 69.9716Z" fill="url(#paint61_linear_500_7148)"/>
<path d="M8 67.3563V68.141C10.0818 68.1517 11.9294 68.1916 13.5944 68.2276C16.3407 68.2869 18.5903 68.3355 20.5749 68.2245C23.7472 68.047 26.3022 67.4624 29.25 65.8787V64.9804C26.2534 66.6607 23.7357 67.2618 20.5297 67.4412C18.5686 67.5509 16.3736 67.5031 13.663 67.4441C11.993 67.4077 10.1273 67.367 8 67.3563Z" fill="url(#paint62_linear_500_7148)"/>
<path d="M8 64.7411V65.5258C10.0818 65.5364 11.9294 65.5764 13.5944 65.6124C16.3407 65.6717 18.5903 65.7203 20.5749 65.6093C23.7472 65.4318 26.3022 64.8472 29.25 63.2635V62.3652C26.2534 64.0454 23.7357 64.6466 20.5297 64.826C18.5686 64.9357 16.3736 64.8879 13.663 64.8288C11.9931 64.7925 10.1273 64.7518 8 64.7411Z" fill="url(#paint63_linear_500_7148)"/>
<path d="M8 62.1259V62.9105C10.0818 62.9212 11.9294 62.9612 13.5944 62.9971C16.3407 63.0565 18.5903 63.1051 20.5749 62.9941C23.7472 62.8166 26.3022 62.2319 29.25 60.6483V59.75C26.2534 61.4302 23.7357 62.0314 20.5297 62.2108C18.5686 62.3205 16.3736 62.2727 13.663 62.2136C11.9931 62.1772 10.1273 62.1366 8 62.1259Z" fill="url(#paint64_linear_500_7148)"/>
<path d="M50.5 72.5H39.875H37.8364C35.6737 72.5 33.5308 72.0873 31.5228 71.2841L29.25 70.375L29.25 57.625L31.5228 58.5341C33.5308 59.3373 35.6737 59.75 37.8364 59.75H39.875H50.5V72.5Z" fill="url(#paint65_linear_500_7148)"/>
<path d="M50.5 69.9716V70.7562C48.4182 70.7669 46.5706 70.8068 44.9056 70.8428C42.1593 70.9021 39.9097 70.9508 37.9251 70.8397C34.7528 70.6622 32.1978 70.0776 29.25 68.4939V67.5957C32.2466 69.2759 34.7643 69.877 37.9703 70.0564C39.9314 70.1661 42.1264 70.1183 44.837 70.0593C46.507 70.0229 48.3727 69.9823 50.5 69.9716Z" fill="url(#paint66_linear_500_7148)"/>
<path d="M50.5 67.3563V68.141C48.4182 68.1517 46.5706 68.1916 44.9056 68.2276C42.1593 68.2869 39.9097 68.3355 37.9251 68.2245C34.7528 68.047 32.1978 67.4624 29.25 65.8787V64.9804C32.2466 66.6607 34.7643 67.2618 37.9703 67.4412C39.9314 67.5509 42.1264 67.5031 44.837 67.4441C46.507 67.4077 48.3727 67.367 50.5 67.3563Z" fill="url(#paint67_linear_500_7148)"/>
<path d="M50.5 64.7411V65.5258C48.4182 65.5364 46.5706 65.5764 44.9056 65.6124C42.1593 65.6717 39.9097 65.7203 37.9251 65.6093C34.7528 65.4318 32.1978 64.8472 29.25 63.2635V62.3652C32.2466 64.0454 34.7643 64.6466 37.9703 64.826C39.9314 64.9357 42.1264 64.8879 44.837 64.8288C46.5069 64.7925 48.3727 64.7518 50.5 64.7411Z" fill="url(#paint68_linear_500_7148)"/>
<path d="M50.5 62.1259V62.9105C48.4182 62.9212 46.5706 62.9612 44.9056 62.9971C42.1593 63.0565 39.9097 63.1051 37.9251 62.9941C34.7528 62.8166 32.1978 62.2319 29.25 60.6483V59.75C32.2466 61.4302 34.7643 62.0314 37.9703 62.2108C39.9314 62.3205 42.1264 62.2727 44.837 62.2136C46.5069 62.1772 48.3727 62.1366 50.5 62.1259Z" fill="url(#paint69_linear_500_7148)"/>
<path d="M50.5 72.5H61.125H63.1636C65.3263 72.5 67.4692 72.0873 69.4772 71.2841L71.75 70.375V57.625L69.4772 58.5341C67.4692 59.3373 65.3263 59.75 63.1636 59.75H61.125H50.5V72.5Z" fill="url(#paint70_linear_500_7148)"/>
<path d="M50.5 69.9716V70.7562C52.5818 70.7669 54.4294 70.8068 56.0944 70.8428C58.8407 70.9021 61.0903 70.9508 63.0749 70.8397C66.2472 70.6622 68.8022 70.0776 71.75 68.4939V67.5957C68.7534 69.2759 66.2357 69.877 63.0297 70.0564C61.0686 70.1661 58.8736 70.1183 56.163 70.0593C54.493 70.0229 52.6273 69.9823 50.5 69.9716Z" fill="url(#paint71_linear_500_7148)"/>
<path d="M50.5 67.3563V68.141C52.5818 68.1517 54.4294 68.1916 56.0944 68.2276C58.8407 68.2869 61.0903 68.3355 63.0749 68.2245C66.2472 68.047 68.8022 67.4624 71.75 65.8787V64.9804C68.7534 66.6607 66.2357 67.2618 63.0297 67.4412C61.0686 67.5509 58.8736 67.5031 56.163 67.4441C54.493 67.4077 52.6273 67.367 50.5 67.3563Z" fill="url(#paint72_linear_500_7148)"/>
<path d="M50.5 64.7411V65.5258C52.5818 65.5364 54.4294 65.5764 56.0944 65.6124C58.8407 65.6717 61.0903 65.7203 63.0749 65.6093C66.2472 65.4318 68.8022 64.8472 71.75 63.2635V62.3652C68.7534 64.0454 66.2357 64.6466 63.0297 64.826C61.0686 64.9357 58.8736 64.8879 56.163 64.8288C54.4931 64.7925 52.6273 64.7518 50.5 64.7411Z" fill="url(#paint73_linear_500_7148)"/>
<path d="M50.5 62.1259V62.9105C52.5818 62.9212 54.4294 62.9612 56.0944 62.9971C58.8407 63.0565 61.0903 63.1051 63.0749 62.9941C66.2472 62.8166 68.8022 62.2319 71.75 60.6483V59.75C68.7534 61.4302 66.2357 62.0314 63.0297 62.2108C61.0686 62.3205 58.8736 62.2727 56.163 62.2136C54.4931 62.1772 52.6273 62.1366 50.5 62.1259Z" fill="url(#paint74_linear_500_7148)"/>
<path d="M93 72.5H82.375H80.3364C78.1737 72.5 76.0308 72.0873 74.0228 71.2841L71.75 70.375V57.625L74.0228 58.5341C76.0308 59.3373 78.1737 59.75 80.3364 59.75H82.375H93V72.5Z" fill="url(#paint75_linear_500_7148)"/>
<path d="M93 69.9716V70.7562C90.9182 70.7669 89.0706 70.8068 87.4056 70.8428C84.6593 70.9021 82.4097 70.9508 80.4251 70.8397C77.2528 70.6622 74.6978 70.0776 71.75 68.4939V67.5957C74.7466 69.2759 77.2643 69.877 80.4703 70.0564C82.4314 70.1661 84.6264 70.1183 87.337 70.0593C89.007 70.0229 90.8727 69.9823 93 69.9716Z" fill="url(#paint76_linear_500_7148)"/>
<path d="M93 67.3563V68.141C90.9182 68.1517 89.0706 68.1916 87.4056 68.2276C84.6593 68.2869 82.4097 68.3355 80.4251 68.2245C77.2528 68.047 74.6978 67.4624 71.75 65.8787V64.9804C74.7466 66.6607 77.2643 67.2618 80.4703 67.4412C82.4314 67.5509 84.6264 67.5031 87.337 67.4441C89.007 67.4077 90.8727 67.367 93 67.3563Z" fill="url(#paint77_linear_500_7148)"/>
<path d="M93 64.7411V65.5258C90.9182 65.5364 89.0706 65.5764 87.4056 65.6124C84.6593 65.6717 82.4097 65.7203 80.4251 65.6093C77.2528 65.4318 74.6978 64.8472 71.75 63.2635V62.3652C74.7466 64.0454 77.2643 64.6466 80.4703 64.826C82.4314 64.9357 84.6264 64.8879 87.337 64.8288C89.0069 64.7925 90.8727 64.7518 93 64.7411Z" fill="url(#paint78_linear_500_7148)"/>
<path d="M93 62.1259V62.9105C90.9182 62.9212 89.0706 62.9612 87.4056 62.9971C84.6593 63.0565 82.4097 63.1051 80.4251 62.9941C77.2528 62.8166 74.6978 62.2319 71.75 60.6483V59.75C74.7466 61.4302 77.2643 62.0314 80.4703 62.2108C82.4314 62.3205 84.6264 62.2727 87.337 62.2136C89.0069 62.1772 90.8727 62.1366 93 62.1259Z" fill="url(#paint79_linear_500_7148)"/>
<path d="M8 87.375H18.625H20.6636C22.8263 87.375 24.9692 86.9623 26.9772 86.1591L29.25 85.25L29.25 72.5L26.9772 73.4091C24.9692 74.2123 22.8263 74.625 20.6636 74.625H18.625H8L8 87.375Z" fill="url(#paint80_linear_500_7148)"/>
<path d="M8 84.8466V85.6312C10.0818 85.6419 11.9294 85.6818 13.5944 85.7178C16.3407 85.7771 18.5903 85.8258 20.5749 85.7147C23.7472 85.5372 26.3022 84.9526 29.25 83.3689V82.4707C26.2534 84.1509 23.7357 84.752 20.5297 84.9314C18.5686 85.0411 16.3736 84.9933 13.663 84.9343C11.993 84.8979 10.1273 84.8573 8 84.8466Z" fill="url(#paint81_linear_500_7148)"/>
<path d="M8 82.2313V83.016C10.0818 83.0267 11.9294 83.0666 13.5944 83.1026C16.3407 83.1619 18.5903 83.2105 20.5749 83.0995C23.7472 82.922 26.3022 82.3374 29.25 80.7537V79.8554C26.2534 81.5357 23.7357 82.1368 20.5297 82.3162C18.5686 82.4259 16.3736 82.3781 13.663 82.3191C11.993 82.2827 10.1273 82.242 8 82.2313Z" fill="url(#paint82_linear_500_7148)"/>
<path d="M8 79.6161V80.4008C10.0818 80.4114 11.9294 80.4514 13.5944 80.4874C16.3407 80.5467 18.5903 80.5953 20.5749 80.4843C23.7472 80.3068 26.3022 79.7222 29.25 78.1385V77.2402C26.2534 78.9204 23.7357 79.5216 20.5297 79.701C18.5686 79.8107 16.3736 79.7629 13.663 79.7038C11.9931 79.6675 10.1273 79.6268 8 79.6161Z" fill="url(#paint83_linear_500_7148)"/>
<path d="M8 77.0009V77.7855C10.0818 77.7962 11.9294 77.8362 13.5944 77.8721C16.3407 77.9315 18.5903 77.9801 20.5749 77.8691C23.7472 77.6916 26.3022 77.1069 29.25 75.5233V74.625C26.2534 76.3052 23.7357 76.9064 20.5297 77.0858C18.5686 77.1955 16.3736 77.1477 13.663 77.0886C11.9931 77.0522 10.1273 77.0116 8 77.0009Z" fill="url(#paint84_linear_500_7148)"/>
<path d="M50.5 87.375H39.875H37.8364C35.6737 87.375 33.5308 86.9623 31.5228 86.1591L29.25 85.25L29.25 72.5L31.5228 73.4091C33.5308 74.2123 35.6737 74.625 37.8364 74.625H39.875H50.5V87.375Z" fill="url(#paint85_linear_500_7148)"/>
<path d="M50.5 84.8466V85.6312C48.4182 85.6419 46.5706 85.6818 44.9056 85.7178C42.1593 85.7771 39.9097 85.8258 37.9251 85.7147C34.7528 85.5372 32.1978 84.9526 29.25 83.3689V82.4707C32.2466 84.1509 34.7643 84.752 37.9703 84.9314C39.9314 85.0411 42.1264 84.9933 44.837 84.9343C46.507 84.8979 48.3727 84.8573 50.5 84.8466Z" fill="url(#paint86_linear_500_7148)"/>
<path d="M50.5 82.2313V83.016C48.4182 83.0267 46.5706 83.0666 44.9056 83.1026C42.1593 83.1619 39.9097 83.2105 37.9251 83.0995C34.7528 82.922 32.1978 82.3374 29.25 80.7537V79.8554C32.2466 81.5357 34.7643 82.1368 37.9703 82.3162C39.9314 82.4259 42.1264 82.3781 44.837 82.3191C46.507 82.2827 48.3727 82.242 50.5 82.2313Z" fill="url(#paint87_linear_500_7148)"/>
<path d="M50.5 79.6161V80.4008C48.4182 80.4114 46.5706 80.4514 44.9056 80.4874C42.1593 80.5467 39.9097 80.5953 37.9251 80.4843C34.7528 80.3068 32.1978 79.7222 29.25 78.1385V77.2402C32.2466 78.9204 34.7643 79.5216 37.9703 79.701C39.9314 79.8107 42.1264 79.7629 44.837 79.7038C46.5069 79.6675 48.3727 79.6268 50.5 79.6161Z" fill="url(#paint88_linear_500_7148)"/>
<path d="M50.5 77.0009V77.7855C48.4182 77.7962 46.5706 77.8362 44.9056 77.8721C42.1593 77.9315 39.9097 77.9801 37.9251 77.8691C34.7528 77.6916 32.1978 77.1069 29.25 75.5233V74.625C32.2466 76.3052 34.7643 76.9064 37.9703 77.0858C39.9314 77.1955 42.1264 77.1477 44.837 77.0886C46.5069 77.0522 48.3727 77.0116 50.5 77.0009Z" fill="url(#paint89_linear_500_7148)"/>
<path d="M50.5 87.375H61.125H63.1636C65.3263 87.375 67.4692 86.9623 69.4772 86.1591L71.75 85.25V72.5L69.4772 73.4091C67.4692 74.2123 65.3263 74.625 63.1636 74.625H61.125H50.5V87.375Z" fill="url(#paint90_linear_500_7148)"/>
<path d="M50.5 84.8466V85.6312C52.5818 85.6419 54.4294 85.6818 56.0944 85.7178C58.8407 85.7771 61.0903 85.8258 63.0749 85.7147C66.2472 85.5372 68.8022 84.9526 71.75 83.3689V82.4707C68.7534 84.1509 66.2357 84.752 63.0297 84.9314C61.0686 85.0411 58.8736 84.9933 56.163 84.9343C54.493 84.8979 52.6273 84.8573 50.5 84.8466Z" fill="url(#paint91_linear_500_7148)"/>
<path d="M50.5 82.2313V83.016C52.5818 83.0267 54.4294 83.0666 56.0944 83.1026C58.8407 83.1619 61.0903 83.2105 63.0749 83.0995C66.2472 82.922 68.8022 82.3374 71.75 80.7537V79.8554C68.7534 81.5357 66.2357 82.1368 63.0297 82.3162C61.0686 82.4259 58.8736 82.3781 56.163 82.3191C54.493 82.2827 52.6273 82.242 50.5 82.2313Z" fill="url(#paint92_linear_500_7148)"/>
<path d="M50.5 79.6161V80.4008C52.5818 80.4114 54.4294 80.4514 56.0944 80.4874C58.8407 80.5467 61.0903 80.5953 63.0749 80.4843C66.2472 80.3068 68.8022 79.7222 71.75 78.1385V77.2402C68.7534 78.9204 66.2357 79.5216 63.0297 79.701C61.0686 79.8107 58.8736 79.7629 56.163 79.7038C54.4931 79.6675 52.6273 79.6268 50.5 79.6161Z" fill="url(#paint93_linear_500_7148)"/>
<path d="M50.5 77.0009V77.7855C52.5818 77.7962 54.4294 77.8362 56.0944 77.8721C58.8407 77.9315 61.0903 77.9801 63.0749 77.8691C66.2472 77.6916 68.8022 77.1069 71.75 75.5233V74.625C68.7534 76.3052 66.2357 76.9064 63.0297 77.0858C61.0686 77.1955 58.8736 77.1477 56.163 77.0886C54.4931 77.0522 52.6273 77.0116 50.5 77.0009Z" fill="url(#paint94_linear_500_7148)"/>
<path d="M93 87.375H82.375H80.3364C78.1737 87.375 76.0308 86.9623 74.0228 86.1591L71.75 85.25V72.5L74.0228 73.4091C76.0308 74.2123 78.1737 74.625 80.3364 74.625H82.375H93V87.375Z" fill="url(#paint95_linear_500_7148)"/>
<path d="M93 84.8466V85.6312C90.9182 85.6419 89.0706 85.6818 87.4056 85.7178C84.6593 85.7771 82.4097 85.8258 80.4251 85.7147C77.2528 85.5372 74.6978 84.9526 71.75 83.3689V82.4707C74.7466 84.1509 77.2643 84.752 80.4703 84.9314C82.4314 85.0411 84.6264 84.9933 87.337 84.9343C89.007 84.8979 90.8727 84.8573 93 84.8466Z" fill="url(#paint96_linear_500_7148)"/>
<path d="M93 82.2313V83.016C90.9182 83.0267 89.0706 83.0666 87.4056 83.1026C84.6593 83.1619 82.4097 83.2105 80.4251 83.0995C77.2528 82.922 74.6978 82.3374 71.75 80.7537V79.8554C74.7466 81.5357 77.2643 82.1368 80.4703 82.3162C82.4314 82.4259 84.6264 82.3781 87.337 82.3191C89.007 82.2827 90.8727 82.242 93 82.2313Z" fill="url(#paint97_linear_500_7148)"/>
<path d="M93 79.6161V80.4008C90.9182 80.4114 89.0706 80.4514 87.4056 80.4874C84.6593 80.5467 82.4097 80.5953 80.4251 80.4843C77.2528 80.3068 74.6978 79.7222 71.75 78.1385V77.2402C74.7466 78.9204 77.2643 79.5216 80.4703 79.701C82.4314 79.8107 84.6264 79.7629 87.337 79.7038C89.0069 79.6675 90.8727 79.6268 93 79.6161Z" fill="url(#paint98_linear_500_7148)"/>
<path d="M93 77.0009V77.7855C90.9182 77.7962 89.0706 77.8362 87.4056 77.8721C84.6593 77.9315 82.4097 77.9801 80.4251 77.8691C77.2528 77.6916 74.6978 77.1069 71.75 75.5233V74.625C74.7466 76.3052 77.2643 76.9064 80.4703 77.0858C82.4314 77.1955 84.6264 77.1477 87.337 77.0886C89.0069 77.0522 90.8727 77.0116 93 77.0009Z" fill="url(#paint99_linear_500_7148)"/>
<defs>
<linearGradient id="paint0_linear_500_7148" x1="7.46875" y1="22.5625" x2="29.25" y2="19.1094" gradientUnits="userSpaceOnUse">
<stop stop-color="white"/>
<stop offset="1" stop-color="#C4C4C4" stop-opacity="0"/>
</linearGradient>
<linearGradient id="paint1_linear_500_7148" x1="7.73438" y1="21.7049" x2="30.042" y2="19.8167" gradientUnits="userSpaceOnUse">
<stop stop-color="white"/>
<stop offset="1" stop-color="white" stop-opacity="0"/>
</linearGradient>
<linearGradient id="paint2_linear_500_7148" x1="7.73438" y1="21.7049" x2="30.042" y2="19.8167" gradientUnits="userSpaceOnUse">
<stop stop-color="white"/>
<stop offset="1" stop-color="white" stop-opacity="0"/>
</linearGradient>
<linearGradient id="paint3_linear_500_7148" x1="7.73438" y1="21.7049" x2="30.042" y2="19.8167" gradientUnits="userSpaceOnUse">
<stop stop-color="white"/>
<stop offset="1" stop-color="white" stop-opacity="0"/>
</linearGradient>
<linearGradient id="paint4_linear_500_7148" x1="7.73438" y1="21.7049" x2="30.042" y2="19.8167" gradientUnits="userSpaceOnUse">
<stop stop-color="white"/>
<stop offset="1" stop-color="white" stop-opacity="0"/>
</linearGradient>
<linearGradient id="paint5_linear_500_7148" x1="51.0313" y1="22.5625" x2="29.25" y2="19.1094" gradientUnits="userSpaceOnUse">
<stop stop-color="white"/>
<stop offset="1" stop-color="#C4C4C4" stop-opacity="0"/>
</linearGradient>
<linearGradient id="paint6_linear_500_7148" x1="50.7656" y1="21.7049" x2="28.458" y2="19.8167" gradientUnits="userSpaceOnUse">
<stop stop-color="white"/>
<stop offset="1" stop-color="white" stop-opacity="0"/>
</linearGradient>
<linearGradient id="paint7_linear_500_7148" x1="50.7656" y1="21.7049" x2="28.458" y2="19.8167" gradientUnits="userSpaceOnUse">
<stop stop-color="white"/>
<stop offset="1" stop-color="white" stop-opacity="0"/>
</linearGradient>
<linearGradient id="paint8_linear_500_7148" x1="50.7656" y1="21.7049" x2="28.458" y2="19.8167" gradientUnits="userSpaceOnUse">
<stop stop-color="white"/>
<stop offset="1" stop-color="white" stop-opacity="0"/>
</linearGradient>
<linearGradient id="paint9_linear_500_7148" x1="50.7656" y1="21.7049" x2="28.458" y2="19.8167" gradientUnits="userSpaceOnUse">
<stop stop-color="white"/>
<stop offset="1" stop-color="white" stop-opacity="0"/>
</linearGradient>
<linearGradient id="paint10_linear_500_7148" x1="49.9687" y1="22.5625" x2="71.75" y2="19.1094" gradientUnits="userSpaceOnUse">
<stop stop-color="white"/>
<stop offset="1" stop-color="#C4C4C4" stop-opacity="0"/>
</linearGradient>
<linearGradient id="paint11_linear_500_7148" x1="50.2344" y1="21.7049" x2="72.542" y2="19.8167" gradientUnits="userSpaceOnUse">
<stop stop-color="white"/>
<stop offset="1" stop-color="white" stop-opacity="0"/>
</linearGradient>
<linearGradient id="paint12_linear_500_7148" x1="50.2344" y1="21.7049" x2="72.542" y2="19.8167" gradientUnits="userSpaceOnUse">
<stop stop-color="white"/>
<stop offset="1" stop-color="white" stop-opacity="0"/>
</linearGradient>
<linearGradient id="paint13_linear_500_7148" x1="50.2344" y1="21.7049" x2="72.542" y2="19.8167" gradientUnits="userSpaceOnUse">
<stop stop-color="white"/>
<stop offset="1" stop-color="white" stop-opacity="0"/>
</linearGradient>
<linearGradient id="paint14_linear_500_7148" x1="50.2344" y1="21.7049" x2="72.542" y2="19.8167" gradientUnits="userSpaceOnUse">
<stop stop-color="white"/>
<stop offset="1" stop-color="white" stop-opacity="0"/>
</linearGradient>
<linearGradient id="paint15_linear_500_7148" x1="93.5313" y1="22.5625" x2="71.75" y2="19.1094" gradientUnits="userSpaceOnUse">
<stop stop-color="white"/>
<stop offset="1" stop-color="#C4C4C4" stop-opacity="0"/>
</linearGradient>
<linearGradient id="paint16_linear_500_7148" x1="93.2656" y1="21.7049" x2="70.958" y2="19.8167" gradientUnits="userSpaceOnUse">
<stop stop-color="white"/>
<stop offset="1" stop-color="white" stop-opacity="0"/>
</linearGradient>
<linearGradient id="paint17_linear_500_7148" x1="93.2656" y1="21.7049" x2="70.958" y2="19.8167" gradientUnits="userSpaceOnUse">
<stop stop-color="white"/>
<stop offset="1" stop-color="white" stop-opacity="0"/>
</linearGradient>
<linearGradient id="paint18_linear_500_7148" x1="93.2656" y1="21.7049" x2="70.958" y2="19.8167" gradientUnits="userSpaceOnUse">
<stop stop-color="white"/>
<stop offset="1" stop-color="white" stop-opacity="0"/>
</linearGradient>
<linearGradient id="paint19_linear_500_7148" x1="93.2656" y1="21.7049" x2="70.958" y2="19.8167" gradientUnits="userSpaceOnUse">
<stop stop-color="white"/>
<stop offset="1" stop-color="white" stop-opacity="0"/>
</linearGradient>
<linearGradient id="paint20_linear_500_7148" x1="7.46875" y1="37.4375" x2="29.25" y2="33.9844" gradientUnits="userSpaceOnUse">
<stop stop-color="white"/>
<stop offset="1" stop-color="#C4C4C4" stop-opacity="0"/>
</linearGradient>
<linearGradient id="paint21_linear_500_7148" x1="7.73438" y1="36.5799" x2="30.042" y2="34.6917" gradientUnits="userSpaceOnUse">
<stop stop-color="white"/>
<stop offset="1" stop-color="white" stop-opacity="0"/>
</linearGradient>
<linearGradient id="paint22_linear_500_7148" x1="7.73438" y1="36.5799" x2="30.042" y2="34.6917" gradientUnits="userSpaceOnUse">
<stop stop-color="white"/>
<stop offset="1" stop-color="white" stop-opacity="0"/>
</linearGradient>
<linearGradient id="paint23_linear_500_7148" x1="7.73438" y1="36.5799" x2="30.042" y2="34.6917" gradientUnits="userSpaceOnUse">
<stop stop-color="white"/>
<stop offset="1" stop-color="white" stop-opacity="0"/>
</linearGradient>
<linearGradient id="paint24_linear_500_7148" x1="7.73438" y1="36.5799" x2="30.042" y2="34.6917" gradientUnits="userSpaceOnUse">
<stop stop-color="white"/>
<stop offset="1" stop-color="white" stop-opacity="0"/>
</linearGradient>
<linearGradient id="paint25_linear_500_7148" x1="51.0313" y1="37.4375" x2="29.25" y2="33.9844" gradientUnits="userSpaceOnUse">
<stop stop-color="white"/>
<stop offset="1" stop-color="#C4C4C4" stop-opacity="0"/>
</linearGradient>
<linearGradient id="paint26_linear_500_7148" x1="50.7656" y1="36.5799" x2="28.458" y2="34.6917" gradientUnits="userSpaceOnUse">
<stop stop-color="white"/>
<stop offset="1" stop-color="white" stop-opacity="0"/>
</linearGradient>
<linearGradient id="paint27_linear_500_7148" x1="50.7656" y1="36.5799" x2="28.458" y2="34.6917" gradientUnits="userSpaceOnUse">
<stop stop-color="white"/>
<stop offset="1" stop-color="white" stop-opacity="0"/>
</linearGradient>
<linearGradient id="paint28_linear_500_7148" x1="50.7656" y1="36.5799" x2="28.458" y2="34.6917" gradientUnits="userSpaceOnUse">
<stop stop-color="white"/>
<stop offset="1" stop-color="white" stop-opacity="0"/>
</linearGradient>
<linearGradient id="paint29_linear_500_7148" x1="50.7656" y1="36.5799" x2="28.458" y2="34.6917" gradientUnits="userSpaceOnUse">
<stop stop-color="white"/>
<stop offset="1" stop-color="white" stop-opacity="0"/>
</linearGradient>
<linearGradient id="paint30_linear_500_7148" x1="49.9687" y1="37.4375" x2="71.75" y2="33.9844" gradientUnits="userSpaceOnUse">
<stop stop-color="white"/>
<stop offset="1" stop-color="#C4C4C4" stop-opacity="0"/>
</linearGradient>
<linearGradient id="paint31_linear_500_7148" x1="50.2344" y1="36.5799" x2="72.542" y2="34.6917" gradientUnits="userSpaceOnUse">
<stop stop-color="white"/>
<stop offset="1" stop-color="white" stop-opacity="0"/>
</linearGradient>
<linearGradient id="paint32_linear_500_7148" x1="50.2344" y1="36.5799" x2="72.542" y2="34.6917" gradientUnits="userSpaceOnUse">
<stop stop-color="white"/>
<stop offset="1" stop-color="white" stop-opacity="0"/>
</linearGradient>
<linearGradient id="paint33_linear_500_7148" x1="50.2344" y1="36.5799" x2="72.542" y2="34.6917" gradientUnits="userSpaceOnUse">
<stop stop-color="white"/>
<stop offset="1" stop-color="white" stop-opacity="0"/>
</linearGradient>
<linearGradient id="paint34_linear_500_7148" x1="50.2344" y1="36.5799" x2="72.542" y2="34.6917" gradientUnits="userSpaceOnUse">
<stop stop-color="white"/>
<stop offset="1" stop-color="white" stop-opacity="0"/>
</linearGradient>
<linearGradient id="paint35_linear_500_7148" x1="93.5313" y1="37.4375" x2="71.75" y2="33.9844" gradientUnits="userSpaceOnUse">
<stop stop-color="white"/>
<stop offset="1" stop-color="#C4C4C4" stop-opacity="0"/>
</linearGradient>
<linearGradient id="paint36_linear_500_7148" x1="93.2656" y1="36.5799" x2="70.958" y2="34.6917" gradientUnits="userSpaceOnUse">
<stop stop-color="white"/>
<stop offset="1" stop-color="white" stop-opacity="0"/>
</linearGradient>
<linearGradient id="paint37_linear_500_7148" x1="93.2656" y1="36.5799" x2="70.958" y2="34.6917" gradientUnits="userSpaceOnUse">
<stop stop-color="white"/>
<stop offset="1" stop-color="white" stop-opacity="0"/>
</linearGradient>
<linearGradient id="paint38_linear_500_7148" x1="93.2656" y1="36.5799" x2="70.958" y2="34.6917" gradientUnits="userSpaceOnUse">
<stop stop-color="white"/>
<stop offset="1" stop-color="white" stop-opacity="0"/>
</linearGradient>
<linearGradient id="paint39_linear_500_7148" x1="93.2656" y1="36.5799" x2="70.958" y2="34.6917" gradientUnits="userSpaceOnUse">
<stop stop-color="white"/>
<stop offset="1" stop-color="white" stop-opacity="0"/>
</linearGradient>
<linearGradient id="paint40_linear_500_7148" x1="7.46875" y1="52.3125" x2="29.25" y2="48.8594" gradientUnits="userSpaceOnUse">
<stop stop-color="white"/>
<stop offset="1" stop-color="#C4C4C4" stop-opacity="0"/>
</linearGradient>
<linearGradient id="paint41_linear_500_7148" x1="7.73438" y1="51.4549" x2="30.042" y2="49.5667" gradientUnits="userSpaceOnUse">
<stop stop-color="white"/>
<stop offset="1" stop-color="white" stop-opacity="0"/>
</linearGradient>
<linearGradient id="paint42_linear_500_7148" x1="7.73438" y1="51.4549" x2="30.042" y2="49.5667" gradientUnits="userSpaceOnUse">
<stop stop-color="white"/>
<stop offset="1" stop-color="white" stop-opacity="0"/>
</linearGradient>
<linearGradient id="paint43_linear_500_7148" x1="7.73438" y1="51.4549" x2="30.042" y2="49.5667" gradientUnits="userSpaceOnUse">
<stop stop-color="white"/>
<stop offset="1" stop-color="white" stop-opacity="0"/>
</linearGradient>
<linearGradient id="paint44_linear_500_7148" x1="7.73438" y1="51.4549" x2="30.042" y2="49.5667" gradientUnits="userSpaceOnUse">
<stop stop-color="white"/>
<stop offset="1" stop-color="white" stop-opacity="0"/>
</linearGradient>
<linearGradient id="paint45_linear_500_7148" x1="51.0313" y1="52.3125" x2="29.25" y2="48.8594" gradientUnits="userSpaceOnUse">
<stop stop-color="white"/>
<stop offset="1" stop-color="#C4C4C4" stop-opacity="0"/>
</linearGradient>
<linearGradient id="paint46_linear_500_7148" x1="50.7656" y1="51.4549" x2="28.458" y2="49.5667" gradientUnits="userSpaceOnUse">
<stop stop-color="white"/>
<stop offset="1" stop-color="white" stop-opacity="0"/>
</linearGradient>
<linearGradient id="paint47_linear_500_7148" x1="50.7656" y1="51.4549" x2="28.458" y2="49.5667" gradientUnits="userSpaceOnUse">
<stop stop-color="white"/>
<stop offset="1" stop-color="white" stop-opacity="0"/>
</linearGradient>
<linearGradient id="paint48_linear_500_7148" x1="50.7656" y1="51.4549" x2="28.458" y2="49.5667" gradientUnits="userSpaceOnUse">
<stop stop-color="white"/>
<stop offset="1" stop-color="white" stop-opacity="0"/>
</linearGradient>
<linearGradient id="paint49_linear_500_7148" x1="50.7656" y1="51.4549" x2="28.458" y2="49.5667" gradientUnits="userSpaceOnUse">
<stop stop-color="white"/>
<stop offset="1" stop-color="white" stop-opacity="0"/>
</linearGradient>
<linearGradient id="paint50_linear_500_7148" x1="49.9687" y1="52.3125" x2="71.75" y2="48.8594" gradientUnits="userSpaceOnUse">
<stop stop-color="white"/>
<stop offset="1" stop-color="#C4C4C4" stop-opacity="0"/>
</linearGradient>
<linearGradient id="paint51_linear_500_7148" x1="50.2344" y1="51.4549" x2="72.542" y2="49.5667" gradientUnits="userSpaceOnUse">
<stop stop-color="white"/>
<stop offset="1" stop-color="white" stop-opacity="0"/>
</linearGradient>
<linearGradient id="paint52_linear_500_7148" x1="50.2344" y1="51.4549" x2="72.542" y2="49.5667" gradientUnits="userSpaceOnUse">
<stop stop-color="white"/>
<stop offset="1" stop-color="white" stop-opacity="0"/>
</linearGradient>
<linearGradient id="paint53_linear_500_7148" x1="50.2344" y1="51.4549" x2="72.542" y2="49.5667" gradientUnits="userSpaceOnUse">
<stop stop-color="white"/>
<stop offset="1" stop-color="white" stop-opacity="0"/>
</linearGradient>
<linearGradient id="paint54_linear_500_7148" x1="50.2344" y1="51.4549" x2="72.542" y2="49.5667" gradientUnits="userSpaceOnUse">
<stop stop-color="white"/>
<stop offset="1" stop-color="white" stop-opacity="0"/>
</linearGradient>
<linearGradient id="paint55_linear_500_7148" x1="93.5313" y1="52.3125" x2="71.75" y2="48.8594" gradientUnits="userSpaceOnUse">
<stop stop-color="white"/>
<stop offset="1" stop-color="#C4C4C4" stop-opacity="0"/>
</linearGradient>
<linearGradient id="paint56_linear_500_7148" x1="93.2656" y1="51.4549" x2="70.958" y2="49.5667" gradientUnits="userSpaceOnUse">
<stop stop-color="white"/>
<stop offset="1" stop-color="white" stop-opacity="0"/>
</linearGradient>
<linearGradient id="paint57_linear_500_7148" x1="93.2656" y1="51.4549" x2="70.958" y2="49.5667" gradientUnits="userSpaceOnUse">
<stop stop-color="white"/>
<stop offset="1" stop-color="white" stop-opacity="0"/>
</linearGradient>
<linearGradient id="paint58_linear_500_7148" x1="93.2656" y1="51.4549" x2="70.958" y2="49.5667" gradientUnits="userSpaceOnUse">
<stop stop-color="white"/>
<stop offset="1" stop-color="white" stop-opacity="0"/>
</linearGradient>
<linearGradient id="paint59_linear_500_7148" x1="93.2656" y1="51.4549" x2="70.958" y2="49.5667" gradientUnits="userSpaceOnUse">
<stop stop-color="white"/>
<stop offset="1" stop-color="white" stop-opacity="0"/>
</linearGradient>
<linearGradient id="paint60_linear_500_7148" x1="7.46875" y1="67.1875" x2="29.25" y2="63.7344" gradientUnits="userSpaceOnUse">
<stop stop-color="white"/>
<stop offset="1" stop-color="#C4C4C4" stop-opacity="0"/>
</linearGradient>
<linearGradient id="paint61_linear_500_7148" x1="7.73438" y1="66.3299" x2="30.042" y2="64.4417" gradientUnits="userSpaceOnUse">
<stop stop-color="white"/>
<stop offset="1" stop-color="white" stop-opacity="0"/>
</linearGradient>
<linearGradient id="paint62_linear_500_7148" x1="7.73438" y1="66.3299" x2="30.042" y2="64.4417" gradientUnits="userSpaceOnUse">
<stop stop-color="white"/>
<stop offset="1" stop-color="white" stop-opacity="0"/>
</linearGradient>
<linearGradient id="paint63_linear_500_7148" x1="7.73438" y1="66.3299" x2="30.042" y2="64.4417" gradientUnits="userSpaceOnUse">
<stop stop-color="white"/>
<stop offset="1" stop-color="white" stop-opacity="0"/>
</linearGradient>
<linearGradient id="paint64_linear_500_7148" x1="7.73438" y1="66.3299" x2="30.042" y2="64.4417" gradientUnits="userSpaceOnUse">
<stop stop-color="white"/>
<stop offset="1" stop-color="white" stop-opacity="0"/>
</linearGradient>
<linearGradient id="paint65_linear_500_7148" x1="51.0313" y1="67.1875" x2="29.25" y2="63.7344" gradientUnits="userSpaceOnUse">
<stop stop-color="white"/>
<stop offset="1" stop-color="#C4C4C4" stop-opacity="0"/>
</linearGradient>
<linearGradient id="paint66_linear_500_7148" x1="50.7656" y1="66.3299" x2="28.458" y2="64.4417" gradientUnits="userSpaceOnUse">
<stop stop-color="white"/>
<stop offset="1" stop-color="white" stop-opacity="0"/>
</linearGradient>
<linearGradient id="paint67_linear_500_7148" x1="50.7656" y1="66.3299" x2="28.458" y2="64.4417" gradientUnits="userSpaceOnUse">
<stop stop-color="white"/>
<stop offset="1" stop-color="white" stop-opacity="0"/>
</linearGradient>
<linearGradient id="paint68_linear_500_7148" x1="50.7656" y1="66.3299" x2="28.458" y2="64.4417" gradientUnits="userSpaceOnUse">
<stop stop-color="white"/>
<stop offset="1" stop-color="white" stop-opacity="0"/>
</linearGradient>
<linearGradient id="paint69_linear_500_7148" x1="50.7656" y1="66.3299" x2="28.458" y2="64.4417" gradientUnits="userSpaceOnUse">
<stop stop-color="white"/>
<stop offset="1" stop-color="white" stop-opacity="0"/>
</linearGradient>
<linearGradient id="paint70_linear_500_7148" x1="49.9687" y1="67.1875" x2="71.75" y2="63.7344" gradientUnits="userSpaceOnUse">
<stop stop-color="white"/>
<stop offset="1" stop-color="#C4C4C4" stop-opacity="0"/>
</linearGradient>
<linearGradient id="paint71_linear_500_7148" x1="50.2344" y1="66.3299" x2="72.542" y2="64.4417" gradientUnits="userSpaceOnUse">
<stop stop-color="white"/>
<stop offset="1" stop-color="white" stop-opacity="0"/>
</linearGradient>
<linearGradient id="paint72_linear_500_7148" x1="50.2344" y1="66.3299" x2="72.542" y2="64.4417" gradientUnits="userSpaceOnUse">
<stop stop-color="white"/>
<stop offset="1" stop-color="white" stop-opacity="0"/>
</linearGradient>
<linearGradient id="paint73_linear_500_7148" x1="50.2344" y1="66.3299" x2="72.542" y2="64.4417" gradientUnits="userSpaceOnUse">
<stop stop-color="white"/>
<stop offset="1" stop-color="white" stop-opacity="0"/>
</linearGradient>
<linearGradient id="paint74_linear_500_7148" x1="50.2344" y1="66.3299" x2="72.542" y2="64.4417" gradientUnits="userSpaceOnUse">
<stop stop-color="white"/>
<stop offset="1" stop-color="white" stop-opacity="0"/>
</linearGradient>
<linearGradient id="paint75_linear_500_7148" x1="93.5313" y1="67.1875" x2="71.75" y2="63.7344" gradientUnits="userSpaceOnUse">
<stop stop-color="white"/>
<stop offset="1" stop-color="#C4C4C4" stop-opacity="0"/>
</linearGradient>
<linearGradient id="paint76_linear_500_7148" x1="93.2656" y1="66.3299" x2="70.958" y2="64.4417" gradientUnits="userSpaceOnUse">
<stop stop-color="white"/>
<stop offset="1" stop-color="white" stop-opacity="0"/>
</linearGradient>
<linearGradient id="paint77_linear_500_7148" x1="93.2656" y1="66.3299" x2="70.958" y2="64.4417" gradientUnits="userSpaceOnUse">
<stop stop-color="white"/>
<stop offset="1" stop-color="white" stop-opacity="0"/>
</linearGradient>
<linearGradient id="paint78_linear_500_7148" x1="93.2656" y1="66.3299" x2="70.958" y2="64.4417" gradientUnits="userSpaceOnUse">
<stop stop-color="white"/>
<stop offset="1" stop-color="white" stop-opacity="0"/>
</linearGradient>
<linearGradient id="paint79_linear_500_7148" x1="93.2656" y1="66.3299" x2="70.958" y2="64.4417" gradientUnits="userSpaceOnUse">
<stop stop-color="white"/>
<stop offset="1" stop-color="white" stop-opacity="0"/>
</linearGradient>
<linearGradient id="paint80_linear_500_7148" x1="7.46875" y1="82.0625" x2="29.25" y2="78.6094" gradientUnits="userSpaceOnUse">
<stop stop-color="white"/>
<stop offset="1" stop-color="#C4C4C4" stop-opacity="0"/>
</linearGradient>
<linearGradient id="paint81_linear_500_7148" x1="7.73438" y1="81.2049" x2="30.042" y2="79.3167" gradientUnits="userSpaceOnUse">
<stop stop-color="white"/>
<stop offset="1" stop-color="white" stop-opacity="0"/>
</linearGradient>
<linearGradient id="paint82_linear_500_7148" x1="7.73438" y1="81.2049" x2="30.042" y2="79.3167" gradientUnits="userSpaceOnUse">
<stop stop-color="white"/>
<stop offset="1" stop-color="white" stop-opacity="0"/>
</linearGradient>
<linearGradient id="paint83_linear_500_7148" x1="7.73438" y1="81.2049" x2="30.042" y2="79.3167" gradientUnits="userSpaceOnUse">
<stop stop-color="white"/>
<stop offset="1" stop-color="white" stop-opacity="0"/>
</linearGradient>
<linearGradient id="paint84_linear_500_7148" x1="7.73438" y1="81.2049" x2="30.042" y2="79.3167" gradientUnits="userSpaceOnUse">
<stop stop-color="white"/>
<stop offset="1" stop-color="white" stop-opacity="0"/>
</linearGradient>
<linearGradient id="paint85_linear_500_7148" x1="51.0313" y1="82.0625" x2="29.25" y2="78.6094" gradientUnits="userSpaceOnUse">
<stop stop-color="white"/>
<stop offset="1" stop-color="#C4C4C4" stop-opacity="0"/>
</linearGradient>
<linearGradient id="paint86_linear_500_7148" x1="50.7656" y1="81.2049" x2="28.458" y2="79.3167" gradientUnits="userSpaceOnUse">
<stop stop-color="white"/>
<stop offset="1" stop-color="white" stop-opacity="0"/>
</linearGradient>
<linearGradient id="paint87_linear_500_7148" x1="50.7656" y1="81.2049" x2="28.458" y2="79.3167" gradientUnits="userSpaceOnUse">
<stop stop-color="white"/>
<stop offset="1" stop-color="white" stop-opacity="0"/>
</linearGradient>
<linearGradient id="paint88_linear_500_7148" x1="50.7656" y1="81.2049" x2="28.458" y2="79.3167" gradientUnits="userSpaceOnUse">
<stop stop-color="white"/>
<stop offset="1" stop-color="white" stop-opacity="0"/>
</linearGradient>
<linearGradient id="paint89_linear_500_7148" x1="50.7656" y1="81.2049" x2="28.458" y2="79.3167" gradientUnits="userSpaceOnUse">
<stop stop-color="white"/>
<stop offset="1" stop-color="white" stop-opacity="0"/>
</linearGradient>
<linearGradient id="paint90_linear_500_7148" x1="49.9687" y1="82.0625" x2="71.75" y2="78.6094" gradientUnits="userSpaceOnUse">
<stop stop-color="white"/>
<stop offset="1" stop-color="#C4C4C4" stop-opacity="0"/>
</linearGradient>
<linearGradient id="paint91_linear_500_7148" x1="50.2344" y1="81.2049" x2="72.542" y2="79.3167" gradientUnits="userSpaceOnUse">
<stop stop-color="white"/>
<stop offset="1" stop-color="white" stop-opacity="0"/>
</linearGradient>
<linearGradient id="paint92_linear_500_7148" x1="50.2344" y1="81.2049" x2="72.542" y2="79.3167" gradientUnits="userSpaceOnUse">
<stop stop-color="white"/>
<stop offset="1" stop-color="white" stop-opacity="0"/>
</linearGradient>
<linearGradient id="paint93_linear_500_7148" x1="50.2344" y1="81.2049" x2="72.542" y2="79.3167" gradientUnits="userSpaceOnUse">
<stop stop-color="white"/>
<stop offset="1" stop-color="white" stop-opacity="0"/>
</linearGradient>
<linearGradient id="paint94_linear_500_7148" x1="50.2344" y1="81.2049" x2="72.542" y2="79.3167" gradientUnits="userSpaceOnUse">
<stop stop-color="white"/>
<stop offset="1" stop-color="white" stop-opacity="0"/>
</linearGradient>
<linearGradient id="paint95_linear_500_7148" x1="93.5313" y1="82.0625" x2="71.75" y2="78.6094" gradientUnits="userSpaceOnUse">
<stop stop-color="white"/>
<stop offset="1" stop-color="#C4C4C4" stop-opacity="0"/>
</linearGradient>
<linearGradient id="paint96_linear_500_7148" x1="93.2656" y1="81.2049" x2="70.958" y2="79.3167" gradientUnits="userSpaceOnUse">
<stop stop-color="white"/>
<stop offset="1" stop-color="white" stop-opacity="0"/>
</linearGradient>
<linearGradient id="paint97_linear_500_7148" x1="93.2656" y1="81.2049" x2="70.958" y2="79.3167" gradientUnits="userSpaceOnUse">
<stop stop-color="white"/>
<stop offset="1" stop-color="white" stop-opacity="0"/>
</linearGradient>
<linearGradient id="paint98_linear_500_7148" x1="93.2656" y1="81.2049" x2="70.958" y2="79.3167" gradientUnits="userSpaceOnUse">
<stop stop-color="white"/>
<stop offset="1" stop-color="white" stop-opacity="0"/>
</linearGradient>
<linearGradient id="paint99_linear_500_7148" x1="93.2656" y1="81.2049" x2="70.958" y2="79.3167" gradientUnits="userSpaceOnUse">
<stop stop-color="white"/>
<stop offset="1" stop-color="white" stop-opacity="0"/>
</linearGradient>
</defs>
</svg>
