<svg width="100" height="100" viewBox="0 0 100 100" fill="none" xmlns="http://www.w3.org/2000/svg">
<path d="M26.9231 59.2308H40.7692V73.0769H26.9231V59.2308Z" fill="url(#paint0_radial_501_7756)"/>
<path d="M40.7692 26.9231H26.9231V40.7692H40.7692V26.9231Z" fill="url(#paint1_radial_501_7756)"/>
<path d="M59.2308 26.9231H73.0769V40.7692H59.2308V26.9231Z" fill="url(#paint2_radial_501_7756)"/>
<path d="M59.2308 59.2308H73.0769V73.0769H59.2308V59.2308Z" fill="url(#paint3_radial_501_7756)"/>
<path fill-rule="evenodd" clip-rule="evenodd" d="M52.3077 43.0769H47.6923V20H20V47.6923H43.0769V52.3077H20V80H47.6923V56.9231H52.3077V80H80V52.3077H56.9231V47.6923H80V20H52.3077V43.0769ZM46.5385 21.1538H21.1538V46.5385H43.0769V44.2308H23.4615V23.4615H44.2308V46.5385H46.5385V21.1538ZM46.5385 47.6923H44.2308V52.3077H46.5385V47.6923ZM47.6923 47.6923V52.3077H52.3077V47.6923H47.6923ZM52.3077 46.5385V44.2308H47.6923V46.5385H52.3077ZM53.4615 47.6923V52.3077H55.7692V47.6923H53.4615ZM53.4615 21.1538H78.8462V46.5385H76.5385V23.4615H55.7692V46.5385H53.4615V21.1538ZM46.5385 53.4615H44.2308V78.8462H46.5385V53.4615ZM47.6923 55.7692H52.3077V53.4615H47.6923V55.7692ZM53.4615 78.8462H75.3846V76.5385H55.7692V53.4615H53.4615V78.8462ZM56.9231 53.4615H78.8462V78.8462H76.5385V55.7692H56.9231V53.4615ZM43.0769 53.4615V55.7692H23.4615V76.5385H43.0769V78.8462H21.1538V53.4615H43.0769ZM24.6154 56.9231H43.0769V75.3846H24.6154V56.9231ZM43.0769 43.0769H24.6154V24.6154H43.0769V43.0769ZM56.9231 43.0769H75.3846V24.6154H56.9231V43.0769ZM56.9231 44.2308V46.5385H75.3846V44.2308H56.9231ZM56.9231 56.9231V75.3846H75.3846V56.9231H56.9231Z" fill="url(#paint4_radial_501_7756)"/>
<defs>
<radialGradient id="paint0_radial_501_7756" cx="0" cy="0" r="1" gradientUnits="userSpaceOnUse" gradientTransform="translate(50 50) rotate(133.919) scale(43.25)">
<stop stop-color="white"/>
<stop offset="0.476009" stop-color="white"/>
<stop offset="1" stop-color="white" stop-opacity="0"/>
</radialGradient>
<radialGradient id="paint1_radial_501_7756" cx="0" cy="0" r="1" gradientUnits="userSpaceOnUse" gradientTransform="translate(50 50) rotate(133.919) scale(43.25)">
<stop stop-color="white"/>
<stop offset="0.476009" stop-color="white"/>
<stop offset="1" stop-color="white" stop-opacity="0"/>
</radialGradient>
<radialGradient id="paint2_radial_501_7756" cx="0" cy="0" r="1" gradientUnits="userSpaceOnUse" gradientTransform="translate(50 50) rotate(133.919) scale(43.25)">
<stop stop-color="white"/>
<stop offset="0.476009" stop-color="white"/>
<stop offset="1" stop-color="white" stop-opacity="0"/>
</radialGradient>
<radialGradient id="paint3_radial_501_7756" cx="0" cy="0" r="1" gradientUnits="userSpaceOnUse" gradientTransform="translate(50 50) rotate(133.919) scale(43.25)">
<stop stop-color="white"/>
<stop offset="0.476009" stop-color="white"/>
<stop offset="1" stop-color="white" stop-opacity="0"/>
</radialGradient>
<radialGradient id="paint4_radial_501_7756" cx="0" cy="0" r="1" gradientUnits="userSpaceOnUse" gradientTransform="translate(50 50) rotate(133.919) scale(43.25)">
<stop stop-color="white"/>
<stop offset="0.476009" stop-color="white"/>
<stop offset="1" stop-color="white" stop-opacity="0"/>
</radialGradient>
</defs>
</svg>
