<svg width="100" height="100" viewBox="0 0 100 100" fill="none" xmlns="http://www.w3.org/2000/svg">
<path fill-rule="evenodd" clip-rule="evenodd" d="M80 32L50 15L20 32V66.9615L50 84L80 66.9615V32ZM59.7378 32L50.9747 16.7017L77.9717 32H59.7378ZM58.5854 32L49.9999 17.0119L41.4145 32H58.5854ZM40.8417 33H59.1582L68.4665 49.25L59.1582 65.5H40.8417L31.5335 49.25L40.8417 33ZM40.2621 32L49.0251 16.7019L22.0283 32H40.2621ZM21 32.8729V65.6271L30.381 49.25L21 32.8729ZM30.9573 48.2441L22.2253 33H39.6893L30.9573 48.2441ZM30.9573 50.2559L22.2253 65.5H39.6893L30.9573 50.2559ZM40.2621 66.5H21.2123L49.448 82.5364L40.2621 66.5ZM50.5518 82.5366L78.7877 66.5H59.7378L50.5518 82.5366ZM58.5854 66.5H41.4145L49.9999 81.4881L58.5854 66.5ZM60.3106 65.5H77.7747L69.0427 50.2559L60.3106 65.5ZM69.6189 49.25L79 65.6271V32.8729L69.6189 49.25ZM69.0427 48.2441L60.3106 33H77.7747L69.0427 48.2441Z" fill="url(#paint0_radial_500_6904)"/>
<defs>
<radialGradient id="paint0_radial_500_6904" cx="0" cy="0" r="1" gradientUnits="userSpaceOnUse" gradientTransform="translate(50 49.5) rotate(54.3236) scale(48.0104 41.7482)">
<stop stop-color="white"/>
<stop offset="1" stop-color="white" stop-opacity="0"/>
</radialGradient>
</defs>
</svg>
