<svg width="100" height="100" viewBox="0 0 100 100" fill="none" xmlns="http://www.w3.org/2000/svg">
<path d="M49 17C44.7977 17 40.6365 17.8277 36.7541 19.4359C32.8717 21.044 29.3441 23.4011 26.3726 26.3726C23.4011 29.3441 21.044 32.8717 19.4359 36.7541C17.8277 40.6366 17 44.7977 17 49L49 49V17Z" fill="url(#paint0_linear_500_6604)"/>
<path d="M49 25C45.8483 25 42.7274 25.6208 39.8156 26.8269C36.9038 28.033 34.258 29.8008 32.0294 32.0294C29.8008 34.258 28.033 36.9038 26.8269 39.8156C25.6208 42.7274 25 45.8483 25 49L49 49V37V25Z" fill="url(#paint1_linear_500_6604)"/>
<path d="M51 21C54.677 21 58.318 21.7242 61.7151 23.1314C65.1123 24.5385 68.199 26.601 70.799 29.201C73.399 31.8011 75.4615 34.8877 76.8686 38.2849C78.2758 41.682 79 45.323 79 49L51 49L51 21Z" fill="url(#paint2_linear_500_6604)"/>
<path d="M51 83C55.2023 83 59.3635 82.1723 63.2459 80.5641C67.1283 78.956 70.6559 76.5989 73.6274 73.6274C76.5989 70.6559 78.956 67.1283 80.5641 63.2459C82.1723 59.3634 83 55.2023 83 51L51 51V83Z" fill="url(#paint3_linear_500_6604)"/>
<path d="M51 75C54.1517 75 57.2726 74.3792 60.1844 73.1731C63.0962 71.967 65.742 70.1992 67.9706 67.9706C70.1992 65.742 71.967 63.0962 73.1731 60.1844C74.3792 57.2726 75 54.1517 75 51L51 51V63V75Z" fill="url(#paint4_linear_500_6604)"/>
<path d="M49 79C45.323 79 41.682 78.2758 38.2849 76.8686C34.8877 75.4615 31.801 73.399 29.201 70.799C26.601 68.1989 24.5385 65.1123 23.1314 61.7151C21.7242 58.318 21 54.677 21 51L49 51L49 79Z" fill="url(#paint5_linear_500_6604)"/>
<defs>
<linearGradient id="paint0_linear_500_6604" x1="24.5" y1="26.5" x2="48" y2="49.5" gradientUnits="userSpaceOnUse">
<stop stop-color="white"/>
<stop offset="1" stop-opacity="0"/>
</linearGradient>
<linearGradient id="paint1_linear_500_6604" x1="33" y1="31" x2="48.5" y2="49.5" gradientUnits="userSpaceOnUse">
<stop stop-color="white"/>
<stop offset="1" stop-opacity="0"/>
</linearGradient>
<linearGradient id="paint2_linear_500_6604" x1="72" y1="29.5" x2="51" y2="49" gradientUnits="userSpaceOnUse">
<stop stop-color="white"/>
<stop offset="1" stop-color="#C4C4C4" stop-opacity="0"/>
<stop offset="1" stop-opacity="0"/>
</linearGradient>
<linearGradient id="paint3_linear_500_6604" x1="75.5" y1="73.5" x2="52" y2="50.5" gradientUnits="userSpaceOnUse">
<stop stop-color="white"/>
<stop offset="1" stop-opacity="0"/>
</linearGradient>
<linearGradient id="paint4_linear_500_6604" x1="67" y1="69" x2="51.5" y2="50.5" gradientUnits="userSpaceOnUse">
<stop stop-color="white"/>
<stop offset="1" stop-opacity="0"/>
</linearGradient>
<linearGradient id="paint5_linear_500_6604" x1="28" y1="70.5" x2="49" y2="51" gradientUnits="userSpaceOnUse">
<stop stop-color="white"/>
<stop offset="1" stop-color="#C4C4C4" stop-opacity="0"/>
<stop offset="1" stop-opacity="0"/>
</linearGradient>
</defs>
</svg>
