<svg width="100" height="100" viewBox="0 0 100 100" fill="none" xmlns="http://www.w3.org/2000/svg">
<path fill-rule="evenodd" clip-rule="evenodd" d="M49 17V49H17V17H49ZM48.1464 17.5H33.25V21H44.6464L48.1464 17.5ZM44.1464 21.5H33.25V25H40.6464L44.1464 21.5ZM41 25.3536L44.5 21.8536V32.75H41V25.3536ZM40.1464 25.5H33.25V29H36.6464L40.1464 25.5ZM37 29.3536L40.5 25.8536V32.75H37V29.3536ZM36.1464 29.5H33.25V32.3964L36.1464 29.5ZM33.6036 32.75L36.5 29.8536V32.75H33.6036ZM45 21.3536L48.5 17.8536V32.75H45V21.3536ZM48.5 48.1464L45 44.6464V33.25H48.5V48.1464ZM48.1464 48.5L44.6464 45H33.25V48.5H48.1464ZM44.5 44.1464V33.25H41V40.6464L44.5 44.1464ZM40.6464 41L44.1464 44.5H33.25V41H40.6464ZM40.5 40.1464V33.25H37V36.6464L40.5 40.1464ZM36.6464 37L40.1464 40.5H33.25V37H36.6464ZM36.5 36.1464V33.25H33.6036L36.5 36.1464ZM33.25 33.6036L36.1464 36.5H33.25V33.6036ZM32.75 45V48.5H17.8536L21.3536 45H32.75ZM21 44.6464L17.5 48.1464V33.25H21V44.6464ZM32.75 44.5H21.8536L25.3536 41H32.75V44.5ZM21.5 44.1464L25 40.6464V33.25H21.5V44.1464ZM32.75 40.5H25.8536L29.3536 37H32.75V40.5ZM25.5 40.1464L29 36.6464V33.25H25.5V40.1464ZM32.75 36.5H29.8536L32.75 33.6036V36.5ZM29.5 36.1464L32.3964 33.25H29.5V36.1464ZM32.75 29.5V32.3964L29.8536 29.5H32.75ZM29.5 32.75H32.3964L29.5 29.8536V32.75ZM29 29.3536L25.5 25.8536V32.75H29V29.3536ZM29.3536 29L25.8536 25.5H32.75V29H29.3536ZM25.3536 25L21.8536 21.5H32.75V25H25.3536ZM21.5 32.75V21.8536L25 25.3536V32.75H21.5ZM21 21.3536L17.5 17.8536V32.75H21V21.3536ZM21.3536 21L17.8536 17.5H32.75V21H21.3536Z" fill="url(#paint0_radial_500_6981)"/>
<path fill-rule="evenodd" clip-rule="evenodd" d="M83 17V49H51V17H83ZM82.1464 17.5H67.25V21H78.6464L82.1464 17.5ZM78.1464 21.5H67.25V25H74.6464L78.1464 21.5ZM75 25.3536L78.5 21.8536V32.75H75V25.3536ZM74.1464 25.5H67.25V29H70.6464L74.1464 25.5ZM71 29.3536L74.5 25.8536V32.75H71V29.3536ZM70.1464 29.5H67.25V32.3964L70.1464 29.5ZM67.6036 32.75L70.5 29.8536V32.75H67.6036ZM79 21.3536L82.5 17.8536V32.75H79V21.3536ZM82.5 48.1464L79 44.6464V33.25H82.5V48.1464ZM82.1464 48.5L78.6464 45H67.25V48.5H82.1464ZM78.5 44.1464V33.25H75V40.6464L78.5 44.1464ZM74.6464 41L78.1464 44.5H67.25V41H74.6464ZM74.5 40.1464V33.25H71V36.6464L74.5 40.1464ZM70.6464 37L74.1464 40.5H67.25V37H70.6464ZM70.5 36.1464V33.25H67.6036L70.5 36.1464ZM67.25 33.6036L70.1464 36.5H67.25V33.6036ZM66.75 45V48.5H51.8536L55.3536 45H66.75ZM55 44.6464L51.5 48.1464V33.25H55V44.6464ZM66.75 44.5H55.8536L59.3536 41H66.75V44.5ZM55.5 44.1464L59 40.6464V33.25H55.5V44.1464ZM66.75 40.5H59.8536L63.3536 37H66.75V40.5ZM59.5 40.1464L63 36.6464V33.25H59.5V40.1464ZM66.75 36.5H63.8536L66.75 33.6036V36.5ZM63.5 36.1464L66.3964 33.25H63.5V36.1464ZM66.75 29.5V32.3964L63.8536 29.5H66.75ZM63.5 32.75H66.3964L63.5 29.8536V32.75ZM63 29.3536L59.5 25.8536V32.75H63V29.3536ZM63.3536 29L59.8536 25.5H66.75V29H63.3536ZM59.3536 25L55.8536 21.5H66.75V25H59.3536ZM55.5 32.75V21.8536L59 25.3536V32.75H55.5ZM55 21.3536L51.5 17.8536V32.75H55V21.3536ZM55.3536 21L51.8536 17.5H66.75V21H55.3536Z" fill="url(#paint1_radial_500_6981)"/>
<path fill-rule="evenodd" clip-rule="evenodd" d="M49 51V83H17V51H49ZM48.1464 51.5H33.25V55H44.6464L48.1464 51.5ZM44.1464 55.5H33.25V59H40.6464L44.1464 55.5ZM41 59.3536L44.5 55.8536V66.75H41V59.3536ZM40.1464 59.5H33.25V63H36.6464L40.1464 59.5ZM37 63.3536L40.5 59.8536V66.75H37V63.3536ZM36.1464 63.5H33.25V66.3964L36.1464 63.5ZM33.6036 66.75L36.5 63.8536V66.75H33.6036ZM45 55.3536L48.5 51.8536V66.75H45V55.3536ZM48.5 82.1464L45 78.6464V67.25H48.5V82.1464ZM48.1464 82.5L44.6464 79H33.25V82.5H48.1464ZM44.5 78.1464V67.25H41V74.6464L44.5 78.1464ZM40.6464 75L44.1464 78.5H33.25V75H40.6464ZM40.5 74.1464V67.25H37V70.6464L40.5 74.1464ZM36.6464 71L40.1464 74.5H33.25V71H36.6464ZM36.5 70.1464V67.25H33.6036L36.5 70.1464ZM33.25 67.6036L36.1464 70.5H33.25V67.6036ZM32.75 79V82.5H17.8536L21.3536 79H32.75ZM21 78.6464L17.5 82.1464V67.25H21V78.6464ZM32.75 78.5H21.8536L25.3536 75H32.75V78.5ZM21.5 78.1464L25 74.6464V67.25H21.5V78.1464ZM32.75 74.5H25.8536L29.3536 71H32.75V74.5ZM25.5 74.1464L29 70.6464V67.25H25.5V74.1464ZM32.75 70.5H29.8536L32.75 67.6036V70.5ZM29.5 70.1464L32.3964 67.25H29.5V70.1464ZM32.75 63.5V66.3964L29.8536 63.5H32.75ZM29.5 66.75H32.3964L29.5 63.8536V66.75ZM29 63.3536L25.5 59.8536V66.75H29V63.3536ZM29.3536 63L25.8536 59.5H32.75V63H29.3536ZM25.3536 59L21.8536 55.5H32.75V59H25.3536ZM21.5 66.75V55.8536L25 59.3536V66.75H21.5ZM21 55.3536L17.5 51.8536V66.75H21V55.3536ZM21.3536 55L17.8536 51.5H32.75V55H21.3536Z" fill="url(#paint2_radial_500_6981)"/>
<path fill-rule="evenodd" clip-rule="evenodd" d="M83 51V83H51V51H83ZM82.1464 51.5H67.25V55H78.6464L82.1464 51.5ZM78.1464 55.5H67.25V59H74.6464L78.1464 55.5ZM75 59.3536L78.5 55.8536V66.75H75V59.3536ZM74.1464 59.5H67.25V63H70.6464L74.1464 59.5ZM71 63.3536L74.5 59.8536V66.75H71V63.3536ZM70.1464 63.5H67.25V66.3964L70.1464 63.5ZM67.6036 66.75L70.5 63.8536V66.75H67.6036ZM79 55.3536L82.5 51.8536V66.75H79V55.3536ZM82.5 82.1464L79 78.6464V67.25H82.5V82.1464ZM82.1464 82.5L78.6464 79H67.25V82.5H82.1464ZM78.5 78.1464V67.25H75V74.6464L78.5 78.1464ZM74.6464 75L78.1464 78.5H67.25V75H74.6464ZM74.5 74.1464V67.25H71V70.6464L74.5 74.1464ZM70.6464 71L74.1464 74.5H67.25V71H70.6464ZM70.5 70.1464V67.25H67.6036L70.5 70.1464ZM67.25 67.6036L70.1464 70.5H67.25V67.6036ZM66.75 79V82.5H51.8536L55.3536 79H66.75ZM55 78.6464L51.5 82.1464V67.25H55V78.6464ZM66.75 78.5H55.8536L59.3536 75H66.75V78.5ZM55.5 78.1464L59 74.6464V67.25H55.5V78.1464ZM66.75 74.5H59.8536L63.3536 71H66.75V74.5ZM59.5 74.1464L63 70.6464V67.25H59.5V74.1464ZM66.75 70.5H63.8536L66.75 67.6036V70.5ZM63.5 70.1464L66.3964 67.25H63.5V70.1464ZM66.75 63.5V66.3964L63.8536 63.5H66.75ZM63.5 66.75H66.3964L63.5 63.8536V66.75ZM63 63.3536L59.5 59.8536V66.75H63V63.3536ZM63.3536 63L59.8536 59.5H66.75V63H63.3536ZM59.3536 59L55.8536 55.5H66.75V59H59.3536ZM55.5 66.75V55.8536L59 59.3536V66.75H55.5ZM55 55.3536L51.5 51.8536V66.75H55V55.3536ZM55.3536 55L51.8536 51.5H66.75V55H55.3536Z" fill="url(#paint3_radial_500_6981)"/>
<defs>
<radialGradient id="paint0_radial_500_6981" cx="0" cy="0" r="1" gradientUnits="userSpaceOnUse" gradientTransform="translate(33 33) rotate(51.3402) scale(25.6125)">
<stop stop-color="white"/>
<stop offset="1" stop-color="white" stop-opacity="0"/>
</radialGradient>
<radialGradient id="paint1_radial_500_6981" cx="0" cy="0" r="1" gradientUnits="userSpaceOnUse" gradientTransform="translate(67 33) rotate(51.3402) scale(25.6125)">
<stop stop-color="white"/>
<stop offset="1" stop-color="white" stop-opacity="0"/>
</radialGradient>
<radialGradient id="paint2_radial_500_6981" cx="0" cy="0" r="1" gradientUnits="userSpaceOnUse" gradientTransform="translate(33 67) rotate(51.3402) scale(25.6125)">
<stop stop-color="white"/>
<stop offset="1" stop-color="white" stop-opacity="0"/>
</radialGradient>
<radialGradient id="paint3_radial_500_6981" cx="0" cy="0" r="1" gradientUnits="userSpaceOnUse" gradientTransform="translate(67 67) rotate(51.3402) scale(25.6125)">
<stop stop-color="white"/>
<stop offset="1" stop-color="white" stop-opacity="0"/>
</radialGradient>
</defs>
</svg>
