<svg width="100" height="100" viewBox="0 0 100 100" fill="none" xmlns="http://www.w3.org/2000/svg">
<path d="M48.7368 31.4737V18H51.2632V31.4737H48.7368Z" fill="url(#paint0_linear_500_6088)"/>
<path d="M46.9505 48.7368L38.3886 40.1749L40.1749 38.3885L48.7368 46.9504V34.8421H51.2632V46.9504L59.8251 38.3885L61.6114 40.1749L53.0495 48.7368H65.1579V51.2632H53.0496L61.6114 59.825L59.8251 61.6114L51.2632 53.0495V65.1579H48.7368V53.0495L40.1749 61.6114L38.3886 59.825L46.9504 51.2632H34.8421V48.7368H46.9505Z" fill="url(#paint1_linear_500_6088)"/>
<path d="M18 48.7368H31.4737V51.2632H18V48.7368Z" fill="url(#paint2_linear_500_6088)"/>
<path d="M68.5263 48.7368H82V51.2632H68.5263V48.7368Z" fill="url(#paint3_linear_500_6088)"/>
<path d="M48.7368 68.5263V82H51.2632V68.5263H48.7368Z" fill="url(#paint4_linear_500_6088)"/>
<path d="M36.0067 62.2068L26.4794 71.7342L28.2658 73.5205L37.7931 63.9932L36.0067 62.2068Z" fill="url(#paint5_linear_500_6088)"/>
<path d="M62.2069 36.0067L71.7342 26.4793L73.5206 28.2657L63.9933 37.793L62.2069 36.0067Z" fill="url(#paint6_linear_500_6088)"/>
<path d="M63.9933 62.2068L73.5206 71.7342L71.7342 73.5205L62.2069 63.9932L63.9933 62.2068Z" fill="url(#paint7_linear_500_6088)"/>
<path d="M37.7931 36.0067L28.2658 26.4793L26.4794 28.2657L36.0067 37.793L37.7931 36.0067Z" fill="url(#paint8_linear_500_6088)"/>
<defs>
<linearGradient id="paint0_linear_500_6088" x1="29.3684" y1="23.8947" x2="63.4737" y2="82.4211" gradientUnits="userSpaceOnUse">
<stop stop-color="white"/>
<stop offset="1" stop-color="white" stop-opacity="0.06"/>
</linearGradient>
<linearGradient id="paint1_linear_500_6088" x1="29.3684" y1="23.8947" x2="63.4737" y2="82.4211" gradientUnits="userSpaceOnUse">
<stop stop-color="white"/>
<stop offset="1" stop-color="white" stop-opacity="0.06"/>
</linearGradient>
<linearGradient id="paint2_linear_500_6088" x1="29.3684" y1="23.8947" x2="63.4737" y2="82.4211" gradientUnits="userSpaceOnUse">
<stop stop-color="white"/>
<stop offset="1" stop-color="white" stop-opacity="0.06"/>
</linearGradient>
<linearGradient id="paint3_linear_500_6088" x1="29.3684" y1="23.8947" x2="63.4737" y2="82.4211" gradientUnits="userSpaceOnUse">
<stop stop-color="white"/>
<stop offset="1" stop-color="white" stop-opacity="0.06"/>
</linearGradient>
<linearGradient id="paint4_linear_500_6088" x1="29.3684" y1="23.8947" x2="63.4737" y2="82.4211" gradientUnits="userSpaceOnUse">
<stop stop-color="white"/>
<stop offset="1" stop-color="white" stop-opacity="0.06"/>
</linearGradient>
<linearGradient id="paint5_linear_500_6088" x1="29.3684" y1="23.8947" x2="63.4737" y2="82.4211" gradientUnits="userSpaceOnUse">
<stop stop-color="white"/>
<stop offset="1" stop-color="white" stop-opacity="0.06"/>
</linearGradient>
<linearGradient id="paint6_linear_500_6088" x1="29.3684" y1="23.8947" x2="63.4737" y2="82.4211" gradientUnits="userSpaceOnUse">
<stop stop-color="white"/>
<stop offset="1" stop-color="white" stop-opacity="0.06"/>
</linearGradient>
<linearGradient id="paint7_linear_500_6088" x1="29.3684" y1="23.8947" x2="63.4737" y2="82.4211" gradientUnits="userSpaceOnUse">
<stop stop-color="white"/>
<stop offset="1" stop-color="white" stop-opacity="0.06"/>
</linearGradient>
<linearGradient id="paint8_linear_500_6088" x1="29.3684" y1="23.8947" x2="63.4737" y2="82.4211" gradientUnits="userSpaceOnUse">
<stop stop-color="white"/>
<stop offset="1" stop-color="white" stop-opacity="0.06"/>
</linearGradient>
</defs>
</svg>
