<svg width="100" height="100" viewBox="0 0 100 100" fill="none" xmlns="http://www.w3.org/2000/svg">
<path d="M61.5 50C61.5 58.7925 60.1627 66.7303 58.0171 72.4519C56.9436 75.3145 55.6774 77.5964 54.2968 79.1536C52.9157 80.7114 51.4625 81.5 50 81.5C48.5375 81.5 47.0843 80.7114 45.7032 79.1536C44.3226 77.5964 43.0564 75.3145 41.9829 72.4519C39.8373 66.7303 38.5 58.7925 38.5 50C38.5 41.2075 39.8373 33.2697 41.9829 27.5481C43.0564 24.6855 44.3226 22.4036 45.7032 20.8464C47.0843 19.2886 48.5375 18.5 50 18.5C51.4625 18.5 52.9157 19.2886 54.2968 20.8464C55.6774 22.4036 56.9436 24.6855 58.0171 27.5481C60.1627 33.2697 61.5 41.2075 61.5 50Z" stroke="url(#paint0_linear_422_144)"/>
<path d="M50 38.5C58.7925 38.5 66.7303 39.8373 72.4519 41.9829C75.3145 43.0564 77.5964 44.3226 79.1536 45.7032C80.7114 47.0843 81.5 48.5375 81.5 50C81.5 51.4625 80.7114 52.9157 79.1536 54.2968C77.5964 55.6774 75.3145 56.9436 72.4519 58.0171C66.7303 60.1627 58.7925 61.5 50 61.5C41.2075 61.5 33.2697 60.1627 27.5481 58.0171C24.6855 56.9436 22.4036 55.6774 20.8464 54.2968C19.2886 52.9157 18.5 51.4625 18.5 50C18.5 48.5375 19.2886 47.0843 20.8464 45.7032C22.4036 44.3226 24.6855 43.0564 27.5481 41.9829C33.2697 39.8373 41.2075 38.5 50 38.5Z" stroke="url(#paint1_linear_422_144)"/>
<path d="M58.1317 41.8683C64.3489 48.0855 69.0162 54.644 71.5448 60.2069C72.8099 62.9902 73.5281 65.499 73.653 67.5764C73.7779 69.6545 73.308 71.2397 72.2738 72.2739C71.2397 73.308 69.6545 73.7779 67.5764 73.653C65.499 73.5281 62.9901 72.8099 60.2069 71.5448C54.644 69.0162 48.0855 64.3489 41.8682 58.1317C35.651 51.9145 30.9838 45.356 28.4552 39.7931C27.19 37.0098 26.4718 34.501 26.347 32.4236C26.2221 30.3455 26.692 28.7603 27.7261 27.7261C28.7603 26.692 30.3454 26.2221 32.4236 26.347C34.501 26.4719 37.0098 27.1901 39.7931 28.4552C45.356 30.9838 51.9145 35.6511 58.1317 41.8683Z" stroke="url(#paint2_linear_422_144)"/>
<path d="M27.7262 72.2739C26.692 71.2398 26.2221 69.6546 26.347 67.5764C26.4719 65.4991 27.1901 62.9902 28.4552 60.2069C30.9838 54.644 35.6511 48.0855 41.8683 41.8683C48.0855 35.6511 54.644 30.9838 60.2069 28.4552C62.9902 27.1901 65.499 26.4719 67.5764 26.347C69.6546 26.2221 71.2397 26.692 72.2739 27.7262C73.308 28.7603 73.7779 30.3455 73.653 32.4237C73.5282 34.501 72.81 37.0099 71.5448 39.7931C69.0163 45.3561 64.349 51.9146 58.1318 58.1318C51.9145 64.349 45.356 69.0163 39.7931 71.5449C37.0099 72.81 34.501 73.5282 32.4236 73.653C30.3455 73.778 28.7603 73.3081 27.7262 72.2739Z" stroke="url(#paint3_linear_422_144)"/>
<defs>
<linearGradient id="paint0_linear_422_144" x1="50" y1="18" x2="50" y2="82" gradientUnits="userSpaceOnUse">
<stop stop-color="white"/>
<stop offset="1" stop-color="white" stop-opacity="0"/>
</linearGradient>
<linearGradient id="paint1_linear_422_144" x1="18" y1="50" x2="82" y2="50" gradientUnits="userSpaceOnUse">
<stop stop-color="white"/>
<stop offset="1" stop-color="white" stop-opacity="0"/>
</linearGradient>
<linearGradient id="paint2_linear_422_144" x1="27.3725" y1="27.3726" x2="72.6274" y2="72.6274" gradientUnits="userSpaceOnUse">
<stop stop-color="white"/>
<stop offset="1" stop-color="white" stop-opacity="0"/>
</linearGradient>
<linearGradient id="paint3_linear_422_144" x1="72.6275" y1="27.3726" x2="27.3727" y2="72.6275" gradientUnits="userSpaceOnUse">
<stop stop-color="white"/>
<stop offset="1" stop-color="white" stop-opacity="0"/>
</linearGradient>
</defs>
</svg>
