<svg width="100" height="100" viewBox="0 0 100 100" fill="none" xmlns="http://www.w3.org/2000/svg">
<path fill-rule="evenodd" clip-rule="evenodd" d="M20 18H18V84H20V18ZM22 84H24V18H22V84ZM26 18V84H28V18H26ZM30 18V84H32V18H30ZM34 18V84H36V18H34ZM38 18V84H40V18H38ZM42 18V84H44V18H42ZM46 18V84H48V18H46ZM50 18V84H52V18H50ZM54 18V84H56V18H54ZM58 18V84H60V18H58ZM62 18V84H64V18H62ZM66 18V84H68V18H66ZM70 18V84H72V18H70ZM74 18V84H76V18H74ZM78 18V84H80V18H78ZM82 18V84H84V18H82Z" fill="white"/>
<path d="M18.7071 51L51 18.7071L83.2929 51L51 83.2929L18.7071 51Z" fill="white" stroke="#181818"/>
<path d="M20 49L18 51L20 53V49Z" fill="#060729"/>
<path d="M22 47V55L24 57V45L22 47Z" fill="#060729"/>
<path d="M26 43V59L28 61V41L26 43Z" fill="#060729"/>
<path d="M30 39V63L32 65V37L30 39Z" fill="#060729"/>
<path d="M34 35V67L36 69V33L34 35Z" fill="#060729"/>
<path d="M38 31V71L40 73V29L38 31Z" fill="#060729"/>
<path d="M42 27V75L44 77V25L42 27Z" fill="#060729"/>
<path d="M46 23V79L48 81V21L46 23Z" fill="#060729"/>
<path d="M50 19V83L51 84L52 83V19L51 18L50 19Z" fill="#060729"/>
<path d="M54 21V81L56 79V23L54 21Z" fill="#060729"/>
<path d="M58 25V77L60 75V27L58 25Z" fill="#060729"/>
<path d="M62 29V73L64 71V31L62 29Z" fill="#060729"/>
<path d="M66 33V69L68 67V35L66 33Z" fill="#060729"/>
<path d="M70 37V65L72 63V39L70 37Z" fill="#060729"/>
<path d="M74 41V61L76 59V43L74 41Z" fill="#060729"/>
<path d="M78 45V57L80 55V47L78 45Z" fill="#060729"/>
<path d="M82 49V53L84 51L82 49Z" fill="#060729"/>
</svg>
