<svg width="100" height="100" viewBox="0 0 100 100" fill="none" xmlns="http://www.w3.org/2000/svg">
<path fill-rule="evenodd" clip-rule="evenodd" d="M32 38C32 28.0589 40.0589 20 50 20C59.9411 20 68 28.0589 68 38V62C68 71.9411 59.9411 80 50 80C40.0589 80 32 71.9411 32 62V38ZM38 60.5C38 67.1274 43.3726 72.5 50 72.5C56.6274 72.5 62 67.1274 62 60.5V39.5C62 32.8726 56.6274 27.5 50 27.5C43.3726 27.5 38 32.8726 38 39.5V60.5Z" fill="url(#paint0_linear_500_7028)"/>
<path fill-rule="evenodd" clip-rule="evenodd" d="M38 68C28.0589 68 20 59.9411 20 50C20 40.0589 28.0589 32 38 32H62C71.9411 32 80 40.0589 80 50C80 59.9411 71.9411 68 62 68H38ZM60.5 62C67.1274 62 72.5 56.6274 72.5 50C72.5 43.3726 67.1274 38 60.5 38H39.5C32.8726 38 27.5 43.3726 27.5 50C27.5 56.6274 32.8726 62 39.5 62H60.5Z" fill="url(#paint1_linear_500_7028)"/>
<defs>
<linearGradient id="paint0_linear_500_7028" x1="49.9998" y1="42.2217" x2="46.2457" y2="80.6771" gradientUnits="userSpaceOnUse">
<stop stop-color="white"/>
<stop offset="1" stop-color="white" stop-opacity="0"/>
</linearGradient>
<linearGradient id="paint1_linear_500_7028" x1="66.6171" y1="60.9602" x2="71.1037" y2="31.4286" gradientUnits="userSpaceOnUse">
<stop stop-color="white"/>
<stop offset="1" stop-color="white" stop-opacity="0"/>
</linearGradient>
</defs>
</svg>
