<svg width="100" height="100" viewBox="0 0 100 100" fill="none" xmlns="http://www.w3.org/2000/svg">
<path d="M18 18H19.1429V73H18V18Z" fill="url(#paint0_linear_500_6843)"/>
<path d="M20.2857 18H21.4286V73H20.2857V18Z" fill="url(#paint1_linear_500_6843)"/>
<path d="M23.7143 18V73H22.5714V18H23.7143Z" fill="url(#paint2_linear_500_6843)"/>
<path d="M24.8571 18H26V73H24.8571V18Z" fill="url(#paint3_linear_500_6843)"/>
<path d="M74 27H75.1429V82H74V27Z" fill="url(#paint4_linear_500_6843)"/>
<path d="M76.2857 27H77.4286V82H76.2857V27Z" fill="url(#paint5_linear_500_6843)"/>
<path d="M79.7143 27V82H78.5714V27H79.7143Z" fill="url(#paint6_linear_500_6843)"/>
<path d="M80.8571 27H82V82H80.8571V27Z" fill="url(#paint7_linear_500_6843)"/>
<path d="M27 18V19.1429H82V18H27Z" fill="url(#paint8_linear_500_6843)"/>
<path d="M82 20.2857H27V21.4286H82V20.2857Z" fill="url(#paint9_linear_500_6843)"/>
<path d="M27 22.5714V23.7143H82V22.5714H27Z" fill="url(#paint10_linear_500_6843)"/>
<path d="M27 24.8571V26H82V24.8571H27Z" fill="url(#paint11_linear_500_6843)"/>
<path d="M18 75.1429V74H73V75.1429H18Z" fill="url(#paint12_linear_500_6843)"/>
<path d="M18 76.2857H73V77.4286H18V76.2857Z" fill="url(#paint13_linear_500_6843)"/>
<path d="M18 79.7143V78.5714H73V79.7143H18Z" fill="url(#paint14_linear_500_6843)"/>
<path d="M18 82V80.8571H73V82H18Z" fill="url(#paint15_linear_500_6843)"/>
<path d="M30 30H30.7143V64.375H30V30Z" fill="url(#paint16_linear_500_6843)"/>
<path d="M31.4286 30H32.1429V64.375H31.4286V30Z" fill="url(#paint17_linear_500_6843)"/>
<path d="M33.5714 30V64.375H32.8571V30H33.5714Z" fill="url(#paint18_linear_500_6843)"/>
<path d="M34.2857 30H35V64.375H34.2857V30Z" fill="url(#paint19_linear_500_6843)"/>
<path d="M65 35.625H65.7143V70H65V35.625Z" fill="url(#paint20_linear_500_6843)"/>
<path d="M66.4286 35.625H67.1429V70H66.4286V35.625Z" fill="url(#paint21_linear_500_6843)"/>
<path d="M68.5714 35.625V70H67.8571V35.625H68.5714Z" fill="url(#paint22_linear_500_6843)"/>
<path d="M69.2857 35.625H70V70H69.2857V35.625Z" fill="url(#paint23_linear_500_6843)"/>
<path d="M35.625 30V30.7143H70V30H35.625Z" fill="url(#paint24_linear_500_6843)"/>
<path d="M70 31.4286H35.625V32.1429H70V31.4286Z" fill="url(#paint25_linear_500_6843)"/>
<path d="M35.625 32.8571V33.5714H70V32.8571H35.625Z" fill="url(#paint26_linear_500_6843)"/>
<path d="M35.625 34.2857V35H70V34.2857H35.625Z" fill="url(#paint27_linear_500_6843)"/>
<path d="M30 65.7143V65H64.375V65.7143H30Z" fill="url(#paint28_linear_500_6843)"/>
<path d="M30 66.4286H64.375V67.1429H30V66.4286Z" fill="url(#paint29_linear_500_6843)"/>
<path d="M30 68.5714V67.8571H64.375V68.5714H30Z" fill="url(#paint30_linear_500_6843)"/>
<path d="M30 70V69.2857H64.375V70H30Z" fill="url(#paint31_linear_500_6843)"/>
<defs>
<linearGradient id="paint0_linear_500_6843" x1="19" y1="18" x2="83" y2="86" gradientUnits="userSpaceOnUse">
<stop stop-color="white"/>
<stop offset="1" stop-color="white" stop-opacity="0"/>
</linearGradient>
<linearGradient id="paint1_linear_500_6843" x1="19" y1="18" x2="83" y2="86" gradientUnits="userSpaceOnUse">
<stop stop-color="white"/>
<stop offset="1" stop-color="white" stop-opacity="0"/>
</linearGradient>
<linearGradient id="paint2_linear_500_6843" x1="19" y1="18" x2="83" y2="86" gradientUnits="userSpaceOnUse">
<stop stop-color="white"/>
<stop offset="1" stop-color="white" stop-opacity="0"/>
</linearGradient>
<linearGradient id="paint3_linear_500_6843" x1="19" y1="18" x2="83" y2="86" gradientUnits="userSpaceOnUse">
<stop stop-color="white"/>
<stop offset="1" stop-color="white" stop-opacity="0"/>
</linearGradient>
<linearGradient id="paint4_linear_500_6843" x1="19" y1="18" x2="83" y2="86" gradientUnits="userSpaceOnUse">
<stop stop-color="white"/>
<stop offset="1" stop-color="white" stop-opacity="0"/>
</linearGradient>
<linearGradient id="paint5_linear_500_6843" x1="19" y1="18" x2="83" y2="86" gradientUnits="userSpaceOnUse">
<stop stop-color="white"/>
<stop offset="1" stop-color="white" stop-opacity="0"/>
</linearGradient>
<linearGradient id="paint6_linear_500_6843" x1="19" y1="18" x2="83" y2="86" gradientUnits="userSpaceOnUse">
<stop stop-color="white"/>
<stop offset="1" stop-color="white" stop-opacity="0"/>
</linearGradient>
<linearGradient id="paint7_linear_500_6843" x1="19" y1="18" x2="83" y2="86" gradientUnits="userSpaceOnUse">
<stop stop-color="white"/>
<stop offset="1" stop-color="white" stop-opacity="0"/>
</linearGradient>
<linearGradient id="paint8_linear_500_6843" x1="19" y1="18" x2="83" y2="86" gradientUnits="userSpaceOnUse">
<stop stop-color="white"/>
<stop offset="1" stop-color="white" stop-opacity="0"/>
</linearGradient>
<linearGradient id="paint9_linear_500_6843" x1="19" y1="18" x2="83" y2="86" gradientUnits="userSpaceOnUse">
<stop stop-color="white"/>
<stop offset="1" stop-color="white" stop-opacity="0"/>
</linearGradient>
<linearGradient id="paint10_linear_500_6843" x1="19" y1="18" x2="83" y2="86" gradientUnits="userSpaceOnUse">
<stop stop-color="white"/>
<stop offset="1" stop-color="white" stop-opacity="0"/>
</linearGradient>
<linearGradient id="paint11_linear_500_6843" x1="19" y1="18" x2="83" y2="86" gradientUnits="userSpaceOnUse">
<stop stop-color="white"/>
<stop offset="1" stop-color="white" stop-opacity="0"/>
</linearGradient>
<linearGradient id="paint12_linear_500_6843" x1="19" y1="18" x2="83" y2="86" gradientUnits="userSpaceOnUse">
<stop stop-color="white"/>
<stop offset="1" stop-color="white" stop-opacity="0"/>
</linearGradient>
<linearGradient id="paint13_linear_500_6843" x1="19" y1="18" x2="83" y2="86" gradientUnits="userSpaceOnUse">
<stop stop-color="white"/>
<stop offset="1" stop-color="white" stop-opacity="0"/>
</linearGradient>
<linearGradient id="paint14_linear_500_6843" x1="19" y1="18" x2="83" y2="86" gradientUnits="userSpaceOnUse">
<stop stop-color="white"/>
<stop offset="1" stop-color="white" stop-opacity="0"/>
</linearGradient>
<linearGradient id="paint15_linear_500_6843" x1="19" y1="18" x2="83" y2="86" gradientUnits="userSpaceOnUse">
<stop stop-color="white"/>
<stop offset="1" stop-color="white" stop-opacity="0"/>
</linearGradient>
<linearGradient id="paint16_linear_500_6843" x1="69.0909" y1="30" x2="28.6364" y2="72.2727" gradientUnits="userSpaceOnUse">
<stop stop-color="white"/>
<stop offset="1" stop-color="white" stop-opacity="0"/>
</linearGradient>
<linearGradient id="paint17_linear_500_6843" x1="69.0909" y1="30" x2="28.6364" y2="72.2727" gradientUnits="userSpaceOnUse">
<stop stop-color="white"/>
<stop offset="1" stop-color="white" stop-opacity="0"/>
</linearGradient>
<linearGradient id="paint18_linear_500_6843" x1="69.0909" y1="30" x2="28.6364" y2="72.2727" gradientUnits="userSpaceOnUse">
<stop stop-color="white"/>
<stop offset="1" stop-color="white" stop-opacity="0"/>
</linearGradient>
<linearGradient id="paint19_linear_500_6843" x1="69.0909" y1="30" x2="28.6364" y2="72.2727" gradientUnits="userSpaceOnUse">
<stop stop-color="white"/>
<stop offset="1" stop-color="white" stop-opacity="0"/>
</linearGradient>
<linearGradient id="paint20_linear_500_6843" x1="69.0909" y1="30" x2="28.6364" y2="72.2727" gradientUnits="userSpaceOnUse">
<stop stop-color="white"/>
<stop offset="1" stop-color="white" stop-opacity="0"/>
</linearGradient>
<linearGradient id="paint21_linear_500_6843" x1="69.0909" y1="30" x2="28.6364" y2="72.2727" gradientUnits="userSpaceOnUse">
<stop stop-color="white"/>
<stop offset="1" stop-color="white" stop-opacity="0"/>
</linearGradient>
<linearGradient id="paint22_linear_500_6843" x1="69.0909" y1="30" x2="28.6364" y2="72.2727" gradientUnits="userSpaceOnUse">
<stop stop-color="white"/>
<stop offset="1" stop-color="white" stop-opacity="0"/>
</linearGradient>
<linearGradient id="paint23_linear_500_6843" x1="69.0909" y1="30" x2="28.6364" y2="72.2727" gradientUnits="userSpaceOnUse">
<stop stop-color="white"/>
<stop offset="1" stop-color="white" stop-opacity="0"/>
</linearGradient>
<linearGradient id="paint24_linear_500_6843" x1="69.0909" y1="30" x2="28.6364" y2="72.2727" gradientUnits="userSpaceOnUse">
<stop stop-color="white"/>
<stop offset="1" stop-color="white" stop-opacity="0"/>
</linearGradient>
<linearGradient id="paint25_linear_500_6843" x1="69.0909" y1="30" x2="28.6364" y2="72.2727" gradientUnits="userSpaceOnUse">
<stop stop-color="white"/>
<stop offset="1" stop-color="white" stop-opacity="0"/>
</linearGradient>
<linearGradient id="paint26_linear_500_6843" x1="69.0909" y1="30" x2="28.6364" y2="72.2727" gradientUnits="userSpaceOnUse">
<stop stop-color="white"/>
<stop offset="1" stop-color="white" stop-opacity="0"/>
</linearGradient>
<linearGradient id="paint27_linear_500_6843" x1="69.0909" y1="30" x2="28.6364" y2="72.2727" gradientUnits="userSpaceOnUse">
<stop stop-color="white"/>
<stop offset="1" stop-color="white" stop-opacity="0"/>
</linearGradient>
<linearGradient id="paint28_linear_500_6843" x1="69.0909" y1="30" x2="28.6364" y2="72.2727" gradientUnits="userSpaceOnUse">
<stop stop-color="white"/>
<stop offset="1" stop-color="white" stop-opacity="0"/>
</linearGradient>
<linearGradient id="paint29_linear_500_6843" x1="69.0909" y1="30" x2="28.6364" y2="72.2727" gradientUnits="userSpaceOnUse">
<stop stop-color="white"/>
<stop offset="1" stop-color="white" stop-opacity="0"/>
</linearGradient>
<linearGradient id="paint30_linear_500_6843" x1="69.0909" y1="30" x2="28.6364" y2="72.2727" gradientUnits="userSpaceOnUse">
<stop stop-color="white"/>
<stop offset="1" stop-color="white" stop-opacity="0"/>
</linearGradient>
<linearGradient id="paint31_linear_500_6843" x1="69.0909" y1="30" x2="28.6364" y2="72.2727" gradientUnits="userSpaceOnUse">
<stop stop-color="white"/>
<stop offset="1" stop-color="white" stop-opacity="0"/>
</linearGradient>
</defs>
</svg>
