<svg width="100" height="100" viewBox="0 0 100 100" fill="none" xmlns="http://www.w3.org/2000/svg">
<path d="M49.9807 20L55.9807 34L49.9807 48L43.9807 34L49.9807 20Z" fill="url(#paint0_linear_500_5705)"/>
<path d="M49.9807 80L55.9807 66L49.9807 52L43.9807 66L49.9807 80Z" fill="url(#paint1_linear_500_5705)"/>
<path d="M24 34.9999L39.1244 36.8037L48.2487 48.9999L33.1244 47.196L24 34.9999Z" fill="url(#paint2_linear_500_5705)"/>
<path d="M75.9615 64.9999L66.8372 52.8037L51.7128 50.9999L60.8372 63.196L75.9615 64.9999Z" fill="url(#paint3_linear_500_5705)"/>
<path d="M75.9615 34.9999L60.8372 36.8037L51.7128 48.9999L66.8372 47.196L75.9615 34.9999Z" fill="url(#paint4_linear_500_5705)"/>
<path d="M24 64.9999L33.1244 52.8037L48.2487 50.9999L39.1244 63.196L24 64.9999Z" fill="url(#paint5_linear_500_5705)"/>
<defs>
<linearGradient id="paint0_linear_500_5705" x1="49.9807" y1="20" x2="49.9807" y2="48" gradientUnits="userSpaceOnUse">
<stop stop-color="white"/>
<stop offset="0.502304" stop-color="white" stop-opacity="0.464531"/>
<stop offset="1" stop-color="white" stop-opacity="0"/>
</linearGradient>
<linearGradient id="paint1_linear_500_5705" x1="49.9807" y1="80" x2="49.9807" y2="52" gradientUnits="userSpaceOnUse">
<stop stop-color="white"/>
<stop offset="0.502304" stop-color="white" stop-opacity="0.464531"/>
<stop offset="1" stop-color="white" stop-opacity="0"/>
</linearGradient>
<linearGradient id="paint2_linear_500_5705" x1="24" y1="34.9999" x2="48.2487" y2="48.9999" gradientUnits="userSpaceOnUse">
<stop stop-color="white"/>
<stop offset="0.502304" stop-color="white" stop-opacity="0.464531"/>
<stop offset="1" stop-color="white" stop-opacity="0"/>
</linearGradient>
<linearGradient id="paint3_linear_500_5705" x1="75.9615" y1="64.9999" x2="51.7128" y2="50.9999" gradientUnits="userSpaceOnUse">
<stop stop-color="white"/>
<stop offset="0.502304" stop-color="white" stop-opacity="0.464531"/>
<stop offset="1" stop-color="white" stop-opacity="0"/>
</linearGradient>
<linearGradient id="paint4_linear_500_5705" x1="75.9615" y1="34.9999" x2="51.7128" y2="48.9999" gradientUnits="userSpaceOnUse">
<stop stop-color="white"/>
<stop offset="0.502304" stop-color="white" stop-opacity="0.464531"/>
<stop offset="1" stop-color="white" stop-opacity="0"/>
</linearGradient>
<linearGradient id="paint5_linear_500_5705" x1="24" y1="64.9999" x2="48.2487" y2="50.9999" gradientUnits="userSpaceOnUse">
<stop stop-color="white"/>
<stop offset="0.502304" stop-color="white" stop-opacity="0.464531"/>
<stop offset="1" stop-color="white" stop-opacity="0"/>
</linearGradient>
</defs>
</svg>
