<svg width="100" height="100" viewBox="0 0 100 100" fill="none" xmlns="http://www.w3.org/2000/svg">
<path d="M49 18C44.7977 18 40.6365 18.8277 36.7541 20.4359C32.8717 22.044 29.3441 24.4011 26.3726 27.3726C23.4011 30.3441 21.044 33.8717 19.4359 37.7541C17.8277 41.6366 17 45.7977 17 50C17 54.2023 17.8277 58.3635 19.4359 62.2459C21.044 66.1283 23.4011 69.6559 26.3726 72.6274C29.3441 75.5989 32.8717 77.956 36.7541 79.5641C40.6366 81.1723 44.7977 82 49 82L49 18Z" fill="url(#paint0_linear_500_6882)"/>
<path d="M49 22C45.323 22 41.682 22.7242 38.2849 24.1314C34.8877 25.5385 31.8011 27.601 29.201 30.201C26.601 32.8011 24.5385 35.8877 23.1314 39.2849C21.7242 42.682 21 46.323 21 50C21 53.677 21.7242 57.318 23.1314 60.7151C24.5385 64.1123 26.601 67.199 29.201 69.799C31.8011 72.399 34.8877 74.4615 38.2849 75.8686C41.682 77.2758 45.323 78 49 78L49 22Z" fill="url(#paint1_linear_500_6882)"/>
<path d="M49 26C45.8483 26 42.7274 26.6208 39.8156 27.8269C36.9038 29.033 34.258 30.8008 32.0294 33.0294C29.8008 35.258 28.033 37.9038 26.8269 40.8156C25.6208 43.7274 25 46.8483 25 50C25 53.1517 25.6208 56.2726 26.8269 59.1844C28.033 62.0962 29.8008 64.742 32.0294 66.9706C34.258 69.1992 36.9038 70.967 39.8156 72.1731C42.7274 73.3792 45.8483 74 49 74L49 26Z" fill="url(#paint2_linear_500_6882)"/>
<path d="M49 70C46.3736 70 43.7728 69.4827 41.3463 68.4776C38.9198 67.4725 36.715 65.9993 34.8579 64.1421C33.0007 62.285 31.5275 60.0802 30.5224 57.6537C29.5173 55.2272 29 52.6264 29 50C29 47.3736 29.5173 44.7728 30.5224 42.3463C31.5275 39.9198 33.0007 37.715 34.8579 35.8579C36.715 34.0007 38.9198 32.5275 41.3463 31.5224C43.7728 30.5173 46.3736 30 49 30L49 70Z" fill="url(#paint3_linear_500_6882)"/>
<path d="M49 66C46.8988 66 44.8183 65.5861 42.8771 64.7821C40.9359 63.978 39.172 62.7994 37.6863 61.3137C36.2006 59.828 35.022 58.0641 34.2179 56.1229C33.4139 54.1817 33 52.1012 33 50C33 47.8988 33.4139 45.8183 34.2179 43.8771C35.022 41.9359 36.2006 40.172 37.6863 38.6863C39.172 37.2006 40.9359 36.022 42.8771 35.2179C44.8183 34.4139 46.8989 34 49 34L49 66Z" fill="url(#paint4_angular_500_6882)"/>
<path d="M51 82C55.2023 82 59.3635 81.1723 63.2459 79.5641C67.1283 77.956 70.6559 75.5989 73.6274 72.6274C76.5989 69.6559 78.956 66.1283 80.5641 62.2459C82.1723 58.3634 83 54.2023 83 50C83 45.7977 82.1723 41.6365 80.5641 37.7541C78.956 33.8717 76.5989 30.3441 73.6274 27.3726C70.6559 24.4011 67.1283 22.044 63.2459 20.4359C59.3634 18.8277 55.2023 18 51 18L51 82Z" fill="url(#paint5_linear_500_6882)"/>
<path d="M51 78C54.677 78 58.318 77.2758 61.7151 75.8686C65.1123 74.4615 68.1989 72.399 70.799 69.799C73.399 67.1989 75.4615 64.1123 76.8686 60.7151C78.2758 57.318 79 53.677 79 50C79 46.323 78.2758 42.682 76.8686 39.2849C75.4615 35.8877 73.399 32.801 70.799 30.201C68.1989 27.601 65.1123 25.5385 61.7151 24.1314C58.318 22.7242 54.677 22 51 22L51 78Z" fill="url(#paint6_linear_500_6882)"/>
<path d="M51 74C54.1517 74 57.2726 73.3792 60.1844 72.1731C63.0962 70.967 65.742 69.1992 67.9706 66.9706C70.1992 64.742 71.967 62.0962 73.1731 59.1844C74.3792 56.2726 75 53.1517 75 50C75 46.8483 74.3792 43.7274 73.1731 40.8156C71.967 37.9038 70.1992 35.258 67.9706 33.0294C65.742 30.8008 63.0962 29.033 60.1844 27.8269C57.2726 26.6208 54.1517 26 51 26L51 74Z" fill="url(#paint7_linear_500_6882)"/>
<path d="M51 30C53.6264 30 56.2272 30.5173 58.6537 31.5224C61.0802 32.5275 63.285 34.0007 65.1421 35.8579C66.9993 37.715 68.4725 39.9198 69.4776 42.3463C70.4827 44.7728 71 47.3736 71 50C71 52.6264 70.4827 55.2272 69.4776 57.6537C68.4725 60.0802 66.9993 62.285 65.1421 64.1421C63.285 65.9993 61.0802 67.4725 58.6537 68.4776C56.2272 69.4827 53.6264 70 51 70L51 30Z" fill="url(#paint8_linear_500_6882)"/>
<path d="M51 34C53.1012 34 55.1817 34.4139 57.1229 35.2179C59.0641 36.022 60.828 37.2006 62.3137 38.6863C63.7994 40.172 64.978 41.9359 65.7821 43.8771C66.5861 45.8183 67 47.8988 67 50C67 52.1012 66.5861 54.1817 65.7821 56.1229C64.978 58.0641 63.7994 59.828 62.3137 61.3137C60.828 62.7994 59.0641 63.978 57.1229 64.7821C55.1817 65.5861 53.1011 66 51 66L51 34Z" fill="url(#paint9_angular_500_6882)"/>
<defs>
<linearGradient id="paint0_linear_500_6882" x1="17" y1="50" x2="56" y2="49" gradientUnits="userSpaceOnUse">
<stop stop-color="white"/>
<stop offset="1" stop-opacity="0"/>
</linearGradient>
<linearGradient id="paint1_linear_500_6882" x1="21" y1="50" x2="55.125" y2="49.125" gradientUnits="userSpaceOnUse">
<stop stop-color="white"/>
<stop offset="1" stop-opacity="0"/>
</linearGradient>
<linearGradient id="paint2_linear_500_6882" x1="25" y1="50" x2="54.25" y2="49.25" gradientUnits="userSpaceOnUse">
<stop stop-color="white"/>
<stop offset="1" stop-opacity="0"/>
</linearGradient>
<linearGradient id="paint3_linear_500_6882" x1="29" y1="50" x2="53.375" y2="50.625" gradientUnits="userSpaceOnUse">
<stop stop-color="white"/>
<stop offset="1" stop-opacity="0"/>
</linearGradient>
<radialGradient id="paint4_angular_500_6882" cx="0" cy="0" r="1" gradientUnits="userSpaceOnUse" gradientTransform="translate(41 50) scale(11.5)">
<stop stop-opacity="0"/>
<stop stop-color="white"/>
</radialGradient>
<linearGradient id="paint5_linear_500_6882" x1="83" y1="50" x2="44" y2="51" gradientUnits="userSpaceOnUse">
<stop stop-color="white"/>
<stop offset="1" stop-opacity="0"/>
</linearGradient>
<linearGradient id="paint6_linear_500_6882" x1="79" y1="50" x2="44.875" y2="50.875" gradientUnits="userSpaceOnUse">
<stop stop-color="white"/>
<stop offset="1" stop-opacity="0"/>
</linearGradient>
<linearGradient id="paint7_linear_500_6882" x1="75" y1="50" x2="45.75" y2="50.75" gradientUnits="userSpaceOnUse">
<stop stop-color="white"/>
<stop offset="1" stop-opacity="0"/>
</linearGradient>
<linearGradient id="paint8_linear_500_6882" x1="71" y1="50" x2="46.625" y2="49.375" gradientUnits="userSpaceOnUse">
<stop stop-color="white"/>
<stop offset="1" stop-opacity="0"/>
</linearGradient>
<radialGradient id="paint9_angular_500_6882" cx="0" cy="0" r="1" gradientUnits="userSpaceOnUse" gradientTransform="translate(59 50) rotate(-180) scale(11.5)">
<stop stop-opacity="0"/>
<stop stop-color="white"/>
</radialGradient>
</defs>
</svg>
