<svg width="100" height="100" viewBox="0 0 100 100" fill="none" xmlns="http://www.w3.org/2000/svg">
<path fill-rule="evenodd" clip-rule="evenodd" d="M20 18.1253C19.1225 13.4985 15.0575 10 10.1754 10C10.0785 10 10 10.0785 10 10.1754C10 15.0575 13.4985 19.1225 18.1253 20C13.4985 20.8775 10 24.9425 10 29.8246C10 29.9215 10.0785 30 10.1754 30C15.0575 30 19.1225 26.5015 20 21.8747C20.8775 26.5015 24.9425 30 29.8246 30C29.9215 30 30 29.9215 30 29.8246C30 24.9425 26.5015 20.8775 21.8747 20C26.5015 19.1225 30 15.0575 30 10.1754C30 10.0785 29.9215 10 29.8246 10C24.9425 10 20.8775 13.4985 20 18.1253ZM20.177 20.177C20.2704 25.3655 24.459 29.5542 29.6475 29.6475C29.5542 24.459 25.3655 20.2704 20.177 20.177ZM29.6475 10.3525C24.459 10.4458 20.2704 14.6345 20.177 19.823C25.3655 19.7296 29.5542 15.541 29.6475 10.3525ZM19.823 20.177C19.7296 25.3655 15.541 29.5542 10.3525 29.6475C10.4458 24.459 14.6345 20.2704 19.823 20.177ZM10.3525 10.3525C15.541 10.4458 19.7296 14.6345 19.823 19.823C14.6345 19.7296 10.4458 15.541 10.3525 10.3525Z" fill="url(#paint0_radial_500_6582)"/>
<path fill-rule="evenodd" clip-rule="evenodd" d="M40 18.1253C39.1225 13.4985 35.0575 10 30.1754 10C30.0785 10 30 10.0785 30 10.1754C30 15.0575 33.4985 19.1225 38.1253 20C33.4985 20.8775 30 24.9425 30 29.8246C30 29.9215 30.0785 30 30.1754 30C35.0575 30 39.1225 26.5015 40 21.8747C40.8775 26.5015 44.9425 30 49.8246 30C49.9215 30 50 29.9215 50 29.8246C50 24.9425 46.5015 20.8775 41.8747 20C46.5015 19.1225 50 15.0575 50 10.1754C50 10.0785 49.9215 10 49.8246 10C44.9425 10 40.8775 13.4985 40 18.1253ZM40.177 20.177C40.2704 25.3655 44.459 29.5542 49.6475 29.6475C49.5542 24.459 45.3655 20.2704 40.177 20.177ZM49.6475 10.3525C44.459 10.4458 40.2704 14.6345 40.177 19.823C45.3655 19.7296 49.5542 15.541 49.6475 10.3525ZM39.823 20.177C39.7296 25.3655 35.541 29.5542 30.3525 29.6475C30.4458 24.459 34.6345 20.2704 39.823 20.177ZM30.3525 10.3525C35.541 10.4458 39.7296 14.6345 39.823 19.823C34.6345 19.7296 30.4458 15.541 30.3525 10.3525Z" fill="url(#paint1_radial_500_6582)"/>
<path fill-rule="evenodd" clip-rule="evenodd" d="M60 18.1253C59.1225 13.4985 55.0575 10 50.1754 10C50.0785 10 50 10.0785 50 10.1754C50 15.0575 53.4985 19.1225 58.1253 20C53.4985 20.8775 50 24.9425 50 29.8246C50 29.9215 50.0785 30 50.1754 30C55.0575 30 59.1225 26.5015 60 21.8747C60.8775 26.5015 64.9425 30 69.8246 30C69.9215 30 70 29.9215 70 29.8246C70 24.9425 66.5015 20.8775 61.8747 20C66.5015 19.1225 70 15.0575 70 10.1754C70 10.0785 69.9215 10 69.8246 10C64.9425 10 60.8775 13.4985 60 18.1253ZM60.177 20.177C60.2704 25.3655 64.459 29.5542 69.6475 29.6475C69.5542 24.459 65.3655 20.2704 60.177 20.177ZM69.6475 10.3525C64.459 10.4458 60.2704 14.6345 60.177 19.823C65.3655 19.7296 69.5542 15.541 69.6475 10.3525ZM59.823 20.177C59.7296 25.3655 55.541 29.5542 50.3525 29.6475C50.4458 24.459 54.6345 20.2704 59.823 20.177ZM50.3525 10.3525C55.541 10.4458 59.7296 14.6345 59.823 19.823C54.6345 19.7296 50.4458 15.541 50.3525 10.3525Z" fill="url(#paint2_radial_500_6582)"/>
<path fill-rule="evenodd" clip-rule="evenodd" d="M80 18.1253C79.1225 13.4985 75.0575 10 70.1754 10C70.0785 10 70 10.0785 70 10.1754C70 15.0575 73.4985 19.1225 78.1253 20C73.4985 20.8775 70 24.9425 70 29.8246C70 29.9215 70.0785 30 70.1754 30C75.0575 30 79.1225 26.5015 80 21.8747C80.8775 26.5015 84.9425 30 89.8246 30C89.9215 30 90 29.9215 90 29.8246C90 24.9425 86.5015 20.8775 81.8747 20C86.5015 19.1225 90 15.0575 90 10.1754C90 10.0785 89.9215 10 89.8246 10C84.9425 10 80.8775 13.4985 80 18.1253ZM80.177 20.177C80.2704 25.3655 84.459 29.5542 89.6475 29.6475C89.5542 24.459 85.3655 20.2704 80.177 20.177ZM89.6475 10.3525C84.459 10.4458 80.2704 14.6345 80.177 19.823C85.3655 19.7296 89.5542 15.541 89.6475 10.3525ZM79.823 20.177C79.7296 25.3655 75.541 29.5542 70.3525 29.6475C70.4458 24.459 74.6345 20.2704 79.823 20.177ZM70.3525 10.3525C75.541 10.4458 79.7296 14.6345 79.823 19.823C74.6345 19.7296 70.4458 15.541 70.3525 10.3525Z" fill="url(#paint3_radial_500_6582)"/>
<path fill-rule="evenodd" clip-rule="evenodd" d="M20 41.8747C19.1225 46.5015 15.0575 50 10.1754 50C10.0785 50 10 49.9215 10 49.8246C10 44.9425 13.4985 40.8775 18.1253 40C13.4985 39.1225 10 35.0575 10 30.1754C10 30.0785 10.0785 30 10.1754 30C15.0575 30 19.1225 33.4985 20 38.1253C20.8775 33.4985 24.9425 30 29.8246 30C29.9215 30 30 30.0785 30 30.1754C30 35.0575 26.5015 39.1225 21.8747 40C26.5015 40.8775 30 44.9425 30 49.8246C30 49.9215 29.9215 50 29.8246 50C24.9425 50 20.8775 46.5015 20 41.8747ZM20.177 39.823C20.2704 34.6345 24.459 30.4458 29.6475 30.3525C29.5542 35.541 25.3655 39.7296 20.177 39.823ZM29.6475 49.6475C24.459 49.5542 20.2704 45.3655 20.177 40.177C25.3655 40.2704 29.5542 44.459 29.6475 49.6475ZM19.823 39.823C19.7296 34.6345 15.541 30.4458 10.3525 30.3525C10.4458 35.541 14.6345 39.7296 19.823 39.823ZM10.3525 49.6475C15.541 49.5542 19.7296 45.3655 19.823 40.177C14.6345 40.2704 10.4458 44.459 10.3525 49.6475Z" fill="url(#paint4_radial_500_6582)"/>
<path fill-rule="evenodd" clip-rule="evenodd" d="M40 41.8747C39.1225 46.5015 35.0575 50 30.1754 50C30.0785 50 30 49.9215 30 49.8246C30 44.9425 33.4985 40.8775 38.1253 40C33.4985 39.1225 30 35.0575 30 30.1754C30 30.0785 30.0785 30 30.1754 30C35.0575 30 39.1225 33.4985 40 38.1253C40.8775 33.4985 44.9425 30 49.8246 30C49.9215 30 50 30.0785 50 30.1754C50 35.0575 46.5015 39.1225 41.8747 40C46.5015 40.8775 50 44.9425 50 49.8246C50 49.9215 49.9215 50 49.8246 50C44.9425 50 40.8775 46.5015 40 41.8747ZM40.177 39.823C40.2704 34.6345 44.459 30.4458 49.6475 30.3525C49.5542 35.541 45.3655 39.7296 40.177 39.823ZM49.6475 49.6475C44.459 49.5542 40.2704 45.3655 40.177 40.177C45.3655 40.2704 49.5542 44.459 49.6475 49.6475ZM39.823 39.823C39.7296 34.6345 35.541 30.4458 30.3525 30.3525C30.4458 35.541 34.6345 39.7296 39.823 39.823ZM30.3525 49.6475C35.541 49.5542 39.7296 45.3655 39.823 40.177C34.6345 40.2704 30.4458 44.459 30.3525 49.6475Z" fill="url(#paint5_radial_500_6582)"/>
<path fill-rule="evenodd" clip-rule="evenodd" d="M60 41.8747C59.1225 46.5015 55.0575 50 50.1754 50C50.0785 50 50 49.9215 50 49.8246C50 44.9425 53.4985 40.8775 58.1253 40C53.4985 39.1225 50 35.0575 50 30.1754C50 30.0785 50.0785 30 50.1754 30C55.0575 30 59.1225 33.4985 60 38.1253C60.8775 33.4985 64.9425 30 69.8246 30C69.9215 30 70 30.0785 70 30.1754C70 35.0575 66.5015 39.1225 61.8747 40C66.5015 40.8775 70 44.9425 70 49.8246C70 49.9215 69.9215 50 69.8246 50C64.9425 50 60.8775 46.5015 60 41.8747ZM60.177 39.823C60.2704 34.6345 64.459 30.4458 69.6475 30.3525C69.5542 35.541 65.3655 39.7296 60.177 39.823ZM69.6475 49.6475C64.459 49.5542 60.2704 45.3655 60.177 40.177C65.3655 40.2704 69.5542 44.459 69.6475 49.6475ZM59.823 39.823C59.7296 34.6345 55.541 30.4458 50.3525 30.3525C50.4458 35.541 54.6345 39.7296 59.823 39.823ZM50.3525 49.6475C55.541 49.5542 59.7296 45.3655 59.823 40.177C54.6345 40.2704 50.4458 44.459 50.3525 49.6475Z" fill="url(#paint6_radial_500_6582)"/>
<path fill-rule="evenodd" clip-rule="evenodd" d="M80 41.8747C79.1225 46.5015 75.0575 50 70.1754 50C70.0785 50 70 49.9215 70 49.8246C70 44.9425 73.4985 40.8775 78.1253 40C73.4985 39.1225 70 35.0575 70 30.1754C70 30.0785 70.0785 30 70.1754 30C75.0575 30 79.1225 33.4985 80 38.1253C80.8775 33.4985 84.9425 30 89.8246 30C89.9215 30 90 30.0785 90 30.1754C90 35.0575 86.5015 39.1225 81.8747 40C86.5015 40.8775 90 44.9425 90 49.8246C90 49.9215 89.9215 50 89.8246 50C84.9425 50 80.8775 46.5015 80 41.8747ZM80.177 39.823C80.2704 34.6345 84.459 30.4458 89.6475 30.3525C89.5542 35.541 85.3655 39.7296 80.177 39.823ZM89.6475 49.6475C84.459 49.5542 80.2704 45.3655 80.177 40.177C85.3655 40.2704 89.5542 44.459 89.6475 49.6475ZM79.823 39.823C79.7296 34.6345 75.541 30.4458 70.3525 30.3525C70.4458 35.541 74.6345 39.7296 79.823 39.823ZM70.3525 49.6475C75.541 49.5542 79.7296 45.3655 79.823 40.177C74.6345 40.2704 70.4458 44.459 70.3525 49.6475Z" fill="url(#paint7_radial_500_6582)"/>
<path fill-rule="evenodd" clip-rule="evenodd" d="M20 58.1253C19.1225 53.4985 15.0575 50 10.1754 50C10.0785 50 10 50.0785 10 50.1754C10 55.0575 13.4985 59.1225 18.1253 60C13.4985 60.8775 10 64.9425 10 69.8246C10 69.9215 10.0785 70 10.1754 70C15.0575 70 19.1225 66.5015 20 61.8747C20.8775 66.5015 24.9425 70 29.8246 70C29.9215 70 30 69.9215 30 69.8246C30 64.9425 26.5015 60.8775 21.8747 60C26.5015 59.1225 30 55.0575 30 50.1754C30 50.0785 29.9215 50 29.8246 50C24.9425 50 20.8775 53.4985 20 58.1253ZM20.177 60.177C20.2704 65.3655 24.459 69.5542 29.6475 69.6475C29.5542 64.459 25.3655 60.2704 20.177 60.177ZM29.6475 50.3525C24.459 50.4458 20.2704 54.6345 20.177 59.823C25.3655 59.7296 29.5542 55.541 29.6475 50.3525ZM19.823 60.177C19.7296 65.3655 15.541 69.5542 10.3525 69.6475C10.4458 64.459 14.6345 60.2704 19.823 60.177ZM10.3525 50.3525C15.541 50.4458 19.7296 54.6345 19.823 59.823C14.6345 59.7296 10.4458 55.541 10.3525 50.3525Z" fill="url(#paint8_radial_500_6582)"/>
<path fill-rule="evenodd" clip-rule="evenodd" d="M40 58.1253C39.1225 53.4985 35.0575 50 30.1754 50C30.0785 50 30 50.0785 30 50.1754C30 55.0575 33.4985 59.1225 38.1253 60C33.4985 60.8775 30 64.9425 30 69.8246C30 69.9215 30.0785 70 30.1754 70C35.0575 70 39.1225 66.5015 40 61.8747C40.8775 66.5015 44.9425 70 49.8246 70C49.9215 70 50 69.9215 50 69.8246C50 64.9425 46.5015 60.8775 41.8747 60C46.5015 59.1225 50 55.0575 50 50.1754C50 50.0785 49.9215 50 49.8246 50C44.9425 50 40.8775 53.4985 40 58.1253ZM40.177 60.177C40.2704 65.3655 44.459 69.5542 49.6475 69.6475C49.5542 64.459 45.3655 60.2704 40.177 60.177ZM49.6475 50.3525C44.459 50.4458 40.2704 54.6345 40.177 59.823C45.3655 59.7296 49.5542 55.541 49.6475 50.3525ZM39.823 60.177C39.7296 65.3655 35.541 69.5542 30.3525 69.6475C30.4458 64.459 34.6345 60.2704 39.823 60.177ZM30.3525 50.3525C35.541 50.4458 39.7296 54.6345 39.823 59.823C34.6345 59.7296 30.4458 55.541 30.3525 50.3525Z" fill="url(#paint9_radial_500_6582)"/>
<path fill-rule="evenodd" clip-rule="evenodd" d="M60 58.1253C59.1225 53.4985 55.0575 50 50.1754 50C50.0785 50 50 50.0785 50 50.1754C50 55.0575 53.4985 59.1225 58.1253 60C53.4985 60.8775 50 64.9425 50 69.8246C50 69.9215 50.0785 70 50.1754 70C55.0575 70 59.1225 66.5015 60 61.8747C60.8775 66.5015 64.9425 70 69.8246 70C69.9215 70 70 69.9215 70 69.8246C70 64.9425 66.5015 60.8775 61.8747 60C66.5015 59.1225 70 55.0575 70 50.1754C70 50.0785 69.9215 50 69.8246 50C64.9425 50 60.8775 53.4985 60 58.1253ZM60.177 60.177C60.2704 65.3655 64.459 69.5542 69.6475 69.6475C69.5542 64.459 65.3655 60.2704 60.177 60.177ZM69.6475 50.3525C64.459 50.4458 60.2704 54.6345 60.177 59.823C65.3655 59.7296 69.5542 55.541 69.6475 50.3525ZM59.823 60.177C59.7296 65.3655 55.541 69.5542 50.3525 69.6475C50.4458 64.459 54.6345 60.2704 59.823 60.177ZM50.3525 50.3525C55.541 50.4458 59.7296 54.6345 59.823 59.823C54.6345 59.7296 50.4458 55.541 50.3525 50.3525Z" fill="url(#paint10_radial_500_6582)"/>
<path fill-rule="evenodd" clip-rule="evenodd" d="M80 58.1253C79.1225 53.4985 75.0575 50 70.1754 50C70.0785 50 70 50.0785 70 50.1754C70 55.0575 73.4985 59.1225 78.1253 60C73.4985 60.8775 70 64.9425 70 69.8246C70 69.9215 70.0785 70 70.1754 70C75.0575 70 79.1225 66.5015 80 61.8747C80.8775 66.5015 84.9425 70 89.8246 70C89.9215 70 90 69.9215 90 69.8246C90 64.9425 86.5015 60.8775 81.8747 60C86.5015 59.1225 90 55.0575 90 50.1754C90 50.0785 89.9215 50 89.8246 50C84.9425 50 80.8775 53.4985 80 58.1253ZM80.177 60.177C80.2704 65.3655 84.459 69.5542 89.6475 69.6475C89.5542 64.459 85.3655 60.2704 80.177 60.177ZM89.6475 50.3525C84.459 50.4458 80.2704 54.6345 80.177 59.823C85.3655 59.7296 89.5542 55.541 89.6475 50.3525ZM79.823 60.177C79.7296 65.3655 75.541 69.5542 70.3525 69.6475C70.4458 64.459 74.6345 60.2704 79.823 60.177ZM70.3525 50.3525C75.541 50.4458 79.7296 54.6345 79.823 59.823C74.6345 59.7296 70.4458 55.541 70.3525 50.3525Z" fill="url(#paint11_radial_500_6582)"/>
<path fill-rule="evenodd" clip-rule="evenodd" d="M20 78.1253C19.1225 73.4985 15.0575 70 10.1754 70C10.0785 70 10 70.0785 10 70.1754C10 75.0575 13.4985 79.1225 18.1253 80C13.4985 80.8775 10 84.9425 10 89.8246C10 89.9215 10.0785 90 10.1754 90C15.0575 90 19.1225 86.5015 20 81.8747C20.8775 86.5015 24.9425 90 29.8246 90C29.9215 90 30 89.9215 30 89.8246C30 84.9425 26.5015 80.8775 21.8747 80C26.5015 79.1225 30 75.0575 30 70.1754C30 70.0785 29.9215 70 29.8246 70C24.9425 70 20.8775 73.4985 20 78.1253ZM20.177 80.177C20.2704 85.3655 24.459 89.5542 29.6475 89.6475C29.5542 84.459 25.3655 80.2704 20.177 80.177ZM29.6475 70.3525C24.459 70.4458 20.2704 74.6345 20.177 79.823C25.3655 79.7296 29.5542 75.541 29.6475 70.3525ZM19.823 80.177C19.7296 85.3655 15.541 89.5542 10.3525 89.6475C10.4458 84.459 14.6345 80.2704 19.823 80.177ZM10.3525 70.3525C15.541 70.4458 19.7296 74.6345 19.823 79.823C14.6345 79.7296 10.4458 75.541 10.3525 70.3525Z" fill="url(#paint12_radial_500_6582)"/>
<path fill-rule="evenodd" clip-rule="evenodd" d="M40 78.1253C39.1225 73.4985 35.0575 70 30.1754 70C30.0785 70 30 70.0785 30 70.1754C30 75.0575 33.4985 79.1225 38.1253 80C33.4985 80.8775 30 84.9425 30 89.8246C30 89.9215 30.0785 90 30.1754 90C35.0575 90 39.1225 86.5015 40 81.8747C40.8775 86.5015 44.9425 90 49.8246 90C49.9215 90 50 89.9215 50 89.8246C50 84.9425 46.5015 80.8775 41.8747 80C46.5015 79.1225 50 75.0575 50 70.1754C50 70.0785 49.9215 70 49.8246 70C44.9425 70 40.8775 73.4985 40 78.1253ZM40.177 80.177C40.2704 85.3655 44.459 89.5542 49.6475 89.6475C49.5542 84.459 45.3655 80.2704 40.177 80.177ZM49.6475 70.3525C44.459 70.4458 40.2704 74.6345 40.177 79.823C45.3655 79.7296 49.5542 75.541 49.6475 70.3525ZM39.823 80.177C39.7296 85.3655 35.541 89.5542 30.3525 89.6475C30.4458 84.459 34.6345 80.2704 39.823 80.177ZM30.3525 70.3525C35.541 70.4458 39.7296 74.6345 39.823 79.823C34.6345 79.7296 30.4458 75.541 30.3525 70.3525Z" fill="url(#paint13_radial_500_6582)"/>
<path fill-rule="evenodd" clip-rule="evenodd" d="M60 78.1253C59.1225 73.4985 55.0575 70 50.1754 70C50.0785 70 50 70.0785 50 70.1754C50 75.0575 53.4985 79.1225 58.1253 80C53.4985 80.8775 50 84.9425 50 89.8246C50 89.9215 50.0785 90 50.1754 90C55.0575 90 59.1225 86.5015 60 81.8747C60.8775 86.5015 64.9425 90 69.8246 90C69.9215 90 70 89.9215 70 89.8246C70 84.9425 66.5015 80.8775 61.8747 80C66.5015 79.1225 70 75.0575 70 70.1754C70 70.0785 69.9215 70 69.8246 70C64.9425 70 60.8775 73.4985 60 78.1253ZM60.177 80.177C60.2704 85.3655 64.459 89.5542 69.6475 89.6475C69.5542 84.459 65.3655 80.2704 60.177 80.177ZM69.6475 70.3525C64.459 70.4458 60.2704 74.6345 60.177 79.823C65.3655 79.7296 69.5542 75.541 69.6475 70.3525ZM59.823 80.177C59.7296 85.3655 55.541 89.5542 50.3525 89.6475C50.4458 84.459 54.6345 80.2704 59.823 80.177ZM50.3525 70.3525C55.541 70.4458 59.7296 74.6345 59.823 79.823C54.6345 79.7296 50.4458 75.541 50.3525 70.3525Z" fill="url(#paint14_radial_500_6582)"/>
<path fill-rule="evenodd" clip-rule="evenodd" d="M80 78.1253C79.1225 73.4985 75.0575 70 70.1754 70C70.0785 70 70 70.0785 70 70.1754C70 75.0575 73.4985 79.1225 78.1253 80C73.4985 80.8775 70 84.9425 70 89.8246C70 89.9215 70.0785 90 70.1754 90C75.0575 90 79.1225 86.5015 80 81.8747C80.8775 86.5015 84.9425 90 89.8246 90C89.9215 90 90 89.9215 90 89.8246C90 84.9425 86.5015 80.8775 81.8747 80C86.5015 79.1225 90 75.0575 90 70.1754C90 70.0785 89.9215 70 89.8246 70C84.9425 70 80.8775 73.4985 80 78.1253ZM80.177 80.177C80.2704 85.3655 84.459 89.5542 89.6475 89.6475C89.5542 84.459 85.3655 80.2704 80.177 80.177ZM89.6475 70.3525C84.459 70.4458 80.2704 74.6345 80.177 79.823C85.3655 79.7296 89.5542 75.541 89.6475 70.3525ZM79.823 80.177C79.7296 85.3655 75.541 89.5542 70.3525 89.6475C70.4458 84.459 74.6345 80.2704 79.823 80.177ZM70.3525 70.3525C75.541 70.4458 79.7296 74.6345 79.823 79.823C74.6345 79.7296 70.4458 75.541 70.3525 70.3525Z" fill="url(#paint15_radial_500_6582)"/>
<defs>
<radialGradient id="paint0_radial_500_6582" cx="0" cy="0" r="1" gradientUnits="userSpaceOnUse" gradientTransform="translate(20 20) rotate(90) scale(10)">
<stop stop-color="white"/>
<stop offset="1" stop-color="white" stop-opacity="0.24"/>
</radialGradient>
<radialGradient id="paint1_radial_500_6582" cx="0" cy="0" r="1" gradientUnits="userSpaceOnUse" gradientTransform="translate(40 20) rotate(90) scale(10)">
<stop stop-color="white"/>
<stop offset="1" stop-color="white" stop-opacity="0.24"/>
</radialGradient>
<radialGradient id="paint2_radial_500_6582" cx="0" cy="0" r="1" gradientUnits="userSpaceOnUse" gradientTransform="translate(60 20) rotate(90) scale(10)">
<stop stop-color="white"/>
<stop offset="1" stop-color="white" stop-opacity="0.24"/>
</radialGradient>
<radialGradient id="paint3_radial_500_6582" cx="0" cy="0" r="1" gradientUnits="userSpaceOnUse" gradientTransform="translate(80 20) rotate(90) scale(10)">
<stop stop-color="white"/>
<stop offset="1" stop-color="white" stop-opacity="0.24"/>
</radialGradient>
<radialGradient id="paint4_radial_500_6582" cx="0" cy="0" r="1" gradientUnits="userSpaceOnUse" gradientTransform="translate(20 40) rotate(-90) scale(10)">
<stop stop-color="white"/>
<stop offset="1" stop-color="white" stop-opacity="0.24"/>
</radialGradient>
<radialGradient id="paint5_radial_500_6582" cx="0" cy="0" r="1" gradientUnits="userSpaceOnUse" gradientTransform="translate(40 40) rotate(-90) scale(10)">
<stop stop-color="white"/>
<stop offset="1" stop-color="white" stop-opacity="0.24"/>
</radialGradient>
<radialGradient id="paint6_radial_500_6582" cx="0" cy="0" r="1" gradientUnits="userSpaceOnUse" gradientTransform="translate(60 40) rotate(-90) scale(10)">
<stop stop-color="white"/>
<stop offset="1" stop-color="white" stop-opacity="0.24"/>
</radialGradient>
<radialGradient id="paint7_radial_500_6582" cx="0" cy="0" r="1" gradientUnits="userSpaceOnUse" gradientTransform="translate(80 40) rotate(-90) scale(10)">
<stop stop-color="white"/>
<stop offset="1" stop-color="white" stop-opacity="0.24"/>
</radialGradient>
<radialGradient id="paint8_radial_500_6582" cx="0" cy="0" r="1" gradientUnits="userSpaceOnUse" gradientTransform="translate(20 60) rotate(90) scale(10)">
<stop stop-color="white"/>
<stop offset="1" stop-color="white" stop-opacity="0.24"/>
</radialGradient>
<radialGradient id="paint9_radial_500_6582" cx="0" cy="0" r="1" gradientUnits="userSpaceOnUse" gradientTransform="translate(40 60) rotate(90) scale(10)">
<stop stop-color="white"/>
<stop offset="1" stop-color="white" stop-opacity="0.24"/>
</radialGradient>
<radialGradient id="paint10_radial_500_6582" cx="0" cy="0" r="1" gradientUnits="userSpaceOnUse" gradientTransform="translate(60 60) rotate(90) scale(10)">
<stop stop-color="white"/>
<stop offset="1" stop-color="white" stop-opacity="0.24"/>
</radialGradient>
<radialGradient id="paint11_radial_500_6582" cx="0" cy="0" r="1" gradientUnits="userSpaceOnUse" gradientTransform="translate(80 60) rotate(90) scale(10)">
<stop stop-color="white"/>
<stop offset="1" stop-color="white" stop-opacity="0.24"/>
</radialGradient>
<radialGradient id="paint12_radial_500_6582" cx="0" cy="0" r="1" gradientUnits="userSpaceOnUse" gradientTransform="translate(20 80) rotate(90) scale(10)">
<stop stop-color="white"/>
<stop offset="1" stop-color="white" stop-opacity="0.24"/>
</radialGradient>
<radialGradient id="paint13_radial_500_6582" cx="0" cy="0" r="1" gradientUnits="userSpaceOnUse" gradientTransform="translate(40 80) rotate(90) scale(10)">
<stop stop-color="white"/>
<stop offset="1" stop-color="white" stop-opacity="0.24"/>
</radialGradient>
<radialGradient id="paint14_radial_500_6582" cx="0" cy="0" r="1" gradientUnits="userSpaceOnUse" gradientTransform="translate(60 80) rotate(90) scale(10)">
<stop stop-color="white"/>
<stop offset="1" stop-color="white" stop-opacity="0.24"/>
</radialGradient>
<radialGradient id="paint15_radial_500_6582" cx="0" cy="0" r="1" gradientUnits="userSpaceOnUse" gradientTransform="translate(80 80) rotate(90) scale(10)">
<stop stop-color="white"/>
<stop offset="1" stop-color="white" stop-opacity="0.24"/>
</radialGradient>
</defs>
</svg>
