<svg width="100" height="100" viewBox="0 0 100 100" fill="none" xmlns="http://www.w3.org/2000/svg">
<path fill-rule="evenodd" clip-rule="evenodd" d="M18.0423 26.8919L38.0423 12.3611H62.7636L82.7636 26.8919L90.4029 50.4033L82.7636 73.9148L62.7636 88.4456H38.0423L18.0423 73.9148L10.403 50.4033L18.0423 26.8919ZM50.4029 16.3773L41.12 13.3611L59.6859 13.3611L50.4029 16.3773ZM48.7849 16.903L38.4242 13.5367L32.021 22.35L48.7849 16.903ZM32.476 23.2536L49.3166 17.7818L42.8237 26.7481L32.476 23.2536ZM30.7097 24.1548L19.9063 39.0243L30.6648 35.5774L30.7097 24.1548ZM30.6607 36.6288L19.7155 40.1356L26.4224 49.3975L30.6333 43.5824L30.6607 36.6288ZM31.6388 42.1939L31.6619 36.308L37.1815 34.5396L31.6388 42.1939ZM30.6266 45.2967L27.0397 50.25L30.5879 55.1497L30.6266 45.2967ZM31.5825 56.5232L31.6321 43.9082L38.7892 34.0246L50.3123 30.3327L62.5237 34.4566L69.6646 44.3178L69.7631 56.7777L58.0687 72.4921L38.6381 66.2667L31.5825 56.5232ZM30.5812 56.8455L26.4224 51.1025L19.8097 60.2343L30.5543 63.6768L30.5812 56.8455ZM31.5531 63.9968L31.5758 58.219L37.0305 65.7517L31.5531 63.9968ZM30.5502 64.7255L19.4641 61.1737L30.5044 76.3694L30.5502 64.7255ZM31.501 77.2363L31.549 65.0455L38.0206 67.119L49.607 83.1193L31.501 77.2363ZM64.158 35.0086L69.6509 42.594L69.6055 36.8482L64.158 35.0086ZM69.5971 35.7899L63.1463 33.6114L58.8023 27.6126L69.5054 24.1834L69.5971 35.7899ZM70.6082 37.1869L70.662 43.9903L74.9118 49.8591L81.5839 40.8935L70.6082 37.1869ZM81.4604 39.7963L70.5999 36.1286L70.5097 24.724L81.4604 39.7963ZM61.512 33.0594L51.9162 29.8188L57.8002 27.9336L61.512 33.0594ZM50.3206 29.2799L57.183 27.0813L50.5 17.8525L43.8157 27.0832L50.3206 29.2799ZM42.2095 27.5962L38.1716 33.1723L31.6661 35.2567L31.7101 24.0504L42.2095 27.5962ZM43.2016 27.9312L48.7167 29.7938L39.7793 32.6573L43.2016 27.9312ZM59.0752 72.8146L69.7762 58.4351L69.9174 76.2883L59.0752 72.8146ZM70.7657 57.1054L70.9114 75.5298L81.6438 60.7579L81.595 60.7932L74.9008 51.5488L70.7657 57.1054ZM70.6756 45.7141L70.7526 55.448L74.2861 50.6999L70.6756 45.7141ZM51.7432 17.8642L68.7271 23.3827L58.1851 26.7602L51.7432 17.8642ZM19.0422 40.9108V59.5891L25.8051 50.25L19.0422 40.9108ZM51.4728 83.0303L69.4509 77.1889L58.4442 73.6625L51.4728 83.0303ZM57.4377 73.34L50.5055 82.6551L39.6282 67.634L57.4377 73.34ZM75.5266 50.708L81.7636 59.321V42.327L75.5266 50.708ZM30.403 22.8757L36.1402 14.9791L21.12 25.8919L30.403 22.8757ZM21.12 74.9148L36.1402 85.8276L30.403 77.931L21.12 74.9148ZM29.403 76.5546L19.0422 62.2943V73.1882L29.403 76.5546ZM18.0422 60.9179V70.6786L12.3051 53.0214L18.0422 60.9179ZM18.0422 41.5901L11.639 50.4033L18.0422 59.2166V41.5901ZM18.0422 39.8888L12.3051 47.7853L18.0422 30.1281V39.8888ZM19.0422 38.5124V27.6185L29.403 24.2521L19.0422 38.5124ZM32.021 78.4567L38.4242 87.27L48.7849 83.9036L32.021 78.4567ZM50.4029 84.4294L41.12 87.4456H59.6859L50.4029 84.4294ZM64.6657 85.8276L79.6859 74.9148L70.4029 77.931L64.6657 85.8276ZM68.7849 78.4567L52.021 83.9036L62.3816 87.27L68.7849 78.4567ZM71.4029 76.5546L81.7636 73.1882V62.2943L71.4029 76.5546ZM82.7636 60.9179V70.6787L88.5009 53.0213L82.7636 60.9179ZM88.5009 47.7854L82.7636 30.128V39.8888L88.5009 47.7854ZM82.7636 59.2166L89.1668 50.4033L82.7636 41.5901V59.2166ZM81.7636 38.5124V27.6185L71.4029 24.2521L81.7636 38.5124ZM70.4029 22.8757L79.6859 25.8919L64.6657 14.9791L70.4029 22.8757ZM68.7849 22.35L52.021 16.903L62.3816 13.5367L68.7849 22.35Z" fill="url(#paint0_radial_500_6876)"/>
<defs>
<radialGradient id="paint0_radial_500_6876" cx="0" cy="0" r="1" gradientUnits="userSpaceOnUse" gradientTransform="translate(51.5 50) rotate(57.1886) scale(45.2134 47.5402)">
<stop stop-color="white"/>
<stop offset="1" stop-color="white" stop-opacity="0"/>
</radialGradient>
</defs>
</svg>
