<svg width="100" height="100" viewBox="0 0 100 100" fill="none" xmlns="http://www.w3.org/2000/svg">
<path d="M61.4421 29.3601L49.9439 49.8166L38.4457 29.3601C36.6336 24.976 37.7454 21.4324 40.0405 19.7006C42.3381 17.9669 46.0135 17.9044 49.6249 20.8963L49.9439 21.1606L50.2629 20.8963C53.8743 17.9044 57.5497 17.9669 59.8473 19.7006C62.1424 21.4324 63.2543 24.976 61.4421 29.3601Z" stroke="url(#paint0_linear_500_6816)"/>
<path d="M61.4421 70.1341L49.9439 49.6775L38.4457 70.1341C36.6336 74.5181 37.7454 78.0617 40.0405 79.7935C42.3381 81.5272 46.0135 81.5897 49.6249 78.5978L49.9439 78.3336L50.2629 78.5978C53.8743 81.5897 57.5497 81.5272 59.8473 79.7935C62.1424 78.0618 63.2542 74.5181 61.4421 70.1341Z" stroke="url(#paint1_linear_500_6816)"/>
<path d="M38.0373 29.5957L50.0041 49.7817L26.5392 49.5111C21.8364 48.8885 19.3235 46.1538 18.9712 43.3003C18.6186 40.4437 20.4022 37.2294 24.7989 35.5978L25.1873 35.4536L25.1179 35.0453C24.3326 30.4218 26.2244 27.27 28.8746 26.1471C31.5219 25.0253 35.1467 25.8343 38.0373 29.5957Z" stroke="url(#paint2_linear_500_6816)"/>
<path d="M73.3487 49.9828L49.8837 49.7123L61.8505 69.8982C64.7411 73.6596 68.3659 74.4686 71.0132 73.3469C73.6634 72.2239 75.5552 69.0722 74.7699 64.4487L74.7006 64.0403L75.0889 63.8962C79.4857 62.2645 81.2693 59.0503 80.9166 56.1937C80.5644 53.3402 78.0515 50.6055 73.3487 49.9828Z" stroke="url(#paint3_linear_500_6816)"/>
<path d="M61.8505 29.5957L49.8837 49.7817L73.3486 49.5111C78.0514 48.8885 80.5644 46.1538 80.9166 43.3003C81.2692 40.4437 79.4856 37.2294 75.0889 35.5978L74.7005 35.4536L74.7699 35.0453C75.5552 30.4218 73.6634 27.27 71.0132 26.1471C68.3659 25.0253 64.7411 25.8343 61.8505 29.5957Z" stroke="url(#paint4_linear_500_6816)"/>
<path d="M26.5391 49.9828L50.0041 49.7123L38.0373 69.8982C35.1467 73.6596 31.5219 74.4686 28.8746 73.3469C26.2244 72.2239 24.3326 69.0722 25.1179 64.4487L25.1872 64.0403L24.7989 63.8962C20.4022 62.2645 18.6186 59.0503 18.9712 56.1937C19.3234 53.3402 21.8364 50.6055 26.5391 49.9828Z" stroke="url(#paint5_linear_500_6816)"/>
<defs>
<linearGradient id="paint0_linear_500_6816" x1="49.9439" y1="18" x2="49.9439" y2="53.9346" gradientUnits="userSpaceOnUse">
<stop stop-color="white"/>
<stop offset="1" stop-color="#3C3B3B"/>
</linearGradient>
<linearGradient id="paint1_linear_500_6816" x1="49.9439" y1="81.4941" x2="49.9439" y2="45.5596" gradientUnits="userSpaceOnUse">
<stop stop-color="white"/>
<stop offset="1" stop-color="#3C3B3B"/>
</linearGradient>
<linearGradient id="paint2_linear_500_6816" x1="22.4502" y1="33.8734" x2="53.5704" y2="51.8407" gradientUnits="userSpaceOnUse">
<stop stop-color="white"/>
<stop offset="1" stop-color="#3C3B3B"/>
</linearGradient>
<linearGradient id="paint3_linear_500_6816" x1="77.4377" y1="65.6206" x2="46.3174" y2="47.6533" gradientUnits="userSpaceOnUse">
<stop stop-color="white"/>
<stop offset="1" stop-color="#3C3B3B"/>
</linearGradient>
<linearGradient id="paint4_linear_500_6816" x1="77.4377" y1="33.8734" x2="46.3174" y2="51.8407" gradientUnits="userSpaceOnUse">
<stop stop-color="white"/>
<stop offset="1" stop-color="#3C3B3B"/>
</linearGradient>
<linearGradient id="paint5_linear_500_6816" x1="22.4501" y1="65.6206" x2="53.5704" y2="47.6533" gradientUnits="userSpaceOnUse">
<stop stop-color="white"/>
<stop offset="1" stop-color="#3C3B3B"/>
</linearGradient>
</defs>
</svg>
