<svg width="100" height="100" viewBox="0 0 100 100" fill="none" xmlns="http://www.w3.org/2000/svg">
<path fill-rule="evenodd" clip-rule="evenodd" d="M26 86H23.6329L23.6 86H14.48H14V86V86V85.9999V85.9999V85.9999V85.9998V85.6233V85.52V85.52V85.5199V85.5199V85.5199V85.5198V81.1999V80V78.7998V77.5999V76.4V75.1999V74C14 67.3726 19.3726 62 26 62C32.6274 62 38 67.3726 38 74C38 80.6274 32.6274 86 26 86ZM14.5918 78.8891C15.1059 76.3729 17.3319 74.48 20 74.48C23.0486 74.48 25.52 76.9514 25.52 80C25.52 82.6682 23.6268 84.8943 21.1105 85.4082C22.5944 84.5918 23.6 83.0133 23.6 81.1999C23.6 78.5489 21.451 76.3999 18.8 76.3999C16.9867 76.3999 15.4083 77.4053 14.5918 78.8891ZM14.48 81.1999V85.5198H18.8221C21.1978 85.5079 23.12 83.5784 23.12 81.1999C23.12 78.814 21.1859 76.8799 18.8 76.8799C16.4141 76.8799 14.48 78.814 14.48 81.1999ZM27.92 78.7998C27.92 81.9855 25.7032 84.6535 22.7281 85.3453C24.6704 84.3521 26 82.3313 26 80C26 76.6863 23.3137 74 20 74C17.6684 74 15.6475 75.3299 14.6543 77.2725C15.3459 74.297 18.014 72.0799 21.2 72.0799C24.9113 72.0799 27.92 75.0885 27.92 78.7998ZM14.7198 75.6581C15.5857 72.2228 18.6959 69.68 22.4 69.68C26.7741 69.68 30.32 73.2259 30.32 77.5999C30.32 81.3043 27.7768 84.4146 24.3412 85.2803C26.7438 84.1135 28.4 81.6501 28.4 78.7998C28.4 74.8234 25.1764 71.5999 21.2 71.5999C18.3499 71.5999 15.8866 73.2558 14.7198 75.6581ZM23.6 67.28C19.3773 67.28 15.8248 70.15 14.7868 74.0457C16.1255 71.1831 19.0311 69.2 22.4 69.2C27.0392 69.2 30.8 72.9608 30.8 77.5999C30.8 80.969 28.8165 83.8748 25.9536 85.2134C29.8497 84.1756 32.72 80.623 32.72 76.4C32.72 71.3632 28.6368 67.28 23.6 67.28ZM27.5664 85.1449C31.9226 83.9357 35.12 79.9412 35.12 75.1999C35.12 69.5003 30.4996 64.8799 24.8 64.8799C20.0582 64.8799 16.0634 68.0779 14.8546 72.4347C16.364 69.1113 19.7121 66.8 23.6 66.8C28.9019 66.8 33.2 71.0981 33.2 76.4C33.2 80.2875 30.8893 83.6353 27.5664 85.1449ZM24.8 64.3999C20.124 64.3999 16.142 67.3716 14.6397 71.5295C15.7723 66.2968 20.4283 62.3766 26 62.3766C32.4194 62.3766 37.6233 67.5806 37.6233 74C37.6233 79.5719 33.7027 84.2282 28.4696 85.3604C32.6279 83.8583 35.6 79.8762 35.6 75.1999C35.6 69.2352 30.7647 64.3999 24.8 64.3999Z" fill="url(#paint0_linear_500_5748)"/>
<path fill-rule="evenodd" clip-rule="evenodd" d="M50 86H47.6329L47.6 86H38.48H38V86V86V85.9999V85.9999V85.9999V85.9998V85.6233V85.52V85.52V85.5199V85.5199V85.5199V85.5198V81.1999V80V78.7998V77.5999V76.4V75.1999V74C38 67.3726 43.3726 62 50 62C56.6274 62 62 67.3726 62 74C62 80.6274 56.6274 86 50 86ZM38.5918 78.8891C39.1059 76.3729 41.3319 74.48 44 74.48C47.0486 74.48 49.52 76.9514 49.52 80C49.52 82.6682 47.6268 84.8943 45.1105 85.4082C46.5944 84.5918 47.6 83.0133 47.6 81.1999C47.6 78.5489 45.451 76.3999 42.8 76.3999C40.9867 76.3999 39.4083 77.4053 38.5918 78.8891ZM38.48 81.1999V85.5198H42.8221C45.1978 85.5079 47.12 83.5784 47.12 81.1999C47.12 78.814 45.1859 76.8799 42.8 76.8799C40.4141 76.8799 38.48 78.814 38.48 81.1999ZM51.92 78.7998C51.92 81.9855 49.7032 84.6535 46.7281 85.3453C48.6704 84.3521 50 82.3313 50 80C50 76.6863 47.3137 74 44 74C41.6684 74 39.6475 75.3299 38.6543 77.2725C39.3459 74.297 42.014 72.0799 45.2 72.0799C48.9113 72.0799 51.92 75.0885 51.92 78.7998ZM38.7198 75.6581C39.5857 72.2228 42.6959 69.68 46.4 69.68C50.7741 69.68 54.32 73.2259 54.32 77.5999C54.32 81.3043 51.7768 84.4146 48.3412 85.2803C50.7438 84.1135 52.4 81.6501 52.4 78.7998C52.4 74.8234 49.1764 71.5999 45.2 71.5999C42.3499 71.5999 39.8866 73.2558 38.7198 75.6581ZM47.6 67.28C43.3773 67.28 39.8248 70.15 38.7868 74.0457C40.1255 71.1831 43.0311 69.2 46.4 69.2C51.0392 69.2 54.8 72.9608 54.8 77.5999C54.8 80.969 52.8165 83.8748 49.9536 85.2134C53.8497 84.1756 56.72 80.623 56.72 76.4C56.72 71.3632 52.6368 67.28 47.6 67.28ZM51.5664 85.1449C55.9226 83.9357 59.12 79.9412 59.12 75.1999C59.12 69.5003 54.4996 64.8799 48.8 64.8799C44.0582 64.8799 40.0634 68.0779 38.8546 72.4347C40.364 69.1113 43.7121 66.8 47.6 66.8C52.9019 66.8 57.2 71.0981 57.2 76.4C57.2 80.2875 54.8893 83.6353 51.5664 85.1449ZM48.8 64.3999C44.124 64.3999 40.142 67.3716 38.6397 71.5295C39.7723 66.2968 44.4283 62.3766 50 62.3766C56.4194 62.3766 61.6233 67.5806 61.6233 74C61.6233 79.5719 57.7027 84.2282 52.4696 85.3604C56.6279 83.8583 59.6 79.8762 59.6 75.1999C59.6 69.2352 54.7647 64.3999 48.8 64.3999Z" fill="url(#paint1_linear_500_5748)"/>
<path fill-rule="evenodd" clip-rule="evenodd" d="M73.9999 86H71.6329L71.5999 86H62.4799H61.9999V86V86V85.9999V85.9999V85.9999V85.9998V85.6233V85.52V85.52V85.5199V85.5199V85.5199V85.5198V81.1999V80V78.7998V77.5999V76.4V75.1999V74C61.9999 67.3726 67.3725 62 73.9999 62C80.6273 62 85.9999 67.3726 85.9999 74C85.9999 80.6274 80.6273 86 73.9999 86ZM62.5918 78.8891C63.1059 76.3729 65.3318 74.48 67.9999 74.48C71.0485 74.48 73.5199 76.9514 73.5199 80C73.5199 82.6682 71.6268 84.8943 69.1104 85.4082C70.5944 84.5918 71.5999 83.0133 71.5999 81.1999C71.5999 78.5489 69.4509 76.3999 66.7999 76.3999C64.9867 76.3999 63.4083 77.4053 62.5918 78.8891ZM62.4799 81.1999V85.5198H66.822C69.1977 85.5079 71.1199 83.5784 71.1199 81.1999C71.1199 78.814 69.1858 76.8799 66.7999 76.8799C64.4141 76.8799 62.4799 78.814 62.4799 81.1999ZM75.9199 78.7998C75.9199 81.9855 73.7032 84.6535 70.728 85.3453C72.6703 84.3521 73.9999 82.3313 73.9999 80C73.9999 76.6863 71.3136 74 67.9999 74C65.6684 74 63.6474 75.3299 62.6543 77.2725C63.3458 74.297 66.0139 72.0799 69.1999 72.0799C72.9113 72.0799 75.9199 75.0885 75.9199 78.7998ZM62.7197 75.6581C63.5856 72.2228 66.6958 69.68 70.3999 69.68C74.774 69.68 78.3199 73.2259 78.3199 77.5999C78.3199 81.3043 75.7768 84.4146 72.3412 85.2803C74.7437 84.1135 76.3999 81.6501 76.3999 78.7998C76.3999 74.8234 73.1764 71.5999 69.1999 71.5999C66.3499 71.5999 63.8866 73.2558 62.7197 75.6581ZM71.5999 67.28C67.3772 67.28 63.8248 70.15 62.7867 74.0457C64.1254 71.1831 67.0311 69.2 70.3999 69.2C75.0391 69.2 78.7999 72.9608 78.7999 77.5999C78.7999 80.969 76.8165 83.8748 73.9536 85.2134C77.8497 84.1756 80.7199 80.623 80.7199 76.4C80.7199 71.3632 76.6368 67.28 71.5999 67.28ZM75.5663 85.1449C79.9225 83.9357 83.1199 79.9412 83.1199 75.1999C83.1199 69.5003 78.4995 64.8799 72.7999 64.8799C68.0582 64.8799 64.0633 68.0779 62.8546 72.4347C64.3639 69.1113 67.712 66.8 71.5999 66.8C76.9018 66.8 81.1999 71.0981 81.1999 76.4C81.1999 80.2875 78.8892 83.6353 75.5663 85.1449ZM72.7999 64.3999C68.1239 64.3999 64.142 67.3716 62.6396 71.5295C63.7723 66.2968 68.4283 62.3766 73.9999 62.3766C80.4193 62.3766 85.6233 67.5806 85.6233 74C85.6233 79.5719 81.7026 84.2282 76.4696 85.3604C80.6278 83.8583 83.5999 79.8762 83.5999 75.1999C83.5999 69.2352 78.7646 64.3999 72.7999 64.3999Z" fill="url(#paint2_linear_500_5748)"/>
<path fill-rule="evenodd" clip-rule="evenodd" d="M26 62H23.6329L23.6 62H14.48H14V62V62V61.9999V61.9999V61.9999V61.9998V61.6233V61.52V61.52V61.5199V61.5199V61.5199V61.5198V57.1999V56V54.7998V53.5999V52.4V51.1999V50C14 43.3726 19.3726 38 26 38C32.6274 38 38 43.3726 38 50C38 56.6274 32.6274 62 26 62ZM14.5918 54.8891C15.1059 52.3729 17.3319 50.48 20 50.48C23.0486 50.48 25.52 52.9514 25.52 56C25.52 58.6682 23.6268 60.8943 21.1105 61.4082C22.5944 60.5918 23.6 59.0133 23.6 57.1999C23.6 54.5489 21.451 52.3999 18.8 52.3999C16.9867 52.3999 15.4083 53.4053 14.5918 54.8891ZM14.48 57.1999V61.5198H18.8221C21.1978 61.5079 23.12 59.5784 23.12 57.1999C23.12 54.814 21.1859 52.8799 18.8 52.8799C16.4141 52.8799 14.48 54.814 14.48 57.1999ZM27.92 54.7998C27.92 57.9855 25.7032 60.6535 22.7281 61.3453C24.6704 60.3521 26 58.3313 26 56C26 52.6863 23.3137 50 20 50C17.6684 50 15.6475 51.3299 14.6543 53.2725C15.3459 50.297 18.014 48.0799 21.2 48.0799C24.9113 48.0799 27.92 51.0885 27.92 54.7998ZM14.7198 51.6581C15.5857 48.2228 18.6959 45.68 22.4 45.68C26.7741 45.68 30.32 49.2259 30.32 53.5999C30.32 57.3043 27.7768 60.4146 24.3412 61.2803C26.7438 60.1135 28.4 57.6501 28.4 54.7998C28.4 50.8234 25.1764 47.5999 21.2 47.5999C18.3499 47.5999 15.8866 49.2558 14.7198 51.6581ZM23.6 43.28C19.3773 43.28 15.8248 46.15 14.7868 50.0457C16.1255 47.1831 19.0311 45.2 22.4 45.2C27.0392 45.2 30.8 48.9608 30.8 53.5999C30.8 56.969 28.8165 59.8748 25.9536 61.2134C29.8497 60.1756 32.72 56.623 32.72 52.4C32.72 47.3632 28.6368 43.28 23.6 43.28ZM27.5664 61.1449C31.9226 59.9357 35.12 55.9412 35.12 51.1999C35.12 45.5003 30.4996 40.8799 24.8 40.8799C20.0582 40.8799 16.0634 44.0779 14.8546 48.4347C16.364 45.1113 19.7121 42.8 23.6 42.8C28.9019 42.8 33.2 47.0981 33.2 52.4C33.2 56.2875 30.8893 59.6353 27.5664 61.1449ZM24.8 40.3999C20.124 40.3999 16.142 43.3716 14.6397 47.5295C15.7723 42.2968 20.4283 38.3766 26 38.3766C32.4194 38.3766 37.6233 43.5806 37.6233 50C37.6233 55.5719 33.7027 60.2282 28.4696 61.3604C32.6279 59.8583 35.6 55.8762 35.6 51.1999C35.6 45.2352 30.7647 40.3999 24.8 40.3999Z" fill="url(#paint3_linear_500_5748)"/>
<path fill-rule="evenodd" clip-rule="evenodd" d="M50 62H47.6329L47.6 62H38.48H38V62V62V61.9999V61.9999V61.9999V61.9998V61.6233V61.52V61.52V61.5199V61.5199V61.5199V61.5198V57.1999V56V54.7998V53.5999V52.4V51.1999V50C38 43.3726 43.3726 38 50 38C56.6274 38 62 43.3726 62 50C62 56.6274 56.6274 62 50 62ZM38.5918 54.8891C39.1059 52.3729 41.3319 50.48 44 50.48C47.0486 50.48 49.52 52.9514 49.52 56C49.52 58.6682 47.6268 60.8943 45.1105 61.4082C46.5944 60.5918 47.6 59.0133 47.6 57.1999C47.6 54.5489 45.451 52.3999 42.8 52.3999C40.9867 52.3999 39.4083 53.4053 38.5918 54.8891ZM38.48 57.1999V61.5198H42.8221C45.1978 61.5079 47.12 59.5784 47.12 57.1999C47.12 54.814 45.1859 52.8799 42.8 52.8799C40.4141 52.8799 38.48 54.814 38.48 57.1999ZM51.92 54.7998C51.92 57.9855 49.7032 60.6535 46.7281 61.3453C48.6704 60.3521 50 58.3313 50 56C50 52.6863 47.3137 50 44 50C41.6684 50 39.6475 51.3299 38.6543 53.2725C39.3459 50.297 42.014 48.0799 45.2 48.0799C48.9113 48.0799 51.92 51.0885 51.92 54.7998ZM38.7198 51.6581C39.5857 48.2228 42.6959 45.68 46.4 45.68C50.7741 45.68 54.32 49.2259 54.32 53.5999C54.32 57.3043 51.7768 60.4146 48.3412 61.2803C50.7438 60.1135 52.4 57.6501 52.4 54.7998C52.4 50.8234 49.1764 47.5999 45.2 47.5999C42.3499 47.5999 39.8866 49.2558 38.7198 51.6581ZM47.6 43.28C43.3773 43.28 39.8248 46.15 38.7868 50.0457C40.1255 47.1831 43.0311 45.2 46.4 45.2C51.0392 45.2 54.8 48.9608 54.8 53.5999C54.8 56.969 52.8165 59.8748 49.9536 61.2134C53.8497 60.1756 56.72 56.623 56.72 52.4C56.72 47.3632 52.6368 43.28 47.6 43.28ZM51.5664 61.1449C55.9226 59.9357 59.12 55.9412 59.12 51.1999C59.12 45.5003 54.4996 40.8799 48.8 40.8799C44.0582 40.8799 40.0634 44.0779 38.8546 48.4347C40.364 45.1113 43.7121 42.8 47.6 42.8C52.9019 42.8 57.2 47.0981 57.2 52.4C57.2 56.2875 54.8893 59.6353 51.5664 61.1449ZM48.8 40.3999C44.124 40.3999 40.142 43.3716 38.6397 47.5295C39.7723 42.2968 44.4283 38.3766 50 38.3766C56.4194 38.3766 61.6233 43.5806 61.6233 50C61.6233 55.5719 57.7027 60.2282 52.4696 61.3604C56.6279 59.8583 59.6 55.8762 59.6 51.1999C59.6 45.2352 54.7647 40.3999 48.8 40.3999Z" fill="url(#paint4_linear_500_5748)"/>
<path fill-rule="evenodd" clip-rule="evenodd" d="M73.9999 62H71.6329L71.5999 62H62.4799H61.9999V62V62V61.9999V61.9999V61.9999V61.9998V61.6233V61.52V61.52V61.5199V61.5199V61.5199V61.5198V57.1999V56V54.7998V53.5999V52.4V51.1999V50C61.9999 43.3726 67.3725 38 73.9999 38C80.6273 38 85.9999 43.3726 85.9999 50C85.9999 56.6274 80.6273 62 73.9999 62ZM62.5918 54.8891C63.1059 52.3729 65.3318 50.48 67.9999 50.48C71.0485 50.48 73.5199 52.9514 73.5199 56C73.5199 58.6682 71.6268 60.8943 69.1104 61.4082C70.5944 60.5918 71.5999 59.0133 71.5999 57.1999C71.5999 54.5489 69.4509 52.3999 66.7999 52.3999C64.9867 52.3999 63.4083 53.4053 62.5918 54.8891ZM62.4799 57.1999V61.5198H66.822C69.1977 61.5079 71.1199 59.5784 71.1199 57.1999C71.1199 54.814 69.1858 52.8799 66.7999 52.8799C64.4141 52.8799 62.4799 54.814 62.4799 57.1999ZM75.9199 54.7998C75.9199 57.9855 73.7032 60.6535 70.728 61.3453C72.6703 60.3521 73.9999 58.3313 73.9999 56C73.9999 52.6863 71.3136 50 67.9999 50C65.6684 50 63.6474 51.3299 62.6543 53.2725C63.3458 50.297 66.0139 48.0799 69.1999 48.0799C72.9113 48.0799 75.9199 51.0885 75.9199 54.7998ZM62.7197 51.6581C63.5856 48.2228 66.6958 45.68 70.3999 45.68C74.774 45.68 78.3199 49.2259 78.3199 53.5999C78.3199 57.3043 75.7768 60.4146 72.3412 61.2803C74.7437 60.1135 76.3999 57.6501 76.3999 54.7998C76.3999 50.8234 73.1764 47.5999 69.1999 47.5999C66.3499 47.5999 63.8866 49.2558 62.7197 51.6581ZM71.5999 43.28C67.3772 43.28 63.8248 46.15 62.7867 50.0457C64.1254 47.1831 67.0311 45.2 70.3999 45.2C75.0391 45.2 78.7999 48.9608 78.7999 53.5999C78.7999 56.969 76.8165 59.8748 73.9536 61.2134C77.8497 60.1756 80.7199 56.623 80.7199 52.4C80.7199 47.3632 76.6368 43.28 71.5999 43.28ZM75.5663 61.1449C79.9225 59.9357 83.1199 55.9412 83.1199 51.1999C83.1199 45.5003 78.4995 40.8799 72.7999 40.8799C68.0582 40.8799 64.0633 44.0779 62.8546 48.4347C64.3639 45.1113 67.712 42.8 71.5999 42.8C76.9018 42.8 81.1999 47.0981 81.1999 52.4C81.1999 56.2875 78.8892 59.6353 75.5663 61.1449ZM72.7999 40.3999C68.1239 40.3999 64.142 43.3716 62.6396 47.5295C63.7723 42.2968 68.4283 38.3766 73.9999 38.3766C80.4193 38.3766 85.6233 43.5806 85.6233 50C85.6233 55.5719 81.7026 60.2282 76.4696 61.3604C80.6278 59.8583 83.5999 55.8762 83.5999 51.1999C83.5999 45.2352 78.7646 40.3999 72.7999 40.3999Z" fill="url(#paint5_linear_500_5748)"/>
<path fill-rule="evenodd" clip-rule="evenodd" d="M26 38H23.6329L23.6 38H14.48H14V38V38V37.9999V37.9999V37.9999V37.9998V37.6233V37.52V37.52V37.5199V37.5199V37.5199V37.5198V33.1999V32V30.7998V29.5999V28.4V27.1999V26C14 19.3726 19.3726 14 26 14C32.6274 14 38 19.3726 38 26C38 32.6274 32.6274 38 26 38ZM14.5918 30.8891C15.1059 28.3729 17.3319 26.48 20 26.48C23.0486 26.48 25.52 28.9514 25.52 32C25.52 34.6682 23.6268 36.8943 21.1105 37.4082C22.5944 36.5918 23.6 35.0133 23.6 33.1999C23.6 30.5489 21.451 28.3999 18.8 28.3999C16.9867 28.3999 15.4083 29.4053 14.5918 30.8891ZM14.48 33.1999V37.5198H18.8221C21.1978 37.5079 23.12 35.5784 23.12 33.1999C23.12 30.814 21.1859 28.8799 18.8 28.8799C16.4141 28.8799 14.48 30.814 14.48 33.1999ZM27.92 30.7998C27.92 33.9855 25.7032 36.6535 22.7281 37.3453C24.6704 36.3521 26 34.3313 26 32C26 28.6863 23.3137 26 20 26C17.6684 26 15.6475 27.3299 14.6543 29.2725C15.3459 26.297 18.014 24.0799 21.2 24.0799C24.9113 24.0799 27.92 27.0885 27.92 30.7998ZM14.7198 27.6581C15.5857 24.2228 18.6959 21.68 22.4 21.68C26.7741 21.68 30.32 25.2259 30.32 29.5999C30.32 33.3043 27.7768 36.4146 24.3412 37.2803C26.7438 36.1135 28.4 33.6501 28.4 30.7998C28.4 26.8234 25.1764 23.5999 21.2 23.5999C18.3499 23.5999 15.8866 25.2558 14.7198 27.6581ZM23.6 19.28C19.3773 19.28 15.8248 22.15 14.7868 26.0457C16.1255 23.1831 19.0311 21.2 22.4 21.2C27.0392 21.2 30.8 24.9608 30.8 29.5999C30.8 32.969 28.8165 35.8748 25.9536 37.2134C29.8497 36.1756 32.72 32.623 32.72 28.4C32.72 23.3632 28.6368 19.28 23.6 19.28ZM27.5664 37.1449C31.9226 35.9357 35.12 31.9412 35.12 27.1999C35.12 21.5003 30.4996 16.8799 24.8 16.8799C20.0582 16.8799 16.0634 20.0779 14.8546 24.4347C16.364 21.1113 19.7121 18.8 23.6 18.8C28.9019 18.8 33.2 23.0981 33.2 28.4C33.2 32.2875 30.8893 35.6353 27.5664 37.1449ZM24.8 16.3999C20.124 16.3999 16.142 19.3716 14.6397 23.5295C15.7723 18.2968 20.4283 14.3766 26 14.3766C32.4194 14.3766 37.6233 19.5806 37.6233 26C37.6233 31.5719 33.7027 36.2282 28.4696 37.3604C32.6279 35.8583 35.6 31.8762 35.6 27.1999C35.6 21.2352 30.7647 16.3999 24.8 16.3999Z" fill="url(#paint6_linear_500_5748)"/>
<path fill-rule="evenodd" clip-rule="evenodd" d="M50 38H47.6329L47.6 38H38.48H38V38V38V37.9999V37.9999V37.9999V37.9998V37.6233V37.52V37.52V37.5199V37.5199V37.5199V37.5198V33.1999V32V30.7998V29.5999V28.4V27.1999V26C38 19.3726 43.3726 14 50 14C56.6274 14 62 19.3726 62 26C62 32.6274 56.6274 38 50 38ZM38.5918 30.8891C39.1059 28.3729 41.3319 26.48 44 26.48C47.0486 26.48 49.52 28.9514 49.52 32C49.52 34.6682 47.6268 36.8943 45.1105 37.4082C46.5944 36.5918 47.6 35.0133 47.6 33.1999C47.6 30.5489 45.451 28.3999 42.8 28.3999C40.9867 28.3999 39.4083 29.4053 38.5918 30.8891ZM38.48 33.1999V37.5198H42.8221C45.1978 37.5079 47.12 35.5784 47.12 33.1999C47.12 30.814 45.1859 28.8799 42.8 28.8799C40.4141 28.8799 38.48 30.814 38.48 33.1999ZM51.92 30.7998C51.92 33.9855 49.7032 36.6535 46.7281 37.3453C48.6704 36.3521 50 34.3313 50 32C50 28.6863 47.3137 26 44 26C41.6684 26 39.6475 27.3299 38.6543 29.2725C39.3459 26.297 42.014 24.0799 45.2 24.0799C48.9113 24.0799 51.92 27.0885 51.92 30.7998ZM38.7198 27.6581C39.5857 24.2228 42.6959 21.68 46.4 21.68C50.7741 21.68 54.32 25.2259 54.32 29.5999C54.32 33.3043 51.7768 36.4146 48.3412 37.2803C50.7438 36.1135 52.4 33.6501 52.4 30.7998C52.4 26.8234 49.1764 23.5999 45.2 23.5999C42.3499 23.5999 39.8866 25.2558 38.7198 27.6581ZM47.6 19.28C43.3773 19.28 39.8248 22.15 38.7868 26.0457C40.1255 23.1831 43.0311 21.2 46.4 21.2C51.0392 21.2 54.8 24.9608 54.8 29.5999C54.8 32.969 52.8165 35.8748 49.9536 37.2134C53.8497 36.1756 56.72 32.623 56.72 28.4C56.72 23.3632 52.6368 19.28 47.6 19.28ZM51.5664 37.1449C55.9226 35.9357 59.12 31.9412 59.12 27.1999C59.12 21.5003 54.4996 16.8799 48.8 16.8799C44.0582 16.8799 40.0634 20.0779 38.8546 24.4347C40.364 21.1113 43.7121 18.8 47.6 18.8C52.9019 18.8 57.2 23.0981 57.2 28.4C57.2 32.2875 54.8893 35.6353 51.5664 37.1449ZM48.8 16.3999C44.124 16.3999 40.142 19.3716 38.6397 23.5295C39.7723 18.2968 44.4283 14.3766 50 14.3766C56.4194 14.3766 61.6233 19.5806 61.6233 26C61.6233 31.5719 57.7027 36.2282 52.4696 37.3604C56.6279 35.8583 59.6 31.8762 59.6 27.1999C59.6 21.2352 54.7647 16.3999 48.8 16.3999Z" fill="url(#paint7_linear_500_5748)"/>
<path fill-rule="evenodd" clip-rule="evenodd" d="M73.9999 38H71.6329L71.5999 38H62.4799H61.9999V38V38V37.9999V37.9999V37.9999V37.9998V37.6233V37.52V37.52V37.5199V37.5199V37.5199V37.5198V33.1999V32V30.7998V29.5999V28.4V27.1999V26C61.9999 19.3726 67.3725 14 73.9999 14C80.6273 14 85.9999 19.3726 85.9999 26C85.9999 32.6274 80.6273 38 73.9999 38ZM62.5918 30.8891C63.1059 28.3729 65.3318 26.48 67.9999 26.48C71.0485 26.48 73.5199 28.9514 73.5199 32C73.5199 34.6682 71.6268 36.8943 69.1104 37.4082C70.5944 36.5918 71.5999 35.0133 71.5999 33.1999C71.5999 30.5489 69.4509 28.3999 66.7999 28.3999C64.9867 28.3999 63.4083 29.4053 62.5918 30.8891ZM62.4799 33.1999V37.5198H66.822C69.1977 37.5079 71.1199 35.5784 71.1199 33.1999C71.1199 30.814 69.1858 28.8799 66.7999 28.8799C64.4141 28.8799 62.4799 30.814 62.4799 33.1999ZM75.9199 30.7998C75.9199 33.9855 73.7032 36.6535 70.728 37.3453C72.6703 36.3521 73.9999 34.3313 73.9999 32C73.9999 28.6863 71.3136 26 67.9999 26C65.6684 26 63.6474 27.3299 62.6543 29.2725C63.3458 26.297 66.0139 24.0799 69.1999 24.0799C72.9113 24.0799 75.9199 27.0885 75.9199 30.7998ZM62.7197 27.6581C63.5856 24.2228 66.6958 21.68 70.3999 21.68C74.774 21.68 78.3199 25.2259 78.3199 29.5999C78.3199 33.3043 75.7768 36.4146 72.3412 37.2803C74.7437 36.1135 76.3999 33.6501 76.3999 30.7998C76.3999 26.8234 73.1764 23.5999 69.1999 23.5999C66.3499 23.5999 63.8866 25.2558 62.7197 27.6581ZM71.5999 19.28C67.3772 19.28 63.8248 22.15 62.7867 26.0457C64.1254 23.1831 67.0311 21.2 70.3999 21.2C75.0391 21.2 78.7999 24.9608 78.7999 29.5999C78.7999 32.969 76.8165 35.8748 73.9536 37.2134C77.8497 36.1756 80.7199 32.623 80.7199 28.4C80.7199 23.3632 76.6368 19.28 71.5999 19.28ZM75.5663 37.1449C79.9225 35.9357 83.1199 31.9412 83.1199 27.1999C83.1199 21.5003 78.4995 16.8799 72.7999 16.8799C68.0582 16.8799 64.0633 20.0779 62.8546 24.4347C64.3639 21.1113 67.712 18.8 71.5999 18.8C76.9018 18.8 81.1999 23.0981 81.1999 28.4C81.1999 32.2875 78.8892 35.6353 75.5663 37.1449ZM72.7999 16.3999C68.1239 16.3999 64.142 19.3716 62.6396 23.5295C63.7723 18.2968 68.4283 14.3766 73.9999 14.3766C80.4193 14.3766 85.6233 19.5806 85.6233 26C85.6233 31.5719 81.7026 36.2282 76.4696 37.3604C80.6278 35.8583 83.5999 31.8762 83.5999 27.1999C83.5999 21.2352 78.7646 16.3999 72.7999 16.3999Z" fill="url(#paint8_linear_500_5748)"/>
<defs>
<linearGradient id="paint0_linear_500_5748" x1="38" y1="61" x2="13.9999" y2="86" gradientUnits="userSpaceOnUse">
<stop stop-color="white"/>
<stop offset="0.405571" stop-color="white"/>
<stop offset="1" stop-color="#3E3E3E"/>
</linearGradient>
<linearGradient id="paint1_linear_500_5748" x1="62" y1="61" x2="37.9999" y2="86" gradientUnits="userSpaceOnUse">
<stop stop-color="white"/>
<stop offset="0.405571" stop-color="white"/>
<stop offset="1" stop-color="#3E3E3E"/>
</linearGradient>
<linearGradient id="paint2_linear_500_5748" x1="85.9999" y1="61" x2="61.9999" y2="86" gradientUnits="userSpaceOnUse">
<stop stop-color="white"/>
<stop offset="0.405571" stop-color="white"/>
<stop offset="1" stop-color="#3E3E3E"/>
</linearGradient>
<linearGradient id="paint3_linear_500_5748" x1="38" y1="37" x2="13.9999" y2="62" gradientUnits="userSpaceOnUse">
<stop stop-color="white"/>
<stop offset="0.405571" stop-color="white"/>
<stop offset="1" stop-color="#3E3E3E"/>
</linearGradient>
<linearGradient id="paint4_linear_500_5748" x1="62" y1="37" x2="37.9999" y2="62" gradientUnits="userSpaceOnUse">
<stop stop-color="white"/>
<stop offset="0.405571" stop-color="white"/>
<stop offset="1" stop-color="#3E3E3E"/>
</linearGradient>
<linearGradient id="paint5_linear_500_5748" x1="85.9999" y1="37" x2="61.9999" y2="62" gradientUnits="userSpaceOnUse">
<stop stop-color="white"/>
<stop offset="0.405571" stop-color="white"/>
<stop offset="1" stop-color="#3E3E3E"/>
</linearGradient>
<linearGradient id="paint6_linear_500_5748" x1="38" y1="13" x2="13.9999" y2="38" gradientUnits="userSpaceOnUse">
<stop stop-color="white"/>
<stop offset="0.405571" stop-color="white"/>
<stop offset="1" stop-color="#3E3E3E"/>
</linearGradient>
<linearGradient id="paint7_linear_500_5748" x1="62" y1="13" x2="37.9999" y2="38" gradientUnits="userSpaceOnUse">
<stop stop-color="white"/>
<stop offset="0.405571" stop-color="white"/>
<stop offset="1" stop-color="#3E3E3E"/>
</linearGradient>
<linearGradient id="paint8_linear_500_5748" x1="85.9999" y1="13" x2="61.9999" y2="38" gradientUnits="userSpaceOnUse">
<stop stop-color="white"/>
<stop offset="0.405571" stop-color="white"/>
<stop offset="1" stop-color="#3E3E3E"/>
</linearGradient>
</defs>
</svg>
