<svg width="100" height="100" viewBox="0 0 100 100" fill="none" xmlns="http://www.w3.org/2000/svg">
<path d="M43.0708 53.3056V46.2548L49.7743 42.4867L56.4777 46.2548V53.3056L49.7743 57.0737L43.0708 53.3056Z" stroke="white" stroke-width="0.5"/>
<path d="M35.8149 42.1907L49.6803 34.089L63.7335 42.1917V57.9543L49.6803 65.9122L35.8149 57.9552V42.1907Z" stroke="white" stroke-width="0.5"/>
<path d="M29.3404 38.3927L49.7743 26.887L70.2082 38.3927V61.1034L49.7743 72.5138L29.3403 61.1034L29.3404 38.3927Z" stroke="white" stroke-width="0.5"/>
<path d="M35.8673 42.1835L29.5184 38.5361" stroke="white" stroke-width="0.5"/>
<path d="M63.6525 42.2001L70.1789 38.4507" stroke="white" stroke-width="0.5"/>
<path d="M49.7743 65.7613L49.7743 72.3104" stroke="white" stroke-width="0.5"/>
<path d="M49.7743 80.3L49.7743 88.4" stroke="white" stroke-width="0.5"/>
<path d="M76.3797 34.8884L83.3332 30.8937" stroke="white" stroke-width="0.5"/>
<path d="M23.1703 34.8892L16.2169 30.8944" stroke="white" stroke-width="0.5"/>
<path d="M23.0574 34.8457L49.775 19.6876L76.4926 34.8457V65.1546L49.775 80.3127L23.0574 65.1546V34.8457Z" stroke="white" stroke-width="0.5"/>
<path d="M16.25 30.819L49.775 11.2893L83.3 30.819V69.3557L49.775 88.7113L16.25 69.3557L16.25 30.819Z" stroke="white" stroke-width="0.5"/>
</svg>
