<svg width="100" height="100" viewBox="0 0 100 100" fill="none" xmlns="http://www.w3.org/2000/svg">
<g filter="url(#filter0_ii_500_6846)">
<path d="M50 62C56.6274 62 62 56.6274 62 50H82C82 58.4869 78.6286 66.6263 72.6274 72.6274C66.6263 78.6286 58.4869 82 50 82C41.5131 82 33.3737 78.6286 27.3726 72.6274C21.3714 66.6263 18 58.4869 18 50L38 50C38 56.6274 43.3726 62 50 62Z" fill="url(#paint0_linear_500_6846)"/>
</g>
<path d="M79.1022 37.9455C80.6214 41.6132 81.4331 45.5336 81.496 49.5H62.4902C62.2277 42.8282 56.7361 37.5 50 37.5C43.2639 37.5 37.7723 42.8282 37.5098 49.5L18.504 49.5C18.5669 45.5336 19.3786 41.6132 20.8978 37.9455C22.4808 34.1237 24.8011 30.6512 27.7261 27.7261C30.6512 24.8011 34.1237 22.4808 37.9455 20.8978C41.7672 19.3148 45.8634 18.5 50 18.5C54.1366 18.5 58.2328 19.3148 62.0545 20.8978C65.8763 22.4808 69.3488 24.8011 72.2739 27.7261C75.1989 30.6512 77.5192 34.1237 79.1022 37.9455Z" stroke="url(#paint1_linear_500_6846)"/>
<defs>
<filter id="filter0_ii_500_6846" x="18" y="47" width="64" height="37" filterUnits="userSpaceOnUse" color-interpolation-filters="sRGB">
<feFlood flood-opacity="0" result="BackgroundImageFix"/>
<feBlend mode="normal" in="SourceGraphic" in2="BackgroundImageFix" result="shape"/>
<feColorMatrix in="SourceAlpha" type="matrix" values="0 0 0 0 0 0 0 0 0 0 0 0 0 0 0 0 0 0 127 0" result="hardAlpha"/>
<feOffset dy="2"/>
<feGaussianBlur stdDeviation="2.5"/>
<feComposite in2="hardAlpha" operator="arithmetic" k2="-1" k3="1"/>
<feColorMatrix type="matrix" values="0 0 0 0 0 0 0 0 0 0 0 0 0 0 0 0 0 0 0.25 0"/>
<feBlend mode="normal" in2="shape" result="effect1_innerShadow_500_6846"/>
<feColorMatrix in="SourceAlpha" type="matrix" values="0 0 0 0 0 0 0 0 0 0 0 0 0 0 0 0 0 0 127 0" result="hardAlpha"/>
<feOffset dy="-3"/>
<feGaussianBlur stdDeviation="2.5"/>
<feComposite in2="hardAlpha" operator="arithmetic" k2="-1" k3="1"/>
<feColorMatrix type="matrix" values="0 0 0 0 1 0 0 0 0 1 0 0 0 0 1 0 0 0 0.35 0"/>
<feBlend mode="normal" in2="effect1_innerShadow_500_6846" result="effect2_innerShadow_500_6846"/>
</filter>
<linearGradient id="paint0_linear_500_6846" x1="50" y1="82" x2="49" y2="41" gradientUnits="userSpaceOnUse">
<stop stop-color="white"/>
<stop offset="1" stop-color="white" stop-opacity="0"/>
</linearGradient>
<linearGradient id="paint1_linear_500_6846" x1="47.5" y1="18" x2="47.5" y2="56.5" gradientUnits="userSpaceOnUse">
<stop stop-color="white"/>
<stop offset="1" stop-color="white" stop-opacity="0"/>
</linearGradient>
</defs>
</svg>
