<svg width="100" height="100" viewBox="0 0 100 100" fill="none" xmlns="http://www.w3.org/2000/svg">
<g clip-path="url(#clip0_500_6860)">
<path fill-rule="evenodd" clip-rule="evenodd" d="M25.4152 79.2505C39.4405 93.2758 62.6705 92.8062 77.7384 77.7383C92.8064 62.6703 93.276 39.4404 79.2506 25.415C77.064 23.2284 63.2399 33.5072 48.3736 48.3735C33.5074 63.2397 23.2285 77.0638 25.4152 79.2505ZM40.9211 87.1801C53.0598 90.557 66.9618 87.1951 77.0785 77.0784C87.1952 66.9617 90.5571 53.0597 87.1803 40.9209C89.1367 52.2173 85.0122 65.1854 75.0989 75.0987C65.1855 85.0121 52.2174 89.1366 40.9211 87.1801ZM74.439 74.4389C64.0696 84.8083 50.3523 88.651 38.8944 85.7419C49.5761 87.2101 62.3569 82.5617 72.4593 72.4592C82.5618 62.3567 87.2102 49.5759 85.7421 38.8942C88.6511 50.3522 84.8084 64.0694 74.439 74.4389ZM36.8975 84.3764C47.6145 86.8138 61.142 82.4568 71.7995 71.7993C82.4569 61.1419 86.8139 47.6143 84.3766 36.8973C84.6453 39.6647 84.4433 42.6263 83.7945 45.6762C82.0931 53.6744 77.3152 62.3243 69.8198 69.8197C62.3244 77.3151 53.6745 82.093 45.6763 83.7944C42.6264 84.4432 39.6648 84.6452 36.8975 84.3764ZM45.5399 82.848C41.7817 83.6474 38.1963 83.7432 34.9751 83.1096C37.7137 83.2418 40.7156 82.8295 43.846 81.9189C51.3551 79.7345 59.6961 74.6644 67.1803 67.1801C74.6645 59.6959 79.7346 51.3549 81.919 43.8458C82.8296 40.7155 83.242 37.7136 83.1098 34.975C83.7434 38.1962 83.6476 41.7816 82.8481 45.5398C81.1939 53.3163 76.5308 61.789 69.1599 69.1598C61.7891 76.5306 53.3165 81.1938 45.5399 82.848ZM33.1853 81.9503C36.2589 82.4343 39.8153 82.1025 43.6374 80.9907C50.9478 78.8641 59.1384 73.9023 66.5204 66.5203C73.9024 59.1382 78.8642 50.9476 80.9908 43.6372C82.1026 39.8152 82.4344 36.2588 81.9505 33.1852C81.9107 35.8416 81.2456 38.8433 80.0395 42.0184C77.3743 49.035 72.0144 57.067 64.5407 64.5406C57.0671 72.0143 49.0351 77.3742 42.0185 80.0394C38.8434 81.2455 35.8417 81.9106 33.1853 81.9503ZM41.732 79.1373C37.8536 80.6105 34.3684 81.2132 31.5132 80.907C34.012 80.6635 36.9678 79.7098 40.1933 78.1552C46.7146 75.0122 54.4375 69.3648 61.9012 61.9011C69.3649 54.4374 75.0123 46.7145 78.1554 40.1931C79.7099 36.9677 80.6636 34.0118 80.9071 31.5131C81.2134 34.3683 80.6106 37.8535 79.1374 41.7318C76.5364 48.5794 71.2735 56.4881 63.8809 63.8807C56.4883 71.2733 48.5795 76.5362 41.732 79.1373ZM29.9708 79.9938C30.4255 80.0114 30.9071 79.997 31.4151 79.9503C33.7684 79.7341 36.6289 78.8287 39.8243 77.2886C46.2118 74.21 53.8388 68.6437 61.2413 61.2412C68.6439 53.8387 74.2102 46.2117 77.2887 39.8242C78.8288 36.6287 79.7342 33.7682 79.9505 31.415C79.9971 30.907 80.0116 30.4253 79.9939 29.9707C79.9581 30.14 79.9179 30.3117 79.8737 30.4855C79.3167 32.6729 78.0725 35.3603 76.266 38.3692C72.649 44.3935 66.7161 51.8071 59.2617 59.2615C51.8073 66.716 44.3936 72.6489 38.3694 76.2659C35.3605 78.0724 32.6731 79.3165 30.4857 79.8735C30.3118 79.9178 30.1401 79.958 29.9708 79.9938ZM30.3102 78.9363C29.312 79.1904 28.4756 79.279 27.7945 79.2207C32.81 77.4313 44.2068 68.3775 56.2922 56.2921C68.3777 44.2066 77.4314 32.8099 79.2208 27.7943C79.2791 28.4755 79.1906 29.3119 78.9364 30.31C78.4145 32.3594 77.2271 34.9474 75.4452 37.9152C71.8853 43.8445 66.0136 51.1898 58.6018 58.6017C51.19 66.0135 43.8447 71.8851 37.9154 75.4451C34.9475 77.227 32.3595 78.4144 30.3102 78.9363ZM77.9955 26.1192C78.3754 26.057 78.511 26.1091 78.5411 26.1246C78.5566 26.1547 78.6087 26.2903 78.5465 26.6702C78.4685 27.1472 78.236 27.8219 77.8105 28.701C76.9648 30.4486 75.4662 32.7839 73.404 35.5574C69.2891 41.0916 63.0403 48.2242 55.6323 55.6322C48.2244 63.0401 41.0917 69.2889 35.5575 73.4038C32.784 75.4661 30.4488 76.9646 28.7012 77.8104C27.822 78.2358 27.1474 78.4683 26.6703 78.5464C26.2905 78.6085 26.1548 78.5565 26.1247 78.541C26.1092 78.5109 26.0572 78.3752 26.1193 77.9954C26.1973 77.5183 26.4299 76.8437 26.8553 75.9645C27.7011 74.2169 29.1996 71.8817 31.2618 69.1082C35.3767 63.574 41.6255 56.4413 49.0335 49.0334C56.4414 41.6254 63.5741 35.3766 69.1083 31.2617C71.8818 29.1995 74.2171 27.7009 75.9647 26.8552C76.8438 26.4297 77.5184 26.1972 77.9955 26.1192Z" fill="url(#paint0_linear_500_6860)"/>
<path fill-rule="evenodd" clip-rule="evenodd" d="M21.4055 75.2409C7.38016 61.2156 7.84977 37.9857 22.9177 22.9177C37.9857 7.84976 61.2156 7.38015 75.241 21.4055C77.4276 23.5921 67.1488 37.4163 52.2825 52.2825C37.4163 67.1488 23.5922 77.4276 21.4055 75.2409ZM13.4759 59.735C10.099 47.5963 13.4609 33.6943 23.5776 23.5776C33.6943 13.4609 47.5963 10.099 59.7351 13.4759C48.4387 11.5194 35.4706 15.6439 25.5573 25.5573C15.6439 35.4706 11.5195 48.4387 13.4759 59.735ZM26.2171 26.2171C15.8477 36.5866 12.005 50.3038 14.9141 61.7618C13.4459 51.08 18.0943 38.2993 28.1968 28.1968C38.2993 18.0943 51.0801 13.4459 61.7618 14.9141C50.3038 12.005 36.5866 15.8477 26.2171 26.2171ZM16.2796 63.7586C13.8422 53.0416 18.1992 39.5141 28.8567 28.8567C39.5141 18.1992 53.0417 13.8422 63.7587 16.2796C60.9913 16.0108 58.0298 16.2128 54.9799 16.8616C46.9816 18.563 38.3317 23.3409 30.8363 30.8363C23.3409 38.3317 18.563 46.9816 16.8616 54.9798C16.2128 58.0297 16.0108 60.9913 16.2796 63.7586ZM17.808 55.1162C17.0086 58.8744 16.9128 62.4598 17.5464 65.681C17.4142 62.9424 17.8265 59.9405 18.7371 56.8102C20.9215 49.3011 25.9916 40.9601 33.4759 33.4758C40.9601 25.9916 49.3011 20.9215 56.8102 18.7371C59.9405 17.8265 62.9424 17.4142 65.681 17.5464C62.4598 16.9128 58.8744 17.0085 55.1162 17.808C47.3397 19.4622 38.867 24.1254 31.4962 31.4962C24.1254 38.867 19.4622 47.3397 17.808 55.1162ZM18.7057 67.4708C18.2217 64.3972 18.5535 60.8408 19.6653 57.0188C21.7919 49.7084 26.7537 41.5178 34.1357 34.1357C41.5178 26.7537 49.7084 21.7919 57.0188 19.6653C60.8408 18.5535 64.3972 18.2217 67.4708 18.7057C64.8144 18.7454 61.8128 19.4105 58.6376 20.6166C51.621 23.2818 43.589 28.6417 36.1154 36.1154C28.6418 43.589 23.2818 51.621 20.6166 58.6376C19.4105 61.8127 18.7454 64.8144 18.7057 67.4708ZM21.5187 58.9242C20.0456 62.8025 19.4428 66.2877 19.749 69.1429C19.9925 66.6442 20.9462 63.6883 22.5008 60.4628C25.6438 53.9415 31.2912 46.2186 38.7549 38.7549C46.2186 31.2912 53.9415 25.6438 60.4629 22.5008C63.6883 20.9462 66.6442 19.9925 69.1429 19.749C66.2877 19.4428 62.8025 20.0455 58.9242 21.5187C52.0766 24.1197 44.1679 29.3827 36.7753 36.7753C29.3827 44.1679 24.1198 52.0766 21.5187 58.9242ZM20.6622 70.6853C20.6446 70.2307 20.659 69.749 20.7057 69.241C20.9219 66.8878 21.8273 64.0273 23.3674 60.8318C26.446 54.4443 32.0123 46.8173 39.4148 39.4148C46.8173 32.0123 54.4443 26.446 60.8318 23.3674C64.0273 21.8273 66.8878 20.9219 69.241 20.7057C69.749 20.659 70.2307 20.6446 70.6853 20.6622C70.516 20.698 70.3444 20.7382 70.1705 20.7825C67.9831 21.3395 65.2957 22.5836 62.2868 24.3901C56.2625 28.0071 48.8489 33.94 41.3945 41.3944C33.94 48.8489 28.0071 56.2625 24.3901 62.2868C22.5836 65.2957 21.3395 67.9831 20.7825 70.1705C20.7382 70.3443 20.698 70.516 20.6622 70.6853ZM21.7197 70.346C21.4656 71.3441 21.377 72.1805 21.4353 72.8617C23.2248 67.8461 32.2785 56.4494 44.3639 44.3639C56.4494 32.2785 67.8461 23.2247 72.8617 21.4353C72.1805 21.377 71.3441 21.4656 70.346 21.7197C68.2966 22.2416 65.7086 23.429 62.7408 25.2109C56.8115 28.7709 49.4662 34.6425 42.0543 42.0543C34.6425 49.4662 28.7709 56.8115 25.2109 62.7408C23.429 65.7086 22.2416 68.2966 21.7197 70.346ZM74.5368 22.6606C74.599 22.2808 74.5469 22.1451 74.5314 22.115C74.5013 22.0995 74.3657 22.0475 73.9859 22.1096C73.5088 22.1876 72.8341 22.4202 71.955 22.8456C70.2074 23.6914 67.8721 25.1899 65.0986 27.2521C59.5644 31.3671 52.4318 37.6159 45.0238 45.0238C37.6159 52.4318 31.3671 59.5644 27.2522 65.0986C25.1899 67.8721 23.6914 70.2074 22.8456 71.955C22.4202 72.8341 22.1877 73.5088 22.1096 73.9858C22.0475 74.3657 22.0995 74.5013 22.115 74.5314C22.1451 74.5469 22.2808 74.599 22.6606 74.5368C23.1377 74.4588 23.8124 74.2263 24.6915 73.8008C26.4391 72.9551 28.7743 71.4565 31.5478 69.3943C37.082 65.2794 44.2147 59.0306 51.6226 51.6226C59.0306 44.2147 65.2794 37.082 69.3943 31.5478C71.4565 28.7743 72.9551 26.4391 73.8008 24.6915C74.2263 23.8123 74.4588 23.1377 74.5368 22.6606Z" fill="url(#paint1_linear_500_6860)"/>
</g>
<defs>
<linearGradient id="paint0_linear_500_6860" x1="80.8954" y1="77.592" x2="46.8954" y2="47.092" gradientUnits="userSpaceOnUse">
<stop stop-color="white"/>
<stop offset="1" stop-color="white" stop-opacity="0"/>
</linearGradient>
<linearGradient id="paint1_linear_500_6860" x1="17.8955" y1="18.5923" x2="53.6292" y2="53.7245" gradientUnits="userSpaceOnUse">
<stop stop-color="white"/>
<stop offset="1" stop-color="white" stop-opacity="0"/>
</linearGradient>
<clipPath id="clip0_500_6860">
<rect width="100" height="100" fill="white"/>
</clipPath>
</defs>
</svg>
