<svg width="100" height="100" viewBox="0 0 100 100" fill="none" xmlns="http://www.w3.org/2000/svg">
<path fill-rule="evenodd" clip-rule="evenodd" d="M14 14H86V85.9999H14V14ZM23.3506 22.6435L15.7071 15H30.9942L23.3506 22.6435ZM24.0578 23.3506L31.7013 15.7071V30.9942L24.0578 23.3506ZM23.3506 24.0578L30.9942 31.7013H15.7071L23.3506 24.0578ZM22.6435 23.3506L15 30.9942V15.7071L22.6435 23.3506ZM41.1169 22.6435L33.4733 15H48.7604L41.1169 22.6435ZM41.824 23.3506L49.4675 15.7071V30.9942L41.824 23.3506ZM41.1169 24.0578L48.7604 31.7013H33.4733L41.1169 24.0578ZM40.4098 23.3506L32.7662 30.9942V15.7071L40.4098 23.3506ZM51.2396 15L58.8831 22.6435L66.5267 15H51.2396ZM67.2338 15.7071L59.5902 23.3506L67.2338 30.9942V15.7071ZM66.5267 31.7013L58.8831 24.0578L51.2396 31.7013H66.5267ZM50.5325 30.9942L58.176 23.3506L50.5325 15.7071V30.9942ZM76.6494 22.6435L69.0058 15H84.2929L76.6494 22.6435ZM77.3565 23.3506L85 15.7071V30.9942L77.3565 23.3506ZM76.6494 24.0578L84.2929 31.7013H69.0058L76.6494 24.0578ZM75.9422 23.3506L68.2987 30.9942V15.7071L75.9422 23.3506ZM15.7071 32.7664L23.3506 40.4099L30.9942 32.7664H15.7071ZM31.7013 33.4735L24.0578 41.117L31.7013 48.7605V33.4735ZM30.9942 49.4677L23.3506 41.8241L15.7071 49.4677H30.9942ZM15 48.7605L22.6435 41.117L15 33.4735V48.7605ZM41.1169 40.4099L33.4733 32.7664H48.7604L41.1169 40.4099ZM41.824 41.117L49.4675 33.4735V48.7605L41.824 41.117ZM41.1169 41.8241L48.7604 49.4677H33.4733L41.1169 41.8241ZM40.4098 41.117L32.7662 48.7605V33.4735L40.4098 41.117ZM51.2396 32.7664L58.8831 40.4099L66.5267 32.7664H51.2396ZM67.2338 33.4735L59.5902 41.117L67.2338 48.7605V33.4735ZM66.5267 49.4677L58.8831 41.8241L51.2396 49.4677H66.5267ZM50.5325 48.7605L58.176 41.117L50.5325 33.4735V48.7605ZM76.6494 40.4099L69.0058 32.7664H84.2929L76.6494 40.4099ZM77.3565 41.117L85 33.4735V48.7605L77.3565 41.117ZM76.6494 41.8241L84.2929 49.4677H69.0058L76.6494 41.8241ZM75.9422 41.117L68.2987 48.7605V33.4735L75.9422 41.117ZM15.7071 50.5327L23.3506 58.1762L30.9942 50.5327H15.7071ZM31.7013 51.2398L24.0578 58.8834L31.7013 66.5269V51.2398ZM30.9942 67.234L23.3506 59.5905L15.7071 67.234H30.9942ZM15 66.5269L22.6435 58.8834L15 51.2398V66.5269ZM41.1169 58.1762L33.4733 50.5327H48.7604L41.1169 58.1762ZM41.824 58.8834L49.4675 51.2398V66.5269L41.824 58.8834ZM41.1169 59.5905L48.7604 67.234H33.4733L41.1169 59.5905ZM40.4098 58.8834L32.7662 66.5269V51.2398L40.4098 58.8834ZM51.2396 50.5327L58.8831 58.1762L66.5267 50.5327H51.2396ZM67.2338 51.2398L59.5902 58.8834L67.2338 66.5269V51.2398ZM66.5267 67.234L58.8831 59.5905L51.2396 67.234H66.5267ZM50.5325 66.5269L58.176 58.8834L50.5325 51.2398V66.5269ZM76.6494 58.1762L69.0058 50.5327H84.2929L76.6494 58.1762ZM77.3565 58.8834L85 51.2398V66.5269L77.3565 58.8834ZM76.6494 59.5905L84.2929 67.234H69.0058L76.6494 59.5905ZM75.9422 58.8834L68.2987 66.5269V51.2398L75.9422 58.8834ZM15.7071 68.2986L23.3506 75.9421L30.9942 68.2986H15.7071ZM31.7013 69.0057L24.0578 76.6492L31.7013 84.2928V69.0057ZM30.9942 84.9999L23.3506 77.3563L15.7071 84.9999H30.9942ZM15 84.2928L22.6435 76.6492L15 69.0057V84.2928ZM41.1169 75.9421L33.4733 68.2986H48.7604L41.1169 75.9421ZM41.824 76.6492L49.4675 69.0057V84.2928L41.824 76.6492ZM41.1169 77.3563L48.7604 84.9999H33.4733L41.1169 77.3563ZM40.4098 76.6492L32.7662 84.2928V69.0057L40.4098 76.6492ZM51.2396 68.2986L58.8831 75.9421L66.5267 68.2986H51.2396ZM67.2338 69.0057L59.5902 76.6492L67.2338 84.2928V69.0057ZM66.5267 84.9999L58.8831 77.3563L51.2396 84.9999H66.5267ZM50.5325 84.2928L58.176 76.6492L50.5325 69.0057V84.2928ZM76.6494 75.9421L69.0058 68.2986H84.2929L76.6494 75.9421ZM77.3565 76.6492L85 69.0057V84.2928L77.3565 76.6492ZM76.6494 77.3563L84.2929 84.9999H69.0058L76.6494 77.3563ZM75.9422 76.6492L68.2987 84.2928V69.0057L75.9422 76.6492Z" fill="url(#paint0_radial_500_6959)"/>
<defs>
<radialGradient id="paint0_radial_500_6959" cx="0" cy="0" r="1" gradientUnits="userSpaceOnUse" gradientTransform="translate(50 49.9999) rotate(45) scale(56.2012)">
<stop stop-color="white"/>
<stop offset="1" stop-color="white" stop-opacity="0"/>
</radialGradient>
</defs>
</svg>
