<svg width="100" height="100" viewBox="0 0 100 100" fill="none" xmlns="http://www.w3.org/2000/svg">
<path d="M50 18C45.7977 18 41.6365 18.8277 37.7541 20.4359C33.8717 22.044 30.3441 24.4011 27.3726 27.3726C24.4011 30.3441 22.044 33.8717 20.4359 37.7541C18.8277 41.6366 18 45.7977 18 50H18.9846C18.9846 45.927 19.7869 41.8939 21.3455 38.1309C22.9042 34.368 25.1888 30.9489 28.0688 28.0688C30.9489 25.1888 34.368 22.9042 38.1309 21.3455C41.8939 19.7869 45.927 18.9846 50 18.9846C54.073 18.9846 58.1061 19.7869 61.8691 21.3455C65.632 22.9042 69.0511 25.1888 71.9312 28.0688C74.8112 30.9489 77.0958 34.368 78.6545 38.1309C80.2131 41.8939 81.0154 45.927 81.0154 50H82C82 45.7977 81.1723 41.6365 79.5641 37.7541C77.956 33.8717 75.5989 30.3441 72.6274 27.3726C69.6559 24.4011 66.1283 22.044 62.2459 20.4359C58.3634 18.8277 54.2023 18 50 18Z" fill="url(#paint0_linear_500_6850)"/>
<path d="M50 21.9385C42.5576 21.9385 35.4201 24.8949 30.1575 30.1575C24.8949 35.4201 21.9385 42.5576 21.9385 50H22.9231C22.9231 42.8188 25.7758 35.9316 30.8537 30.8537C35.9316 25.7758 42.8188 22.9231 50 22.9231C57.1813 22.9231 64.0684 25.7758 69.1463 30.8537C74.2242 35.9316 77.0769 42.8188 77.0769 50H78.0615C78.0615 42.5576 75.1051 35.4201 69.8425 30.1575C64.5799 24.8949 57.4424 21.9385 50 21.9385Z" fill="url(#paint1_linear_500_6850)"/>
<path d="M32.9424 32.9424C37.4664 28.4185 43.6022 25.8769 50 25.8769C56.3978 25.8769 62.5336 28.4185 67.0576 32.9424C71.5815 37.4664 74.1231 43.6022 74.1231 50H73.1385C73.1385 43.8633 70.7007 37.9779 66.3614 33.6386C62.0221 29.2993 56.1367 26.8615 50 26.8615C43.8633 26.8615 37.9779 29.2993 33.6386 33.6386C29.2993 37.9779 26.8615 43.8633 26.8615 50H25.8769C25.8769 43.6022 28.4185 37.4664 32.9424 32.9424Z" fill="url(#paint2_linear_500_6850)"/>
<path d="M50 29.8154C44.6467 29.8154 39.5127 31.942 35.7273 35.7273C31.942 39.5127 29.8154 44.6467 29.8154 50H30.8C30.8 44.9078 32.8229 40.0242 36.4235 36.4235C40.0242 32.8229 44.9078 30.8 50 30.8C55.0922 30.8 59.9757 32.8229 63.5765 36.4235C67.1771 40.0242 69.2 44.9078 69.2 50H70.1846C70.1846 44.6467 68.058 39.5127 64.2727 35.7273C60.4873 31.942 55.3533 29.8154 50 29.8154Z" fill="url(#paint3_linear_500_6850)"/>
<path d="M38.5122 38.5122C41.559 35.4655 45.6913 33.7538 50 33.7538C54.3088 33.7538 58.441 35.4655 61.4878 38.5122C64.5345 41.559 66.2462 45.6913 66.2462 50H65.2615C65.2615 45.9524 63.6536 42.0706 60.7915 39.2085C57.9294 36.3464 54.0476 34.7385 50 34.7385C45.9524 34.7385 42.0706 36.3464 39.2085 39.2085C36.3464 42.0706 34.7385 45.9524 34.7385 50H33.7538C33.7538 45.6912 35.4655 41.559 38.5122 38.5122Z" fill="url(#paint4_linear_500_6850)"/>
<path d="M50 37.6923C46.7358 37.6923 43.6053 38.989 41.2971 41.2971C38.989 43.6053 37.6923 46.7358 37.6923 50H38.6769C38.6769 46.9969 39.8699 44.1169 41.9934 41.9934C44.1169 39.8699 46.9969 38.6769 50 38.6769C53.0031 38.6769 55.8831 39.8699 58.0066 41.9934C60.1301 44.1169 61.3231 46.9969 61.3231 50H62.3077C62.3077 46.7358 61.011 43.6053 58.7029 41.2971C56.3947 38.989 53.2642 37.6923 50 37.6923Z" fill="url(#paint5_linear_500_6850)"/>
<path d="M50 82C45.7977 82 41.6365 81.1723 37.7541 79.5641C33.8717 77.956 30.3441 75.5989 27.3726 72.6274C24.4011 69.6559 22.044 66.1283 20.4359 62.2459C18.8277 58.3635 18 54.2023 18 50H18.9846C18.9846 54.073 19.7869 58.1061 21.3455 61.8691C22.9042 65.632 25.1888 69.0511 28.0688 71.9312C30.9489 74.8112 34.368 77.0958 38.1309 78.6545C41.8939 80.2132 45.927 81.0154 50 81.0154C54.073 81.0154 58.1061 80.2132 61.8691 78.6545C65.632 77.0958 69.0511 74.8112 71.9312 71.9312C74.8112 69.0511 77.0958 65.632 78.6545 61.8691C80.2131 58.1061 81.0154 54.073 81.0154 50H82C82 54.2023 81.1723 58.3635 79.5641 62.2459C77.956 66.1283 75.5989 69.6559 72.6274 72.6274C69.6559 75.5989 66.1283 77.956 62.2459 79.5641C58.3634 81.1723 54.2023 82 50 82Z" fill="url(#paint6_linear_500_6850)"/>
<path d="M50 78.0615C42.5576 78.0615 35.4201 75.1051 30.1575 69.8425C24.8949 64.58 21.9385 57.4424 21.9385 50H22.9231C22.9231 57.1813 25.7758 64.0684 30.8537 69.1463C35.9316 74.2242 42.8188 77.0769 50 77.0769C57.1813 77.0769 64.0684 74.2242 69.1463 69.1463C74.2242 64.0684 77.0769 57.1813 77.0769 50H78.0615C78.0615 57.4424 75.1051 64.5799 69.8425 69.8425C64.5799 75.1051 57.4424 78.0615 50 78.0615Z" fill="url(#paint7_linear_500_6850)"/>
<path d="M32.9424 67.0576C37.4664 71.5816 43.6022 74.1231 50 74.1231C56.3978 74.1231 62.5336 71.5815 67.0576 67.0576C71.5815 62.5336 74.1231 56.3978 74.1231 50H73.1385C73.1385 56.1367 70.7007 62.0221 66.3614 66.3614C62.0221 70.7007 56.1367 73.1385 50 73.1385C43.8633 73.1385 37.9779 70.7007 33.6386 66.3614C29.2993 62.0221 26.8615 56.1367 26.8615 50H25.8769C25.8769 56.3978 28.4185 62.5336 32.9424 67.0576Z" fill="url(#paint8_linear_500_6850)"/>
<path d="M50 70.1846C44.6467 70.1846 39.5127 68.058 35.7273 64.2727C31.942 60.4873 29.8154 55.3533 29.8154 50H30.8C30.8 55.0922 32.8229 59.9758 36.4235 63.5765C40.0242 67.1772 44.9078 69.2 50 69.2C55.0922 69.2 59.9757 67.1772 63.5765 63.5765C67.1771 59.9758 69.2 55.0922 69.2 50H70.1846C70.1846 55.3533 68.058 60.4873 64.2727 64.2727C60.4873 68.058 55.3533 70.1846 50 70.1846Z" fill="url(#paint9_linear_500_6850)"/>
<path d="M38.5122 61.4878C41.559 64.5345 45.6913 66.2462 50 66.2462C54.3088 66.2462 58.441 64.5345 61.4878 61.4878C64.5345 58.441 66.2462 54.3088 66.2462 50H65.2615C65.2615 54.0476 63.6536 57.9294 60.7915 60.7915C57.9294 63.6536 54.0476 65.2615 50 65.2615C45.9524 65.2615 42.0706 63.6536 39.2085 60.7915C36.3464 57.9294 34.7385 54.0476 34.7385 50H33.7538C33.7538 54.3088 35.4655 58.441 38.5122 61.4878Z" fill="url(#paint10_linear_500_6850)"/>
<path d="M50 62.3077C46.7358 62.3077 43.6053 61.011 41.2971 58.7029C38.989 56.3947 37.6923 53.2642 37.6923 50H38.6769C38.6769 53.0031 39.8699 55.8831 41.9934 58.0066C44.1169 60.1301 46.9969 61.3231 50 61.3231C53.0031 61.3231 55.8831 60.1301 58.0066 58.0066C60.1301 55.8831 61.3231 53.0031 61.3231 50H62.3077C62.3077 53.2642 61.011 56.3947 58.7029 58.7029C56.3947 61.011 53.2642 62.3077 50 62.3077Z" fill="url(#paint11_linear_500_6850)"/>
<defs>
<linearGradient id="paint0_linear_500_6850" x1="50" y1="18" x2="50" y2="51.4769" gradientUnits="userSpaceOnUse">
<stop stop-color="white"/>
<stop offset="1" stop-color="white" stop-opacity="0"/>
</linearGradient>
<linearGradient id="paint1_linear_500_6850" x1="50" y1="18" x2="50" y2="51.4769" gradientUnits="userSpaceOnUse">
<stop stop-color="white"/>
<stop offset="1" stop-color="white" stop-opacity="0"/>
</linearGradient>
<linearGradient id="paint2_linear_500_6850" x1="50" y1="18" x2="50" y2="51.4769" gradientUnits="userSpaceOnUse">
<stop stop-color="white"/>
<stop offset="1" stop-color="white" stop-opacity="0"/>
</linearGradient>
<linearGradient id="paint3_linear_500_6850" x1="50" y1="18" x2="50" y2="51.4769" gradientUnits="userSpaceOnUse">
<stop stop-color="white"/>
<stop offset="1" stop-color="white" stop-opacity="0"/>
</linearGradient>
<linearGradient id="paint4_linear_500_6850" x1="50" y1="18" x2="50" y2="51.4769" gradientUnits="userSpaceOnUse">
<stop stop-color="white"/>
<stop offset="1" stop-color="white" stop-opacity="0"/>
</linearGradient>
<linearGradient id="paint5_linear_500_6850" x1="50" y1="18" x2="50" y2="51.4769" gradientUnits="userSpaceOnUse">
<stop stop-color="white"/>
<stop offset="1" stop-color="white" stop-opacity="0"/>
</linearGradient>
<linearGradient id="paint6_linear_500_6850" x1="50" y1="82" x2="50" y2="48.5231" gradientUnits="userSpaceOnUse">
<stop stop-color="white"/>
<stop offset="1" stop-color="white" stop-opacity="0"/>
</linearGradient>
<linearGradient id="paint7_linear_500_6850" x1="50" y1="82" x2="50" y2="48.5231" gradientUnits="userSpaceOnUse">
<stop stop-color="white"/>
<stop offset="1" stop-color="white" stop-opacity="0"/>
</linearGradient>
<linearGradient id="paint8_linear_500_6850" x1="50" y1="82" x2="50" y2="48.5231" gradientUnits="userSpaceOnUse">
<stop stop-color="white"/>
<stop offset="1" stop-color="white" stop-opacity="0"/>
</linearGradient>
<linearGradient id="paint9_linear_500_6850" x1="50" y1="82" x2="50" y2="48.5231" gradientUnits="userSpaceOnUse">
<stop stop-color="white"/>
<stop offset="1" stop-color="white" stop-opacity="0"/>
</linearGradient>
<linearGradient id="paint10_linear_500_6850" x1="50" y1="82" x2="50" y2="48.5231" gradientUnits="userSpaceOnUse">
<stop stop-color="white"/>
<stop offset="1" stop-color="white" stop-opacity="0"/>
</linearGradient>
<linearGradient id="paint11_linear_500_6850" x1="50" y1="82" x2="50" y2="48.5231" gradientUnits="userSpaceOnUse">
<stop stop-color="white"/>
<stop offset="1" stop-color="white" stop-opacity="0"/>
</linearGradient>
</defs>
</svg>
