<svg width="100" height="100" viewBox="0 0 100 100" fill="none" xmlns="http://www.w3.org/2000/svg">
<path d="M50 10L50.9156 36.03L55.221 10.3422L52.7313 36.269L60.3528 11.363L54.5002 36.743L65.3073 13.0448L56.192 37.4438L70 15.359L57.778 38.3594L74.3505 18.2659L59.2308 39.4742L78.2843 21.7157L60.5258 40.7692L81.7341 25.6495L61.6406 42.222L84.641 30L62.5562 43.808L86.9552 34.6927L63.257 45.4998L88.637 39.6472L63.731 47.2687L89.6578 44.779L63.97 49.0844L90 50L63.97 50.9156L89.6578 55.221L63.731 52.7313L88.637 60.3528L63.257 54.5002L86.9552 65.3073L62.5562 56.192L84.641 70L61.6406 57.778L81.7341 74.3505L60.5258 59.2308L78.2843 78.2843L59.2308 60.5258L74.3505 81.7341L57.778 61.6406L70 84.641L56.192 62.5562L65.3073 86.9552L54.5002 63.257L60.3528 88.637L52.7313 63.731L55.221 89.6578L50.9156 63.97L50 90L49.0844 63.97L44.779 89.6578L47.2687 63.731L39.6472 88.637L45.4998 63.257L34.6927 86.9552L43.808 62.5562L30 84.641L42.222 61.6406L25.6495 81.7341L40.7692 60.5258L21.7157 78.2843L39.4742 59.2308L18.2659 74.3505L38.3594 57.778L15.359 70L37.4438 56.192L13.0448 65.3073L36.743 54.5002L11.363 60.3528L36.269 52.7313L10.3422 55.221L36.03 50.9156L10 50L36.03 49.0844L10.3422 44.779L36.269 47.2687L11.363 39.6472L36.743 45.4998L13.0448 34.6927L37.4438 43.808L15.359 30L38.3594 42.222L18.2659 25.6495L39.4742 40.7692L21.7157 21.7157L40.7692 39.4742L25.6495 18.2659L42.222 38.3594L30 15.359L43.808 37.4438L34.6927 13.0448L45.4998 36.743L39.6472 11.363L47.2687 36.269L44.779 10.3422L49.0844 36.03L50 10Z" fill="url(#paint0_radial_500_5988)"/>
<defs>
<radialGradient id="paint0_radial_500_5988" cx="0" cy="0" r="1" gradientUnits="userSpaceOnUse" gradientTransform="translate(50 48.5) rotate(81.3843) scale(50.065)">
<stop stop-color="white"/>
<stop offset="1" stop-color="#FFF9F9" stop-opacity="0"/>
</radialGradient>
</defs>
</svg>
