<svg width="100" height="100" viewBox="0 0 100 100" fill="none" xmlns="http://www.w3.org/2000/svg">
<path fill-rule="evenodd" clip-rule="evenodd" d="M60.9746 66.5C60.9746 57.3873 56.0611 50 50.0001 50C43.939 50 39.0255 57.3873 39.0255 66.5C39.0255 75.6127 43.939 83 50.0001 83C56.0611 83 60.9746 75.6127 60.9746 66.5ZM59.9294 64.1048C59.9294 56.3149 55.4839 50 50.0001 50C44.5162 50 40.0707 56.3149 40.0707 64.1048C40.0707 71.8947 44.5162 78.2097 50.0001 78.2097C55.4839 78.2097 59.9294 71.8947 59.9294 64.1048Z" fill="url(#paint0_radial_500_7018)"/>
<path fill-rule="evenodd" clip-rule="evenodd" d="M60.9746 33.5C60.9746 42.6127 56.0611 50 50.0001 50C43.939 50 39.0255 42.6127 39.0255 33.5C39.0255 24.3873 43.939 17 50.0001 17C56.0611 17 60.9746 24.3873 60.9746 33.5ZM59.9294 35.8952C59.9294 43.6851 55.4839 50 50.0001 50C44.5162 50 40.0707 43.6851 40.0707 35.8952C40.0707 28.1053 44.5162 21.7903 50.0001 21.7903C55.4839 21.7903 59.9294 28.1053 59.9294 35.8952Z" fill="url(#paint1_radial_500_7018)"/>
<path fill-rule="evenodd" clip-rule="evenodd" d="M69.7437 48.7241C61.8701 44.1677 53.0306 44.7391 50.0001 50.0003C46.9695 55.2616 50.8956 63.2203 58.7692 67.7766C66.6427 72.333 75.4822 71.7616 78.5128 66.5003C81.5433 61.2391 77.6173 53.2804 69.7437 48.7241ZM67.1516 48.4337C60.421 44.5388 52.742 45.2402 50.0001 50.0003C47.2581 54.7605 50.4916 61.7768 57.2223 65.6718C63.9529 69.5667 71.6319 68.8653 74.3738 64.1052C77.1158 59.345 73.8823 52.3287 67.1516 48.4337Z" fill="url(#paint2_radial_500_7018)"/>
<path fill-rule="evenodd" clip-rule="evenodd" d="M41.2309 32.2242C49.1045 36.7805 53.0305 44.7392 50 50.0005C46.9695 55.2617 38.1299 55.8331 30.2564 51.2767C22.3828 46.7204 18.4567 38.7617 21.4873 33.5005C24.5178 28.2392 33.3573 27.6678 41.2309 32.2242ZM42.7778 34.329C49.5084 38.224 52.7419 45.2403 50 50.0005C47.2581 54.7606 39.5791 55.462 32.8484 51.567C26.1178 47.6721 22.8843 40.6558 25.6262 35.8956C28.3681 31.1355 36.0472 30.4341 42.7778 34.329Z" fill="url(#paint3_radial_500_7018)"/>
<path fill-rule="evenodd" clip-rule="evenodd" d="M30.2563 48.7241C38.1299 44.1677 46.9694 44.7391 49.9999 50.0003C53.0305 55.2616 49.1044 63.2203 41.2308 67.7766C33.3573 72.333 24.5178 71.7616 21.4872 66.5003C18.4567 61.2391 22.3827 53.2804 30.2563 48.7241ZM32.8484 48.4337C39.579 44.5388 47.258 45.2402 49.9999 50.0003C52.7419 54.7605 49.5084 61.7768 42.7777 65.6718C36.0471 69.5667 28.3681 68.8653 25.6262 64.1052C22.8842 59.345 26.1177 52.3287 32.8484 48.4337Z" fill="url(#paint4_radial_500_7018)"/>
<path fill-rule="evenodd" clip-rule="evenodd" d="M58.7691 32.2242C50.8955 36.7805 46.9695 44.7392 50 50.0005C53.0305 55.2617 61.8701 55.8331 69.7436 51.2767C77.6172 46.7204 81.5433 38.7617 78.5127 33.5005C75.4822 28.2392 66.6427 27.6678 58.7691 32.2242ZM57.2222 34.329C50.4916 38.224 47.2581 45.2403 50 50.0005C52.7419 54.7606 60.4209 55.462 67.1516 51.567C73.8822 47.6721 77.1157 40.6558 74.3738 35.8956C71.6319 31.1355 63.9528 30.4341 57.2222 34.329Z" fill="url(#paint5_radial_500_7018)"/>
<defs>
<radialGradient id="paint0_radial_500_7018" cx="0" cy="0" r="1" gradientUnits="userSpaceOnUse" gradientTransform="translate(49.8338 66.5) rotate(-43.8724) scale(19.6063 45.0937)">
<stop stop-color="white"/>
<stop offset="1" stop-color="white" stop-opacity="0"/>
</radialGradient>
<radialGradient id="paint1_radial_500_7018" cx="0" cy="0" r="1" gradientUnits="userSpaceOnUse" gradientTransform="translate(49.8338 33.5) rotate(43.8724) scale(19.6063 45.0937)">
<stop stop-color="white"/>
<stop offset="1" stop-color="white" stop-opacity="0"/>
</radialGradient>
<radialGradient id="paint2_radial_500_7018" cx="0" cy="0" r="1" gradientUnits="userSpaceOnUse" gradientTransform="translate(64.1733 58.3947) rotate(-103.775) scale(19.6274 45.0453)">
<stop stop-color="white"/>
<stop offset="1" stop-color="white" stop-opacity="0"/>
</radialGradient>
<radialGradient id="paint3_radial_500_7018" cx="0" cy="0" r="1" gradientUnits="userSpaceOnUse" gradientTransform="translate(35.6605 41.8948) rotate(-16.2295) scale(19.5881 45.1357)">
<stop stop-color="white"/>
<stop offset="1" stop-color="white" stop-opacity="0"/>
</radialGradient>
<radialGradient id="paint4_radial_500_7018" cx="0" cy="0" r="1" gradientUnits="userSpaceOnUse" gradientTransform="translate(35.8267 58.3947) rotate(-76.2246) scale(19.6274 45.0453)">
<stop stop-color="white"/>
<stop offset="1" stop-color="white" stop-opacity="0"/>
</radialGradient>
<radialGradient id="paint5_radial_500_7018" cx="0" cy="0" r="1" gradientUnits="userSpaceOnUse" gradientTransform="translate(64.3395 41.8948) rotate(-163.771) scale(19.5881 45.1357)">
<stop stop-color="white"/>
<stop offset="1" stop-color="white" stop-opacity="0"/>
</radialGradient>
</defs>
</svg>
