<svg width="100" height="100" viewBox="0 0 100 100" fill="none" xmlns="http://www.w3.org/2000/svg">
<path d="M25.1506 35.69C25.3972 34.9266 25.6766 34.1754 25.988 33.4384L40.4385 18.9879C41.1755 18.6765 41.9267 18.3971 42.6901 18.1504L25.1506 35.69Z" fill="url(#paint0_linear_422_159)"/>
<path d="M24.2205 39.4484C24.3255 38.8473 24.45 38.2513 24.5934 37.6612L44.6613 17.5933C45.2514 17.4498 45.8474 17.3254 46.4485 17.2204L24.2205 39.4484Z" fill="url(#paint1_linear_422_159)"/>
<path d="M23.849 42.6484C23.8793 42.13 23.9238 41.614 23.9822 41.101L48.1011 16.9821C48.6141 16.9237 49.1301 16.8792 49.6485 16.8489L23.849 42.6484Z" fill="url(#paint2_linear_422_159)"/>
<path d="M23.8258 45.4999C23.8161 45.2686 23.8092 45.0369 23.8051 44.805C23.801 44.573 23.7998 44.3413 23.8014 44.1101L51.1102 16.8013C51.3415 16.7997 51.5731 16.8009 51.8051 16.805C52.037 16.8091 52.2687 16.816 52.5 16.8257L23.8258 45.4999Z" fill="url(#paint3_linear_422_159)"/>
<path d="M24.0536 48.1007C23.9971 47.6779 23.95 47.2535 23.9123 46.8278L53.8279 16.9122C54.2536 16.9499 54.678 16.997 55.1008 17.0535L24.0536 48.1007Z" fill="url(#paint4_linear_422_159)"/>
<path d="M24.4784 50.5043C24.3921 50.1129 24.3139 49.7196 24.2438 49.3247L56.3248 17.2437C56.7197 17.3138 57.113 17.392 57.5044 17.4783L24.4784 50.5043Z" fill="url(#paint5_linear_422_159)"/>
<path d="M25.0665 52.7445C24.9551 52.3794 24.8507 52.0122 24.7536 51.6431L58.6432 17.7535C59.0123 17.8506 59.3795 17.9549 59.7446 18.0664L25.0665 52.7445Z" fill="url(#paint6_linear_422_159)"/>
<path d="M25.7954 54.8442C25.662 54.502 25.535 54.1575 25.4145 53.8109L60.811 18.4144C61.1576 18.5349 61.5021 18.6619 61.8443 18.7953L25.7954 54.8442Z" fill="url(#paint7_linear_422_159)"/>
<path d="M26.6494 56.8186C26.4962 56.497 26.3489 56.1728 26.2075 55.8462L62.8463 19.2074C63.1729 19.3488 63.4971 19.4961 63.8187 19.6493L26.6494 56.8186Z" fill="url(#paint8_linear_422_159)"/>
<path d="M27.6174 58.6789C27.4461 58.3761 27.2801 58.0705 27.1197 57.7624L64.7625 20.1196C65.0706 20.28 65.3762 20.446 65.679 20.6173L27.6174 58.6789Z" fill="url(#paint9_linear_422_159)"/>
<path d="M28.6918 60.433C28.5033 60.1479 28.32 59.8598 28.1418 59.5689L66.569 21.1416C66.8599 21.3199 67.148 21.5032 67.4331 21.6917L28.6918 60.433Z" fill="url(#paint10_linear_422_159)"/>
<path d="M29.8668 62.0863C29.662 61.8179 29.4621 61.5464 29.2669 61.272L68.2721 22.2668C68.5466 22.4619 68.8181 22.6619 69.0864 22.8667L29.8668 62.0863Z" fill="url(#paint11_linear_422_159)"/>
<path d="M31.139 63.6427C30.9184 63.3906 30.7024 63.1351 30.491 62.8765L69.8766 23.4909C70.1352 23.7023 70.3907 23.9183 70.6428 24.1389L31.139 63.6427Z" fill="url(#paint12_linear_422_159)"/>
<path d="M32.5061 65.104C32.27 64.8678 32.0382 64.6282 31.8108 64.3851L71.3852 24.8107C71.6283 25.0381 71.8679 25.2699 72.1041 25.506L32.5061 65.104Z" fill="url(#paint13_linear_422_159)"/>
<path d="M37.6608 20.3514L27.3515 30.6607C28.5525 28.5286 30.0429 26.555 31.799 24.7989C33.5551 23.0428 35.5287 21.5524 37.6608 20.3514Z" fill="url(#paint14_linear_422_159)"/>
<path d="M74.3124 64.2548C74.0658 65.0182 73.7864 65.7694 73.475 66.5064L59.0244 80.957C58.2874 81.2684 57.5362 81.5478 56.7728 81.7944L74.3124 64.2548Z" fill="url(#paint15_linear_422_159)"/>
<path d="M75.2424 60.4964C75.1374 61.0975 75.013 61.6935 74.8695 62.2836L54.8016 82.3515C54.2115 82.495 53.6155 82.6194 53.0144 82.7244L75.2424 60.4964Z" fill="url(#paint16_linear_422_159)"/>
<path d="M75.6139 57.2964C75.5836 57.8149 75.5392 58.3309 75.4807 58.8438L51.3618 82.9627C50.8489 83.0212 50.3329 83.0656 49.8144 83.0959L75.6139 57.2964Z" fill="url(#paint17_linear_422_159)"/>
<path d="M75.6372 54.4449C75.6469 54.6763 75.6537 54.9079 75.6578 55.1398C75.6619 55.3718 75.6631 55.6035 75.6615 55.8347L48.3527 83.1435C48.1215 83.1451 47.8898 83.1439 47.6578 83.1398C47.4259 83.1358 47.1943 83.1289 46.9629 83.1192L75.6372 54.4449Z" fill="url(#paint18_linear_422_159)"/>
<path d="M75.4094 51.8441C75.4658 52.267 75.513 52.6914 75.5506 53.1171L45.6351 83.0326C45.2094 82.995 44.7849 82.9478 44.3621 82.8914L75.4094 51.8441Z" fill="url(#paint19_linear_422_159)"/>
<path d="M74.9845 49.4405C75.0708 49.8319 75.149 50.2252 75.2191 50.6202L43.1381 82.7011C42.7432 82.631 42.3499 82.5528 41.9585 82.4665L74.9845 49.4405Z" fill="url(#paint20_linear_422_159)"/>
<path d="M74.3964 47.2004C74.5079 47.5654 74.6122 47.9326 74.7093 48.3017L40.8197 82.1913C40.4506 82.0942 40.0834 81.9899 39.7184 81.8784L74.3964 47.2004Z" fill="url(#paint21_linear_422_159)"/>
<path d="M73.6675 45.1007C73.801 45.4428 73.928 45.7873 74.0484 46.134L38.652 81.5305C38.3053 81.41 37.9608 81.283 37.6187 81.1495L73.6675 45.1007Z" fill="url(#paint22_linear_422_159)"/>
<path d="M72.8135 43.1262C72.9667 43.4478 73.114 43.772 73.2554 44.0986L36.6166 80.7374C36.29 80.596 35.9658 80.4487 35.6442 80.2955L72.8135 43.1262Z" fill="url(#paint23_linear_422_159)"/>
<path d="M71.8455 41.266C72.0169 41.5687 72.1828 41.8743 72.3432 42.1824L34.7004 79.8252C34.3923 79.6648 34.0867 79.4989 33.784 79.3275L71.8455 41.266Z" fill="url(#paint24_linear_422_159)"/>
<path d="M70.7711 39.5118C70.9596 39.797 71.143 40.0851 71.3212 40.376L32.8939 78.8032C32.6031 78.625 32.315 78.4416 32.0298 78.2531L70.7711 39.5118Z" fill="url(#paint25_linear_422_159)"/>
<path d="M69.5961 37.8585C69.8009 38.1269 70.0009 38.3984 70.196 38.6729L31.1909 77.678C30.9164 77.4829 30.6449 77.2829 30.3765 77.0781L69.5961 37.8585Z" fill="url(#paint26_linear_422_159)"/>
<path d="M68.3239 36.3021C68.5445 36.5543 68.7605 36.8097 68.972 37.0683L29.5863 76.454C29.3277 76.2425 29.0723 76.0265 28.8201 75.8059L68.3239 36.3021Z" fill="url(#paint27_linear_422_159)"/>
<path d="M28.0777 75.1342C27.8346 74.9068 27.595 74.675 27.3588 74.4388L66.9568 34.8408C67.193 35.077 67.4248 35.3167 67.6521 35.5597L28.0777 75.1342Z" fill="url(#paint28_linear_422_159)"/>
<path d="M61.8022 79.5934L72.1114 69.2842C70.9104 71.4162 69.42 73.3898 67.6639 75.1459C65.9078 76.902 63.9342 78.3924 61.8022 79.5934Z" fill="url(#paint29_linear_422_159)"/>
<defs>
<linearGradient id="paint0_linear_422_159" x1="31.799" y1="24.799" x2="54.1405" y2="46.7066" gradientUnits="userSpaceOnUse">
<stop stop-color="white" stop-opacity="0.9"/>
<stop offset="1" stop-color="white" stop-opacity="0"/>
</linearGradient>
<linearGradient id="paint1_linear_422_159" x1="31.799" y1="24.799" x2="54.1405" y2="46.7066" gradientUnits="userSpaceOnUse">
<stop stop-color="white" stop-opacity="0.9"/>
<stop offset="1" stop-color="white" stop-opacity="0"/>
</linearGradient>
<linearGradient id="paint2_linear_422_159" x1="31.799" y1="24.799" x2="54.1405" y2="46.7066" gradientUnits="userSpaceOnUse">
<stop stop-color="white" stop-opacity="0.9"/>
<stop offset="1" stop-color="white" stop-opacity="0"/>
</linearGradient>
<linearGradient id="paint3_linear_422_159" x1="31.799" y1="24.799" x2="54.1405" y2="46.7066" gradientUnits="userSpaceOnUse">
<stop stop-color="white" stop-opacity="0.9"/>
<stop offset="1" stop-color="white" stop-opacity="0"/>
</linearGradient>
<linearGradient id="paint4_linear_422_159" x1="31.799" y1="24.799" x2="54.1405" y2="46.7066" gradientUnits="userSpaceOnUse">
<stop stop-color="white" stop-opacity="0.9"/>
<stop offset="1" stop-color="white" stop-opacity="0"/>
</linearGradient>
<linearGradient id="paint5_linear_422_159" x1="31.799" y1="24.799" x2="54.1405" y2="46.7066" gradientUnits="userSpaceOnUse">
<stop stop-color="white" stop-opacity="0.9"/>
<stop offset="1" stop-color="white" stop-opacity="0"/>
</linearGradient>
<linearGradient id="paint6_linear_422_159" x1="31.799" y1="24.799" x2="54.1405" y2="46.7066" gradientUnits="userSpaceOnUse">
<stop stop-color="white" stop-opacity="0.9"/>
<stop offset="1" stop-color="white" stop-opacity="0"/>
</linearGradient>
<linearGradient id="paint7_linear_422_159" x1="31.799" y1="24.799" x2="54.1405" y2="46.7066" gradientUnits="userSpaceOnUse">
<stop stop-color="white" stop-opacity="0.9"/>
<stop offset="1" stop-color="white" stop-opacity="0"/>
</linearGradient>
<linearGradient id="paint8_linear_422_159" x1="31.799" y1="24.799" x2="54.1405" y2="46.7066" gradientUnits="userSpaceOnUse">
<stop stop-color="white" stop-opacity="0.9"/>
<stop offset="1" stop-color="white" stop-opacity="0"/>
</linearGradient>
<linearGradient id="paint9_linear_422_159" x1="31.799" y1="24.799" x2="54.1405" y2="46.7066" gradientUnits="userSpaceOnUse">
<stop stop-color="white" stop-opacity="0.9"/>
<stop offset="1" stop-color="white" stop-opacity="0"/>
</linearGradient>
<linearGradient id="paint10_linear_422_159" x1="31.799" y1="24.799" x2="54.1405" y2="46.7066" gradientUnits="userSpaceOnUse">
<stop stop-color="white" stop-opacity="0.9"/>
<stop offset="1" stop-color="white" stop-opacity="0"/>
</linearGradient>
<linearGradient id="paint11_linear_422_159" x1="31.799" y1="24.799" x2="54.1405" y2="46.7066" gradientUnits="userSpaceOnUse">
<stop stop-color="white" stop-opacity="0.9"/>
<stop offset="1" stop-color="white" stop-opacity="0"/>
</linearGradient>
<linearGradient id="paint12_linear_422_159" x1="31.799" y1="24.799" x2="54.1405" y2="46.7066" gradientUnits="userSpaceOnUse">
<stop stop-color="white" stop-opacity="0.9"/>
<stop offset="1" stop-color="white" stop-opacity="0"/>
</linearGradient>
<linearGradient id="paint13_linear_422_159" x1="31.799" y1="24.799" x2="54.1405" y2="46.7066" gradientUnits="userSpaceOnUse">
<stop stop-color="white" stop-opacity="0.9"/>
<stop offset="1" stop-color="white" stop-opacity="0"/>
</linearGradient>
<linearGradient id="paint14_linear_422_159" x1="31.799" y1="24.799" x2="54.1405" y2="46.7066" gradientUnits="userSpaceOnUse">
<stop stop-color="white" stop-opacity="0.9"/>
<stop offset="1" stop-color="white" stop-opacity="0"/>
</linearGradient>
<linearGradient id="paint15_linear_422_159" x1="67.664" y1="75.1459" x2="45.3225" y2="53.2383" gradientUnits="userSpaceOnUse">
<stop stop-color="white" stop-opacity="0.9"/>
<stop offset="1" stop-color="white" stop-opacity="0"/>
</linearGradient>
<linearGradient id="paint16_linear_422_159" x1="67.664" y1="75.1459" x2="45.3225" y2="53.2383" gradientUnits="userSpaceOnUse">
<stop stop-color="white" stop-opacity="0.9"/>
<stop offset="1" stop-color="white" stop-opacity="0"/>
</linearGradient>
<linearGradient id="paint17_linear_422_159" x1="67.664" y1="75.1459" x2="45.3225" y2="53.2383" gradientUnits="userSpaceOnUse">
<stop stop-color="white" stop-opacity="0.9"/>
<stop offset="1" stop-color="white" stop-opacity="0"/>
</linearGradient>
<linearGradient id="paint18_linear_422_159" x1="67.664" y1="75.1459" x2="45.3225" y2="53.2383" gradientUnits="userSpaceOnUse">
<stop stop-color="white" stop-opacity="0.9"/>
<stop offset="1" stop-color="white" stop-opacity="0"/>
</linearGradient>
<linearGradient id="paint19_linear_422_159" x1="67.664" y1="75.1459" x2="45.3225" y2="53.2383" gradientUnits="userSpaceOnUse">
<stop stop-color="white" stop-opacity="0.9"/>
<stop offset="1" stop-color="white" stop-opacity="0"/>
</linearGradient>
<linearGradient id="paint20_linear_422_159" x1="67.664" y1="75.1459" x2="45.3225" y2="53.2383" gradientUnits="userSpaceOnUse">
<stop stop-color="white" stop-opacity="0.9"/>
<stop offset="1" stop-color="white" stop-opacity="0"/>
</linearGradient>
<linearGradient id="paint21_linear_422_159" x1="67.664" y1="75.1459" x2="45.3225" y2="53.2383" gradientUnits="userSpaceOnUse">
<stop stop-color="white" stop-opacity="0.9"/>
<stop offset="1" stop-color="white" stop-opacity="0"/>
</linearGradient>
<linearGradient id="paint22_linear_422_159" x1="67.664" y1="75.1459" x2="45.3225" y2="53.2383" gradientUnits="userSpaceOnUse">
<stop stop-color="white" stop-opacity="0.9"/>
<stop offset="1" stop-color="white" stop-opacity="0"/>
</linearGradient>
<linearGradient id="paint23_linear_422_159" x1="67.664" y1="75.1459" x2="45.3225" y2="53.2383" gradientUnits="userSpaceOnUse">
<stop stop-color="white" stop-opacity="0.9"/>
<stop offset="1" stop-color="white" stop-opacity="0"/>
</linearGradient>
<linearGradient id="paint24_linear_422_159" x1="67.664" y1="75.1459" x2="45.3225" y2="53.2383" gradientUnits="userSpaceOnUse">
<stop stop-color="white" stop-opacity="0.9"/>
<stop offset="1" stop-color="white" stop-opacity="0"/>
</linearGradient>
<linearGradient id="paint25_linear_422_159" x1="67.664" y1="75.1459" x2="45.3225" y2="53.2383" gradientUnits="userSpaceOnUse">
<stop stop-color="white" stop-opacity="0.9"/>
<stop offset="1" stop-color="white" stop-opacity="0"/>
</linearGradient>
<linearGradient id="paint26_linear_422_159" x1="67.664" y1="75.1459" x2="45.3225" y2="53.2383" gradientUnits="userSpaceOnUse">
<stop stop-color="white" stop-opacity="0.9"/>
<stop offset="1" stop-color="white" stop-opacity="0"/>
</linearGradient>
<linearGradient id="paint27_linear_422_159" x1="67.664" y1="75.1459" x2="45.3225" y2="53.2383" gradientUnits="userSpaceOnUse">
<stop stop-color="white" stop-opacity="0.9"/>
<stop offset="1" stop-color="white" stop-opacity="0"/>
</linearGradient>
<linearGradient id="paint28_linear_422_159" x1="67.664" y1="75.1459" x2="45.3225" y2="53.2383" gradientUnits="userSpaceOnUse">
<stop stop-color="white" stop-opacity="0.9"/>
<stop offset="1" stop-color="white" stop-opacity="0"/>
</linearGradient>
<linearGradient id="paint29_linear_422_159" x1="67.664" y1="75.1459" x2="45.3225" y2="53.2383" gradientUnits="userSpaceOnUse">
<stop stop-color="white" stop-opacity="0.9"/>
<stop offset="1" stop-color="white" stop-opacity="0"/>
</linearGradient>
</defs>
</svg>
