<svg width="100" height="100" viewBox="0 0 100 100" fill="none" xmlns="http://www.w3.org/2000/svg">
<g clip-path="url(#clip0_500_6336)">
<path d="M24.5042 25.1679C24.5453 24.8198 24.8198 24.5453 25.1679 24.5042L30.2782 23.9014C30.7131 23.8501 31.09 23.5763 31.2732 23.1785L33.4256 18.5047C33.5723 18.1863 33.9181 18.01 34.2619 18.0786L39.3083 19.0844C39.7378 19.17 40.1809 19.026 40.478 18.7043L43.9694 14.9244C44.2073 14.6669 44.5907 14.6062 44.8965 14.7776L49.3851 17.2936C49.7671 17.5077 50.233 17.5077 50.615 17.2936L55.1035 14.7776C55.4093 14.6062 55.7927 14.6669 56.0306 14.9244L59.522 18.7043C59.8191 19.0261 60.2622 19.17 60.6917 19.0844L65.7381 18.0786C66.0819 18.01 66.4278 18.1863 66.5744 18.5047L68.7268 23.1785C68.91 23.5763 69.2869 23.8501 69.7218 23.9014L74.8321 24.5042C75.1802 24.5453 75.4547 24.8198 75.4958 25.1679L76.0986 30.2782C76.1499 30.7131 76.4237 31.09 76.8215 31.2732L81.4953 33.4256C81.8137 33.5722 81.99 33.9181 81.9215 34.2619L80.9156 39.3083C80.83 39.7378 80.974 40.1809 81.2957 40.478L85.0756 43.9694C85.3331 44.2073 85.3938 44.5907 85.2224 44.8965L82.7064 49.385C82.4923 49.7671 82.4923 50.2329 82.7064 50.615L85.2224 55.1035C85.3938 55.4093 85.3331 55.7927 85.0756 56.0306L81.2957 59.522C80.974 59.8191 80.83 60.2622 80.9156 60.6917L81.9215 65.7381C81.99 66.0819 81.8137 66.4278 81.4953 66.5744L76.8215 68.7268C76.4237 68.91 76.1499 69.2869 76.0986 69.7218L75.4958 74.8321C75.4547 75.1802 75.1802 75.4547 74.8321 75.4958L69.7218 76.0986C69.2869 76.1499 68.91 76.4237 68.7268 76.8215L66.5744 81.4953C66.4278 81.8137 66.0819 81.99 65.7381 81.9214L60.6917 80.9156C60.2622 80.83 59.8191 80.9739 59.522 81.2957L56.0306 85.0756C55.7927 85.3331 55.4093 85.3938 55.1035 85.2224L50.615 82.7064C50.233 82.4923 49.7671 82.4923 49.3851 82.7064L44.8965 85.2224C44.5907 85.3938 44.2073 85.3331 43.9694 85.0756L40.478 81.2957C40.1809 80.974 39.7378 80.83 39.3083 80.9156L34.2619 81.9214C33.9181 81.99 33.5723 81.8137 33.4256 81.4953L31.2732 76.8215C31.09 76.4237 30.7131 76.1499 30.2782 76.0986L25.1679 75.4958C24.8198 75.4547 24.5453 75.1802 24.5042 74.8321L23.9014 69.7218C23.8501 69.2869 23.5763 68.91 23.1785 68.7268L18.5047 66.5744C18.1863 66.4277 18.01 66.0819 18.0786 65.7381L19.0844 60.6917C19.17 60.2622 19.0261 59.8191 18.7044 59.522L14.9244 56.0306C14.6669 55.7927 14.6062 55.4093 14.7776 55.1035L17.2936 50.615C17.5078 50.2329 17.5078 49.7671 17.2936 49.385L14.7776 44.8965C14.6062 44.5907 14.6669 44.2073 14.9244 43.9694L18.7044 40.478C19.0261 40.1809 19.17 39.7378 19.0844 39.3083L18.0786 34.2619C18.01 33.9181 18.1863 33.5723 18.5047 33.4256L23.1785 31.2732C23.5763 31.09 23.8501 30.7131 23.9014 30.2782L24.5042 25.1679Z" stroke="url(#paint0_linear_500_6336)" stroke-width="0.5"/>
<path d="M27.3647 27.9303C27.3997 27.6336 27.6336 27.3997 27.9303 27.3647L32.4727 26.8289C32.8689 26.7821 33.2123 26.5327 33.3792 26.1703L35.2925 22.0158C35.4174 21.7444 35.7122 21.5942 36.0052 21.6526L40.4909 22.5467C40.8821 22.6247 41.2857 22.4936 41.5564 22.2005L44.6599 18.8405C44.8626 18.6211 45.1894 18.5693 45.45 18.7154L49.4398 20.9519C49.7878 21.147 50.2122 21.147 50.5602 20.9519L54.5501 18.7154C54.8107 18.5693 55.1374 18.6211 55.3401 18.8405L58.4436 22.2005C58.7143 22.4936 59.1179 22.6247 59.5092 22.5467L63.9949 21.6526C64.2878 21.5942 64.5826 21.7444 64.7076 22.0158L66.6208 26.1703C66.7877 26.5327 67.1311 26.7821 67.5273 26.8289L72.0697 27.3647C72.3664 27.3997 72.6003 27.6336 72.6353 27.9303L73.1711 32.4727C73.2179 32.8689 73.4673 33.2123 73.8297 33.3792L77.9842 35.2924C78.2556 35.4174 78.4058 35.7122 78.3474 36.0052L77.4533 40.4908C77.3753 40.8821 77.5065 41.2857 77.7995 41.5564L81.1595 44.6599C81.3789 44.8626 81.4307 45.1894 81.2846 45.4499L79.0481 49.4398C78.8531 49.7878 78.8531 50.2122 79.0481 50.5602L81.2846 54.5501C81.4307 54.8106 81.3789 55.1374 81.1595 55.3401L77.7995 58.4436C77.5065 58.7143 77.3753 59.1179 77.4533 59.5091L78.3474 63.9948C78.4058 64.2878 78.2556 64.5826 77.9842 64.7076L73.8297 66.6208C73.4673 66.7877 73.2179 67.1311 73.1712 67.5273L72.6353 72.0697C72.6003 72.3664 72.3664 72.6003 72.0697 72.6353L67.5273 73.1711C67.1311 73.2179 66.7877 73.4673 66.6208 73.8297L64.7076 77.9842C64.5826 78.2556 64.2878 78.4058 63.9948 78.3474L59.5092 77.4533C59.1179 77.3753 58.7143 77.5064 58.4436 77.7995L55.3401 81.1595C55.1374 81.3789 54.8107 81.4307 54.5501 81.2846L50.5602 79.0481C50.2122 78.853 49.7878 78.853 49.4398 79.0481L45.45 81.2846C45.1894 81.4307 44.8626 81.3789 44.6599 81.1595L41.5564 77.7995C41.2857 77.5064 40.8821 77.3753 40.4909 77.4533L36.0052 78.3474C35.7122 78.4058 35.4174 78.2556 35.2925 77.9842L33.3792 73.8297C33.2123 73.4673 32.8689 73.2179 32.4727 73.1711L27.9303 72.6353C27.6336 72.6003 27.3997 72.3664 27.3647 72.0697L26.8289 67.5273C26.7821 67.1311 26.5327 66.7877 26.1703 66.6208L22.0158 64.7076C21.7444 64.5826 21.5942 64.2878 21.6526 63.9948L22.5467 59.5091C22.6247 59.1179 22.4936 58.7143 22.2005 58.4436L18.8405 55.3401C18.6211 55.1374 18.5693 54.8106 18.7154 54.5501L20.9519 50.5602C21.147 50.2122 21.147 49.7878 20.9519 49.4398L18.7154 45.4499C18.5693 45.1894 18.6211 44.8626 18.8405 44.6599L22.2005 41.5564C22.4936 41.2857 22.6247 40.8821 22.5467 40.4909L21.6526 36.0052C21.5942 35.7122 21.7444 35.4174 22.0158 35.2924L26.1703 33.3792C26.5327 33.2123 26.7821 32.8689 26.8289 32.4727L27.3647 27.9303Z" stroke="url(#paint1_linear_500_6336)" stroke-width="0.5"/>
<path d="M30.2252 30.6927C30.2541 30.4474 30.4475 30.2541 30.6927 30.2251L34.6673 29.7563C35.0248 29.7141 35.3346 29.489 35.4852 29.1621L37.1593 25.5269C37.2626 25.3026 37.5063 25.1784 37.7484 25.2267L41.6734 26.009C42.0264 26.0794 42.3906 25.9611 42.6348 25.6966L45.3504 22.7567C45.5179 22.5753 45.788 22.5325 46.0034 22.6532L49.4946 24.6102C49.8085 24.7862 50.1915 24.7862 50.5055 24.6102L53.9966 22.6532C54.212 22.5325 54.4821 22.5753 54.6497 22.7567L57.3652 25.6966C57.6094 25.9611 57.9736 26.0794 58.3266 26.009L62.2516 25.2267C62.4938 25.1784 62.7374 25.3026 62.8407 25.5269L64.5149 29.1621C64.6654 29.489 64.9752 29.7141 65.3327 29.7563L69.3073 30.2251C69.5526 30.2541 69.746 30.4474 69.7749 30.6927L70.2437 34.6673C70.2859 35.0248 70.511 35.3346 70.8379 35.4852L74.4731 37.1593C74.6974 37.2626 74.8216 37.5062 74.7733 37.7484L73.991 41.6734C73.9206 42.0264 74.039 42.3906 74.3034 42.6348L77.2433 45.3504C77.4247 45.5179 77.4675 45.788 77.3468 46.0034L75.3899 49.4945C75.2139 49.8085 75.2139 50.1915 75.3899 50.5055L77.3468 53.9966C77.4675 54.212 77.4247 54.4821 77.2433 54.6496L74.3034 57.3652C74.039 57.6094 73.9206 57.9736 73.991 58.3266L74.7733 62.2516C74.8216 62.4938 74.6974 62.7374 74.4731 62.8407L70.8379 64.5148C70.511 64.6654 70.2859 64.9752 70.2437 65.3327L69.7749 69.3073C69.746 69.5526 69.5526 69.7459 69.3073 69.7749L65.3327 70.2437C64.9752 70.2859 64.6654 70.511 64.5149 70.8379L62.8407 74.4731C62.7374 74.6974 62.4938 74.8216 62.2516 74.7733L58.3266 73.991C57.9736 73.9206 57.6094 74.0389 57.3652 74.3034L54.6497 77.2433C54.4821 77.4247 54.212 77.4675 53.9966 77.3468L50.5055 75.3898C50.1915 75.2138 49.8085 75.2138 49.4946 75.3898L46.0034 77.3468C45.788 77.4675 45.5179 77.4247 45.3504 77.2433L42.6348 74.3034C42.3906 74.0389 42.0264 73.9206 41.6734 73.991L37.7484 74.7733C37.5063 74.8216 37.2626 74.6974 37.1593 74.4731L35.4852 70.8379C35.3346 70.511 35.0248 70.2859 34.6673 70.2437L30.6927 69.7749C30.4475 69.7459 30.2541 69.5526 30.2251 69.3073L29.7563 65.3327C29.7141 64.9752 29.4891 64.6654 29.1621 64.5148L25.5269 62.8407C25.3026 62.7374 25.1784 62.4938 25.2267 62.2516L26.009 58.3266C26.0794 57.9736 25.9611 57.6094 25.6967 57.3652L22.7567 54.6496C22.5753 54.4821 22.5325 54.212 22.6533 53.9966L24.6102 50.5055C24.7862 50.1915 24.7862 49.8085 24.6102 49.4945L22.6533 46.0034C22.5325 45.788 22.5753 45.5179 22.7567 45.3504L25.6967 42.6348C25.9611 42.3906 26.0794 42.0264 26.009 41.6734L25.2267 37.7484C25.1784 37.5062 25.3026 37.2626 25.5269 37.1593L29.1621 35.4852C29.4891 35.3346 29.7141 35.0248 29.7563 34.6673L30.2252 30.6927Z" stroke="url(#paint2_linear_500_6336)" stroke-width="0.5"/>
<path d="M42.8559 29.4713L42.9048 29.2262L42.8559 29.4713C43.1707 29.5341 43.4955 29.4286 43.7133 29.1928L46.0409 26.6728C46.1733 26.5295 46.3867 26.4957 46.5569 26.5911L46.6792 26.373L46.5569 26.5911L49.5493 28.2684C49.8293 28.4254 50.1708 28.4254 50.4507 28.2684L53.4431 26.5911C53.6133 26.4957 53.8268 26.5295 53.9592 26.6728L56.2868 29.1928C56.5046 29.4286 56.8293 29.5341 57.1441 29.4713L60.5084 28.8008C60.6997 28.7626 60.8923 28.8607 60.9739 29.038L62.4089 32.1539C62.5431 32.4454 62.8194 32.6461 63.1382 32.6837L66.545 33.0856C66.7388 33.1084 66.8916 33.2613 66.9144 33.455L67.3163 36.8619C67.3539 37.1806 67.5546 37.4569 67.8462 37.5911L70.9621 39.0261C71.1393 39.1077 71.2374 39.3003 71.1993 39.4917L70.5287 42.8559C70.4659 43.1707 70.5715 43.4955 70.8072 43.7132L73.3272 46.0408C73.4706 46.1732 73.5044 46.3867 73.4089 46.5569L71.7316 49.5493C71.5746 49.8293 71.5746 50.1707 71.7316 50.4507L73.409 53.4431C73.5044 53.6133 73.4706 53.8268 73.3272 53.9592L70.8072 56.2868C70.5715 56.5045 70.4659 56.8293 70.5287 57.1441L71.1993 60.5083C71.2374 60.6997 71.1393 60.8923 70.9621 60.9739L67.8462 62.4089C67.5546 62.5431 67.3539 62.8194 67.3163 63.1381L66.9144 66.545C66.8916 66.7387 66.7388 66.8916 66.545 66.9144L63.1381 67.3163C62.8194 67.3539 62.5431 67.5546 62.4089 67.8461L60.9739 70.962C60.8923 71.1393 60.6997 71.2374 60.5084 71.1992L57.1441 70.5287C56.8293 70.4659 56.5046 70.5714 56.2868 70.8072L53.9592 73.3272C53.8268 73.4705 53.6133 73.5043 53.4431 73.4089L50.4507 71.7316C50.1708 71.5746 49.8293 71.5746 49.5493 71.7316L46.5569 73.4089L46.6792 73.627L46.5569 73.4089C46.3867 73.5043 46.1733 73.4705 46.0409 73.3272L43.7133 70.8072C43.4955 70.5714 43.1707 70.4659 42.8559 70.5287L42.9048 70.7738L42.8559 70.5287L39.4917 71.1992C39.3003 71.2374 39.1078 71.1393 39.0261 70.962L37.5912 67.8461C37.4569 67.5546 37.1807 67.3539 36.8619 67.3163L33.4551 66.9144C33.2613 66.8916 33.1085 66.7387 33.0856 66.545L32.6837 63.1381C32.6461 62.8194 32.4454 62.5431 32.1539 62.4089L29.038 60.9739C28.8608 60.8923 28.7626 60.6997 28.8008 60.5083L29.4714 57.1441C29.5341 56.8293 29.4286 56.5045 29.1928 56.2868L26.6728 53.9592C26.5295 53.8268 26.4957 53.6133 26.5911 53.4431L28.2685 50.4507C28.4254 50.1707 28.4254 49.8293 28.2685 49.5493L26.5911 46.5569C26.4957 46.3867 26.5295 46.1732 26.6728 46.0408L29.1928 43.7132C29.4286 43.4955 29.5341 43.1707 29.4714 42.8559L28.8008 39.4917C28.7626 39.3003 28.8608 39.1077 29.038 39.0261L32.1539 37.5911C32.4454 37.4569 32.6461 37.1806 32.6837 36.8619L33.0856 33.455C33.1085 33.2613 33.2613 33.1084 33.4551 33.0856L36.8619 32.6837C37.1807 32.6461 37.4569 32.4454 37.5912 32.1539L39.0261 29.038C39.1078 28.8607 39.3003 28.7626 39.4917 28.8008L42.8559 29.4713Z" stroke="url(#paint3_linear_500_6336)" stroke-width="0.5"/>
<path d="M35.946 36.2174C35.9628 36.0751 36.075 35.9628 36.2174 35.946L39.0564 35.6111C39.3365 35.5781 39.5791 35.4018 39.6971 35.1457L40.8929 32.5491C40.9529 32.4189 41.0943 32.3468 41.2349 32.3748L44.0384 32.9336C44.315 32.9888 44.6003 32.8961 44.7916 32.6889L46.7313 30.5889C46.8285 30.4836 46.9853 30.4588 47.1103 30.5289L49.604 31.9267C49.85 32.0646 50.15 32.0646 50.3959 31.9267L52.8896 30.5289C53.0146 30.4588 53.1714 30.4836 53.2687 30.5889L55.2083 32.6889C55.3997 32.8961 55.685 32.9888 55.9615 32.9336L58.7651 32.3748C58.9056 32.3468 59.0471 32.4189 59.107 32.5491L60.3028 35.1457L60.5299 35.0411L60.3028 35.1457C60.4208 35.4018 60.6635 35.5781 60.9435 35.6111L63.7825 35.946C63.9249 35.9628 64.0371 36.0751 64.0539 36.2174L64.3888 39.0564C64.4219 39.3365 64.5982 39.5792 64.8543 39.6971L67.4509 40.8929C67.5811 40.9529 67.6532 41.0943 67.6251 41.2349L67.0663 44.0385C67.0112 44.315 67.1039 44.6003 67.3111 44.7916L69.411 46.7313C69.5163 46.8286 69.5412 46.9853 69.4711 47.1104L68.0733 49.604C67.9354 49.85 67.9354 50.15 68.0733 50.396L69.4711 52.8896C69.5412 53.0147 69.5163 53.1714 69.411 53.2687L67.3111 55.2084C67.1039 55.3997 67.0112 55.685 67.0663 55.9615L67.6251 58.7651C67.6532 58.9057 67.5811 59.0471 67.4509 59.1071L64.8543 60.3029C64.5982 60.4208 64.4219 60.6635 64.3888 60.9436L64.0539 63.7826C64.0371 63.9249 63.9249 64.0372 63.7826 64.054L60.9435 64.3889C60.6635 64.4219 60.4208 64.5982 60.3028 64.8543L60.5299 64.9589L60.3028 64.8543L59.107 67.4509C59.0471 67.5811 58.9056 67.6532 58.7651 67.6252L55.9615 67.0664C55.685 67.0112 55.3997 67.1039 55.2083 67.3111L53.2687 69.4111C53.1714 69.5164 53.0146 69.5412 52.8896 69.4711L50.3959 68.0733C50.15 67.9354 49.85 67.9354 49.604 68.0733L47.1103 69.4711C46.9853 69.5412 46.8285 69.5164 46.7313 69.4111L44.7916 67.3111C44.6003 67.1039 44.315 67.0112 44.0384 67.0664L41.2349 67.6252C41.0943 67.6532 40.9529 67.5811 40.8929 67.4509L39.6971 64.8543C39.5791 64.5982 39.3365 64.4219 39.0564 64.3889L36.2174 64.054C36.075 64.0372 35.9628 63.9249 35.946 63.7826L35.6111 60.9436C35.5781 60.6635 35.4018 60.4208 35.1456 60.3029L32.549 59.1071C32.4188 59.0471 32.3468 58.9057 32.3748 58.7651L32.9336 55.9615C32.9887 55.685 32.896 55.3997 32.6889 55.2084L30.5889 53.2687C30.4836 53.1714 30.4588 53.0147 30.5289 52.8896L31.9267 50.396C32.0646 50.15 32.0646 49.85 31.9267 49.604L30.5289 47.1104C30.4588 46.9853 30.4836 46.8286 30.5889 46.7313L32.6889 44.7916C32.896 44.6003 32.9887 44.315 32.9336 44.0385L32.3748 41.2349C32.3468 41.0943 32.4188 40.9529 32.549 40.8929L35.1456 39.6971C35.4018 39.5792 35.5781 39.3365 35.6111 39.0564L35.946 36.2174Z" stroke="url(#paint4_linear_500_6336)" stroke-width="0.5"/>
<path d="M38.5385 41.251L38.2903 41.2217L38.5385 41.251L38.8065 38.9798C38.8172 38.8889 38.8889 38.8172 38.9798 38.8065L41.251 38.5386C41.4923 38.5101 41.7014 38.3582 41.8031 38.1374L42.7597 36.0602C42.798 35.977 42.8884 35.931 42.9781 35.9489L45.221 36.3959C45.4593 36.4434 45.7051 36.3636 45.87 36.1851L47.4217 34.5051C47.4839 34.4378 47.584 34.422 47.6638 34.4667L49.6588 35.585C49.8707 35.7038 50.1292 35.7038 50.3412 35.585L52.3361 34.4667C52.416 34.422 52.5161 34.4378 52.5782 34.5051L54.1299 36.1851C54.2948 36.3636 54.5407 36.4434 54.779 36.3959L57.0218 35.9489C57.1116 35.931 57.2019 35.977 57.2402 36.0602L58.1969 38.1374C58.2985 38.3582 58.5076 38.5101 58.749 38.5386L61.0202 38.8065C61.1111 38.8172 61.1828 38.8889 61.1935 38.9798L61.4614 41.251C61.4899 41.4923 61.6418 41.7015 61.8625 41.8031L63.9398 42.7598C64.0229 42.7981 64.069 42.8884 64.0511 42.9781L63.604 45.221C63.5565 45.4593 63.6364 45.7052 63.8149 45.87L65.4949 47.4218C65.5621 47.4839 65.578 47.584 65.5332 47.6639L64.415 49.6588C64.2962 49.8707 64.2962 50.1293 64.415 50.3412L65.5332 52.3361C65.578 52.416 65.5621 52.5161 65.4949 52.5782L63.8149 54.13C63.6364 54.2948 63.5565 54.5407 63.604 54.779L64.0511 57.0219C64.069 57.1116 64.0229 57.2019 63.9398 57.2402L61.8625 58.1969C61.6418 58.2985 61.4899 58.5077 61.4614 58.749L61.1935 61.0202C61.1828 61.1111 61.1111 61.1828 61.0202 61.1935L58.749 61.4614C58.5076 61.4899 58.2985 61.6418 58.1969 61.8626L57.2402 63.9398C57.2019 64.023 57.1116 64.069 57.0218 64.0511L54.779 63.6041C54.5407 63.5566 54.2948 63.6364 54.1299 63.8149L52.5782 65.4949C52.5161 65.5622 52.416 65.578 52.3361 65.5333L50.3412 64.415C50.1292 64.2962 49.8707 64.2962 49.6588 64.415L47.6638 65.5333C47.584 65.578 47.4839 65.5622 47.4217 65.4949L45.87 63.8149C45.7051 63.6364 45.4593 63.5566 45.221 63.6041L42.9781 64.0511C42.8884 64.069 42.798 64.023 42.7597 63.9398L41.8031 61.8626C41.7014 61.6418 41.4923 61.4899 41.251 61.4614L38.9798 61.1935C38.8889 61.1828 38.8172 61.1111 38.8065 61.0202L38.5385 58.749L38.2903 58.7783L38.5385 58.749C38.5101 58.5077 38.3581 58.2985 38.1374 58.1969L36.0601 57.2402C35.977 57.2019 35.931 57.1116 35.9489 57.0219L36.3959 54.779C36.4434 54.5407 36.3635 54.2948 36.185 54.13L34.5051 52.5782C34.4378 52.5161 34.422 52.416 34.4667 52.3362L35.585 50.3412C35.7038 50.1293 35.7038 49.8707 35.585 49.6588L34.4667 47.6638C34.422 47.584 34.4378 47.4839 34.5051 47.4218L36.185 45.87C36.3635 45.7052 36.4434 45.4593 36.3959 45.221L35.9489 42.9781C35.931 42.8884 35.977 42.7981 36.0601 42.7598L38.1374 41.8031C38.3581 41.7015 38.5101 41.4923 38.5385 41.251Z" stroke="url(#paint5_linear_500_6336)" stroke-width="0.5"/>
<path d="M39.8582 53.5965L39.6131 53.5476L39.8582 53.5965C39.8981 53.3964 39.831 53.19 39.6812 53.0516L38.4212 51.8878C38.392 51.8608 38.3851 51.8173 38.4046 51.7827L39.2432 50.2865C39.343 50.1085 39.343 49.8915 39.2432 49.7135L38.4046 48.2173C38.3851 48.1827 38.392 48.1392 38.4212 48.1122L39.6812 46.9484C39.831 46.81 39.8981 46.6036 39.8582 46.4035L39.6131 46.4524L39.8582 46.4035L39.523 44.7214C39.5152 44.6824 39.5352 44.6432 39.5713 44.6266L41.1292 43.9091C41.3145 43.8238 41.4421 43.6482 41.466 43.4456L41.6669 41.7422C41.6716 41.7027 41.7027 41.6716 41.7421 41.6669L43.4456 41.466C43.6482 41.4421 43.8238 41.3145 43.9091 41.1292L44.6266 39.5713C44.6432 39.5352 44.6824 39.5152 44.7214 39.523L46.4035 39.8583C46.6036 39.8981 46.81 39.8311 46.9484 39.6812L48.1122 38.4212C48.1392 38.392 48.1826 38.3851 48.2173 38.4046L49.7135 39.2433C49.8915 39.343 50.1085 39.343 50.2865 39.2433L51.7827 38.4046C51.8173 38.3851 51.8608 38.392 51.8877 38.4212L53.0515 39.6812C53.19 39.8311 53.3964 39.8981 53.5965 39.8583L55.2786 39.523C55.3176 39.5152 55.3568 39.5352 55.3734 39.5713L56.0909 41.1292C56.1762 41.3145 56.3518 41.4421 56.5544 41.466L58.2578 41.6669C58.2973 41.6716 58.3284 41.7027 58.333 41.7422L58.534 43.4456C58.5579 43.6482 58.6854 43.8238 58.8708 43.9091L60.4287 44.6266C60.4648 44.6432 60.4848 44.6824 60.477 44.7214L60.1417 46.4035C60.1018 46.6036 60.1689 46.81 60.3188 46.9484L61.5788 48.1122C61.608 48.1392 61.6148 48.1827 61.5954 48.2173L60.7567 49.7135C60.657 49.8915 60.657 50.1085 60.7567 50.2865L61.5954 51.7827C61.6148 51.8173 61.608 51.8608 61.5788 51.8878L60.3188 53.0516C60.1689 53.19 60.1018 53.3964 60.1417 53.5965L60.477 55.2786C60.4848 55.3176 60.4648 55.3568 60.4287 55.3734L58.8708 56.0909C58.6854 56.1762 58.5579 56.3518 58.534 56.5544L58.333 58.2578C58.3284 58.2973 58.2973 58.3284 58.2578 58.3331L56.5544 58.534C56.3518 58.5579 56.1762 58.6855 56.0909 58.8708L55.3734 60.4287C55.3568 60.4648 55.3176 60.4848 55.2786 60.477L53.5965 60.1417C53.3964 60.1019 53.19 60.1689 53.0515 60.3188L51.8877 61.5788C51.8608 61.608 51.8173 61.6149 51.7827 61.5954L50.2865 60.7567C50.1085 60.657 49.8915 60.657 49.7135 60.7567L48.2173 61.5954C48.1826 61.6149 48.1392 61.608 48.1122 61.5788L46.9484 60.3188C46.81 60.1689 46.6036 60.1019 46.4035 60.1417L44.7214 60.477C44.6824 60.4848 44.6432 60.4648 44.6266 60.4287L43.9091 58.8708C43.8238 58.6855 43.6482 58.5579 43.4456 58.534L41.7421 58.3331C41.7027 58.3284 41.6716 58.2973 41.6669 58.2578L41.466 56.5544C41.4421 56.3518 41.3145 56.1762 41.1292 56.0909L39.5713 55.3734C39.5352 55.3568 39.5152 55.3176 39.523 55.2786L39.8582 53.5965Z" stroke="url(#paint6_linear_500_6336)" stroke-width="0.5"/>
<path d="M43.3205 52.4139L43.0754 52.3651L43.3205 52.4139C43.3528 52.2521 43.2986 52.0851 43.1773 51.9732L42.3525 51.2113L42.9015 50.2317C42.9822 50.0878 42.9822 49.9122 42.9015 49.7683L42.3525 48.7887L43.1773 48.0268C43.2986 47.9149 43.3528 47.7479 43.3205 47.5861L43.0754 47.6349L43.3205 47.5861L43.101 46.4848L44.121 46.0151C44.2709 45.9461 44.3741 45.804 44.3934 45.6401L44.525 44.525L45.6401 44.3934L45.6108 44.1451L45.6401 44.3934C45.804 44.3741 45.9461 44.2709 46.0151 44.121L46.4848 43.1011L47.586 43.3206C47.7479 43.3528 47.9149 43.2986 48.0268 43.1773L48.7887 42.3525L49.7683 42.9015C49.9122 42.9822 50.0878 42.9822 50.2317 42.9015L51.2112 42.3525L51.9731 43.1773C52.0851 43.2986 52.2521 43.3528 52.4139 43.3206L53.5152 43.1011L53.9849 44.121C54.0539 44.2709 54.196 44.3741 54.3598 44.3934L55.475 44.525L55.6066 45.6401C55.6259 45.804 55.7291 45.9461 55.879 46.0151L56.8989 46.4848L56.6794 47.5861C56.6472 47.7479 56.7014 47.9149 56.8226 48.0268L57.6475 48.7888L57.0985 49.7683C57.0178 49.9122 57.0178 50.0878 57.0985 50.2317L57.6475 51.2112L56.8226 51.9732C56.7014 52.0851 56.6472 52.2521 56.6794 52.4139L56.8989 53.5152L55.879 53.9849C55.7291 54.0539 55.6259 54.196 55.6066 54.3599L55.475 55.475L54.3598 55.6066C54.196 55.6259 54.0539 55.7291 53.9849 55.879L53.5152 56.8989L52.4139 56.6794C52.2521 56.6472 52.0851 56.7014 51.9731 56.8227L51.2112 57.6475L50.2317 57.0985C50.0878 57.0178 49.9122 57.0178 49.7683 57.0985L48.7887 57.6475L48.0268 56.8227C47.9149 56.7014 47.7479 56.6472 47.586 56.6794L46.4848 56.8989L46.0151 55.879C45.9461 55.7291 45.804 55.6259 45.6401 55.6066L45.6108 55.8549L45.6401 55.6066L44.525 55.475L44.3934 54.3599C44.3741 54.196 44.2709 54.0539 44.121 53.9849L43.101 53.5152L43.3205 52.4139ZM53.5066 43.0824L53.5066 43.0825L53.5066 43.0824ZM56.9176 46.4934C56.9176 46.4934 56.9175 46.4934 56.9175 46.4934L56.9176 46.4934ZM57.6626 48.8027C57.6626 48.8027 57.6626 48.8027 57.6626 48.8027L57.6626 48.8027ZM56.9176 53.5066L56.9175 53.5066L56.9176 53.5066ZM53.5066 56.9176C53.5066 56.9176 53.5066 56.9176 53.5066 56.9175L53.5066 56.9176ZM51.1973 57.6626C51.1973 57.6626 51.1973 57.6626 51.1973 57.6626L51.1973 57.6626Z" stroke="url(#paint7_linear_500_6336)" stroke-width="0.5"/>
<path d="M47.1395 47.2376C47.1456 47.1862 47.1862 47.1456 47.2376 47.1396L47.8054 47.0726C47.8441 47.068 47.8777 47.0436 47.894 47.0082L48.1332 46.4889C48.1548 46.4418 48.2059 46.4158 48.2567 46.4259L48.8175 46.5377C48.8557 46.5453 48.8951 46.5325 48.9216 46.5039L49.3095 46.0839C49.3447 46.0458 49.4013 46.0368 49.4465 46.0622L49.9452 46.3417C49.9793 46.3608 50.0207 46.3608 50.0547 46.3417L50.5535 46.0622C50.5987 46.0368 50.6553 46.0458 50.6905 46.0839L51.0784 46.5039C51.1048 46.5325 51.1443 46.5453 51.1825 46.5377L51.7432 46.4259C51.794 46.4158 51.8452 46.4418 51.8668 46.4889L52.106 47.0082C52.1223 47.0436 52.1558 47.068 52.1946 47.0726L52.7624 47.1396C52.8138 47.1456 52.8544 47.1862 52.8604 47.2376L52.9274 47.8054C52.932 47.8441 52.9564 47.8777 52.9918 47.894L53.5111 48.1332C53.5581 48.1548 53.5842 48.206 53.5741 48.2568L53.4623 48.8175C53.4547 48.8557 53.4675 48.8951 53.4961 48.9216L53.9161 49.3095C53.9542 49.3447 53.9632 49.4013 53.9378 49.4465L53.6583 49.9453C53.6392 49.9793 53.6392 50.0207 53.6583 50.0547L53.9378 50.5535C53.9632 50.5987 53.9542 50.6553 53.9161 50.6905L53.4961 51.0784C53.4675 51.1049 53.4547 51.1443 53.4623 51.1825L53.5741 51.7432C53.5842 51.794 53.5581 51.8452 53.5111 51.8668L52.9918 52.106C52.9564 52.1223 52.932 52.1559 52.9274 52.1946L52.8604 52.7624C52.8544 52.8138 52.8138 52.8544 52.7624 52.8604L52.1946 52.9274C52.1558 52.932 52.1223 52.9564 52.106 52.9918L51.8668 53.5111C51.8452 53.5582 51.794 53.5842 51.7432 53.5741L51.1825 53.4623C51.1443 53.4547 51.1048 53.4675 51.0784 53.4961L50.6905 53.9161C50.6553 53.9542 50.5987 53.9632 50.5535 53.9378L50.0547 53.6583C50.0207 53.6392 49.9793 53.6392 49.9452 53.6583L49.4465 53.9378C49.4013 53.9632 49.3447 53.9542 49.3095 53.9161L48.9216 53.4961C48.8951 53.4675 48.8557 53.4547 48.8175 53.4623L48.2567 53.5741C48.2059 53.5842 48.1548 53.5582 48.1332 53.5111L47.894 52.9918C47.8777 52.9564 47.8441 52.932 47.8054 52.9274L47.2376 52.8604C47.1862 52.8544 47.1456 52.8138 47.1395 52.7624L47.0726 52.1946C47.068 52.1559 47.0436 52.1223 47.0082 52.106L46.4889 51.8668C46.4418 51.8452 46.4158 51.794 46.4259 51.7432L46.5377 51.1825C46.5453 51.1443 46.5325 51.1049 46.5039 51.0784L46.0839 50.6905C46.0458 50.6553 46.0368 50.5987 46.0622 50.5535L46.3417 50.0547C46.3608 50.0207 46.3608 49.9793 46.3417 49.9453L46.0622 49.4465C46.0368 49.4013 46.0458 49.3447 46.0839 49.3095L46.5039 48.9216C46.5325 48.8951 46.5453 48.8557 46.5377 48.8175L46.4259 48.2568C46.4158 48.206 46.4418 48.1548 46.4889 48.1332L47.0082 47.894C47.0436 47.8777 47.068 47.8441 47.0726 47.8054L47.1395 47.2376Z" fill="url(#paint8_radial_500_6336)"/>
</g>
<defs>
<linearGradient id="paint0_linear_500_6336" x1="24.5442" y1="24.5442" x2="75.4558" y2="75.4558" gradientUnits="userSpaceOnUse">
<stop stop-color="white"/>
<stop offset="1" stop-color="white" stop-opacity="0.28"/>
</linearGradient>
<linearGradient id="paint1_linear_500_6336" x1="27.3726" y1="27.3726" x2="72.6274" y2="72.6274" gradientUnits="userSpaceOnUse">
<stop stop-color="white"/>
<stop offset="1" stop-color="white" stop-opacity="0.28"/>
</linearGradient>
<linearGradient id="paint2_linear_500_6336" x1="30.201" y1="30.201" x2="69.799" y2="69.799" gradientUnits="userSpaceOnUse">
<stop stop-color="white"/>
<stop offset="1" stop-color="white" stop-opacity="0.28"/>
</linearGradient>
<linearGradient id="paint3_linear_500_6336" x1="33.0295" y1="33.0294" x2="66.9706" y2="66.9706" gradientUnits="userSpaceOnUse">
<stop stop-color="white"/>
<stop offset="1" stop-color="white" stop-opacity="0.28"/>
</linearGradient>
<linearGradient id="paint4_linear_500_6336" x1="35.8578" y1="35.8579" x2="64.1421" y2="64.1421" gradientUnits="userSpaceOnUse">
<stop stop-color="white"/>
<stop offset="1" stop-color="white" stop-opacity="0.28"/>
</linearGradient>
<linearGradient id="paint5_linear_500_6336" x1="38.6863" y1="38.6863" x2="61.3137" y2="61.3137" gradientUnits="userSpaceOnUse">
<stop stop-color="white"/>
<stop offset="1" stop-color="white" stop-opacity="0.28"/>
</linearGradient>
<linearGradient id="paint6_linear_500_6336" x1="41.5147" y1="41.5147" x2="58.4853" y2="58.4853" gradientUnits="userSpaceOnUse">
<stop stop-color="white"/>
<stop offset="1" stop-color="white" stop-opacity="0.28"/>
</linearGradient>
<linearGradient id="paint7_linear_500_6336" x1="44.3431" y1="44.3431" x2="55.6568" y2="55.6569" gradientUnits="userSpaceOnUse">
<stop stop-color="white"/>
<stop offset="1" stop-color="white" stop-opacity="0.28"/>
</linearGradient>
<radialGradient id="paint8_radial_500_6336" cx="0" cy="0" r="1" gradientUnits="userSpaceOnUse" gradientTransform="translate(50 50) rotate(45) scale(6.5)">
<stop stop-color="white"/>
<stop offset="1" stop-color="#6D6D6D"/>
</radialGradient>
<clipPath id="clip0_500_6336">
<rect width="100" height="100" fill="white"/>
</clipPath>
</defs>
</svg>
