<svg width="100" height="100" viewBox="0 0 100 100" fill="none" xmlns="http://www.w3.org/2000/svg">
<rect x="10.7071" y="49.5979" width="55" height="55" transform="rotate(-45 10.7071 49.5979)" stroke="url(#paint0_linear_420_7)"/>
<rect x="16.7071" y="50" width="47" height="47" transform="rotate(-45 16.7071 50)" stroke="url(#paint1_linear_420_7)"/>
<rect x="22.7071" y="50.4021" width="39" height="39" transform="rotate(-45 22.7071 50.4021)" stroke="url(#paint2_linear_420_7)"/>
<rect x="28.7071" y="50.8042" width="31" height="31" transform="rotate(-45 28.7071 50.8042)" stroke="url(#paint3_linear_420_7)"/>
<rect x="34.7071" y="51.2063" width="23" height="23" transform="rotate(-45 34.7071 51.2063)" stroke="url(#paint4_linear_420_7)"/>
<rect x="40.7071" y="51.6084" width="15" height="15" transform="rotate(-45 40.7071 51.6084)" stroke="url(#paint5_linear_420_7)"/>
<rect x="46" y="52.0105" width="8" height="8" transform="rotate(-45 46 52.0105)" fill="url(#paint6_diamond_420_7)"/>
<defs>
<linearGradient id="paint0_linear_420_7" x1="38" y1="49.5979" x2="38" y2="105.598" gradientUnits="userSpaceOnUse">
<stop stop-color="white" stop-opacity="0.96"/>
<stop offset="1" stop-color="white" stop-opacity="0.35"/>
</linearGradient>
<linearGradient id="paint1_linear_420_7" x1="40" y1="50" x2="40" y2="98" gradientUnits="userSpaceOnUse">
<stop stop-color="white" stop-opacity="0.96"/>
<stop offset="1" stop-color="white" stop-opacity="0.35"/>
</linearGradient>
<linearGradient id="paint2_linear_420_7" x1="42" y1="50.4021" x2="42" y2="90.4021" gradientUnits="userSpaceOnUse">
<stop stop-color="white" stop-opacity="0.96"/>
<stop offset="1" stop-color="white" stop-opacity="0.35"/>
</linearGradient>
<linearGradient id="paint3_linear_420_7" x1="44" y1="50.8042" x2="44" y2="82.8042" gradientUnits="userSpaceOnUse">
<stop stop-color="white" stop-opacity="0.96"/>
<stop offset="1" stop-color="white" stop-opacity="0.35"/>
</linearGradient>
<linearGradient id="paint4_linear_420_7" x1="46" y1="51.2063" x2="46" y2="75.2063" gradientUnits="userSpaceOnUse">
<stop stop-color="white" stop-opacity="0.96"/>
<stop offset="1" stop-color="white" stop-opacity="0.35"/>
</linearGradient>
<linearGradient id="paint5_linear_420_7" x1="48" y1="51.6084" x2="48" y2="67.6084" gradientUnits="userSpaceOnUse">
<stop stop-color="white" stop-opacity="0.96"/>
<stop offset="1" stop-color="white" stop-opacity="0.35"/>
</linearGradient>
<radialGradient id="paint6_diamond_420_7" cx="0" cy="0" r="1" gradientUnits="userSpaceOnUse" gradientTransform="translate(50 56.0105) rotate(90) scale(4)">
<stop stop-color="white"/>
<stop offset="1" stop-color="white" stop-opacity="0.1"/>
</radialGradient>
</defs>
</svg>
