<svg width="100" height="100" viewBox="0 0 100 100" fill="none" xmlns="http://www.w3.org/2000/svg">
<path d="M72.146 27.6579C71.8739 27.6109 71.6152 27.7934 71.5682 28.0655C71.5212 28.3376 71.7036 28.5963 71.9758 28.6433L72.146 27.6579ZM26.3121 44.1965L26.6486 44.5663L26.3121 44.1965ZM34.9581 38.1394C35.0187 37.87 34.8494 37.6025 34.58 37.5419L30.1895 36.5551C29.9201 36.4946 29.6526 36.6639 29.592 36.9333C29.5314 37.2027 29.7008 37.4702 29.9702 37.5308L33.8728 38.4079L32.9957 42.3106C32.9352 42.58 33.1045 42.8475 33.3739 42.908C33.6433 42.9686 33.9108 42.7993 33.9714 42.5299L34.9581 38.1394ZM82.1685 35.0228C84.146 39.2636 82.5436 44.8334 78.0528 50.4923C73.5828 56.1249 66.345 61.7105 57.3904 65.8862L57.813 66.7925C66.8778 62.5655 74.2506 56.892 78.8361 51.1139C83.4008 45.3619 85.2986 39.3692 83.0748 34.6002L82.1685 35.0228ZM57.3904 65.8862C48.4357 70.0618 39.5046 72.0159 32.3164 71.8195C25.0949 71.6222 19.7981 69.2695 17.8206 65.0287L16.9143 65.4513C19.1381 70.2203 24.9488 72.6185 32.2891 72.8191C39.6629 73.0206 48.7482 71.0195 57.813 66.7925L57.3904 65.8862ZM71.9758 28.6433C76.9968 29.5107 80.61 31.6806 82.1685 35.0228L83.0748 34.6002C81.3212 30.8396 77.3301 28.5535 72.146 27.6579L71.9758 28.6433ZM17.8206 65.0287C16.5367 62.2753 16.7575 58.9698 18.3097 55.4225C19.8621 51.8748 22.7294 48.1313 26.6486 44.5663L25.9757 43.8266C21.9873 47.4545 19.0185 51.3081 17.3936 55.0217C15.7684 58.7356 15.4707 62.3554 16.9143 65.4513L17.8206 65.0287ZM26.6486 44.5663C28.9942 42.4327 31.7113 40.3679 34.7377 38.4522L34.2029 37.6073C31.1313 39.5515 28.3674 41.651 25.9757 43.8266L26.6486 44.5663Z" fill="url(#paint0_linear_500_7096)"/>
<path d="M72.1143 14C72.1143 21.732 65.8462 28 58.1143 28C65.8462 28 72.1143 34.268 72.1143 42C72.1143 34.268 78.3823 28 86.1143 28C78.3823 28 72.1143 21.732 72.1143 14Z" fill="url(#paint1_radial_500_7096)"/>
<defs>
<linearGradient id="paint0_linear_500_7096" x1="23.5" y1="41.5" x2="74" y2="77" gradientUnits="userSpaceOnUse">
<stop stop-color="white" stop-opacity="0.4"/>
<stop offset="0.21784" stop-color="white"/>
<stop offset="0.578937" stop-color="white" stop-opacity="0.44"/>
<stop offset="1" stop-color="white" stop-opacity="0"/>
</linearGradient>
<radialGradient id="paint1_radial_500_7096" cx="0" cy="0" r="1" gradientUnits="userSpaceOnUse" gradientTransform="translate(72.1143 28) rotate(90) scale(16.1875)">
<stop stop-color="white"/>
<stop offset="1" stop-color="#353535"/>
</radialGradient>
</defs>
</svg>
