<svg width="100" height="100" viewBox="0 0 100 100" fill="none" xmlns="http://www.w3.org/2000/svg">
<path fill-rule="evenodd" clip-rule="evenodd" d="M18 82V18H82V82H18ZM19 79.397V19H49.4401L19 79.397ZM27.5277 81H72.4723L50 78.5031L27.5277 81ZM75.068 80.2823L50 73.5179L24.932 80.2823L50 77.4969L75.068 80.2823ZM50 67.5504L75.8914 79.4687L50 72.4821L24.1086 79.4687L50 67.5504ZM75.4783 78.1777L50 61.5966L24.5217 78.1777L50 66.4496L75.4783 78.1777ZM50 55.6534L74.9377 76.6327L50 60.4034L25.0623 76.6327L50 55.6534ZM74.2979 74.7877L50 49.7184L25.7021 74.7877L50 54.3466L74.2979 74.7877ZM50 43.7896L73.5829 72.6132L50 48.2816L26.4171 72.6132L50 43.7896ZM72.8112 70.0908L50 37.8654L27.1888 70.0908L50 42.2104L72.8112 70.0908ZM50 31.9447L71.9967 67.2092L50 36.1346L28.0033 67.2093L50 31.9447ZM71.1494 63.9615L50 26.0268L28.8505 63.9615L50 30.0553L71.1494 63.9615ZM50 20.1109L70.2769 60.3429L50 23.9732L29.7231 60.3429L50 20.1109ZM81 79.397V19H50.5599L81 79.397Z" fill="url(#paint0_linear_500_7031)"/>
<defs>
<linearGradient id="paint0_linear_500_7031" x1="19" y1="82" x2="82" y2="82" gradientUnits="userSpaceOnUse">
<stop stop-color="white" stop-opacity="0.1"/>
<stop offset="0.49336" stop-color="white"/>
<stop offset="1" stop-color="white" stop-opacity="0.1"/>
</linearGradient>
</defs>
</svg>
