<svg width="100" height="100" viewBox="0 0 100 100" fill="none" xmlns="http://www.w3.org/2000/svg">
<path d="M16.7432 31.7098C16.7432 26.4828 20.5369 22.2204 25.2901 22.0083C25.1668 22.0028 25.043 22 24.9185 22C19.9929 22 16 26.3472 16 31.7098C16 37.0724 19.9929 41.4197 24.9185 41.4197C25.043 41.4197 25.1669 41.4169 25.2901 41.4114C20.5369 41.1993 16.7432 36.9369 16.7432 31.7098Z" fill="url(#paint0_linear_500_7033)"/>
<path d="M18.2296 31.7098C18.2296 26.4828 22.0233 22.2204 26.7765 22.0083C26.6533 22.0028 26.5294 22 26.4049 22C21.4794 22 17.4864 26.3472 17.4864 31.7098C17.4864 37.0724 21.4794 41.4197 26.4049 41.4197C26.5294 41.4197 26.6533 41.4169 26.7765 41.4114C22.0233 41.1993 18.2296 36.9369 18.2296 31.7098Z" fill="url(#paint1_linear_500_7033)"/>
<path d="M28.2629 22.0083C23.5097 22.2204 19.716 26.4828 19.716 31.7098C19.716 36.9369 23.5097 41.1993 28.2629 41.4114C28.1397 41.4169 28.0158 41.4197 27.8913 41.4197C22.9658 41.4197 18.9728 37.0724 18.9728 31.7098C18.9728 26.3472 22.9658 22 27.8913 22C28.0158 22 28.1397 22.0028 28.2629 22.0083Z" fill="url(#paint2_linear_500_7033)"/>
<path d="M21.2024 31.7098C21.2024 26.4828 24.9961 22.2204 29.7493 22.0083C29.6261 22.0028 29.5022 22 29.3777 22C24.4522 22 20.4592 26.3472 20.4592 31.7098C20.4592 37.0724 24.4522 41.4197 29.3777 41.4197C29.5022 41.4197 29.6261 41.4169 29.7493 41.4114C24.9961 41.1993 21.2024 36.9369 21.2024 31.7098Z" fill="url(#paint3_linear_500_7033)"/>
<path d="M31.2357 22.0083C26.4825 22.2204 22.6889 26.4828 22.6889 31.7098C22.6889 36.9369 26.4825 41.1993 31.2358 41.4114C31.1125 41.4169 30.9886 41.4197 30.8641 41.4197C25.9386 41.4197 21.9457 37.0724 21.9457 31.7098C21.9457 26.3472 25.9386 22 30.8641 22C30.9886 22 31.1125 22.0028 31.2357 22.0083Z" fill="url(#paint4_linear_500_7033)"/>
<path d="M24.1753 31.7098C24.1753 26.4828 27.9689 22.2204 32.7222 22.0083C32.5989 22.0028 32.475 22 32.3505 22C27.425 22 23.4321 26.3472 23.4321 31.7098C23.4321 37.0724 27.425 41.4197 32.3505 41.4197C32.475 41.4197 32.5989 41.4169 32.7222 41.4114C27.969 41.1993 24.1753 36.9369 24.1753 31.7098Z" fill="url(#paint5_linear_500_7033)"/>
<path d="M34.2086 22.0083C29.4554 22.2204 25.6617 26.4828 25.6617 31.7098C25.6617 36.9369 29.4554 41.1993 34.2086 41.4114C34.0853 41.4169 33.9614 41.4197 33.837 41.4197C28.9114 41.4197 24.9185 37.0724 24.9185 31.7098C24.9185 26.3472 28.9114 22 33.837 22C33.9614 22 34.0853 22.0028 34.2086 22.0083Z" fill="url(#paint6_linear_500_7033)"/>
<path d="M27.1481 31.7098C27.1481 26.4828 30.9418 22.2204 35.695 22.0083C35.5717 22.0028 35.4479 22 35.3234 22C30.3978 22 26.4049 26.3472 26.4049 31.7098C26.4049 37.0724 30.3978 41.4197 35.3234 41.4197C35.4479 41.4197 35.5717 41.4169 35.695 41.4114C30.9418 41.1993 27.1481 36.9369 27.1481 31.7098Z" fill="url(#paint7_linear_500_7033)"/>
<path d="M37.1814 22.0083C32.4282 22.2204 28.6345 26.4828 28.6345 31.7098C28.6345 36.9369 32.4282 41.1993 37.1814 41.4114C37.0582 41.4169 36.9343 41.4197 36.8098 41.4197C31.8842 41.4197 27.8913 37.0724 27.8913 31.7098C27.8913 26.3472 31.8842 22 36.8098 22C36.9343 22 37.0582 22.0028 37.1814 22.0083Z" fill="url(#paint8_linear_500_7033)"/>
<path d="M30.1209 31.7098C30.1209 26.4828 33.9146 22.2204 38.6678 22.0083C38.5446 22.0028 38.4207 22 38.2962 22C33.3707 22 29.3777 26.3472 29.3777 31.7098C29.3777 37.0724 33.3707 41.4197 38.2962 41.4197C38.4207 41.4197 38.5446 41.4169 38.6678 41.4114C33.9146 41.1993 30.1209 36.9369 30.1209 31.7098Z" fill="url(#paint9_linear_500_7033)"/>
<path d="M40.1542 22.0083C35.401 22.2204 31.6073 26.4828 31.6073 31.7098C31.6073 36.9369 35.401 41.1993 40.1542 41.4114C40.031 41.4169 39.9071 41.4197 39.7826 41.4197C34.8571 41.4197 30.8641 37.0724 30.8641 31.7098C30.8641 26.3472 34.8571 22 39.7826 22C39.9071 22 40.031 22.0028 40.1542 22.0083Z" fill="url(#paint10_linear_500_7033)"/>
<path d="M33.0938 31.7098C33.0938 26.4828 36.8874 22.2204 41.6406 22.0083C41.5174 22.0028 41.3935 22 41.269 22C36.3435 22 32.3505 26.3472 32.3505 31.7098C32.3505 37.0724 36.3435 41.4197 41.269 41.4197C41.3935 41.4197 41.5174 41.4169 41.6406 41.4114C36.8874 41.1993 33.0938 36.9369 33.0938 31.7098Z" fill="url(#paint11_linear_500_7033)"/>
<path d="M16.7432 68.2899C16.7432 63.0628 20.5369 58.8005 25.2901 58.5884C25.1668 58.5829 25.043 58.5801 24.9185 58.5801C19.9929 58.5801 16 62.9273 16 68.2899C16 73.6525 19.9929 77.9998 24.9185 77.9998C25.043 77.9998 25.1669 77.997 25.2901 77.9915C20.5369 77.7794 16.7432 73.517 16.7432 68.2899Z" fill="url(#paint12_linear_500_7033)"/>
<path d="M18.2296 68.2899C18.2296 63.0628 22.0233 58.8005 26.7765 58.5884C26.6533 58.5829 26.5294 58.5801 26.4049 58.5801C21.4794 58.5801 17.4864 62.9273 17.4864 68.2899C17.4864 73.6525 21.4794 77.9998 26.4049 77.9998C26.5294 77.9998 26.6533 77.997 26.7765 77.9915C22.0233 77.7794 18.2296 73.517 18.2296 68.2899Z" fill="url(#paint13_linear_500_7033)"/>
<path d="M28.2629 58.5884C23.5097 58.8005 19.716 63.0628 19.716 68.2899C19.716 73.517 23.5097 77.7794 28.2629 77.9915C28.1397 77.997 28.0158 77.9998 27.8913 77.9998C22.9658 77.9998 18.9728 73.6525 18.9728 68.2899C18.9728 62.9273 22.9658 58.5801 27.8913 58.5801C28.0158 58.5801 28.1397 58.5829 28.2629 58.5884Z" fill="url(#paint14_linear_500_7033)"/>
<path d="M21.2024 68.2899C21.2024 63.0628 24.9961 58.8005 29.7493 58.5884C29.6261 58.5829 29.5022 58.5801 29.3777 58.5801C24.4522 58.5801 20.4592 62.9273 20.4592 68.2899C20.4592 73.6525 24.4522 77.9998 29.3777 77.9998C29.5022 77.9998 29.6261 77.997 29.7493 77.9915C24.9961 77.7794 21.2024 73.517 21.2024 68.2899Z" fill="url(#paint15_linear_500_7033)"/>
<path d="M31.2357 58.5884C26.4825 58.8005 22.6889 63.0628 22.6889 68.2899C22.6889 73.517 26.4825 77.7794 31.2358 77.9915C31.1125 77.997 30.9886 77.9998 30.8641 77.9998C25.9386 77.9998 21.9457 73.6525 21.9457 68.2899C21.9457 62.9273 25.9386 58.5801 30.8641 58.5801C30.9886 58.5801 31.1125 58.5829 31.2357 58.5884Z" fill="url(#paint16_linear_500_7033)"/>
<path d="M24.1753 68.2899C24.1753 63.0628 27.9689 58.8005 32.7222 58.5884C32.5989 58.5829 32.475 58.5801 32.3505 58.5801C27.425 58.5801 23.4321 62.9273 23.4321 68.2899C23.4321 73.6525 27.425 77.9998 32.3505 77.9998C32.475 77.9998 32.5989 77.997 32.7222 77.9915C27.969 77.7794 24.1753 73.517 24.1753 68.2899Z" fill="url(#paint17_linear_500_7033)"/>
<path d="M34.2086 58.5884C29.4554 58.8005 25.6617 63.0628 25.6617 68.2899C25.6617 73.517 29.4554 77.7794 34.2086 77.9915C34.0853 77.997 33.9614 77.9998 33.837 77.9998C28.9114 77.9998 24.9185 73.6525 24.9185 68.2899C24.9185 62.9273 28.9114 58.5801 33.837 58.5801C33.9614 58.5801 34.0853 58.5829 34.2086 58.5884Z" fill="url(#paint18_linear_500_7033)"/>
<path d="M27.1481 68.2899C27.1481 63.0628 30.9418 58.8005 35.695 58.5884C35.5717 58.5829 35.4479 58.5801 35.3234 58.5801C30.3978 58.5801 26.4049 62.9273 26.4049 68.2899C26.4049 73.6525 30.3978 77.9998 35.3234 77.9998C35.4479 77.9998 35.5717 77.997 35.695 77.9915C30.9418 77.7794 27.1481 73.517 27.1481 68.2899Z" fill="url(#paint19_linear_500_7033)"/>
<path d="M37.1814 58.5884C32.4282 58.8005 28.6345 63.0628 28.6345 68.2899C28.6345 73.517 32.4282 77.7794 37.1814 77.9915C37.0582 77.997 36.9343 77.9998 36.8098 77.9998C31.8842 77.9998 27.8913 73.6525 27.8913 68.2899C27.8913 62.9273 31.8842 58.5801 36.8098 58.5801C36.9343 58.5801 37.0582 58.5829 37.1814 58.5884Z" fill="url(#paint20_linear_500_7033)"/>
<path d="M30.1209 68.2899C30.1209 63.0628 33.9146 58.8005 38.6678 58.5884C38.5446 58.5829 38.4207 58.5801 38.2962 58.5801C33.3707 58.5801 29.3777 62.9273 29.3777 68.2899C29.3777 73.6525 33.3707 77.9998 38.2962 77.9998C38.4207 77.9998 38.5446 77.997 38.6678 77.9915C33.9146 77.7794 30.1209 73.517 30.1209 68.2899Z" fill="url(#paint21_linear_500_7033)"/>
<path d="M40.1542 58.5884C35.401 58.8005 31.6073 63.0628 31.6073 68.2899C31.6073 73.517 35.401 77.7794 40.1542 77.9915C40.031 77.997 39.9071 77.9998 39.7826 77.9998C34.8571 77.9998 30.8641 73.6525 30.8641 68.2899C30.8641 62.9273 34.8571 58.5801 39.7826 58.5801C39.9071 58.5801 40.031 58.5829 40.1542 58.5884Z" fill="url(#paint22_linear_500_7033)"/>
<path d="M33.0938 68.2899C33.0938 63.0628 36.8874 58.8005 41.6406 58.5884C41.5174 58.5829 41.3935 58.5801 41.269 58.5801C36.3435 58.5801 32.3505 62.9273 32.3505 68.2899C32.3505 73.6525 36.3435 77.9998 41.269 77.9998C41.3935 77.9998 41.5174 77.997 41.6406 77.9915C36.8874 77.7794 33.0938 73.517 33.0938 68.2899Z" fill="url(#paint23_linear_500_7033)"/>
<path d="M43.2459 50.3207C43.2459 45.0936 39.3964 40.8312 34.5733 40.6191C34.6983 40.6136 34.824 40.6108 34.9504 40.6108C39.9483 40.6108 44 44.9581 44 50.3207C44 55.6833 39.9483 60.0305 34.9504 60.0305C34.824 60.0305 34.6983 60.0277 34.5733 60.0222C39.3964 59.8101 43.2459 55.5477 43.2459 50.3207Z" fill="url(#paint24_linear_500_7033)"/>
<path d="M41.7376 50.3207C41.7376 45.0936 37.8881 40.8312 33.065 40.6191C33.1901 40.6136 33.3158 40.6108 33.4421 40.6108C38.4401 40.6108 42.4917 44.9581 42.4917 50.3207C42.4917 55.6833 38.4401 60.0305 33.4421 60.0305C33.3158 60.0305 33.1901 60.0277 33.065 60.0222C37.8881 59.8101 41.7376 55.5477 41.7376 50.3207Z" fill="url(#paint25_linear_500_7033)"/>
<path d="M31.5567 40.6191C36.3799 40.8312 40.2293 45.0936 40.2293 50.3207C40.2293 55.5477 36.3798 59.8101 31.5567 60.0222C31.6818 60.0277 31.8075 60.0305 31.9338 60.0305C36.9318 60.0305 40.9835 55.6833 40.9835 50.3207C40.9835 44.9581 36.9318 40.6108 31.9338 40.6108C31.8075 40.6108 31.6818 40.6136 31.5567 40.6191Z" fill="url(#paint26_linear_500_7033)"/>
<path d="M38.721 50.3207C38.721 45.0936 34.8716 40.8312 30.0485 40.6191C30.1735 40.6136 30.2992 40.6108 30.4255 40.6108C35.4235 40.6108 39.4752 44.9581 39.4752 50.3207C39.4752 55.6833 35.4235 60.0305 30.4255 60.0305C30.2992 60.0305 30.1735 60.0277 30.0485 60.0222C34.8716 59.8101 38.721 55.5477 38.721 50.3207Z" fill="url(#paint27_linear_500_7033)"/>
<path d="M28.5402 40.6191C33.3633 40.8312 37.2128 45.0936 37.2128 50.3207C37.2128 55.5477 33.3633 59.8101 28.5402 60.0222C28.6652 60.0277 28.791 60.0305 28.9173 60.0305C33.9152 60.0305 37.9669 55.6833 37.9669 50.3207C37.9669 44.9581 33.9152 40.6108 28.9173 40.6108C28.791 40.6108 28.6653 40.6136 28.5402 40.6191Z" fill="url(#paint28_linear_500_7033)"/>
<path d="M35.7045 50.3207C35.7045 45.0936 31.855 40.8312 27.0319 40.6191C27.157 40.6136 27.2827 40.6108 27.409 40.6108C32.407 40.6108 36.4586 44.9581 36.4586 50.3207C36.4586 55.6833 32.407 60.0305 27.409 60.0305C27.2827 60.0305 27.157 60.0277 27.0319 60.0222C31.855 59.8101 35.7045 55.5477 35.7045 50.3207Z" fill="url(#paint29_linear_500_7033)"/>
<path d="M25.5237 40.6191C30.3468 40.8312 34.1962 45.0936 34.1962 50.3207C34.1962 55.5477 30.3467 59.8101 25.5236 60.0222C25.6487 60.0277 25.7744 60.0305 25.9007 60.0305C30.8987 60.0305 34.9504 55.6833 34.9504 50.3207C34.9504 44.9581 30.8987 40.6108 25.9007 40.6108C25.7744 40.6108 25.6487 40.6136 25.5237 40.6191Z" fill="url(#paint30_linear_500_7033)"/>
<path d="M32.688 50.3207C32.688 45.0936 28.8385 40.8312 24.0154 40.6191C24.1404 40.6136 24.2661 40.6108 24.3924 40.6108C29.3904 40.6108 33.4421 44.9581 33.4421 50.3207C33.4421 55.6833 29.3904 60.0305 24.3924 60.0305C24.2661 60.0305 24.1404 60.0277 24.0154 60.0222C28.8385 59.8101 32.688 55.5477 32.688 50.3207Z" fill="url(#paint31_linear_500_7033)"/>
<path d="M22.5071 40.6191C27.3302 40.8312 31.1797 45.0936 31.1797 50.3207C31.1797 55.5477 27.3302 59.8101 22.5071 60.0222C22.6321 60.0277 22.7579 60.0305 22.8842 60.0305C27.8822 60.0305 31.9338 55.6833 31.9338 50.3207C31.9338 44.9581 27.8822 40.6108 22.8842 40.6108C22.7579 40.6108 22.6322 40.6136 22.5071 40.6191Z" fill="url(#paint32_linear_500_7033)"/>
<path d="M29.6714 50.3207C29.6714 45.0936 25.8219 40.8312 20.9988 40.6191C21.1239 40.6136 21.2496 40.6108 21.3759 40.6108C26.3739 40.6108 30.4255 44.9581 30.4255 50.3207C30.4255 55.6833 26.3739 60.0305 21.3759 60.0305C21.2496 60.0305 21.1239 60.0277 20.9988 60.0222C25.8219 59.8101 29.6714 55.5477 29.6714 50.3207Z" fill="url(#paint33_linear_500_7033)"/>
<path d="M19.4906 40.6191C24.3137 40.8312 28.1631 45.0936 28.1631 50.3207C28.1631 55.5477 24.3137 59.8101 19.4905 60.0222C19.6156 60.0277 19.7413 60.0305 19.8676 60.0305C24.8656 60.0305 28.9173 55.6833 28.9173 50.3207C28.9173 44.9581 24.8656 40.6108 19.8676 40.6108C19.7413 40.6108 19.6156 40.6136 19.4906 40.6191Z" fill="url(#paint34_linear_500_7033)"/>
<path d="M26.6549 50.3207C26.6549 45.0936 22.8054 40.8312 17.9823 40.6191C18.1073 40.6136 18.233 40.6108 18.3594 40.6108C23.3573 40.6108 27.409 44.9581 27.409 50.3207C27.409 55.6833 23.3573 60.0305 18.3594 60.0305C18.233 60.0305 18.1073 60.0277 17.9823 60.0222C22.8054 59.8101 26.6549 55.5477 26.6549 50.3207Z" fill="url(#paint35_linear_500_7033)"/>
<path d="M36.7432 31.7098C36.7432 26.4828 40.5369 22.2204 45.2901 22.0083C45.1668 22.0028 45.043 22 44.9185 22C39.9929 22 36 26.3472 36 31.7098C36 37.0724 39.9929 41.4197 44.9185 41.4197C45.043 41.4197 45.1669 41.4169 45.2901 41.4114C40.5369 41.1993 36.7432 36.9369 36.7432 31.7098Z" fill="url(#paint36_linear_500_7033)"/>
<path d="M38.2296 31.7098C38.2296 26.4828 42.0233 22.2204 46.7765 22.0083C46.6533 22.0028 46.5294 22 46.4049 22C41.4794 22 37.4864 26.3472 37.4864 31.7098C37.4864 37.0724 41.4794 41.4197 46.4049 41.4197C46.5294 41.4197 46.6533 41.4169 46.7765 41.4114C42.0233 41.1993 38.2296 36.9369 38.2296 31.7098Z" fill="url(#paint37_linear_500_7033)"/>
<path d="M48.2629 22.0083C43.5097 22.2204 39.716 26.4828 39.716 31.7098C39.716 36.9369 43.5097 41.1993 48.2629 41.4114C48.1397 41.4169 48.0158 41.4197 47.8913 41.4197C42.9658 41.4197 38.9728 37.0724 38.9728 31.7098C38.9728 26.3472 42.9658 22 47.8913 22C48.0158 22 48.1397 22.0028 48.2629 22.0083Z" fill="url(#paint38_linear_500_7033)"/>
<path d="M41.2024 31.7098C41.2024 26.4828 44.9961 22.2204 49.7493 22.0083C49.6261 22.0028 49.5022 22 49.3777 22C44.4522 22 40.4592 26.3472 40.4592 31.7098C40.4592 37.0724 44.4522 41.4197 49.3777 41.4197C49.5022 41.4197 49.6261 41.4169 49.7493 41.4114C44.9961 41.1993 41.2024 36.9369 41.2024 31.7098Z" fill="url(#paint39_linear_500_7033)"/>
<path d="M51.2357 22.0083C46.4825 22.2204 42.6889 26.4828 42.6889 31.7098C42.6889 36.9369 46.4825 41.1993 51.2358 41.4114C51.1125 41.4169 50.9886 41.4197 50.8641 41.4197C45.9386 41.4197 41.9457 37.0724 41.9457 31.7098C41.9457 26.3472 45.9386 22 50.8641 22C50.9886 22 51.1125 22.0028 51.2357 22.0083Z" fill="url(#paint40_linear_500_7033)"/>
<path d="M44.1753 31.7098C44.1753 26.4828 47.9689 22.2204 52.7222 22.0083C52.5989 22.0028 52.475 22 52.3505 22C47.425 22 43.4321 26.3472 43.4321 31.7098C43.4321 37.0724 47.425 41.4197 52.3505 41.4197C52.475 41.4197 52.5989 41.4169 52.7222 41.4114C47.969 41.1993 44.1753 36.9369 44.1753 31.7098Z" fill="url(#paint41_linear_500_7033)"/>
<path d="M54.2086 22.0083C49.4554 22.2204 45.6617 26.4828 45.6617 31.7098C45.6617 36.9369 49.4554 41.1993 54.2086 41.4114C54.0853 41.4169 53.9614 41.4197 53.837 41.4197C48.9114 41.4197 44.9185 37.0724 44.9185 31.7098C44.9185 26.3472 48.9114 22 53.837 22C53.9614 22 54.0853 22.0028 54.2086 22.0083Z" fill="url(#paint42_linear_500_7033)"/>
<path d="M47.1481 31.7098C47.1481 26.4828 50.9418 22.2204 55.695 22.0083C55.5717 22.0028 55.4479 22 55.3234 22C50.3978 22 46.4049 26.3472 46.4049 31.7098C46.4049 37.0724 50.3978 41.4197 55.3234 41.4197C55.4479 41.4197 55.5717 41.4169 55.695 41.4114C50.9418 41.1993 47.1481 36.9369 47.1481 31.7098Z" fill="url(#paint43_linear_500_7033)"/>
<path d="M57.1814 22.0083C52.4282 22.2204 48.6345 26.4828 48.6345 31.7098C48.6345 36.9369 52.4282 41.1993 57.1814 41.4114C57.0582 41.4169 56.9343 41.4197 56.8098 41.4197C51.8842 41.4197 47.8913 37.0724 47.8913 31.7098C47.8913 26.3472 51.8842 22 56.8098 22C56.9343 22 57.0582 22.0028 57.1814 22.0083Z" fill="url(#paint44_linear_500_7033)"/>
<path d="M50.1209 31.7098C50.1209 26.4828 53.9146 22.2204 58.6678 22.0083C58.5446 22.0028 58.4207 22 58.2962 22C53.3707 22 49.3777 26.3472 49.3777 31.7098C49.3777 37.0724 53.3707 41.4197 58.2962 41.4197C58.4207 41.4197 58.5446 41.4169 58.6678 41.4114C53.9146 41.1993 50.1209 36.9369 50.1209 31.7098Z" fill="url(#paint45_linear_500_7033)"/>
<path d="M60.1542 22.0083C55.401 22.2204 51.6073 26.4828 51.6073 31.7098C51.6073 36.9369 55.401 41.1993 60.1542 41.4114C60.031 41.4169 59.9071 41.4197 59.7826 41.4197C54.8571 41.4197 50.8641 37.0724 50.8641 31.7098C50.8641 26.3472 54.8571 22 59.7826 22C59.9071 22 60.031 22.0028 60.1542 22.0083Z" fill="url(#paint46_linear_500_7033)"/>
<path d="M53.0938 31.7098C53.0938 26.4828 56.8874 22.2204 61.6406 22.0083C61.5174 22.0028 61.3935 22 61.269 22C56.3435 22 52.3505 26.3472 52.3505 31.7098C52.3505 37.0724 56.3435 41.4197 61.269 41.4197C61.3935 41.4197 61.5174 41.4169 61.6406 41.4114C56.8874 41.1993 53.0938 36.9369 53.0938 31.7098Z" fill="url(#paint47_linear_500_7033)"/>
<path d="M36.7432 68.2899C36.7432 63.0628 40.5369 58.8005 45.2901 58.5884C45.1668 58.5829 45.043 58.5801 44.9185 58.5801C39.9929 58.5801 36 62.9273 36 68.2899C36 73.6525 39.9929 77.9998 44.9185 77.9998C45.043 77.9998 45.1669 77.997 45.2901 77.9915C40.5369 77.7794 36.7432 73.517 36.7432 68.2899Z" fill="url(#paint48_linear_500_7033)"/>
<path d="M38.2296 68.2899C38.2296 63.0628 42.0233 58.8005 46.7765 58.5884C46.6533 58.5829 46.5294 58.5801 46.4049 58.5801C41.4794 58.5801 37.4864 62.9273 37.4864 68.2899C37.4864 73.6525 41.4794 77.9998 46.4049 77.9998C46.5294 77.9998 46.6533 77.997 46.7765 77.9915C42.0233 77.7794 38.2296 73.517 38.2296 68.2899Z" fill="url(#paint49_linear_500_7033)"/>
<path d="M48.2629 58.5884C43.5097 58.8005 39.716 63.0628 39.716 68.2899C39.716 73.517 43.5097 77.7794 48.2629 77.9915C48.1397 77.997 48.0158 77.9998 47.8913 77.9998C42.9658 77.9998 38.9728 73.6525 38.9728 68.2899C38.9728 62.9273 42.9658 58.5801 47.8913 58.5801C48.0158 58.5801 48.1397 58.5829 48.2629 58.5884Z" fill="url(#paint50_linear_500_7033)"/>
<path d="M41.2024 68.2899C41.2024 63.0628 44.9961 58.8005 49.7493 58.5884C49.6261 58.5829 49.5022 58.5801 49.3777 58.5801C44.4522 58.5801 40.4592 62.9273 40.4592 68.2899C40.4592 73.6525 44.4522 77.9998 49.3777 77.9998C49.5022 77.9998 49.6261 77.997 49.7493 77.9915C44.9961 77.7794 41.2024 73.517 41.2024 68.2899Z" fill="url(#paint51_linear_500_7033)"/>
<path d="M51.2357 58.5884C46.4825 58.8005 42.6889 63.0628 42.6889 68.2899C42.6889 73.517 46.4825 77.7794 51.2358 77.9915C51.1125 77.997 50.9886 77.9998 50.8641 77.9998C45.9386 77.9998 41.9457 73.6525 41.9457 68.2899C41.9457 62.9273 45.9386 58.5801 50.8641 58.5801C50.9886 58.5801 51.1125 58.5829 51.2357 58.5884Z" fill="url(#paint52_linear_500_7033)"/>
<path d="M44.1753 68.2899C44.1753 63.0628 47.9689 58.8005 52.7222 58.5884C52.5989 58.5829 52.475 58.5801 52.3505 58.5801C47.425 58.5801 43.4321 62.9273 43.4321 68.2899C43.4321 73.6525 47.425 77.9998 52.3505 77.9998C52.475 77.9998 52.5989 77.997 52.7222 77.9915C47.969 77.7794 44.1753 73.517 44.1753 68.2899Z" fill="url(#paint53_linear_500_7033)"/>
<path d="M54.2086 58.5884C49.4554 58.8005 45.6617 63.0628 45.6617 68.2899C45.6617 73.517 49.4554 77.7794 54.2086 77.9915C54.0853 77.997 53.9614 77.9998 53.837 77.9998C48.9114 77.9998 44.9185 73.6525 44.9185 68.2899C44.9185 62.9273 48.9114 58.5801 53.837 58.5801C53.9614 58.5801 54.0853 58.5829 54.2086 58.5884Z" fill="url(#paint54_linear_500_7033)"/>
<path d="M47.1481 68.2899C47.1481 63.0628 50.9418 58.8005 55.695 58.5884C55.5717 58.5829 55.4479 58.5801 55.3234 58.5801C50.3978 58.5801 46.4049 62.9273 46.4049 68.2899C46.4049 73.6525 50.3978 77.9998 55.3234 77.9998C55.4479 77.9998 55.5717 77.997 55.695 77.9915C50.9418 77.7794 47.1481 73.517 47.1481 68.2899Z" fill="url(#paint55_linear_500_7033)"/>
<path d="M57.1814 58.5884C52.4282 58.8005 48.6345 63.0628 48.6345 68.2899C48.6345 73.517 52.4282 77.7794 57.1814 77.9915C57.0582 77.997 56.9343 77.9998 56.8098 77.9998C51.8842 77.9998 47.8913 73.6525 47.8913 68.2899C47.8913 62.9273 51.8842 58.5801 56.8098 58.5801C56.9343 58.5801 57.0582 58.5829 57.1814 58.5884Z" fill="url(#paint56_linear_500_7033)"/>
<path d="M50.1209 68.2899C50.1209 63.0628 53.9146 58.8005 58.6678 58.5884C58.5446 58.5829 58.4207 58.5801 58.2962 58.5801C53.3707 58.5801 49.3777 62.9273 49.3777 68.2899C49.3777 73.6525 53.3707 77.9998 58.2962 77.9998C58.4207 77.9998 58.5446 77.997 58.6678 77.9915C53.9146 77.7794 50.1209 73.517 50.1209 68.2899Z" fill="url(#paint57_linear_500_7033)"/>
<path d="M60.1542 58.5884C55.401 58.8005 51.6073 63.0628 51.6073 68.2899C51.6073 73.517 55.401 77.7794 60.1542 77.9915C60.031 77.997 59.9071 77.9998 59.7826 77.9998C54.8571 77.9998 50.8641 73.6525 50.8641 68.2899C50.8641 62.9273 54.8571 58.5801 59.7826 58.5801C59.9071 58.5801 60.031 58.5829 60.1542 58.5884Z" fill="url(#paint58_linear_500_7033)"/>
<path d="M53.0938 68.2899C53.0938 63.0628 56.8874 58.8005 61.6406 58.5884C61.5174 58.5829 61.3935 58.5801 61.269 58.5801C56.3435 58.5801 52.3505 62.9273 52.3505 68.2899C52.3505 73.6525 56.3435 77.9998 61.269 77.9998C61.3935 77.9998 61.5174 77.997 61.6406 77.9915C56.8874 77.7794 53.0938 73.517 53.0938 68.2899Z" fill="url(#paint59_linear_500_7033)"/>
<path d="M63.2459 50.3207C63.2459 45.0936 59.3964 40.8312 54.5733 40.6191C54.6983 40.6136 54.824 40.6108 54.9504 40.6108C59.9483 40.6108 64 44.9581 64 50.3207C64 55.6833 59.9483 60.0305 54.9504 60.0305C54.824 60.0305 54.6983 60.0277 54.5733 60.0222C59.3964 59.8101 63.2459 55.5477 63.2459 50.3207Z" fill="url(#paint60_linear_500_7033)"/>
<path d="M61.7376 50.3207C61.7376 45.0936 57.8881 40.8312 53.065 40.6191C53.1901 40.6136 53.3158 40.6108 53.4421 40.6108C58.4401 40.6108 62.4917 44.9581 62.4917 50.3207C62.4917 55.6833 58.4401 60.0305 53.4421 60.0305C53.3158 60.0305 53.1901 60.0277 53.065 60.0222C57.8881 59.8101 61.7376 55.5477 61.7376 50.3207Z" fill="url(#paint61_linear_500_7033)"/>
<path d="M51.5567 40.6191C56.3799 40.8312 60.2293 45.0936 60.2293 50.3207C60.2293 55.5477 56.3798 59.8101 51.5567 60.0222C51.6818 60.0277 51.8075 60.0305 51.9338 60.0305C56.9318 60.0305 60.9835 55.6833 60.9835 50.3207C60.9835 44.9581 56.9318 40.6108 51.9338 40.6108C51.8075 40.6108 51.6818 40.6136 51.5567 40.6191Z" fill="url(#paint62_linear_500_7033)"/>
<path d="M58.721 50.3207C58.721 45.0936 54.8716 40.8312 50.0485 40.6191C50.1735 40.6136 50.2992 40.6108 50.4255 40.6108C55.4235 40.6108 59.4752 44.9581 59.4752 50.3207C59.4752 55.6833 55.4235 60.0305 50.4255 60.0305C50.2992 60.0305 50.1735 60.0277 50.0485 60.0222C54.8716 59.8101 58.721 55.5477 58.721 50.3207Z" fill="url(#paint63_linear_500_7033)"/>
<path d="M48.5402 40.6191C53.3633 40.8312 57.2128 45.0936 57.2128 50.3207C57.2128 55.5477 53.3633 59.8101 48.5402 60.0222C48.6652 60.0277 48.791 60.0305 48.9173 60.0305C53.9152 60.0305 57.9669 55.6833 57.9669 50.3207C57.9669 44.9581 53.9152 40.6108 48.9173 40.6108C48.791 40.6108 48.6653 40.6136 48.5402 40.6191Z" fill="url(#paint64_linear_500_7033)"/>
<path d="M55.7045 50.3207C55.7045 45.0936 51.855 40.8312 47.0319 40.6191C47.157 40.6136 47.2827 40.6108 47.409 40.6108C52.407 40.6108 56.4586 44.9581 56.4586 50.3207C56.4586 55.6833 52.407 60.0305 47.409 60.0305C47.2827 60.0305 47.157 60.0277 47.0319 60.0222C51.855 59.8101 55.7045 55.5477 55.7045 50.3207Z" fill="url(#paint65_linear_500_7033)"/>
<path d="M45.5237 40.6191C50.3468 40.8312 54.1962 45.0936 54.1962 50.3207C54.1962 55.5477 50.3467 59.8101 45.5236 60.0222C45.6487 60.0277 45.7744 60.0305 45.9007 60.0305C50.8987 60.0305 54.9504 55.6833 54.9504 50.3207C54.9504 44.9581 50.8987 40.6108 45.9007 40.6108C45.7744 40.6108 45.6487 40.6136 45.5237 40.6191Z" fill="url(#paint66_linear_500_7033)"/>
<path d="M52.688 50.3207C52.688 45.0936 48.8385 40.8312 44.0154 40.6191C44.1404 40.6136 44.2661 40.6108 44.3924 40.6108C49.3904 40.6108 53.4421 44.9581 53.4421 50.3207C53.4421 55.6833 49.3904 60.0305 44.3924 60.0305C44.2661 60.0305 44.1404 60.0277 44.0154 60.0222C48.8385 59.8101 52.688 55.5477 52.688 50.3207Z" fill="url(#paint67_linear_500_7033)"/>
<path d="M42.5071 40.6191C47.3302 40.8312 51.1797 45.0936 51.1797 50.3207C51.1797 55.5477 47.3302 59.8101 42.5071 60.0222C42.6321 60.0277 42.7579 60.0305 42.8842 60.0305C47.8822 60.0305 51.9338 55.6833 51.9338 50.3207C51.9338 44.9581 47.8822 40.6108 42.8842 40.6108C42.7579 40.6108 42.6322 40.6136 42.5071 40.6191Z" fill="url(#paint68_linear_500_7033)"/>
<path d="M49.6714 50.3207C49.6714 45.0936 45.8219 40.8312 40.9988 40.6191C41.1239 40.6136 41.2496 40.6108 41.3759 40.6108C46.3739 40.6108 50.4255 44.9581 50.4255 50.3207C50.4255 55.6833 46.3739 60.0305 41.3759 60.0305C41.2496 60.0305 41.1239 60.0277 40.9988 60.0222C45.8219 59.8101 49.6714 55.5477 49.6714 50.3207Z" fill="url(#paint69_linear_500_7033)"/>
<path d="M39.4906 40.6191C44.3137 40.8312 48.1631 45.0936 48.1631 50.3207C48.1631 55.5477 44.3137 59.8101 39.4905 60.0222C39.6156 60.0277 39.7413 60.0305 39.8676 60.0305C44.8656 60.0305 48.9173 55.6833 48.9173 50.3207C48.9173 44.9581 44.8656 40.6108 39.8676 40.6108C39.7413 40.6108 39.6156 40.6136 39.4906 40.6191Z" fill="url(#paint70_linear_500_7033)"/>
<path d="M46.6549 50.3207C46.6549 45.0936 42.8054 40.8312 37.9823 40.6191C38.1073 40.6136 38.233 40.6108 38.3594 40.6108C43.3573 40.6108 47.409 44.9581 47.409 50.3207C47.409 55.6833 43.3573 60.0305 38.3594 60.0305C38.233 60.0305 38.1073 60.0277 37.9823 60.0222C42.8054 59.8101 46.6549 55.5477 46.6549 50.3207Z" fill="url(#paint71_linear_500_7033)"/>
<path d="M56.7432 31.7098C56.7432 26.4828 60.5369 22.2204 65.2901 22.0083C65.1668 22.0028 65.043 22 64.9185 22C59.9929 22 56 26.3472 56 31.7098C56 37.0724 59.9929 41.4197 64.9185 41.4197C65.043 41.4197 65.1669 41.4169 65.2901 41.4114C60.5369 41.1993 56.7432 36.9369 56.7432 31.7098Z" fill="url(#paint72_linear_500_7033)"/>
<path d="M58.2296 31.7098C58.2296 26.4828 62.0233 22.2204 66.7765 22.0083C66.6533 22.0028 66.5294 22 66.4049 22C61.4794 22 57.4864 26.3472 57.4864 31.7098C57.4864 37.0724 61.4794 41.4197 66.4049 41.4197C66.5294 41.4197 66.6533 41.4169 66.7765 41.4114C62.0233 41.1993 58.2296 36.9369 58.2296 31.7098Z" fill="url(#paint73_linear_500_7033)"/>
<path d="M68.2629 22.0083C63.5097 22.2204 59.716 26.4828 59.716 31.7098C59.716 36.9369 63.5097 41.1993 68.2629 41.4114C68.1397 41.4169 68.0158 41.4197 67.8913 41.4197C62.9658 41.4197 58.9728 37.0724 58.9728 31.7098C58.9728 26.3472 62.9658 22 67.8913 22C68.0158 22 68.1397 22.0028 68.2629 22.0083Z" fill="url(#paint74_linear_500_7033)"/>
<path d="M61.2024 31.7098C61.2024 26.4828 64.9961 22.2204 69.7493 22.0083C69.6261 22.0028 69.5022 22 69.3777 22C64.4522 22 60.4592 26.3472 60.4592 31.7098C60.4592 37.0724 64.4522 41.4197 69.3777 41.4197C69.5022 41.4197 69.6261 41.4169 69.7493 41.4114C64.9961 41.1993 61.2024 36.9369 61.2024 31.7098Z" fill="url(#paint75_linear_500_7033)"/>
<path d="M71.2357 22.0083C66.4825 22.2204 62.6889 26.4828 62.6889 31.7098C62.6889 36.9369 66.4825 41.1993 71.2358 41.4114C71.1125 41.4169 70.9886 41.4197 70.8641 41.4197C65.9386 41.4197 61.9457 37.0724 61.9457 31.7098C61.9457 26.3472 65.9386 22 70.8641 22C70.9886 22 71.1125 22.0028 71.2357 22.0083Z" fill="url(#paint76_linear_500_7033)"/>
<path d="M64.1753 31.7098C64.1753 26.4828 67.9689 22.2204 72.7222 22.0083C72.5989 22.0028 72.475 22 72.3505 22C67.425 22 63.4321 26.3472 63.4321 31.7098C63.4321 37.0724 67.425 41.4197 72.3505 41.4197C72.475 41.4197 72.5989 41.4169 72.7222 41.4114C67.969 41.1993 64.1753 36.9369 64.1753 31.7098Z" fill="url(#paint77_linear_500_7033)"/>
<path d="M74.2086 22.0083C69.4554 22.2204 65.6617 26.4828 65.6617 31.7098C65.6617 36.9369 69.4554 41.1993 74.2086 41.4114C74.0853 41.4169 73.9614 41.4197 73.837 41.4197C68.9114 41.4197 64.9185 37.0724 64.9185 31.7098C64.9185 26.3472 68.9114 22 73.837 22C73.9614 22 74.0853 22.0028 74.2086 22.0083Z" fill="url(#paint78_linear_500_7033)"/>
<path d="M67.1481 31.7098C67.1481 26.4828 70.9418 22.2204 75.695 22.0083C75.5717 22.0028 75.4479 22 75.3234 22C70.3978 22 66.4049 26.3472 66.4049 31.7098C66.4049 37.0724 70.3978 41.4197 75.3234 41.4197C75.4479 41.4197 75.5717 41.4169 75.695 41.4114C70.9418 41.1993 67.1481 36.9369 67.1481 31.7098Z" fill="url(#paint79_linear_500_7033)"/>
<path d="M77.1814 22.0083C72.4282 22.2204 68.6345 26.4828 68.6345 31.7098C68.6345 36.9369 72.4282 41.1993 77.1814 41.4114C77.0582 41.4169 76.9343 41.4197 76.8098 41.4197C71.8842 41.4197 67.8913 37.0724 67.8913 31.7098C67.8913 26.3472 71.8842 22 76.8098 22C76.9343 22 77.0582 22.0028 77.1814 22.0083Z" fill="url(#paint80_linear_500_7033)"/>
<path d="M70.1209 31.7098C70.1209 26.4828 73.9146 22.2204 78.6678 22.0083C78.5446 22.0028 78.4207 22 78.2962 22C73.3707 22 69.3777 26.3472 69.3777 31.7098C69.3777 37.0724 73.3707 41.4197 78.2962 41.4197C78.4207 41.4197 78.5446 41.4169 78.6678 41.4114C73.9146 41.1993 70.1209 36.9369 70.1209 31.7098Z" fill="url(#paint81_linear_500_7033)"/>
<path d="M80.1542 22.0083C75.401 22.2204 71.6073 26.4828 71.6073 31.7098C71.6073 36.9369 75.401 41.1993 80.1542 41.4114C80.031 41.4169 79.9071 41.4197 79.7826 41.4197C74.8571 41.4197 70.8641 37.0724 70.8641 31.7098C70.8641 26.3472 74.8571 22 79.7826 22C79.9071 22 80.031 22.0028 80.1542 22.0083Z" fill="url(#paint82_linear_500_7033)"/>
<path d="M73.0938 31.7098C73.0938 26.4828 76.8874 22.2204 81.6406 22.0083C81.5174 22.0028 81.3935 22 81.269 22C76.3435 22 72.3505 26.3472 72.3505 31.7098C72.3505 37.0724 76.3435 41.4197 81.269 41.4197C81.3935 41.4197 81.5174 41.4169 81.6406 41.4114C76.8874 41.1993 73.0938 36.9369 73.0938 31.7098Z" fill="url(#paint83_linear_500_7033)"/>
<path d="M56.7432 68.2899C56.7432 63.0628 60.5369 58.8005 65.2901 58.5884C65.1668 58.5829 65.043 58.5801 64.9185 58.5801C59.9929 58.5801 56 62.9273 56 68.2899C56 73.6525 59.9929 77.9998 64.9185 77.9998C65.043 77.9998 65.1669 77.997 65.2901 77.9915C60.5369 77.7794 56.7432 73.517 56.7432 68.2899Z" fill="url(#paint84_linear_500_7033)"/>
<path d="M58.2296 68.2899C58.2296 63.0628 62.0233 58.8005 66.7765 58.5884C66.6533 58.5829 66.5294 58.5801 66.4049 58.5801C61.4794 58.5801 57.4864 62.9273 57.4864 68.2899C57.4864 73.6525 61.4794 77.9998 66.4049 77.9998C66.5294 77.9998 66.6533 77.997 66.7765 77.9915C62.0233 77.7794 58.2296 73.517 58.2296 68.2899Z" fill="url(#paint85_linear_500_7033)"/>
<path d="M68.2629 58.5884C63.5097 58.8005 59.716 63.0628 59.716 68.2899C59.716 73.517 63.5097 77.7794 68.2629 77.9915C68.1397 77.997 68.0158 77.9998 67.8913 77.9998C62.9658 77.9998 58.9728 73.6525 58.9728 68.2899C58.9728 62.9273 62.9658 58.5801 67.8913 58.5801C68.0158 58.5801 68.1397 58.5829 68.2629 58.5884Z" fill="url(#paint86_linear_500_7033)"/>
<path d="M61.2024 68.2899C61.2024 63.0628 64.9961 58.8005 69.7493 58.5884C69.6261 58.5829 69.5022 58.5801 69.3777 58.5801C64.4522 58.5801 60.4592 62.9273 60.4592 68.2899C60.4592 73.6525 64.4522 77.9998 69.3777 77.9998C69.5022 77.9998 69.6261 77.997 69.7493 77.9915C64.9961 77.7794 61.2024 73.517 61.2024 68.2899Z" fill="url(#paint87_linear_500_7033)"/>
<path d="M71.2357 58.5884C66.4825 58.8005 62.6889 63.0628 62.6889 68.2899C62.6889 73.517 66.4825 77.7794 71.2358 77.9915C71.1125 77.997 70.9886 77.9998 70.8641 77.9998C65.9386 77.9998 61.9457 73.6525 61.9457 68.2899C61.9457 62.9273 65.9386 58.5801 70.8641 58.5801C70.9886 58.5801 71.1125 58.5829 71.2357 58.5884Z" fill="url(#paint88_linear_500_7033)"/>
<path d="M64.1753 68.2899C64.1753 63.0628 67.9689 58.8005 72.7222 58.5884C72.5989 58.5829 72.475 58.5801 72.3505 58.5801C67.425 58.5801 63.4321 62.9273 63.4321 68.2899C63.4321 73.6525 67.425 77.9998 72.3505 77.9998C72.475 77.9998 72.5989 77.997 72.7222 77.9915C67.969 77.7794 64.1753 73.517 64.1753 68.2899Z" fill="url(#paint89_linear_500_7033)"/>
<path d="M74.2086 58.5884C69.4554 58.8005 65.6617 63.0628 65.6617 68.2899C65.6617 73.517 69.4554 77.7794 74.2086 77.9915C74.0853 77.997 73.9614 77.9998 73.837 77.9998C68.9114 77.9998 64.9185 73.6525 64.9185 68.2899C64.9185 62.9273 68.9114 58.5801 73.837 58.5801C73.9614 58.5801 74.0853 58.5829 74.2086 58.5884Z" fill="url(#paint90_linear_500_7033)"/>
<path d="M67.1481 68.2899C67.1481 63.0628 70.9418 58.8005 75.695 58.5884C75.5717 58.5829 75.4479 58.5801 75.3234 58.5801C70.3978 58.5801 66.4049 62.9273 66.4049 68.2899C66.4049 73.6525 70.3978 77.9998 75.3234 77.9998C75.4479 77.9998 75.5717 77.997 75.695 77.9915C70.9418 77.7794 67.1481 73.517 67.1481 68.2899Z" fill="url(#paint91_linear_500_7033)"/>
<path d="M77.1814 58.5884C72.4282 58.8005 68.6345 63.0628 68.6345 68.2899C68.6345 73.517 72.4282 77.7794 77.1814 77.9915C77.0582 77.997 76.9343 77.9998 76.8098 77.9998C71.8842 77.9998 67.8913 73.6525 67.8913 68.2899C67.8913 62.9273 71.8842 58.5801 76.8098 58.5801C76.9343 58.5801 77.0582 58.5829 77.1814 58.5884Z" fill="url(#paint92_linear_500_7033)"/>
<path d="M70.1209 68.2899C70.1209 63.0628 73.9146 58.8005 78.6678 58.5884C78.5446 58.5829 78.4207 58.5801 78.2962 58.5801C73.3707 58.5801 69.3777 62.9273 69.3777 68.2899C69.3777 73.6525 73.3707 77.9998 78.2962 77.9998C78.4207 77.9998 78.5446 77.997 78.6678 77.9915C73.9146 77.7794 70.1209 73.517 70.1209 68.2899Z" fill="url(#paint93_linear_500_7033)"/>
<path d="M80.1542 58.5884C75.401 58.8005 71.6073 63.0628 71.6073 68.2899C71.6073 73.517 75.401 77.7794 80.1542 77.9915C80.031 77.997 79.9071 77.9998 79.7826 77.9998C74.8571 77.9998 70.8641 73.6525 70.8641 68.2899C70.8641 62.9273 74.8571 58.5801 79.7826 58.5801C79.9071 58.5801 80.031 58.5829 80.1542 58.5884Z" fill="url(#paint94_linear_500_7033)"/>
<path d="M73.0938 68.2899C73.0938 63.0628 76.8874 58.8005 81.6406 58.5884C81.5174 58.5829 81.3935 58.5801 81.269 58.5801C76.3435 58.5801 72.3505 62.9273 72.3505 68.2899C72.3505 73.6525 76.3435 77.9998 81.269 77.9998C81.3935 77.9998 81.5174 77.997 81.6406 77.9915C76.8874 77.7794 73.0938 73.517 73.0938 68.2899Z" fill="url(#paint95_linear_500_7033)"/>
<path d="M83.2459 50.3207C83.2459 45.0936 79.3964 40.8312 74.5733 40.6191C74.6983 40.6136 74.824 40.6108 74.9504 40.6108C79.9483 40.6108 84 44.9581 84 50.3207C84 55.6833 79.9483 60.0305 74.9504 60.0305C74.824 60.0305 74.6983 60.0277 74.5733 60.0222C79.3964 59.8101 83.2459 55.5477 83.2459 50.3207Z" fill="url(#paint96_linear_500_7033)"/>
<path d="M81.7376 50.3207C81.7376 45.0936 77.8881 40.8312 73.065 40.6191C73.1901 40.6136 73.3158 40.6108 73.4421 40.6108C78.4401 40.6108 82.4917 44.9581 82.4917 50.3207C82.4917 55.6833 78.4401 60.0305 73.4421 60.0305C73.3158 60.0305 73.1901 60.0277 73.065 60.0222C77.8881 59.8101 81.7376 55.5477 81.7376 50.3207Z" fill="url(#paint97_linear_500_7033)"/>
<path d="M71.5567 40.6191C76.3799 40.8312 80.2293 45.0936 80.2293 50.3207C80.2293 55.5477 76.3798 59.8101 71.5567 60.0222C71.6818 60.0277 71.8075 60.0305 71.9338 60.0305C76.9318 60.0305 80.9835 55.6833 80.9835 50.3207C80.9835 44.9581 76.9318 40.6108 71.9338 40.6108C71.8075 40.6108 71.6818 40.6136 71.5567 40.6191Z" fill="url(#paint98_linear_500_7033)"/>
<path d="M78.721 50.3207C78.721 45.0936 74.8716 40.8312 70.0485 40.6191C70.1735 40.6136 70.2992 40.6108 70.4255 40.6108C75.4235 40.6108 79.4752 44.9581 79.4752 50.3207C79.4752 55.6833 75.4235 60.0305 70.4255 60.0305C70.2992 60.0305 70.1735 60.0277 70.0485 60.0222C74.8716 59.8101 78.721 55.5477 78.721 50.3207Z" fill="url(#paint99_linear_500_7033)"/>
<path d="M68.5402 40.6191C73.3633 40.8312 77.2128 45.0936 77.2128 50.3207C77.2128 55.5477 73.3633 59.8101 68.5402 60.0222C68.6652 60.0277 68.791 60.0305 68.9173 60.0305C73.9152 60.0305 77.9669 55.6833 77.9669 50.3207C77.9669 44.9581 73.9152 40.6108 68.9173 40.6108C68.791 40.6108 68.6653 40.6136 68.5402 40.6191Z" fill="url(#paint100_linear_500_7033)"/>
<path d="M75.7045 50.3207C75.7045 45.0936 71.855 40.8312 67.0319 40.6191C67.157 40.6136 67.2827 40.6108 67.409 40.6108C72.407 40.6108 76.4586 44.9581 76.4586 50.3207C76.4586 55.6833 72.407 60.0305 67.409 60.0305C67.2827 60.0305 67.157 60.0277 67.0319 60.0222C71.855 59.8101 75.7045 55.5477 75.7045 50.3207Z" fill="url(#paint101_linear_500_7033)"/>
<path d="M65.5237 40.6191C70.3468 40.8312 74.1962 45.0936 74.1962 50.3207C74.1962 55.5477 70.3467 59.8101 65.5236 60.0222C65.6487 60.0277 65.7744 60.0305 65.9007 60.0305C70.8987 60.0305 74.9504 55.6833 74.9504 50.3207C74.9504 44.9581 70.8987 40.6108 65.9007 40.6108C65.7744 40.6108 65.6487 40.6136 65.5237 40.6191Z" fill="url(#paint102_linear_500_7033)"/>
<path d="M72.688 50.3207C72.688 45.0936 68.8385 40.8312 64.0154 40.6191C64.1404 40.6136 64.2661 40.6108 64.3924 40.6108C69.3904 40.6108 73.4421 44.9581 73.4421 50.3207C73.4421 55.6833 69.3904 60.0305 64.3924 60.0305C64.2661 60.0305 64.1404 60.0277 64.0154 60.0222C68.8385 59.8101 72.688 55.5477 72.688 50.3207Z" fill="url(#paint103_linear_500_7033)"/>
<path d="M62.5071 40.6191C67.3302 40.8312 71.1797 45.0936 71.1797 50.3207C71.1797 55.5477 67.3302 59.8101 62.5071 60.0222C62.6321 60.0277 62.7579 60.0305 62.8842 60.0305C67.8822 60.0305 71.9338 55.6833 71.9338 50.3207C71.9338 44.9581 67.8822 40.6108 62.8842 40.6108C62.7579 40.6108 62.6322 40.6136 62.5071 40.6191Z" fill="url(#paint104_linear_500_7033)"/>
<path d="M69.6714 50.3207C69.6714 45.0936 65.8219 40.8312 60.9988 40.6191C61.1239 40.6136 61.2496 40.6108 61.3759 40.6108C66.3739 40.6108 70.4255 44.9581 70.4255 50.3207C70.4255 55.6833 66.3739 60.0305 61.3759 60.0305C61.2496 60.0305 61.1239 60.0277 60.9988 60.0222C65.8219 59.8101 69.6714 55.5477 69.6714 50.3207Z" fill="url(#paint105_linear_500_7033)"/>
<path d="M59.4906 40.6191C64.3137 40.8312 68.1631 45.0936 68.1631 50.3207C68.1631 55.5477 64.3137 59.8101 59.4905 60.0222C59.6156 60.0277 59.7413 60.0305 59.8676 60.0305C64.8656 60.0305 68.9173 55.6833 68.9173 50.3207C68.9173 44.9581 64.8656 40.6108 59.8676 40.6108C59.7413 40.6108 59.6156 40.6136 59.4906 40.6191Z" fill="url(#paint106_linear_500_7033)"/>
<path d="M66.6549 50.3207C66.6549 45.0936 62.8054 40.8312 57.9823 40.6191C58.1073 40.6136 58.233 40.6108 58.3594 40.6108C63.3573 40.6108 67.409 44.9581 67.409 50.3207C67.409 55.6833 63.3573 60.0305 58.3594 60.0305C58.233 60.0305 58.1073 60.0277 57.9823 60.0222C62.8054 59.8101 66.6549 55.5477 66.6549 50.3207Z" fill="url(#paint107_linear_500_7033)"/>
<defs>
<linearGradient id="paint0_linear_500_7033" x1="28.8203" y1="22" x2="28.8203" y2="42.6334" gradientUnits="userSpaceOnUse">
<stop stop-color="#2F2F2F"/>
<stop offset="0.494955" stop-color="white"/>
<stop offset="1" stop-color="#2F2F2F" stop-opacity="0"/>
</linearGradient>
<linearGradient id="paint1_linear_500_7033" x1="28.8203" y1="22" x2="28.8203" y2="42.6334" gradientUnits="userSpaceOnUse">
<stop stop-color="#2F2F2F"/>
<stop offset="0.494955" stop-color="white"/>
<stop offset="1" stop-color="#2F2F2F" stop-opacity="0"/>
</linearGradient>
<linearGradient id="paint2_linear_500_7033" x1="28.8203" y1="22" x2="28.8203" y2="42.6334" gradientUnits="userSpaceOnUse">
<stop stop-color="#2F2F2F"/>
<stop offset="0.494955" stop-color="white"/>
<stop offset="1" stop-color="#2F2F2F" stop-opacity="0"/>
</linearGradient>
<linearGradient id="paint3_linear_500_7033" x1="28.8203" y1="22" x2="28.8203" y2="42.6334" gradientUnits="userSpaceOnUse">
<stop stop-color="#2F2F2F"/>
<stop offset="0.494955" stop-color="white"/>
<stop offset="1" stop-color="#2F2F2F" stop-opacity="0"/>
</linearGradient>
<linearGradient id="paint4_linear_500_7033" x1="28.8203" y1="22" x2="28.8203" y2="42.6334" gradientUnits="userSpaceOnUse">
<stop stop-color="#2F2F2F"/>
<stop offset="0.494955" stop-color="white"/>
<stop offset="1" stop-color="#2F2F2F" stop-opacity="0"/>
</linearGradient>
<linearGradient id="paint5_linear_500_7033" x1="28.8203" y1="22" x2="28.8203" y2="42.6334" gradientUnits="userSpaceOnUse">
<stop stop-color="#2F2F2F"/>
<stop offset="0.494955" stop-color="white"/>
<stop offset="1" stop-color="#2F2F2F" stop-opacity="0"/>
</linearGradient>
<linearGradient id="paint6_linear_500_7033" x1="28.8203" y1="22" x2="28.8203" y2="42.6334" gradientUnits="userSpaceOnUse">
<stop stop-color="#2F2F2F"/>
<stop offset="0.494955" stop-color="white"/>
<stop offset="1" stop-color="#2F2F2F" stop-opacity="0"/>
</linearGradient>
<linearGradient id="paint7_linear_500_7033" x1="28.8203" y1="22" x2="28.8203" y2="42.6334" gradientUnits="userSpaceOnUse">
<stop stop-color="#2F2F2F"/>
<stop offset="0.494955" stop-color="white"/>
<stop offset="1" stop-color="#2F2F2F" stop-opacity="0"/>
</linearGradient>
<linearGradient id="paint8_linear_500_7033" x1="28.8203" y1="22" x2="28.8203" y2="42.6334" gradientUnits="userSpaceOnUse">
<stop stop-color="#2F2F2F"/>
<stop offset="0.494955" stop-color="white"/>
<stop offset="1" stop-color="#2F2F2F" stop-opacity="0"/>
</linearGradient>
<linearGradient id="paint9_linear_500_7033" x1="28.8203" y1="22" x2="28.8203" y2="42.6334" gradientUnits="userSpaceOnUse">
<stop stop-color="#2F2F2F"/>
<stop offset="0.494955" stop-color="white"/>
<stop offset="1" stop-color="#2F2F2F" stop-opacity="0"/>
</linearGradient>
<linearGradient id="paint10_linear_500_7033" x1="28.8203" y1="22" x2="28.8203" y2="42.6334" gradientUnits="userSpaceOnUse">
<stop stop-color="#2F2F2F"/>
<stop offset="0.494955" stop-color="white"/>
<stop offset="1" stop-color="#2F2F2F" stop-opacity="0"/>
</linearGradient>
<linearGradient id="paint11_linear_500_7033" x1="28.8203" y1="22" x2="28.8203" y2="42.6334" gradientUnits="userSpaceOnUse">
<stop stop-color="#2F2F2F"/>
<stop offset="0.494955" stop-color="white"/>
<stop offset="1" stop-color="#2F2F2F" stop-opacity="0"/>
</linearGradient>
<linearGradient id="paint12_linear_500_7033" x1="28.8203" y1="58.5801" x2="28.8203" y2="79.2135" gradientUnits="userSpaceOnUse">
<stop stop-color="#2F2F2F"/>
<stop offset="0.494955" stop-color="white"/>
<stop offset="1" stop-color="#2F2F2F" stop-opacity="0"/>
</linearGradient>
<linearGradient id="paint13_linear_500_7033" x1="28.8203" y1="58.5801" x2="28.8203" y2="79.2135" gradientUnits="userSpaceOnUse">
<stop stop-color="#2F2F2F"/>
<stop offset="0.494955" stop-color="white"/>
<stop offset="1" stop-color="#2F2F2F" stop-opacity="0"/>
</linearGradient>
<linearGradient id="paint14_linear_500_7033" x1="28.8203" y1="58.5801" x2="28.8203" y2="79.2135" gradientUnits="userSpaceOnUse">
<stop stop-color="#2F2F2F"/>
<stop offset="0.494955" stop-color="white"/>
<stop offset="1" stop-color="#2F2F2F" stop-opacity="0"/>
</linearGradient>
<linearGradient id="paint15_linear_500_7033" x1="28.8203" y1="58.5801" x2="28.8203" y2="79.2135" gradientUnits="userSpaceOnUse">
<stop stop-color="#2F2F2F"/>
<stop offset="0.494955" stop-color="white"/>
<stop offset="1" stop-color="#2F2F2F" stop-opacity="0"/>
</linearGradient>
<linearGradient id="paint16_linear_500_7033" x1="28.8203" y1="58.5801" x2="28.8203" y2="79.2135" gradientUnits="userSpaceOnUse">
<stop stop-color="#2F2F2F"/>
<stop offset="0.494955" stop-color="white"/>
<stop offset="1" stop-color="#2F2F2F" stop-opacity="0"/>
</linearGradient>
<linearGradient id="paint17_linear_500_7033" x1="28.8203" y1="58.5801" x2="28.8203" y2="79.2135" gradientUnits="userSpaceOnUse">
<stop stop-color="#2F2F2F"/>
<stop offset="0.494955" stop-color="white"/>
<stop offset="1" stop-color="#2F2F2F" stop-opacity="0"/>
</linearGradient>
<linearGradient id="paint18_linear_500_7033" x1="28.8203" y1="58.5801" x2="28.8203" y2="79.2135" gradientUnits="userSpaceOnUse">
<stop stop-color="#2F2F2F"/>
<stop offset="0.494955" stop-color="white"/>
<stop offset="1" stop-color="#2F2F2F" stop-opacity="0"/>
</linearGradient>
<linearGradient id="paint19_linear_500_7033" x1="28.8203" y1="58.5801" x2="28.8203" y2="79.2135" gradientUnits="userSpaceOnUse">
<stop stop-color="#2F2F2F"/>
<stop offset="0.494955" stop-color="white"/>
<stop offset="1" stop-color="#2F2F2F" stop-opacity="0"/>
</linearGradient>
<linearGradient id="paint20_linear_500_7033" x1="28.8203" y1="58.5801" x2="28.8203" y2="79.2135" gradientUnits="userSpaceOnUse">
<stop stop-color="#2F2F2F"/>
<stop offset="0.494955" stop-color="white"/>
<stop offset="1" stop-color="#2F2F2F" stop-opacity="0"/>
</linearGradient>
<linearGradient id="paint21_linear_500_7033" x1="28.8203" y1="58.5801" x2="28.8203" y2="79.2135" gradientUnits="userSpaceOnUse">
<stop stop-color="#2F2F2F"/>
<stop offset="0.494955" stop-color="white"/>
<stop offset="1" stop-color="#2F2F2F" stop-opacity="0"/>
</linearGradient>
<linearGradient id="paint22_linear_500_7033" x1="28.8203" y1="58.5801" x2="28.8203" y2="79.2135" gradientUnits="userSpaceOnUse">
<stop stop-color="#2F2F2F"/>
<stop offset="0.494955" stop-color="white"/>
<stop offset="1" stop-color="#2F2F2F" stop-opacity="0"/>
</linearGradient>
<linearGradient id="paint23_linear_500_7033" x1="28.8203" y1="58.5801" x2="28.8203" y2="79.2135" gradientUnits="userSpaceOnUse">
<stop stop-color="#2F2F2F"/>
<stop offset="0.494955" stop-color="white"/>
<stop offset="1" stop-color="#2F2F2F" stop-opacity="0"/>
</linearGradient>
<linearGradient id="paint24_linear_500_7033" x1="30.9911" y1="40.6108" x2="30.9911" y2="60.0305" gradientUnits="userSpaceOnUse">
<stop stop-color="#2F2F2F" stop-opacity="0"/>
<stop offset="0.512772" stop-color="white"/>
<stop offset="1" stop-color="#2F2F2F"/>
</linearGradient>
<linearGradient id="paint25_linear_500_7033" x1="30.9911" y1="40.6108" x2="30.9911" y2="60.0305" gradientUnits="userSpaceOnUse">
<stop stop-color="#2F2F2F" stop-opacity="0"/>
<stop offset="0.512772" stop-color="white"/>
<stop offset="1" stop-color="#2F2F2F"/>
</linearGradient>
<linearGradient id="paint26_linear_500_7033" x1="30.9911" y1="40.6108" x2="30.9911" y2="60.0305" gradientUnits="userSpaceOnUse">
<stop stop-color="#2F2F2F" stop-opacity="0"/>
<stop offset="0.512772" stop-color="white"/>
<stop offset="1" stop-color="#2F2F2F"/>
</linearGradient>
<linearGradient id="paint27_linear_500_7033" x1="30.9911" y1="40.6108" x2="30.9911" y2="60.0305" gradientUnits="userSpaceOnUse">
<stop stop-color="#2F2F2F" stop-opacity="0"/>
<stop offset="0.512772" stop-color="white"/>
<stop offset="1" stop-color="#2F2F2F"/>
</linearGradient>
<linearGradient id="paint28_linear_500_7033" x1="30.9911" y1="40.6108" x2="30.9911" y2="60.0305" gradientUnits="userSpaceOnUse">
<stop stop-color="#2F2F2F" stop-opacity="0"/>
<stop offset="0.512772" stop-color="white"/>
<stop offset="1" stop-color="#2F2F2F"/>
</linearGradient>
<linearGradient id="paint29_linear_500_7033" x1="30.9911" y1="40.6108" x2="30.9911" y2="60.0305" gradientUnits="userSpaceOnUse">
<stop stop-color="#2F2F2F" stop-opacity="0"/>
<stop offset="0.512772" stop-color="white"/>
<stop offset="1" stop-color="#2F2F2F"/>
</linearGradient>
<linearGradient id="paint30_linear_500_7033" x1="30.9911" y1="40.6108" x2="30.9911" y2="60.0305" gradientUnits="userSpaceOnUse">
<stop stop-color="#2F2F2F" stop-opacity="0"/>
<stop offset="0.512772" stop-color="white"/>
<stop offset="1" stop-color="#2F2F2F"/>
</linearGradient>
<linearGradient id="paint31_linear_500_7033" x1="30.9911" y1="40.6108" x2="30.9911" y2="60.0305" gradientUnits="userSpaceOnUse">
<stop stop-color="#2F2F2F" stop-opacity="0"/>
<stop offset="0.512772" stop-color="white"/>
<stop offset="1" stop-color="#2F2F2F"/>
</linearGradient>
<linearGradient id="paint32_linear_500_7033" x1="30.9911" y1="40.6108" x2="30.9911" y2="60.0305" gradientUnits="userSpaceOnUse">
<stop stop-color="#2F2F2F" stop-opacity="0"/>
<stop offset="0.512772" stop-color="white"/>
<stop offset="1" stop-color="#2F2F2F"/>
</linearGradient>
<linearGradient id="paint33_linear_500_7033" x1="30.9911" y1="40.6108" x2="30.9911" y2="60.0305" gradientUnits="userSpaceOnUse">
<stop stop-color="#2F2F2F" stop-opacity="0"/>
<stop offset="0.512772" stop-color="white"/>
<stop offset="1" stop-color="#2F2F2F"/>
</linearGradient>
<linearGradient id="paint34_linear_500_7033" x1="30.9911" y1="40.6108" x2="30.9911" y2="60.0305" gradientUnits="userSpaceOnUse">
<stop stop-color="#2F2F2F" stop-opacity="0"/>
<stop offset="0.512772" stop-color="white"/>
<stop offset="1" stop-color="#2F2F2F"/>
</linearGradient>
<linearGradient id="paint35_linear_500_7033" x1="30.9911" y1="40.6108" x2="30.9911" y2="60.0305" gradientUnits="userSpaceOnUse">
<stop stop-color="#2F2F2F" stop-opacity="0"/>
<stop offset="0.512772" stop-color="white"/>
<stop offset="1" stop-color="#2F2F2F"/>
</linearGradient>
<linearGradient id="paint36_linear_500_7033" x1="48.8203" y1="22" x2="48.8203" y2="42.6334" gradientUnits="userSpaceOnUse">
<stop stop-color="#2F2F2F"/>
<stop offset="0.494955" stop-color="white"/>
<stop offset="1" stop-color="#2F2F2F" stop-opacity="0"/>
</linearGradient>
<linearGradient id="paint37_linear_500_7033" x1="48.8203" y1="22" x2="48.8203" y2="42.6334" gradientUnits="userSpaceOnUse">
<stop stop-color="#2F2F2F"/>
<stop offset="0.494955" stop-color="white"/>
<stop offset="1" stop-color="#2F2F2F" stop-opacity="0"/>
</linearGradient>
<linearGradient id="paint38_linear_500_7033" x1="48.8203" y1="22" x2="48.8203" y2="42.6334" gradientUnits="userSpaceOnUse">
<stop stop-color="#2F2F2F"/>
<stop offset="0.494955" stop-color="white"/>
<stop offset="1" stop-color="#2F2F2F" stop-opacity="0"/>
</linearGradient>
<linearGradient id="paint39_linear_500_7033" x1="48.8203" y1="22" x2="48.8203" y2="42.6334" gradientUnits="userSpaceOnUse">
<stop stop-color="#2F2F2F"/>
<stop offset="0.494955" stop-color="white"/>
<stop offset="1" stop-color="#2F2F2F" stop-opacity="0"/>
</linearGradient>
<linearGradient id="paint40_linear_500_7033" x1="48.8203" y1="22" x2="48.8203" y2="42.6334" gradientUnits="userSpaceOnUse">
<stop stop-color="#2F2F2F"/>
<stop offset="0.494955" stop-color="white"/>
<stop offset="1" stop-color="#2F2F2F" stop-opacity="0"/>
</linearGradient>
<linearGradient id="paint41_linear_500_7033" x1="48.8203" y1="22" x2="48.8203" y2="42.6334" gradientUnits="userSpaceOnUse">
<stop stop-color="#2F2F2F"/>
<stop offset="0.494955" stop-color="white"/>
<stop offset="1" stop-color="#2F2F2F" stop-opacity="0"/>
</linearGradient>
<linearGradient id="paint42_linear_500_7033" x1="48.8203" y1="22" x2="48.8203" y2="42.6334" gradientUnits="userSpaceOnUse">
<stop stop-color="#2F2F2F"/>
<stop offset="0.494955" stop-color="white"/>
<stop offset="1" stop-color="#2F2F2F" stop-opacity="0"/>
</linearGradient>
<linearGradient id="paint43_linear_500_7033" x1="48.8203" y1="22" x2="48.8203" y2="42.6334" gradientUnits="userSpaceOnUse">
<stop stop-color="#2F2F2F"/>
<stop offset="0.494955" stop-color="white"/>
<stop offset="1" stop-color="#2F2F2F" stop-opacity="0"/>
</linearGradient>
<linearGradient id="paint44_linear_500_7033" x1="48.8203" y1="22" x2="48.8203" y2="42.6334" gradientUnits="userSpaceOnUse">
<stop stop-color="#2F2F2F"/>
<stop offset="0.494955" stop-color="white"/>
<stop offset="1" stop-color="#2F2F2F" stop-opacity="0"/>
</linearGradient>
<linearGradient id="paint45_linear_500_7033" x1="48.8203" y1="22" x2="48.8203" y2="42.6334" gradientUnits="userSpaceOnUse">
<stop stop-color="#2F2F2F"/>
<stop offset="0.494955" stop-color="white"/>
<stop offset="1" stop-color="#2F2F2F" stop-opacity="0"/>
</linearGradient>
<linearGradient id="paint46_linear_500_7033" x1="48.8203" y1="22" x2="48.8203" y2="42.6334" gradientUnits="userSpaceOnUse">
<stop stop-color="#2F2F2F"/>
<stop offset="0.494955" stop-color="white"/>
<stop offset="1" stop-color="#2F2F2F" stop-opacity="0"/>
</linearGradient>
<linearGradient id="paint47_linear_500_7033" x1="48.8203" y1="22" x2="48.8203" y2="42.6334" gradientUnits="userSpaceOnUse">
<stop stop-color="#2F2F2F"/>
<stop offset="0.494955" stop-color="white"/>
<stop offset="1" stop-color="#2F2F2F" stop-opacity="0"/>
</linearGradient>
<linearGradient id="paint48_linear_500_7033" x1="48.8203" y1="58.5801" x2="48.8203" y2="79.2135" gradientUnits="userSpaceOnUse">
<stop stop-color="#2F2F2F"/>
<stop offset="0.494955" stop-color="white"/>
<stop offset="1" stop-color="#2F2F2F" stop-opacity="0"/>
</linearGradient>
<linearGradient id="paint49_linear_500_7033" x1="48.8203" y1="58.5801" x2="48.8203" y2="79.2135" gradientUnits="userSpaceOnUse">
<stop stop-color="#2F2F2F"/>
<stop offset="0.494955" stop-color="white"/>
<stop offset="1" stop-color="#2F2F2F" stop-opacity="0"/>
</linearGradient>
<linearGradient id="paint50_linear_500_7033" x1="48.8203" y1="58.5801" x2="48.8203" y2="79.2135" gradientUnits="userSpaceOnUse">
<stop stop-color="#2F2F2F"/>
<stop offset="0.494955" stop-color="white"/>
<stop offset="1" stop-color="#2F2F2F" stop-opacity="0"/>
</linearGradient>
<linearGradient id="paint51_linear_500_7033" x1="48.8203" y1="58.5801" x2="48.8203" y2="79.2135" gradientUnits="userSpaceOnUse">
<stop stop-color="#2F2F2F"/>
<stop offset="0.494955" stop-color="white"/>
<stop offset="1" stop-color="#2F2F2F" stop-opacity="0"/>
</linearGradient>
<linearGradient id="paint52_linear_500_7033" x1="48.8203" y1="58.5801" x2="48.8203" y2="79.2135" gradientUnits="userSpaceOnUse">
<stop stop-color="#2F2F2F"/>
<stop offset="0.494955" stop-color="white"/>
<stop offset="1" stop-color="#2F2F2F" stop-opacity="0"/>
</linearGradient>
<linearGradient id="paint53_linear_500_7033" x1="48.8203" y1="58.5801" x2="48.8203" y2="79.2135" gradientUnits="userSpaceOnUse">
<stop stop-color="#2F2F2F"/>
<stop offset="0.494955" stop-color="white"/>
<stop offset="1" stop-color="#2F2F2F" stop-opacity="0"/>
</linearGradient>
<linearGradient id="paint54_linear_500_7033" x1="48.8203" y1="58.5801" x2="48.8203" y2="79.2135" gradientUnits="userSpaceOnUse">
<stop stop-color="#2F2F2F"/>
<stop offset="0.494955" stop-color="white"/>
<stop offset="1" stop-color="#2F2F2F" stop-opacity="0"/>
</linearGradient>
<linearGradient id="paint55_linear_500_7033" x1="48.8203" y1="58.5801" x2="48.8203" y2="79.2135" gradientUnits="userSpaceOnUse">
<stop stop-color="#2F2F2F"/>
<stop offset="0.494955" stop-color="white"/>
<stop offset="1" stop-color="#2F2F2F" stop-opacity="0"/>
</linearGradient>
<linearGradient id="paint56_linear_500_7033" x1="48.8203" y1="58.5801" x2="48.8203" y2="79.2135" gradientUnits="userSpaceOnUse">
<stop stop-color="#2F2F2F"/>
<stop offset="0.494955" stop-color="white"/>
<stop offset="1" stop-color="#2F2F2F" stop-opacity="0"/>
</linearGradient>
<linearGradient id="paint57_linear_500_7033" x1="48.8203" y1="58.5801" x2="48.8203" y2="79.2135" gradientUnits="userSpaceOnUse">
<stop stop-color="#2F2F2F"/>
<stop offset="0.494955" stop-color="white"/>
<stop offset="1" stop-color="#2F2F2F" stop-opacity="0"/>
</linearGradient>
<linearGradient id="paint58_linear_500_7033" x1="48.8203" y1="58.5801" x2="48.8203" y2="79.2135" gradientUnits="userSpaceOnUse">
<stop stop-color="#2F2F2F"/>
<stop offset="0.494955" stop-color="white"/>
<stop offset="1" stop-color="#2F2F2F" stop-opacity="0"/>
</linearGradient>
<linearGradient id="paint59_linear_500_7033" x1="48.8203" y1="58.5801" x2="48.8203" y2="79.2135" gradientUnits="userSpaceOnUse">
<stop stop-color="#2F2F2F"/>
<stop offset="0.494955" stop-color="white"/>
<stop offset="1" stop-color="#2F2F2F" stop-opacity="0"/>
</linearGradient>
<linearGradient id="paint60_linear_500_7033" x1="50.9911" y1="40.6108" x2="50.9911" y2="60.0305" gradientUnits="userSpaceOnUse">
<stop stop-color="#2F2F2F" stop-opacity="0"/>
<stop offset="0.512772" stop-color="white"/>
<stop offset="1" stop-color="#2F2F2F"/>
</linearGradient>
<linearGradient id="paint61_linear_500_7033" x1="50.9911" y1="40.6108" x2="50.9911" y2="60.0305" gradientUnits="userSpaceOnUse">
<stop stop-color="#2F2F2F" stop-opacity="0"/>
<stop offset="0.512772" stop-color="white"/>
<stop offset="1" stop-color="#2F2F2F"/>
</linearGradient>
<linearGradient id="paint62_linear_500_7033" x1="50.9911" y1="40.6108" x2="50.9911" y2="60.0305" gradientUnits="userSpaceOnUse">
<stop stop-color="#2F2F2F" stop-opacity="0"/>
<stop offset="0.512772" stop-color="white"/>
<stop offset="1" stop-color="#2F2F2F"/>
</linearGradient>
<linearGradient id="paint63_linear_500_7033" x1="50.9911" y1="40.6108" x2="50.9911" y2="60.0305" gradientUnits="userSpaceOnUse">
<stop stop-color="#2F2F2F" stop-opacity="0"/>
<stop offset="0.512772" stop-color="white"/>
<stop offset="1" stop-color="#2F2F2F"/>
</linearGradient>
<linearGradient id="paint64_linear_500_7033" x1="50.9911" y1="40.6108" x2="50.9911" y2="60.0305" gradientUnits="userSpaceOnUse">
<stop stop-color="#2F2F2F" stop-opacity="0"/>
<stop offset="0.512772" stop-color="white"/>
<stop offset="1" stop-color="#2F2F2F"/>
</linearGradient>
<linearGradient id="paint65_linear_500_7033" x1="50.9911" y1="40.6108" x2="50.9911" y2="60.0305" gradientUnits="userSpaceOnUse">
<stop stop-color="#2F2F2F" stop-opacity="0"/>
<stop offset="0.512772" stop-color="white"/>
<stop offset="1" stop-color="#2F2F2F"/>
</linearGradient>
<linearGradient id="paint66_linear_500_7033" x1="50.9911" y1="40.6108" x2="50.9911" y2="60.0305" gradientUnits="userSpaceOnUse">
<stop stop-color="#2F2F2F" stop-opacity="0"/>
<stop offset="0.512772" stop-color="white"/>
<stop offset="1" stop-color="#2F2F2F"/>
</linearGradient>
<linearGradient id="paint67_linear_500_7033" x1="50.9911" y1="40.6108" x2="50.9911" y2="60.0305" gradientUnits="userSpaceOnUse">
<stop stop-color="#2F2F2F" stop-opacity="0"/>
<stop offset="0.512772" stop-color="white"/>
<stop offset="1" stop-color="#2F2F2F"/>
</linearGradient>
<linearGradient id="paint68_linear_500_7033" x1="50.9911" y1="40.6108" x2="50.9911" y2="60.0305" gradientUnits="userSpaceOnUse">
<stop stop-color="#2F2F2F" stop-opacity="0"/>
<stop offset="0.512772" stop-color="white"/>
<stop offset="1" stop-color="#2F2F2F"/>
</linearGradient>
<linearGradient id="paint69_linear_500_7033" x1="50.9911" y1="40.6108" x2="50.9911" y2="60.0305" gradientUnits="userSpaceOnUse">
<stop stop-color="#2F2F2F" stop-opacity="0"/>
<stop offset="0.512772" stop-color="white"/>
<stop offset="1" stop-color="#2F2F2F"/>
</linearGradient>
<linearGradient id="paint70_linear_500_7033" x1="50.9911" y1="40.6108" x2="50.9911" y2="60.0305" gradientUnits="userSpaceOnUse">
<stop stop-color="#2F2F2F" stop-opacity="0"/>
<stop offset="0.512772" stop-color="white"/>
<stop offset="1" stop-color="#2F2F2F"/>
</linearGradient>
<linearGradient id="paint71_linear_500_7033" x1="50.9911" y1="40.6108" x2="50.9911" y2="60.0305" gradientUnits="userSpaceOnUse">
<stop stop-color="#2F2F2F" stop-opacity="0"/>
<stop offset="0.512772" stop-color="white"/>
<stop offset="1" stop-color="#2F2F2F"/>
</linearGradient>
<linearGradient id="paint72_linear_500_7033" x1="68.8203" y1="22" x2="68.8203" y2="42.6334" gradientUnits="userSpaceOnUse">
<stop stop-color="#2F2F2F"/>
<stop offset="0.494955" stop-color="white"/>
<stop offset="1" stop-color="#2F2F2F" stop-opacity="0"/>
</linearGradient>
<linearGradient id="paint73_linear_500_7033" x1="68.8203" y1="22" x2="68.8203" y2="42.6334" gradientUnits="userSpaceOnUse">
<stop stop-color="#2F2F2F"/>
<stop offset="0.494955" stop-color="white"/>
<stop offset="1" stop-color="#2F2F2F" stop-opacity="0"/>
</linearGradient>
<linearGradient id="paint74_linear_500_7033" x1="68.8203" y1="22" x2="68.8203" y2="42.6334" gradientUnits="userSpaceOnUse">
<stop stop-color="#2F2F2F"/>
<stop offset="0.494955" stop-color="white"/>
<stop offset="1" stop-color="#2F2F2F" stop-opacity="0"/>
</linearGradient>
<linearGradient id="paint75_linear_500_7033" x1="68.8203" y1="22" x2="68.8203" y2="42.6334" gradientUnits="userSpaceOnUse">
<stop stop-color="#2F2F2F"/>
<stop offset="0.494955" stop-color="white"/>
<stop offset="1" stop-color="#2F2F2F" stop-opacity="0"/>
</linearGradient>
<linearGradient id="paint76_linear_500_7033" x1="68.8203" y1="22" x2="68.8203" y2="42.6334" gradientUnits="userSpaceOnUse">
<stop stop-color="#2F2F2F"/>
<stop offset="0.494955" stop-color="white"/>
<stop offset="1" stop-color="#2F2F2F" stop-opacity="0"/>
</linearGradient>
<linearGradient id="paint77_linear_500_7033" x1="68.8203" y1="22" x2="68.8203" y2="42.6334" gradientUnits="userSpaceOnUse">
<stop stop-color="#2F2F2F"/>
<stop offset="0.494955" stop-color="white"/>
<stop offset="1" stop-color="#2F2F2F" stop-opacity="0"/>
</linearGradient>
<linearGradient id="paint78_linear_500_7033" x1="68.8203" y1="22" x2="68.8203" y2="42.6334" gradientUnits="userSpaceOnUse">
<stop stop-color="#2F2F2F"/>
<stop offset="0.494955" stop-color="white"/>
<stop offset="1" stop-color="#2F2F2F" stop-opacity="0"/>
</linearGradient>
<linearGradient id="paint79_linear_500_7033" x1="68.8203" y1="22" x2="68.8203" y2="42.6334" gradientUnits="userSpaceOnUse">
<stop stop-color="#2F2F2F"/>
<stop offset="0.494955" stop-color="white"/>
<stop offset="1" stop-color="#2F2F2F" stop-opacity="0"/>
</linearGradient>
<linearGradient id="paint80_linear_500_7033" x1="68.8203" y1="22" x2="68.8203" y2="42.6334" gradientUnits="userSpaceOnUse">
<stop stop-color="#2F2F2F"/>
<stop offset="0.494955" stop-color="white"/>
<stop offset="1" stop-color="#2F2F2F" stop-opacity="0"/>
</linearGradient>
<linearGradient id="paint81_linear_500_7033" x1="68.8203" y1="22" x2="68.8203" y2="42.6334" gradientUnits="userSpaceOnUse">
<stop stop-color="#2F2F2F"/>
<stop offset="0.494955" stop-color="white"/>
<stop offset="1" stop-color="#2F2F2F" stop-opacity="0"/>
</linearGradient>
<linearGradient id="paint82_linear_500_7033" x1="68.8203" y1="22" x2="68.8203" y2="42.6334" gradientUnits="userSpaceOnUse">
<stop stop-color="#2F2F2F"/>
<stop offset="0.494955" stop-color="white"/>
<stop offset="1" stop-color="#2F2F2F" stop-opacity="0"/>
</linearGradient>
<linearGradient id="paint83_linear_500_7033" x1="68.8203" y1="22" x2="68.8203" y2="42.6334" gradientUnits="userSpaceOnUse">
<stop stop-color="#2F2F2F"/>
<stop offset="0.494955" stop-color="white"/>
<stop offset="1" stop-color="#2F2F2F" stop-opacity="0"/>
</linearGradient>
<linearGradient id="paint84_linear_500_7033" x1="68.8203" y1="58.5801" x2="68.8203" y2="79.2135" gradientUnits="userSpaceOnUse">
<stop stop-color="#2F2F2F"/>
<stop offset="0.494955" stop-color="white"/>
<stop offset="1" stop-color="#2F2F2F" stop-opacity="0"/>
</linearGradient>
<linearGradient id="paint85_linear_500_7033" x1="68.8203" y1="58.5801" x2="68.8203" y2="79.2135" gradientUnits="userSpaceOnUse">
<stop stop-color="#2F2F2F"/>
<stop offset="0.494955" stop-color="white"/>
<stop offset="1" stop-color="#2F2F2F" stop-opacity="0"/>
</linearGradient>
<linearGradient id="paint86_linear_500_7033" x1="68.8203" y1="58.5801" x2="68.8203" y2="79.2135" gradientUnits="userSpaceOnUse">
<stop stop-color="#2F2F2F"/>
<stop offset="0.494955" stop-color="white"/>
<stop offset="1" stop-color="#2F2F2F" stop-opacity="0"/>
</linearGradient>
<linearGradient id="paint87_linear_500_7033" x1="68.8203" y1="58.5801" x2="68.8203" y2="79.2135" gradientUnits="userSpaceOnUse">
<stop stop-color="#2F2F2F"/>
<stop offset="0.494955" stop-color="white"/>
<stop offset="1" stop-color="#2F2F2F" stop-opacity="0"/>
</linearGradient>
<linearGradient id="paint88_linear_500_7033" x1="68.8203" y1="58.5801" x2="68.8203" y2="79.2135" gradientUnits="userSpaceOnUse">
<stop stop-color="#2F2F2F"/>
<stop offset="0.494955" stop-color="white"/>
<stop offset="1" stop-color="#2F2F2F" stop-opacity="0"/>
</linearGradient>
<linearGradient id="paint89_linear_500_7033" x1="68.8203" y1="58.5801" x2="68.8203" y2="79.2135" gradientUnits="userSpaceOnUse">
<stop stop-color="#2F2F2F"/>
<stop offset="0.494955" stop-color="white"/>
<stop offset="1" stop-color="#2F2F2F" stop-opacity="0"/>
</linearGradient>
<linearGradient id="paint90_linear_500_7033" x1="68.8203" y1="58.5801" x2="68.8203" y2="79.2135" gradientUnits="userSpaceOnUse">
<stop stop-color="#2F2F2F"/>
<stop offset="0.494955" stop-color="white"/>
<stop offset="1" stop-color="#2F2F2F" stop-opacity="0"/>
</linearGradient>
<linearGradient id="paint91_linear_500_7033" x1="68.8203" y1="58.5801" x2="68.8203" y2="79.2135" gradientUnits="userSpaceOnUse">
<stop stop-color="#2F2F2F"/>
<stop offset="0.494955" stop-color="white"/>
<stop offset="1" stop-color="#2F2F2F" stop-opacity="0"/>
</linearGradient>
<linearGradient id="paint92_linear_500_7033" x1="68.8203" y1="58.5801" x2="68.8203" y2="79.2135" gradientUnits="userSpaceOnUse">
<stop stop-color="#2F2F2F"/>
<stop offset="0.494955" stop-color="white"/>
<stop offset="1" stop-color="#2F2F2F" stop-opacity="0"/>
</linearGradient>
<linearGradient id="paint93_linear_500_7033" x1="68.8203" y1="58.5801" x2="68.8203" y2="79.2135" gradientUnits="userSpaceOnUse">
<stop stop-color="#2F2F2F"/>
<stop offset="0.494955" stop-color="white"/>
<stop offset="1" stop-color="#2F2F2F" stop-opacity="0"/>
</linearGradient>
<linearGradient id="paint94_linear_500_7033" x1="68.8203" y1="58.5801" x2="68.8203" y2="79.2135" gradientUnits="userSpaceOnUse">
<stop stop-color="#2F2F2F"/>
<stop offset="0.494955" stop-color="white"/>
<stop offset="1" stop-color="#2F2F2F" stop-opacity="0"/>
</linearGradient>
<linearGradient id="paint95_linear_500_7033" x1="68.8203" y1="58.5801" x2="68.8203" y2="79.2135" gradientUnits="userSpaceOnUse">
<stop stop-color="#2F2F2F"/>
<stop offset="0.494955" stop-color="white"/>
<stop offset="1" stop-color="#2F2F2F" stop-opacity="0"/>
</linearGradient>
<linearGradient id="paint96_linear_500_7033" x1="70.9911" y1="40.6108" x2="70.9911" y2="60.0305" gradientUnits="userSpaceOnUse">
<stop stop-color="#2F2F2F" stop-opacity="0"/>
<stop offset="0.512772" stop-color="white"/>
<stop offset="1" stop-color="#2F2F2F"/>
</linearGradient>
<linearGradient id="paint97_linear_500_7033" x1="70.9911" y1="40.6108" x2="70.9911" y2="60.0305" gradientUnits="userSpaceOnUse">
<stop stop-color="#2F2F2F" stop-opacity="0"/>
<stop offset="0.512772" stop-color="white"/>
<stop offset="1" stop-color="#2F2F2F"/>
</linearGradient>
<linearGradient id="paint98_linear_500_7033" x1="70.9911" y1="40.6108" x2="70.9911" y2="60.0305" gradientUnits="userSpaceOnUse">
<stop stop-color="#2F2F2F" stop-opacity="0"/>
<stop offset="0.512772" stop-color="white"/>
<stop offset="1" stop-color="#2F2F2F"/>
</linearGradient>
<linearGradient id="paint99_linear_500_7033" x1="70.9911" y1="40.6108" x2="70.9911" y2="60.0305" gradientUnits="userSpaceOnUse">
<stop stop-color="#2F2F2F" stop-opacity="0"/>
<stop offset="0.512772" stop-color="white"/>
<stop offset="1" stop-color="#2F2F2F"/>
</linearGradient>
<linearGradient id="paint100_linear_500_7033" x1="70.9911" y1="40.6108" x2="70.9911" y2="60.0305" gradientUnits="userSpaceOnUse">
<stop stop-color="#2F2F2F" stop-opacity="0"/>
<stop offset="0.512772" stop-color="white"/>
<stop offset="1" stop-color="#2F2F2F"/>
</linearGradient>
<linearGradient id="paint101_linear_500_7033" x1="70.9911" y1="40.6108" x2="70.9911" y2="60.0305" gradientUnits="userSpaceOnUse">
<stop stop-color="#2F2F2F" stop-opacity="0"/>
<stop offset="0.512772" stop-color="white"/>
<stop offset="1" stop-color="#2F2F2F"/>
</linearGradient>
<linearGradient id="paint102_linear_500_7033" x1="70.9911" y1="40.6108" x2="70.9911" y2="60.0305" gradientUnits="userSpaceOnUse">
<stop stop-color="#2F2F2F" stop-opacity="0"/>
<stop offset="0.512772" stop-color="white"/>
<stop offset="1" stop-color="#2F2F2F"/>
</linearGradient>
<linearGradient id="paint103_linear_500_7033" x1="70.9911" y1="40.6108" x2="70.9911" y2="60.0305" gradientUnits="userSpaceOnUse">
<stop stop-color="#2F2F2F" stop-opacity="0"/>
<stop offset="0.512772" stop-color="white"/>
<stop offset="1" stop-color="#2F2F2F"/>
</linearGradient>
<linearGradient id="paint104_linear_500_7033" x1="70.9911" y1="40.6108" x2="70.9911" y2="60.0305" gradientUnits="userSpaceOnUse">
<stop stop-color="#2F2F2F" stop-opacity="0"/>
<stop offset="0.512772" stop-color="white"/>
<stop offset="1" stop-color="#2F2F2F"/>
</linearGradient>
<linearGradient id="paint105_linear_500_7033" x1="70.9911" y1="40.6108" x2="70.9911" y2="60.0305" gradientUnits="userSpaceOnUse">
<stop stop-color="#2F2F2F" stop-opacity="0"/>
<stop offset="0.512772" stop-color="white"/>
<stop offset="1" stop-color="#2F2F2F"/>
</linearGradient>
<linearGradient id="paint106_linear_500_7033" x1="70.9911" y1="40.6108" x2="70.9911" y2="60.0305" gradientUnits="userSpaceOnUse">
<stop stop-color="#2F2F2F" stop-opacity="0"/>
<stop offset="0.512772" stop-color="white"/>
<stop offset="1" stop-color="#2F2F2F"/>
</linearGradient>
<linearGradient id="paint107_linear_500_7033" x1="70.9911" y1="40.6108" x2="70.9911" y2="60.0305" gradientUnits="userSpaceOnUse">
<stop stop-color="#2F2F2F" stop-opacity="0"/>
<stop offset="0.512772" stop-color="white"/>
<stop offset="1" stop-color="#2F2F2F"/>
</linearGradient>
</defs>
</svg>
