<svg width="100" height="100" viewBox="0 0 100 100" fill="none" xmlns="http://www.w3.org/2000/svg">
<path fill-rule="evenodd" clip-rule="evenodd" d="M60.5016 8.00001C66.2288 10.9544 70 16.1463 70 22C70 27.8537 66.2288 33.0456 60.5016 36C65.7237 32.8347 69.1285 27.7639 69.1285 22C69.1285 16.2361 65.7237 11.1653 60.5016 8.00001ZM39.5862 36C44.8083 32.8347 48.2132 27.7639 48.2132 22C48.2132 16.2361 44.8083 11.1653 39.5862 8C45.3134 10.9544 49.0846 16.1463 49.0846 22C49.0846 27.8537 45.3134 33.0456 39.5862 36ZM50.8276 22C50.8276 16.1463 47.0564 10.9544 41.3292 8C46.5513 11.1653 49.9561 16.2361 49.9561 22C49.9561 27.7639 46.5513 32.8347 41.3292 36C47.0564 33.0456 50.8276 27.8537 50.8276 22ZM43.0721 36C48.2942 32.8347 51.6991 27.7639 51.6991 22C51.6991 16.2361 48.2942 11.1653 43.0721 8.00001C48.7993 10.9544 52.5705 16.1463 52.5705 22C52.5705 27.8537 48.7993 33.0456 43.0721 36ZM54.3135 22C54.3135 16.1463 50.5423 10.9544 44.8151 8.00001C50.0372 11.1653 53.442 16.2361 53.442 22C53.442 27.7639 50.0371 32.8347 44.8151 36C50.5423 33.0456 54.3135 27.8537 54.3135 22ZM46.558 36C51.7801 32.8347 55.185 27.7639 55.185 22C55.185 16.2361 51.7801 11.1653 46.558 8.00001C52.2852 10.9544 56.0564 16.1463 56.0564 22C56.0564 27.8537 52.2852 33.0456 46.558 36ZM57.7994 22C57.7994 16.1463 54.0282 10.9544 48.301 8.00001C53.5231 11.1653 56.9279 16.2361 56.9279 22C56.9279 27.7639 53.523 32.8347 48.301 36C54.0282 33.0456 57.7994 27.8537 57.7994 22ZM50.0439 36C55.266 32.8347 58.6708 27.7639 58.6708 22C58.6708 16.2361 55.266 11.1653 50.0439 8.00001C55.7711 10.9544 59.5423 16.1463 59.5423 22C59.5423 27.8537 55.7711 33.0456 50.0439 36ZM61.2853 22C61.2853 16.1463 57.5141 10.9544 51.7869 8.00001C57.0089 11.1653 60.4138 16.2361 60.4138 22C60.4138 27.7639 57.0089 32.8347 51.7868 36C57.5141 33.0456 61.2853 27.8537 61.2853 22ZM53.5298 36C58.7519 32.8347 62.1567 27.7639 62.1567 22C62.1567 16.2361 58.7519 11.1653 53.5298 8.00001C59.257 10.9544 63.0282 16.1463 63.0282 22C63.0282 27.8537 59.257 33.0456 53.5298 36ZM64.7712 22C64.7712 16.1463 61 10.9544 55.2728 8.00001C60.4948 11.1653 63.8997 16.2361 63.8997 22C63.8997 27.7639 60.4948 32.8347 55.2727 36C61 33.0456 64.7712 27.8537 64.7712 22ZM57.0157 36C62.2378 32.8347 65.6426 27.7639 65.6426 22C65.6426 16.2361 62.2378 11.1653 57.0157 8.00001C62.7429 10.9544 66.5141 16.1463 66.5141 22C66.5141 27.8537 62.7429 33.0456 57.0157 36ZM68.2571 22C68.2571 16.1463 64.4859 10.9544 58.7587 8.00001C63.9807 11.1653 67.3856 16.2361 67.3856 22C67.3856 27.7639 63.9807 32.8347 58.7586 36C64.4859 33.0456 68.2571 27.8537 68.2571 22Z" fill="url(#paint0_linear_500_7046)"/>
<path fill-rule="evenodd" clip-rule="evenodd" d="M39.4984 8.00001C33.7712 10.9544 30 16.1463 30 22C30 27.8537 33.7712 33.0456 39.4984 36C34.2763 32.8347 30.8715 27.7639 30.8715 22C30.8715 16.2361 34.2763 11.1653 39.4984 8.00001ZM60.4138 36C55.1917 32.8347 51.7868 27.7639 51.7868 22C51.7868 16.2361 55.1917 11.1653 60.4138 8C54.6866 10.9544 50.9154 16.1463 50.9154 22C50.9154 27.8537 54.6866 33.0456 60.4138 36ZM49.1724 22C49.1724 16.1463 52.9436 10.9544 58.6708 8C53.4487 11.1653 50.0439 16.2361 50.0439 22C50.0439 27.7639 53.4487 32.8347 58.6708 36C52.9436 33.0456 49.1724 27.8537 49.1724 22ZM56.9279 36C51.7058 32.8347 48.3009 27.7639 48.3009 22C48.3009 16.2361 51.7058 11.1653 56.9279 8.00001C51.2007 10.9544 47.4295 16.1463 47.4295 22C47.4295 27.8537 51.2007 33.0456 56.9279 36ZM45.6865 22C45.6865 16.1463 49.4577 10.9544 55.1849 8.00001C49.9628 11.1653 46.558 16.2361 46.558 22C46.558 27.7639 49.9629 32.8347 55.1849 36C49.4577 33.0456 45.6865 27.8537 45.6865 22ZM53.442 36C48.2199 32.8347 44.815 27.7639 44.815 22C44.815 16.2361 48.2199 11.1653 53.442 8.00001C47.7148 10.9544 43.9436 16.1463 43.9436 22C43.9436 27.8537 47.7148 33.0456 53.442 36ZM42.2006 22C42.2006 16.1463 45.9718 10.9544 51.699 8.00001C46.4769 11.1653 43.0721 16.2361 43.0721 22C43.0721 27.7639 46.477 32.8347 51.699 36C45.9718 33.0456 42.2006 27.8537 42.2006 22ZM49.9561 36C44.734 32.8347 41.3292 27.7639 41.3292 22C41.3292 16.2361 44.734 11.1653 49.9561 8.00001C44.2289 10.9544 40.4577 16.1463 40.4577 22C40.4577 27.8537 44.2289 33.0456 49.9561 36ZM38.7147 22C38.7147 16.1463 42.4859 10.9544 48.2131 8.00001C42.9911 11.1653 39.5862 16.2361 39.5862 22C39.5862 27.7639 42.9911 32.8347 48.2132 36C42.4859 33.0456 38.7147 27.8537 38.7147 22ZM46.4702 36C41.2481 32.8347 37.8433 27.7639 37.8433 22C37.8433 16.2361 41.2481 11.1653 46.4702 8.00001C40.743 10.9544 36.9718 16.1463 36.9718 22C36.9718 27.8537 40.743 33.0456 46.4702 36ZM35.2288 22C35.2288 16.1463 39 10.9544 44.7272 8.00001C39.5052 11.1653 36.1003 16.2361 36.1003 22C36.1003 27.7639 39.5052 32.8347 44.7273 36C39 33.0456 35.2288 27.8537 35.2288 22ZM42.9843 36C37.7622 32.8347 34.3574 27.7639 34.3574 22C34.3574 16.2361 37.7622 11.1653 42.9843 8.00001C37.2571 10.9544 33.4859 16.1463 33.4859 22C33.4859 27.8537 37.2571 33.0456 42.9843 36ZM31.7429 22C31.7429 16.1463 35.5141 10.9544 41.2413 8.00001C36.0193 11.1653 32.6144 16.2361 32.6144 22C32.6144 27.7639 36.0193 32.8347 41.2414 36C35.5141 33.0456 31.7429 27.8537 31.7429 22Z" fill="url(#paint1_linear_500_7046)"/>
<path fill-rule="evenodd" clip-rule="evenodd" d="M60.5016 35.667C66.2288 38.6214 70 43.8133 70 49.667C70 55.5207 66.2288 60.7126 60.5016 63.667C65.7237 60.5017 69.1285 55.4309 69.1285 49.667C69.1285 43.9031 65.7237 38.8323 60.5016 35.667ZM39.5862 63.667C44.8083 60.5017 48.2132 55.4309 48.2132 49.667C48.2132 43.9031 44.8083 38.8323 39.5862 35.667C45.3134 38.6214 49.0846 43.8133 49.0846 49.667C49.0846 55.5207 45.3134 60.7126 39.5862 63.667ZM50.8276 49.667C50.8276 43.8133 47.0564 38.6214 41.3292 35.667C46.5513 38.8323 49.9561 43.9031 49.9561 49.667C49.9561 55.4309 46.5513 60.5017 41.3292 63.667C47.0564 60.7126 50.8276 55.5207 50.8276 49.667ZM43.0721 63.667C48.2942 60.5017 51.6991 55.4309 51.6991 49.667C51.6991 43.9031 48.2942 38.8323 43.0721 35.667C48.7993 38.6214 52.5705 43.8133 52.5705 49.667C52.5705 55.5207 48.7993 60.7126 43.0721 63.667ZM54.3135 49.667C54.3135 43.8133 50.5423 38.6214 44.8151 35.667C50.0372 38.8323 53.442 43.9031 53.442 49.667C53.442 55.4309 50.0371 60.5017 44.8151 63.667C50.5423 60.7126 54.3135 55.5207 54.3135 49.667ZM46.558 63.667C51.7801 60.5017 55.185 55.4309 55.185 49.667C55.185 43.9031 51.7801 38.8323 46.558 35.667C52.2852 38.6214 56.0564 43.8133 56.0564 49.667C56.0564 55.5207 52.2852 60.7126 46.558 63.667ZM57.7994 49.667C57.7994 43.8133 54.0282 38.6214 48.301 35.667C53.5231 38.8323 56.9279 43.9031 56.9279 49.667C56.9279 55.4309 53.523 60.5017 48.301 63.667C54.0282 60.7126 57.7994 55.5207 57.7994 49.667ZM50.0439 63.667C55.266 60.5017 58.6708 55.4309 58.6708 49.667C58.6708 43.9031 55.266 38.8323 50.0439 35.667C55.7711 38.6214 59.5423 43.8133 59.5423 49.667C59.5423 55.5207 55.7711 60.7126 50.0439 63.667ZM61.2853 49.667C61.2853 43.8133 57.5141 38.6214 51.7869 35.667C57.0089 38.8323 60.4138 43.9031 60.4138 49.667C60.4138 55.4309 57.0089 60.5017 51.7868 63.667C57.5141 60.7126 61.2853 55.5207 61.2853 49.667ZM53.5298 63.667C58.7519 60.5017 62.1567 55.4309 62.1567 49.667C62.1567 43.9031 58.7519 38.8323 53.5298 35.667C59.257 38.6214 63.0282 43.8133 63.0282 49.667C63.0282 55.5207 59.257 60.7126 53.5298 63.667ZM64.7712 49.667C64.7712 43.8133 61 38.6214 55.2728 35.667C60.4948 38.8323 63.8997 43.9031 63.8997 49.667C63.8997 55.4309 60.4948 60.5017 55.2727 63.667C61 60.7126 64.7712 55.5207 64.7712 49.667ZM57.0157 63.667C62.2378 60.5017 65.6426 55.4309 65.6426 49.667C65.6426 43.9031 62.2378 38.8323 57.0157 35.667C62.7429 38.6214 66.5141 43.8133 66.5141 49.667C66.5141 55.5207 62.7429 60.7126 57.0157 63.667ZM68.2571 49.667C68.2571 43.8133 64.4859 38.6214 58.7587 35.667C63.9807 38.8323 67.3856 43.9031 67.3856 49.667C67.3856 55.4309 63.9807 60.5017 58.7586 63.667C64.4859 60.7126 68.2571 55.5207 68.2571 49.667Z" fill="url(#paint2_linear_500_7046)"/>
<path fill-rule="evenodd" clip-rule="evenodd" d="M39.4984 35.667C33.7712 38.6214 30 43.8133 30 49.667C30 55.5207 33.7712 60.7126 39.4984 63.667C34.2763 60.5017 30.8715 55.4309 30.8715 49.667C30.8715 43.9031 34.2763 38.8323 39.4984 35.667ZM60.4138 63.667C55.1917 60.5017 51.7868 55.4309 51.7868 49.667C51.7868 43.9031 55.1917 38.8323 60.4138 35.667C54.6866 38.6214 50.9154 43.8133 50.9154 49.667C50.9154 55.5207 54.6866 60.7126 60.4138 63.667ZM49.1724 49.667C49.1724 43.8133 52.9436 38.6214 58.6708 35.667C53.4487 38.8323 50.0439 43.9031 50.0439 49.667C50.0439 55.4309 53.4487 60.5017 58.6708 63.667C52.9436 60.7126 49.1724 55.5207 49.1724 49.667ZM56.9279 63.667C51.7058 60.5017 48.3009 55.4309 48.3009 49.667C48.3009 43.9031 51.7058 38.8323 56.9279 35.667C51.2007 38.6214 47.4295 43.8133 47.4295 49.667C47.4295 55.5207 51.2007 60.7126 56.9279 63.667ZM45.6865 49.667C45.6865 43.8133 49.4577 38.6214 55.1849 35.667C49.9628 38.8323 46.558 43.9031 46.558 49.667C46.558 55.4309 49.9629 60.5017 55.1849 63.667C49.4577 60.7126 45.6865 55.5207 45.6865 49.667ZM53.442 63.667C48.2199 60.5017 44.815 55.4309 44.815 49.667C44.815 43.9031 48.2199 38.8323 53.442 35.667C47.7148 38.6214 43.9436 43.8133 43.9436 49.667C43.9436 55.5207 47.7148 60.7126 53.442 63.667ZM42.2006 49.667C42.2006 43.8133 45.9718 38.6214 51.699 35.667C46.4769 38.8323 43.0721 43.9031 43.0721 49.667C43.0721 55.4309 46.477 60.5017 51.699 63.667C45.9718 60.7126 42.2006 55.5207 42.2006 49.667ZM49.9561 63.667C44.734 60.5017 41.3292 55.4309 41.3292 49.667C41.3292 43.9031 44.734 38.8323 49.9561 35.667C44.2289 38.6214 40.4577 43.8133 40.4577 49.667C40.4577 55.5207 44.2289 60.7126 49.9561 63.667ZM38.7147 49.667C38.7147 43.8133 42.4859 38.6214 48.2131 35.667C42.9911 38.8323 39.5862 43.9031 39.5862 49.667C39.5862 55.4309 42.9911 60.5017 48.2132 63.667C42.4859 60.7126 38.7147 55.5207 38.7147 49.667ZM46.4702 63.667C41.2481 60.5017 37.8433 55.4309 37.8433 49.667C37.8433 43.9031 41.2481 38.8323 46.4702 35.667C40.743 38.6214 36.9718 43.8133 36.9718 49.667C36.9718 55.5207 40.743 60.7126 46.4702 63.667ZM35.2288 49.667C35.2288 43.8133 39 38.6214 44.7272 35.667C39.5052 38.8323 36.1003 43.9031 36.1003 49.667C36.1003 55.4309 39.5052 60.5017 44.7273 63.667C39 60.7126 35.2288 55.5207 35.2288 49.667ZM42.9843 63.667C37.7622 60.5017 34.3574 55.4309 34.3574 49.667C34.3574 43.9031 37.7622 38.8323 42.9843 35.667C37.2571 38.6214 33.4859 43.8133 33.4859 49.667C33.4859 55.5207 37.2571 60.7126 42.9843 63.667ZM31.7429 49.667C31.7429 43.8133 35.5141 38.6214 41.2413 35.667C36.0193 38.8323 32.6144 43.9031 32.6144 49.667C32.6144 55.4309 36.0193 60.5017 41.2414 63.667C35.5141 60.7126 31.7429 55.5207 31.7429 49.667Z" fill="url(#paint3_linear_500_7046)"/>
<path fill-rule="evenodd" clip-rule="evenodd" d="M60.5016 63.3335C66.2288 66.2879 70 71.4798 70 77.3335C70 83.1872 66.2288 88.3791 60.5016 91.3335C65.7237 88.1682 69.1285 83.0974 69.1285 77.3335C69.1285 71.5696 65.7237 66.4988 60.5016 63.3335ZM39.5862 91.3335C44.8083 88.1682 48.2132 83.0974 48.2132 77.3335C48.2132 71.5696 44.8083 66.4988 39.5862 63.3335C45.3134 66.2879 49.0846 71.4798 49.0846 77.3335C49.0846 83.1872 45.3134 88.3791 39.5862 91.3335ZM50.8276 77.3335C50.8276 71.4798 47.0564 66.2879 41.3292 63.3335C46.5513 66.4988 49.9561 71.5696 49.9561 77.3335C49.9561 83.0974 46.5513 88.1682 41.3292 91.3335C47.0564 88.3791 50.8276 83.1872 50.8276 77.3335ZM43.0721 91.3335C48.2942 88.1682 51.6991 83.0974 51.6991 77.3335C51.6991 71.5696 48.2942 66.4988 43.0721 63.3335C48.7993 66.2879 52.5705 71.4798 52.5705 77.3335C52.5705 83.1872 48.7993 88.3791 43.0721 91.3335ZM54.3135 77.3335C54.3135 71.4798 50.5423 66.2879 44.8151 63.3335C50.0372 66.4988 53.442 71.5696 53.442 77.3335C53.442 83.0974 50.0371 88.1682 44.8151 91.3335C50.5423 88.3791 54.3135 83.1872 54.3135 77.3335ZM46.558 91.3335C51.7801 88.1682 55.185 83.0974 55.185 77.3335C55.185 71.5696 51.7801 66.4988 46.558 63.3335C52.2852 66.2879 56.0564 71.4798 56.0564 77.3335C56.0564 83.1872 52.2852 88.3791 46.558 91.3335ZM57.7994 77.3335C57.7994 71.4798 54.0282 66.2879 48.301 63.3335C53.5231 66.4988 56.9279 71.5696 56.9279 77.3335C56.9279 83.0974 53.523 88.1682 48.301 91.3335C54.0282 88.3791 57.7994 83.1872 57.7994 77.3335ZM50.0439 91.3335C55.266 88.1682 58.6708 83.0974 58.6708 77.3335C58.6708 71.5696 55.266 66.4988 50.0439 63.3335C55.7711 66.2879 59.5423 71.4798 59.5423 77.3335C59.5423 83.1872 55.7711 88.3791 50.0439 91.3335ZM61.2853 77.3335C61.2853 71.4798 57.5141 66.2879 51.7869 63.3335C57.0089 66.4988 60.4138 71.5696 60.4138 77.3335C60.4138 83.0974 57.0089 88.1682 51.7868 91.3335C57.5141 88.3791 61.2853 83.1872 61.2853 77.3335ZM53.5298 91.3335C58.7519 88.1682 62.1567 83.0974 62.1567 77.3335C62.1567 71.5696 58.7519 66.4988 53.5298 63.3335C59.257 66.2879 63.0282 71.4798 63.0282 77.3335C63.0282 83.1872 59.257 88.3791 53.5298 91.3335ZM64.7712 77.3335C64.7712 71.4798 61 66.2879 55.2728 63.3335C60.4948 66.4988 63.8997 71.5696 63.8997 77.3335C63.8997 83.0974 60.4948 88.1682 55.2727 91.3335C61 88.3791 64.7712 83.1872 64.7712 77.3335ZM57.0157 91.3335C62.2378 88.1682 65.6426 83.0974 65.6426 77.3335C65.6426 71.5696 62.2378 66.4988 57.0157 63.3335C62.7429 66.2879 66.5141 71.4798 66.5141 77.3335C66.5141 83.1872 62.7429 88.3791 57.0157 91.3335ZM68.2571 77.3335C68.2571 71.4798 64.4859 66.2879 58.7587 63.3335C63.9807 66.4988 67.3856 71.5696 67.3856 77.3335C67.3856 83.0974 63.9807 88.1682 58.7586 91.3335C64.4859 88.3791 68.2571 83.1872 68.2571 77.3335Z" fill="url(#paint4_linear_500_7046)"/>
<path fill-rule="evenodd" clip-rule="evenodd" d="M39.4984 63.3335C33.7712 66.2879 30 71.4798 30 77.3335C30 83.1872 33.7712 88.3791 39.4984 91.3335C34.2763 88.1682 30.8715 83.0974 30.8715 77.3335C30.8715 71.5696 34.2763 66.4988 39.4984 63.3335ZM60.4138 91.3335C55.1917 88.1682 51.7868 83.0974 51.7868 77.3335C51.7868 71.5696 55.1917 66.4988 60.4138 63.3335C54.6866 66.2879 50.9154 71.4798 50.9154 77.3335C50.9154 83.1872 54.6866 88.3791 60.4138 91.3335ZM49.1724 77.3335C49.1724 71.4798 52.9436 66.2879 58.6708 63.3335C53.4487 66.4988 50.0439 71.5696 50.0439 77.3335C50.0439 83.0974 53.4487 88.1682 58.6708 91.3335C52.9436 88.3791 49.1724 83.1872 49.1724 77.3335ZM56.9279 91.3335C51.7058 88.1682 48.3009 83.0974 48.3009 77.3335C48.3009 71.5696 51.7058 66.4988 56.9279 63.3335C51.2007 66.2879 47.4295 71.4798 47.4295 77.3335C47.4295 83.1872 51.2007 88.3791 56.9279 91.3335ZM45.6865 77.3335C45.6865 71.4798 49.4577 66.2879 55.1849 63.3335C49.9628 66.4988 46.558 71.5696 46.558 77.3335C46.558 83.0974 49.9629 88.1682 55.1849 91.3335C49.4577 88.3791 45.6865 83.1872 45.6865 77.3335ZM53.442 91.3335C48.2199 88.1682 44.815 83.0974 44.815 77.3335C44.815 71.5696 48.2199 66.4988 53.442 63.3335C47.7148 66.2879 43.9436 71.4798 43.9436 77.3335C43.9436 83.1872 47.7148 88.3791 53.442 91.3335ZM42.2006 77.3335C42.2006 71.4798 45.9718 66.2879 51.699 63.3335C46.4769 66.4988 43.0721 71.5696 43.0721 77.3335C43.0721 83.0974 46.477 88.1682 51.699 91.3335C45.9718 88.3791 42.2006 83.1872 42.2006 77.3335ZM49.9561 91.3335C44.734 88.1682 41.3292 83.0974 41.3292 77.3335C41.3292 71.5696 44.734 66.4988 49.9561 63.3335C44.2289 66.2879 40.4577 71.4798 40.4577 77.3335C40.4577 83.1872 44.2289 88.3791 49.9561 91.3335ZM38.7147 77.3335C38.7147 71.4798 42.4859 66.2879 48.2131 63.3335C42.9911 66.4988 39.5862 71.5696 39.5862 77.3335C39.5862 83.0974 42.9911 88.1682 48.2132 91.3335C42.4859 88.3791 38.7147 83.1872 38.7147 77.3335ZM46.4702 91.3335C41.2481 88.1682 37.8433 83.0974 37.8433 77.3335C37.8433 71.5696 41.2481 66.4988 46.4702 63.3335C40.743 66.2879 36.9718 71.4798 36.9718 77.3335C36.9718 83.1872 40.743 88.3791 46.4702 91.3335ZM35.2288 77.3335C35.2288 71.4798 39 66.2879 44.7272 63.3335C39.5052 66.4988 36.1003 71.5696 36.1003 77.3335C36.1003 83.0974 39.5052 88.1682 44.7273 91.3335C39 88.3791 35.2288 83.1872 35.2288 77.3335ZM42.9843 91.3335C37.7622 88.1682 34.3574 83.0974 34.3574 77.3335C34.3574 71.5696 37.7622 66.4988 42.9843 63.3335C37.2571 66.2879 33.4859 71.4798 33.4859 77.3335C33.4859 83.1872 37.2571 88.3791 42.9843 91.3335ZM31.7429 77.3335C31.7429 71.4798 35.5141 66.2879 41.2413 63.3335C36.0193 66.4988 32.6144 71.5696 32.6144 77.3335C32.6144 83.0974 36.0193 88.1682 41.2414 91.3335C35.5141 88.3791 31.7429 83.1872 31.7429 77.3335Z" fill="url(#paint5_linear_500_7046)"/>
<defs>
<linearGradient id="paint0_linear_500_7046" x1="54.837" y1="8.85036" x2="55.6668" y2="34.3626" gradientUnits="userSpaceOnUse">
<stop offset="0.00987718" stop-color="white" stop-opacity="0"/>
<stop offset="0.494792" stop-color="#FFF9F9" stop-opacity="0.4"/>
<stop offset="1" stop-color="white" stop-opacity="0"/>
</linearGradient>
<linearGradient id="paint1_linear_500_7046" x1="51.1332" y1="4.56741" x2="51.1332" y2="39.4323" gradientUnits="userSpaceOnUse">
<stop/>
<stop offset="0.450759" stop-color="white"/>
<stop offset="1"/>
</linearGradient>
<linearGradient id="paint2_linear_500_7046" x1="54.837" y1="36.5174" x2="55.6668" y2="62.0296" gradientUnits="userSpaceOnUse">
<stop offset="0.00987718" stop-color="white" stop-opacity="0"/>
<stop offset="0.494792" stop-color="#FFF9F9" stop-opacity="0.4"/>
<stop offset="1" stop-color="white" stop-opacity="0"/>
</linearGradient>
<linearGradient id="paint3_linear_500_7046" x1="51.1332" y1="32.2344" x2="51.1332" y2="67.0993" gradientUnits="userSpaceOnUse">
<stop/>
<stop offset="0.450759" stop-color="white"/>
<stop offset="1"/>
</linearGradient>
<linearGradient id="paint4_linear_500_7046" x1="54.837" y1="64.1839" x2="55.6668" y2="89.6961" gradientUnits="userSpaceOnUse">
<stop offset="0.00987718" stop-color="white" stop-opacity="0"/>
<stop offset="0.494792" stop-color="#FFF9F9" stop-opacity="0.4"/>
<stop offset="1" stop-color="white" stop-opacity="0"/>
</linearGradient>
<linearGradient id="paint5_linear_500_7046" x1="51.1332" y1="59.9009" x2="51.1332" y2="94.7658" gradientUnits="userSpaceOnUse">
<stop/>
<stop offset="0.450759" stop-color="white"/>
<stop offset="1"/>
</linearGradient>
</defs>
</svg>
