<svg width="100" height="100" viewBox="0 0 100 100" fill="none" xmlns="http://www.w3.org/2000/svg">
<path d="M85.5 50C85.5 65.0782 69.7303 77.5 50 77.5C30.2697 77.5 14.5 65.0782 14.5 50C14.5 34.9218 30.2697 22.5 50 22.5C69.7303 22.5 85.5 34.9218 85.5 50Z" stroke="url(#paint0_linear_422_34)"/>
<circle cx="50" cy="50" r="27.5" stroke="url(#paint1_linear_422_34)"/>
<path d="M69.5 50C69.5 57.6398 67.2874 64.5354 63.7353 69.5084C60.1825 74.4823 55.3195 77.5 50 77.5C44.6805 77.5 39.8175 74.4823 36.2647 69.5084C32.7126 64.5354 30.5 57.6398 30.5 50C30.5 42.3602 32.7126 35.4646 36.2647 30.4916C39.8175 25.5177 44.6805 22.5 50 22.5C55.3195 22.5 60.1825 25.5177 63.7353 30.4916C67.2874 35.4646 69.5 42.3602 69.5 50Z" stroke="url(#paint2_linear_422_34)"/>
<path d="M61.5 50C61.5 57.6809 60.1648 64.6109 58.0257 69.602C56.9558 72.0985 55.6947 74.0868 54.3197 75.4437C52.9469 76.7986 51.4878 77.5 50 77.5C48.5122 77.5 47.0531 76.7986 45.6803 75.4437C44.3053 74.0868 43.0442 72.0985 41.9743 69.602C39.8352 64.6109 38.5 57.6809 38.5 50C38.5 42.3191 39.8352 35.3891 41.9743 30.398C43.0442 27.9015 44.3053 25.9132 45.6803 24.5563C47.0531 23.2014 48.5122 22.5 50 22.5C51.4878 22.5 52.9469 23.2014 54.3197 24.5563C55.6947 25.9132 56.9558 27.9015 58.0257 30.398C60.1648 35.3891 61.5 42.3191 61.5 50Z" stroke="url(#paint3_linear_422_34)"/>
<path d="M50 28L50.877 31.8827L54.2426 29.7574L52.1173 33.123L56 34L52.1173 34.877L54.2426 38.2426L50.877 36.1173L50 40L49.123 36.1173L45.7574 38.2426L47.8827 34.877L44 34L47.8827 33.123L45.7574 29.7574L49.123 31.8827L50 28Z" fill="url(#paint4_radial_422_34)"/>
<path d="M50 44L50.877 47.8827L54.2426 45.7574L52.1173 49.123L56 50L52.1173 50.877L54.2426 54.2426L50.877 52.1173L50 56L49.123 52.1173L45.7574 54.2426L47.8827 50.877L44 50L47.8827 49.123L45.7574 45.7574L49.123 47.8827L50 44Z" fill="url(#paint5_radial_422_34)"/>
<path d="M50 60L50.877 63.8827L54.2426 61.7574L52.1173 65.123L56 66L52.1173 66.877L54.2426 70.2426L50.877 68.1173L50 72L49.123 68.1173L45.7574 70.2426L47.8827 66.877L44 66L47.8827 65.123L45.7574 61.7574L49.123 63.8827L50 60Z" fill="url(#paint6_radial_422_34)"/>
<defs>
<linearGradient id="paint0_linear_422_34" x1="50" y1="22" x2="50" y2="78" gradientUnits="userSpaceOnUse">
<stop stop-color="white"/>
<stop offset="1" stop-color="white" stop-opacity="0"/>
</linearGradient>
<linearGradient id="paint1_linear_422_34" x1="50" y1="22" x2="50" y2="78" gradientUnits="userSpaceOnUse">
<stop stop-color="white"/>
<stop offset="1" stop-color="white" stop-opacity="0"/>
</linearGradient>
<linearGradient id="paint2_linear_422_34" x1="50" y1="22" x2="50" y2="78" gradientUnits="userSpaceOnUse">
<stop stop-color="white"/>
<stop offset="1" stop-color="white" stop-opacity="0"/>
</linearGradient>
<linearGradient id="paint3_linear_422_34" x1="50" y1="22" x2="50" y2="78" gradientUnits="userSpaceOnUse">
<stop stop-color="white"/>
<stop offset="1" stop-color="white" stop-opacity="0"/>
</linearGradient>
<radialGradient id="paint4_radial_422_34" cx="0" cy="0" r="1" gradientUnits="userSpaceOnUse" gradientTransform="translate(50 34) rotate(90) scale(6)">
<stop stop-color="white"/>
<stop offset="1" stop-color="#C4C4C4" stop-opacity="0"/>
</radialGradient>
<radialGradient id="paint5_radial_422_34" cx="0" cy="0" r="1" gradientUnits="userSpaceOnUse" gradientTransform="translate(50 50) rotate(90) scale(6)">
<stop stop-color="white"/>
<stop offset="1" stop-color="#C4C4C4" stop-opacity="0"/>
</radialGradient>
<radialGradient id="paint6_radial_422_34" cx="0" cy="0" r="1" gradientUnits="userSpaceOnUse" gradientTransform="translate(50 66) rotate(90) scale(6)">
<stop stop-color="white"/>
<stop offset="1" stop-color="#C4C4C4" stop-opacity="0"/>
</radialGradient>
</defs>
</svg>
