<svg width="100" height="100" viewBox="0 0 100 100" fill="none" xmlns="http://www.w3.org/2000/svg">
<path fill-rule="evenodd" clip-rule="evenodd" d="M45 25H45.4902C45.4964 24.9998 45.5027 24.9998 45.5089 25H55L79 68L75 76H25.5L21 68L45 25ZM64.1431 59.5L45.3989 26.3372L42.1545 32.15L46.6223 40.2207L46.6694 40.2476L46.653 40.2763L57.2947 59.5H64.1431ZM65.4309 59.7461C65.4748 59.8205 65.5 59.9073 65.5 60C65.5 60.2761 65.2761 60.5 65 60.5H43.5285L39.583 67.5H77.5757L54.4129 26H46.357L65.4309 59.7461ZM44.0921 59.5H56.1517L50.1762 48.7056L44.0921 59.5ZM35.3558 75L39.0194 68.5H77.632L74.382 75H35.3558ZM49.6114 47.6852C49.5941 47.7066 49.5784 47.7297 49.5644 47.7545L34.2079 75H26.8605L46.0732 41.2936L49.6114 47.6852ZM45.5061 40.2691L25.8984 74.6685L22.1463 67.9981L41.5807 33.1781L45.5061 40.2691Z" fill="url(#paint0_radial_500_6934)"/>
<defs>
<radialGradient id="paint0_radial_500_6934" cx="0" cy="0" r="1" gradientUnits="userSpaceOnUse" gradientTransform="translate(50 50.9999) rotate(66.7054) scale(39.195 44.5747)">
<stop stop-color="white"/>
<stop offset="1" stop-color="white" stop-opacity="0"/>
</radialGradient>
</defs>
</svg>
