<svg width="100" height="100" viewBox="0 0 100 100" fill="none" xmlns="http://www.w3.org/2000/svg">
<path d="M50 50C50 41.1634 44.6274 34 38 34C44.6274 34 50 26.8366 50 18C50 26.8366 55.3726 34 62 34C55.3726 34 50 41.1634 50 50Z" fill="url(#paint0_linear_500_6624)"/>
<path d="M50 50C50 58.8366 44.6274 66 38 66C44.6274 66 50 73.1634 50 82C50 73.1634 55.3726 66 62 66C55.3726 66 50 58.8366 50 50Z" fill="url(#paint1_linear_500_6624)"/>
<path d="M50 50.0004C41.1634 50.0004 34 55.3729 34 62.0004C34 55.3729 26.8366 50.0004 18 50.0004C26.8366 50.0004 34 44.6278 34 38.0004C34 44.6278 41.1634 50.0004 50 50.0004Z" fill="url(#paint2_linear_500_6624)"/>
<path d="M50 50.0004C58.8366 50.0004 66 55.3729 66 62.0004C66 55.3729 73.1634 50.0004 82 50.0004C73.1634 50.0004 66 44.6278 66 38.0004C66 44.6278 58.8366 50.0004 50 50.0004Z" fill="url(#paint3_linear_500_6624)"/>
<defs>
<linearGradient id="paint0_linear_500_6624" x1="50" y1="20.4999" x2="50" y2="53.6249" gradientUnits="userSpaceOnUse">
<stop stop-color="white"/>
<stop offset="1" stop-opacity="0.16"/>
</linearGradient>
<linearGradient id="paint1_linear_500_6624" x1="50" y1="79.5001" x2="50" y2="46.3751" gradientUnits="userSpaceOnUse">
<stop stop-color="white"/>
<stop offset="1" stop-opacity="0.16"/>
</linearGradient>
<linearGradient id="paint2_linear_500_6624" x1="20.4999" y1="50.0003" x2="53.6249" y2="50.0003" gradientUnits="userSpaceOnUse">
<stop stop-color="white"/>
<stop offset="1" stop-opacity="0.16"/>
</linearGradient>
<linearGradient id="paint3_linear_500_6624" x1="79.5001" y1="50.0003" x2="46.3751" y2="50.0003" gradientUnits="userSpaceOnUse">
<stop stop-color="white"/>
<stop offset="1" stop-opacity="0.16"/>
</linearGradient>
</defs>
</svg>
