<svg width="100" height="100" viewBox="0 0 100 100" fill="none" xmlns="http://www.w3.org/2000/svg">
<circle cx="58.7066" cy="44.4368" r="27.8" transform="rotate(-10 58.7066 44.4368)" stroke="url(#paint0_linear_500_6308)" stroke-width="0.4"/>
<circle cx="55.1147" cy="47.1011" r="25.8" transform="rotate(-10 55.1147 47.1011)" stroke="url(#paint1_linear_500_6308)" stroke-width="0.4"/>
<circle cx="51.5227" cy="49.7654" r="23.8" transform="rotate(-10 51.5227 49.7654)" stroke="url(#paint2_linear_500_6308)" stroke-width="0.4"/>
<circle cx="47.9308" cy="52.4294" r="21.8" transform="rotate(-10 47.9308 52.4294)" stroke="url(#paint3_linear_500_6308)" stroke-width="0.4"/>
<circle cx="44.3389" cy="55.0937" r="19.8" transform="rotate(-10 44.3389 55.0937)" stroke="url(#paint4_linear_500_6308)" stroke-width="0.4"/>
<circle cx="40.747" cy="57.758" r="17.8" transform="rotate(-10 40.747 57.758)" stroke="url(#paint5_linear_500_6308)" stroke-width="0.4"/>
<circle cx="37.155" cy="60.4221" r="15.8" transform="rotate(-10 37.155 60.4221)" stroke="url(#paint6_linear_500_6308)" stroke-width="0.4"/>
<circle cx="33.5631" cy="63.0864" r="13.8" transform="rotate(-10 33.5631 63.0864)" stroke="url(#paint7_linear_500_6308)" stroke-width="0.4"/>
<circle cx="28.9864" cy="65.9243" r="11.8" transform="rotate(-10 28.9864 65.9243)" stroke="url(#paint8_linear_500_6308)" stroke-width="0.4"/>
<circle cx="25.3944" cy="68.5883" r="9.8" transform="rotate(-10 25.3944 68.5883)" stroke="url(#paint9_linear_500_6308)" stroke-width="0.4"/>
<circle cx="20.8176" cy="71.4262" r="7.8" transform="rotate(-10 20.8176 71.4262)" stroke="url(#paint10_linear_500_6308)" stroke-width="0.4"/>
<circle cx="17.2257" cy="74.0905" r="5.8" transform="rotate(-10 17.2257 74.0905)" stroke="url(#paint11_linear_500_6308)" stroke-width="0.4"/>
<circle cx="13.6338" cy="76.7546" r="3.8" transform="rotate(-10 13.6338 76.7546)" stroke="url(#paint12_linear_500_6308)" stroke-width="0.4"/>
<defs>
<linearGradient id="paint0_linear_500_6308" x1="58.7066" y1="16.4368" x2="58.7066" y2="72.4368" gradientUnits="userSpaceOnUse">
<stop stop-color="white" stop-opacity="0.18"/>
<stop offset="1" stop-color="white"/>
</linearGradient>
<linearGradient id="paint1_linear_500_6308" x1="55.1147" y1="21.1011" x2="55.1147" y2="73.1011" gradientUnits="userSpaceOnUse">
<stop stop-color="white" stop-opacity="0.18"/>
<stop offset="1" stop-color="white"/>
</linearGradient>
<linearGradient id="paint2_linear_500_6308" x1="51.5227" y1="25.7654" x2="51.5227" y2="73.7654" gradientUnits="userSpaceOnUse">
<stop stop-color="white" stop-opacity="0.18"/>
<stop offset="1" stop-color="white"/>
</linearGradient>
<linearGradient id="paint3_linear_500_6308" x1="47.9308" y1="30.4294" x2="47.9308" y2="74.4294" gradientUnits="userSpaceOnUse">
<stop stop-color="white" stop-opacity="0.18"/>
<stop offset="1" stop-color="white"/>
</linearGradient>
<linearGradient id="paint4_linear_500_6308" x1="44.3389" y1="35.0937" x2="44.3389" y2="75.0937" gradientUnits="userSpaceOnUse">
<stop stop-color="white" stop-opacity="0.18"/>
<stop offset="1" stop-color="white"/>
</linearGradient>
<linearGradient id="paint5_linear_500_6308" x1="40.747" y1="39.758" x2="40.747" y2="75.758" gradientUnits="userSpaceOnUse">
<stop stop-color="white" stop-opacity="0.18"/>
<stop offset="1" stop-color="white"/>
</linearGradient>
<linearGradient id="paint6_linear_500_6308" x1="37.155" y1="44.4221" x2="37.155" y2="76.4221" gradientUnits="userSpaceOnUse">
<stop stop-color="white" stop-opacity="0.18"/>
<stop offset="1" stop-color="white"/>
</linearGradient>
<linearGradient id="paint7_linear_500_6308" x1="33.5631" y1="49.0864" x2="33.5631" y2="77.0864" gradientUnits="userSpaceOnUse">
<stop stop-color="white" stop-opacity="0.18"/>
<stop offset="1" stop-color="white"/>
</linearGradient>
<linearGradient id="paint8_linear_500_6308" x1="28.9864" y1="53.9243" x2="28.9864" y2="77.9243" gradientUnits="userSpaceOnUse">
<stop stop-color="white" stop-opacity="0.18"/>
<stop offset="1" stop-color="white"/>
</linearGradient>
<linearGradient id="paint9_linear_500_6308" x1="25.3944" y1="58.5883" x2="25.3944" y2="78.5883" gradientUnits="userSpaceOnUse">
<stop stop-color="white" stop-opacity="0.18"/>
<stop offset="1" stop-color="white"/>
</linearGradient>
<linearGradient id="paint10_linear_500_6308" x1="20.8176" y1="63.4262" x2="20.8176" y2="79.4262" gradientUnits="userSpaceOnUse">
<stop stop-color="white" stop-opacity="0.18"/>
<stop offset="1" stop-color="white"/>
</linearGradient>
<linearGradient id="paint11_linear_500_6308" x1="17.2257" y1="68.0905" x2="17.2257" y2="80.0905" gradientUnits="userSpaceOnUse">
<stop stop-color="white" stop-opacity="0.18"/>
<stop offset="1" stop-color="white"/>
</linearGradient>
<linearGradient id="paint12_linear_500_6308" x1="13.6338" y1="72.7546" x2="13.6338" y2="80.7546" gradientUnits="userSpaceOnUse">
<stop stop-color="white" stop-opacity="0.18"/>
<stop offset="1" stop-color="white"/>
</linearGradient>
</defs>
</svg>
