<svg width="100" height="100" viewBox="0 0 100 100" fill="none" xmlns="http://www.w3.org/2000/svg">
<path d="M86 20L68 10V30L86 20Z" fill="url(#paint0_linear_500_6987)"/>
<path d="M68 20L50 10V30L68 20Z" fill="url(#paint1_linear_500_6987)"/>
<path d="M50 20L32 10V30L50 20Z" fill="url(#paint2_linear_500_6987)"/>
<path d="M32 20L14 10L14 30L32 20Z" fill="url(#paint3_linear_500_6987)"/>
<path d="M14 40L32 30L32 50L14 40Z" fill="url(#paint4_linear_500_6987)"/>
<path d="M32 40L50 30V50L32 40Z" fill="url(#paint5_linear_500_6987)"/>
<path d="M50 40L68 30V50L50 40Z" fill="url(#paint6_linear_500_6987)"/>
<path d="M68 40L86 30V50L68 40Z" fill="url(#paint7_linear_500_6987)"/>
<path d="M86 60L68 50V70L86 60Z" fill="url(#paint8_linear_500_6987)"/>
<path d="M68 60L50 50V70L68 60Z" fill="url(#paint9_linear_500_6987)"/>
<path d="M50 60L32 50V70L50 60Z" fill="url(#paint10_linear_500_6987)"/>
<path d="M32 60L14 50L14 70L32 60Z" fill="url(#paint11_linear_500_6987)"/>
<path d="M14 80L32 70L32 90L14 80Z" fill="url(#paint12_linear_500_6987)"/>
<path d="M32 80L50 70V90L32 80Z" fill="url(#paint13_linear_500_6987)"/>
<path d="M50 80L68 70V90L50 80Z" fill="url(#paint14_linear_500_6987)"/>
<path d="M68 80L86 70V90L68 80Z" fill="url(#paint15_linear_500_6987)"/>
<defs>
<linearGradient id="paint0_linear_500_6987" x1="86" y1="20" x2="68" y2="20" gradientUnits="userSpaceOnUse">
<stop stop-color="white"/>
<stop offset="1" stop-color="white" stop-opacity="0"/>
</linearGradient>
<linearGradient id="paint1_linear_500_6987" x1="68" y1="20" x2="50" y2="20" gradientUnits="userSpaceOnUse">
<stop stop-color="white"/>
<stop offset="1" stop-color="white" stop-opacity="0"/>
</linearGradient>
<linearGradient id="paint2_linear_500_6987" x1="50" y1="20" x2="32" y2="20" gradientUnits="userSpaceOnUse">
<stop stop-color="white"/>
<stop offset="1" stop-color="white" stop-opacity="0"/>
</linearGradient>
<linearGradient id="paint3_linear_500_6987" x1="32" y1="20" x2="14" y2="20" gradientUnits="userSpaceOnUse">
<stop stop-color="white"/>
<stop offset="1" stop-color="white" stop-opacity="0"/>
</linearGradient>
<linearGradient id="paint4_linear_500_6987" x1="14" y1="40" x2="32" y2="40" gradientUnits="userSpaceOnUse">
<stop stop-color="white"/>
<stop offset="1" stop-color="white" stop-opacity="0"/>
</linearGradient>
<linearGradient id="paint5_linear_500_6987" x1="32" y1="40" x2="50" y2="40" gradientUnits="userSpaceOnUse">
<stop stop-color="white"/>
<stop offset="1" stop-color="white" stop-opacity="0"/>
</linearGradient>
<linearGradient id="paint6_linear_500_6987" x1="50" y1="40" x2="68" y2="40" gradientUnits="userSpaceOnUse">
<stop stop-color="white"/>
<stop offset="1" stop-color="white" stop-opacity="0"/>
</linearGradient>
<linearGradient id="paint7_linear_500_6987" x1="68" y1="40" x2="86" y2="40" gradientUnits="userSpaceOnUse">
<stop stop-color="white"/>
<stop offset="1" stop-color="white" stop-opacity="0"/>
</linearGradient>
<linearGradient id="paint8_linear_500_6987" x1="86" y1="60" x2="68" y2="60" gradientUnits="userSpaceOnUse">
<stop stop-color="white"/>
<stop offset="1" stop-color="white" stop-opacity="0"/>
</linearGradient>
<linearGradient id="paint9_linear_500_6987" x1="68" y1="60" x2="50" y2="60" gradientUnits="userSpaceOnUse">
<stop stop-color="white"/>
<stop offset="1" stop-color="white" stop-opacity="0"/>
</linearGradient>
<linearGradient id="paint10_linear_500_6987" x1="50" y1="60" x2="32" y2="60" gradientUnits="userSpaceOnUse">
<stop stop-color="white"/>
<stop offset="1" stop-color="white" stop-opacity="0"/>
</linearGradient>
<linearGradient id="paint11_linear_500_6987" x1="32" y1="60" x2="14" y2="60" gradientUnits="userSpaceOnUse">
<stop stop-color="white"/>
<stop offset="1" stop-color="white" stop-opacity="0"/>
</linearGradient>
<linearGradient id="paint12_linear_500_6987" x1="14" y1="80" x2="32" y2="80" gradientUnits="userSpaceOnUse">
<stop stop-color="white"/>
<stop offset="1" stop-color="white" stop-opacity="0"/>
</linearGradient>
<linearGradient id="paint13_linear_500_6987" x1="32" y1="80" x2="50" y2="80" gradientUnits="userSpaceOnUse">
<stop stop-color="white"/>
<stop offset="1" stop-color="white" stop-opacity="0"/>
</linearGradient>
<linearGradient id="paint14_linear_500_6987" x1="50" y1="80" x2="68" y2="80" gradientUnits="userSpaceOnUse">
<stop stop-color="white"/>
<stop offset="1" stop-color="white" stop-opacity="0"/>
</linearGradient>
<linearGradient id="paint15_linear_500_6987" x1="68" y1="80" x2="86" y2="80" gradientUnits="userSpaceOnUse">
<stop stop-color="white"/>
<stop offset="1" stop-color="white" stop-opacity="0"/>
</linearGradient>
</defs>
</svg>
