<svg width="100" height="100" viewBox="0 0 100 100" fill="none" xmlns="http://www.w3.org/2000/svg">
<path fill-rule="evenodd" clip-rule="evenodd" d="M82 50C82 32.3269 67.6731 18 50 18C32.3269 18 18 32.3269 18 50C18 67.6731 32.3269 82 50 82C67.6731 82 82 67.6731 82 50ZM46 50C46 64.0433 47.1308 75.9737 48.7036 80.2821C48.4067 79.9741 48.0856 79.5495 47.7469 78.9765C46.86 77.4759 46.0266 75.238 45.3133 72.3849C43.8906 66.6941 43 58.7794 43 50C43 41.2206 43.8906 33.3059 45.3133 27.6151C46.0266 24.762 46.86 22.5241 47.7469 21.0235C48.0856 20.4505 48.4066 20.0259 48.7036 19.7179C47.1308 24.0263 46 35.9567 46 50ZM52.2531 78.9765C51.9144 79.5496 51.5933 79.9741 51.2963 80.2821C52.8692 75.9737 54 64.0433 54 50C54 35.9567 52.8692 24.0263 51.2963 19.7179C51.5933 20.0259 51.9144 20.4504 52.2531 21.0235C53.14 22.5241 53.9734 24.762 54.6867 27.6151C56.1094 33.3059 57 41.2206 57 50C57 58.7794 56.1094 66.6941 54.6867 72.3849C53.9734 75.238 53.14 77.4759 52.2531 78.9765ZM47.0786 79.7993C46.7454 79.5237 46.4113 79.1986 46.0773 78.8219C44.7517 77.3267 43.5122 75.1061 42.451 72.2763C40.3314 66.624 39 58.7484 39 50C39 41.2516 40.3314 33.376 42.451 27.7237C43.5122 24.8939 44.7517 22.6733 46.0773 21.1781C46.4113 20.8014 46.7454 20.4763 47.0786 20.2007C44.1052 24.8683 42 36.4507 42 50C42 63.5493 44.1052 75.1317 47.0786 79.7993ZM52.9214 79.7993C53.2546 79.5237 53.5887 79.1986 53.9227 78.8219C55.2483 77.3267 56.4878 75.1061 57.549 72.2763C59.6686 66.624 61 58.7484 61 50C61 41.2516 59.6686 33.376 57.549 27.7237C56.4878 24.8939 55.2483 22.6733 53.9227 21.1781C53.5887 20.8014 53.2546 20.4763 52.9214 20.2007C55.8948 24.8683 58 36.4507 58 50C58 63.5493 55.8948 75.1317 52.9214 79.7993ZM39.5807 72.1802C41.2049 75.4286 43.1228 77.8446 45.184 79.3187C40.9544 74.371 38 63.1055 38 50C38 36.8945 40.9544 25.629 45.184 20.6813C43.1228 22.1554 41.2049 24.5714 39.5807 27.8198C36.7683 33.4445 35 41.285 35 50C35 58.715 36.7683 66.5555 39.5807 72.1802ZM60.4193 72.1802C58.7951 75.4286 56.8772 77.8446 54.816 79.3187C59.0456 74.371 62 63.1055 62 50C62 36.8945 59.0456 25.629 54.816 20.6813C56.8772 22.1554 58.7951 24.5714 60.4193 27.8198C63.2317 33.4445 65 41.285 65 50C65 58.715 63.2317 66.5555 60.4193 72.1802ZM43.0718 78.8526C40.7035 77.3276 38.5396 75.0314 36.7059 72.0974C33.2007 66.4891 31 58.6791 31 50C31 41.3209 33.2007 33.5109 36.7059 27.9026C38.5396 24.9686 40.7035 22.6724 43.0718 21.1474C37.7045 26.312 34 37.2908 34 50C34 62.7092 37.7046 73.688 43.0718 78.8526ZM56.9282 78.8526C59.2965 77.3276 61.4604 75.0314 63.2941 72.0974C66.7993 66.4891 69 58.6791 69 50C69 41.3209 66.7993 33.5109 63.2941 27.9026C61.4604 24.9686 59.2965 22.6724 56.9282 21.1474C62.2954 26.312 66 37.2908 66 50C66 62.7092 62.2954 73.688 56.9282 78.8526ZM33.8294 72.0274C35.8315 74.6968 38.1802 76.8598 40.7661 78.3927C34.3681 73.055 30 62.3437 30 50C30 37.6563 34.3681 26.945 40.7661 21.6073C38.1802 23.1402 35.8315 25.3031 33.8294 27.9726C29.6281 33.5743 27 41.3589 27 50C27 58.6411 29.6281 66.4257 33.8294 72.0274ZM66.1706 72.0274C64.1685 74.6969 61.8198 76.8598 59.2339 78.3927C65.6318 73.0551 70 62.3437 70 50C70 37.6563 65.6318 26.9449 59.2339 21.6073C61.8198 23.1402 64.1685 25.3031 66.1706 27.9726C70.3719 33.5743 73 41.3589 73 50C73 58.6411 70.3719 66.4257 66.1706 72.0274ZM38.2616 77.9178C29.2676 72.9219 23 62.3595 23 50C23 37.6405 29.2676 27.0781 38.2615 22.0822C30.9439 27.5638 26 38.0121 26 50C26 61.9879 30.944 72.4362 38.2616 77.9178ZM61.7384 77.9178C70.7323 72.9219 77 62.3595 77 50C77 37.6405 70.7323 27.0781 61.7384 22.0822C69.056 27.5638 74 38.0121 74 50C74 61.9879 69.056 72.4362 61.7384 77.9178ZM19 50C19 61.9483 25.7596 72.3177 35.6633 77.4928C27.4801 71.9072 22 61.685 22 50C22 38.315 27.4801 28.0928 35.6633 22.5072C25.7596 27.6823 19 38.0517 19 50ZM81 50C81 61.9483 74.2404 72.3177 64.3367 77.4928C72.5199 71.9072 78 61.685 78 50C78 38.315 72.5199 28.0928 64.3367 22.5072C74.2404 27.6823 81 38.0517 81 50ZM51.8362 72.5034C52.5534 66.7651 53 58.8085 53 50C53 41.1915 52.5534 33.2349 51.8362 27.4966C51.4766 24.6205 51.0537 22.34 50.598 20.7981C50.5651 20.687 50.5325 20.5809 50.5 20.4797V79.5203C50.5325 79.4191 50.5651 79.313 50.598 79.2019C51.0537 77.66 51.4766 75.3795 51.8362 72.5034ZM49.5 20.4797V79.5203C49.4675 79.4191 49.4349 79.313 49.402 79.2019C48.9463 77.66 48.5234 75.3795 48.1639 72.5034C47.4466 66.7651 47 58.8085 47 50C47 41.1915 47.4466 33.2349 48.1639 27.4966C48.5234 24.6205 48.9463 22.34 49.402 20.7981C49.4349 20.687 49.4675 20.5809 49.5 20.4797Z" fill="url(#paint0_linear_500_6814)"/>
<defs>
<linearGradient id="paint0_linear_500_6814" x1="36.5" y1="21" x2="60.5" y2="84" gradientUnits="userSpaceOnUse">
<stop stop-color="white"/>
<stop offset="1" stop-color="white" stop-opacity="0"/>
</linearGradient>
</defs>
</svg>
