<svg width="100" height="100" viewBox="0 0 100 100" fill="none" xmlns="http://www.w3.org/2000/svg">
<path fill-rule="evenodd" clip-rule="evenodd" d="M33 41L24 50L33 59L42 50L33 41ZM33 57.5858L25.4142 50L33 42.4142L40.5858 50L33 57.5858Z" fill="url(#paint0_radial_501_7683)"/>
<path fill-rule="evenodd" clip-rule="evenodd" d="M67 41L76 50L67 59L58 50L67 41ZM59.4142 50L67 57.5858L74.5858 50L67 42.4142L59.4142 50Z" fill="url(#paint1_radial_501_7683)"/>
<path fill-rule="evenodd" clip-rule="evenodd" d="M50 12L87 49.5L50 87L13 49.5L50 12ZM41.1254 22.4183L50 13.4238L58.8746 22.4183L50 31.2929L41.1254 22.4183ZM40.4231 23.1302L14.4048 49.5L40.9197 76.3732L49.6464 67.6464L41 59L50 50L59 59L50.3536 67.6464L59.0803 76.3732L85.5952 49.5L59.5769 23.1302L50.3536 32.3536L59 41L50 50L41 41L49.6464 32.3536L40.4231 23.1302ZM58.3779 77.085L50 68.7071L41.6221 77.085L50 85.5762L58.3779 77.085ZM42.4142 41L50 48.5858L57.5858 41L50 33.4142L42.4142 41ZM50 66.5858L42.4142 59L50 51.4142L57.5858 59L50 66.5858Z" fill="url(#paint2_radial_501_7683)"/>
<defs>
<radialGradient id="paint0_radial_501_7683" cx="0" cy="0" r="1" gradientUnits="userSpaceOnUse" gradientTransform="translate(50 50) rotate(90) scale(42 41.44)">
<stop stop-color="white"/>
<stop offset="1" stop-color="white" stop-opacity="0"/>
</radialGradient>
<radialGradient id="paint1_radial_501_7683" cx="0" cy="0" r="1" gradientUnits="userSpaceOnUse" gradientTransform="translate(50 50) rotate(90) scale(42 41.44)">
<stop stop-color="white"/>
<stop offset="1" stop-color="white" stop-opacity="0"/>
</radialGradient>
<radialGradient id="paint2_radial_501_7683" cx="0" cy="0" r="1" gradientUnits="userSpaceOnUse" gradientTransform="translate(50 50) rotate(90) scale(42 41.44)">
<stop stop-color="white"/>
<stop offset="1" stop-color="white" stop-opacity="0"/>
</radialGradient>
</defs>
</svg>
