<svg width="100" height="100" viewBox="0 0 100 100" fill="none" xmlns="http://www.w3.org/2000/svg">
<path fill-rule="evenodd" clip-rule="evenodd" d="M50.0002 72.2011C55.2747 75.8506 61.7462 78 68.7397 78C73.4679 78 77.9576 77.0175 82 75.2532C80.9621 63.9206 73.564 54.3442 63.2604 49.8472C63.3432 48.9423 63.3855 48.0262 63.3855 47.1006C63.3855 36.7619 58.1067 27.6092 50 22C41.8934 27.6092 36.6145 36.7619 36.6145 47.1006C36.6145 48.0262 36.6568 48.9423 36.7397 49.8472C26.4361 54.3442 19.0379 63.9206 18 75.2532C22.0424 77.0175 26.5321 78 31.2603 78C38.2538 78 44.7257 75.8506 50.0002 72.2011ZM38.1721 50.6521C38.1721 50.6521 38.1721 50.6521 38.1721 50.6521C39.1794 58.7608 43.5943 65.8631 50 70.5966C55.2048 66.7504 59.0954 61.3404 60.9115 55.0973C61.1722 54.2009 61.3902 53.2874 61.5632 52.3589C61.6682 51.7953 61.7566 51.2263 61.8279 50.6521C58.5358 49.3333 54.9545 48.5484 51.2011 48.4099C50.8027 48.3952 50.4022 48.3878 50 48.3878C45.8092 48.3878 41.8137 49.1933 38.1721 50.6521ZM38.0377 49.3136C41.735 47.8859 45.7721 47.1003 50 47.1003C54.2279 47.1003 58.2651 47.8859 61.9623 49.3136C62.0184 48.583 62.047 47.845 62.047 47.1006C62.047 37.5299 57.3277 29.0194 50 23.6042C42.6724 29.0194 37.9531 37.5299 37.9531 47.1006C37.9531 47.845 37.9816 48.583 38.0377 49.3136ZM51.1226 71.3881C57.538 66.5276 61.9807 59.3661 63.1057 51.1973C72.4948 55.4521 79.2867 64.1366 80.5676 74.4486C76.9276 75.9068 72.933 76.7125 68.7397 76.7125C62.188 76.7125 56.1141 74.7439 51.1226 71.3881ZM48.8774 71.3881C43.8859 74.7439 37.812 76.7125 31.2603 76.7125C27.067 76.7125 23.0724 75.9068 19.4324 74.4486C20.7133 64.1366 27.5052 55.452 36.8944 51.1972C38.0194 59.366 42.4621 66.5276 48.8774 71.3881Z" fill="url(#paint0_radial_500_6906)"/>
<defs>
<radialGradient id="paint0_radial_500_6906" cx="0" cy="0" r="1" gradientUnits="userSpaceOnUse" gradientTransform="translate(50 56.1127) rotate(51.4684) scale(38.6773 42.9189)">
<stop stop-color="white"/>
<stop offset="1" stop-color="white" stop-opacity="0"/>
</radialGradient>
</defs>
</svg>
