<svg width="100" height="100" viewBox="0 0 100 100" fill="none" xmlns="http://www.w3.org/2000/svg">
<path d="M49.8233 18.2359C47.5831 15.9958 43.6869 15.7407 39.1085 17.2669C34.546 18.7877 29.3858 22.0564 24.721 26.7212C20.0562 31.386 16.7875 36.5462 15.2666 41.1087C13.7405 45.6872 13.9956 49.5834 16.2357 51.8235C18.4758 54.0636 22.372 54.3187 26.9504 52.7925C31.513 51.2717 36.6732 48.003 41.338 43.3382C46.0028 38.6734 49.2714 33.5132 50.7923 28.9506C52.3184 24.3722 52.0634 20.476 49.8233 18.2359Z" stroke="url(#paint0_linear_500_6731)" stroke-width="0.5"/>
<path d="M52.6516 21.0642C50.4115 18.824 46.5153 18.569 41.9369 20.0951C37.3743 21.616 32.2141 24.8846 27.5493 29.5494C22.8845 34.2142 19.6159 39.3744 18.095 43.937C16.5689 48.5154 16.8239 52.4116 19.0641 54.6517C21.3042 56.8918 25.2004 57.1469 29.7788 55.6208C34.3413 54.0999 39.5015 50.8312 44.1663 46.1664C48.8311 41.5016 52.0998 36.3414 53.6207 31.7789C55.1468 27.2005 54.8917 23.3043 52.6516 21.0642Z" fill="url(#paint1_linear_500_6731)" stroke="url(#paint2_linear_500_6731)" stroke-width="0.5"/>
<path d="M55.4801 23.8928C53.2399 21.6527 49.3437 21.3976 44.7653 22.9237C40.2028 24.4446 35.0426 27.7132 30.3778 32.378C25.713 37.0428 22.4443 42.2031 20.9234 46.7656C19.3973 51.344 19.6524 55.2402 21.8925 57.4803C24.1326 59.7205 28.0288 59.9755 32.6072 58.4494C37.1698 56.9285 42.33 53.6599 46.9948 48.9951C51.6596 44.3303 54.9282 39.17 56.4491 34.6075C57.9752 30.0291 57.7202 26.1329 55.4801 23.8928Z" fill="url(#paint3_linear_500_6731)" stroke="url(#paint4_linear_500_6731)" stroke-width="0.5"/>
<path d="M58.3085 26.721C56.0684 24.4808 52.1722 24.2258 47.5938 25.7519C43.0312 27.2728 37.871 30.5414 33.2062 35.2062C28.5414 39.871 25.2727 45.0312 23.7519 49.5938C22.2257 54.1722 22.4808 58.0684 24.7209 60.3085C26.961 62.5486 30.8572 62.8037 35.4356 61.2776C39.9982 59.7567 45.1584 56.488 49.8232 51.8232C54.488 47.1584 57.7567 41.9982 59.2775 37.4357C60.8037 32.8573 60.5486 28.9611 58.3085 26.721Z" fill="url(#paint5_linear_500_6731)" stroke="url(#paint6_linear_500_6731)" stroke-width="0.5"/>
<path d="M61.1369 29.5496C58.8968 27.3094 55.0006 27.0544 50.4222 28.5805C45.8596 30.1014 40.6994 33.37 36.0346 38.0348C31.3698 42.6996 28.1012 47.8599 26.5803 52.4224C25.0542 57.0008 25.3092 60.897 27.5493 63.1371C29.7895 65.3773 33.6857 65.6323 38.2641 64.1062C42.8266 62.5853 47.9868 59.3167 52.6516 54.6519C57.3164 49.9871 60.5851 44.8268 62.106 40.2643C63.6321 35.6859 63.377 31.7897 61.1369 29.5496Z" fill="url(#paint7_linear_500_6731)" stroke="url(#paint8_linear_500_6731)" stroke-width="0.5"/>
<path d="M63.9653 32.3782C61.7252 30.1381 57.829 29.883 53.2506 31.4091C48.6881 32.93 43.5279 36.1987 38.8631 40.8635C34.1983 45.5283 30.9296 50.6885 29.4087 55.251C27.8826 59.8294 28.1377 63.7256 30.3778 65.9657C32.6179 68.2059 36.5141 68.4609 41.0925 66.9348C45.6551 65.4139 50.8153 62.1453 55.4801 57.4805C60.1449 52.8157 63.4135 47.6555 64.9344 43.0929C66.4605 38.5145 66.2055 34.6183 63.9653 32.3782Z" fill="url(#paint9_linear_500_6731)" stroke="url(#paint10_linear_500_6731)" stroke-width="0.5"/>
<path d="M66.7937 35.2062C64.5536 32.9661 60.6574 32.7111 56.079 34.2372C51.5164 35.758 46.3562 39.0267 41.6914 43.6915C37.0266 48.3563 33.758 53.5165 32.2371 58.0791C30.711 62.6575 30.966 66.5537 33.2061 68.7938C35.4463 71.0339 39.3425 71.289 43.9209 69.7629C48.4834 68.242 53.6436 64.9733 58.3084 60.3085C62.9732 55.6437 66.2419 50.4835 67.7628 45.921C69.2889 41.3426 69.0338 37.4464 66.7937 35.2062Z" fill="url(#paint11_linear_500_6731)" stroke="url(#paint12_linear_500_6731)" stroke-width="0.5"/>
<path d="M69.6221 38.0349C67.382 35.7947 63.4858 35.5397 58.9074 37.0658C54.3449 38.5867 49.1847 41.8553 44.5199 46.5201C39.8551 51.1849 36.5864 56.3451 35.0655 60.9077C33.5394 65.4861 33.7945 69.3823 36.0346 71.6224C38.2747 73.8625 42.1709 74.1176 46.7493 72.5915C51.3119 71.0706 56.4721 67.8019 61.1369 63.1371C65.8017 58.4723 69.0703 53.3121 70.5912 48.7496C72.1173 44.1712 71.8623 40.275 69.6221 38.0349Z" fill="url(#paint13_linear_500_6731)" stroke="url(#paint14_linear_500_6731)" stroke-width="0.5"/>
<path d="M72.4506 40.8635C70.2105 38.6234 66.3143 38.3684 61.7359 39.8945C57.1734 41.4153 52.0131 44.684 47.3483 49.3488C42.6835 54.0136 39.4149 59.1738 37.894 63.7364C36.3679 68.3148 36.623 72.211 38.8631 74.4511C41.1032 76.6912 44.9994 76.9463 49.5778 75.4201C54.1403 73.8993 59.3006 70.6306 63.9654 65.9658C68.6302 61.301 71.8988 56.1408 73.4197 51.5783C74.9458 46.9998 74.6908 43.1036 72.4506 40.8635Z" fill="url(#paint15_linear_500_6731)" stroke="url(#paint16_linear_500_6731)" stroke-width="0.5"/>
<path d="M75.2791 43.6917C73.039 41.4515 69.1428 41.1965 64.5643 42.7226C60.0018 44.2435 54.8416 47.5121 50.1768 52.1769C45.512 56.8417 42.2433 62.0019 40.7225 66.5645C39.1963 71.1429 39.4514 75.0391 41.6915 77.2792C43.9316 79.5193 47.8278 79.7744 52.4062 78.2483C56.9688 76.7274 62.129 73.4587 66.7938 68.7939C71.4586 64.1291 74.7273 58.9689 76.2481 54.4064C77.7742 49.828 77.5192 45.9318 75.2791 43.6917Z" fill="url(#paint17_linear_500_6731)" stroke="url(#paint18_linear_500_6731)" stroke-width="0.5"/>
<path d="M78.1075 46.5203C75.8674 44.2802 71.9712 44.0251 67.3928 45.5512C62.8302 47.0721 57.67 50.3408 53.0052 55.0055C48.3404 59.6703 45.0717 64.8306 43.5509 69.3931C42.0247 73.9715 42.2798 77.8677 44.5199 80.1078C46.76 82.348 50.6562 82.603 55.2347 81.0769C59.7972 79.556 64.9574 76.2874 69.6222 71.6226C74.287 66.9578 77.5557 61.7975 79.0765 57.235C80.6027 52.6566 80.3476 48.7604 78.1075 46.5203Z" fill="url(#paint19_linear_500_6731)" stroke="url(#paint20_linear_500_6731)" stroke-width="0.5"/>
<path d="M80.9359 49.3483C78.6958 47.1082 74.7996 46.8532 70.2212 48.3793C65.6586 49.9001 60.4984 53.1688 55.8336 57.8336C51.1688 62.4984 47.9002 67.6586 46.3793 72.2212C44.8532 76.7996 45.1082 80.6958 47.3484 82.9359C49.5885 85.176 53.4847 85.4311 58.0631 83.9049C62.6256 82.3841 67.7858 79.1154 72.4506 74.4506C77.1154 69.7858 80.3841 64.6256 81.905 60.0631C83.4311 55.4846 83.176 51.5884 80.9359 49.3483Z" fill="url(#paint21_linear_500_6731)" stroke="url(#paint22_linear_500_6731)" stroke-width="0.5"/>
<path d="M83.7644 52.177C81.5242 49.9369 77.628 49.6818 73.0496 51.208C68.4871 52.7288 63.3269 55.9975 58.6621 60.6623C53.9973 65.3271 50.7286 70.4873 49.2077 75.0498C47.6816 79.6283 47.9367 83.5245 50.1768 85.7646C52.4169 88.0047 56.3131 88.2598 60.8915 86.7336C65.4541 85.2128 70.6143 81.9441 75.2791 77.2793C79.9439 72.6145 83.2126 67.4543 84.7334 62.8917C86.2595 58.3133 86.0045 54.4171 83.7644 52.177Z" stroke="url(#paint23_linear_500_6731)" stroke-width="0.5"/>
<path d="M66.7942 57.5L68.6342 62.9766L74.5885 59.5389L69.7714 66.3613L71.6113 71.8379L66.7942 70.5778L61.9771 77.4002L63.8171 69.799L59 68.5389L64.9543 65.1012L66.7942 57.5Z" fill="url(#paint24_radial_500_6731)"/>
<defs>
<linearGradient id="paint0_linear_500_6731" x1="17" y1="29.5002" x2="53.5" y2="21.5002" gradientUnits="userSpaceOnUse">
<stop stop-color="white"/>
<stop offset="1" stop-color="white" stop-opacity="0"/>
</linearGradient>
<linearGradient id="paint1_linear_500_6731" x1="52.0453" y1="13.0455" x2="65.9661" y2="34.9188" gradientUnits="userSpaceOnUse">
<stop stop-color="white"/>
<stop offset="0.927083" stop-color="#535353"/>
</linearGradient>
<linearGradient id="paint2_linear_500_6731" x1="44.3431" y1="46.3432" x2="27.3726" y2="29.3727" gradientUnits="userSpaceOnUse">
<stop stop-color="white"/>
<stop offset="1" stop-color="white" stop-opacity="0"/>
</linearGradient>
<linearGradient id="paint3_linear_500_6731" x1="54.8737" y1="15.8741" x2="68.7945" y2="37.7474" gradientUnits="userSpaceOnUse">
<stop stop-color="white"/>
<stop offset="0.927083" stop-color="#535353"/>
</linearGradient>
<linearGradient id="paint4_linear_500_6731" x1="47.1716" y1="49.1718" x2="30.201" y2="32.2013" gradientUnits="userSpaceOnUse">
<stop stop-color="white"/>
<stop offset="1" stop-color="white" stop-opacity="0"/>
</linearGradient>
<linearGradient id="paint5_linear_500_6731" x1="57.7022" y1="18.7023" x2="71.623" y2="40.5756" gradientUnits="userSpaceOnUse">
<stop stop-color="white"/>
<stop offset="0.927083" stop-color="#535353"/>
</linearGradient>
<linearGradient id="paint6_linear_500_6731" x1="50" y1="52" x2="33.0294" y2="35.0295" gradientUnits="userSpaceOnUse">
<stop stop-color="white"/>
<stop offset="1" stop-color="white" stop-opacity="0"/>
</linearGradient>
<linearGradient id="paint7_linear_500_6731" x1="60.5306" y1="21.5309" x2="74.4514" y2="43.4042" gradientUnits="userSpaceOnUse">
<stop stop-color="white"/>
<stop offset="0.927083" stop-color="#535353"/>
</linearGradient>
<linearGradient id="paint8_linear_500_6731" x1="52.8284" y1="54.8286" x2="35.8578" y2="37.8581" gradientUnits="userSpaceOnUse">
<stop stop-color="white"/>
<stop offset="1" stop-color="white" stop-opacity="0"/>
</linearGradient>
<linearGradient id="paint9_linear_500_6731" x1="63.359" y1="24.3595" x2="77.2798" y2="46.2328" gradientUnits="userSpaceOnUse">
<stop stop-color="white"/>
<stop offset="0.927083" stop-color="#535353"/>
</linearGradient>
<linearGradient id="paint10_linear_500_6731" x1="55.6568" y1="57.6572" x2="38.6863" y2="40.6867" gradientUnits="userSpaceOnUse">
<stop stop-color="white"/>
<stop offset="1" stop-color="white" stop-opacity="0"/>
</linearGradient>
<linearGradient id="paint11_linear_500_6731" x1="66.1874" y1="27.1876" x2="80.1082" y2="49.0609" gradientUnits="userSpaceOnUse">
<stop stop-color="white"/>
<stop offset="0.927083" stop-color="#535353"/>
</linearGradient>
<linearGradient id="paint12_linear_500_6731" x1="58.4852" y1="60.4853" x2="41.5146" y2="43.5147" gradientUnits="userSpaceOnUse">
<stop stop-color="white"/>
<stop offset="1" stop-color="white" stop-opacity="0"/>
</linearGradient>
<linearGradient id="paint13_linear_500_6731" x1="69.0158" y1="30.0162" x2="82.9366" y2="51.8895" gradientUnits="userSpaceOnUse">
<stop stop-color="white"/>
<stop offset="0.927083" stop-color="#535353"/>
</linearGradient>
<linearGradient id="paint14_linear_500_6731" x1="61.3136" y1="63.3139" x2="44.3431" y2="46.3434" gradientUnits="userSpaceOnUse">
<stop stop-color="white"/>
<stop offset="1" stop-color="white" stop-opacity="0"/>
</linearGradient>
<linearGradient id="paint15_linear_500_6731" x1="71.8443" y1="32.8448" x2="85.7651" y2="54.7182" gradientUnits="userSpaceOnUse">
<stop stop-color="white"/>
<stop offset="0.927083" stop-color="#535353"/>
</linearGradient>
<linearGradient id="paint16_linear_500_6731" x1="64.1421" y1="66.1426" x2="47.1716" y2="49.172" gradientUnits="userSpaceOnUse">
<stop stop-color="white"/>
<stop offset="1" stop-color="white" stop-opacity="0"/>
</linearGradient>
<linearGradient id="paint17_linear_500_6731" x1="74.6727" y1="35.673" x2="88.5935" y2="57.5463" gradientUnits="userSpaceOnUse">
<stop stop-color="white"/>
<stop offset="0.927083" stop-color="#535353"/>
</linearGradient>
<linearGradient id="paint18_linear_500_6731" x1="66.9706" y1="68.9707" x2="50" y2="52.0002" gradientUnits="userSpaceOnUse">
<stop stop-color="white"/>
<stop offset="1" stop-color="white" stop-opacity="0"/>
</linearGradient>
<linearGradient id="paint19_linear_500_6731" x1="77.5012" y1="38.5016" x2="91.422" y2="60.3749" gradientUnits="userSpaceOnUse">
<stop stop-color="white"/>
<stop offset="0.927083" stop-color="#535353"/>
</linearGradient>
<linearGradient id="paint20_linear_500_6731" x1="69.799" y1="71.7993" x2="52.8284" y2="54.8288" gradientUnits="userSpaceOnUse">
<stop stop-color="white"/>
<stop offset="1" stop-color="white" stop-opacity="0"/>
</linearGradient>
<linearGradient id="paint21_linear_500_6731" x1="80.3296" y1="41.3296" x2="94.2504" y2="63.203" gradientUnits="userSpaceOnUse">
<stop stop-color="white"/>
<stop offset="0.927083" stop-color="#535353"/>
</linearGradient>
<linearGradient id="paint22_linear_500_6731" x1="72.6274" y1="74.6274" x2="55.6569" y2="57.6568" gradientUnits="userSpaceOnUse">
<stop stop-color="white"/>
<stop offset="1" stop-color="white" stop-opacity="0"/>
</linearGradient>
<linearGradient id="paint23_linear_500_6731" x1="57" y1="53.9999" x2="82" y2="85.9999" gradientUnits="userSpaceOnUse">
<stop stop-color="white"/>
<stop offset="1" stop-color="white" stop-opacity="0"/>
</linearGradient>
<radialGradient id="paint24_radial_500_6731" cx="0" cy="0" r="1" gradientUnits="userSpaceOnUse" gradientTransform="translate(66.7942 66.9632) rotate(90) scale(15.2462 13.2036)">
<stop stop-color="white"/>
<stop offset="1" stop-color="white" stop-opacity="0"/>
</radialGradient>
</defs>
</svg>
