<svg width="100" height="100" viewBox="0 0 100 100" fill="none" xmlns="http://www.w3.org/2000/svg">
<rect x="26" y="10" width="16" height="16" fill="url(#paint0_linear_500_6395)"/>
<path d="M30 22V14L26 10V26L30 22Z" fill="url(#paint1_linear_500_6395)"/>
<path d="M38 22H30L26 26H42L38 22Z" fill="url(#paint2_linear_500_6395)"/>
<path d="M38 14H30L26 10L42 10L38 14Z" fill="url(#paint3_linear_500_6395)"/>
<path d="M38 22V14L42 10V26L38 22Z" fill="url(#paint4_linear_500_6395)"/>
<rect x="58" y="10" width="16" height="16" fill="url(#paint5_linear_500_6395)"/>
<path d="M62 22V14L58 10V26L62 22Z" fill="url(#paint6_linear_500_6395)"/>
<path d="M70 22H62L58 26H74L70 22Z" fill="url(#paint7_linear_500_6395)"/>
<path d="M70 14H62L58 10L74 10L70 14Z" fill="url(#paint8_linear_500_6395)"/>
<path d="M70 22V14L74 10V26L70 22Z" fill="url(#paint9_linear_500_6395)"/>
<rect x="10" y="26" width="16" height="16" fill="url(#paint10_linear_500_6395)"/>
<path d="M14 38V30L10 26V42L14 38Z" fill="url(#paint11_linear_500_6395)"/>
<path d="M22 38H14L10 42H26L22 38Z" fill="url(#paint12_linear_500_6395)"/>
<path d="M22 30H14L10 26H26L22 30Z" fill="url(#paint13_linear_500_6395)"/>
<path d="M22 38V30L26 26V42L22 38Z" fill="url(#paint14_linear_500_6395)"/>
<rect x="42" y="26" width="16" height="16" fill="url(#paint15_linear_500_6395)"/>
<path d="M46 38V30L42 26V42L46 38Z" fill="url(#paint16_linear_500_6395)"/>
<path d="M54 38H46L42 42H58L54 38Z" fill="url(#paint17_linear_500_6395)"/>
<path d="M54 30H46L42 26H58L54 30Z" fill="url(#paint18_linear_500_6395)"/>
<path d="M54 38V30L58 26V42L54 38Z" fill="url(#paint19_linear_500_6395)"/>
<rect x="74" y="26" width="16" height="16" fill="url(#paint20_linear_500_6395)"/>
<path d="M78 38V30L74 26V42L78 38Z" fill="url(#paint21_linear_500_6395)"/>
<path d="M86 38H78L74 42H90L86 38Z" fill="url(#paint22_linear_500_6395)"/>
<path d="M86 30H78L74 26H90L86 30Z" fill="url(#paint23_linear_500_6395)"/>
<path d="M86 38V30L90 26V42L86 38Z" fill="url(#paint24_linear_500_6395)"/>
<rect x="26" y="42" width="16" height="16" fill="url(#paint25_linear_500_6395)"/>
<path d="M30 54V46L26 42V58L30 54Z" fill="url(#paint26_linear_500_6395)"/>
<path d="M38 54H30L26 58H42L38 54Z" fill="url(#paint27_linear_500_6395)"/>
<path d="M38 46H30L26 42H42L38 46Z" fill="url(#paint28_linear_500_6395)"/>
<path d="M38 54V46L42 42V58L38 54Z" fill="url(#paint29_linear_500_6395)"/>
<rect x="58" y="42" width="16" height="16" fill="url(#paint30_linear_500_6395)"/>
<path d="M62 54V46L58 42V58L62 54Z" fill="url(#paint31_linear_500_6395)"/>
<path d="M70 54H62L58 58H74L70 54Z" fill="url(#paint32_linear_500_6395)"/>
<path d="M70 46H62L58 42H74L70 46Z" fill="url(#paint33_linear_500_6395)"/>
<path d="M70 54V46L74 42V58L70 54Z" fill="url(#paint34_linear_500_6395)"/>
<rect x="10" y="58" width="16" height="16" fill="url(#paint35_linear_500_6395)"/>
<path d="M14 70V62L10 58V74L14 70Z" fill="url(#paint36_linear_500_6395)"/>
<path d="M22 70H14L10 74H26L22 70Z" fill="url(#paint37_linear_500_6395)"/>
<path d="M22 62H14L10 58H26L22 62Z" fill="url(#paint38_linear_500_6395)"/>
<path d="M22 70V62L26 58V74L22 70Z" fill="url(#paint39_linear_500_6395)"/>
<rect x="42" y="58" width="16" height="16" fill="url(#paint40_linear_500_6395)"/>
<path d="M46 70V62L42 58V74L46 70Z" fill="url(#paint41_linear_500_6395)"/>
<path d="M54 70H46L42 74H58L54 70Z" fill="url(#paint42_linear_500_6395)"/>
<path d="M54 62H46L42 58H58L54 62Z" fill="url(#paint43_linear_500_6395)"/>
<path d="M54 70V62L58 58V74L54 70Z" fill="url(#paint44_linear_500_6395)"/>
<rect x="74" y="58" width="16" height="16" fill="url(#paint45_linear_500_6395)"/>
<path d="M78 70V62L74 58V74L78 70Z" fill="url(#paint46_linear_500_6395)"/>
<path d="M86 70H78L74 74H90L86 70Z" fill="url(#paint47_linear_500_6395)"/>
<path d="M86 62H78L74 58H90L86 62Z" fill="url(#paint48_linear_500_6395)"/>
<path d="M86 70V62L90 58V74L86 70Z" fill="url(#paint49_linear_500_6395)"/>
<rect x="26" y="74" width="16" height="16" fill="url(#paint50_linear_500_6395)"/>
<path d="M30 86V78L26 74V90L30 86Z" fill="url(#paint51_linear_500_6395)"/>
<path d="M38 86H30L26 90H42L38 86Z" fill="url(#paint52_linear_500_6395)"/>
<path d="M38 78H30L26 74H42L38 78Z" fill="url(#paint53_linear_500_6395)"/>
<path d="M38 86V78L42 74V90L38 86Z" fill="url(#paint54_linear_500_6395)"/>
<rect x="58" y="74" width="16" height="16" fill="url(#paint55_linear_500_6395)"/>
<path d="M62 86V78L58 74V90L62 86Z" fill="url(#paint56_linear_500_6395)"/>
<path d="M70 86H62L58 90H74L70 86Z" fill="url(#paint57_linear_500_6395)"/>
<path d="M70 78H62L58 74H74L70 78Z" fill="url(#paint58_linear_500_6395)"/>
<path d="M70 86V78L74 74V90L70 86Z" fill="url(#paint59_linear_500_6395)"/>
<defs>
<linearGradient id="paint0_linear_500_6395" x1="35.5" y1="23.5" x2="32" y2="14" gradientUnits="userSpaceOnUse">
<stop stop-color="#151515"/>
<stop offset="1" stop-color="#FFFAFA" stop-opacity="0.68"/>
</linearGradient>
<linearGradient id="paint1_linear_500_6395" x1="26" y1="18" x2="31" y2="18" gradientUnits="userSpaceOnUse">
<stop stop-color="white"/>
<stop offset="0.987399" stop-opacity="0.58"/>
</linearGradient>
<linearGradient id="paint2_linear_500_6395" x1="34" y1="26.5" x2="34" y2="21" gradientUnits="userSpaceOnUse">
<stop stop-color="white"/>
<stop offset="0.987399" stop-opacity="0.58"/>
</linearGradient>
<linearGradient id="paint3_linear_500_6395" x1="34" y1="9.5" x2="34" y2="15" gradientUnits="userSpaceOnUse">
<stop stop-color="white"/>
<stop offset="0.987399" stop-opacity="0.58"/>
</linearGradient>
<linearGradient id="paint4_linear_500_6395" x1="42" y1="18" x2="37" y2="18" gradientUnits="userSpaceOnUse">
<stop stop-color="white"/>
<stop offset="0.987399" stop-opacity="0.58"/>
</linearGradient>
<linearGradient id="paint5_linear_500_6395" x1="67.5" y1="23.5" x2="64" y2="14" gradientUnits="userSpaceOnUse">
<stop stop-color="#151515"/>
<stop offset="1" stop-color="#FFFAFA" stop-opacity="0.68"/>
</linearGradient>
<linearGradient id="paint6_linear_500_6395" x1="58" y1="18" x2="63" y2="18" gradientUnits="userSpaceOnUse">
<stop stop-color="white"/>
<stop offset="0.987399" stop-opacity="0.58"/>
</linearGradient>
<linearGradient id="paint7_linear_500_6395" x1="66" y1="26.5" x2="66" y2="21" gradientUnits="userSpaceOnUse">
<stop stop-color="white"/>
<stop offset="0.987399" stop-opacity="0.58"/>
</linearGradient>
<linearGradient id="paint8_linear_500_6395" x1="66" y1="9.5" x2="66" y2="15" gradientUnits="userSpaceOnUse">
<stop stop-color="white"/>
<stop offset="0.987399" stop-opacity="0.58"/>
</linearGradient>
<linearGradient id="paint9_linear_500_6395" x1="74" y1="18" x2="69" y2="18" gradientUnits="userSpaceOnUse">
<stop stop-color="white"/>
<stop offset="0.987399" stop-opacity="0.58"/>
</linearGradient>
<linearGradient id="paint10_linear_500_6395" x1="19.5" y1="39.5" x2="16" y2="30" gradientUnits="userSpaceOnUse">
<stop stop-color="#151515"/>
<stop offset="1" stop-color="#FFFAFA" stop-opacity="0.68"/>
</linearGradient>
<linearGradient id="paint11_linear_500_6395" x1="10" y1="34" x2="15" y2="34" gradientUnits="userSpaceOnUse">
<stop stop-color="white"/>
<stop offset="0.987399" stop-opacity="0.58"/>
</linearGradient>
<linearGradient id="paint12_linear_500_6395" x1="18" y1="42.5" x2="18" y2="37" gradientUnits="userSpaceOnUse">
<stop stop-color="white"/>
<stop offset="0.987399" stop-opacity="0.58"/>
</linearGradient>
<linearGradient id="paint13_linear_500_6395" x1="18" y1="25.5" x2="18" y2="31" gradientUnits="userSpaceOnUse">
<stop stop-color="white"/>
<stop offset="0.987399" stop-opacity="0.58"/>
</linearGradient>
<linearGradient id="paint14_linear_500_6395" x1="26" y1="34" x2="21" y2="34" gradientUnits="userSpaceOnUse">
<stop stop-color="white"/>
<stop offset="0.987399" stop-opacity="0.58"/>
</linearGradient>
<linearGradient id="paint15_linear_500_6395" x1="51.5" y1="39.5" x2="48" y2="30" gradientUnits="userSpaceOnUse">
<stop stop-color="#151515"/>
<stop offset="1" stop-color="#FFFAFA" stop-opacity="0.68"/>
</linearGradient>
<linearGradient id="paint16_linear_500_6395" x1="42" y1="34" x2="47" y2="34" gradientUnits="userSpaceOnUse">
<stop stop-color="white"/>
<stop offset="0.987399" stop-opacity="0.58"/>
</linearGradient>
<linearGradient id="paint17_linear_500_6395" x1="50" y1="42.5" x2="50" y2="37" gradientUnits="userSpaceOnUse">
<stop stop-color="white"/>
<stop offset="0.987399" stop-opacity="0.58"/>
</linearGradient>
<linearGradient id="paint18_linear_500_6395" x1="50" y1="25.5" x2="50" y2="31" gradientUnits="userSpaceOnUse">
<stop stop-color="white"/>
<stop offset="0.987399" stop-opacity="0.58"/>
</linearGradient>
<linearGradient id="paint19_linear_500_6395" x1="58" y1="34" x2="53" y2="34" gradientUnits="userSpaceOnUse">
<stop stop-color="white"/>
<stop offset="0.987399" stop-opacity="0.58"/>
</linearGradient>
<linearGradient id="paint20_linear_500_6395" x1="83.5" y1="39.5" x2="80" y2="30" gradientUnits="userSpaceOnUse">
<stop stop-color="#151515"/>
<stop offset="1" stop-color="#FFFAFA" stop-opacity="0.68"/>
</linearGradient>
<linearGradient id="paint21_linear_500_6395" x1="74" y1="34" x2="79" y2="34" gradientUnits="userSpaceOnUse">
<stop stop-color="white"/>
<stop offset="0.987399" stop-opacity="0.58"/>
</linearGradient>
<linearGradient id="paint22_linear_500_6395" x1="82" y1="42.5" x2="82" y2="37" gradientUnits="userSpaceOnUse">
<stop stop-color="white"/>
<stop offset="0.987399" stop-opacity="0.58"/>
</linearGradient>
<linearGradient id="paint23_linear_500_6395" x1="82" y1="25.5" x2="82" y2="31" gradientUnits="userSpaceOnUse">
<stop stop-color="white"/>
<stop offset="0.987399" stop-opacity="0.58"/>
</linearGradient>
<linearGradient id="paint24_linear_500_6395" x1="90" y1="34" x2="85" y2="34" gradientUnits="userSpaceOnUse">
<stop stop-color="white"/>
<stop offset="0.987399" stop-opacity="0.58"/>
</linearGradient>
<linearGradient id="paint25_linear_500_6395" x1="35.5" y1="55.5" x2="32" y2="46" gradientUnits="userSpaceOnUse">
<stop stop-color="#151515"/>
<stop offset="1" stop-color="#FFFAFA" stop-opacity="0.68"/>
</linearGradient>
<linearGradient id="paint26_linear_500_6395" x1="26" y1="50" x2="31" y2="50" gradientUnits="userSpaceOnUse">
<stop stop-color="white"/>
<stop offset="0.987399" stop-opacity="0.58"/>
</linearGradient>
<linearGradient id="paint27_linear_500_6395" x1="34" y1="58.5" x2="34" y2="53" gradientUnits="userSpaceOnUse">
<stop stop-color="white"/>
<stop offset="0.987399" stop-opacity="0.58"/>
</linearGradient>
<linearGradient id="paint28_linear_500_6395" x1="34" y1="41.5" x2="34" y2="47" gradientUnits="userSpaceOnUse">
<stop stop-color="white"/>
<stop offset="0.987399" stop-opacity="0.58"/>
</linearGradient>
<linearGradient id="paint29_linear_500_6395" x1="42" y1="50" x2="37" y2="50" gradientUnits="userSpaceOnUse">
<stop stop-color="white"/>
<stop offset="0.987399" stop-opacity="0.58"/>
</linearGradient>
<linearGradient id="paint30_linear_500_6395" x1="67.5" y1="55.5" x2="64" y2="46" gradientUnits="userSpaceOnUse">
<stop stop-color="#151515"/>
<stop offset="1" stop-color="#FFFAFA" stop-opacity="0.68"/>
</linearGradient>
<linearGradient id="paint31_linear_500_6395" x1="58" y1="50" x2="63" y2="50" gradientUnits="userSpaceOnUse">
<stop stop-color="white"/>
<stop offset="0.987399" stop-opacity="0.58"/>
</linearGradient>
<linearGradient id="paint32_linear_500_6395" x1="66" y1="58.5" x2="66" y2="53" gradientUnits="userSpaceOnUse">
<stop stop-color="white"/>
<stop offset="0.987399" stop-opacity="0.58"/>
</linearGradient>
<linearGradient id="paint33_linear_500_6395" x1="66" y1="41.5" x2="66" y2="47" gradientUnits="userSpaceOnUse">
<stop stop-color="white"/>
<stop offset="0.987399" stop-opacity="0.58"/>
</linearGradient>
<linearGradient id="paint34_linear_500_6395" x1="74" y1="50" x2="69" y2="50" gradientUnits="userSpaceOnUse">
<stop stop-color="white"/>
<stop offset="0.987399" stop-opacity="0.58"/>
</linearGradient>
<linearGradient id="paint35_linear_500_6395" x1="19.5" y1="71.5" x2="16" y2="62" gradientUnits="userSpaceOnUse">
<stop stop-color="#151515"/>
<stop offset="1" stop-color="#FFFAFA" stop-opacity="0.68"/>
</linearGradient>
<linearGradient id="paint36_linear_500_6395" x1="10" y1="66" x2="15" y2="66" gradientUnits="userSpaceOnUse">
<stop stop-color="white"/>
<stop offset="0.987399" stop-opacity="0.58"/>
</linearGradient>
<linearGradient id="paint37_linear_500_6395" x1="18" y1="74.5" x2="18" y2="69" gradientUnits="userSpaceOnUse">
<stop stop-color="white"/>
<stop offset="0.987399" stop-opacity="0.58"/>
</linearGradient>
<linearGradient id="paint38_linear_500_6395" x1="18" y1="57.5" x2="18" y2="63" gradientUnits="userSpaceOnUse">
<stop stop-color="white"/>
<stop offset="0.987399" stop-opacity="0.58"/>
</linearGradient>
<linearGradient id="paint39_linear_500_6395" x1="26" y1="66" x2="21" y2="66" gradientUnits="userSpaceOnUse">
<stop stop-color="white"/>
<stop offset="0.987399" stop-opacity="0.58"/>
</linearGradient>
<linearGradient id="paint40_linear_500_6395" x1="51.5" y1="71.5" x2="48" y2="62" gradientUnits="userSpaceOnUse">
<stop stop-color="#151515"/>
<stop offset="1" stop-color="#FFFAFA" stop-opacity="0.68"/>
</linearGradient>
<linearGradient id="paint41_linear_500_6395" x1="42" y1="66" x2="47" y2="66" gradientUnits="userSpaceOnUse">
<stop stop-color="white"/>
<stop offset="0.987399" stop-opacity="0.58"/>
</linearGradient>
<linearGradient id="paint42_linear_500_6395" x1="50" y1="74.5" x2="50" y2="69" gradientUnits="userSpaceOnUse">
<stop stop-color="white"/>
<stop offset="0.987399" stop-opacity="0.58"/>
</linearGradient>
<linearGradient id="paint43_linear_500_6395" x1="50" y1="57.5" x2="50" y2="63" gradientUnits="userSpaceOnUse">
<stop stop-color="white"/>
<stop offset="0.987399" stop-opacity="0.58"/>
</linearGradient>
<linearGradient id="paint44_linear_500_6395" x1="58" y1="66" x2="53" y2="66" gradientUnits="userSpaceOnUse">
<stop stop-color="white"/>
<stop offset="0.987399" stop-opacity="0.58"/>
</linearGradient>
<linearGradient id="paint45_linear_500_6395" x1="83.5" y1="71.5" x2="80" y2="62" gradientUnits="userSpaceOnUse">
<stop stop-color="#151515"/>
<stop offset="1" stop-color="#FFFAFA" stop-opacity="0.68"/>
</linearGradient>
<linearGradient id="paint46_linear_500_6395" x1="74" y1="66" x2="79" y2="66" gradientUnits="userSpaceOnUse">
<stop stop-color="white"/>
<stop offset="0.987399" stop-opacity="0.58"/>
</linearGradient>
<linearGradient id="paint47_linear_500_6395" x1="82" y1="74.5" x2="82" y2="69" gradientUnits="userSpaceOnUse">
<stop stop-color="white"/>
<stop offset="0.987399" stop-opacity="0.58"/>
</linearGradient>
<linearGradient id="paint48_linear_500_6395" x1="82" y1="57.5" x2="82" y2="63" gradientUnits="userSpaceOnUse">
<stop stop-color="white"/>
<stop offset="0.987399" stop-opacity="0.58"/>
</linearGradient>
<linearGradient id="paint49_linear_500_6395" x1="90" y1="66" x2="85" y2="66" gradientUnits="userSpaceOnUse">
<stop stop-color="white"/>
<stop offset="0.987399" stop-opacity="0.58"/>
</linearGradient>
<linearGradient id="paint50_linear_500_6395" x1="35.5" y1="87.5" x2="32" y2="78" gradientUnits="userSpaceOnUse">
<stop stop-color="#151515"/>
<stop offset="1" stop-color="#FFFAFA" stop-opacity="0.68"/>
</linearGradient>
<linearGradient id="paint51_linear_500_6395" x1="26" y1="82" x2="31" y2="82" gradientUnits="userSpaceOnUse">
<stop stop-color="white"/>
<stop offset="0.987399" stop-opacity="0.58"/>
</linearGradient>
<linearGradient id="paint52_linear_500_6395" x1="34" y1="90.5" x2="34" y2="85" gradientUnits="userSpaceOnUse">
<stop stop-color="white"/>
<stop offset="0.987399" stop-opacity="0.58"/>
</linearGradient>
<linearGradient id="paint53_linear_500_6395" x1="34" y1="73.5" x2="34" y2="79" gradientUnits="userSpaceOnUse">
<stop stop-color="white"/>
<stop offset="0.987399" stop-opacity="0.58"/>
</linearGradient>
<linearGradient id="paint54_linear_500_6395" x1="42" y1="82" x2="37" y2="82" gradientUnits="userSpaceOnUse">
<stop stop-color="white"/>
<stop offset="0.987399" stop-opacity="0.58"/>
</linearGradient>
<linearGradient id="paint55_linear_500_6395" x1="67.5" y1="87.5" x2="64" y2="78" gradientUnits="userSpaceOnUse">
<stop stop-color="#151515"/>
<stop offset="1" stop-color="#FFFAFA" stop-opacity="0.68"/>
</linearGradient>
<linearGradient id="paint56_linear_500_6395" x1="58" y1="82" x2="63" y2="82" gradientUnits="userSpaceOnUse">
<stop stop-color="white"/>
<stop offset="0.987399" stop-opacity="0.58"/>
</linearGradient>
<linearGradient id="paint57_linear_500_6395" x1="66" y1="90.5" x2="66" y2="85" gradientUnits="userSpaceOnUse">
<stop stop-color="white"/>
<stop offset="0.987399" stop-opacity="0.58"/>
</linearGradient>
<linearGradient id="paint58_linear_500_6395" x1="66" y1="73.5" x2="66" y2="79" gradientUnits="userSpaceOnUse">
<stop stop-color="white"/>
<stop offset="0.987399" stop-opacity="0.58"/>
</linearGradient>
<linearGradient id="paint59_linear_500_6395" x1="74" y1="82" x2="69" y2="82" gradientUnits="userSpaceOnUse">
<stop stop-color="white"/>
<stop offset="0.987399" stop-opacity="0.58"/>
</linearGradient>
</defs>
</svg>
