<svg width="100" height="100" viewBox="0 0 100 100" fill="none" xmlns="http://www.w3.org/2000/svg">
<path fill-rule="evenodd" clip-rule="evenodd" d="M61.747 20.2862C62.1286 20.6679 62.1286 21.2866 61.747 21.6683L51.3817 32.0335L67.9662 48.6181L78.3314 38.2529C78.713 37.8713 79.3318 37.8713 79.7134 38.2529C80.0951 38.6346 80.0951 39.2533 79.7134 39.635L69.3483 50.0001L79.7141 60.366C80.0957 60.7476 80.0957 61.3663 79.7141 61.748C79.3324 62.1296 78.7137 62.1296 78.3321 61.748L67.9662 51.3822L51.3816 67.9668L61.7476 78.3328C62.1292 78.7144 62.1292 79.3331 61.7476 79.7148C61.366 80.0964 60.7472 80.0964 60.3656 79.7148L49.9996 69.3488L39.6347 79.7137C39.2531 80.0953 38.6343 80.0953 38.2527 79.7137C37.8711 79.3321 37.8711 78.7133 38.2527 78.3317L48.6176 67.9668L32.033 51.3822L21.6683 61.747C21.2866 62.1286 20.6679 62.1286 20.2862 61.747C19.9046 61.3654 19.9046 60.7466 20.2862 60.365L30.651 50.0002L20.2869 39.636C19.9052 39.2544 19.9052 38.6356 20.2869 38.254C20.6685 37.8724 21.2873 37.8724 21.6689 38.254L32.033 48.6182L48.6176 32.0335L38.2533 21.6692C37.8717 21.2876 37.8717 20.6688 38.2533 20.2872C38.635 19.9056 39.2537 19.9056 39.6354 20.2872L49.9997 30.6515L60.3649 20.2862C60.7466 19.9046 61.3653 19.9046 61.747 20.2862ZM49.9997 33.4156L33.4151 50.0002L49.9996 66.5847L66.5842 50.0001L49.9997 33.4156Z" fill="url(#paint0_radial_500_7015)"/>
<path d="M50 34C50 42.8366 42.8366 50 34 50C42.8366 50 50 57.1634 50 66C50 57.1634 57.1634 50 66 50C57.1634 50 50 42.8366 50 34Z" fill="url(#paint1_radial_500_7015)"/>
<defs>
<radialGradient id="paint0_radial_500_7015" cx="0" cy="0" r="1" gradientUnits="userSpaceOnUse" gradientTransform="translate(50.0002 50.0005) rotate(90) scale(33.2267 33.2263)">
<stop stop-color="white"/>
<stop offset="1" stop-color="white" stop-opacity="0"/>
</radialGradient>
<radialGradient id="paint1_radial_500_7015" cx="0" cy="0" r="1" gradientUnits="userSpaceOnUse" gradientTransform="translate(50 50) rotate(90) scale(18.5)">
<stop stop-color="white"/>
<stop offset="1" stop-color="white" stop-opacity="0"/>
</radialGradient>
</defs>
</svg>
