<svg width="100" height="100" viewBox="0 0 100 100" fill="none" xmlns="http://www.w3.org/2000/svg">
<path fill-rule="evenodd" clip-rule="evenodd" d="M62 22.2376V29.1655L68 25.7014L82 31.4749L80 46.486L73.9998 49.9502L80 53.4144L82 68.4255L68 74.199L62 70.7349V77.6631L50 86.9007L38 77.6631V70.7349L32 74.199L18 68.4255L20 53.4144L26.0002 49.9502L20 46.486L18 31.4749L32 25.7014L38 29.1655V22.2376L50 13L62 22.2376ZM39 22.7298L50 14.262L61 22.7298V29.7428L52 34.939L50.1873 48.5442L50 48.6884L49.8127 48.5442L48 34.939L39 29.7428V22.7298ZM27.0002 50.5276L20.9262 54.0344L19.0929 67.7945L31.9262 73.0869L38 69.5802V59.1879L48.8759 50.8157L48.9071 50.5813L48.6882 50.4911L36 55.7236L27.0002 50.5276ZM47.3767 49.9502L36.0738 54.6115L28.0002 49.9502L36.0738 45.2889L47.3767 49.9502ZM48.6882 49.4094L36 44.1768L27.0002 49.3729L20.9262 45.8661L19.0929 32.1059L31.9262 26.8135L38 30.3202V40.7128L48.8759 49.0851L48.9071 49.3191L48.6882 49.4094ZM48.6885 52.2219L39 59.6801V69.0029L47.0738 64.3415L48.6885 52.2219ZM39 70.1576L48 64.9614L49.8126 51.3565L50 51.2123L50.1874 51.3565L52 64.9614L61 70.1576V77.171L50 85.6388L39 77.171V70.1576ZM52.9262 35.5589L61 30.8975V40.2206L51.3114 47.6789L52.9262 35.5589ZM62 40.7128L51.1241 49.0851L51.0929 49.3191L51.3118 49.4094L64 44.1768L72.9998 49.3729L79.0738 45.8661L80.9071 32.1059L68.0738 26.8135L62 30.3202V40.7128ZM64 55.7236L51.3118 50.4911L51.0929 50.5813L51.1241 50.8157L62 59.1879V69.5802L68.0738 73.0869L80.9071 67.7945L79.0738 54.0344L72.9998 50.5276L64 55.7236ZM63.9262 54.6115L71.9998 49.9502L63.9262 45.2889L52.6233 49.9502L63.9262 54.6115ZM51.3115 52.2219L61 59.6801V69.0029L52.9262 64.3415L51.3115 52.2219ZM47.0738 35.5589L48.6886 47.6789L39 40.2206V30.8975L47.0738 35.5589Z" fill="url(#paint0_radial_500_6878)"/>
<defs>
<radialGradient id="paint0_radial_500_6878" cx="0" cy="0" r="1" gradientUnits="userSpaceOnUse" gradientTransform="translate(50 49.9504) rotate(56.4881) scale(53.4314 46.273)">
<stop stop-color="white"/>
<stop offset="1" stop-color="white" stop-opacity="0"/>
</radialGradient>
</defs>
</svg>
