<svg width="100" height="100" viewBox="0 0 100 100" fill="none" xmlns="http://www.w3.org/2000/svg">
<path d="M66 42L67.4434 39.5H64.5566L66 42ZM34 66L32.7336 68.5941L35.6134 68.3938L34 66ZM65.75 34V39.75H66.25V34H65.75ZM65.75 62V66H66.25V62H65.75ZM65.75 52V62H66.25V52H65.75ZM34.25 50V34H33.75V50H34.25ZM34.25 58V50H33.75V58H34.25ZM50 81.75C42.0514 81.75 35.4776 75.8616 34.4037 68.2091L33.9085 68.2786C35.0166 76.1745 41.7986 82.25 50 82.25V81.75ZM50 82.25C58.9746 82.25 66.25 74.9746 66.25 66H65.75C65.75 74.6985 58.6985 81.75 50 81.75V82.25ZM50 18.25C58.6985 18.25 65.75 25.3015 65.75 34H66.25C66.25 25.0254 58.9746 17.75 50 17.75V18.25ZM50 17.75C41.0254 17.75 33.75 25.0254 33.75 34H34.25C34.25 25.3015 41.3015 18.25 50 18.25V17.75Z" fill="url(#paint0_linear_500_6726)"/>
<path d="M42 34L39.5 32.5566V35.4434L42 34ZM66 66L68.5941 67.2664L68.3938 64.3866L66 66ZM34 34.25H39.75V33.75H34V34.25ZM62 34.25H66V33.75H62V34.25ZM52 34.25H62V33.75H52V34.25ZM50 65.75H34V66.25H50V65.75ZM58 65.75H50V66.25H58V65.75ZM81.75 50C81.75 57.9486 75.8616 64.5224 68.2091 65.5963L68.2786 66.0915C76.1745 64.9834 82.25 58.2014 82.25 50H81.75ZM82.25 50C82.25 41.0254 74.9746 33.75 66 33.75V34.25C74.6985 34.25 81.75 41.3015 81.75 50H82.25ZM18.25 50C18.25 41.3015 25.3015 34.25 34 34.25V33.75C25.0254 33.75 17.75 41.0254 17.75 50H18.25ZM17.75 50C17.75 58.9746 25.0254 66.25 34 66.25V65.75C25.3015 65.75 18.25 58.6985 18.25 50H17.75Z" fill="url(#paint1_linear_500_6726)"/>
<path d="M50 38L52.6942 46.2918H61.4127L54.3593 51.4164L57.0534 59.7082L50 54.5836L42.9466 59.7082L45.6408 51.4164L38.5873 46.2918H47.3059L50 38Z" fill="url(#paint2_radial_500_6726)"/>
<defs>
<linearGradient id="paint0_linear_500_6726" x1="38" y1="18" x2="76.4" y2="86.8" gradientUnits="userSpaceOnUse">
<stop stop-color="white"/>
<stop offset="1" stop-color="white" stop-opacity="0"/>
</linearGradient>
<linearGradient id="paint1_linear_500_6726" x1="18" y1="62" x2="86.8" y2="23.6" gradientUnits="userSpaceOnUse">
<stop stop-color="white"/>
<stop offset="1" stop-color="white" stop-opacity="0"/>
</linearGradient>
<radialGradient id="paint2_radial_500_6726" cx="0" cy="0" r="1" gradientUnits="userSpaceOnUse" gradientTransform="translate(50 50) rotate(90) scale(19.3333 19.3333)">
<stop stop-color="white"/>
<stop offset="1" stop-color="white" stop-opacity="0"/>
</radialGradient>
</defs>
</svg>
