<svg width="100" height="100" viewBox="0 0 100 100" fill="none" xmlns="http://www.w3.org/2000/svg">
<path d="M48.7523 87.686L42.3994 76.6824C37.0715 67.4542 40.2333 55.6541 49.4615 50.3262L55.8145 61.3298C61.1424 70.558 57.9806 82.3581 48.7523 87.686Z" fill="url(#paint0_linear_500_7108)"/>
<path d="M50.2998 12.4841L56.6527 23.4877C61.9807 32.716 58.8188 44.5161 49.5906 49.844L43.2377 38.8404C37.9097 29.6122 41.0716 17.8121 50.2998 12.4841Z" fill="url(#paint1_linear_500_7108)"/>
<path d="M11.9252 49.3114L22.9288 42.9585C32.157 37.6305 43.9571 40.7924 49.285 50.0206L38.2814 56.3735C29.0532 61.7015 17.2531 58.5396 11.9252 49.3114Z" fill="url(#paint2_linear_500_7108)"/>
<path d="M87.127 50.8589L76.1234 57.2118C66.8952 62.5398 55.0951 59.3779 49.7671 50.1497L60.7708 43.7968C69.999 38.4688 81.7991 41.6307 87.127 50.8589Z" fill="url(#paint3_linear_500_7108)"/>
<defs>
<linearGradient id="paint0_linear_500_7108" x1="49.143" y1="83.6568" x2="49.7199" y2="49.3619" gradientUnits="userSpaceOnUse">
<stop stop-color="white"/>
<stop offset="1" stop-color="#070707"/>
</linearGradient>
<linearGradient id="paint1_linear_500_7108" x1="49.9092" y1="16.5134" x2="49.3322" y2="50.8083" gradientUnits="userSpaceOnUse">
<stop stop-color="white"/>
<stop offset="1" stop-color="#070707"/>
</linearGradient>
<linearGradient id="paint2_linear_500_7108" x1="15.9544" y1="49.702" x2="50.2493" y2="50.279" gradientUnits="userSpaceOnUse">
<stop stop-color="white"/>
<stop offset="1" stop-color="#070707"/>
</linearGradient>
<linearGradient id="paint3_linear_500_7108" x1="83.0978" y1="50.4682" x2="48.8029" y2="49.8913" gradientUnits="userSpaceOnUse">
<stop stop-color="white"/>
<stop offset="1" stop-color="#070707"/>
</linearGradient>
</defs>
</svg>
