<svg width="100" height="100" viewBox="0 0 100 100" fill="none" xmlns="http://www.w3.org/2000/svg">
<rect width="24" height="24" transform="matrix(0.5 -0.866025 1 2.20305e-08 14 81.3539)" fill="url(#paint0_linear_501_7590)"/>
<rect width="24" height="24" transform="matrix(0.5 0.866025 1 -2.20305e-08 14 39.7847)" fill="url(#paint1_linear_501_7590)"/>
<rect width="24" height="24" transform="matrix(0.5 -0.866025 1 2.20305e-08 14 39.7847)" fill="url(#paint2_linear_501_7590)"/>
<rect width="24" height="24" transform="matrix(0.5 -0.866025 1 2.20305e-08 32 81.3539)" fill="url(#paint3_linear_501_7590)"/>
<rect width="24" height="24" transform="matrix(0.5 0.866025 1 -2.20305e-08 32 39.7847)" fill="url(#paint4_linear_501_7590)"/>
<rect width="24" height="24" transform="matrix(0.5 -0.866025 1 2.20305e-08 32 39.7847)" fill="url(#paint5_linear_501_7590)"/>
<rect width="24" height="24" transform="matrix(0.5 -0.866025 1 2.20305e-08 50 81.3539)" fill="url(#paint6_linear_501_7590)"/>
<rect width="24" height="24" transform="matrix(0.5 0.866025 1 -2.20305e-08 50 39.7847)" fill="url(#paint7_linear_501_7590)"/>
<rect width="24" height="24" transform="matrix(0.5 -0.866025 1 2.20305e-08 50 39.7847)" fill="url(#paint8_linear_501_7590)"/>
<defs>
<linearGradient id="paint0_linear_501_7590" x1="12" y1="0" x2="12" y2="24" gradientUnits="userSpaceOnUse">
<stop stop-color="white"/>
<stop offset="1" stop-color="white" stop-opacity="0"/>
</linearGradient>
<linearGradient id="paint1_linear_501_7590" x1="12" y1="0" x2="12" y2="24" gradientUnits="userSpaceOnUse">
<stop stop-color="white"/>
<stop offset="1" stop-color="white" stop-opacity="0"/>
</linearGradient>
<linearGradient id="paint2_linear_501_7590" x1="12" y1="0" x2="12" y2="24" gradientUnits="userSpaceOnUse">
<stop stop-color="white"/>
<stop offset="1" stop-color="white" stop-opacity="0"/>
</linearGradient>
<linearGradient id="paint3_linear_501_7590" x1="12" y1="0" x2="12" y2="24" gradientUnits="userSpaceOnUse">
<stop stop-color="white"/>
<stop offset="1" stop-color="white" stop-opacity="0"/>
</linearGradient>
<linearGradient id="paint4_linear_501_7590" x1="12" y1="0" x2="12" y2="24" gradientUnits="userSpaceOnUse">
<stop stop-color="white"/>
<stop offset="1" stop-color="white" stop-opacity="0"/>
</linearGradient>
<linearGradient id="paint5_linear_501_7590" x1="12" y1="0" x2="12" y2="24" gradientUnits="userSpaceOnUse">
<stop stop-color="white"/>
<stop offset="1" stop-color="white" stop-opacity="0"/>
</linearGradient>
<linearGradient id="paint6_linear_501_7590" x1="12" y1="0" x2="12" y2="24" gradientUnits="userSpaceOnUse">
<stop stop-color="white"/>
<stop offset="1" stop-color="white" stop-opacity="0"/>
</linearGradient>
<linearGradient id="paint7_linear_501_7590" x1="12" y1="0" x2="12" y2="24" gradientUnits="userSpaceOnUse">
<stop stop-color="white"/>
<stop offset="1" stop-color="white" stop-opacity="0"/>
</linearGradient>
<linearGradient id="paint8_linear_501_7590" x1="12" y1="0" x2="12" y2="24" gradientUnits="userSpaceOnUse">
<stop stop-color="white"/>
<stop offset="1" stop-color="white" stop-opacity="0"/>
</linearGradient>
</defs>
</svg>
