<svg width="100" height="100" viewBox="0 0 100 100" fill="none" xmlns="http://www.w3.org/2000/svg">
<path fill-rule="evenodd" clip-rule="evenodd" d="M50.45 85.9957C59.3659 85.825 67.2991 80.5898 72.4898 72.4898C80.1786 67.5626 85.2861 60.1643 85.9308 51.8C85.9767 51.3238 86 50.8436 86 50.36L85.9998 50.2927C85.9997 50.2618 85.9995 50.2309 85.9991 50.2L85.9998 50.1L86 50L85.9997 49.8875L86 49.82C86 49.7298 85.9986 49.6398 85.9957 49.55C85.825 40.6341 80.5898 32.7009 72.4898 27.5102C67.2991 19.4102 59.3659 14.175 50.45 14.0043C50.3602 14.0014 50.2702 14 50.18 14L50.1125 14.0003L50 14C49.9333 14 49.8666 14.0003 49.8 14.0008C49.7467 14.0003 49.6934 14 49.64 14C49.1564 14 48.6762 14.0233 48.2 14.0692C39.8357 14.7139 32.4374 19.8214 27.5102 27.5102C19.4102 32.7009 14.175 40.6341 14.0043 49.55C14.0014 49.6398 14 49.7298 14 49.82L14.0003 49.8875L14 50C14 50.0667 14.0003 50.1334 14.0008 50.2C14.0003 50.2533 14 50.3066 14 50.36C14 50.8436 14.0233 51.3238 14.0692 51.8C14.7139 60.1643 19.8214 67.5626 27.5102 72.4898C32.4374 80.1786 39.8357 85.2861 48.2 85.9308C48.6762 85.9767 49.1564 86 49.64 86L49.7073 85.9998C49.7382 85.9997 49.7691 85.9995 49.8 85.9991L49.9 85.9998L50 86L50.1125 85.9997L50.18 86C50.2702 86 50.3602 85.9986 50.45 85.9957ZM55.1582 84.9609C61.6733 83.4548 67.4304 79.1484 71.579 73.0547C69.7177 74.1715 67.7168 75.1473 65.6009 75.9625C62.7314 80.2705 59.1492 83.4281 55.1582 84.9609ZM84.3959 57.1816C82.5321 62.8629 78.5095 67.8654 73.0547 71.579C73.9982 70.0065 74.8412 68.3343 75.5716 66.5773C79.5975 63.9773 82.662 60.7666 84.3959 57.1816ZM72.1651 72.1651C73.1937 70.5514 74.1128 68.8223 74.9079 66.9951C73.0493 68.1353 71 69.1491 68.7937 70.015C67.9774 71.9184 67.048 73.6933 66.0205 75.3163C68.2096 74.4332 70.2672 73.3749 72.1651 72.1651ZM85.2319 53.3875C84.2243 58.1465 80.8716 62.4676 75.8687 65.8421C76.4775 64.2919 76.9996 62.679 77.4274 61.0133C81.2423 58.8616 83.9778 56.2554 85.2319 53.3875ZM75.2137 66.2724C75.8667 64.6855 76.4273 63.0282 76.8863 61.3115C75.0998 62.2738 73.0924 63.1396 70.9023 63.8906C70.3827 65.8301 69.7575 67.6835 69.0381 69.4332C71.2798 68.5265 73.351 67.4646 75.2137 66.2724ZM85.5467 50.0495C85.4357 53.8973 82.5369 57.5191 77.5779 60.4086C78.3728 57.1135 78.8 53.6191 78.8 50C78.8 46.2267 78.3356 42.589 77.4743 39.1713C81.9279 41.7423 84.7428 44.9001 85.4011 48.2841C85.4851 48.8669 85.534 49.4557 85.5467 50.0495ZM78.35 50C78.35 46.1058 77.8522 42.3641 76.9335 38.8664C76.3979 38.5715 75.8401 38.2848 75.2611 38.0069C73.9224 37.3643 72.4763 36.7722 70.9364 36.2372C72.0599 40.4772 72.68 45.1254 72.68 50C72.68 54.7233 72.0978 59.2341 71.0395 63.3668C72.5409 62.8413 73.9524 62.2613 75.2611 61.6331C75.8791 61.3365 76.4729 61.0298 77.0414 60.7139C77.8911 57.3371 78.35 53.7388 78.35 50ZM84.4664 44.8143C83.0003 42.4854 80.5377 40.3641 77.3166 38.5646C77.0024 37.3914 76.6412 36.2451 76.2358 35.1293C80.1519 37.8515 83.0122 41.1654 84.4664 44.8143ZM76.7712 38.2668C76.4307 37.0447 76.0384 35.8535 75.5978 34.6972C75.4707 34.6133 75.3425 34.53 75.2133 34.4473C73.446 33.3162 71.4913 32.3026 69.3811 31.4272C69.9107 32.7987 70.3834 34.2297 70.7942 35.7125C72.9793 36.4559 74.9842 37.3134 76.7712 38.2668ZM84.9609 44.8418C83.4281 40.8508 80.2705 37.2686 75.9626 34.3991C75.1474 32.2832 74.1715 30.2823 73.0547 28.421C79.1484 32.5696 83.4548 38.3267 84.9609 44.8418ZM75.3164 33.9795C74.4332 31.7904 73.3749 29.7328 72.1651 27.8349C70.2672 26.6251 68.2096 25.5668 66.0205 24.6837C67.2017 26.5494 68.2533 28.616 69.1524 30.8476C71.384 31.7467 73.4506 32.7983 75.3164 33.9795ZM55.1582 15.0391C61.6733 16.5452 67.4305 20.8516 71.579 26.9453C69.7177 25.8285 67.7168 24.8527 65.6009 24.0375C62.7314 19.7295 59.1492 16.5719 55.1582 15.0391ZM55.1857 15.5336C58.8346 16.9878 62.1485 19.8481 64.8707 23.7642C63.7549 23.3588 62.6086 22.9976 61.4354 22.6834C59.6359 19.4623 57.5146 16.9997 55.1857 15.5336ZM61.7332 23.2288C62.9553 23.5694 64.1465 23.9616 65.3028 24.4022C65.3867 24.5293 65.47 24.6575 65.5527 24.7867C66.6838 26.554 67.6974 28.5087 68.5728 30.6189C67.2014 30.0893 65.7703 29.6166 64.2875 29.2058C63.5441 27.0207 62.6866 25.0158 61.7332 23.2288ZM64.4597 29.7215C65.9671 30.1494 67.4189 30.6421 68.8062 31.1938C69.3579 32.5811 69.8506 34.0329 70.2785 35.5403C68.8337 35.0666 67.3134 34.6422 65.728 34.272C65.3578 32.6866 64.9334 31.1662 64.4597 29.7215ZM65.8399 34.7607C67.4402 35.1407 68.9718 35.5765 70.4235 36.0623C71.5855 40.3394 72.23 45.0495 72.23 50C72.23 54.7984 71.6245 59.3709 70.5292 63.5422C69.0715 64.0338 67.5327 64.4747 65.924 64.8593C66.8023 60.8266 67.3341 56.3968 67.4403 51.7348C67.5128 51.1063 67.55 50.4674 67.55 49.82C67.55 49.1381 67.5087 48.4656 67.4284 47.8048C67.2944 43.1651 66.7387 38.7623 65.8399 34.7607ZM66.8456 45.0287C66.6007 41.3575 66.0886 37.8677 65.3528 34.6472C61.3758 33.7386 56.988 33.171 52.3549 33.0266C59.2691 33.8544 64.9239 38.6604 66.8456 45.0287ZM66.9792 47.84C65.9775 39.685 58.8669 33.35 50.225 33.35C40.9485 33.35 33.4364 40.6495 33.3507 49.6641C33.3504 49.735 33.3502 49.806 33.3501 49.8771C33.3816 58.937 40.9146 66.29 50.225 66.29C58.9013 66.29 66.0342 59.9044 66.9909 51.7025C67.0036 51.1384 67.01 50.5708 67.01 50C67.01 49.2746 66.9996 48.5544 66.9792 47.84ZM66.8747 54.5138C64.9814 60.9306 59.3043 65.7814 52.3549 66.6134C57.0211 66.4679 61.4386 65.8933 65.4382 64.9732C66.1581 61.7244 66.6515 58.2084 66.8747 54.5138ZM48.2337 66.6294C43.4978 66.519 39.0087 65.9667 34.9409 65.0591C34.1844 61.6688 33.6749 57.9859 33.4621 54.1114C35.2445 60.77 41.0763 65.8295 48.2337 66.6294ZM32.9001 49.8775C32.9 49.9183 32.9 49.9592 32.9 50C32.9 55.3332 33.4567 60.3956 34.4556 64.9487C32.4129 64.4748 30.48 63.9107 28.6795 63.2675C27.6292 59.1705 27.05 54.6933 27.05 50C27.05 45.1547 27.6673 40.5398 28.7831 36.3357C30.5789 35.699 32.5054 35.1406 34.5401 34.6718C33.5099 39.2263 32.9245 44.3037 32.9008 49.6608C32.9002 49.7138 32.9 49.7669 32.9 49.82C32.9 49.8392 32.9 49.8583 32.9001 49.8775ZM33.4887 45.4305C33.7243 41.5794 34.2536 37.923 35.0268 34.5618C39.0719 33.6655 43.5311 33.1203 48.2336 33.0106C41.1115 33.8066 35.3018 38.8203 33.4887 45.4305ZM65.8155 65.3475C67.4099 64.9726 68.938 64.5429 70.3892 64.0633C69.8495 66.0289 69.2003 67.9022 68.454 69.6645C67.0909 70.1926 65.6674 70.6641 64.1914 71.0738C64.8134 69.282 65.3582 67.3662 65.8155 65.3475ZM64.0087 71.5905C65.4582 71.1983 66.8593 70.747 68.2044 70.2414C67.4169 72.0245 66.5285 73.6886 65.5527 75.2133C65.47 75.3425 65.3867 75.4707 65.3028 75.5978C64.1465 76.0384 62.9553 76.4306 61.7332 76.7712C62.5696 75.2035 63.3322 73.4682 64.0087 71.5905ZM61.4354 77.3166C62.6086 77.0024 63.7549 76.6412 64.8707 76.2358C62.1485 80.1519 58.8346 83.0122 55.1857 84.4664C57.5146 83.0003 59.6359 80.5377 61.4354 77.3166ZM61.9931 75.2611C61.7152 75.8401 61.4285 76.3979 61.1336 76.9335C57.6359 77.8522 53.8942 78.35 50 78.35C46.2612 78.35 42.6629 77.8911 39.2861 77.0414C38.9702 76.4729 38.6635 75.8791 38.3669 75.2611C37.8504 74.1851 37.3664 73.0396 36.9186 71.8317C40.9733 72.8443 45.3852 73.4 50 73.4C54.7659 73.4 59.3155 72.8073 63.4787 71.7307C63.0205 72.9757 62.524 74.1551 61.9931 75.2611ZM50 78.8C46.3809 78.8 42.8865 78.3728 39.5914 77.5779C42.4809 82.5369 46.1027 85.4357 49.9505 85.5467C50.5443 85.534 51.1331 85.4851 51.7159 85.4011C55.0999 84.7428 58.2577 81.9279 60.8287 77.4743C57.411 78.3356 53.7733 78.8 50 78.8ZM36.3897 71.6965C37.0733 73.5795 37.8437 75.318 38.6885 76.8863C36.9718 76.4273 35.3145 75.8667 33.7276 75.2137C32.6907 73.5936 31.7522 71.8156 30.9288 69.905C32.6563 70.5969 34.482 71.1976 36.3897 71.6965ZM38.9867 77.4273C37.321 76.9996 35.7081 76.4774 34.1579 75.8687C37.5324 80.8716 41.8535 84.2243 46.6125 85.2319C43.7446 83.9778 41.1384 81.2423 38.9867 77.4273ZM30.3371 69.6629C31.122 71.54 32.0159 73.2957 33.0049 74.9079C31.1777 74.1128 29.4486 73.1937 27.8349 72.1651C26.8063 70.5514 25.8872 68.8223 25.0922 66.9951C26.7043 67.9841 28.46 68.8781 30.3371 69.6629ZM33.4227 75.5716C31.6657 74.8412 29.9935 73.9982 28.421 73.0547C32.1346 78.5095 37.1371 82.5321 42.8184 84.3959C39.2334 82.662 36.0227 79.5975 33.4227 75.5716ZM24.4284 66.5773C25.1589 68.3343 26.0018 70.0065 26.9453 71.579C21.4906 67.8654 17.4679 62.863 15.6041 57.1817C17.338 60.7666 20.4025 63.9773 24.4284 66.5773ZM24.7863 66.2724C24.1333 64.6855 23.5727 63.0282 23.1137 61.3115C24.682 62.1563 26.4206 62.9267 28.3035 63.6103C28.8024 65.518 29.4031 67.3437 30.095 69.0712C28.1844 68.2478 26.4064 67.3093 24.7863 66.2724ZM24.1313 65.8421C23.5225 64.2919 23.0004 62.679 22.5727 61.0133C18.7577 58.8616 16.0222 56.2554 14.7681 53.3875C15.7757 58.1465 19.1284 62.4676 24.1313 65.8421ZM24.7389 61.6331C24.1209 61.3365 23.5271 61.0298 22.9586 60.7139C22.1089 57.3371 21.65 53.7388 21.65 50C21.65 46.1058 22.1478 42.3641 23.0665 38.8664C23.6021 38.5715 24.1599 38.2848 24.7389 38.0069C25.8449 37.476 27.0243 36.9795 28.2693 36.5213C27.1927 40.6845 26.6 45.2341 26.6 50C26.6 54.6148 27.1557 59.0267 28.1683 63.0814C26.9605 62.6336 25.8149 62.1496 24.7389 61.6331ZM21.2 50C21.2 46.2267 21.6644 42.589 22.5257 39.1713C18.0721 41.7423 15.2572 44.9001 14.5989 48.284C14.5149 48.8669 14.466 49.4557 14.4533 50.0495C14.5643 53.8973 17.4631 57.5191 22.4221 60.4086C21.6272 57.1135 21.2 53.6191 21.2 50ZM28.4095 35.9913C26.5318 36.6678 24.7965 37.4304 23.2288 38.2668C23.5694 37.0447 23.9616 35.8535 24.4022 34.6972C24.5293 34.6133 24.6575 34.53 24.7867 34.4473C26.3114 33.4715 27.9755 32.5831 29.7586 31.7956C29.253 33.1407 28.8017 34.5418 28.4095 35.9913ZM22.6834 38.5646C22.9976 37.3914 23.3588 36.2451 23.7642 35.1293C19.8481 37.8515 16.9878 41.1654 15.5336 44.8143C16.9997 42.4854 19.4623 40.3641 22.6834 38.5646ZM29.985 31.2062C28.0816 32.0225 26.3067 32.952 24.6837 33.9795C25.5668 31.7904 26.6251 29.7328 27.8349 27.8349C29.4486 26.8063 31.1777 25.8872 33.0049 25.0922C31.8647 26.9507 30.8509 29 29.985 31.2062ZM24.0375 34.3991C24.8527 32.2832 25.8285 30.2823 26.9453 28.421C20.8516 32.5696 16.5452 38.3267 15.0391 44.8418C16.5719 40.8508 19.7295 37.2686 24.0375 34.3991ZM33.4227 24.4284C31.6657 25.1589 29.9935 26.0018 28.421 26.9453C32.1346 21.4906 37.137 17.4679 42.8183 15.6041C39.2334 17.338 36.0227 20.4025 33.4227 24.4284ZM33.7276 24.7863C35.3145 24.1333 36.9718 23.5727 38.6885 23.1137C37.7262 24.9002 36.8603 26.9076 36.1094 29.0977C34.1698 29.6173 32.3165 30.2424 30.5668 30.9619C31.4735 28.7201 32.5354 26.649 33.7276 24.7863ZM34.1579 24.1313C35.7081 23.5226 37.321 23.0004 38.9867 22.5727C41.1384 18.7577 43.7446 16.0222 46.6125 14.7681C41.8535 15.7757 37.5324 19.1284 34.1579 24.1313ZM38.3669 24.7389C38.6635 24.1209 38.9702 23.5271 39.2861 22.9586C42.6629 22.1089 46.2612 21.65 50 21.65C53.8942 21.65 57.6359 22.1478 61.1336 23.0665C61.4285 23.6022 61.7152 24.1599 61.9931 24.7389C62.6357 26.0776 63.2278 27.5237 63.7628 29.0636C59.5228 27.94 54.8746 27.32 50 27.32C45.2767 27.32 40.7659 27.9022 36.6332 28.9605C37.1587 27.4591 37.7387 26.0476 38.3669 24.7389ZM50 21.2C53.7733 21.2 57.411 21.6644 60.8287 22.5257C58.2577 18.0721 55.0999 15.2572 51.716 14.5989C51.1331 14.5149 50.5443 14.466 49.9505 14.4533C46.1027 14.5643 42.4809 17.4631 39.5914 22.4221C42.8865 21.6272 46.3809 21.2 50 21.2ZM50 27.77C54.9505 27.77 59.6606 28.4145 63.9377 29.5765C64.4235 31.0282 64.8593 32.5598 65.2393 34.1601C60.6114 33.1207 55.447 32.54 50 32.54C44.7016 32.54 39.6706 33.0894 35.1407 34.076C35.5253 32.4673 35.9662 30.9285 36.4578 29.4708C40.6291 28.3755 45.2016 27.77 50 27.77ZM50 67.1C55.4819 67.1 60.6776 66.5119 65.3282 65.4599C64.8594 67.4946 64.301 69.4211 63.6643 71.2169C59.4602 72.3326 54.8453 72.95 50 72.95C45.3067 72.95 40.8295 72.3708 36.7325 71.3204C36.0893 69.52 35.5252 67.5871 35.0513 65.5444C39.6044 66.5433 44.6668 67.1 50 67.1ZM34.5645 65.4355C35.027 67.4627 35.5778 69.3855 36.2064 71.1824C34.271 70.6631 32.4234 70.0379 30.6814 69.3186C29.9621 67.5766 29.3369 65.729 28.8176 63.7936C30.6145 64.4223 32.5373 64.973 34.5645 65.4355ZM34.6525 34.1845C32.6338 34.6418 30.718 35.1866 28.9262 35.8086C29.3359 34.3326 29.8074 32.9091 30.3355 31.546C32.0978 30.7997 33.9711 30.1505 35.9367 29.6108C35.4571 31.062 35.0274 32.5901 34.6525 34.1845Z" fill="url(#paint0_linear_500_6802)"/>
<defs>
<linearGradient id="paint0_linear_500_6802" x1="22.1" y1="24.35" x2="73.4" y2="85.1" gradientUnits="userSpaceOnUse">
<stop stop-color="white"/>
<stop offset="0.376612" stop-color="white"/>
<stop offset="1" stop-color="white" stop-opacity="0"/>
</linearGradient>
</defs>
</svg>
