<svg width="100" height="100" viewBox="0 0 100 100" fill="none" xmlns="http://www.w3.org/2000/svg">
<path d="M26.1487 24.6205L28.3556 22.4136H37.1829L39.3898 24.6205H26.1487Z" fill="url(#paint0_radial_500_7060)"/>
<path d="M21.7345 29.0347L23.9414 26.8278H41.5971L43.804 29.0347H21.7345Z" fill="url(#paint1_radial_500_7060)"/>
<path d="M18.6791 33.4484L18 32.7692L19.5277 31.2415H46.0107L48.2176 33.4484H18.6791Z" fill="url(#paint2_radial_500_7060)"/>
<path d="M23.0928 37.862L20.8859 35.6551H79.1141L76.9072 37.862H23.0928Z" fill="url(#paint3_radial_500_7060)"/>
<path d="M27.5064 42.2756L25.2995 40.0688H74.7005L72.4936 42.2756H27.5064Z" fill="url(#paint4_radial_500_7060)"/>
<path d="M31.9206 46.6899L29.7137 44.483H70.2863L68.0794 46.6899H31.9206Z" fill="url(#paint5_radial_500_7060)"/>
<path d="M34.1273 51.1035L35.2308 50L34.1274 48.8966H65.8726L64.7692 50L65.8727 51.1035H34.1273Z" fill="url(#paint6_radial_500_7060)"/>
<path d="M29.7137 55.5171L31.9206 53.3102H68.0794L70.2863 55.5171H29.7137Z" fill="url(#paint7_radial_500_7060)"/>
<path d="M25.3 59.9308L27.5069 57.7239H72.4931L74.7 59.9308H25.3Z" fill="url(#paint8_radial_500_7060)"/>
<path d="M20.8858 64.345L23.0927 62.1381H76.9073L79.1142 64.345H20.8858Z" fill="url(#paint9_radial_500_7060)"/>
<path d="M19.5279 68.7586L18 67.2308L18.6791 66.5517H48.2175L46.0106 68.7586H19.5279Z" fill="url(#paint10_radial_500_7060)"/>
<path d="M23.9415 73.1722L21.7346 70.9653H43.8039L41.597 73.1722H23.9415Z" fill="url(#paint11_radial_500_7060)"/>
<path d="M28.3557 77.5864L26.1488 75.3796H39.3897L37.1828 77.5864H28.3557Z" fill="url(#paint12_radial_500_7060)"/>
<path d="M73.8512 75.3796L71.6443 77.5864H62.8172L60.6103 75.3796H73.8512Z" fill="url(#paint13_radial_500_7060)"/>
<path d="M78.2654 70.9653L76.0585 73.1722H58.403L56.1961 70.9653H78.2654Z" fill="url(#paint14_radial_500_7060)"/>
<path d="M81.3209 66.5517L82 67.2308L80.4721 68.7586H53.9894L51.7825 66.5517H81.3209Z" fill="url(#paint15_radial_500_7060)"/>
<path d="M65.024 79.7932H69.4375L67.2307 82L65.024 79.7932Z" fill="url(#paint16_radial_500_7060)"/>
<path d="M34.976 79.7932L32.7693 82L30.5625 79.7932H34.976Z" fill="url(#paint17_radial_500_7060)"/>
<path d="M80.4723 31.2415L82 32.7692L81.3209 33.4484H51.7824L53.9893 31.2415H80.4723Z" fill="url(#paint18_radial_500_7060)"/>
<path d="M76.0586 26.8278L78.2655 29.0347H56.196L58.4029 26.8278H76.0586Z" fill="url(#paint19_radial_500_7060)"/>
<path d="M71.6444 22.4136L73.8513 24.6205H60.6102L62.8171 22.4136H71.6444Z" fill="url(#paint20_radial_500_7060)"/>
<path d="M67.2308 18L69.4377 20.2069H65.0239L67.2308 18Z" fill="url(#paint21_radial_500_7060)"/>
<path d="M32.7692 18L30.5623 20.2069H34.9761L32.7692 18Z" fill="url(#paint22_radial_500_7060)"/>
<defs>
<radialGradient id="paint0_radial_500_7060" cx="0" cy="0" r="1" gradientUnits="userSpaceOnUse" gradientTransform="translate(50 50) rotate(48.633) scale(51.0142 51.0142)">
<stop stop-color="white"/>
<stop offset="1" stop-color="white" stop-opacity="0"/>
</radialGradient>
<radialGradient id="paint1_radial_500_7060" cx="0" cy="0" r="1" gradientUnits="userSpaceOnUse" gradientTransform="translate(50 50) rotate(48.633) scale(51.0142 51.0142)">
<stop stop-color="white"/>
<stop offset="1" stop-color="white" stop-opacity="0"/>
</radialGradient>
<radialGradient id="paint2_radial_500_7060" cx="0" cy="0" r="1" gradientUnits="userSpaceOnUse" gradientTransform="translate(50 50) rotate(48.633) scale(51.0142 51.0142)">
<stop stop-color="white"/>
<stop offset="1" stop-color="white" stop-opacity="0"/>
</radialGradient>
<radialGradient id="paint3_radial_500_7060" cx="0" cy="0" r="1" gradientUnits="userSpaceOnUse" gradientTransform="translate(50 50) rotate(48.633) scale(51.0142 51.0142)">
<stop stop-color="white"/>
<stop offset="1" stop-color="white" stop-opacity="0"/>
</radialGradient>
<radialGradient id="paint4_radial_500_7060" cx="0" cy="0" r="1" gradientUnits="userSpaceOnUse" gradientTransform="translate(50 50) rotate(48.633) scale(51.0142 51.0142)">
<stop stop-color="white"/>
<stop offset="1" stop-color="white" stop-opacity="0"/>
</radialGradient>
<radialGradient id="paint5_radial_500_7060" cx="0" cy="0" r="1" gradientUnits="userSpaceOnUse" gradientTransform="translate(50 50) rotate(48.633) scale(51.0142 51.0142)">
<stop stop-color="white"/>
<stop offset="1" stop-color="white" stop-opacity="0"/>
</radialGradient>
<radialGradient id="paint6_radial_500_7060" cx="0" cy="0" r="1" gradientUnits="userSpaceOnUse" gradientTransform="translate(50 50) rotate(48.633) scale(51.0142 51.0142)">
<stop stop-color="white"/>
<stop offset="1" stop-color="white" stop-opacity="0"/>
</radialGradient>
<radialGradient id="paint7_radial_500_7060" cx="0" cy="0" r="1" gradientUnits="userSpaceOnUse" gradientTransform="translate(50 50) rotate(48.633) scale(51.0142 51.0142)">
<stop stop-color="white"/>
<stop offset="1" stop-color="white" stop-opacity="0"/>
</radialGradient>
<radialGradient id="paint8_radial_500_7060" cx="0" cy="0" r="1" gradientUnits="userSpaceOnUse" gradientTransform="translate(50 50) rotate(48.633) scale(51.0142 51.0142)">
<stop stop-color="white"/>
<stop offset="1" stop-color="white" stop-opacity="0"/>
</radialGradient>
<radialGradient id="paint9_radial_500_7060" cx="0" cy="0" r="1" gradientUnits="userSpaceOnUse" gradientTransform="translate(50 50) rotate(48.633) scale(51.0142 51.0142)">
<stop stop-color="white"/>
<stop offset="1" stop-color="white" stop-opacity="0"/>
</radialGradient>
<radialGradient id="paint10_radial_500_7060" cx="0" cy="0" r="1" gradientUnits="userSpaceOnUse" gradientTransform="translate(50 50) rotate(48.633) scale(51.0142 51.0142)">
<stop stop-color="white"/>
<stop offset="1" stop-color="white" stop-opacity="0"/>
</radialGradient>
<radialGradient id="paint11_radial_500_7060" cx="0" cy="0" r="1" gradientUnits="userSpaceOnUse" gradientTransform="translate(50 50) rotate(48.633) scale(51.0142 51.0142)">
<stop stop-color="white"/>
<stop offset="1" stop-color="white" stop-opacity="0"/>
</radialGradient>
<radialGradient id="paint12_radial_500_7060" cx="0" cy="0" r="1" gradientUnits="userSpaceOnUse" gradientTransform="translate(50 50) rotate(48.633) scale(51.0142 51.0142)">
<stop stop-color="white"/>
<stop offset="1" stop-color="white" stop-opacity="0"/>
</radialGradient>
<radialGradient id="paint13_radial_500_7060" cx="0" cy="0" r="1" gradientUnits="userSpaceOnUse" gradientTransform="translate(50 50) rotate(48.633) scale(51.0142 51.0142)">
<stop stop-color="white"/>
<stop offset="1" stop-color="white" stop-opacity="0"/>
</radialGradient>
<radialGradient id="paint14_radial_500_7060" cx="0" cy="0" r="1" gradientUnits="userSpaceOnUse" gradientTransform="translate(50 50) rotate(48.633) scale(51.0142 51.0142)">
<stop stop-color="white"/>
<stop offset="1" stop-color="white" stop-opacity="0"/>
</radialGradient>
<radialGradient id="paint15_radial_500_7060" cx="0" cy="0" r="1" gradientUnits="userSpaceOnUse" gradientTransform="translate(50 50) rotate(48.633) scale(51.0142 51.0142)">
<stop stop-color="white"/>
<stop offset="1" stop-color="white" stop-opacity="0"/>
</radialGradient>
<radialGradient id="paint16_radial_500_7060" cx="0" cy="0" r="1" gradientUnits="userSpaceOnUse" gradientTransform="translate(50 50) rotate(48.633) scale(51.0142 51.0142)">
<stop stop-color="white"/>
<stop offset="1" stop-color="white" stop-opacity="0"/>
</radialGradient>
<radialGradient id="paint17_radial_500_7060" cx="0" cy="0" r="1" gradientUnits="userSpaceOnUse" gradientTransform="translate(50 50) rotate(48.633) scale(51.0142 51.0142)">
<stop stop-color="white"/>
<stop offset="1" stop-color="white" stop-opacity="0"/>
</radialGradient>
<radialGradient id="paint18_radial_500_7060" cx="0" cy="0" r="1" gradientUnits="userSpaceOnUse" gradientTransform="translate(50 50) rotate(48.633) scale(51.0142 51.0142)">
<stop stop-color="white"/>
<stop offset="1" stop-color="white" stop-opacity="0"/>
</radialGradient>
<radialGradient id="paint19_radial_500_7060" cx="0" cy="0" r="1" gradientUnits="userSpaceOnUse" gradientTransform="translate(50 50) rotate(48.633) scale(51.0142 51.0142)">
<stop stop-color="white"/>
<stop offset="1" stop-color="white" stop-opacity="0"/>
</radialGradient>
<radialGradient id="paint20_radial_500_7060" cx="0" cy="0" r="1" gradientUnits="userSpaceOnUse" gradientTransform="translate(50 50) rotate(48.633) scale(51.0142 51.0142)">
<stop stop-color="white"/>
<stop offset="1" stop-color="white" stop-opacity="0"/>
</radialGradient>
<radialGradient id="paint21_radial_500_7060" cx="0" cy="0" r="1" gradientUnits="userSpaceOnUse" gradientTransform="translate(50 50) rotate(48.633) scale(51.0142 51.0142)">
<stop stop-color="white"/>
<stop offset="1" stop-color="white" stop-opacity="0"/>
</radialGradient>
<radialGradient id="paint22_radial_500_7060" cx="0" cy="0" r="1" gradientUnits="userSpaceOnUse" gradientTransform="translate(50 50) rotate(48.633) scale(51.0142 51.0142)">
<stop stop-color="white"/>
<stop offset="1" stop-color="white" stop-opacity="0"/>
</radialGradient>
</defs>
</svg>
