<svg width="100" height="100" viewBox="0 0 100 100" fill="none" xmlns="http://www.w3.org/2000/svg">
<path fill-rule="evenodd" clip-rule="evenodd" d="M30 30H49V46H30V30ZM31 31H48V45H31V31Z" fill="url(#paint0_linear_500_7058)"/>
<path fill-rule="evenodd" clip-rule="evenodd" d="M28 28V52H55V28H28ZM54 29H29V51H54V29Z" fill="url(#paint1_linear_500_7058)"/>
<path fill-rule="evenodd" clip-rule="evenodd" d="M26 26H61V58H26V26ZM27 27H60V57H27V27Z" fill="url(#paint2_linear_500_7058)"/>
<path fill-rule="evenodd" clip-rule="evenodd" d="M24 24V64H66V24H24ZM65 25H25V63H65V25Z" fill="url(#paint3_linear_500_7058)"/>
<path fill-rule="evenodd" clip-rule="evenodd" d="M22 22H71V70H22V22ZM23 23H70V69H23V23Z" fill="url(#paint4_linear_500_7058)"/>
<path fill-rule="evenodd" clip-rule="evenodd" d="M20 20V76H76V20H20ZM75 21H21V75H75V21Z" fill="url(#paint5_linear_500_7058)"/>
<path fill-rule="evenodd" clip-rule="evenodd" d="M18 18V82H82V18H18ZM81 19H19V81H81V19Z" fill="url(#paint6_linear_500_7058)"/>
<defs>
<linearGradient id="paint0_linear_500_7058" x1="19" y1="18" x2="83" y2="83.5" gradientUnits="userSpaceOnUse">
<stop stop-color="white"/>
<stop offset="1" stop-color="white" stop-opacity="0"/>
</linearGradient>
<linearGradient id="paint1_linear_500_7058" x1="19" y1="18" x2="83" y2="83.5" gradientUnits="userSpaceOnUse">
<stop stop-color="white"/>
<stop offset="1" stop-color="white" stop-opacity="0"/>
</linearGradient>
<linearGradient id="paint2_linear_500_7058" x1="19" y1="18" x2="83" y2="83.5" gradientUnits="userSpaceOnUse">
<stop stop-color="white"/>
<stop offset="1" stop-color="white" stop-opacity="0"/>
</linearGradient>
<linearGradient id="paint3_linear_500_7058" x1="19" y1="18" x2="83" y2="83.5" gradientUnits="userSpaceOnUse">
<stop stop-color="white"/>
<stop offset="1" stop-color="white" stop-opacity="0"/>
</linearGradient>
<linearGradient id="paint4_linear_500_7058" x1="19" y1="18" x2="83" y2="83.5" gradientUnits="userSpaceOnUse">
<stop stop-color="white"/>
<stop offset="1" stop-color="white" stop-opacity="0"/>
</linearGradient>
<linearGradient id="paint5_linear_500_7058" x1="19" y1="18" x2="83" y2="83.5" gradientUnits="userSpaceOnUse">
<stop stop-color="white"/>
<stop offset="1" stop-color="white" stop-opacity="0"/>
</linearGradient>
<linearGradient id="paint6_linear_500_7058" x1="19" y1="18" x2="83" y2="83.5" gradientUnits="userSpaceOnUse">
<stop stop-color="white"/>
<stop offset="1" stop-color="white" stop-opacity="0"/>
</linearGradient>
</defs>
</svg>
