<svg width="100" height="100" viewBox="0 0 100 100" fill="none" xmlns="http://www.w3.org/2000/svg">
<rect x="14.6375" y="53.637" width="54.8538" height="0.685673" transform="rotate(-45 14.6375 53.637)" fill="url(#paint0_linear_500_5825)"/>
<rect x="15.6072" y="54.6066" width="54.8538" height="0.685673" transform="rotate(-45 15.6072 54.6066)" fill="url(#paint1_linear_500_5825)"/>
<rect x="16.5769" y="55.5755" width="54.8538" height="0.685673" transform="rotate(-45 16.5769 55.5755)" fill="url(#paint2_linear_500_5825)"/>
<rect x="17.5464" y="56.5457" width="54.8538" height="0.685673" transform="rotate(-45 17.5464 56.5457)" fill="url(#paint3_linear_500_5825)"/>
<rect x="18.5161" y="57.5152" width="54.8538" height="0.685673" transform="rotate(-45 18.5161 57.5152)" fill="url(#paint4_linear_500_5825)"/>
<rect x="19.4857" y="58.4854" width="54.8538" height="0.685673" transform="rotate(-45 19.4857 58.4854)" fill="url(#paint5_linear_500_5825)"/>
<rect x="20.4556" y="59.455" width="54.8538" height="0.685673" transform="rotate(-45 20.4556 59.455)" fill="url(#paint6_linear_500_5825)"/>
<rect x="21.4252" y="60.4245" width="54.8538" height="0.685673" transform="rotate(-45 21.4252 60.4245)" fill="url(#paint7_linear_500_5825)"/>
<rect x="22.3948" y="61.3941" width="54.8538" height="0.685673" transform="rotate(-45 22.3948 61.3941)" fill="url(#paint8_linear_500_5825)"/>
<rect x="23.3644" y="62.3636" width="54.8538" height="0.685673" transform="rotate(-45 23.3644 62.3636)" fill="url(#paint9_linear_500_5825)"/>
<rect x="24.3343" y="63.3338" width="54.8538" height="0.685673" transform="rotate(-45 24.3343 63.3338)" fill="url(#paint10_linear_500_5825)"/>
<rect x="25.304" y="64.3033" width="54.8538" height="0.685673" transform="rotate(-45 25.304 64.3033)" fill="url(#paint11_linear_500_5825)"/>
<rect x="26.2737" y="65.2729" width="54.8538" height="0.685673" transform="rotate(-45 26.2737 65.2729)" fill="url(#paint12_linear_500_5825)"/>
<rect x="27.2434" y="66.2425" width="54.8538" height="0.685673" transform="rotate(-45 27.2434 66.2425)" fill="url(#paint13_linear_500_5825)"/>
<rect x="28.2131" y="67.2126" width="54.8538" height="0.685673" transform="rotate(-45 28.2131 67.2126)" fill="url(#paint14_linear_500_5825)"/>
<rect x="29.183" y="68.1816" width="54.8538" height="0.685673" transform="rotate(-45 29.183 68.1816)" fill="url(#paint15_linear_500_5825)"/>
<rect x="30.1525" y="69.1517" width="54.8538" height="0.685673" transform="rotate(-45 30.1525 69.1517)" fill="url(#paint16_linear_500_5825)"/>
<rect x="31.1222" y="70.1219" width="54.8538" height="0.685673" transform="rotate(-45 31.1222 70.1219)" fill="url(#paint17_linear_500_5825)"/>
<rect x="32.0919" y="71.0914" width="54.8538" height="0.685673" transform="rotate(-45 32.0919 71.0914)" fill="url(#paint18_linear_500_5825)"/>
<rect x="33.0615" y="72.061" width="54.8538" height="0.685673" transform="rotate(-45 33.0615 72.061)" fill="url(#paint19_linear_500_5825)"/>
<rect x="34.0311" y="73.0306" width="54.8538" height="0.685673" transform="rotate(-45 34.0311 73.0306)" fill="url(#paint20_linear_500_5825)"/>
<rect x="35.0007" y="74.0001" width="54.8538" height="0.685673" transform="rotate(-45 35.0007 74.0001)" fill="url(#paint21_linear_500_5825)"/>
<rect x="35.9705" y="74.9703" width="54.8538" height="0.685673" transform="rotate(-45 35.9705 74.9703)" fill="url(#paint22_linear_500_5825)"/>
<rect x="36.9403" y="75.9398" width="54.8538" height="0.685673" transform="rotate(-45 36.9403 75.9398)" fill="url(#paint23_linear_500_5825)"/>
<rect x="37.9099" y="76.9094" width="54.8538" height="0.685673" transform="rotate(-45 37.9099 76.9094)" fill="url(#paint24_linear_500_5825)"/>
<rect x="38.8796" y="77.879" width="54.8538" height="0.685673" transform="rotate(-45 38.8796 77.879)" fill="url(#paint25_linear_500_5825)"/>
<rect x="39.8491" y="78.8485" width="54.8538" height="0.685673" transform="rotate(-45 39.8491 78.8485)" fill="url(#paint26_linear_500_5825)"/>
<rect x="40.819" y="79.8187" width="54.8538" height="0.685673" transform="rotate(-45 40.819 79.8187)" fill="url(#paint27_linear_500_5825)"/>
<rect x="41.7887" y="80.7882" width="54.8538" height="0.685673" transform="rotate(-45 41.7887 80.7882)" fill="url(#paint28_linear_500_5825)"/>
<rect x="42.7581" y="81.7578" width="54.8538" height="0.685673" transform="rotate(-45 42.7581 81.7578)" fill="url(#paint29_linear_500_5825)"/>
<rect x="43.728" y="82.7279" width="54.8538" height="0.685673" transform="rotate(-45 43.728 82.7279)" fill="url(#paint30_linear_500_5825)"/>
<rect x="44.6977" y="83.6969" width="54.8538" height="0.685673" transform="rotate(-45 44.6977 83.6969)" fill="url(#paint31_linear_500_5825)"/>
<rect x="45.6674" y="84.6671" width="54.8538" height="0.685673" transform="rotate(-45 45.6674 84.6671)" fill="url(#paint32_linear_500_5825)"/>
<rect x="53.4247" y="85.1515" width="54.8538" height="0.685673" transform="rotate(-135 53.4247 85.1515)" fill="url(#paint33_linear_500_5825)"/>
<rect x="54.3944" y="84.1815" width="54.8538" height="0.685673" transform="rotate(-135 54.3944 84.1815)" fill="url(#paint34_linear_500_5825)"/>
<rect x="55.3641" y="83.2119" width="54.8538" height="0.685673" transform="rotate(-135 55.3641 83.2119)" fill="url(#paint35_linear_500_5825)"/>
<rect x="56.3338" y="82.2418" width="54.8538" height="0.685673" transform="rotate(-135 56.3338 82.2418)" fill="url(#paint36_linear_500_5825)"/>
<rect x="57.3035" y="81.2722" width="54.8538" height="0.685673" transform="rotate(-135 57.3035 81.2722)" fill="url(#paint37_linear_500_5825)"/>
<rect x="58.2728" y="80.3027" width="54.8538" height="0.685673" transform="rotate(-135 58.2728 80.3027)" fill="url(#paint38_linear_500_5825)"/>
<rect x="59.2429" y="79.3331" width="54.8538" height="0.685673" transform="rotate(-135 59.2429 79.3331)" fill="url(#paint39_linear_500_5825)"/>
<rect x="60.2123" y="78.3635" width="54.8538" height="0.685673" transform="rotate(-135 60.2123 78.3635)" fill="url(#paint40_linear_500_5825)"/>
<rect x="61.1821" y="77.3934" width="54.8538" height="0.685673" transform="rotate(-135 61.1821 77.3934)" fill="url(#paint41_linear_500_5825)"/>
<rect x="62.152" y="76.4238" width="54.8538" height="0.685673" transform="rotate(-135 62.152 76.4238)" fill="url(#paint42_linear_500_5825)"/>
<rect x="63.1213" y="75.4543" width="54.8538" height="0.685673" transform="rotate(-135 63.1213 75.4543)" fill="url(#paint43_linear_500_5825)"/>
<rect x="64.0912" y="74.4847" width="54.8538" height="0.685673" transform="rotate(-135 64.0912 74.4847)" fill="url(#paint44_linear_500_5825)"/>
<rect x="65.0609" y="73.5152" width="54.8538" height="0.685673" transform="rotate(-135 65.0609 73.5152)" fill="url(#paint45_linear_500_5825)"/>
<rect x="66.0309" y="72.5444" width="54.8538" height="0.685673" transform="rotate(-135 66.0309 72.5444)" fill="url(#paint46_linear_500_5825)"/>
<rect x="67.0003" y="71.5754" width="54.8538" height="0.685673" transform="rotate(-135 67.0003 71.5754)" fill="url(#paint47_linear_500_5825)"/>
<rect x="67.97" y="70.6059" width="54.8538" height="0.685673" transform="rotate(-135 67.97 70.6059)" fill="url(#paint48_linear_500_5825)"/>
<rect x="68.9397" y="69.6363" width="54.8538" height="0.685673" transform="rotate(-135 68.9397 69.6363)" fill="url(#paint49_linear_500_5825)"/>
<rect x="69.9094" y="68.6662" width="54.8538" height="0.685673" transform="rotate(-135 69.9094 68.6662)" fill="url(#paint50_linear_500_5825)"/>
<rect x="70.879" y="67.696" width="54.8538" height="0.685673" transform="rotate(-135 70.879 67.696)" fill="url(#paint51_linear_500_5825)"/>
<rect x="71.8485" y="66.7276" width="54.8538" height="0.685673" transform="rotate(-135 71.8485 66.7276)" fill="url(#paint52_linear_500_5825)"/>
<rect x="72.8181" y="65.7575" width="54.8538" height="0.685673" transform="rotate(-135 72.8181 65.7575)" fill="url(#paint53_linear_500_5825)"/>
<rect x="73.788" y="64.7873" width="54.8538" height="0.685673" transform="rotate(-135 73.788 64.7873)" fill="url(#paint54_linear_500_5825)"/>
<rect x="74.7579" y="63.8178" width="54.8538" height="0.685673" transform="rotate(-135 74.7579 63.8178)" fill="url(#paint55_linear_500_5825)"/>
<rect x="75.7277" y="62.8476" width="54.8538" height="0.685673" transform="rotate(-135 75.7277 62.8476)" fill="url(#paint56_linear_500_5825)"/>
<rect x="76.6971" y="61.8787" width="54.8538" height="0.685673" transform="rotate(-135 76.6971 61.8787)" fill="url(#paint57_linear_500_5825)"/>
<rect x="77.6667" y="60.9091" width="54.8538" height="0.685673" transform="rotate(-135 77.6667 60.9091)" fill="url(#paint58_linear_500_5825)"/>
<rect x="78.6368" y="59.9389" width="54.8538" height="0.685673" transform="rotate(-135 78.6368 59.9389)" fill="url(#paint59_linear_500_5825)"/>
<rect x="79.6065" y="58.9694" width="54.8538" height="0.685673" transform="rotate(-135 79.6065 58.9694)" fill="url(#paint60_linear_500_5825)"/>
<rect x="80.5764" y="57.9992" width="54.8538" height="0.685673" transform="rotate(-135 80.5764 57.9992)" fill="url(#paint61_linear_500_5825)"/>
<rect x="81.5457" y="57.0303" width="54.8538" height="0.685673" transform="rotate(-135 81.5457 57.0303)" fill="url(#paint62_linear_500_5825)"/>
<rect x="82.5151" y="56.0601" width="54.8538" height="0.685673" transform="rotate(-135 82.5151 56.0601)" fill="url(#paint63_linear_500_5825)"/>
<rect x="83.485" y="55.0906" width="54.8538" height="0.685673" transform="rotate(-135 83.485 55.0906)" fill="url(#paint64_linear_500_5825)"/>
<rect x="84.4547" y="54.121" width="54.8538" height="0.685673" transform="rotate(-135 84.4547 54.121)" fill="url(#paint65_linear_500_5825)"/>
<defs>
<linearGradient id="paint0_linear_500_5825" x1="16.3517" y1="53.6423" x2="16.3821" y2="55.2838" gradientUnits="userSpaceOnUse">
<stop stop-color="white"/>
<stop offset="1" stop-color="white" stop-opacity="0"/>
</linearGradient>
<linearGradient id="paint1_linear_500_5825" x1="17.3214" y1="54.6118" x2="17.3518" y2="56.2533" gradientUnits="userSpaceOnUse">
<stop stop-color="white"/>
<stop offset="1" stop-color="white" stop-opacity="0"/>
</linearGradient>
<linearGradient id="paint2_linear_500_5825" x1="18.2911" y1="55.5808" x2="18.3215" y2="57.2223" gradientUnits="userSpaceOnUse">
<stop stop-color="white"/>
<stop offset="1" stop-color="white" stop-opacity="0"/>
</linearGradient>
<linearGradient id="paint3_linear_500_5825" x1="19.2606" y1="56.551" x2="19.2911" y2="58.1924" gradientUnits="userSpaceOnUse">
<stop stop-color="white"/>
<stop offset="1" stop-color="white" stop-opacity="0"/>
</linearGradient>
<linearGradient id="paint4_linear_500_5825" x1="20.2302" y1="57.5205" x2="20.2607" y2="59.162" gradientUnits="userSpaceOnUse">
<stop stop-color="white"/>
<stop offset="1" stop-color="white" stop-opacity="0"/>
</linearGradient>
<linearGradient id="paint5_linear_500_5825" x1="21.1999" y1="58.4907" x2="21.2303" y2="60.1322" gradientUnits="userSpaceOnUse">
<stop stop-color="white"/>
<stop offset="1" stop-color="white" stop-opacity="0"/>
</linearGradient>
<linearGradient id="paint6_linear_500_5825" x1="22.1697" y1="59.4602" x2="22.2002" y2="61.1017" gradientUnits="userSpaceOnUse">
<stop stop-color="white"/>
<stop offset="1" stop-color="white" stop-opacity="0"/>
</linearGradient>
<linearGradient id="paint7_linear_500_5825" x1="23.1394" y1="60.4298" x2="23.1698" y2="62.0713" gradientUnits="userSpaceOnUse">
<stop stop-color="white"/>
<stop offset="1" stop-color="white" stop-opacity="0"/>
</linearGradient>
<linearGradient id="paint8_linear_500_5825" x1="24.109" y1="61.3993" x2="24.1394" y2="63.0408" gradientUnits="userSpaceOnUse">
<stop stop-color="white"/>
<stop offset="1" stop-color="white" stop-opacity="0"/>
</linearGradient>
<linearGradient id="paint9_linear_500_5825" x1="25.0786" y1="62.3689" x2="25.109" y2="64.0104" gradientUnits="userSpaceOnUse">
<stop stop-color="white"/>
<stop offset="1" stop-color="white" stop-opacity="0"/>
</linearGradient>
<linearGradient id="paint10_linear_500_5825" x1="26.0485" y1="63.3391" x2="26.0789" y2="64.9805" gradientUnits="userSpaceOnUse">
<stop stop-color="white"/>
<stop offset="1" stop-color="white" stop-opacity="0"/>
</linearGradient>
<linearGradient id="paint11_linear_500_5825" x1="27.0181" y1="64.3086" x2="27.0486" y2="65.9501" gradientUnits="userSpaceOnUse">
<stop stop-color="white"/>
<stop offset="1" stop-color="white" stop-opacity="0"/>
</linearGradient>
<linearGradient id="paint12_linear_500_5825" x1="27.9879" y1="65.2782" x2="28.0183" y2="66.9197" gradientUnits="userSpaceOnUse">
<stop stop-color="white"/>
<stop offset="1" stop-color="white" stop-opacity="0"/>
</linearGradient>
<linearGradient id="paint13_linear_500_5825" x1="28.9576" y1="66.2477" x2="28.988" y2="67.8892" gradientUnits="userSpaceOnUse">
<stop stop-color="white"/>
<stop offset="1" stop-color="white" stop-opacity="0"/>
</linearGradient>
<linearGradient id="paint14_linear_500_5825" x1="29.9273" y1="67.2179" x2="29.9577" y2="68.8594" gradientUnits="userSpaceOnUse">
<stop stop-color="white"/>
<stop offset="1" stop-color="white" stop-opacity="0"/>
</linearGradient>
<linearGradient id="paint15_linear_500_5825" x1="30.8972" y1="68.1868" x2="30.9276" y2="69.8283" gradientUnits="userSpaceOnUse">
<stop stop-color="white"/>
<stop offset="1" stop-color="white" stop-opacity="0"/>
</linearGradient>
<linearGradient id="paint16_linear_500_5825" x1="31.8667" y1="69.157" x2="31.8971" y2="70.7985" gradientUnits="userSpaceOnUse">
<stop stop-color="white"/>
<stop offset="1" stop-color="white" stop-opacity="0"/>
</linearGradient>
<linearGradient id="paint17_linear_500_5825" x1="32.8364" y1="70.1272" x2="32.8668" y2="71.7686" gradientUnits="userSpaceOnUse">
<stop stop-color="white"/>
<stop offset="1" stop-color="white" stop-opacity="0"/>
</linearGradient>
<linearGradient id="paint18_linear_500_5825" x1="33.8061" y1="71.0967" x2="33.8365" y2="72.7382" gradientUnits="userSpaceOnUse">
<stop stop-color="white"/>
<stop offset="1" stop-color="white" stop-opacity="0"/>
</linearGradient>
<linearGradient id="paint19_linear_500_5825" x1="34.7756" y1="72.0663" x2="34.8061" y2="73.7078" gradientUnits="userSpaceOnUse">
<stop stop-color="white"/>
<stop offset="1" stop-color="white" stop-opacity="0"/>
</linearGradient>
<linearGradient id="paint20_linear_500_5825" x1="35.7452" y1="73.0358" x2="35.7757" y2="74.6773" gradientUnits="userSpaceOnUse">
<stop stop-color="white"/>
<stop offset="1" stop-color="white" stop-opacity="0"/>
</linearGradient>
<linearGradient id="paint21_linear_500_5825" x1="36.7149" y1="74.0054" x2="36.7453" y2="75.6469" gradientUnits="userSpaceOnUse">
<stop stop-color="white"/>
<stop offset="1" stop-color="white" stop-opacity="0"/>
</linearGradient>
<linearGradient id="paint22_linear_500_5825" x1="37.6846" y1="74.9756" x2="37.7151" y2="76.617" gradientUnits="userSpaceOnUse">
<stop stop-color="white"/>
<stop offset="1" stop-color="white" stop-opacity="0"/>
</linearGradient>
<linearGradient id="paint23_linear_500_5825" x1="38.6545" y1="75.9451" x2="38.6849" y2="77.5866" gradientUnits="userSpaceOnUse">
<stop stop-color="white"/>
<stop offset="1" stop-color="white" stop-opacity="0"/>
</linearGradient>
<linearGradient id="paint24_linear_500_5825" x1="39.624" y1="76.9147" x2="39.6545" y2="78.5561" gradientUnits="userSpaceOnUse">
<stop stop-color="white"/>
<stop offset="1" stop-color="white" stop-opacity="0"/>
</linearGradient>
<linearGradient id="paint25_linear_500_5825" x1="40.5938" y1="77.8842" x2="40.6242" y2="79.5257" gradientUnits="userSpaceOnUse">
<stop stop-color="white"/>
<stop offset="1" stop-color="white" stop-opacity="0"/>
</linearGradient>
<linearGradient id="paint26_linear_500_5825" x1="41.5633" y1="78.8538" x2="41.5937" y2="80.4952" gradientUnits="userSpaceOnUse">
<stop stop-color="white"/>
<stop offset="1" stop-color="white" stop-opacity="0"/>
</linearGradient>
<linearGradient id="paint27_linear_500_5825" x1="42.5332" y1="79.8239" x2="42.5636" y2="81.4654" gradientUnits="userSpaceOnUse">
<stop stop-color="white"/>
<stop offset="1" stop-color="white" stop-opacity="0"/>
</linearGradient>
<linearGradient id="paint28_linear_500_5825" x1="43.5029" y1="80.7935" x2="43.5333" y2="82.435" gradientUnits="userSpaceOnUse">
<stop stop-color="white"/>
<stop offset="1" stop-color="white" stop-opacity="0"/>
</linearGradient>
<linearGradient id="paint29_linear_500_5825" x1="44.4723" y1="81.763" x2="44.5027" y2="83.4045" gradientUnits="userSpaceOnUse">
<stop stop-color="white"/>
<stop offset="1" stop-color="white" stop-opacity="0"/>
</linearGradient>
<linearGradient id="paint30_linear_500_5825" x1="45.4421" y1="82.7332" x2="45.4726" y2="84.3747" gradientUnits="userSpaceOnUse">
<stop stop-color="white"/>
<stop offset="1" stop-color="white" stop-opacity="0"/>
</linearGradient>
<linearGradient id="paint31_linear_500_5825" x1="46.4119" y1="83.7022" x2="46.4423" y2="85.3436" gradientUnits="userSpaceOnUse">
<stop stop-color="white"/>
<stop offset="1" stop-color="white" stop-opacity="0"/>
</linearGradient>
<linearGradient id="paint32_linear_500_5825" x1="47.3815" y1="84.6723" x2="47.412" y2="86.3138" gradientUnits="userSpaceOnUse">
<stop stop-color="white"/>
<stop offset="1" stop-color="white" stop-opacity="0"/>
</linearGradient>
<linearGradient id="paint33_linear_500_5825" x1="107.593" y1="85.1515" x2="107.576" y2="86.4009" gradientUnits="userSpaceOnUse">
<stop stop-color="white"/>
<stop offset="1" stop-color="white" stop-opacity="0"/>
</linearGradient>
<linearGradient id="paint34_linear_500_5825" x1="108.563" y1="84.1815" x2="108.546" y2="85.4309" gradientUnits="userSpaceOnUse">
<stop stop-color="white"/>
<stop offset="1" stop-color="white" stop-opacity="0"/>
</linearGradient>
<linearGradient id="paint35_linear_500_5825" x1="109.532" y1="83.2119" x2="109.516" y2="84.4613" gradientUnits="userSpaceOnUse">
<stop stop-color="white"/>
<stop offset="1" stop-color="white" stop-opacity="0"/>
</linearGradient>
<linearGradient id="paint36_linear_500_5825" x1="110.502" y1="82.2418" x2="110.486" y2="83.4912" gradientUnits="userSpaceOnUse">
<stop stop-color="white"/>
<stop offset="1" stop-color="white" stop-opacity="0"/>
</linearGradient>
<linearGradient id="paint37_linear_500_5825" x1="111.472" y1="81.2722" x2="111.455" y2="82.5216" gradientUnits="userSpaceOnUse">
<stop stop-color="white"/>
<stop offset="1" stop-color="white" stop-opacity="0"/>
</linearGradient>
<linearGradient id="paint38_linear_500_5825" x1="112.441" y1="80.3027" x2="112.425" y2="81.5521" gradientUnits="userSpaceOnUse">
<stop stop-color="white"/>
<stop offset="1" stop-color="white" stop-opacity="0"/>
</linearGradient>
<linearGradient id="paint39_linear_500_5825" x1="113.411" y1="79.3331" x2="113.395" y2="80.5825" gradientUnits="userSpaceOnUse">
<stop stop-color="white"/>
<stop offset="1" stop-color="white" stop-opacity="0"/>
</linearGradient>
<linearGradient id="paint40_linear_500_5825" x1="114.38" y1="78.3635" x2="114.364" y2="79.6129" gradientUnits="userSpaceOnUse">
<stop stop-color="white"/>
<stop offset="1" stop-color="white" stop-opacity="0"/>
</linearGradient>
<linearGradient id="paint41_linear_500_5825" x1="115.35" y1="77.3934" x2="115.334" y2="78.6428" gradientUnits="userSpaceOnUse">
<stop stop-color="white"/>
<stop offset="1" stop-color="white" stop-opacity="0"/>
</linearGradient>
<linearGradient id="paint42_linear_500_5825" x1="116.32" y1="76.4238" x2="116.304" y2="77.6732" gradientUnits="userSpaceOnUse">
<stop stop-color="white"/>
<stop offset="1" stop-color="white" stop-opacity="0"/>
</linearGradient>
<linearGradient id="paint43_linear_500_5825" x1="117.289" y1="75.4543" x2="117.273" y2="76.7037" gradientUnits="userSpaceOnUse">
<stop stop-color="white"/>
<stop offset="1" stop-color="white" stop-opacity="0"/>
</linearGradient>
<linearGradient id="paint44_linear_500_5825" x1="118.259" y1="74.4847" x2="118.243" y2="75.7341" gradientUnits="userSpaceOnUse">
<stop stop-color="white"/>
<stop offset="1" stop-color="white" stop-opacity="0"/>
</linearGradient>
<linearGradient id="paint45_linear_500_5825" x1="119.229" y1="73.5152" x2="119.213" y2="74.7645" gradientUnits="userSpaceOnUse">
<stop stop-color="white"/>
<stop offset="1" stop-color="white" stop-opacity="0"/>
</linearGradient>
<linearGradient id="paint46_linear_500_5825" x1="120.199" y1="72.5444" x2="120.183" y2="73.7938" gradientUnits="userSpaceOnUse">
<stop stop-color="white"/>
<stop offset="1" stop-color="white" stop-opacity="0"/>
</linearGradient>
<linearGradient id="paint47_linear_500_5825" x1="121.168" y1="71.5754" x2="121.152" y2="72.8248" gradientUnits="userSpaceOnUse">
<stop stop-color="white"/>
<stop offset="1" stop-color="white" stop-opacity="0"/>
</linearGradient>
<linearGradient id="paint48_linear_500_5825" x1="122.138" y1="70.6059" x2="122.122" y2="71.8553" gradientUnits="userSpaceOnUse">
<stop stop-color="white"/>
<stop offset="1" stop-color="white" stop-opacity="0"/>
</linearGradient>
<linearGradient id="paint49_linear_500_5825" x1="123.108" y1="69.6363" x2="123.091" y2="70.8857" gradientUnits="userSpaceOnUse">
<stop stop-color="white"/>
<stop offset="1" stop-color="white" stop-opacity="0"/>
</linearGradient>
<linearGradient id="paint50_linear_500_5825" x1="124.078" y1="68.6662" x2="124.061" y2="69.9156" gradientUnits="userSpaceOnUse">
<stop stop-color="white"/>
<stop offset="1" stop-color="white" stop-opacity="0"/>
</linearGradient>
<linearGradient id="paint51_linear_500_5825" x1="125.047" y1="67.696" x2="125.031" y2="68.9454" gradientUnits="userSpaceOnUse">
<stop stop-color="white"/>
<stop offset="1" stop-color="white" stop-opacity="0"/>
</linearGradient>
<linearGradient id="paint52_linear_500_5825" x1="126.017" y1="66.7276" x2="126" y2="67.977" gradientUnits="userSpaceOnUse">
<stop stop-color="white"/>
<stop offset="1" stop-color="white" stop-opacity="0"/>
</linearGradient>
<linearGradient id="paint53_linear_500_5825" x1="126.986" y1="65.7575" x2="126.97" y2="67.0069" gradientUnits="userSpaceOnUse">
<stop stop-color="white"/>
<stop offset="1" stop-color="white" stop-opacity="0"/>
</linearGradient>
<linearGradient id="paint54_linear_500_5825" x1="127.956" y1="64.7873" x2="127.94" y2="66.0367" gradientUnits="userSpaceOnUse">
<stop stop-color="white"/>
<stop offset="1" stop-color="white" stop-opacity="0"/>
</linearGradient>
<linearGradient id="paint55_linear_500_5825" x1="128.926" y1="63.8178" x2="128.91" y2="65.0672" gradientUnits="userSpaceOnUse">
<stop stop-color="white"/>
<stop offset="1" stop-color="white" stop-opacity="0"/>
</linearGradient>
<linearGradient id="paint56_linear_500_5825" x1="129.896" y1="62.8476" x2="129.879" y2="64.097" gradientUnits="userSpaceOnUse">
<stop stop-color="white"/>
<stop offset="1" stop-color="white" stop-opacity="0"/>
</linearGradient>
<linearGradient id="paint57_linear_500_5825" x1="130.865" y1="61.8787" x2="130.849" y2="63.1281" gradientUnits="userSpaceOnUse">
<stop stop-color="white"/>
<stop offset="1" stop-color="white" stop-opacity="0"/>
</linearGradient>
<linearGradient id="paint58_linear_500_5825" x1="131.835" y1="60.9091" x2="131.818" y2="62.1585" gradientUnits="userSpaceOnUse">
<stop stop-color="white"/>
<stop offset="1" stop-color="white" stop-opacity="0"/>
</linearGradient>
<linearGradient id="paint59_linear_500_5825" x1="132.805" y1="59.9389" x2="132.789" y2="61.1883" gradientUnits="userSpaceOnUse">
<stop stop-color="white"/>
<stop offset="1" stop-color="white" stop-opacity="0"/>
</linearGradient>
<linearGradient id="paint60_linear_500_5825" x1="133.775" y1="58.9694" x2="133.758" y2="60.2188" gradientUnits="userSpaceOnUse">
<stop stop-color="white"/>
<stop offset="1" stop-color="white" stop-opacity="0"/>
</linearGradient>
<linearGradient id="paint61_linear_500_5825" x1="134.745" y1="57.9992" x2="134.728" y2="59.2486" gradientUnits="userSpaceOnUse">
<stop stop-color="white"/>
<stop offset="1" stop-color="white" stop-opacity="0"/>
</linearGradient>
<linearGradient id="paint62_linear_500_5825" x1="135.714" y1="57.0303" x2="135.697" y2="58.2797" gradientUnits="userSpaceOnUse">
<stop stop-color="white"/>
<stop offset="1" stop-color="white" stop-opacity="0"/>
</linearGradient>
<linearGradient id="paint63_linear_500_5825" x1="136.683" y1="56.0601" x2="136.667" y2="57.3095" gradientUnits="userSpaceOnUse">
<stop stop-color="white"/>
<stop offset="1" stop-color="white" stop-opacity="0"/>
</linearGradient>
<linearGradient id="paint64_linear_500_5825" x1="137.653" y1="55.0906" x2="137.637" y2="56.34" gradientUnits="userSpaceOnUse">
<stop stop-color="white"/>
<stop offset="1" stop-color="white" stop-opacity="0"/>
</linearGradient>
<linearGradient id="paint65_linear_500_5825" x1="138.623" y1="54.121" x2="138.606" y2="55.3704" gradientUnits="userSpaceOnUse">
<stop stop-color="white"/>
<stop offset="1" stop-color="white" stop-opacity="0"/>
</linearGradient>
</defs>
</svg>
