<svg width="100" height="100" viewBox="0 0 100 100" fill="none" xmlns="http://www.w3.org/2000/svg">
<path d="M11 24.1182L18.8333 28.6533L18.8333 37.1737L11 32.6386L11 24.1182Z" fill="url(#paint0_linear_500_6109)"/>
<path d="M18.8333 28.6534L26.6667 24.1183L26.6667 32.6388L18.8333 37.1738L18.8333 28.6534Z" fill="url(#paint1_linear_500_6109)"/>
<path d="M11 24.0555L18.8333 19.5204L18.8333 10.9999L11 15.535L11 24.0555Z" fill="url(#paint2_linear_500_6109)"/>
<path d="M18.8333 19.5205L26.6667 24.0555L26.6667 15.5351L18.8333 11L18.8333 19.5205Z" fill="url(#paint3_linear_500_6109)"/>
<path d="M26.6667 24.1182L34.5 28.6533L34.5 37.1737L26.6667 32.6386L26.6667 24.1182Z" fill="url(#paint4_linear_500_6109)"/>
<path d="M34.5 28.6534L42.3333 24.1183L42.3333 32.6388L34.5 37.1738L34.5 28.6534Z" fill="url(#paint5_linear_500_6109)"/>
<path d="M26.6667 24.0555L34.5 19.5204L34.5 10.9999L26.6667 15.535L26.6667 24.0555Z" fill="url(#paint6_linear_500_6109)"/>
<path d="M34.5 19.5205L42.3333 24.0555L42.3333 15.5351L34.5 11L34.5 19.5205Z" fill="url(#paint7_linear_500_6109)"/>
<path d="M42.3333 24.1182L50.1667 28.6533L50.1667 37.1737L42.3333 32.6386L42.3333 24.1182Z" fill="url(#paint8_linear_500_6109)"/>
<path d="M50.1667 28.6534L58 24.1183L58 32.6388L50.1667 37.1738L50.1667 28.6534Z" fill="url(#paint9_linear_500_6109)"/>
<path d="M42.3333 24.0555L50.1667 19.5204L50.1667 10.9999L42.3333 15.535L42.3333 24.0555Z" fill="url(#paint10_linear_500_6109)"/>
<path d="M50.1667 19.5205L58 24.0555L58 15.5351L50.1667 11L50.1667 19.5205Z" fill="url(#paint11_linear_500_6109)"/>
<path d="M58 24.1182L65.8333 28.6533L65.8333 37.1737L58 32.6386L58 24.1182Z" fill="url(#paint12_linear_500_6109)"/>
<path d="M65.8334 28.6534L73.6667 24.1183L73.6667 32.6388L65.8334 37.1738L65.8334 28.6534Z" fill="url(#paint13_linear_500_6109)"/>
<path d="M58 24.0555L65.8333 19.5204L65.8333 10.9999L58 15.535L58 24.0555Z" fill="url(#paint14_linear_500_6109)"/>
<path d="M65.8334 19.5205L73.6667 24.0555L73.6667 15.5351L65.8334 11L65.8334 19.5205Z" fill="url(#paint15_linear_500_6109)"/>
<path d="M73.6667 24.1182L81.5 28.6533L81.5 37.1737L73.6667 32.6386L73.6667 24.1182Z" fill="url(#paint16_linear_500_6109)"/>
<path d="M81.5 28.6534L89.3334 24.1183L89.3334 32.6388L81.5 37.1738L81.5 28.6534Z" fill="url(#paint17_linear_500_6109)"/>
<path d="M73.6667 24.0555L81.5 19.5204L81.5 10.9999L73.6667 15.535L73.6667 24.0555Z" fill="url(#paint18_linear_500_6109)"/>
<path d="M81.5 19.5205L89.3334 24.0555L89.3334 15.5351L81.5 11L81.5 19.5205Z" fill="url(#paint19_linear_500_6109)"/>
<path d="M11 50.2923L18.8333 54.8274L18.8333 63.3478L11 58.8127L11 50.2923Z" fill="url(#paint20_linear_500_6109)"/>
<path d="M18.8333 54.8274L26.6667 50.2923L26.6667 58.8127L18.8333 63.3478L18.8333 54.8274Z" fill="url(#paint21_linear_500_6109)"/>
<path d="M11 50.2294L18.8333 45.6943L18.8333 37.1738L11 41.7089L11 50.2294Z" fill="url(#paint22_linear_500_6109)"/>
<path d="M18.8333 45.6943L26.6666 50.2294L26.6666 41.7089L18.8333 37.1738L18.8333 45.6943Z" fill="url(#paint23_linear_500_6109)"/>
<path d="M26.6667 50.2923L34.5 54.8274L34.5 63.3478L26.6667 58.8127L26.6667 50.2923Z" fill="url(#paint24_linear_500_6109)"/>
<path d="M34.5 54.8274L42.3333 50.2923L42.3333 58.8127L34.5 63.3478L34.5 54.8274Z" fill="url(#paint25_linear_500_6109)"/>
<path d="M26.6667 50.2294L34.5 45.6943L34.5 37.1738L26.6667 41.7089L26.6667 50.2294Z" fill="url(#paint26_linear_500_6109)"/>
<path d="M34.5 45.6943L42.3333 50.2294L42.3333 41.7089L34.5 37.1738L34.5 45.6943Z" fill="url(#paint27_linear_500_6109)"/>
<path d="M42.3333 50.2923L50.1667 54.8274L50.1667 63.3478L42.3333 58.8127L42.3333 50.2923Z" fill="url(#paint28_linear_500_6109)"/>
<path d="M50.1667 54.8274L58 50.2923L58 58.8127L50.1667 63.3478L50.1667 54.8274Z" fill="url(#paint29_linear_500_6109)"/>
<path d="M42.3333 50.2294L50.1667 45.6943L50.1667 37.1738L42.3333 41.7089L42.3333 50.2294Z" fill="url(#paint30_linear_500_6109)"/>
<path d="M50.1667 45.6943L58.0001 50.2294L58.0001 41.7089L50.1667 37.1738L50.1667 45.6943Z" fill="url(#paint31_linear_500_6109)"/>
<path d="M58 50.2923L65.8333 54.8274L65.8333 63.3478L58 58.8127L58 50.2923Z" fill="url(#paint32_linear_500_6109)"/>
<path d="M65.8334 54.8274L73.6667 50.2923L73.6667 58.8127L65.8334 63.3478L65.8334 54.8274Z" fill="url(#paint33_linear_500_6109)"/>
<path d="M58 50.2294L65.8333 45.6943L65.8333 37.1738L58 41.7089L58 50.2294Z" fill="url(#paint34_linear_500_6109)"/>
<path d="M65.8334 45.6943L73.6667 50.2294L73.6667 41.7089L65.8334 37.1738L65.8334 45.6943Z" fill="url(#paint35_linear_500_6109)"/>
<path d="M73.6667 50.2923L81.5 54.8274L81.5 63.3478L73.6667 58.8127L73.6667 50.2923Z" fill="url(#paint36_linear_500_6109)"/>
<path d="M81.5 54.8274L89.3334 50.2923L89.3334 58.8127L81.5 63.3478L81.5 54.8274Z" fill="url(#paint37_linear_500_6109)"/>
<path d="M73.6667 50.2294L81.5 45.6943L81.5 37.1738L73.6667 41.7089L73.6667 50.2294Z" fill="url(#paint38_linear_500_6109)"/>
<path d="M81.5001 45.6943L89.3334 50.2294L89.3334 41.7089L81.5001 37.1738L81.5001 45.6943Z" fill="url(#paint39_linear_500_6109)"/>
<path d="M11 76.4661L18.8333 81.0012L18.8333 89.5216L11 84.9865L11 76.4661Z" fill="url(#paint40_linear_500_6109)"/>
<path d="M18.8333 81.0013L26.6667 76.4662L26.6667 84.9867L18.8333 89.5217L18.8333 81.0013Z" fill="url(#paint41_linear_500_6109)"/>
<path d="M11 76.4034L18.8333 71.8683L18.8333 63.3478L11 67.8829L11 76.4034Z" fill="url(#paint42_linear_500_6109)"/>
<path d="M18.8333 71.8682L26.6667 76.4033L26.6667 67.8828L18.8333 63.3477L18.8333 71.8682Z" fill="url(#paint43_linear_500_6109)"/>
<path d="M26.6667 76.4661L34.5 81.0012L34.5 89.5216L26.6667 84.9865L26.6667 76.4661Z" fill="url(#paint44_linear_500_6109)"/>
<path d="M34.5 81.0013L42.3333 76.4662L42.3333 84.9867L34.5 89.5217L34.5 81.0013Z" fill="url(#paint45_linear_500_6109)"/>
<path d="M26.6667 76.4034L34.5 71.8683L34.5 63.3478L26.6667 67.8829L26.6667 76.4034Z" fill="url(#paint46_linear_500_6109)"/>
<path d="M34.5 71.8682L42.3333 76.4033L42.3333 67.8828L34.5 63.3477L34.5 71.8682Z" fill="url(#paint47_linear_500_6109)"/>
<path d="M42.3333 76.4661L50.1667 81.0012L50.1667 89.5216L42.3333 84.9865L42.3333 76.4661Z" fill="url(#paint48_linear_500_6109)"/>
<path d="M50.1667 81.0013L58 76.4662L58 84.9867L50.1667 89.5217L50.1667 81.0013Z" fill="url(#paint49_linear_500_6109)"/>
<path d="M42.3333 76.4034L50.1667 71.8683L50.1667 63.3478L42.3333 67.8829L42.3333 76.4034Z" fill="url(#paint50_linear_500_6109)"/>
<path d="M50.1667 71.8682L58 76.4033L58 67.8828L50.1667 63.3477L50.1667 71.8682Z" fill="url(#paint51_linear_500_6109)"/>
<path d="M58 76.4661L65.8333 81.0012L65.8333 89.5216L58 84.9866L58 76.4661Z" fill="url(#paint52_linear_500_6109)"/>
<path d="M65.8334 81.0012L73.6667 76.4661L73.6667 84.9866L65.8334 89.5217L65.8334 81.0012Z" fill="url(#paint53_linear_500_6109)"/>
<path d="M58 76.4032L65.8333 71.8681L65.8333 63.3477L58 67.8828L58 76.4032Z" fill="url(#paint54_linear_500_6109)"/>
<path d="M65.8334 71.8681L73.6667 76.4032L73.6667 67.8827L65.8334 63.3476L65.8334 71.8681Z" fill="url(#paint55_linear_500_6109)"/>
<path d="M73.6667 76.4661L81.5 81.0012L81.5 89.5216L73.6667 84.9866L73.6667 76.4661Z" fill="url(#paint56_linear_500_6109)"/>
<path d="M81.5 81.0012L89.3334 76.4661L89.3334 84.9866L81.5 89.5217L81.5 81.0012Z" fill="url(#paint57_linear_500_6109)"/>
<path d="M73.6667 76.4032L81.5 71.8681L81.5 63.3477L73.6667 67.8828L73.6667 76.4032Z" fill="url(#paint58_linear_500_6109)"/>
<path d="M81.5001 71.8681L89.3334 76.4032L89.3334 67.8827L81.5001 63.3476L81.5001 71.8681Z" fill="url(#paint59_linear_500_6109)"/>
<defs>
<linearGradient id="paint0_linear_500_6109" x1="17.112" y1="24.0553" x2="9.26124" y2="28.6161" gradientUnits="userSpaceOnUse">
<stop stop-color="#353535"/>
<stop offset="1" stop-color="white"/>
</linearGradient>
<linearGradient id="paint1_linear_500_6109" x1="21.4351" y1="26.1424" x2="24.3538" y2="34.2962" gradientUnits="userSpaceOnUse">
<stop stop-color="#5F5C5B"/>
<stop offset="1" stop-color="white"/>
</linearGradient>
<linearGradient id="paint2_linear_500_6109" x1="12.7995" y1="23.1919" x2="10.1482" y2="12.5492" gradientUnits="userSpaceOnUse">
<stop stop-color="white"/>
<stop offset="1" stop-color="#5F5F5F"/>
</linearGradient>
<linearGradient id="paint3_linear_500_6109" x1="20.1036" y1="19.6987" x2="26.5115" y2="18.3173" gradientUnits="userSpaceOnUse">
<stop stop-color="white"/>
<stop offset="1" stop-color="#4E4E4E"/>
</linearGradient>
<linearGradient id="paint4_linear_500_6109" x1="32.7787" y1="24.0553" x2="24.9279" y2="28.6161" gradientUnits="userSpaceOnUse">
<stop stop-color="#353535"/>
<stop offset="1" stop-color="white"/>
</linearGradient>
<linearGradient id="paint5_linear_500_6109" x1="37.1018" y1="26.1424" x2="40.0205" y2="34.2962" gradientUnits="userSpaceOnUse">
<stop stop-color="#5F5C5B"/>
<stop offset="1" stop-color="white"/>
</linearGradient>
<linearGradient id="paint6_linear_500_6109" x1="28.4662" y1="23.1919" x2="25.8149" y2="12.5492" gradientUnits="userSpaceOnUse">
<stop stop-color="white"/>
<stop offset="1" stop-color="#5F5F5F"/>
</linearGradient>
<linearGradient id="paint7_linear_500_6109" x1="35.7702" y1="19.6987" x2="42.1782" y2="18.3173" gradientUnits="userSpaceOnUse">
<stop stop-color="white"/>
<stop offset="1" stop-color="#4E4E4E"/>
</linearGradient>
<linearGradient id="paint8_linear_500_6109" x1="48.4453" y1="24.0553" x2="40.5946" y2="28.6161" gradientUnits="userSpaceOnUse">
<stop stop-color="#353535"/>
<stop offset="1" stop-color="white"/>
</linearGradient>
<linearGradient id="paint9_linear_500_6109" x1="52.7685" y1="26.1424" x2="55.6872" y2="34.2962" gradientUnits="userSpaceOnUse">
<stop stop-color="#5F5C5B"/>
<stop offset="1" stop-color="white"/>
</linearGradient>
<linearGradient id="paint10_linear_500_6109" x1="44.1329" y1="23.1919" x2="41.4816" y2="12.5492" gradientUnits="userSpaceOnUse">
<stop stop-color="white"/>
<stop offset="1" stop-color="#5F5F5F"/>
</linearGradient>
<linearGradient id="paint11_linear_500_6109" x1="51.437" y1="19.6987" x2="57.8449" y2="18.3173" gradientUnits="userSpaceOnUse">
<stop stop-color="white"/>
<stop offset="1" stop-color="#4E4E4E"/>
</linearGradient>
<linearGradient id="paint12_linear_500_6109" x1="64.112" y1="24.0553" x2="56.2612" y2="28.6161" gradientUnits="userSpaceOnUse">
<stop stop-color="#353535"/>
<stop offset="1" stop-color="white"/>
</linearGradient>
<linearGradient id="paint13_linear_500_6109" x1="68.4352" y1="26.1424" x2="71.3538" y2="34.2962" gradientUnits="userSpaceOnUse">
<stop stop-color="#5F5C5B"/>
<stop offset="1" stop-color="white"/>
</linearGradient>
<linearGradient id="paint14_linear_500_6109" x1="59.7996" y1="23.1919" x2="57.1483" y2="12.5492" gradientUnits="userSpaceOnUse">
<stop stop-color="white"/>
<stop offset="1" stop-color="#5F5F5F"/>
</linearGradient>
<linearGradient id="paint15_linear_500_6109" x1="67.1036" y1="19.6987" x2="73.5116" y2="18.3173" gradientUnits="userSpaceOnUse">
<stop stop-color="white"/>
<stop offset="1" stop-color="#4E4E4E"/>
</linearGradient>
<linearGradient id="paint16_linear_500_6109" x1="79.7787" y1="24.0553" x2="71.9279" y2="28.6161" gradientUnits="userSpaceOnUse">
<stop stop-color="#353535"/>
<stop offset="1" stop-color="white"/>
</linearGradient>
<linearGradient id="paint17_linear_500_6109" x1="84.1018" y1="26.1424" x2="87.0205" y2="34.2962" gradientUnits="userSpaceOnUse">
<stop stop-color="#5F5C5B"/>
<stop offset="1" stop-color="white"/>
</linearGradient>
<linearGradient id="paint18_linear_500_6109" x1="75.4662" y1="23.1919" x2="72.8149" y2="12.5492" gradientUnits="userSpaceOnUse">
<stop stop-color="white"/>
<stop offset="1" stop-color="#5F5F5F"/>
</linearGradient>
<linearGradient id="paint19_linear_500_6109" x1="82.7703" y1="19.6987" x2="89.1783" y2="18.3173" gradientUnits="userSpaceOnUse">
<stop stop-color="white"/>
<stop offset="1" stop-color="#4E4E4E"/>
</linearGradient>
<linearGradient id="paint20_linear_500_6109" x1="17.112" y1="50.2294" x2="9.26124" y2="54.7902" gradientUnits="userSpaceOnUse">
<stop stop-color="#353535"/>
<stop offset="1" stop-color="white"/>
</linearGradient>
<linearGradient id="paint21_linear_500_6109" x1="21.4351" y1="52.3164" x2="24.3538" y2="60.4701" gradientUnits="userSpaceOnUse">
<stop stop-color="#5F5C5B"/>
<stop offset="1" stop-color="white"/>
</linearGradient>
<linearGradient id="paint22_linear_500_6109" x1="12.7995" y1="49.3658" x2="10.1482" y2="38.7231" gradientUnits="userSpaceOnUse">
<stop stop-color="white"/>
<stop offset="1" stop-color="#5F5F5F"/>
</linearGradient>
<linearGradient id="paint23_linear_500_6109" x1="20.1036" y1="45.8725" x2="26.5115" y2="44.4911" gradientUnits="userSpaceOnUse">
<stop stop-color="white"/>
<stop offset="1" stop-color="#4E4E4E"/>
</linearGradient>
<linearGradient id="paint24_linear_500_6109" x1="32.7787" y1="50.2294" x2="24.9279" y2="54.7902" gradientUnits="userSpaceOnUse">
<stop stop-color="#353535"/>
<stop offset="1" stop-color="white"/>
</linearGradient>
<linearGradient id="paint25_linear_500_6109" x1="37.1018" y1="52.3164" x2="40.0205" y2="60.4701" gradientUnits="userSpaceOnUse">
<stop stop-color="#5F5C5B"/>
<stop offset="1" stop-color="white"/>
</linearGradient>
<linearGradient id="paint26_linear_500_6109" x1="28.4662" y1="49.3658" x2="25.8149" y2="38.7231" gradientUnits="userSpaceOnUse">
<stop stop-color="white"/>
<stop offset="1" stop-color="#5F5F5F"/>
</linearGradient>
<linearGradient id="paint27_linear_500_6109" x1="35.7702" y1="45.8725" x2="42.1782" y2="44.4911" gradientUnits="userSpaceOnUse">
<stop stop-color="white"/>
<stop offset="1" stop-color="#4E4E4E"/>
</linearGradient>
<linearGradient id="paint28_linear_500_6109" x1="48.4453" y1="50.2294" x2="40.5946" y2="54.7902" gradientUnits="userSpaceOnUse">
<stop stop-color="#353535"/>
<stop offset="1" stop-color="white"/>
</linearGradient>
<linearGradient id="paint29_linear_500_6109" x1="52.7685" y1="52.3164" x2="55.6872" y2="60.4701" gradientUnits="userSpaceOnUse">
<stop stop-color="#5F5C5B"/>
<stop offset="1" stop-color="white"/>
</linearGradient>
<linearGradient id="paint30_linear_500_6109" x1="44.1329" y1="49.3658" x2="41.4816" y2="38.7231" gradientUnits="userSpaceOnUse">
<stop stop-color="white"/>
<stop offset="1" stop-color="#5F5F5F"/>
</linearGradient>
<linearGradient id="paint31_linear_500_6109" x1="51.437" y1="45.8725" x2="57.8449" y2="44.4911" gradientUnits="userSpaceOnUse">
<stop stop-color="white"/>
<stop offset="1" stop-color="#4E4E4E"/>
</linearGradient>
<linearGradient id="paint32_linear_500_6109" x1="64.112" y1="50.2294" x2="56.2613" y2="54.7902" gradientUnits="userSpaceOnUse">
<stop stop-color="#353535"/>
<stop offset="1" stop-color="white"/>
</linearGradient>
<linearGradient id="paint33_linear_500_6109" x1="68.4352" y1="52.3164" x2="71.3538" y2="60.4701" gradientUnits="userSpaceOnUse">
<stop stop-color="#5F5C5B"/>
<stop offset="1" stop-color="white"/>
</linearGradient>
<linearGradient id="paint34_linear_500_6109" x1="59.7996" y1="49.3658" x2="57.1483" y2="38.7231" gradientUnits="userSpaceOnUse">
<stop stop-color="white"/>
<stop offset="1" stop-color="#5F5F5F"/>
</linearGradient>
<linearGradient id="paint35_linear_500_6109" x1="67.1037" y1="45.8725" x2="73.5116" y2="44.4911" gradientUnits="userSpaceOnUse">
<stop stop-color="white"/>
<stop offset="1" stop-color="#4E4E4E"/>
</linearGradient>
<linearGradient id="paint36_linear_500_6109" x1="79.7787" y1="50.2294" x2="71.9279" y2="54.7902" gradientUnits="userSpaceOnUse">
<stop stop-color="#353535"/>
<stop offset="1" stop-color="white"/>
</linearGradient>
<linearGradient id="paint37_linear_500_6109" x1="84.1018" y1="52.3164" x2="87.0205" y2="60.4701" gradientUnits="userSpaceOnUse">
<stop stop-color="#5F5C5B"/>
<stop offset="1" stop-color="white"/>
</linearGradient>
<linearGradient id="paint38_linear_500_6109" x1="75.4662" y1="49.3658" x2="72.8149" y2="38.7231" gradientUnits="userSpaceOnUse">
<stop stop-color="white"/>
<stop offset="1" stop-color="#5F5F5F"/>
</linearGradient>
<linearGradient id="paint39_linear_500_6109" x1="82.7703" y1="45.8725" x2="89.1783" y2="44.4911" gradientUnits="userSpaceOnUse">
<stop stop-color="white"/>
<stop offset="1" stop-color="#4E4E4E"/>
</linearGradient>
<linearGradient id="paint40_linear_500_6109" x1="17.112" y1="76.4032" x2="9.26124" y2="80.964" gradientUnits="userSpaceOnUse">
<stop stop-color="#353535"/>
<stop offset="1" stop-color="white"/>
</linearGradient>
<linearGradient id="paint41_linear_500_6109" x1="21.4351" y1="78.4903" x2="24.3538" y2="86.6441" gradientUnits="userSpaceOnUse">
<stop stop-color="#5F5C5B"/>
<stop offset="1" stop-color="white"/>
</linearGradient>
<linearGradient id="paint42_linear_500_6109" x1="12.7995" y1="75.5398" x2="10.1482" y2="64.8971" gradientUnits="userSpaceOnUse">
<stop stop-color="white"/>
<stop offset="1" stop-color="#5F5F5F"/>
</linearGradient>
<linearGradient id="paint43_linear_500_6109" x1="20.1036" y1="72.0465" x2="26.5115" y2="70.665" gradientUnits="userSpaceOnUse">
<stop stop-color="white"/>
<stop offset="1" stop-color="#4E4E4E"/>
</linearGradient>
<linearGradient id="paint44_linear_500_6109" x1="32.7787" y1="76.4032" x2="24.9279" y2="80.964" gradientUnits="userSpaceOnUse">
<stop stop-color="#353535"/>
<stop offset="1" stop-color="white"/>
</linearGradient>
<linearGradient id="paint45_linear_500_6109" x1="37.1018" y1="78.4903" x2="40.0205" y2="86.6441" gradientUnits="userSpaceOnUse">
<stop stop-color="#5F5C5B"/>
<stop offset="1" stop-color="white"/>
</linearGradient>
<linearGradient id="paint46_linear_500_6109" x1="28.4662" y1="75.5398" x2="25.8149" y2="64.8971" gradientUnits="userSpaceOnUse">
<stop stop-color="white"/>
<stop offset="1" stop-color="#5F5F5F"/>
</linearGradient>
<linearGradient id="paint47_linear_500_6109" x1="35.7703" y1="72.0465" x2="42.1782" y2="70.665" gradientUnits="userSpaceOnUse">
<stop stop-color="white"/>
<stop offset="1" stop-color="#4E4E4E"/>
</linearGradient>
<linearGradient id="paint48_linear_500_6109" x1="48.4453" y1="76.4032" x2="40.5946" y2="80.964" gradientUnits="userSpaceOnUse">
<stop stop-color="#353535"/>
<stop offset="1" stop-color="white"/>
</linearGradient>
<linearGradient id="paint49_linear_500_6109" x1="52.7684" y1="78.4903" x2="55.6871" y2="86.6441" gradientUnits="userSpaceOnUse">
<stop stop-color="#5F5C5B"/>
<stop offset="1" stop-color="white"/>
</linearGradient>
<linearGradient id="paint50_linear_500_6109" x1="44.1329" y1="75.5398" x2="41.4816" y2="64.8971" gradientUnits="userSpaceOnUse">
<stop stop-color="white"/>
<stop offset="1" stop-color="#5F5F5F"/>
</linearGradient>
<linearGradient id="paint51_linear_500_6109" x1="51.437" y1="72.0465" x2="57.8449" y2="70.665" gradientUnits="userSpaceOnUse">
<stop stop-color="white"/>
<stop offset="1" stop-color="#4E4E4E"/>
</linearGradient>
<linearGradient id="paint52_linear_500_6109" x1="64.112" y1="76.4032" x2="56.2613" y2="80.964" gradientUnits="userSpaceOnUse">
<stop stop-color="#353535"/>
<stop offset="1" stop-color="white"/>
</linearGradient>
<linearGradient id="paint53_linear_500_6109" x1="68.4352" y1="78.4902" x2="71.3538" y2="86.644" gradientUnits="userSpaceOnUse">
<stop stop-color="#5F5C5B"/>
<stop offset="1" stop-color="white"/>
</linearGradient>
<linearGradient id="paint54_linear_500_6109" x1="59.7996" y1="75.5396" x2="57.1483" y2="64.8969" gradientUnits="userSpaceOnUse">
<stop stop-color="white"/>
<stop offset="1" stop-color="#5F5F5F"/>
</linearGradient>
<linearGradient id="paint55_linear_500_6109" x1="67.1037" y1="72.0464" x2="73.5116" y2="70.6649" gradientUnits="userSpaceOnUse">
<stop stop-color="white"/>
<stop offset="1" stop-color="#4E4E4E"/>
</linearGradient>
<linearGradient id="paint56_linear_500_6109" x1="79.7787" y1="76.4032" x2="71.9279" y2="80.964" gradientUnits="userSpaceOnUse">
<stop stop-color="#353535"/>
<stop offset="1" stop-color="white"/>
</linearGradient>
<linearGradient id="paint57_linear_500_6109" x1="84.1018" y1="78.4902" x2="87.0205" y2="86.644" gradientUnits="userSpaceOnUse">
<stop stop-color="#5F5C5B"/>
<stop offset="1" stop-color="white"/>
</linearGradient>
<linearGradient id="paint58_linear_500_6109" x1="75.4662" y1="75.5396" x2="72.8149" y2="64.8969" gradientUnits="userSpaceOnUse">
<stop stop-color="white"/>
<stop offset="1" stop-color="#5F5F5F"/>
</linearGradient>
<linearGradient id="paint59_linear_500_6109" x1="82.7703" y1="72.0464" x2="89.1783" y2="70.6649" gradientUnits="userSpaceOnUse">
<stop stop-color="white"/>
<stop offset="1" stop-color="#4E4E4E"/>
</linearGradient>
</defs>
</svg>
