<svg width="100" height="100" viewBox="0 0 100 100" fill="none" xmlns="http://www.w3.org/2000/svg">
<path fill-rule="evenodd" clip-rule="evenodd" d="M38 38H62V62H38V38ZM39 39H61V61H39V39Z" fill="url(#paint0_radial_500_6908)"/>
<path fill-rule="evenodd" clip-rule="evenodd" d="M34 34V66H66V34H34ZM65 35H35V65H65V35Z" fill="url(#paint1_radial_500_6908)"/>
<path fill-rule="evenodd" clip-rule="evenodd" d="M30 30H70V70H30V30ZM31 31H69V69H31V31Z" fill="url(#paint2_radial_500_6908)"/>
<path fill-rule="evenodd" clip-rule="evenodd" d="M26 26V74H74V26H26ZM73 27H27V73H73V27Z" fill="url(#paint3_radial_500_6908)"/>
<path fill-rule="evenodd" clip-rule="evenodd" d="M22 22V78H78V22H22ZM77 23H23V77H77V23Z" fill="url(#paint4_radial_500_6908)"/>
<path fill-rule="evenodd" clip-rule="evenodd" d="M33.0294 50L50 33.0295L66.9705 50L50 66.9706L33.0294 50ZM34.4436 50L50 34.4437L65.5563 50L50 65.5564L34.4436 50Z" fill="url(#paint5_radial_500_6908)"/>
<path fill-rule="evenodd" clip-rule="evenodd" d="M27.3726 50L50 72.6274L72.6274 50L50 27.3726L27.3726 50ZM50 28.7868L28.7868 50L50 71.2132L71.2132 50L50 28.7868Z" fill="url(#paint6_radial_500_6908)"/>
<path fill-rule="evenodd" clip-rule="evenodd" d="M21.7157 50L50 21.7157L78.2842 50L50 78.2843L21.7157 50ZM23.1299 50L50 23.13L76.87 50L50 76.8701L23.1299 50Z" fill="url(#paint7_radial_500_6908)"/>
<path fill-rule="evenodd" clip-rule="evenodd" d="M16.0588 50L50 83.9411L83.9411 50L50 16.0589L16.0588 50ZM50 17.4731L17.4731 50L50 82.5269L82.5269 50L50 17.4731Z" fill="url(#paint8_radial_500_6908)"/>
<path fill-rule="evenodd" clip-rule="evenodd" d="M10.402 50L50 89.598L89.5979 50L50 10.402L10.402 50ZM50 11.8163L11.8162 50L50 88.1838L88.1837 50L50 11.8163Z" fill="url(#paint9_radial_500_6908)"/>
<defs>
<radialGradient id="paint0_radial_500_6908" cx="0" cy="0" r="1" gradientUnits="userSpaceOnUse" gradientTransform="translate(53.25 52.5) rotate(90.3769) scale(38.0008)">
<stop stop-color="white"/>
<stop offset="1" stop-color="white" stop-opacity="0"/>
</radialGradient>
<radialGradient id="paint1_radial_500_6908" cx="0" cy="0" r="1" gradientUnits="userSpaceOnUse" gradientTransform="translate(53.25 52.5) rotate(90.3769) scale(38.0008)">
<stop stop-color="white"/>
<stop offset="1" stop-color="white" stop-opacity="0"/>
</radialGradient>
<radialGradient id="paint2_radial_500_6908" cx="0" cy="0" r="1" gradientUnits="userSpaceOnUse" gradientTransform="translate(53.25 52.5) rotate(90.3769) scale(38.0008)">
<stop stop-color="white"/>
<stop offset="1" stop-color="white" stop-opacity="0"/>
</radialGradient>
<radialGradient id="paint3_radial_500_6908" cx="0" cy="0" r="1" gradientUnits="userSpaceOnUse" gradientTransform="translate(53.25 52.5) rotate(90.3769) scale(38.0008)">
<stop stop-color="white"/>
<stop offset="1" stop-color="white" stop-opacity="0"/>
</radialGradient>
<radialGradient id="paint4_radial_500_6908" cx="0" cy="0" r="1" gradientUnits="userSpaceOnUse" gradientTransform="translate(53.25 52.5) rotate(90.3769) scale(38.0008)">
<stop stop-color="white"/>
<stop offset="1" stop-color="white" stop-opacity="0"/>
</radialGradient>
<radialGradient id="paint5_radial_500_6908" cx="0" cy="0" r="1" gradientUnits="userSpaceOnUse" gradientTransform="translate(50 51.9999) rotate(57.5288) scale(39.1152 39.1152)">
<stop stop-color="white"/>
<stop offset="1" stop-color="white" stop-opacity="0"/>
</radialGradient>
<radialGradient id="paint6_radial_500_6908" cx="0" cy="0" r="1" gradientUnits="userSpaceOnUse" gradientTransform="translate(50 51.9999) rotate(57.5288) scale(39.1152 39.1152)">
<stop stop-color="white"/>
<stop offset="1" stop-color="white" stop-opacity="0"/>
</radialGradient>
<radialGradient id="paint7_radial_500_6908" cx="0" cy="0" r="1" gradientUnits="userSpaceOnUse" gradientTransform="translate(50 51.9999) rotate(57.5288) scale(39.1152 39.1152)">
<stop stop-color="white"/>
<stop offset="1" stop-color="white" stop-opacity="0"/>
</radialGradient>
<radialGradient id="paint8_radial_500_6908" cx="0" cy="0" r="1" gradientUnits="userSpaceOnUse" gradientTransform="translate(50 51.9999) rotate(57.5288) scale(39.1152 39.1152)">
<stop stop-color="white"/>
<stop offset="1" stop-color="white" stop-opacity="0"/>
</radialGradient>
<radialGradient id="paint9_radial_500_6908" cx="0" cy="0" r="1" gradientUnits="userSpaceOnUse" gradientTransform="translate(50 51.9999) rotate(57.5288) scale(39.1152 39.1152)">
<stop stop-color="white"/>
<stop offset="1" stop-color="white" stop-opacity="0"/>
</radialGradient>
</defs>
</svg>
