<svg width="100" height="100" viewBox="0 0 100 100" fill="none" xmlns="http://www.w3.org/2000/svg">
<path d="M50 8L59 26H41L50 8Z" fill="url(#paint0_linear_500_6347)"/>
<path d="M50 44L59 26H41L50 44Z" fill="url(#paint1_linear_500_6347)"/>
<path d="M50 56L59 74H41L50 56Z" fill="url(#paint2_linear_500_6347)"/>
<path d="M50 92L59 74H41L50 92Z" fill="url(#paint3_linear_500_6347)"/>
<path d="M8 50L26 41V59L8 50Z" fill="url(#paint4_linear_500_6347)"/>
<path d="M44 50L26 41V59L44 50Z" fill="url(#paint5_linear_500_6347)"/>
<path d="M56 50L74 41V59L56 50Z" fill="url(#paint6_linear_500_6347)"/>
<path d="M92 50L74 41V59L92 50Z" fill="url(#paint7_linear_500_6347)"/>
<path d="M20.3015 20.3016L39.3933 26.6655L26.6654 39.3934L20.3015 20.3016Z" fill="url(#paint8_linear_500_6347)"/>
<path d="M45.7573 45.7574L39.3933 26.6655L26.6654 39.3934L45.7573 45.7574Z" fill="url(#paint9_linear_500_6347)"/>
<path d="M54.2426 54.2427L73.3345 60.6067L60.6066 73.3346L54.2426 54.2427Z" fill="url(#paint10_linear_500_6347)"/>
<path d="M79.6984 79.6985L73.3345 60.6067L60.6066 73.3346L79.6984 79.6985Z" fill="url(#paint11_linear_500_6347)"/>
<path d="M79.6985 20.3016L60.6067 26.6655L73.3346 39.3934L79.6985 20.3016Z" fill="url(#paint12_linear_500_6347)"/>
<path d="M54.2427 45.7574L60.6067 26.6655L73.3346 39.3934L54.2427 45.7574Z" fill="url(#paint13_linear_500_6347)"/>
<path d="M45.7574 54.2427L26.6655 60.6067L39.3934 73.3346L45.7574 54.2427Z" fill="url(#paint14_linear_500_6347)"/>
<path d="M20.3016 79.6985L26.6655 60.6067L39.3934 73.3346L20.3016 79.6985Z" fill="url(#paint15_linear_500_6347)"/>
<defs>
<linearGradient id="paint0_linear_500_6347" x1="50" y1="8" x2="50" y2="26" gradientUnits="userSpaceOnUse">
<stop stop-color="#464646"/>
<stop offset="1" stop-color="white" stop-opacity="0.19"/>
</linearGradient>
<linearGradient id="paint1_linear_500_6347" x1="50" y1="44" x2="50" y2="26" gradientUnits="userSpaceOnUse">
<stop stop-color="#464646"/>
<stop offset="1" stop-color="white" stop-opacity="0.19"/>
</linearGradient>
<linearGradient id="paint2_linear_500_6347" x1="50" y1="56" x2="50" y2="74" gradientUnits="userSpaceOnUse">
<stop stop-color="#464646"/>
<stop offset="1" stop-color="white" stop-opacity="0.19"/>
</linearGradient>
<linearGradient id="paint3_linear_500_6347" x1="50" y1="92" x2="50" y2="74" gradientUnits="userSpaceOnUse">
<stop stop-color="#464646"/>
<stop offset="1" stop-color="white" stop-opacity="0.19"/>
</linearGradient>
<linearGradient id="paint4_linear_500_6347" x1="8" y1="50" x2="26" y2="50" gradientUnits="userSpaceOnUse">
<stop stop-color="#464646"/>
<stop offset="1" stop-color="white" stop-opacity="0.19"/>
</linearGradient>
<linearGradient id="paint5_linear_500_6347" x1="44" y1="50" x2="26" y2="50" gradientUnits="userSpaceOnUse">
<stop stop-color="#464646"/>
<stop offset="1" stop-color="white" stop-opacity="0.19"/>
</linearGradient>
<linearGradient id="paint6_linear_500_6347" x1="56" y1="50" x2="74" y2="50" gradientUnits="userSpaceOnUse">
<stop stop-color="#464646"/>
<stop offset="1" stop-color="white" stop-opacity="0.19"/>
</linearGradient>
<linearGradient id="paint7_linear_500_6347" x1="92" y1="50" x2="74" y2="50" gradientUnits="userSpaceOnUse">
<stop stop-color="#464646"/>
<stop offset="1" stop-color="white" stop-opacity="0.19"/>
</linearGradient>
<linearGradient id="paint8_linear_500_6347" x1="20.3015" y1="20.3016" x2="33.0294" y2="33.0295" gradientUnits="userSpaceOnUse">
<stop stop-color="#464646"/>
<stop offset="1" stop-color="white" stop-opacity="0.19"/>
</linearGradient>
<linearGradient id="paint9_linear_500_6347" x1="45.7573" y1="45.7574" x2="33.0293" y2="33.0295" gradientUnits="userSpaceOnUse">
<stop stop-color="#464646"/>
<stop offset="1" stop-color="white" stop-opacity="0.19"/>
</linearGradient>
<linearGradient id="paint10_linear_500_6347" x1="54.2426" y1="54.2427" x2="66.9705" y2="66.9706" gradientUnits="userSpaceOnUse">
<stop stop-color="#464646"/>
<stop offset="1" stop-color="white" stop-opacity="0.19"/>
</linearGradient>
<linearGradient id="paint11_linear_500_6347" x1="79.6984" y1="79.6985" x2="66.9705" y2="66.9706" gradientUnits="userSpaceOnUse">
<stop stop-color="#464646"/>
<stop offset="1" stop-color="white" stop-opacity="0.19"/>
</linearGradient>
<linearGradient id="paint12_linear_500_6347" x1="79.6985" y1="20.3016" x2="66.9706" y2="33.0295" gradientUnits="userSpaceOnUse">
<stop stop-color="#464646"/>
<stop offset="1" stop-color="white" stop-opacity="0.19"/>
</linearGradient>
<linearGradient id="paint13_linear_500_6347" x1="54.2427" y1="45.7574" x2="66.9707" y2="33.0295" gradientUnits="userSpaceOnUse">
<stop stop-color="#464646"/>
<stop offset="1" stop-color="white" stop-opacity="0.19"/>
</linearGradient>
<linearGradient id="paint14_linear_500_6347" x1="45.7574" y1="54.2427" x2="33.0295" y2="66.9706" gradientUnits="userSpaceOnUse">
<stop stop-color="#464646"/>
<stop offset="1" stop-color="white" stop-opacity="0.19"/>
</linearGradient>
<linearGradient id="paint15_linear_500_6347" x1="20.3016" y1="79.6985" x2="33.0295" y2="66.9706" gradientUnits="userSpaceOnUse">
<stop stop-color="#464646"/>
<stop offset="1" stop-color="white" stop-opacity="0.19"/>
</linearGradient>
</defs>
</svg>
