<svg width="100" height="100" viewBox="0 0 100 100" fill="none" xmlns="http://www.w3.org/2000/svg">
<path d="M18 26.7098V22.1843L22.1843 18H26.7098L18 26.7098Z" fill="url(#paint0_linear_500_6868)"/>
<path d="M18 33.4977V28.9722L28.9722 18H33.4977L18 33.4977Z" fill="url(#paint1_linear_500_6868)"/>
<path d="M18 40.2863V35.7608L35.7608 18H40.2863L18 40.2863Z" fill="url(#paint2_linear_500_6868)"/>
<path d="M18 47.0742V42.5487L42.5487 18H47.0742L18 47.0742Z" fill="url(#paint3_linear_500_6868)"/>
<path d="M21.8628 50H18V49.3373L49.3373 18H50V21.8628L21.8628 50Z" fill="url(#paint4_linear_500_6868)"/>
<path d="M28.6507 50H24.1252L50 24.1252V28.6507L28.6507 50Z" fill="url(#paint5_linear_500_6868)"/>
<path d="M35.4393 50H30.9138L50 30.9138V35.4393L35.4393 50Z" fill="url(#paint6_linear_500_6868)"/>
<path d="M42.2272 50H37.7017L50 37.7017V42.2272L42.2272 50Z" fill="url(#paint7_linear_500_6868)"/>
<path d="M49.0158 50H44.4903L50 44.4903V49.0158L49.0158 50Z" fill="url(#paint8_linear_500_6868)"/>
<path d="M19.9211 18L18 19.9211V18H19.9211Z" fill="url(#paint9_linear_500_6868)"/>
<path d="M82 26.7098V22.1843L77.8157 18H73.2902L82 26.7098Z" fill="url(#paint10_linear_500_6868)"/>
<path d="M82 33.4977V28.9722L71.0278 18H66.5023L82 33.4977Z" fill="url(#paint11_linear_500_6868)"/>
<path d="M82 40.2863V35.7608L64.2392 18H59.7137L82 40.2863Z" fill="url(#paint12_linear_500_6868)"/>
<path d="M82 47.0742V42.5487L57.4513 18H52.9258L82 47.0742Z" fill="url(#paint13_linear_500_6868)"/>
<path d="M78.1372 50H82V49.3373L50.6627 18H50V21.8628L78.1372 50Z" fill="url(#paint14_linear_500_6868)"/>
<path d="M71.3493 50H75.8748L50 24.1252V28.6507L71.3493 50Z" fill="url(#paint15_linear_500_6868)"/>
<path d="M64.5607 50H69.0862L50 30.9138V35.4393L64.5607 50Z" fill="url(#paint16_linear_500_6868)"/>
<path d="M57.7728 50H62.2983L50 37.7017V42.2272L57.7728 50Z" fill="url(#paint17_linear_500_6868)"/>
<path d="M50.9842 50H55.5097L50 44.4903V49.0158L50.9842 50Z" fill="url(#paint18_linear_500_6868)"/>
<path d="M80.0789 18L82 19.9211V18H80.0789Z" fill="url(#paint19_linear_500_6868)"/>
<path d="M18 73.2902V77.8157L22.1843 82H26.7098L18 73.2902Z" fill="url(#paint20_linear_500_6868)"/>
<path d="M18 66.5023V71.0278L28.9722 82H33.4977L18 66.5023Z" fill="url(#paint21_linear_500_6868)"/>
<path d="M18 59.7137V64.2392L35.7608 82H40.2863L18 59.7137Z" fill="url(#paint22_linear_500_6868)"/>
<path d="M18 52.9258V57.4513L42.5487 82H47.0742L18 52.9258Z" fill="url(#paint23_linear_500_6868)"/>
<path d="M21.8628 50H18V50.6627L49.3373 82H50V78.1372L21.8628 50Z" fill="url(#paint24_linear_500_6868)"/>
<path d="M28.6507 50H24.1252L50 75.8748V71.3493L28.6507 50Z" fill="url(#paint25_linear_500_6868)"/>
<path d="M35.4393 50H30.9138L50 69.0862V64.5607L35.4393 50Z" fill="url(#paint26_linear_500_6868)"/>
<path d="M42.2272 50H37.7017L50 62.2983V57.7728L42.2272 50Z" fill="url(#paint27_linear_500_6868)"/>
<path d="M49.0158 50H44.4903L50 55.5097V50.9842L49.0158 50Z" fill="url(#paint28_linear_500_6868)"/>
<path d="M19.9211 82L18 80.0789V82H19.9211Z" fill="url(#paint29_linear_500_6868)"/>
<path d="M82 73.2902V77.8157L77.8157 82H73.2902L82 73.2902Z" fill="url(#paint30_linear_500_6868)"/>
<path d="M82 66.5023V71.0278L71.0278 82H66.5023L82 66.5023Z" fill="url(#paint31_linear_500_6868)"/>
<path d="M82 59.7137V64.2392L64.2392 82H59.7137L82 59.7137Z" fill="url(#paint32_linear_500_6868)"/>
<path d="M82 52.9258V57.4513L57.4513 82H52.9258L82 52.9258Z" fill="url(#paint33_linear_500_6868)"/>
<path d="M78.1372 50H82V50.6627L50.6627 82H50V78.1372L78.1372 50Z" fill="url(#paint34_linear_500_6868)"/>
<path d="M71.3493 50H75.8748L50 75.8748V71.3493L71.3493 50Z" fill="url(#paint35_linear_500_6868)"/>
<path d="M64.5607 50H69.0862L50 69.0862V64.5607L64.5607 50Z" fill="url(#paint36_linear_500_6868)"/>
<path d="M57.7728 50H62.2983L50 62.2983V57.7728L57.7728 50Z" fill="url(#paint37_linear_500_6868)"/>
<path d="M50.9842 50H55.5097L50 55.5097V50.9842L50.9842 50Z" fill="url(#paint38_linear_500_6868)"/>
<path d="M80.0789 82L82 80.0789V82H80.0789Z" fill="url(#paint39_linear_500_6868)"/>
<defs>
<linearGradient id="paint0_linear_500_6868" x1="20.4" y1="20.4" x2="50" y2="51.6" gradientUnits="userSpaceOnUse">
<stop stop-color="white"/>
<stop offset="1" stop-color="white" stop-opacity="0"/>
</linearGradient>
<linearGradient id="paint1_linear_500_6868" x1="20.4" y1="20.4" x2="50" y2="51.6" gradientUnits="userSpaceOnUse">
<stop stop-color="white"/>
<stop offset="1" stop-color="white" stop-opacity="0"/>
</linearGradient>
<linearGradient id="paint2_linear_500_6868" x1="20.4" y1="20.4" x2="50" y2="51.6" gradientUnits="userSpaceOnUse">
<stop stop-color="white"/>
<stop offset="1" stop-color="white" stop-opacity="0"/>
</linearGradient>
<linearGradient id="paint3_linear_500_6868" x1="20.4" y1="20.4" x2="50" y2="51.6" gradientUnits="userSpaceOnUse">
<stop stop-color="white"/>
<stop offset="1" stop-color="white" stop-opacity="0"/>
</linearGradient>
<linearGradient id="paint4_linear_500_6868" x1="20.4" y1="20.4" x2="50" y2="51.6" gradientUnits="userSpaceOnUse">
<stop stop-color="white"/>
<stop offset="1" stop-color="white" stop-opacity="0"/>
</linearGradient>
<linearGradient id="paint5_linear_500_6868" x1="20.4" y1="20.4" x2="50" y2="51.6" gradientUnits="userSpaceOnUse">
<stop stop-color="white"/>
<stop offset="1" stop-color="white" stop-opacity="0"/>
</linearGradient>
<linearGradient id="paint6_linear_500_6868" x1="20.4" y1="20.4" x2="50" y2="51.6" gradientUnits="userSpaceOnUse">
<stop stop-color="white"/>
<stop offset="1" stop-color="white" stop-opacity="0"/>
</linearGradient>
<linearGradient id="paint7_linear_500_6868" x1="20.4" y1="20.4" x2="50" y2="51.6" gradientUnits="userSpaceOnUse">
<stop stop-color="white"/>
<stop offset="1" stop-color="white" stop-opacity="0"/>
</linearGradient>
<linearGradient id="paint8_linear_500_6868" x1="20.4" y1="20.4" x2="50" y2="51.6" gradientUnits="userSpaceOnUse">
<stop stop-color="white"/>
<stop offset="1" stop-color="white" stop-opacity="0"/>
</linearGradient>
<linearGradient id="paint9_linear_500_6868" x1="20.4" y1="20.4" x2="50" y2="51.6" gradientUnits="userSpaceOnUse">
<stop stop-color="white"/>
<stop offset="1" stop-color="white" stop-opacity="0"/>
</linearGradient>
<linearGradient id="paint10_linear_500_6868" x1="79.6" y1="20.4" x2="50" y2="51.6" gradientUnits="userSpaceOnUse">
<stop stop-color="white"/>
<stop offset="1" stop-color="white" stop-opacity="0"/>
</linearGradient>
<linearGradient id="paint11_linear_500_6868" x1="79.6" y1="20.4" x2="50" y2="51.6" gradientUnits="userSpaceOnUse">
<stop stop-color="white"/>
<stop offset="1" stop-color="white" stop-opacity="0"/>
</linearGradient>
<linearGradient id="paint12_linear_500_6868" x1="79.6" y1="20.4" x2="50" y2="51.6" gradientUnits="userSpaceOnUse">
<stop stop-color="white"/>
<stop offset="1" stop-color="white" stop-opacity="0"/>
</linearGradient>
<linearGradient id="paint13_linear_500_6868" x1="79.6" y1="20.4" x2="50" y2="51.6" gradientUnits="userSpaceOnUse">
<stop stop-color="white"/>
<stop offset="1" stop-color="white" stop-opacity="0"/>
</linearGradient>
<linearGradient id="paint14_linear_500_6868" x1="79.6" y1="20.4" x2="50" y2="51.6" gradientUnits="userSpaceOnUse">
<stop stop-color="white"/>
<stop offset="1" stop-color="white" stop-opacity="0"/>
</linearGradient>
<linearGradient id="paint15_linear_500_6868" x1="79.6" y1="20.4" x2="50" y2="51.6" gradientUnits="userSpaceOnUse">
<stop stop-color="white"/>
<stop offset="1" stop-color="white" stop-opacity="0"/>
</linearGradient>
<linearGradient id="paint16_linear_500_6868" x1="79.6" y1="20.4" x2="50" y2="51.6" gradientUnits="userSpaceOnUse">
<stop stop-color="white"/>
<stop offset="1" stop-color="white" stop-opacity="0"/>
</linearGradient>
<linearGradient id="paint17_linear_500_6868" x1="79.6" y1="20.4" x2="50" y2="51.6" gradientUnits="userSpaceOnUse">
<stop stop-color="white"/>
<stop offset="1" stop-color="white" stop-opacity="0"/>
</linearGradient>
<linearGradient id="paint18_linear_500_6868" x1="79.6" y1="20.4" x2="50" y2="51.6" gradientUnits="userSpaceOnUse">
<stop stop-color="white"/>
<stop offset="1" stop-color="white" stop-opacity="0"/>
</linearGradient>
<linearGradient id="paint19_linear_500_6868" x1="79.6" y1="20.4" x2="50" y2="51.6" gradientUnits="userSpaceOnUse">
<stop stop-color="white"/>
<stop offset="1" stop-color="white" stop-opacity="0"/>
</linearGradient>
<linearGradient id="paint20_linear_500_6868" x1="20.4" y1="79.6" x2="50" y2="48.4" gradientUnits="userSpaceOnUse">
<stop stop-color="white"/>
<stop offset="1" stop-color="white" stop-opacity="0"/>
</linearGradient>
<linearGradient id="paint21_linear_500_6868" x1="20.4" y1="79.6" x2="50" y2="48.4" gradientUnits="userSpaceOnUse">
<stop stop-color="white"/>
<stop offset="1" stop-color="white" stop-opacity="0"/>
</linearGradient>
<linearGradient id="paint22_linear_500_6868" x1="20.4" y1="79.6" x2="50" y2="48.4" gradientUnits="userSpaceOnUse">
<stop stop-color="white"/>
<stop offset="1" stop-color="white" stop-opacity="0"/>
</linearGradient>
<linearGradient id="paint23_linear_500_6868" x1="20.4" y1="79.6" x2="50" y2="48.4" gradientUnits="userSpaceOnUse">
<stop stop-color="white"/>
<stop offset="1" stop-color="white" stop-opacity="0"/>
</linearGradient>
<linearGradient id="paint24_linear_500_6868" x1="20.4" y1="79.6" x2="50" y2="48.4" gradientUnits="userSpaceOnUse">
<stop stop-color="white"/>
<stop offset="1" stop-color="white" stop-opacity="0"/>
</linearGradient>
<linearGradient id="paint25_linear_500_6868" x1="20.4" y1="79.6" x2="50" y2="48.4" gradientUnits="userSpaceOnUse">
<stop stop-color="white"/>
<stop offset="1" stop-color="white" stop-opacity="0"/>
</linearGradient>
<linearGradient id="paint26_linear_500_6868" x1="20.4" y1="79.6" x2="50" y2="48.4" gradientUnits="userSpaceOnUse">
<stop stop-color="white"/>
<stop offset="1" stop-color="white" stop-opacity="0"/>
</linearGradient>
<linearGradient id="paint27_linear_500_6868" x1="20.4" y1="79.6" x2="50" y2="48.4" gradientUnits="userSpaceOnUse">
<stop stop-color="white"/>
<stop offset="1" stop-color="white" stop-opacity="0"/>
</linearGradient>
<linearGradient id="paint28_linear_500_6868" x1="20.4" y1="79.6" x2="50" y2="48.4" gradientUnits="userSpaceOnUse">
<stop stop-color="white"/>
<stop offset="1" stop-color="white" stop-opacity="0"/>
</linearGradient>
<linearGradient id="paint29_linear_500_6868" x1="20.4" y1="79.6" x2="50" y2="48.4" gradientUnits="userSpaceOnUse">
<stop stop-color="white"/>
<stop offset="1" stop-color="white" stop-opacity="0"/>
</linearGradient>
<linearGradient id="paint30_linear_500_6868" x1="79.6" y1="79.6" x2="50" y2="48.4" gradientUnits="userSpaceOnUse">
<stop stop-color="white"/>
<stop offset="1" stop-color="white" stop-opacity="0"/>
</linearGradient>
<linearGradient id="paint31_linear_500_6868" x1="79.6" y1="79.6" x2="50" y2="48.4" gradientUnits="userSpaceOnUse">
<stop stop-color="white"/>
<stop offset="1" stop-color="white" stop-opacity="0"/>
</linearGradient>
<linearGradient id="paint32_linear_500_6868" x1="79.6" y1="79.6" x2="50" y2="48.4" gradientUnits="userSpaceOnUse">
<stop stop-color="white"/>
<stop offset="1" stop-color="white" stop-opacity="0"/>
</linearGradient>
<linearGradient id="paint33_linear_500_6868" x1="79.6" y1="79.6" x2="50" y2="48.4" gradientUnits="userSpaceOnUse">
<stop stop-color="white"/>
<stop offset="1" stop-color="white" stop-opacity="0"/>
</linearGradient>
<linearGradient id="paint34_linear_500_6868" x1="79.6" y1="79.6" x2="50" y2="48.4" gradientUnits="userSpaceOnUse">
<stop stop-color="white"/>
<stop offset="1" stop-color="white" stop-opacity="0"/>
</linearGradient>
<linearGradient id="paint35_linear_500_6868" x1="79.6" y1="79.6" x2="50" y2="48.4" gradientUnits="userSpaceOnUse">
<stop stop-color="white"/>
<stop offset="1" stop-color="white" stop-opacity="0"/>
</linearGradient>
<linearGradient id="paint36_linear_500_6868" x1="79.6" y1="79.6" x2="50" y2="48.4" gradientUnits="userSpaceOnUse">
<stop stop-color="white"/>
<stop offset="1" stop-color="white" stop-opacity="0"/>
</linearGradient>
<linearGradient id="paint37_linear_500_6868" x1="79.6" y1="79.6" x2="50" y2="48.4" gradientUnits="userSpaceOnUse">
<stop stop-color="white"/>
<stop offset="1" stop-color="white" stop-opacity="0"/>
</linearGradient>
<linearGradient id="paint38_linear_500_6868" x1="79.6" y1="79.6" x2="50" y2="48.4" gradientUnits="userSpaceOnUse">
<stop stop-color="white"/>
<stop offset="1" stop-color="white" stop-opacity="0"/>
</linearGradient>
<linearGradient id="paint39_linear_500_6868" x1="79.6" y1="79.6" x2="50" y2="48.4" gradientUnits="userSpaceOnUse">
<stop stop-color="white"/>
<stop offset="1" stop-color="white" stop-opacity="0"/>
</linearGradient>
</defs>
</svg>
