<svg width="100" height="100" viewBox="0 0 100 100" fill="none" xmlns="http://www.w3.org/2000/svg">
<g clip-path="url(#clip0_420_27)">
<path fill-rule="evenodd" clip-rule="evenodd" d="M75 50H66V0H65V50H61V0H60V50H56V0H55V50H51V0H50V50H0V51H50V55H0V56H50V60H0V61H50V65H0V66H50V75C50 88.8071 61.1929 100 75 100C88.8071 100 100 88.8071 100 75C100 61.1929 88.8071 50 75 50ZM55 55H51V51H55V55ZM56 55H60V51H56V55ZM61 55H65V51H61V55ZM66 55V51H75C88.2548 51 99 61.7452 99 75C99 88.2548 88.2548 99 75 99C61.7452 99 51 88.2548 51 75V66H55V75C55 86.0457 63.9543 95 75 95C86.0457 95 95 86.0457 95 75C95 63.9543 86.0457 55 75 55H66ZM55 65H51V61H55V65ZM56 66V75C56 85.4934 64.5066 94 75 94C85.4934 94 94 85.4934 94 75C94 64.5066 85.4934 56 75 56H66V60H75C83.2843 60 90 66.7157 90 75C90 83.2843 83.2843 90 75 90C66.7157 90 60 83.2843 60 75V66H56ZM61 60H65V56H61V60ZM60 56V60H56V56H60ZM60 61V65H56V61H60ZM61 75V66H65V75C65 80.5228 69.4772 85 75 85C80.5228 85 85 80.5228 85 75C85 69.4772 80.5228 65 75 65H66V61H75C82.732 61 89 67.268 89 75C89 82.732 82.732 89 75 89C67.268 89 61 82.732 61 75ZM66 75C66 79.9706 70.0294 84 75 84C79.9706 84 84 79.9706 84 75C84 70.0294 79.9706 66 75 66H66V75ZM65 65V61H61V65H65ZM55 60H51V56H55V60Z" fill="url(#paint0_linear_420_27)"/>
</g>
<defs>
<linearGradient id="paint0_linear_420_27" x1="91" y1="94.5" x2="4.15206e-06" y2="-1.99999" gradientUnits="userSpaceOnUse">
<stop stop-color="white"/>
<stop offset="1" stop-color="white" stop-opacity="0"/>
</linearGradient>
<clipPath id="clip0_420_27">
<rect width="100" height="100" fill="white"/>
</clipPath>
</defs>
</svg>
