<svg width="201" height="200" viewBox="0 0 201 200" fill="none" xmlns="http://www.w3.org/2000/svg">
<g clip-path="url(#clip0_1_946)">
<mask id="mask0_1_946" style="mask-type:luminance" maskUnits="userSpaceOnUse" x="0" y="0" width="201" height="200">
<path d="M200.5 0H0.5V200H200.5V0Z" fill="white"/>
</mask>
<g mask="url(#mask0_1_946)">
<path fill-rule="evenodd" clip-rule="evenodd" d="M120.5 14.2857C120.5 6.39593 114.104 0 106.214 0H94.7857C86.8959 0 80.5 6.39594 80.5 14.2857V17.2269C80.5 29.9541 65.1123 36.3279 56.1128 27.3284L54.033 25.2487C48.4541 19.6698 39.4089 19.6698 33.8299 25.2487L25.7487 33.3299C20.1698 38.9088 20.1698 47.954 25.7487 53.533L27.8285 55.6128C36.828 64.6123 30.4542 80 17.727 80H14.7857C6.89593 80 0.5 86.3959 0.5 94.2857V105.714C0.5 113.604 6.89593 120 14.7857 120H17.7269C30.4542 120 36.828 135.388 27.8285 144.387L25.7487 146.467C20.1698 152.046 20.1698 161.091 25.7487 166.67L33.8299 174.751C39.4089 180.33 48.4541 180.33 54.033 174.751L56.1128 172.671C65.1122 163.672 80.5 170.046 80.5 182.773V185.714C80.5 193.604 86.8959 200 94.7857 200H106.214C114.104 200 120.5 193.604 120.5 185.714V182.773C120.5 170.046 135.888 163.672 144.887 172.671L146.967 174.751C152.546 180.33 161.591 180.33 167.17 174.751L175.251 166.67C180.83 161.091 180.83 152.046 175.251 146.467L173.172 144.387C164.172 135.388 170.546 120 183.273 120H186.214C194.104 120 200.5 113.604 200.5 105.714V94.2857C200.5 86.3959 194.104 80 186.214 80H183.273C170.546 80 164.172 64.6123 173.171 55.6128L175.251 53.5329C180.83 47.954 180.83 38.9088 175.251 33.3299L167.17 25.2487C161.591 19.6697 152.546 19.6697 146.967 25.2487L144.887 27.3284C135.888 36.3279 120.5 29.9541 120.5 17.2269V14.2857Z" fill="white"/>
</g>
</g>
<defs>
<clipPath id="clip0_1_946">
<rect width="200" height="200" fill="white" transform="translate(0.5)"/>
</clipPath>
</defs>
</svg>
