<svg width="201" height="200" viewBox="0 0 201 200" fill="none" xmlns="http://www.w3.org/2000/svg">
<g clip-path="url(#clip0_1_838)">
<path fill-rule="evenodd" clip-rule="evenodd" d="M131.388 47.0671C133.144 42.9611 134.118 38.4302 134.118 33.6683C134.118 15.0738 119.269 0 100.952 0C82.6353 0 67.7864 15.0738 67.7864 33.6683C67.7864 38.4302 68.7602 42.9611 70.5167 47.0671C64.4884 38.6431 54.7072 33.1658 43.6658 33.1658C25.3488 33.1658 10.5 48.2397 10.5 66.8342C10.5 83.4412 22.3443 97.24 37.9252 100C22.3443 102.76 10.5 116.559 10.5 133.166C10.5 151.76 25.3488 166.834 43.6658 166.834C54.7072 166.834 64.4884 161.357 70.5167 152.933C68.7602 157.039 67.7864 161.57 67.7864 166.332C67.7864 184.926 82.6353 200 100.952 200C119.269 200 134.118 184.926 134.118 166.332C134.118 161.57 133.144 157.039 131.388 152.933C137.416 161.357 147.197 166.834 158.239 166.834C176.556 166.834 191.405 151.76 191.405 133.166C191.405 116.559 179.56 102.76 163.979 100C179.56 97.24 191.405 83.4412 191.405 66.8342C191.405 48.2397 176.556 33.1658 158.239 33.1658C147.197 33.1658 137.416 38.6431 131.388 47.0671ZM127.803 146.565C126.047 142.459 125.073 137.928 125.073 133.166C125.073 116.559 136.917 102.76 152.498 100C136.917 97.24 125.073 83.4412 125.073 66.8342C125.073 62.0723 126.047 57.5414 127.803 53.4354C121.775 61.8594 111.994 67.3367 100.952 67.3367C89.9109 67.3367 80.1297 61.8594 74.1014 53.4354C75.8579 57.5414 76.8317 62.0723 76.8317 66.8342C76.8317 83.4412 64.9874 97.24 49.4065 100C64.9874 102.76 76.8317 116.559 76.8317 133.166C76.8317 137.928 75.8579 142.459 74.1014 146.565C80.1297 138.141 89.9109 132.663 100.952 132.663C111.994 132.663 121.775 138.141 127.803 146.565Z" fill="white"/>
<g clip-path="url(#clip1_1_838)">
<mask id="mask0_1_838" style="mask-type:luminance" maskUnits="userSpaceOnUse" x="0" y="0" width="201" height="200">
<path d="M200.5 0H0.5V200H200.5V0Z" fill="white"/>
</mask>
<g mask="url(#mask0_1_838)">
<path fill-rule="evenodd" clip-rule="evenodd" d="M0.5 49H28H28.5V48.9943C40.1432 48.7286 49.5 39.207 49.5 27.5V0H55.5V28C55.5 39.598 64.902 49 76.5 49C88.098 49 97.5 39.598 97.5 28V0H103.5V28C103.5 39.598 112.902 49 124.5 49C136.098 49 145.5 39.598 145.5 28V0H152.5V28C152.5 39.598 161.902 49 173.5 49H200.5V55H172.5C160.902 55 151.5 64.402 151.5 76C151.5 87.598 160.902 97 172.5 97H200.5V103H172.5C160.902 103 151.5 112.402 151.5 124C151.5 135.598 160.902 145 172.5 145H200.5V151H173.5C161.902 151 152.5 160.402 152.5 172V173V200H145.5V172C145.5 160.402 136.098 151 124.5 151C112.902 151 103.5 160.402 103.5 172V200H97.5V172C97.5 160.402 88.098 151 76.5 151C64.902 151 55.5 160.402 55.5 172V200H49.5V172.5C49.5 160.793 40.1432 151.271 28.5 151.006V151H28H0.5V145H28.5C40.098 145 49.5 135.598 49.5 124C49.5 112.402 40.098 103 28.5 103H0.5V97H28.5C40.098 97 49.5 87.598 49.5 76C49.5 64.402 40.098 55 28.5 55H0.5V49ZM76.5 97C88.098 97 97.5 87.598 97.5 76C97.5 64.402 88.098 55 76.5 55C64.902 55 55.5 64.402 55.5 76C55.5 87.598 64.902 97 76.5 97ZM124.5 97C136.098 97 145.5 87.598 145.5 76C145.5 64.402 136.098 55 124.5 55C112.902 55 103.5 64.402 103.5 76C103.5 87.598 112.902 97 124.5 97ZM97.5 124C97.5 135.598 88.098 145 76.5 145C64.902 145 55.5 135.598 55.5 124C55.5 112.402 64.902 103 76.5 103C88.098 103 97.5 112.402 97.5 124ZM124.5 145C136.098 145 145.5 135.598 145.5 124C145.5 112.402 136.098 103 124.5 103C112.902 103 103.5 112.402 103.5 124C103.5 135.598 112.902 145 124.5 145Z" fill="white"/>
</g>
</g>
</g>
<defs>
<clipPath id="clip0_1_838">
<rect width="200" height="200" fill="white" transform="translate(0.5)"/>
</clipPath>
<clipPath id="clip1_1_838">
<rect width="200" height="200" fill="white" transform="translate(0.5)"/>
</clipPath>
</defs>
</svg>
