<svg width="201" height="200" viewBox="0 0 201 200" fill="none" xmlns="http://www.w3.org/2000/svg">
<g clip-path="url(#clip0_1_1052)">
<mask id="mask0_1_1052" style="mask-type:luminance" maskUnits="userSpaceOnUse" x="0" y="0" width="201" height="200">
<path d="M200.5 0H0.5V200H200.5V0Z" fill="white"/>
</mask>
<g mask="url(#mask0_1_1052)">
<path fill-rule="evenodd" clip-rule="evenodd" d="M107.473 87.6003C104.415 93.0385 96.5852 93.0385 93.527 87.6003L50.9686 11.9213C47.9696 6.58851 51.8234 7.97602e-06 57.9416 5.67316e-06L143.058 0C149.177 -5.34872e-07 153.03 6.58849 150.031 11.9213L107.473 87.6003ZM88.1003 106.973C93.5385 103.915 93.5385 96.0851 88.1003 93.0269L12.4213 50.4685C7.0885 47.4696 0.500004 51.3233 0.500004 57.4415L0.5 142.558C0.5 148.677 7.08851 152.53 12.4213 149.531L88.1003 106.973ZM107.473 112.4C104.415 106.961 96.5852 106.962 93.527 112.4L50.9686 188.079C47.9697 193.412 51.8234 200 57.9416 200H143.058C149.177 200 153.03 193.411 150.031 188.079L107.473 112.4ZM112.9 93.027C107.461 96.0853 107.461 103.915 112.9 106.973L188.579 149.531C193.912 152.53 200.5 148.677 200.5 142.558V57.4417C200.5 51.3235 193.911 47.4697 188.579 50.4687L112.9 93.027Z" fill="white"/>
</g>
</g>
<defs>
<clipPath id="clip0_1_1052">
<rect width="200" height="200" fill="white" transform="translate(0.5)"/>
</clipPath>
</defs>
</svg>
