<svg width="201" height="200" viewBox="0 0 201 200" fill="none" xmlns="http://www.w3.org/2000/svg">
<g clip-path="url(#clip0_1_1086)">
<path fill-rule="evenodd" clip-rule="evenodd" d="M100.499 153.877C141.647 153.877 177.351 127.54 195.127 111.673C202.289 105.28 202.289 94.597 195.127 88.204C177.351 72.3371 141.647 46 100.499 46C59.3516 46 23.6479 72.3371 5.87163 88.2041C-1.29055 94.597 -1.29054 105.28 5.87164 111.673C23.6479 127.54 59.3516 153.877 100.499 153.877ZM100.499 137.57C121.283 137.57 138.131 120.722 138.131 99.9383C138.131 79.1551 121.283 62.3069 100.499 62.3069C79.7161 62.3069 62.868 79.1551 62.868 99.9383C62.868 120.722 79.7161 137.57 100.499 137.57Z" fill="white"/>
</g>
<defs>
<clipPath id="clip0_1_1086">
<rect width="200" height="200" fill="white" transform="translate(0.5)"/>
</clipPath>
</defs>
</svg>
