<svg width="201" height="200" viewBox="0 0 201 200" fill="none" xmlns="http://www.w3.org/2000/svg">
<g clip-path="url(#clip0_1_864)">
<mask id="mask0_1_864" style="mask-type:luminance" maskUnits="userSpaceOnUse" x="0" y="0" width="201" height="200">
<path d="M200.5 0H0.5V200H200.5V0Z" fill="white"/>
</mask>
<g mask="url(#mask0_1_864)">
<path fill-rule="evenodd" clip-rule="evenodd" d="M100.5 200C155.728 200 200.5 155.228 200.5 100C200.5 44.7715 155.728 0 100.5 0C45.2715 0 0.5 44.7715 0.5 100C0.5 155.228 45.2715 200 100.5 200ZM100.5 188C149.101 188 188.5 148.601 188.5 100C188.5 51.3989 149.101 12 100.5 12C51.8989 12 12.5 51.3989 12.5 100C12.5 148.601 51.8989 188 100.5 188ZM100.5 176C142.474 176 176.5 141.974 176.5 100C176.5 58.0264 142.474 24 100.5 24C58.5264 24 24.5 58.0264 24.5 100C24.5 141.974 58.5264 176 100.5 176ZM100.5 164C135.846 164 164.5 135.346 164.5 100C164.5 64.6538 135.846 36 100.5 36C65.1538 36 36.5 64.6538 36.5 100C36.5 135.346 65.1538 164 100.5 164ZM152.5 100C152.5 128.719 129.219 152 100.5 152C71.7812 152 48.5 128.719 48.5 100C48.5 71.2812 71.7812 48 100.5 48C129.219 48 152.5 71.2812 152.5 100ZM140.5 100C140.5 122.091 122.591 140 100.5 140C78.4086 140 60.5 122.091 60.5 100C60.5 77.9086 78.4086 60 100.5 60C122.591 60 140.5 77.9086 140.5 100Z" fill="white"/>
</g>
</g>
<defs>
<clipPath id="clip0_1_864">
<rect width="200" height="200" fill="white" transform="translate(0.5)"/>
</clipPath>
</defs>
</svg>
