<svg width="201" height="200" viewBox="0 0 201 200" fill="none" xmlns="http://www.w3.org/2000/svg">
<g clip-path="url(#clip0_1_1072)">
<mask id="mask0_1_1072" style="mask-type:luminance" maskUnits="userSpaceOnUse" x="0" y="0" width="201" height="200">
<path d="M200.5 0H0.5V200H200.5V0Z" fill="white"/>
</mask>
<g mask="url(#mask0_1_1072)">
<path fill-rule="evenodd" clip-rule="evenodd" d="M125.399 4.91713L106.3 85.9981L150.127 15.16C151.485 12.9661 154.533 12.6119 156.357 14.4361L186.064 44.1427C187.888 45.9669 187.534 49.0153 185.34 50.3727L114.502 94.2004L195.583 75.101C198.094 74.5095 200.5 76.4147 200.5 78.9945V121.006C200.5 123.586 198.094 125.491 195.583 124.899L114.502 105.8L185.34 149.628C187.534 150.985 187.888 154.033 186.064 155.858L156.357 185.564C154.533 187.388 151.485 187.034 150.127 184.84L106.3 114.002L125.399 195.083C125.991 197.594 124.085 200 121.506 200H79.4943C76.9145 200 75.0094 197.594 75.6009 195.083L94.7003 114.002L50.8726 184.84C49.5153 187.034 46.4668 187.388 44.6426 185.564L14.9361 155.857C13.1119 154.033 13.4661 150.985 15.66 149.627L86.4975 105.8L5.41714 124.899C2.90606 125.491 0.5 123.586 0.5 121.006V78.9944C0.500002 76.4146 2.90605 74.5095 5.41714 75.101L86.498 94.2003L15.66 50.3728C13.4661 49.0154 13.1119 45.9669 14.9361 44.1427L44.6426 14.4362C46.4668 12.612 49.5153 12.9662 50.8726 15.1601L94.7003 85.9983L75.6009 4.91714C75.0094 2.40606 76.9145 3.89828e-06 79.4943 3.67275e-06L121.506 0C124.086 0 125.991 2.40605 125.399 4.91713ZM100.5 111.429C106.812 111.429 111.929 106.312 111.929 100C111.929 93.6882 106.812 88.5714 100.5 88.5714C94.1882 88.5714 89.0714 93.6882 89.0714 100C89.0714 106.312 94.1882 111.429 100.5 111.429Z" fill="white"/>
</g>
</g>
<defs>
<clipPath id="clip0_1_1072">
<rect width="200" height="200" fill="white" transform="translate(0.5)"/>
</clipPath>
</defs>
</svg>
