<svg width="201" height="200" viewBox="0 0 201 200" fill="none" xmlns="http://www.w3.org/2000/svg">
<g clip-path="url(#clip0_1_1138)">
<mask id="mask0_1_1138" style="mask-type:luminance" maskUnits="userSpaceOnUse" x="0" y="0" width="201" height="200">
<path d="M200.5 0H0.5V200H200.5V0Z" fill="white"/>
</mask>
<g mask="url(#mask0_1_1138)">
<path fill-rule="evenodd" clip-rule="evenodd" d="M29.7893 29.2893C19.7658 39.3128 16.1458 53.315 18.9294 66.2123C7.84132 73.3638 0.5 85.8246 0.5 100C0.499998 114.175 7.84132 126.636 18.9294 133.788C16.1458 146.685 19.7658 160.687 29.7893 170.711C39.8129 180.734 53.815 184.354 66.7123 181.571C73.8639 192.659 86.3246 200 100.5 200C114.675 200 127.136 192.659 134.288 181.571C147.185 184.354 161.187 180.734 171.211 170.711C181.234 160.687 184.854 146.685 182.071 133.788C193.159 126.636 200.5 114.175 200.5 100C200.5 85.8246 193.159 73.3638 182.071 66.2123C184.854 53.315 181.234 39.3129 171.211 29.2893C161.187 19.2658 147.185 15.6458 134.288 18.4294C127.136 7.34133 114.675 0 100.5 0C86.3246 0 73.8638 7.34131 66.7123 18.4293C53.815 15.6458 39.8129 19.2658 29.7893 29.2893Z" fill="white"/>
</g>
</g>
<defs>
<clipPath id="clip0_1_1138">
<rect width="200" height="200" fill="white" transform="translate(0.5)"/>
</clipPath>
</defs>
</svg>
