<svg width="201" height="200" viewBox="0 0 201 200" fill="none" xmlns="http://www.w3.org/2000/svg">
<g clip-path="url(#clip0_1_726)">
<mask id="mask0_1_726" style="mask-type:luminance" maskUnits="userSpaceOnUse" x="0" y="0" width="201" height="200">
<path d="M200.5 0H0.5V200H200.5V0Z" fill="white"/>
</mask>
<g mask="url(#mask0_1_726)">
<path fill-rule="evenodd" clip-rule="evenodd" d="M100.498 0H38.5C17.5132 0 0.5 17.0132 0.5 38V162C0.5 182.987 17.5132 200 38.5 200H100.498C100.499 199.834 100.5 199.667 100.5 199.5C100.5 199.667 100.501 199.834 100.502 200H162.5C183.487 200 200.5 182.987 200.5 162V38C200.5 17.0132 183.487 0 162.5 0H100.502C100.771 27.6601 123.276 50 151 50H150.5C122.886 50 100.5 72.3858 100.5 100C100.5 72.3858 78.1142 50 50.5 50H50C77.7235 50 100.229 27.6601 100.498 0ZM100.5 100C100.5 125.286 81.7299 146.188 57.3629 149.533C81.7634 153.097 100.5 174.111 100.5 199.5C100.5 174.111 119.237 153.097 143.637 149.533C119.27 146.188 100.5 125.286 100.5 100Z" fill="white"/>
</g>
</g>
<defs>
<clipPath id="clip0_1_726">
<rect width="200" height="200" fill="white" transform="translate(0.5)"/>
</clipPath>
</defs>
</svg>
