<svg width="201" height="200" viewBox="0 0 201 200" fill="none" xmlns="http://www.w3.org/2000/svg">
<g clip-path="url(#clip0_1_1196)">
<mask id="mask0_1_1196" style="mask-type:luminance" maskUnits="userSpaceOnUse" x="0" y="0" width="201" height="200">
<path d="M200.5 0H0.5V200H200.5V0Z" fill="white"/>
</mask>
<g mask="url(#mask0_1_1196)">
<path d="M100.5 0L103.165 74.6397L121.291 2.18524L108.38 75.7481L141.174 8.64545L113.25 77.9164L159.279 19.0983L117.563 81.0498L174.814 33.0869L121.13 85.0115L187.103 50L123.795 89.6282L195.606 69.0983L125.443 94.6982L199.952 89.5471L126 100L199.952 110.453L125.443 105.302L195.606 130.902L123.795 110.372L187.103 150L121.13 114.989L174.814 166.913L117.563 118.95L159.279 180.902L113.25 122.084L141.174 191.355L108.38 124.252L121.291 197.815L103.165 125.36L100.5 200L97.8345 125.36L79.7088 197.815L92.6201 124.252L59.8263 191.355L87.75 122.084L41.7215 180.902L83.4372 118.95L26.1855 166.913L79.8701 114.989L13.8975 150L77.2046 110.372L5.39439 130.902L75.5572 105.302L1.04785 110.453L75 100L1.04785 89.5471L75.5572 94.6982L5.39439 69.0983L77.2046 89.6282L13.8975 50L79.8701 85.0115L26.1855 33.0869L83.4372 81.0498L41.7215 19.0983L87.75 77.9164L59.8263 8.64545L92.6201 75.7481L79.7088 2.18524L97.8345 74.6397L100.5 0Z" fill="white"/>
</g>
</g>
<defs>
<clipPath id="clip0_1_1196">
<rect width="200" height="200" fill="white" transform="translate(0.5)"/>
</clipPath>
</defs>
</svg>
