<svg width="201" height="200" viewBox="0 0 201 200" fill="none" xmlns="http://www.w3.org/2000/svg">
<path d="M166.463 134.037C160.996 139.504 152.131 139.504 146.664 134.037L122.527 109.899C117.059 104.432 117.059 95.5677 122.527 90.1004L146.664 65.963C152.131 60.4956 160.996 60.4956 166.463 65.963L190.601 90.1003C196.068 95.5677 196.068 104.432 190.601 109.899L166.463 134.037ZM54.3358 134.037C48.8685 139.504 40.0041 139.504 34.5368 134.037L10.3995 109.899C4.93212 104.432 4.93211 95.5677 10.3995 90.1004L34.5368 65.963C40.0041 60.4956 48.8685 60.4956 54.3358 65.963L78.4732 90.1003C83.9405 95.5677 83.9405 104.432 78.4732 109.899L54.3358 134.037ZM110.4 190.1C104.932 195.568 96.0678 195.568 90.6004 190.1L66.463 165.963C60.9957 160.496 60.9957 151.631 66.463 146.164L90.6004 122.027C96.0678 116.559 104.932 116.559 110.4 122.027L134.537 146.164C140.004 151.631 140.004 160.496 134.537 165.963L110.4 190.1ZM110.4 77.9731C104.932 83.4404 96.0678 83.4405 90.6004 77.9731L66.463 53.8357C60.9957 48.3684 60.9957 39.5041 66.463 34.0367L90.6004 9.89934C96.0678 4.432 104.932 4.43199 110.4 9.89933L134.537 34.0367C140.004 39.5041 140.004 48.3684 134.537 53.8357L110.4 77.9731Z" fill="white"/>
</svg>
