<svg width="201" height="200" viewBox="0 0 201 200" fill="none" xmlns="http://www.w3.org/2000/svg">
<g clip-path="url(#clip0_1_852)">
<mask id="mask0_1_852" style="mask-type:luminance" maskUnits="userSpaceOnUse" x="0" y="0" width="201" height="200">
<path d="M200.5 0H0.5V200H200.5V0Z" fill="white"/>
</mask>
<g mask="url(#mask0_1_852)">
<path fill-rule="evenodd" clip-rule="evenodd" d="M188.5 100C188.5 148.601 149.101 188 100.5 188C51.8989 188 12.5 148.601 12.5 100C12.5 51.3989 51.8989 12 100.5 12C149.101 12 188.5 51.3989 188.5 100ZM200.5 100C200.5 155.228 155.728 200 100.5 200C45.2715 200 0.5 155.228 0.5 100C0.5 44.7715 45.2715 0 100.5 0C155.728 0 200.5 44.7715 200.5 100ZM100.5 111C106.575 111 111.5 106.075 111.5 100C111.5 93.9249 106.575 89 100.5 89C94.4249 89 89.5 93.9249 89.5 100C89.5 106.075 94.4249 111 100.5 111Z" fill="white"/>
</g>
</g>
<defs>
<clipPath id="clip0_1_852">
<rect width="200" height="200" fill="white" transform="translate(0.5)"/>
</clipPath>
</defs>
</svg>
