<svg width="201" height="200" viewBox="0 0 201 200" fill="none" xmlns="http://www.w3.org/2000/svg">
<g clip-path="url(#clip0_1_1256)">
<mask id="mask0_1_1256" style="mask-type:luminance" maskUnits="userSpaceOnUse" x="0" y="0" width="201" height="200">
<path d="M200.5 0H0.5V200H200.5V0Z" fill="white"/>
</mask>
<g mask="url(#mask0_1_1256)">
<path d="M158.903 200C131.947 153.845 69.0533 153.845 42.0975 200C56.6862 153.845 46.6571 143.817 0.5 158.405C46.6571 131.45 46.6571 68.5603 0.5 41.6059C46.6571 56.1832 56.6862 46.1547 42.0975 0C69.0533 46.1547 131.947 46.1547 158.903 0C144.324 46.1547 154.354 56.1832 200.5 41.6059C154.354 68.5603 154.354 131.45 200.5 158.405C154.354 143.817 144.324 153.845 158.903 200Z" fill="white"/>
</g>
</g>
<defs>
<clipPath id="clip0_1_1256">
<rect width="200" height="200" fill="white" transform="translate(0.5)"/>
</clipPath>
</defs>
</svg>
