<svg width="201" height="200" viewBox="0 0 201 200" fill="none" xmlns="http://www.w3.org/2000/svg">
<g clip-path="url(#clip0_1_886)">
<mask id="mask0_1_886" style="mask-type:luminance" maskUnits="userSpaceOnUse" x="0" y="0" width="201" height="200">
<path d="M200.5 0H0.5V200H200.5V0Z" fill="white"/>
</mask>
<g mask="url(#mask0_1_886)">
<path d="M90.4318 6.12863C94.6569 -2.04288 106.343 -2.04288 110.568 6.12863L137.473 58.1644C138.551 60.2496 140.25 61.9486 142.336 63.0268L194.371 89.9318C202.543 94.1569 202.543 105.843 194.371 110.068L142.336 136.973C140.25 138.051 138.551 139.75 137.473 141.836L110.568 193.871C106.343 202.043 94.6569 202.043 90.4318 193.871L63.5268 141.836C62.4486 139.75 60.7496 138.051 58.6644 136.973L6.62863 110.068C-1.54288 105.843 -1.54288 94.1569 6.62863 89.9318L58.6644 63.0268C60.7496 61.9486 62.4486 60.2496 63.5268 58.1644L90.4318 6.12863Z" fill="white"/>
</g>
</g>
<defs>
<clipPath id="clip0_1_886">
<rect width="200" height="200" fill="white" transform="translate(0.5)"/>
</clipPath>
</defs>
</svg>
