<svg width="201" height="200" viewBox="0 0 201 200" fill="none" xmlns="http://www.w3.org/2000/svg">
<g clip-path="url(#clip0_1_1316)">
<mask id="mask0_1_1316" style="mask-type:luminance" maskUnits="userSpaceOnUse" x="0" y="0" width="201" height="200">
<path d="M200.5 0H0.5V200H200.5V0Z" fill="white"/>
</mask>
<g mask="url(#mask0_1_1316)">
<path fill-rule="evenodd" clip-rule="evenodd" d="M82.5191 130.784C28.6506 223.072 172.423 223.072 118.481 130.784C200.622 223.072 223.574 200.161 131.279 117.986C223.574 171.856 223.574 28.0777 131.279 82.0224C223.574 -0.153374 200.653 -23.0746 118.481 69.2237C172.349 -23.0746 28.5766 -23.0746 82.5191 69.2237C0.346664 -23.0746 -22.5737 -0.153374 69.721 82.0224C-22.5737 28.1517 -22.5737 171.93 69.721 117.986C-22.5737 200.161 0.346664 223.072 82.5191 130.784ZM100.5 125C114.307 125 125.5 113.807 125.5 100C125.5 86.1929 114.307 75 100.5 75C86.6929 75 75.5 86.1929 75.5 100C75.5 113.807 86.6929 125 100.5 125Z" fill="white"/>
</g>
</g>
<defs>
<clipPath id="clip0_1_1316">
<rect width="200" height="200" fill="white" transform="translate(0.5)"/>
</clipPath>
</defs>
</svg>
