<svg width="201" height="200" viewBox="0 0 201 200" fill="none" xmlns="http://www.w3.org/2000/svg">
<g clip-path="url(#clip0_1_892)">
<mask id="mask0_1_892" style="mask-type:luminance" maskUnits="userSpaceOnUse" x="0" y="0" width="201" height="200">
<path d="M200.5 0H0.5V200H200.5V0Z" fill="white"/>
</mask>
<g mask="url(#mask0_1_892)">
<path d="M94.1797 5.15488C97.859 2.1541 103.141 2.1541 106.82 5.15488L114.753 11.6251C117.25 13.6609 120.574 14.3697 123.683 13.5292L133.539 10.8653C138.116 9.6282 142.932 11.7751 145.072 16.0059L149.729 25.2155C151.179 28.0815 153.916 30.0769 157.088 30.5794L167.217 32.1841C171.884 32.9235 175.397 36.8291 175.639 41.5484L176.172 51.9385C176.336 55.1331 178.019 58.0566 180.699 59.8034L189.365 65.4521C193.311 68.0248 194.927 73.0034 193.243 77.4036L189.515 87.1466C188.374 90.1272 188.725 93.4732 190.458 96.1527L196.118 104.899C198.675 108.852 198.129 114.053 194.806 117.389L187.476 124.748C185.222 127.011 184.184 130.214 184.684 133.369L186.315 143.668C187.052 148.327 184.433 152.868 180.031 154.564L170.421 158.264C167.43 159.416 165.172 161.931 164.349 165.029L161.688 175.047C160.473 179.623 156.216 182.719 151.489 182.466L141.28 181.92C138.067 181.748 134.968 183.132 132.952 185.639L126.514 193.647C123.54 197.346 118.376 198.445 114.153 196.277L105.067 191.612C102.2 190.141 98.7999 190.141 95.9331 191.612L86.8465 196.277C82.6243 198.445 77.4601 197.346 74.4862 193.647L68.048 185.639C66.0321 183.132 62.933 181.748 59.7203 181.92L49.5111 182.466C44.784 182.719 40.5271 179.623 39.3119 175.047L36.6507 165.029C35.8279 161.931 33.5702 159.416 30.5792 158.264L20.9691 154.564C16.5666 152.868 13.9477 148.327 14.6855 143.668L16.3162 133.369C16.8157 130.214 15.7781 127.011 13.524 124.748L6.19366 117.389C2.87112 114.053 2.32508 108.852 4.88247 104.899L10.5415 96.1527C12.2752 93.4732 12.6257 90.1272 11.4851 87.1466L7.7566 77.4036C6.07275 73.0034 7.68855 68.0248 11.6354 65.4521L20.3014 59.8034C22.9812 58.0566 24.6636 55.1331 24.8275 51.9385L25.3607 41.5484C25.6029 36.8291 29.1155 32.9235 33.7828 32.1841L43.9118 30.5794C47.0838 30.0769 49.8214 28.0815 51.2708 25.2155L55.9283 16.0059C58.0679 11.7751 62.8844 9.62819 67.4613 10.8653L77.3169 13.5292C80.4264 14.3697 83.7504 13.6609 86.2465 11.6251L94.1797 5.15488Z" fill="white"/>
</g>
</g>
<defs>
<clipPath id="clip0_1_892">
<rect width="200" height="200" fill="white" transform="translate(0.5)"/>
</clipPath>
</defs>
</svg>
