<svg width="201" height="200" viewBox="0 0 201 200" fill="none" xmlns="http://www.w3.org/2000/svg">
<g clip-path="url(#clip0_1_1250)">
<mask id="mask0_1_1250" style="mask-type:luminance" maskUnits="userSpaceOnUse" x="0" y="0" width="201" height="200">
<path d="M200.5 0H0.5V200H200.5V0Z" fill="white"/>
</mask>
<g mask="url(#mask0_1_1250)">
<path d="M118.481 130.784C172.423 223.072 28.6506 223.072 82.5191 130.784C0.346657 223.072 -22.5737 200.161 69.721 117.985C-22.5737 171.93 -22.5737 28.1517 69.721 82.0224C-22.5737 -0.153381 0.346657 -23.0746 82.5191 69.2237C28.5766 -23.0746 172.349 -23.0746 118.481 69.2237C200.653 -23.0746 223.574 -0.153381 131.279 82.0224C223.574 28.0777 223.574 171.856 131.279 117.985C223.574 200.161 200.622 223.072 118.481 130.784Z" fill="white"/>
</g>
</g>
<defs>
<clipPath id="clip0_1_1250">
<rect width="200" height="200" fill="white" transform="translate(0.5)"/>
</clipPath>
</defs>
</svg>
