<svg width="201" height="200" viewBox="0 0 201 200" fill="none" xmlns="http://www.w3.org/2000/svg">
<g clip-path="url(#clip0_1_1040)">
<mask id="mask0_1_1040" style="mask-type:luminance" maskUnits="userSpaceOnUse" x="0" y="0" width="201" height="200">
<path d="M200.5 0H0.5V200H200.5V0Z" fill="white"/>
</mask>
<g mask="url(#mask0_1_1040)">
<path fill-rule="evenodd" clip-rule="evenodd" d="M189.441 100C193.269 100 196.977 99.4861 200.5 98.5234C197.699 97.9327 194.795 97.622 191.819 97.622H142.355C134.185 97.622 126.561 95.2811 120.119 91.2334C121.527 82.9896 125.413 75.0866 131.777 68.7229L163.391 37.1094C166.098 34.4024 168.356 31.4169 170.167 28.2452C167.768 29.8079 165.495 31.6416 163.391 33.7463L128.414 68.7229C122.637 74.4999 115.591 78.2351 108.174 79.9285C103.34 73.1033 100.5 64.7671 100.5 55.7675V11.0593C100.5 7.23107 99.9861 3.5229 99.0234 0C98.4327 2.80071 98.122 5.70466 98.122 8.68118V58.1456C98.122 66.3155 95.7811 73.9388 91.7335 80.3812C83.4897 78.9727 75.5866 75.0865 69.2229 68.7228L37.6094 37.1094C34.9024 34.4024 31.9169 32.1437 28.7452 30.3334C30.3079 32.7315 32.1416 35.0047 34.2463 37.1094L69.2229 72.086C74.9999 77.8631 78.7352 84.9088 80.4285 92.3263C73.6033 97.1596 65.2671 100 56.2675 100H11.5593C7.73105 100 4.02289 100.514 0.5 101.477C3.30073 102.067 6.20469 102.378 9.18122 102.378H58.6456C66.8156 102.378 74.4388 104.719 80.8812 108.767C79.4727 117.01 75.5866 124.913 69.2229 131.277L37.6094 162.891C34.9025 165.598 32.6438 168.583 30.8335 171.755C33.2316 170.192 35.5047 168.358 37.6094 166.254L72.586 131.277C78.363 125.5 85.4088 121.765 92.8263 120.071C97.6596 126.897 100.5 135.233 100.5 144.233V188.941C100.5 192.769 101.014 196.477 101.977 200C102.567 197.199 102.878 194.295 102.878 191.319V141.854C102.878 133.684 105.219 126.061 109.267 119.619C117.51 121.027 125.413 124.913 131.777 131.277L163.391 162.891C166.098 165.598 169.083 167.856 172.255 169.667C170.692 167.268 168.858 164.995 166.754 162.891L131.777 127.914C126 122.137 122.265 115.091 120.572 107.674C127.397 102.84 135.733 100 144.733 100H189.441Z" fill="white"/>
</g>
</g>
<defs>
<clipPath id="clip0_1_1040">
<rect width="200" height="200" fill="white" transform="translate(0.5)"/>
</clipPath>
</defs>
</svg>
