<svg width="201" height="200" viewBox="0 0 201 200" fill="none" xmlns="http://www.w3.org/2000/svg">
<g clip-path="url(#clip0_1_780)">
<mask id="mask0_1_780" style="mask-type:luminance" maskUnits="userSpaceOnUse" x="0" y="0" width="201" height="200">
<path d="M200.5 0H0.5V200H200.5V0Z" fill="white"/>
</mask>
<g mask="url(#mask0_1_780)">
<path fill-rule="evenodd" clip-rule="evenodd" d="M0.502424 200C0.500809 199.834 0.5 199.667 0.5 199.5C0.5 174.111 19.2366 153.097 43.6371 149.533C19.2701 146.188 0.5 125.286 0.5 100C0.5 72.3858 22.8858 50 50.5 50H51C23.2765 50 0.770718 27.6601 0.502424 0H200.498C200.229 27.6601 177.724 50 150 50H150.5C178.114 50 200.5 72.3858 200.5 100C200.5 125.286 181.73 146.188 157.363 149.533C181.763 153.097 200.5 174.111 200.5 199.5C200.5 199.667 200.499 199.834 200.498 200H0.502424Z" fill="white"/>
</g>
</g>
<defs>
<clipPath id="clip0_1_780">
<rect width="200" height="200" fill="white" transform="translate(0.5)"/>
</clipPath>
</defs>
</svg>
