<svg width="201" height="200" viewBox="0 0 201 200" fill="none" xmlns="http://www.w3.org/2000/svg">
<g clip-path="url(#clip0_1_1208)">
<mask id="mask0_1_1208" style="mask-type:luminance" maskUnits="userSpaceOnUse" x="0" y="0" width="201" height="200">
<path d="M200.5 0H0.5V200H200.5V0Z" fill="white"/>
</mask>
<g mask="url(#mask0_1_1208)">
<path d="M100.5 0C100.514 36.893 145.113 55.3667 171.211 29.2893C145.133 55.3866 163.607 99.9859 200.5 100C163.607 100.014 145.133 144.613 171.211 170.711C145.113 144.633 100.514 163.107 100.5 200C100.486 163.107 55.8866 144.633 29.7893 170.711C55.8667 144.613 37.393 100.014 0.5 100C37.393 99.9859 55.8667 55.3866 29.7893 29.2893C55.8866 55.3667 100.486 36.893 100.5 0Z" fill="white"/>
</g>
</g>
<defs>
<clipPath id="clip0_1_1208">
<rect width="200" height="200" fill="white" transform="translate(0.5)"/>
</clipPath>
</defs>
</svg>
