<svg width="201" height="200" viewBox="0 0 201 200" fill="none" xmlns="http://www.w3.org/2000/svg">
<g clip-path="url(#clip0_1_904)">
<mask id="mask0_1_904" style="mask-type:luminance" maskUnits="userSpaceOnUse" x="0" y="0" width="201" height="200">
<path d="M200.5 0H0.5V200H200.5V0Z" fill="white"/>
</mask>
<g mask="url(#mask0_1_904)">
<path d="M72.0579 16.3347C84.8365 -5.4449 116.325 -5.44489 129.103 16.3347L129.567 17.1257C135.463 27.1733 146.209 33.378 157.858 33.4596L158.776 33.466C184.027 33.6428 199.771 60.9123 187.298 82.8687L186.845 83.6661C181.091 93.7953 181.091 106.205 186.845 116.334L187.298 117.131C199.771 139.088 184.027 166.357 158.776 166.534L157.858 166.54C146.209 166.622 135.463 172.827 129.567 182.874L129.103 183.665C116.325 205.445 84.8365 205.445 72.0579 183.665L71.5938 182.874C65.6986 172.827 54.9517 166.622 43.3027 166.54L42.3856 166.534C17.1346 166.357 1.39061 139.088 13.8629 117.131L14.3159 116.334C20.0698 106.205 20.0698 93.7953 14.3159 83.6661L13.8629 82.8687C1.39061 60.9123 17.1346 33.6428 42.3856 33.466L43.3027 33.4596C54.9518 33.378 65.6986 27.1733 71.5938 17.1257L72.0579 16.3347Z" fill="white"/>
</g>
</g>
<defs>
<clipPath id="clip0_1_904">
<rect width="200" height="200" fill="white" transform="translate(0.5)"/>
</clipPath>
</defs>
</svg>
