<svg width="201" height="200" viewBox="0 0 201 200" fill="none" xmlns="http://www.w3.org/2000/svg">
<g clip-path="url(#clip0_1_992)">
<mask id="mask0_1_992" style="mask-type:luminance" maskUnits="userSpaceOnUse" x="0" y="0" width="201" height="200">
<path d="M200.5 0H0.5V200H200.5V0Z" fill="white"/>
</mask>
<g mask="url(#mask0_1_992)">
<path fill-rule="evenodd" clip-rule="evenodd" d="M113.048 87.4518C122.209 83.5318 135.593 81.0606 150.5 81.0606C178.114 81.0606 200.5 89.5401 200.5 100C200.5 110.46 178.114 118.939 150.5 118.939C135.593 118.939 122.209 116.468 113.048 112.548C116.968 121.709 119.439 135.093 119.439 150C119.439 177.614 110.96 200 100.5 200C90.0401 200 81.5606 177.614 81.5606 150C81.5606 135.093 84.0318 121.709 87.9518 112.548C78.7912 116.468 65.4075 118.939 50.5 118.939C22.8858 118.939 0.5 110.46 0.5 100C0.5 89.5401 22.8858 81.0606 50.5 81.0606C65.4075 81.0606 78.7912 83.5318 87.9518 87.4518C84.0318 78.2912 81.5606 64.9075 81.5606 50C81.5606 22.3858 90.0401 0 100.5 0C110.96 0 119.439 22.3858 119.439 50C119.439 64.9075 116.968 78.2912 113.048 87.4518Z" fill="white"/>
</g>
</g>
<defs>
<clipPath id="clip0_1_992">
<rect width="200" height="200" fill="white" transform="translate(0.5)"/>
</clipPath>
</defs>
</svg>
