<svg width="201" height="200" viewBox="0 0 201 200" fill="none" xmlns="http://www.w3.org/2000/svg">
<g clip-path="url(#clip0_1_858)">
<mask id="mask0_1_858" style="mask-type:luminance" maskUnits="userSpaceOnUse" x="0" y="0" width="201" height="200">
<path d="M200.5 0H0.5V200H200.5V0Z" fill="white"/>
</mask>
<g mask="url(#mask0_1_858)">
<path fill-rule="evenodd" clip-rule="evenodd" d="M132.636 164.537C122.932 180.711 111.197 188 100.5 188C89.8026 188 78.0678 180.711 68.3635 164.537C58.8025 148.602 52.5 125.813 52.5 100C52.5 74.1867 58.8025 51.3982 68.3635 35.4633C78.0678 19.2895 89.8026 12 100.5 12C111.197 12 122.932 19.2895 132.636 35.4633C142.197 51.3982 148.5 74.1867 148.5 100C148.5 125.813 142.197 148.602 132.636 164.537ZM200.5 100C200.5 44.7715 155.728 0 100.5 0C45.2715 0 0.5 44.7715 0.5 100C0.5 155.228 45.2715 200 100.5 200C155.728 200 200.5 155.228 200.5 100ZM12.5 100C12.5 135.93 34.0326 166.83 64.8973 180.5C50.0982 162.289 40.5 133.013 40.5 100C40.5 66.9873 50.0982 37.7108 64.8973 19.4995C34.0326 33.1701 12.5 64.0704 12.5 100ZM188.5 100C188.5 135.93 166.967 166.83 136.103 180.5C150.902 162.289 160.5 133.013 160.5 100C160.5 66.9873 150.902 37.7108 136.103 19.4995C166.967 33.1701 188.5 64.0704 188.5 100ZM100.5 111C106.575 111 111.5 106.075 111.5 100C111.5 93.9249 106.575 89 100.5 89C94.4249 89 89.5 93.9249 89.5 100C89.5 106.075 94.4249 111 100.5 111Z" fill="white"/>
</g>
</g>
<defs>
<clipPath id="clip0_1_858">
<rect width="200" height="200" fill="white" transform="translate(0.5)"/>
</clipPath>
</defs>
</svg>
