<svg width="201" height="200" viewBox="0 0 201 200" fill="none" xmlns="http://www.w3.org/2000/svg">
<g clip-path="url(#clip0_1_1244)">
<mask id="mask0_1_1244" style="mask-type:luminance" maskUnits="userSpaceOnUse" x="0" y="0" width="201" height="200">
<path d="M200.5 0H0.5V200H200.5V0Z" fill="white"/>
</mask>
<g mask="url(#mask0_1_1244)">
<path d="M136.053 160.869C166.523 213.044 34.4891 213.044 64.9593 160.869C8.51516 213.044 -12.5437 191.961 39.6312 135.553C-12.5437 166.023 -12.5437 33.9891 39.6312 64.4593C-12.5437 8.01516 8.53907 -13.0437 64.9593 39.1312C34.4891 -13.0437 166.523 -13.0437 136.053 39.1312C192.497 -13.0437 213.544 8.03907 161.369 64.4593C213.544 33.9891 213.544 166.023 161.369 135.553C213.544 191.985 192.497 213.044 136.053 160.869Z" fill="white"/>
</g>
</g>
<defs>
<clipPath id="clip0_1_1244">
<rect width="200" height="200" fill="white" transform="translate(0.5)"/>
</clipPath>
</defs>
</svg>
