<svg width="201" height="200" viewBox="0 0 201 200" fill="none" xmlns="http://www.w3.org/2000/svg">
<g clip-path="url(#clip0_1_792)">
<mask id="mask0_1_792" style="mask-type:luminance" maskUnits="userSpaceOnUse" x="0" y="0" width="201" height="200">
<path d="M0.5 0L0.5 200H200.5V0H0.5Z" fill="white"/>
</mask>
<g mask="url(#mask0_1_792)">
<path fill-rule="evenodd" clip-rule="evenodd" d="M0.5 200L0.500016 100L0.500002 4.3711e-06L100.5 0L200.5 1.08876e-05V100V200H100.5H0.5ZM100.5 149.973C100.515 122.371 122.895 100 150.5 100C122.886 100 100.5 77.6142 100.5 50C100.5 77.6142 78.1142 100 50.5 100C78.1052 100 100.485 122.371 100.5 149.973ZM50.5 126C63.7548 126 74.5 136.745 74.5 150C74.5 163.255 63.7548 174 50.5 174C37.2452 174 26.5 163.255 26.5 150C26.5 136.745 37.2452 126 50.5 126ZM74.5 50C74.5 63.2548 63.7548 74 50.5 74C37.2452 74 26.5 63.2548 26.5 50C26.5 36.7451 37.2452 26 50.5 26C63.7548 26 74.5 36.7451 74.5 50ZM126.5 150C126.5 136.745 137.245 126 150.5 126C163.755 126 174.5 136.745 174.5 150C174.5 163.255 163.755 174 150.5 174C137.245 174 126.5 163.255 126.5 150ZM126.5 50C126.5 63.2548 137.245 74 150.5 74C163.755 74 174.5 63.2548 174.5 50C174.5 36.7452 163.755 26 150.5 26C137.245 26 126.5 36.7451 126.5 50Z" fill="white"/>
</g>
</g>
<defs>
<clipPath id="clip0_1_792">
<rect width="200" height="200" fill="white" transform="translate(0.5)"/>
</clipPath>
</defs>
</svg>
