<svg width="201" height="200" viewBox="0 0 201 200" fill="none" xmlns="http://www.w3.org/2000/svg">
<g clip-path="url(#clip0_1_1268)">
<mask id="mask0_1_1268" style="mask-type:luminance" maskUnits="userSpaceOnUse" x="0" y="0" width="201" height="200">
<path d="M200.5 0H0.5V200H200.5V0Z" fill="white"/>
</mask>
<g mask="url(#mask0_1_1268)">
<path d="M165.719 191.946C166.119 196.381 155.032 202.035 151.544 199.266C121.508 175.429 79.5176 175.423 49.4751 199.247C45.9855 202.014 34.8857 196.351 35.2842 191.916C37.1166 171.522 28.9775 163.383 8.58349 165.215C4.14759 165.614 -1.51504 154.513 1.25241 151.024C25.0761 120.983 25.0695 78.9977 1.23284 48.964C-1.53562 45.4758 4.11791 34.3877 8.55325 34.7871C28.9695 36.6256 37.1176 28.4874 35.2842 8.08354C34.8856 3.64769 45.9855 -2.01499 49.4751 0.752344C79.5176 24.5765 121.508 24.57 151.544 0.732783C155.032 -2.03555 166.119 3.61799 165.719 8.05328C163.879 28.4788 172.025 36.6261 192.446 34.7872C196.881 34.3878 202.535 45.475 199.767 48.9634C175.936 78.9973 175.929 120.984 199.748 151.024C202.515 154.514 196.852 165.614 192.416 165.215C172.017 163.383 163.88 171.531 165.719 191.946Z" fill="white"/>
</g>
</g>
<defs>
<clipPath id="clip0_1_1268">
<rect width="200" height="200" fill="white" transform="translate(0.5)"/>
</clipPath>
</defs>
</svg>
