<svg width="201" height="200" viewBox="0 0 201 200" fill="none" xmlns="http://www.w3.org/2000/svg">
<g clip-path="url(#clip0_1_1004)">
<mask id="mask0_1_1004" style="mask-type:luminance" maskUnits="userSpaceOnUse" x="0" y="0" width="201" height="200">
<path d="M200.5 0H0.5V200H200.5V0Z" fill="white"/>
</mask>
<g mask="url(#mask0_1_1004)">
<path fill-rule="evenodd" clip-rule="evenodd" d="M100.5 100C100.5 100 113 66.5265 113 42.8571C113 19.1878 107.404 0 100.5 0C93.5964 0 88 19.1878 88 42.8571C88 66.5265 100.5 100 100.5 100ZM100.5 100C100.5 100 115.331 132.508 132.067 149.245C148.804 165.982 166.329 175.592 171.211 170.711C176.092 165.829 166.482 148.304 149.745 131.567C133.008 114.831 100.5 100 100.5 100ZM100.5 100C100.5 100 133.974 87.5 157.643 87.5C181.312 87.5 200.5 93.0964 200.5 100C200.5 106.904 181.312 112.5 157.643 112.5C133.974 112.5 100.5 100 100.5 100ZM100.5 100C100.5 100 67.9918 114.831 51.255 131.567C34.5183 148.304 24.9077 165.829 29.7893 170.711C34.6709 175.592 52.196 165.982 68.9327 149.245C85.6695 132.508 100.5 100 100.5 100ZM100.5 100C100.528 100.074 113 133.5 113 157.143C113 180.812 107.404 200 100.5 200C93.5964 200 88 180.812 88 157.143C88 133.474 100.5 100 100.5 100ZM100.5 100C100.5 100 67.0265 87.5 43.3571 87.5C19.6878 87.5 0.5 93.0964 0.5 100C0.5 106.904 19.6878 112.5 43.3571 112.5C67.0265 112.5 100.5 100 100.5 100ZM100.5 100C100.5 100 133.008 85.1694 149.745 68.4327C166.482 51.6959 176.092 34.1708 171.211 29.2893C166.329 24.4077 148.804 34.0183 132.067 50.755C115.331 67.4918 100.5 100 100.5 100ZM68.9327 50.755C85.6695 67.4918 100.5 100 100.5 100C100.5 100 67.9918 85.1695 51.2551 68.4327C34.5183 51.696 24.9078 34.1709 29.7893 29.2893C34.6709 24.4078 52.196 34.0183 68.9327 50.755Z" fill="white"/>
</g>
</g>
<defs>
<clipPath id="clip0_1_1004">
<rect width="200" height="200" fill="white" transform="translate(0.5)"/>
</clipPath>
</defs>
</svg>
