<svg width="201" height="200" viewBox="0 0 201 200" fill="none" xmlns="http://www.w3.org/2000/svg">
<path fill-rule="evenodd" clip-rule="evenodd" d="M170.409 139.373C162.236 129.94 160.908 115.21 166.332 103.97C170.925 94.452 173.5 83.7766 173.5 72.5C173.5 32.4594 141.041 0 101 0C60.9594 0 28.5 32.4594 28.5 72.5C28.5 83.522 30.9596 93.9695 35.3598 103.324C40.6723 114.617 39.1997 129.334 30.9352 138.686C20.6832 150.288 13.2935 164.478 9.87176 180.151C7.51575 190.942 16.6944 200 27.7401 200H173.003C184.049 200 193.228 190.943 190.872 180.151C187.517 164.786 180.349 150.845 170.409 139.373Z" fill="white"/>
</svg>
