<svg width="201" height="200" viewBox="0 0 201 200" fill="none" xmlns="http://www.w3.org/2000/svg">
<g clip-path="url(#clip0_1_1304)">
<mask id="mask0_1_1304" style="mask-type:luminance" maskUnits="userSpaceOnUse" x="0" y="0" width="201" height="200">
<path d="M200.5 0H0.5V200H200.5V0Z" fill="white"/>
</mask>
<g mask="url(#mask0_1_1304)">
<path fill-rule="evenodd" clip-rule="evenodd" d="M100.494 183.711C107.281 191.856 114.067 200 127.64 200C158.884 200 167.909 158.444 167.921 127.156C167.921 113.584 176.065 106.798 184.21 100.012C192.355 93.2255 200.5 86.4395 200.5 72.8675C200.5 41.6139 158.884 32.5774 127.651 32.5774C114.079 32.5774 107.292 24.4331 100.506 16.2887C93.7194 8.14435 86.933 0 73.3602 0C42.1048 0 33.0678 41.6139 33.0678 72.8445C33.0678 86.4165 24.9259 93.2025 16.7839 99.9885C8.64196 106.775 0.5 113.561 0.5 127.133C0.5 158.386 42.1048 167.423 73.3487 167.423C86.9215 167.423 93.7079 175.567 100.494 183.711ZM100.5 137C120.935 137 137.5 120.435 137.5 100C137.5 79.5655 120.935 63 100.5 63C80.0655 63 63.5 79.5655 63.5 100C63.5 120.435 80.0655 137 100.5 137Z" fill="white"/>
</g>
</g>
<defs>
<clipPath id="clip0_1_1304">
<rect width="200" height="200" fill="white" transform="translate(0.5)"/>
</clipPath>
</defs>
</svg>
