<svg width="201" height="200" viewBox="0 0 201 200" fill="none" xmlns="http://www.w3.org/2000/svg">
<path fill-rule="evenodd" clip-rule="evenodd" d="M129.103 16.3347C116.325 -5.44489 84.8365 -5.4449 72.0579 16.3347L71.5938 17.1257C65.6986 27.1733 54.9518 33.378 43.3027 33.4596L42.3856 33.466C17.1346 33.6428 1.39061 60.9123 13.8629 82.8687L14.3159 83.6661C20.0698 93.7953 20.0698 106.205 14.3159 116.334L13.8629 117.131C1.39061 139.088 17.1346 166.357 42.3856 166.534L43.3027 166.54C54.9517 166.622 65.6986 172.827 71.5938 182.874L72.0579 183.665C84.8365 205.445 116.325 205.445 129.103 183.665L129.567 182.874C135.463 172.827 146.209 166.622 157.858 166.54L158.776 166.534C184.027 166.357 199.771 139.088 187.298 117.131L186.845 116.334C181.091 106.205 181.091 93.7953 186.845 83.6661L187.298 82.8687C199.771 60.9123 184.027 33.6428 158.776 33.466L157.858 33.4596C146.209 33.378 135.463 27.1733 129.567 17.1257L129.103 16.3347ZM100.581 149.604C127.976 149.604 150.185 127.396 150.185 100C150.185 72.6042 127.976 50.3955 100.581 50.3955C73.1848 50.3955 50.9761 72.6042 50.9761 100C50.9761 127.396 73.1848 149.604 100.581 149.604Z" fill="white"/>
</svg>
