<svg width="201" height="200" viewBox="0 0 201 200" fill="none" xmlns="http://www.w3.org/2000/svg">
<g clip-path="url(#clip0_1_1124)">
<mask id="mask0_1_1124" style="mask-type:luminance" maskUnits="userSpaceOnUse" x="0" y="0" width="201" height="200">
<path d="M200.5 0H0.5V200H200.5V0Z" fill="white"/>
</mask>
<g mask="url(#mask0_1_1124)">
<path fill-rule="evenodd" clip-rule="evenodd" d="M100.5 22.7143C100.5 10.564 90.6503 0.71428 78.5 0.71428H22.5C10.3497 0.71428 0.5 10.564 0.5 22.7143V78.7143C0.5 90.8645 10.3497 100.714 22.5 100.714H78.5C90.6503 100.714 100.5 110.564 100.5 122.714V177.286C100.5 189.436 110.35 199.286 122.5 199.286H178.5C190.65 199.286 200.5 189.436 200.5 177.286V121.286C200.5 109.135 190.65 99.2856 178.5 99.2856H122.5C110.35 99.2856 100.5 89.4359 100.5 77.2856V22.7143ZM177.786 100C189.936 100 199.786 90.1503 199.786 78V22C199.786 9.84974 189.936 2.97894e-06 177.786 2.44784e-06L121.786 0C109.635 -5.31105e-07 99.7857 9.84974 99.7857 22V78C99.7857 90.1503 89.936 100 77.7857 100H23.2143C11.064 100 1.21426 109.85 1.21426 122L1.21426 178C1.21426 190.15 11.064 200 23.2143 200H79.2143C91.3645 200 101.214 190.15 101.214 178V122C101.214 109.85 111.064 100 123.214 100H177.786Z" fill="white"/>
</g>
</g>
<defs>
<clipPath id="clip0_1_1124">
<rect width="200" height="200" fill="white" transform="translate(0.5)"/>
</clipPath>
</defs>
</svg>
