<svg width="201" height="200" viewBox="0 0 201 200" fill="none" xmlns="http://www.w3.org/2000/svg">
<g clip-path="url(#clip0_1_1118)">
<mask id="mask0_1_1118" style="mask-type:luminance" maskUnits="userSpaceOnUse" x="0" y="0" width="201" height="200">
<path d="M200.5 0H0.5V200H200.5V0Z" fill="white"/>
</mask>
<g mask="url(#mask0_1_1118)">
<path fill-rule="evenodd" clip-rule="evenodd" d="M18.9046 100.422C8.81777 102.425 1.21426 111.325 1.21426 122L1.21426 178C1.21426 190.15 11.064 200 23.2143 200H79.2143C90.1402 200 99.2058 192.035 100.922 181.595C102.925 191.682 111.825 199.286 122.5 199.286H178.5C190.65 199.286 200.5 189.436 200.5 177.286V121.286C200.5 110.36 192.535 101.294 182.096 99.578C192.182 97.5746 199.786 88.6752 199.786 78V22C199.786 9.84974 189.936 2.97894e-06 177.786 2.44784e-06L121.786 0C110.86 -4.77585e-07 101.794 7.96461 100.078 18.4046C98.0747 8.31778 89.1753 0.71428 78.5 0.71428H22.5C10.3497 0.71428 0.5 10.564 0.5 22.7143V78.7143C0.5 89.6401 8.46462 98.7058 18.9046 100.422Z" fill="white"/>
</g>
</g>
<defs>
<clipPath id="clip0_1_1118">
<rect width="200" height="200" fill="white" transform="translate(0.5)"/>
</clipPath>
</defs>
</svg>
