<svg width="201" height="200" viewBox="0 0 201 200" fill="none" xmlns="http://www.w3.org/2000/svg">
<g clip-path="url(#clip0_1_830)">
<mask id="mask0_1_830" style="mask-type:luminance" maskUnits="userSpaceOnUse" x="0" y="0" width="201" height="200">
<path d="M200.5 0H0.5V200H200.5V0Z" fill="white"/>
</mask>
<g mask="url(#mask0_1_830)">
<path fill-rule="evenodd" clip-rule="evenodd" d="M100.5 33.6449C93.2738 33.6449 87.4159 39.5028 87.4159 46.729H53.771C53.771 20.9213 74.6923 0 100.5 0C126.308 0 147.229 20.9213 147.229 46.729C147.229 72.5367 126.308 93.4579 100.5 93.4579V59.8131C107.726 59.8131 113.584 53.9551 113.584 46.729C113.584 39.5028 107.726 33.6449 100.5 33.6449ZM166.855 100C166.855 92.7738 160.997 86.9159 153.771 86.9159V53.271C179.579 53.271 200.5 74.1923 200.5 100C200.5 125.808 179.579 146.729 153.771 146.729C127.963 146.729 107.042 125.808 107.042 100H140.687C140.687 107.226 146.545 113.084 153.771 113.084C160.997 113.084 166.855 107.226 166.855 100ZM47.229 113.084C40.0028 113.084 34.1449 107.226 34.1449 100C34.1449 92.7738 40.0028 86.9159 47.229 86.9159C54.4551 86.9159 60.3131 92.7738 60.3131 100H93.9579C93.9579 74.1923 73.0367 53.271 47.229 53.271C21.4213 53.271 0.5 74.1923 0.5 100C0.5 125.808 21.4213 146.729 47.229 146.729V113.084ZM100.5 166.355C107.726 166.355 113.584 160.497 113.584 153.271H147.229C147.229 179.079 126.308 200 100.5 200C74.6923 200 53.771 179.079 53.771 153.271C53.771 127.463 74.6923 106.542 100.5 106.542V140.187C93.2738 140.187 87.4159 146.045 87.4159 153.271C87.4159 160.497 93.2738 166.355 100.5 166.355Z" fill="white"/>
</g>
</g>
<defs>
<clipPath id="clip0_1_830">
<rect width="200" height="200" fill="white" transform="translate(0.5)"/>
</clipPath>
</defs>
</svg>
