<svg width="201" height="200" viewBox="0 0 201 200" fill="none" xmlns="http://www.w3.org/2000/svg">
<g clip-path="url(#clip0_1_836)">
<path fill-rule="evenodd" clip-rule="evenodd" d="M32.5 100.641C32.5 68.391 54.6651 41.3515 84.5 34.1102V1.28125C36.8772 8.98855 0.5 50.5392 0.5 100.641C0.5 150.742 36.8772 192.293 84.5 200V167.171C54.6651 159.93 32.5 132.89 32.5 100.641ZM200.5 100.641C200.5 150.742 164.123 192.293 116.5 200V167.171C146.335 159.93 168.5 132.89 168.5 100.641C168.5 68.391 146.335 41.3515 116.5 34.1102V1.28125C164.123 8.98855 200.5 50.5392 200.5 100.641Z" fill="white"/>
</g>
<defs>
<clipPath id="clip0_1_836">
<rect width="200" height="200" fill="white" transform="translate(0.5)"/>
</clipPath>
</defs>
</svg>
