<svg width="201" height="200" viewBox="0 0 201 200" fill="none" xmlns="http://www.w3.org/2000/svg">
<g clip-path="url(#clip0_1_1150)">
<mask id="mask0_1_1150" style="mask-type:luminance" maskUnits="userSpaceOnUse" x="0" y="0" width="201" height="200">
<path d="M200.5 0H0.5V200H200.5V0Z" fill="white"/>
</mask>
<g mask="url(#mask0_1_1150)">
<path d="M127.733 110.308C146.356 117.358 171.423 116.073 187.383 107.25L200.5 100L187.383 92.7498C171.423 83.9274 146.357 82.6428 127.733 89.6916L113.767 94.9781C113.68 94.6967 113.575 94.4251 113.472 94.1516L127.046 88.0321C145.2 79.8479 162.015 61.2149 167.063 43.6907L171.211 29.2888L156.809 33.4367C139.285 38.4842 120.652 55.3 112.467 73.4535L106.557 86.5642C106.284 86.4316 106.011 86.3 105.729 86.1851L110.808 72.7665C117.857 54.1433 116.572 29.0767 107.75 13.1163L100.5 0L93.2498 13.1167C84.4274 29.0772 83.1428 54.1433 90.1916 72.767L95.2707 86.1856C94.9884 86.3005 94.7154 86.4321 94.4428 86.5646L88.5321 73.4539C80.3479 55.3005 61.7149 38.4846 44.1907 33.4372L29.7888 29.2893L33.9367 43.6912C38.9842 61.2149 55.8 79.8484 73.9535 88.0326L87.5274 94.1521C87.4247 94.4256 87.3191 94.6972 87.233 94.9786L73.2665 89.6921C54.6433 82.6428 29.5767 83.9279 13.6163 92.7502L0.5 100L13.6167 107.25C29.5772 116.073 54.6433 117.358 73.267 110.308L87.8861 104.775C88.0014 105.027 88.1172 105.28 88.247 105.524L73.954 111.968C55.8005 120.152 38.9847 138.785 33.9372 156.309L29.7893 170.711L44.1912 166.563C61.7149 161.516 80.3484 144.7 88.5326 126.547L95.1656 111.834C95.4107 111.936 95.6651 112.02 95.9172 112.109L90.1921 127.234C83.1428 145.857 84.4279 170.924 93.2502 186.884L100.5 200.001L107.751 186.884C116.573 170.924 117.858 145.858 110.809 127.234L105.083 112.108C105.335 112.02 105.59 111.936 105.835 111.833L112.468 126.546C120.652 144.7 139.285 161.515 156.809 166.563L171.211 170.711L167.063 156.309C162.016 138.785 145.2 120.152 127.047 111.967L112.753 105.524C112.883 105.28 112.999 105.027 113.114 104.774L127.733 110.308Z" fill="white"/>
</g>
</g>
<defs>
<clipPath id="clip0_1_1150">
<rect width="200" height="200" fill="white" transform="translate(0.5)"/>
</clipPath>
</defs>
</svg>
