<svg width="201" height="200" viewBox="0 0 201 200" fill="none" xmlns="http://www.w3.org/2000/svg">
<g clip-path="url(#clip0_1_1144)">
<mask id="mask0_1_1144" style="mask-type:luminance" maskUnits="userSpaceOnUse" x="0" y="0" width="201" height="200">
<path d="M200.5 0H0.5V200H200.5V0Z" fill="white"/>
</mask>
<g mask="url(#mask0_1_1144)">
<path fill-rule="evenodd" clip-rule="evenodd" d="M18.9294 66.2123C16.1458 53.315 19.7658 39.3128 29.7893 29.2893C39.8129 19.2658 53.815 15.6458 66.7123 18.4293C73.8638 7.34131 86.3246 0 100.5 0C114.675 0 127.136 7.34133 134.288 18.4294C147.185 15.6458 161.187 19.2658 171.211 29.2893C181.234 39.3129 184.854 53.315 182.071 66.2123C193.159 73.3638 200.5 85.8246 200.5 100C200.5 114.175 193.159 126.636 182.071 133.788C184.854 146.685 181.234 160.687 171.211 170.711C161.187 180.734 147.185 184.354 134.288 181.571C127.136 192.659 114.675 200 100.5 200C86.3246 200 73.8639 192.659 66.7123 181.571C53.815 184.354 39.8129 180.734 29.7893 170.711C19.7658 160.687 16.1458 146.685 18.9294 133.788C7.84132 126.636 0.5 114.175 0.5 100C0.5 85.8246 7.84132 73.3638 18.9294 66.2123ZM71.9555 128.495C87.6454 144.184 113.084 144.184 128.774 128.495C144.464 112.805 144.464 87.3662 128.774 71.6762C113.084 55.9863 87.6454 55.9863 71.9555 71.6762C56.2656 87.3662 56.2656 112.805 71.9555 128.495Z" fill="white"/>
</g>
</g>
<defs>
<clipPath id="clip0_1_1144">
<rect width="200" height="200" fill="white" transform="translate(0.5)"/>
</clipPath>
</defs>
</svg>
