<svg width="201" height="200" viewBox="0 0 201 200" fill="none" xmlns="http://www.w3.org/2000/svg">
<g clip-path="url(#clip0_1_762)">
<mask id="mask0_1_762" style="mask-type:luminance" maskUnits="userSpaceOnUse" x="0" y="0" width="201" height="200">
<path d="M200.5 0H0.5V200H200.5V0Z" fill="white"/>
</mask>
<g mask="url(#mask0_1_762)">
<path fill-rule="evenodd" clip-rule="evenodd" d="M100.5 50C100.5 22.3858 78.1142 5.5782e-06 50.5 0C50.5 27.6102 72.8792 49.9935 100.488 50C72.8792 50.0065 50.5 72.3898 50.5 100C50.5 72.3858 28.1142 50 0.5 50C0.500002 77.6142 22.8858 100 50.5 100C22.8858 100 0.500007 122.386 0.500002 150C28.1096 150 50.4925 127.622 50.5 100.014C50.5075 127.622 72.8904 150 100.5 150C72.8858 150 50.5 172.386 50.5 200C78.1142 200 100.5 177.614 100.5 150C128.114 150 150.5 127.614 150.5 100C150.5 127.614 172.886 150 200.5 150C200.5 122.386 178.114 100 150.5 100C150.5 72.3858 128.114 50 100.5 50ZM150.5 2.18557e-06C122.886 2.18557e-06 100.5 22.3858 100.5 50C128.114 50 150.5 27.6142 150.5 2.18557e-06ZM150.5 200C122.886 200 100.5 177.614 100.5 150C128.114 150 150.5 172.386 150.5 200ZM200.5 50C200.5 77.6142 178.114 100 150.5 100C150.5 72.3858 172.886 50 200.5 50Z" fill="white"/>
</g>
</g>
<defs>
<clipPath id="clip0_1_762">
<rect width="200" height="200" fill="white" transform="translate(0.5)"/>
</clipPath>
</defs>
</svg>
