<svg width="201" height="200" viewBox="0 0 201 200" fill="none" xmlns="http://www.w3.org/2000/svg">
<g clip-path="url(#clip0_1_954)">
<mask id="mask0_1_954" style="mask-type:luminance" maskUnits="userSpaceOnUse" x="0" y="0" width="201" height="200">
<path d="M200.5 0H0.5V200H200.5V0Z" fill="white"/>
</mask>
<g mask="url(#mask0_1_954)">
<path fill-rule="evenodd" clip-rule="evenodd" d="M110.5 0C116.023 0 120.5 4.47715 120.5 10V27.5736C120.5 36.4826 131.271 40.9443 137.571 34.6446L149.997 22.2182C153.903 18.313 160.234 18.313 164.14 22.2182L178.282 36.3604C182.187 40.2656 182.187 46.5973 178.282 50.5025L165.855 62.9289C159.556 69.2286 164.017 80 172.926 80H190.5C196.023 80 200.5 84.4771 200.5 90V110C200.5 115.523 196.023 120 190.5 120H172.926C164.017 120 159.556 130.771 165.855 137.071L178.282 149.497C182.187 153.403 182.187 159.734 178.282 163.64L164.14 177.782C160.234 181.687 153.903 181.687 149.997 177.782L137.571 165.355C131.271 159.056 120.5 163.517 120.5 172.426V190C120.5 195.523 116.023 200 110.5 200H90.5C84.9771 200 80.5 195.523 80.5 190V172.426C80.5 163.517 69.7286 159.056 63.4289 165.355L51.0025 177.782C47.0973 181.687 40.7656 181.687 36.8604 177.782L22.7183 163.64C18.813 159.734 18.813 153.403 22.7183 149.497L35.1447 137.071C41.4443 130.771 36.9827 120 28.0736 120H10.5C4.97716 120 0.5 115.523 0.5 110V90C0.5 84.4771 4.97715 80 10.5 80H28.0736C36.9826 80 41.4443 69.2286 35.1447 62.9289L22.7183 50.5025C18.813 46.5972 18.813 40.2656 22.7183 36.3604L36.8604 22.2182C40.7656 18.313 47.0973 18.313 51.0025 22.2182L63.4289 34.6446C69.7286 40.9443 80.5 36.4826 80.5 27.5736V10C80.5 4.47715 84.9771 0 90.5 0H110.5ZM100.5 150C128.114 150 150.5 127.614 150.5 100C150.5 72.3858 128.114 50 100.5 50C72.8858 50 50.5 72.3858 50.5 100C50.5 127.614 72.8858 150 100.5 150Z" fill="white"/>
</g>
</g>
<defs>
<clipPath id="clip0_1_954">
<rect width="200" height="200" fill="white" transform="translate(0.5)"/>
</clipPath>
</defs>
</svg>
