<svg width="201" height="200" viewBox="0 0 201 200" fill="none" xmlns="http://www.w3.org/2000/svg">
<g clip-path="url(#clip0_1_768)">
<mask id="mask0_1_768" style="mask-type:luminance" maskUnits="userSpaceOnUse" x="0" y="0" width="201" height="200">
<path d="M200.5 0H0.5V200H200.5V0Z" fill="white"/>
</mask>
<g mask="url(#mask0_1_768)">
<path fill-rule="evenodd" clip-rule="evenodd" d="M0.5 0C28.1142 0 50.5 22.3857 50.5 50C22.8858 50 0.5 27.6143 0.5 0ZM100.5 0C72.8858 0 50.5 22.3857 50.5 50C22.8858 50 0.5 72.3857 0.5 100C0.5 127.614 22.8858 150 50.5 150C22.8858 150 0.5 172.386 0.5 200C28.1142 200 50.5 177.614 50.5 150C50.5 177.614 72.8858 200 100.5 200C128.114 200 150.5 177.614 150.5 150C150.5 177.614 172.886 200 200.5 200C200.5 172.386 178.114 150 150.5 150C178.114 150 200.5 127.614 200.5 100C200.5 72.3857 178.114 50 150.5 50C178.114 50 200.5 27.6143 200.5 0C172.886 0 150.5 22.3857 150.5 50C150.5 22.3857 128.114 0 100.5 0ZM150.5 150C150.5 122.386 128.114 100 100.5 100C100.5 127.614 122.886 150 150.5 150ZM100.5 100C128.114 100 150.5 77.6143 150.5 50C150.5 77.6143 172.886 100 200.5 100C172.886 100 150.5 122.386 150.5 150C122.886 150 100.5 172.386 100.5 200C100.5 172.386 78.1142 150 50.5 150C78.1142 150 100.5 127.614 100.5 100ZM100.5 100C72.8858 100 50.5 122.386 50.5 150C50.5 122.386 28.1142 100 0.5 100C28.1142 100 50.5 77.6143 50.5 50C50.5 77.6143 72.8858 100 100.5 100ZM100.5 100C100.5 72.3857 122.886 50 150.5 50C122.886 50 100.5 27.6143 100.5 0C100.5 27.6143 78.1142 50 50.5 50C78.1142 50 100.5 72.3857 100.5 100Z" fill="white"/>
</g>
</g>
<defs>
<clipPath id="clip0_1_768">
<rect width="200" height="200" fill="white" transform="translate(0.5)"/>
</clipPath>
</defs>
</svg>
