<svg width="201" height="200" viewBox="0 0 201 200" fill="none" xmlns="http://www.w3.org/2000/svg">
<g clip-path="url(#clip0_1_1202)">
<mask id="mask0_1_1202" style="mask-type:luminance" maskUnits="userSpaceOnUse" x="0" y="0" width="201" height="200">
<path d="M200.5 0H0.5V200H200.5V0Z" fill="white"/>
</mask>
<g mask="url(#mask0_1_1202)">
<path d="M100.5 0L102.539 58.4951C102.998 71.6824 118.757 78.21 128.407 69.2101L171.211 29.2893L131.29 72.0931C122.29 81.7429 128.818 97.5019 142.005 97.9615L200.5 100L142.005 102.039C128.818 102.498 122.29 118.257 131.29 127.907L171.211 170.711L128.407 130.79C118.757 121.79 102.998 128.318 102.539 141.505L100.5 200L98.4615 141.505C98.0019 128.318 82.2429 121.79 72.5931 130.79L29.7893 170.711L69.7101 127.907C78.71 118.257 72.1824 102.498 58.9951 102.039L0.5 100L58.9951 97.9615C72.1824 97.5019 78.71 81.7429 69.7101 72.0931L29.7893 29.2893L72.5931 69.2101C82.2429 78.21 98.0019 71.6824 98.4615 58.4951L100.5 0Z" fill="white"/>
</g>
</g>
<defs>
<clipPath id="clip0_1_1202">
<rect width="200" height="200" fill="white" transform="translate(0.5)"/>
</clipPath>
</defs>
</svg>
