<svg width="201" height="200" viewBox="0 0 201 200" fill="none" xmlns="http://www.w3.org/2000/svg">
<g clip-path="url(#clip0_1_1310)">
<mask id="mask0_1_1310" style="mask-type:luminance" maskUnits="userSpaceOnUse" x="0" y="0" width="201" height="200">
<path d="M200.5 0H0.5V200H200.5V0Z" fill="white"/>
</mask>
<g mask="url(#mask0_1_1310)">
<path fill-rule="evenodd" clip-rule="evenodd" d="M26.7621 100C-36.4438 175.636 24.8644 236.944 100.5 173.738C176.121 236.944 237.444 175.578 174.238 100C237.444 24.3644 176.121 -36.9438 100.5 26.2621C24.8644 -36.9438 -36.4438 24.3644 26.7621 100ZM100.5 137C120.935 137 137.5 120.435 137.5 100C137.5 79.5655 120.935 63 100.5 63C80.0655 63 63.5 79.5655 63.5 100C63.5 120.435 80.0655 137 100.5 137Z" fill="white"/>
</g>
</g>
<defs>
<clipPath id="clip0_1_1310">
<rect width="200" height="200" fill="white" transform="translate(0.5)"/>
</clipPath>
</defs>
</svg>
