<svg width="201" height="200" viewBox="0 0 201 200" fill="none" xmlns="http://www.w3.org/2000/svg">
<g clip-path="url(#clip0_1_998)">
<mask id="mask0_1_998" style="mask-type:luminance" maskUnits="userSpaceOnUse" x="0" y="0" width="201" height="200">
<path d="M200.5 0H0.5V200H200.5V0Z" fill="white"/>
</mask>
<g mask="url(#mask0_1_998)">
<path fill-rule="evenodd" clip-rule="evenodd" d="M116.8 75.4739L149.853 42.4212C152.125 40.1498 155.807 40.1498 158.079 42.4212C160.35 44.6927 160.35 48.3754 158.079 50.6468L125.026 83.6996C132.486 82.0231 141.196 81.0606 150.5 81.0606C178.114 81.0606 200.5 89.5401 200.5 100C200.5 110.46 178.114 118.939 150.5 118.939C141.196 118.939 132.486 117.977 125.026 116.3L158.079 149.353C160.35 151.625 160.35 155.307 158.079 157.579C155.807 159.85 152.125 159.85 149.853 157.579L116.8 124.526C118.477 131.986 119.439 140.697 119.439 150C119.439 177.614 110.96 200 100.5 200C90.0401 200 81.5606 177.614 81.5606 150C81.5606 140.696 82.5231 131.986 84.1996 124.526L51.1468 157.579C48.8754 159.85 45.1927 159.85 42.9213 157.579C40.6499 155.307 40.6499 151.625 42.9213 149.353L75.974 116.3C68.5135 117.977 59.8035 118.939 50.5 118.939C22.8858 118.939 0.5 110.46 0.5 100C0.5 89.5401 22.8858 81.0606 50.5 81.0606C59.8035 81.0606 68.5136 82.0231 75.974 83.6996L42.9213 50.6469C40.6499 48.3755 40.6499 44.6928 42.9213 42.4213C45.1927 40.1499 48.8754 40.1499 51.1468 42.4213L84.1996 75.4741C82.5231 68.0136 81.5606 59.3036 81.5606 50C81.5606 22.3858 90.0401 0 100.5 0C110.96 0 119.439 22.3858 119.439 50C119.439 59.3035 118.477 68.0135 116.8 75.4739Z" fill="white"/>
</g>
</g>
<defs>
<clipPath id="clip0_1_998">
<rect width="200" height="200" fill="white" transform="translate(0.5)"/>
</clipPath>
</defs>
</svg>
