<svg width="201" height="200" viewBox="0 0 201 200" fill="none" xmlns="http://www.w3.org/2000/svg">
<g clip-path="url(#clip0_1_824)">
<mask id="mask0_1_824" style="mask-type:luminance" maskUnits="userSpaceOnUse" x="0" y="0" width="201" height="200">
<path d="M200.5 0H0.5V200H200.5V0Z" fill="white"/>
</mask>
<g mask="url(#mask0_1_824)">
<path fill-rule="evenodd" clip-rule="evenodd" d="M120.5 0H80.5V110C80.5 121.046 71.5457 130 60.5 130C49.4543 130 40.5 121.046 40.5 110V0H0.5V100C0.5 155.228 45.2715 200 100.5 200C155.728 200 200.5 155.228 200.5 100V0H160.5V110C160.5 121.046 151.546 130 140.5 130C129.454 130 120.5 121.046 120.5 110V0Z" fill="white"/>
</g>
</g>
<defs>
<clipPath id="clip0_1_824">
<rect width="200" height="200" fill="white" transform="translate(0.5)"/>
</clipPath>
</defs>
</svg>
