<svg width="201" height="200" viewBox="0 0 201 200" fill="none" xmlns="http://www.w3.org/2000/svg">
<g clip-path="url(#clip0_1_1298)">
<mask id="mask0_1_1298" style="mask-type:luminance" maskUnits="userSpaceOnUse" x="0" y="0" width="201" height="200">
<path d="M200.5 0H0.5V200H200.5V0Z" fill="white"/>
</mask>
<g mask="url(#mask0_1_1298)">
<path d="M100.178 105.287C100.178 -81.6924 145.608 21.3021 98.8534 102.278C145.598 21.3021 257.591 9.12898 95.591 102.638C257.552 9.14845 191.028 99.9892 97.5387 99.9892C191.028 99.9892 257.562 190.859 95.591 97.3404C257.552 190.83 145.608 178.686 98.8534 97.7007C145.598 178.686 100.178 281.759 100.178 94.7012C100.178 281.681 54.7379 178.686 101.493 97.7007C54.7477 178.686 -57.2451 190.859 104.755 97.3404C-57.2062 190.83 9.31757 99.9892 102.807 99.9892C9.31757 99.9892 -57.2159 9.12898 104.755 102.638C-57.2062 9.14845 54.7379 21.3021 101.493 102.278C54.7379 21.3021 100.178 -81.7411 100.178 105.287Z" fill="white"/>
</g>
</g>
<defs>
<clipPath id="clip0_1_1298">
<rect width="200" height="200" fill="white" transform="translate(0.5)"/>
</clipPath>
</defs>
</svg>
