<svg width="201" height="200" viewBox="0 0 201 200" fill="none" xmlns="http://www.w3.org/2000/svg">
<g clip-path="url(#clip0_1_960)">
<mask id="mask0_1_960" style="mask-type:luminance" maskUnits="userSpaceOnUse" x="0" y="0" width="201" height="200">
<path d="M200.5 0H0.5V200H200.5V0Z" fill="white"/>
</mask>
<g mask="url(#mask0_1_960)">
<path fill-rule="evenodd" clip-rule="evenodd" d="M102.104 0.859716C101.327 -0.435336 99.4501 -0.435335 98.6734 0.859717L79.8113 32.3083C79.2978 33.1644 78.2318 33.5107 77.3132 33.12L43.5684 18.7645C42.1788 18.1733 40.6604 19.2765 40.7932 20.7807L44.0184 57.31C44.1062 58.3044 43.4474 59.2112 42.4745 59.435L6.73647 67.6558C5.26478 67.9944 4.68481 69.7793 5.67645 70.9183L29.7571 98.5753C30.4126 99.3282 30.4126 100.449 29.7571 101.202L5.67645 128.859C4.68481 129.998 5.26478 131.783 6.73648 132.121L42.4745 140.342C43.4474 140.566 44.1062 141.473 44.0184 142.467L40.7932 178.996C40.6604 180.501 42.1788 181.604 43.5684 181.013L77.3132 166.657C78.2318 166.266 79.2978 166.613 79.8113 167.469L98.6734 198.917C99.4501 200.213 101.327 200.212 102.104 198.917L120.966 167.469C121.479 166.613 122.545 166.266 123.464 166.657L157.209 181.013C158.598 181.604 160.117 180.501 159.984 178.996L156.759 142.467C156.671 141.473 157.33 140.566 158.303 140.342L194.041 132.121C195.512 131.783 196.092 129.998 195.101 128.859L171.02 101.202C170.365 100.449 170.365 99.3282 171.02 98.5753L195.101 70.9183C196.092 69.7793 195.512 67.9944 194.041 67.6558L158.303 59.435C157.33 59.2112 156.671 58.3044 156.759 57.31L159.984 20.7807C160.117 19.2765 158.598 18.1733 157.209 18.7645L123.464 33.12C122.545 33.5107 121.479 33.1644 120.966 32.3083L102.104 0.859716ZM100.5 150C128.114 150 150.5 127.614 150.5 100C150.5 72.3858 128.114 50.0001 100.5 50.0001C72.8858 50.0001 50.5 72.3858 50.5 100C50.5 127.614 72.8858 150 100.5 150Z" fill="white"/>
</g>
</g>
<defs>
<clipPath id="clip0_1_960">
<rect width="200" height="200" fill="white" transform="translate(0.5)"/>
</clipPath>
</defs>
</svg>
