<svg width="201" height="200" viewBox="0 0 201 200" fill="none" xmlns="http://www.w3.org/2000/svg">
<g clip-path="url(#clip0_1_898)">
<mask id="mask0_1_898" style="mask-type:luminance" maskUnits="userSpaceOnUse" x="0" y="0" width="201" height="200">
<path d="M200.5 0H0.5V200H200.5V0Z" fill="white"/>
</mask>
<g mask="url(#mask0_1_898)">
<path d="M98.3118 1.84638C98.7359 -0.615472 102.264 -0.615455 102.688 1.8464L107.363 28.9805C107.736 31.1438 110.679 31.5163 111.577 29.5138L122.839 4.39701C123.861 2.11817 127.278 2.99725 127.078 5.48745L124.871 32.9338C124.695 35.1221 127.453 36.2162 128.82 34.5003L145.963 12.9789C147.518 11.0263 150.61 12.7293 149.798 15.0913L140.848 41.1255C140.134 43.2011 142.534 44.9481 144.284 43.6267L166.23 27.053C168.221 25.5493 170.793 27.9691 169.42 30.0546L154.289 53.0407C153.083 54.8733 154.974 57.1634 156.997 56.3195L182.367 45.7349C184.669 44.7746 186.56 47.7592 184.712 49.4371L164.351 67.9308C162.728 69.4053 163.991 72.0946 166.16 71.7812L193.36 67.8507C195.828 67.4941 196.919 70.8561 194.713 72.021L170.401 84.8603C168.463 85.8839 169.019 88.8034 171.197 89.0403L198.519 92.0109C200.998 92.2805 201.219 95.8084 198.794 96.3871L172.059 102.765C169.927 103.274 169.741 106.24 171.792 107.012L197.518 116.697C199.852 117.576 199.191 121.048 196.698 121.005L169.22 120.521C167.029 120.482 166.113 123.309 167.908 124.568L190.422 140.359C192.464 141.792 190.962 144.99 188.558 144.326L162.064 137.011C159.951 136.428 158.362 138.937 159.788 140.604L177.675 161.509C179.298 163.406 177.049 166.129 174.885 164.887L151.039 151.2C149.137 150.109 146.975 152.144 147.943 154.113L160.079 178.818C161.18 181.06 158.326 183.137 156.539 181.396L136.838 162.197C135.268 160.666 132.668 162.098 133.117 164.247L138.74 191.199C139.25 193.645 135.969 194.946 134.671 192.814L120.355 169.309C119.213 167.435 116.34 168.174 116.241 170.367L114.997 197.875C114.885 200.37 111.384 200.813 110.656 198.424L102.624 172.091C101.983 169.992 99.0168 169.992 98.3764 172.091L90.3444 198.424C89.6156 200.813 86.1154 200.37 86.0025 197.875L84.759 170.367C84.6599 168.174 81.7866 167.435 80.6453 169.309L66.3294 192.814C65.0305 194.946 61.7502 193.645 62.2604 191.199L67.8835 164.247C68.3318 162.098 65.7323 160.666 64.1617 162.197L44.4615 181.396C42.6741 183.137 39.8198 181.06 40.921 178.818L53.0574 154.113C54.025 152.144 51.8625 150.109 49.9613 151.2L26.1147 164.887C23.9511 166.129 21.7022 163.406 23.3251 161.509L41.2123 140.604C42.6384 138.937 41.0488 136.428 38.9365 137.011L12.4418 144.326C10.0379 144.99 8.53576 141.792 10.5784 140.359L33.0924 124.568C34.8874 123.309 33.9707 120.482 31.78 120.521L4.30194 121.005C1.80888 121.048 1.14776 117.576 3.48188 116.697L29.208 107.012C31.2591 106.24 31.0728 103.274 28.9413 102.765L2.2065 96.3871C-0.219139 95.8084 0.00241101 92.2805 2.48131 92.0109L29.8032 89.0403C31.9815 88.8034 32.5373 85.8839 30.599 84.8603L6.28724 72.021C4.08145 70.856 5.17171 67.4941 7.63963 67.8507L34.8405 71.7812C37.0091 72.0946 38.2722 69.4053 36.6488 67.9308L16.2877 49.4371C14.4404 47.7592 16.3308 44.7746 18.6327 45.7349L44.0034 56.3195C46.0262 57.1634 47.917 54.8733 46.7107 53.0407L31.5796 30.0546C30.2067 27.9691 32.7786 25.5493 34.7698 27.053L56.7162 43.6267C58.466 44.9481 60.8658 43.2011 60.1523 41.1255L51.2019 15.0913C50.3899 12.7293 53.4816 11.0263 55.037 12.9789L72.1801 34.5003C73.5469 36.2162 76.305 35.122 76.1291 32.9338L73.9219 5.48743C73.7216 2.99724 77.1389 2.11816 78.1607 4.39699L89.4235 29.5138C90.3214 31.5163 93.2645 31.1438 93.6372 28.9805L98.3118 1.84638Z" fill="white"/>
</g>
</g>
<defs>
<clipPath id="clip0_1_898">
<rect width="200" height="200" fill="white" transform="translate(0.5)"/>
</clipPath>
</defs>
</svg>
