<svg width="201" height="200" viewBox="0 0 201 200" fill="none" xmlns="http://www.w3.org/2000/svg">
<g clip-path="url(#clip0_1_966)">
<mask id="mask0_1_966" style="mask-type:luminance" maskUnits="userSpaceOnUse" x="0" y="0" width="201" height="200">
<path d="M200.5 0H0.5V200H200.5V0Z" fill="white"/>
</mask>
<g mask="url(#mask0_1_966)">
<path fill-rule="evenodd" clip-rule="evenodd" d="M103.643 0C105.852 0 107.643 1.79086 107.643 4V42.6749C107.643 47.0714 113.705 48.2497 115.352 44.1733L129.839 8.31456C130.667 6.26628 132.998 5.27669 135.047 6.10425L140.875 8.45892C142.923 9.28648 143.913 11.6178 143.085 13.6661L127.64 51.8948C126.007 55.935 131.095 59.3029 134.177 56.2217L163.331 27.0669C164.894 25.5048 167.426 25.5048 168.988 27.0669L173.433 31.5116C174.995 33.0737 174.995 35.6063 173.433 37.1684L147.252 63.3494C144.127 66.4748 147.632 71.6128 151.682 69.8432L185.61 55.0196C187.635 54.1351 189.993 55.0592 190.877 57.0835L193.394 62.8435C194.278 64.8679 193.354 67.2259 191.33 68.1104L152.234 85.1917C148.262 86.927 149.501 92.8571 153.835 92.8571H196.5C198.709 92.8571 200.5 94.648 200.5 96.8571V103.143C200.5 105.352 198.709 107.143 196.5 107.143H153.836C149.501 107.143 148.263 113.073 152.234 114.808L191.33 131.89C193.354 132.774 194.278 135.132 193.394 137.156L190.877 142.916C189.993 144.941 187.635 145.865 185.61 144.98L151.682 130.157C147.632 128.387 144.127 133.525 147.252 136.651L173.433 162.831C174.995 164.394 174.995 166.926 173.433 168.488L168.988 172.933C167.426 174.495 164.894 174.495 163.331 172.933L134.177 143.778C131.095 140.697 126.007 144.065 127.64 148.105L143.085 186.334C143.913 188.382 142.923 190.713 140.875 191.541L135.047 193.896C132.998 194.723 130.667 193.734 129.839 191.685L115.352 155.827C113.705 151.75 107.643 152.929 107.643 157.325V196C107.643 198.209 105.852 200 103.643 200H97.3571C95.148 200 93.3571 198.209 93.3571 196V157.325C93.3571 152.929 87.2953 151.75 85.6484 155.827L71.1605 191.685C70.3329 193.734 68.0016 194.723 65.9533 193.896L60.1253 191.541C58.077 190.713 57.0875 188.382 57.915 186.334L73.3605 148.105C74.9929 144.065 69.9046 140.697 66.8233 143.778L37.6685 172.933C36.1064 174.495 33.5737 174.495 32.0117 172.933L27.567 168.488C26.0049 166.926 26.0049 164.394 27.567 162.831L53.7479 136.65C56.8733 133.525 53.3683 128.387 49.318 130.157L15.3895 144.98C13.3652 145.865 11.0071 144.941 10.1227 142.916L7.60607 137.156C6.72161 135.132 7.64568 132.774 9.67004 131.89L48.7657 114.808C52.7374 113.073 51.4985 107.143 47.1642 107.143H4.5C2.29086 107.143 0.5 105.352 0.5 103.143V96.8571C0.5 94.648 2.29086 92.8571 4.5 92.8571H47.1644C51.4986 92.8571 52.7376 86.927 48.7659 85.1917L9.67001 68.1104C7.64565 67.2259 6.72158 64.8679 7.60604 62.8435L10.1226 57.0835C11.0071 55.0592 13.3651 54.1351 15.3895 55.0196L49.318 69.8432C53.3683 71.6129 56.8733 66.4748 53.7479 63.3494L27.567 37.1685C26.0049 35.6064 26.0049 33.0737 27.567 31.5116L32.0116 27.067C33.5737 25.5049 36.1064 25.5049 37.6685 27.067L66.8233 56.2218C69.9045 59.303 74.9928 55.9351 73.3605 51.8949L57.915 13.6661C57.0875 11.6178 58.0771 9.28648 60.1253 8.45892L65.9534 6.10425C68.0016 5.27669 70.333 6.26628 71.1605 8.31456L85.6484 44.1733C87.2953 48.2497 93.3571 47.0714 93.3571 42.6749V4C93.3571 1.79086 95.148 0 97.3571 0H103.643ZM100.5 142.857C124.169 142.857 143.357 123.669 143.357 100C143.357 76.3307 124.169 57.1429 100.5 57.1429C76.8307 57.1429 57.6429 76.3307 57.6429 100C57.6429 123.669 76.8307 142.857 100.5 142.857Z" fill="white"/>
</g>
</g>
<defs>
<clipPath id="clip0_1_966">
<rect width="200" height="200" fill="white" transform="translate(0.5)"/>
</clipPath>
</defs>
</svg>
