<svg width="201" height="200" viewBox="0 0 201 200" fill="none" xmlns="http://www.w3.org/2000/svg">
<g clip-path="url(#clip0_1_940)">
<mask id="mask0_1_940" style="mask-type:luminance" maskUnits="userSpaceOnUse" x="0" y="0" width="201" height="200">
<path d="M200.5 0H0.5V200H200.5V0Z" fill="white"/>
</mask>
<g mask="url(#mask0_1_940)">
<path d="M100.5 200C93.9028 200 87.8264 198.351 82.2708 195.052C76.8889 191.927 72.5486 187.674 69.25 182.292C66.125 176.736 64.5625 170.66 64.5625 164.062C64.5625 155.729 66.4722 148.785 70.2917 143.229C74.1111 137.674 80.0139 131.163 88 123.698C93.9028 118.316 96.8542 113.194 96.8542 108.333V103.646H92.1667C86.7847 103.646 79.4062 109.028 70.0312 119.792C60.8299 130.556 49.6319 135.937 36.4375 135.937C29.8403 135.937 23.7639 134.375 18.2083 131.25C12.8264 127.951 8.48611 123.611 5.1875 118.229C2.0625 112.674 0.5 106.597 0.5 100C0.5 93.4028 2.0625 87.4132 5.1875 82.0312C8.48611 76.4757 12.8264 72.1354 18.2083 69.0104C23.7639 65.7118 29.8403 64.0625 36.4375 64.0625C49.4583 64.0625 60.5694 69.3576 69.7708 79.9479C78.9722 90.5382 86.4375 95.8333 92.1667 95.8333H96.8542V91.6667C96.8542 86.8055 93.9028 81.684 88 76.3021L82.0104 70.8333C77.6701 66.8403 73.6771 62.066 70.0312 56.5104C66.3854 50.7812 64.5625 43.9236 64.5625 35.9375C64.5625 29.3403 66.125 23.3507 69.25 17.9688C72.5486 12.4132 76.8889 8.07292 82.2708 4.94791C87.8264 1.6493 93.9028 0 100.5 0C107.097 0 113.087 1.6493 118.469 4.94791C124.024 8.24652 128.365 12.5868 131.49 17.9688C134.788 23.3507 136.437 29.3403 136.437 35.9375C136.437 48.9583 131.142 60.0694 120.552 69.2708C109.962 78.4722 104.667 85.9375 104.667 91.6667V95.8333H108.833C114.736 95.8333 122.201 90.5382 131.229 79.9479C140.083 69.3576 151.194 64.0625 164.563 64.0625C171.16 64.0625 177.149 65.7118 182.531 69.0104C188.087 72.1354 192.427 76.3889 195.552 81.7708C198.851 87.1528 200.5 93.2292 200.5 100C200.5 106.597 198.851 112.674 195.552 118.229C192.427 123.611 188.087 127.951 182.531 131.25C177.149 134.375 171.16 135.937 164.563 135.937C156.403 135.937 149.372 133.941 143.469 129.948C137.74 125.955 131.316 120.139 124.198 112.5C118.816 106.597 113.694 103.646 108.833 103.646H104.667V108.333C104.667 114.757 109.962 122.222 120.552 130.729C131.142 139.236 136.437 150.347 136.437 164.062C136.437 170.66 134.788 176.736 131.49 182.292C128.365 187.674 124.111 191.927 118.729 195.052C113.347 198.351 107.271 200 100.5 200Z" fill="white"/>
</g>
</g>
<defs>
<clipPath id="clip0_1_940">
<rect width="200" height="200" fill="white" transform="translate(0.5)"/>
</clipPath>
</defs>
</svg>
