<svg width="201" height="200" viewBox="0 0 201 200" fill="none" xmlns="http://www.w3.org/2000/svg">
<g clip-path="url(#clip0_1_1280)">
<mask id="mask0_1_1280" style="mask-type:luminance" maskUnits="userSpaceOnUse" x="0" y="0" width="201" height="200">
<path d="M200.5 0H0.5V200H200.5V0Z" fill="white"/>
</mask>
<g mask="url(#mask0_1_1280)">
<path d="M100.052 18.9087C100.052 -35.1254 133.816 41.4697 120.334 64.8658C133.84 41.4697 217.068 32.4143 170.264 59.4373C217.068 32.4143 167.616 100.002 140.604 100.002C167.616 100.002 217.068 167.553 170.264 140.566C217.068 167.589 133.84 158.534 120.334 135.138C133.84 158.534 100.052 235.129 100.052 181.095C100.052 235.129 66.2762 158.534 79.7698 135.138C66.2642 158.534 -16.9643 167.589 29.8398 140.566C-16.9643 167.589 32.4884 100.002 59.5114 100.002C32.4884 100.002 -16.9643 32.4501 29.8398 59.4373C-16.9643 32.4143 66.2642 41.4697 79.7698 64.8658C66.2762 41.4458 100.052 -35.1254 100.052 18.9087Z" fill="white"/>
</g>
</g>
<defs>
<clipPath id="clip0_1_1280">
<rect width="200" height="200" fill="white" transform="translate(0.5)"/>
</clipPath>
</defs>
</svg>
