<svg width="201" height="200" viewBox="0 0 201 200" fill="none" xmlns="http://www.w3.org/2000/svg">
<g clip-path="url(#clip0_1_786)">
<mask id="mask0_1_786" style="mask-type:luminance" maskUnits="userSpaceOnUse" x="0" y="0" width="201" height="200">
<path d="M200.5 0H0.5V200H200.5V0Z" fill="white"/>
</mask>
<g mask="url(#mask0_1_786)">
<path fill-rule="evenodd" clip-rule="evenodd" d="M100.5 0C72.8858 0 50.5 22.3858 50.5 50C22.8858 50 0.500002 72.3858 0.5 100C0.5 127.614 22.8858 150 50.5 150C50.5 177.614 72.8858 200 100.5 200C128.114 200 150.5 177.614 150.5 150C178.114 150 200.5 127.614 200.5 100C200.5 72.3858 178.114 50 150.5 50C150.5 22.3858 128.114 0 100.5 0ZM140.806 59.6939C140.806 37.4334 122.76 19.3878 100.5 19.3878C78.2395 19.3878 60.1939 37.4334 60.1939 59.6939C37.9334 59.6939 19.8878 77.7395 19.8878 100C19.8878 122.26 37.9334 140.306 60.1939 140.306C60.1939 162.567 78.2395 180.612 100.5 180.612C122.76 180.612 140.806 162.567 140.806 140.306C163.067 140.306 181.112 122.26 181.112 100C181.112 77.7395 163.067 59.6939 140.806 59.6939ZM69.8878 69.3878C69.8878 52.4811 83.5933 38.7755 100.5 38.7755C117.407 38.7755 131.112 52.4811 131.112 69.3878C148.019 69.3878 161.724 83.0933 161.724 100C161.724 116.907 148.019 130.612 131.112 130.612C131.112 147.519 117.407 161.224 100.5 161.224C83.5933 161.224 69.8878 147.519 69.8878 130.612C52.9811 130.612 39.2755 116.907 39.2755 100C39.2755 83.0933 52.9811 69.3877 69.8878 69.3878Z" fill="white"/>
</g>
</g>
<defs>
<clipPath id="clip0_1_786">
<rect width="200" height="200" fill="white" transform="translate(0.5)"/>
</clipPath>
</defs>
</svg>
