<svg width="201" height="200" viewBox="0 0 201 200" fill="none" xmlns="http://www.w3.org/2000/svg">
<g clip-path="url(#clip0_1_1088)">
<mask id="mask0_1_1088" style="mask-type:luminance" maskUnits="userSpaceOnUse" x="0" y="0" width="201" height="200">
<path d="M200.5 0H0.5V200H200.5V0Z" fill="white"/>
</mask>
<g mask="url(#mask0_1_1088)">
<path fill-rule="evenodd" clip-rule="evenodd" d="M59.158 147.786C57.8447 144.947 55.5568 142.659 52.7173 141.345C30.6168 131.123 13.1336 116.382 3.8014 107.542C-0.600479 103.372 -0.600459 96.6313 3.80141 92.4614C13.1336 83.621 30.6168 68.8801 52.7172 58.6581C55.5568 57.3447 57.8447 55.0568 59.158 52.2173C69.3801 30.1169 84.121 12.6336 92.9614 3.3014C97.1313 -1.10047 103.872 -1.10046 108.042 3.30141C116.882 12.6336 131.623 30.1169 141.845 52.2173C143.159 55.0568 145.447 57.3447 148.286 58.658C170.387 68.8801 187.87 83.621 197.202 92.4614C201.604 96.6313 201.604 103.372 197.202 107.542C187.87 116.382 170.387 131.123 148.286 141.345C145.447 142.659 143.159 144.947 141.845 147.786C131.623 169.887 116.882 187.37 108.042 196.702C103.872 201.104 97.1313 201.104 92.9614 196.702C84.121 187.37 69.3801 169.887 59.158 147.786ZM100.502 136.761C120.803 136.761 137.261 120.303 137.261 100.002C137.261 79.7002 120.803 63.2426 100.502 63.2426C80.2003 63.2426 63.7428 79.7002 63.7428 100.002C63.7428 120.303 80.2003 136.761 100.502 136.761Z" fill="white"/>
</g>
</g>
<defs>
<clipPath id="clip0_1_1088">
<rect width="200" height="200" fill="white" transform="translate(0.5)"/>
</clipPath>
</defs>
</svg>
