<svg width="201" height="200" viewBox="0 0 201 200" fill="none" xmlns="http://www.w3.org/2000/svg">
<g clip-path="url(#clip0_1_986)">
<mask id="mask0_1_986" style="mask-type:luminance" maskUnits="userSpaceOnUse" x="0" y="0" width="201" height="200">
<path d="M200.5 0H0.5V200H200.5V0Z" fill="white"/>
</mask>
<g mask="url(#mask0_1_986)">
<path fill-rule="evenodd" clip-rule="evenodd" d="M50.5 100C78.1142 100 100.5 77.6142 100.5 50C100.5 77.6142 122.886 100 150.5 100C122.886 100 100.5 122.386 100.5 150C100.5 122.386 78.1142 100 50.5 100ZM50.5 100C22.8858 100 0.5 122.386 0.5 150C0.5 177.614 22.8858 200 50.5 200C78.1142 200 100.5 177.614 100.5 150C100.5 177.614 122.886 200 150.5 200C178.114 200 200.5 177.614 200.5 150C200.5 122.386 178.114 100 150.5 100C178.114 100 200.5 77.6142 200.5 50C200.5 22.3858 178.114 0 150.5 0C122.886 0 100.5 22.3858 100.5 50C100.5 22.3858 78.1142 0 50.5 0C22.8858 0 0.5 22.3858 0.5 50C0.5 77.6142 22.8858 100 50.5 100Z" fill="white"/>
</g>
</g>
<defs>
<clipPath id="clip0_1_986">
<rect width="200" height="200" fill="white" transform="translate(0.5)"/>
</clipPath>
</defs>
</svg>
