<svg width="201" height="200" viewBox="0 0 201 200" fill="none" xmlns="http://www.w3.org/2000/svg">
<path fill-rule="evenodd" clip-rule="evenodd" d="M185.477 80.047C176.462 89.6912 161.687 97.0302 146.671 100C161.687 102.97 176.462 110.309 185.476 119.953L195.71 130.902L180.995 133.744C168.033 136.247 151.766 133.5 137.872 127.076C148.274 138.306 155.914 152.927 157.539 166.028L159.383 180.901L145.808 174.552C133.85 168.959 122.305 157.174 114.84 143.81C116.655 159.009 114.242 175.329 107.855 186.883L100.605 200L93.3549 186.883C86.9684 175.329 84.5549 159.009 86.3707 143.81C78.9056 157.174 67.3605 168.958 55.4023 174.552L41.827 180.901L43.6712 166.028C45.2958 152.927 52.9358 138.306 63.3386 127.076C49.4442 133.5 33.1772 136.248 20.2153 133.744L5.5 130.902L15.7344 119.953C24.7493 110.308 39.5247 102.97 54.5409 100C39.5242 97.0298 24.7493 89.6912 15.7344 80.047L5.5 69.0981L20.2153 66.2558C33.1772 63.7526 49.4447 66.5 63.3386 72.9237C52.9358 61.6944 45.2958 47.0726 43.6712 33.9716L41.827 19.0981L55.4028 25.4484C67.3609 31.0414 78.9061 42.826 86.3712 56.1898C84.5554 40.9907 86.9688 24.6707 93.3553 13.1167L100.606 0L107.856 13.1167C114.243 24.6707 116.656 40.9907 114.84 56.1898C122.306 42.826 133.851 31.0419 145.809 25.4484L159.385 19.0981L157.54 33.9716C155.916 47.0726 148.276 61.6944 137.873 72.9237C151.767 66.5 168.034 63.7521 180.996 66.2558L195.712 69.0981L185.477 80.047ZM81.7543 118.696C92.0325 128.974 108.697 128.974 118.975 118.696C129.253 108.418 129.253 91.7533 118.975 81.4751C108.697 71.1969 92.0325 71.1969 81.7543 81.4751C71.4761 91.7533 71.4761 108.418 81.7543 118.696Z" fill="white"/>
</svg>
