<svg width="201" height="200" viewBox="0 0 201 200" fill="none" xmlns="http://www.w3.org/2000/svg">
<g clip-path="url(#clip0_1_806)">
<mask id="mask0_1_806" style="mask-type:luminance" maskUnits="userSpaceOnUse" x="0" y="0" width="201" height="200">
<path d="M0.5 0L0.5 200H200.5V0H0.5Z" fill="white"/>
</mask>
<g mask="url(#mask0_1_806)">
<path fill-rule="evenodd" clip-rule="evenodd" d="M100.5 0C155.728 -2.41411e-06 200.5 44.7715 200.5 100C200.5 155.228 155.728 200 100.5 200C45.2715 200 0.500002 155.228 0.5 100C0.499998 44.7715 45.2715 2.41411e-06 100.5 0ZM100.5 0C138.608 -1.66574e-06 169.5 30.8923 169.5 69C169.5 107.108 138.608 138 100.5 138C62.3924 138 31.5 107.108 31.5 69C31.5 30.8923 62.3924 1.66574e-06 100.5 0ZM132.5 69C132.5 51.3269 118.173 37 100.5 37C82.8269 37 68.5 51.3269 68.5 69C68.5 86.6731 82.8269 101 100.5 101C118.173 101 132.5 86.6731 132.5 69Z" fill="white"/>
</g>
</g>
<defs>
<clipPath id="clip0_1_806">
<rect width="200" height="200" fill="white" transform="translate(0.5)"/>
</clipPath>
</defs>
</svg>
