<svg width="201" height="200" viewBox="0 0 201 200" fill="none" xmlns="http://www.w3.org/2000/svg">
<g clip-path="url(#clip0_1_1286)">
<mask id="mask0_1_1286" style="mask-type:luminance" maskUnits="userSpaceOnUse" x="0" y="0" width="201" height="200">
<path d="M200.5 0H0.5V200H200.5V0Z" fill="white"/>
</mask>
<g mask="url(#mask0_1_1286)">
<path d="M100.14 68.482C100.14 -65.4274 141.501 28.3603 108.021 86.3525C141.501 28.3603 243.409 17.2836 127.435 84.2437C243.409 17.2836 182.873 99.9946 115.902 99.9946C182.851 99.9946 243.409 182.706 127.435 115.756C243.409 182.706 141.501 171.629 108.021 113.637C141.501 171.629 100.14 265.427 100.14 131.507C100.14 265.427 58.8333 171.629 92.259 113.637C58.7898 171.629 -43.1179 182.706 72.8558 115.756C-43.1179 182.706 17.418 99.9946 84.389 99.9946C17.4288 99.9946 -43.1179 17.2836 72.8558 84.2437C-43.1179 17.2836 58.7898 28.3603 92.259 86.3525C58.7898 28.3603 100.14 -65.4274 100.14 68.482Z" fill="white"/>
</g>
</g>
<defs>
<clipPath id="clip0_1_1286">
<rect width="200" height="200" fill="white" transform="translate(0.5)"/>
</clipPath>
</defs>
</svg>
