<svg width="201" height="200" viewBox="0 0 201 200" fill="none" xmlns="http://www.w3.org/2000/svg">
<g clip-path="url(#clip0_1_934)">
<mask id="mask0_1_934" style="mask-type:luminance" maskUnits="userSpaceOnUse" x="0" y="0" width="201" height="200">
<path d="M200.5 0H0.5V200H200.5V0Z" fill="white"/>
</mask>
<g mask="url(#mask0_1_934)">
<path d="M100.5 200C92.1667 200 85.2222 197.309 79.6667 191.927C74.1111 186.545 71.3333 180.035 71.3333 172.396C71.3333 168.056 72.2014 164.149 73.9375 160.677C75.6736 157.205 78.7118 153.385 83.0521 149.219C87.566 145.052 91.125 141.146 93.7292 137.5C96.5069 133.681 97.8958 130.382 97.8958 127.604V118.229C94.0764 117.361 90.691 115.625 87.7396 113.021C84.9618 110.243 83.1389 106.944 82.2708 103.125H72.8958C69.9444 103.125 66.4722 104.514 62.4792 107.292C58.4861 110.069 54.6667 113.455 51.0208 117.448C47.375 121.441 43.7292 124.392 40.0833 126.302C36.6111 128.212 32.6181 129.167 28.1042 129.167C20.2917 129.167 13.6944 126.389 8.3125 120.833C3.10417 115.278 0.5 108.333 0.5 100C0.5 91.6667 3.10417 84.7222 8.3125 79.1667C13.6944 73.6111 20.2917 70.8333 28.1042 70.8333C35.3958 70.8333 41.6458 73.4375 46.8542 78.6458C52.0625 83.8542 56.75 88.2812 60.9167 91.9271C65.0833 95.5729 69.0764 97.3958 72.8958 97.3958H82.2708C83.1389 93.4028 84.9618 90.1041 87.7396 87.5C90.691 84.7222 94.0764 82.9861 97.8958 82.2916V72.9167C97.8958 68.4028 94.4236 62.6736 87.4792 55.7292L82.0104 50.2604C74.8924 43.1424 71.3333 35.5903 71.3333 27.6042C71.3333 19.7917 74.1111 13.2812 79.6667 8.07291C85.3958 2.69097 92.3403 0 100.5 0C108.833 0 115.778 2.69097 121.333 8.07291C126.889 13.4549 129.667 19.9653 129.667 27.6042C129.667 36.4583 125.326 44.7917 116.646 52.6042C107.965 60.5903 103.625 67.3611 103.625 72.9167V82.2916C107.618 82.9861 110.917 84.7222 113.521 87.5C116.299 90.1041 118.035 93.4028 118.729 97.3958H128.104C134.007 97.3958 140.778 92.9687 148.417 84.1146C156.229 75.2604 164.389 70.8333 172.896 70.8333C180.708 70.8333 187.219 73.6979 192.427 79.4271C197.809 84.9826 200.5 91.8403 200.5 100C200.5 108.333 197.809 115.278 192.427 120.833C187.045 126.389 180.535 129.167 172.896 129.167C165.604 129.167 159.441 126.649 154.406 121.615C149.372 116.58 144.684 112.24 140.344 108.594C136.003 104.948 131.924 103.125 128.104 103.125H118.729C117.34 111.458 112.306 116.493 103.625 118.229V127.604C103.625 132.812 107.965 139.497 116.646 147.656C125.326 155.816 129.667 164.062 129.667 172.396C129.667 180.208 126.802 186.719 121.073 191.927C115.517 197.309 108.66 200 100.5 200Z" fill="white"/>
</g>
</g>
<defs>
<clipPath id="clip0_1_934">
<rect width="200" height="200" fill="white" transform="translate(0.5)"/>
</clipPath>
</defs>
</svg>
