<svg width="201" height="200" viewBox="0 0 201 200" fill="none" xmlns="http://www.w3.org/2000/svg">
<g clip-path="url(#clip0_1_1190)">
<mask id="mask0_1_1190" style="mask-type:luminance" maskUnits="userSpaceOnUse" x="0" y="0" width="201" height="200">
<path d="M200.5 0H0.5V200H200.5V0Z" fill="white"/>
</mask>
<g mask="url(#mask0_1_1190)">
<path d="M100.5 0L101.959 91.7276L134.702 6.03074L104.7 92.7254L164.779 23.3956L106.935 94.6006L187.103 50L108.393 97.127L198.981 82.6352L108.9 100L198.981 117.365L108.393 102.873L187.103 150L106.935 105.399L164.779 176.604L104.7 107.275L134.702 193.969L101.959 108.272L100.5 200L99.0414 108.272L66.298 193.969L96.3 107.275L36.2212 176.604L94.0652 105.399L13.8975 150L92.6066 102.873L2.01923 117.365L92.1 100L2.01923 82.6352L92.6066 97.127L13.8975 50L94.0652 94.6006L36.2212 23.3956L96.3 92.7254L66.298 6.03074L99.0414 91.7276L100.5 0Z" fill="white"/>
</g>
</g>
<defs>
<clipPath id="clip0_1_1190">
<rect width="200" height="200" fill="white" transform="translate(0.5)"/>
</clipPath>
</defs>
</svg>
