<svg width="201" height="200" viewBox="0 0 201 200" fill="none" xmlns="http://www.w3.org/2000/svg">
<g clip-path="url(#clip0_1_922)">
<mask id="mask0_1_922" style="mask-type:luminance" maskUnits="userSpaceOnUse" x="0" y="0" width="201" height="200">
<path d="M200.5 0H0.5V200H200.5V0Z" fill="white"/>
</mask>
<g mask="url(#mask0_1_922)">
<path fill-rule="evenodd" clip-rule="evenodd" d="M107.643 0H93.3571V63.2531L69.6621 4.60582L56.4166 9.95735L80.7255 70.1239L34.8401 24.2385L24.7386 34.3401L68.7177 78.3191L11.7241 53.4181L6.00459 66.5089L66.3105 92.8571H0.5V107.143H66.3104L6.00461 133.491L11.7241 146.582L68.7176 121.681L24.7386 165.66L34.8401 175.761L80.7255 129.876L56.4166 190.043L69.6621 195.394L93.3571 136.747V200H107.643V136.747L131.338 195.394L144.583 190.043L120.275 129.876L166.16 175.761L176.261 165.66L132.282 121.681L189.276 146.582L194.995 133.491L134.69 107.143H200.5V92.8571H134.689L194.995 66.5089L189.276 53.4181L132.282 78.3191L176.261 34.34L166.16 24.2385L120.275 70.1238L144.583 9.95735L131.338 4.60582L107.643 63.2531V0Z" fill="white"/>
</g>
</g>
<defs>
<clipPath id="clip0_1_922">
<rect width="200" height="200" fill="white" transform="translate(0.5)"/>
</clipPath>
</defs>
</svg>
