<svg width="201" height="200" viewBox="0 0 201 200" fill="none" xmlns="http://www.w3.org/2000/svg">
<g clip-path="url(#clip0_1_1178)">
<mask id="mask0_1_1178" style="mask-type:luminance" maskUnits="userSpaceOnUse" x="0" y="0" width="201" height="200">
<path d="M200.5 0H0.5V200H200.5V0Z" fill="white"/>
</mask>
<g mask="url(#mask0_1_1178)">
<path d="M100.5 0L101.884 87.0669C101.94 90.5691 106.151 92.3134 108.667 89.8763L171.211 29.2893L110.624 91.8335C108.187 94.3493 109.931 98.5604 113.433 98.6161L200.5 100L113.433 101.384C109.931 101.44 108.187 105.651 110.624 108.167L171.211 170.711L108.667 110.124C106.151 107.687 101.94 109.431 101.884 112.933L100.5 200L99.1161 112.933C99.0604 109.431 94.8493 107.687 92.3335 110.124L29.7893 170.711L90.3763 108.167C92.8134 105.651 91.0691 101.44 87.5669 101.384L0.5 100L87.5669 98.6161C91.0691 98.5604 92.8134 94.3493 90.3763 91.8335L29.7893 29.2893L92.3335 89.8763C94.8493 92.3134 99.0604 90.5691 99.1161 87.0669L100.5 0Z" fill="white"/>
</g>
</g>
<defs>
<clipPath id="clip0_1_1178">
<rect width="200" height="200" fill="white" transform="translate(0.5)"/>
</clipPath>
</defs>
</svg>
