<svg width="201" height="200" viewBox="0 0 201 200" fill="none" xmlns="http://www.w3.org/2000/svg">
<g clip-path="url(#clip0_1_800)">
<mask id="mask0_1_800" style="mask-type:luminance" maskUnits="userSpaceOnUse" x="0" y="0" width="201" height="200">
<path d="M0.5 0L0.5 200H200.5V0H0.5Z" fill="white"/>
</mask>
<g mask="url(#mask0_1_800)">
<path fill-rule="evenodd" clip-rule="evenodd" d="M43.7557 174.653L43.7556 200H57.2444V174.653C57.2444 164.762 65.2626 156.744 75.1535 156.744H75.2023H100.5H125.796H125.847C135.737 156.744 143.756 164.762 143.756 174.653V200H157.244V174.653C157.244 164.762 165.263 156.744 175.154 156.744H175.202H200.5V143.256H175.202H175.154C165.263 143.256 157.244 135.238 157.244 125.347V100V74.6534C157.244 64.7624 165.263 56.7442 175.154 56.7442L175.202 56.7443H200.5V43.2557H175.202H175.154C165.263 43.2557 157.244 35.2375 157.244 25.3466V0L143.756 5.896e-07V25.3466C143.756 35.2375 135.737 43.2557 125.847 43.2557H125.798H100.5H75.2022H75.1535C65.2626 43.2557 57.2444 35.2375 57.2444 25.3466V4.37113e-06L43.7556 4.96075e-06V25.3466C43.7556 35.2375 35.7374 43.2558 25.8465 43.2558L25.7978 43.2557H0.5L0.5 56.7443H25.7964L25.8465 56.7442C35.7374 56.7442 43.7557 64.7624 43.7557 74.6534L43.7556 100L43.7557 125.347C43.7557 135.238 35.7374 143.256 25.8465 143.256H25.7978H0.5L0.5 156.744H25.7964H25.8465C35.7374 156.744 43.7557 164.762 43.7557 174.653ZM143.756 100V74.6534C143.756 64.7624 135.737 56.7442 125.847 56.7442L125.796 56.7443H100.5H75.2023L75.1535 56.7442C65.2626 56.7442 57.2444 64.7624 57.2444 74.6534V100V125.347C57.2444 135.238 65.2626 143.256 75.1535 143.256H75.2022H100.5H125.798H125.847C135.737 143.256 143.756 135.238 143.756 125.347V100Z" fill="white"/>
</g>
</g>
<defs>
<clipPath id="clip0_1_800">
<rect width="200" height="200" fill="white" transform="translate(0.5)"/>
</clipPath>
</defs>
</svg>
