<svg width="201" height="200" viewBox="0 0 201 200" fill="none" xmlns="http://www.w3.org/2000/svg">
<g clip-path="url(#clip0_1_972)">
<mask id="mask0_1_972" style="mask-type:luminance" maskUnits="userSpaceOnUse" x="0" y="0" width="201" height="200">
<path d="M200.5 0H0.5V200H200.5V0Z" fill="white"/>
</mask>
<g mask="url(#mask0_1_972)">
<path fill-rule="evenodd" clip-rule="evenodd" d="M107.643 4C107.643 1.79086 105.852 0 103.643 0H97.3571C95.148 0 93.3571 1.79086 93.3571 4V42.6749C93.3571 47.0714 87.2954 48.2497 85.6484 44.1733L71.1605 8.31456C70.333 6.26628 68.0016 5.27669 65.9534 6.10425L60.1253 8.45892C58.0771 9.28648 57.0875 11.6178 57.915 13.6661L73.3605 51.8949C74.9928 55.9351 69.9045 59.303 66.8233 56.2218L37.6685 27.067C36.1064 25.5049 33.5737 25.5049 32.0116 27.067L27.567 31.5116C26.0049 33.0737 26.0049 35.6064 27.567 37.1685L53.7479 63.3494C56.8733 66.4748 53.3683 71.6129 49.318 69.8432L15.3895 55.0196C13.3651 54.1351 11.0071 55.0592 10.1226 57.0835L7.60604 62.8435C6.72158 64.8679 7.64565 67.2259 9.67001 68.1104L48.7659 85.1917C52.7376 86.927 51.4987 92.8571 47.1644 92.8571H4.5C2.29086 92.8571 0.5 94.648 0.5 96.8571V103.143C0.5 105.352 2.29086 107.143 4.5 107.143H47.1642C51.4985 107.143 52.7374 113.073 48.7657 114.808L9.67006 131.89C7.6457 132.774 6.72163 135.132 7.60609 137.156L10.1227 142.916C11.0071 144.941 13.3652 145.865 15.3895 144.98L49.318 130.157C53.3683 128.387 56.8733 133.525 53.7479 136.651L27.567 162.831C26.0049 164.394 26.0049 166.926 27.567 168.488L32.0117 172.933C33.5737 174.495 36.1064 174.495 37.6685 172.933L66.8233 143.778C69.9046 140.697 74.9929 144.065 73.3605 148.105L57.915 186.334C57.0875 188.382 58.077 190.713 60.1253 191.541L65.9533 193.896C68.0016 194.723 70.3329 193.734 71.1605 191.685L85.6484 155.827C87.2954 151.75 93.3571 152.929 93.3571 157.325V196C93.3571 198.209 95.148 200 97.3571 200H103.643C105.852 200 107.643 198.209 107.643 196V157.325C107.643 152.929 113.705 151.75 115.352 155.827L129.839 191.685C130.667 193.734 132.998 194.723 135.047 193.896L140.875 191.541C142.923 190.713 143.913 188.382 143.085 186.334L127.64 148.105C126.007 144.065 131.095 140.697 134.177 143.778L163.331 172.933C164.894 174.495 167.426 174.495 168.988 172.933L173.433 168.488C174.995 166.926 174.995 164.394 173.433 162.831L147.252 136.651C144.127 133.525 147.632 128.387 151.682 130.157L185.61 144.98C187.635 145.865 189.993 144.941 190.877 142.916L193.394 137.156C194.278 135.132 193.354 132.774 191.33 131.89L152.234 114.808C148.263 113.073 149.501 107.143 153.836 107.143H196.5C198.709 107.143 200.5 105.352 200.5 103.143V96.8571C200.5 94.648 198.709 92.8571 196.5 92.8571H153.836C149.501 92.8571 148.262 86.927 152.234 85.1917L191.33 68.1104C193.354 67.2259 194.278 64.8678 193.394 62.8435L190.877 57.0835C189.993 55.0592 187.635 54.1351 185.61 55.0196L151.682 69.8432C147.632 71.6128 144.127 66.4748 147.252 63.3494L173.433 37.1684C174.995 35.6063 174.995 33.0737 173.433 31.5116L168.988 27.0669C167.426 25.5048 164.894 25.5048 163.331 27.0669L134.177 56.2217C131.095 59.3029 126.007 55.935 127.64 51.8948L143.085 13.6661C143.913 11.6178 142.923 9.28648 140.875 8.45892L135.047 6.10425C132.998 5.27669 130.667 6.26628 129.839 8.31456L115.352 44.1733C113.705 48.2497 107.643 47.0714 107.643 42.6749V4Z" fill="white"/>
</g>
</g>
<defs>
<clipPath id="clip0_1_972">
<rect width="200" height="200" fill="white" transform="translate(0.5)"/>
</clipPath>
</defs>
</svg>
