<svg width="201" height="200" viewBox="0 0 201 200" fill="none" xmlns="http://www.w3.org/2000/svg">
<g clip-path="url(#clip0_1_702)">
<mask id="mask0_1_702" style="mask-type:luminance" maskUnits="userSpaceOnUse" x="0" y="0" width="201" height="200">
<path d="M200.5 0H0.5V200H200.5V0Z" fill="white"/>
</mask>
<g mask="url(#mask0_1_702)">
<path fill-rule="evenodd" clip-rule="evenodd" d="M76.0492 178.786L76.0488 178.787L63.4138 166.152C63.4709 166.927 63.5 167.71 63.5 168.5C63.5 185.897 49.397 200 32 200C14.603 200 0.5 185.897 0.5 168.5C0.5 151.103 14.603 137 32 137C32.7899 137 33.573 137.029 34.3483 137.086L21.3627 124.101L21.3654 124.098C8.45846 110.931 0.5 92.8947 0.5 73C0.5 32.6832 33.1832 0 73.5 0C93.3947 0 111.431 7.95845 124.598 20.8654L124.6 20.863L124.991 21.2532C125.076 21.3384 125.162 21.4239 125.247 21.5095L137.586 33.849C137.529 33.0735 137.5 32.2901 137.5 31.5C137.5 14.103 151.603 0 169 0C186.397 0 200.5 14.103 200.5 31.5C200.5 48.897 186.397 63 169 63C168.21 63 167.427 62.9709 166.651 62.9137L178.992 75.2547C179.077 75.3389 179.161 75.4234 179.245 75.508L179.286 75.5491C192.398 88.746 200.5 106.927 200.5 127C200.5 167.317 167.817 200 127.5 200C107.427 200 89.2461 191.898 76.0492 178.786Z" fill="white"/>
</g>
</g>
<defs>
<clipPath id="clip0_1_702">
<rect width="200" height="200" fill="white" transform="translate(0.5)"/>
</clipPath>
</defs>
</svg>
