<svg width="201" height="200" viewBox="0 0 201 200" fill="none" xmlns="http://www.w3.org/2000/svg">
<g clip-path="url(#clip0_1_774)">
<mask id="mask0_1_774" style="mask-type:luminance" maskUnits="userSpaceOnUse" x="0" y="0" width="201" height="200">
<path d="M200.5 0H0.5V200H200.5V0Z" fill="white"/>
</mask>
<g mask="url(#mask0_1_774)">
<path fill-rule="evenodd" clip-rule="evenodd" d="M146.871 34.5888C148.129 31.5563 148.772 28.3046 148.765 25.0218C148.767 20.0831 147.306 15.2545 144.566 11.1455C141.826 7.03648 137.931 3.83135 133.371 1.9347C128.811 0.038053 123.791 -0.465076 118.945 0.488832C114.1 1.44274 109.645 3.81092 106.144 7.29439L100.504 12.5471L94.9021 7.31163C90.2108 2.62604 83.8503 -0.00403591 77.2198 4.64872e-06C70.5894 0.00404521 64.2321 2.64187 59.5465 7.33318C54.8609 12.0245 52.2308 18.385 52.2348 25.0155C52.2389 31.6459 54.8767 38.0032 59.568 42.6888L98.0477 81.7374C98.3685 82.0631 98.7508 82.3217 99.1725 82.4983C99.5941 82.6748 100.047 82.7658 100.504 82.7658C100.961 82.7658 101.414 82.6748 101.835 82.4983C102.257 82.3217 102.639 82.0631 102.96 81.7374L141.44 42.6888C143.768 40.3744 145.614 37.6213 146.871 34.5888ZM54.1286 165.411C52.8712 168.444 52.2276 171.695 52.2349 174.978C52.2327 179.917 53.6938 184.746 56.4336 188.855C59.1735 192.964 63.0693 196.169 67.6293 198.065C72.1892 199.962 77.2089 200.465 82.0546 199.511C86.9003 198.557 91.3547 196.189 94.8556 192.706L100.496 187.453L106.098 192.688C110.789 197.374 117.15 200.004 123.78 200C130.411 199.996 136.768 197.358 141.454 192.667C146.139 187.976 148.769 181.615 148.765 174.985C148.761 168.354 146.123 161.997 141.432 157.311L102.952 118.263C102.632 117.937 102.249 117.678 101.827 117.502C101.406 117.325 100.953 117.234 100.496 117.234C100.039 117.234 99.5864 117.325 99.1647 117.502C98.7431 117.678 98.3607 117.937 98.04 118.263L59.5603 157.311C57.2321 159.626 55.3859 162.379 54.1286 165.411ZM175.478 148.266C172.195 148.273 168.944 147.629 165.911 146.372C162.879 145.115 160.126 143.268 157.811 140.94L118.763 102.461C118.437 102.14 118.178 101.757 118.002 101.336C117.825 100.914 117.734 100.462 117.734 100.004C117.734 99.5473 117.825 99.0947 118.002 98.6731C118.178 98.2514 118.437 97.869 118.763 97.5483L157.811 59.0686C162.497 54.3773 168.854 51.7394 175.485 51.7354C182.115 51.7314 188.476 54.3614 193.167 59.047C197.858 63.7326 200.496 70.0899 200.5 76.7204C200.504 83.3509 197.874 89.7114 193.188 94.4027L187.953 100.004L193.206 105.645C196.689 109.146 199.057 113.6 200.011 118.446C200.965 123.292 200.462 128.311 198.565 132.871C196.669 137.431 193.464 141.327 189.355 144.067C185.246 146.807 180.417 148.268 175.478 148.266ZM35.0888 53.628C32.0563 52.3706 28.8046 51.727 25.5218 51.7343C20.5831 51.7321 15.7544 53.1932 11.6455 55.933C7.53647 58.6729 4.33134 62.5687 2.4347 67.1287C0.538052 71.6887 0.034924 76.7083 0.988831 81.554C1.94274 86.3997 4.31091 90.8542 7.79439 94.355L13.0471 99.9956L7.81163 105.597C3.12603 110.289 0.495964 116.649 0.500005 123.28C0.504045 129.91 3.14186 136.267 7.83317 140.953C12.5245 145.639 18.885 148.269 25.5155 148.265C32.1459 148.261 38.5032 145.623 43.1888 140.931L82.2373 102.452C82.563 102.131 82.8217 101.749 82.9982 101.327C83.1748 100.905 83.2657 100.453 83.2657 99.9955C83.2657 99.5384 83.1748 99.0858 82.9982 98.6642C82.8217 98.2425 82.563 97.8602 82.2373 97.5394L43.1888 59.0597C40.8744 56.7315 38.1213 54.8853 35.0888 53.628Z" fill="white"/>
</g>
</g>
<defs>
<clipPath id="clip0_1_774">
<rect width="200" height="200" fill="white" transform="translate(0.5)"/>
</clipPath>
</defs>
</svg>
