<svg width="201" height="200" viewBox="0 0 201 200" fill="none" xmlns="http://www.w3.org/2000/svg">
<path d="M146.671 100C161.687 97.0302 176.462 89.6912 185.477 80.047L195.712 69.0981L180.996 66.2558C168.034 63.7521 151.767 66.5 137.873 72.9237C148.276 61.6944 155.916 47.0726 157.54 33.9716L159.385 19.0981L145.809 25.4484C133.851 31.0419 122.306 42.826 114.84 56.1898C116.656 40.9907 114.243 24.6707 107.856 13.1167L100.606 0L93.3553 13.1167C86.9688 24.6707 84.5554 40.9907 86.3712 56.1898C78.906 42.826 67.3609 31.0414 55.4028 25.4484L41.827 19.0981L43.6712 33.9716C45.2958 47.0726 52.9358 61.6944 63.3386 72.9237C49.4446 66.5 33.1772 63.7526 20.2153 66.2558L5.5 69.0981L15.7344 80.047C24.7493 89.6912 39.5242 97.0298 54.5409 100C39.5247 102.97 24.7493 110.308 15.7344 119.953L5.5 130.902L20.2153 133.744C33.1772 136.248 49.4442 133.5 63.3386 127.076C52.9358 138.306 45.2958 152.927 43.6712 166.028L41.827 180.901L55.4023 174.552C67.3605 168.958 78.9056 157.174 86.3707 143.81C84.5549 159.009 86.9684 175.329 93.3549 186.883L100.605 200L107.855 186.883C114.242 175.329 116.655 159.009 114.84 143.81C122.305 157.174 133.85 168.959 145.808 174.552L159.383 180.901L157.539 166.028C155.914 152.927 148.274 138.306 137.872 127.076C151.766 133.5 168.033 136.247 180.995 133.744L195.71 130.902L185.476 119.953C176.462 110.309 161.687 102.97 146.671 100Z" fill="white"/>
</svg>
