<svg width="201" height="200" viewBox="0 0 201 200" fill="none" xmlns="http://www.w3.org/2000/svg">
<g clip-path="url(#clip0_1_846)">
<mask id="mask0_1_846" style="mask-type:luminance" maskUnits="userSpaceOnUse" x="0" y="0" width="201" height="200">
<path d="M200.5 0H0.5V200H200.5V0Z" fill="white"/>
</mask>
<g mask="url(#mask0_1_846)">
<path fill-rule="evenodd" clip-rule="evenodd" d="M0.5 0C0.5 55.2285 45.2715 100 100.5 100C45.2715 100 0.5 144.772 0.5 200H12.5C12.5 151.399 51.8989 112 100.5 112C149.101 112 188.5 151.399 188.5 200H200.5C200.5 144.772 155.728 100 100.5 100C155.728 100 200.5 55.2285 200.5 0H188.5C188.5 48.6011 149.101 88 100.5 88C51.8989 88 12.5 48.6011 12.5 0H0.5ZM24.5 0C24.5 41.9736 58.5264 76 100.5 76C142.474 76 176.5 41.9736 176.5 0H164.5C164.5 35.3462 135.846 64 100.5 64C65.1538 64 36.5 35.3462 36.5 0H24.5ZM48.5 0C48.5 28.7188 71.7812 52 100.5 52C129.219 52 152.5 28.7188 152.5 0H140.5C140.5 22.0914 122.591 40 100.5 40C78.4086 40 60.5 22.0914 60.5 0H48.5ZM100.5 124C142.474 124 176.5 158.026 176.5 200H164.5C164.5 164.654 135.846 136 100.5 136C65.1538 136 36.5 164.654 36.5 200H24.5C24.5 158.026 58.5264 124 100.5 124ZM100.5 148C129.219 148 152.5 171.281 152.5 200H140.5C140.5 177.909 122.591 160 100.5 160C78.4086 160 60.5 177.909 60.5 200H48.5C48.5 171.281 71.7812 148 100.5 148Z" fill="white"/>
</g>
</g>
<defs>
<clipPath id="clip0_1_846">
<rect width="200" height="200" fill="white" transform="translate(0.5)"/>
</clipPath>
</defs>
</svg>
