<svg width="200" height="200" viewBox="0 0 200 200" fill="none" xmlns="http://www.w3.org/2000/svg">
<path fill-rule="evenodd" clip-rule="evenodd" d="M53.8201 72.6294C53.5342 71.5625 52.4375 70.9293 51.3706 71.2152C50.3037 71.5011 49.6705 72.5978 49.9564 73.6647L64.4503 127.757C64.7361 128.823 65.8328 129.457 66.8998 129.171C67.9667 128.885 68.5999 127.788 68.314 126.721L53.8201 72.6294ZM69.8201 72.6294C69.5342 71.5625 68.4375 70.9293 67.3706 71.2152C66.3037 71.5011 65.6705 72.5978 65.9564 73.6647L80.4503 127.757C80.7361 128.823 81.8328 129.457 82.8998 129.171C83.9667 128.885 84.5998 127.788 84.314 126.721L69.8201 72.6294ZM83.3706 71.2152C84.4375 70.9293 85.5342 71.5625 85.8201 72.6294L100.314 126.721C100.6 127.788 99.9667 128.885 98.8998 129.171C97.8328 129.457 96.7361 128.823 96.4503 127.757L81.9564 73.6647C81.6705 72.5978 82.3037 71.5011 83.3706 71.2152ZM101.82 72.6294C101.534 71.5625 100.438 70.9293 99.3706 71.2152C98.3037 71.5011 97.6705 72.5978 97.9564 73.6647L112.45 127.757C112.736 128.823 113.833 129.457 114.9 129.171C115.967 128.885 116.6 127.788 116.314 126.721L101.82 72.6294ZM115.371 71.2152C116.438 70.9293 117.534 71.5625 117.82 72.6294L132.314 126.721C132.6 127.788 131.967 128.885 130.9 129.171C129.833 129.457 128.736 128.823 128.45 127.757L113.956 73.6647C113.671 72.5978 114.304 71.5011 115.371 71.2152ZM133.82 72.6294C133.534 71.5625 132.438 70.9293 131.371 71.2152C130.304 71.5011 129.671 72.5978 129.956 73.6647L144.45 127.757C144.736 128.823 145.833 129.457 146.9 129.171C147.967 128.885 148.6 127.788 148.314 126.721L133.82 72.6294Z" fill="black"/>
</svg>
