<svg width="200" height="200" viewBox="0 0 200 200" fill="none" xmlns="http://www.w3.org/2000/svg">
<path d="M98.4106 62.5265L100 64.6087L101.59 62.5265C104.313 58.9601 107.823 56.0715 111.847 54.0866C115.872 52.1016 120.3 51.074 124.787 51.0841L124.792 49.0841L124.797 51.0841C130.55 51.0682 136.181 52.7412 140.993 55.8958C145.804 59.0504 149.583 63.5477 151.862 68.8302C154.141 74.1127 154.819 79.9479 153.813 85.6123C152.806 91.2767 150.16 96.5211 146.2 100.695L146.173 100.724L146.151 100.749L101.263 147.38L101.262 147.381C101.099 147.551 100.903 147.686 100.686 147.778C100.469 147.87 100.236 147.918 100 147.918C99.7646 147.918 99.5314 147.87 99.3146 147.778C99.0978 147.686 98.9018 147.551 98.7385 147.381L98.7374 147.38L53.825 100.724C53.8236 100.722 53.8222 100.721 53.8209 100.719C49.8577 96.5481 47.2061 91.3052 46.1948 85.6408C45.1832 79.9745 45.8576 74.1358 48.1344 68.8493C50.4112 63.5629 54.1902 59.0613 59.0023 55.9031C63.8145 52.745 69.448 51.0693 75.2039 51.0841V51.0841L75.2135 51.0841C79.7005 51.074 84.1291 52.1016 88.1531 54.0866C92.1772 56.0715 95.6878 58.9601 98.4106 62.5265Z" fill="#A17FBC" stroke="black" stroke-width="4"/>
</svg>
