<svg width="200" height="200" viewBox="0 0 200 200" fill="none" xmlns="http://www.w3.org/2000/svg">
<path d="M128.707 119.293L104.752 95.3368L124.394 86.9188C124.786 86.7518 125.028 86.3538 124.998 85.9288C124.969 85.5038 124.672 85.1448 124.261 85.0338L72.261 71.0338C71.915 70.9398 71.546 71.0398 71.293 71.2928C71.04 71.5458 70.941 71.9148 71.034 72.2598L85.034 124.26C85.145 124.672 85.504 124.968 85.929 124.998C86.366 125.022 86.752 124.786 86.919 124.394L95.337 104.751L119.293 128.707C119.488 128.902 119.744 129 120 129C120.256 129 120.512 128.902 120.707 128.707L128.707 120.707C129.098 120.316 129.098 119.684 128.707 119.293Z" fill="#A17FBC"/>
</svg>
