<svg width="200" height="200" viewBox="0 0 200 200" fill="none" xmlns="http://www.w3.org/2000/svg">
<path fill-rule="evenodd" clip-rule="evenodd" d="M128.203 100C127.177 84.8123 114.942 72.8211 100 72.8211C85.0578 72.8211 72.823 84.8123 71.7969 100C72.823 115.188 85.0578 127.179 100 127.179C114.942 127.179 127.177 115.188 128.203 100ZM132.024 102.069C130.052 118.382 116.572 131.179 100 131.179C83.4278 131.179 69.9482 118.382 67.9758 102.069H67.7273H44.1396C46.1886 132.318 70.53 156 100 156C129.47 156 153.811 132.318 155.86 102.069H132.273H132.024ZM159.869 102.069C157.81 134.42 131.793 160 100 160C68.207 160 42.1896 134.42 40.1312 102.069H40C40 101.377 40.011 100.687 40.0327 100C40.011 99.3131 40 98.6234 40 97.931H40.1312C42.1896 65.5805 68.207 40 100 40C131.793 40 157.81 65.5805 159.869 97.931H160C160 98.6234 159.989 99.3131 159.967 100C159.989 100.687 160 101.377 160 102.069H159.869ZM155.86 97.931C153.811 67.6815 129.47 44 100 44C70.53 44 46.1886 67.6815 44.1396 97.931H67.7273H67.9758C69.9482 81.6183 83.4278 68.8211 100 68.8211C116.572 68.8211 130.052 81.6183 132.024 97.931H132.273H155.86Z" fill="black"/>
</svg>
