<svg width="200" height="200" viewBox="0 0 200 200" fill="none" xmlns="http://www.w3.org/2000/svg">
<path fill-rule="evenodd" clip-rule="evenodd" d="M40 40L45.9772 62.3071L52.7279 55.5563L85.357 88.1855L88.1855 85.357L55.5563 52.7279L62.3071 45.9772L40 40ZM40 160L45.9772 137.693L52.7279 144.444L85.357 111.815L88.1855 114.643L55.5563 147.272L62.3071 154.023L40 160ZM154.023 137.693L160.001 160L137.693 154.023L144.444 147.272L111.815 114.643L114.644 111.815L147.273 144.444L154.023 137.693ZM160.001 40L154.023 62.3071L147.273 55.5563L114.644 88.1855L111.815 85.357L144.444 52.7279L137.693 45.9772L160.001 40Z" fill="black"/>
</svg>
