<svg width="200" height="200" viewBox="0 0 200 200" fill="none" xmlns="http://www.w3.org/2000/svg">
<path d="M39.1273 124.298C38.7395 125.332 39.2635 126.485 40.2978 126.873C41.332 127.261 42.4848 126.737 42.8727 125.702L39.1273 124.298ZM101 88L101.807 86.1702L101 88ZM159.956 74.5809C159.724 73.5009 158.661 72.813 157.581 73.0444L139.981 76.8159C138.901 77.0474 138.213 78.1105 138.444 79.1906C138.676 80.2706 139.739 80.9586 140.819 80.7271L156.464 77.3747L159.816 93.0195C160.047 94.0996 161.111 94.7875 162.191 94.556C163.271 94.3246 163.959 93.2614 163.727 92.1814L159.956 74.5809ZM42.8727 125.702C47.3449 113.776 53.6981 101.184 62.9151 93.4033C67.4885 89.5426 72.7388 86.8906 78.8177 86.0597C84.9002 85.2282 91.9638 86.1994 100.193 89.8298L101.807 86.1702C93.0362 82.3005 85.2248 81.1467 78.276 82.0965C71.3237 83.0468 65.3865 86.0823 60.3349 90.3467C50.3019 98.8162 43.6551 112.224 39.1273 124.298L42.8727 125.702ZM100.193 89.8298C104.752 91.8413 109.585 94.3195 114.093 96.147C118.71 98.0187 123.46 99.4267 128.4 99.3997C138.509 99.3444 148.524 93.326 159.679 76.0865L156.321 73.9135C145.476 90.674 136.511 95.3553 128.378 95.3998C124.198 95.4226 120.013 94.2306 115.596 92.44C111.069 90.605 106.767 88.3583 101.807 86.1702L100.193 89.8298Z" fill="black"/>
</svg>
