<svg width="200" height="200" viewBox="0 0 200 200" fill="none" xmlns="http://www.w3.org/2000/svg">
<path fill-rule="evenodd" clip-rule="evenodd" d="M87.7184 65.1578L99.8751 99.75L112.032 65.1578C114.977 56.7772 108.758 48 99.8751 48C90.992 48 84.7731 56.7771 87.7184 65.1578ZM87.7184 134.592L99.8751 100L112.032 134.592C114.977 142.973 108.758 151.75 99.8751 151.75C90.992 151.75 84.7731 142.973 87.7184 134.592ZM100 99.8751L134.592 87.7184C142.973 84.7731 151.75 90.992 151.75 99.8751C151.75 108.758 142.973 114.977 134.592 112.032L100 99.8751ZM65.1578 87.7183L99.75 99.8751L65.1578 112.032C56.7771 114.977 48 108.758 48 99.8751C48 90.9919 56.7771 84.7731 65.1578 87.7183ZM99.9634 99.9634L133.02 115.828C141.028 119.671 142.837 130.275 136.556 136.556C130.275 142.838 119.671 141.028 115.828 133.02L99.9634 99.9634ZM83.9223 66.7301L99.7866 99.7866L66.7301 83.9224C58.7215 80.0789 56.9125 69.4752 63.1938 63.1938C69.4751 56.9125 80.0789 58.7215 83.9223 66.7301ZM99.7866 99.9634L83.9224 133.02C80.0789 141.028 69.4752 142.837 63.1938 136.556C56.9125 130.275 58.7215 119.671 66.7301 115.828L99.7866 99.9634ZM133.02 83.9223L99.9634 99.7866L115.828 66.7301C119.671 58.7215 130.275 56.9125 136.556 63.1938C142.837 69.4751 141.028 80.0789 133.02 83.9223Z" fill="#7FBC8C"/>
</svg>
