<svg width="200" height="200" viewBox="0 0 200 200" fill="none" xmlns="http://www.w3.org/2000/svg">
<path fill-rule="evenodd" clip-rule="evenodd" d="M102.142 73C102.142 71.8954 101.247 71 100.142 71C99.0374 71 98.142 71.8954 98.142 73V89C98.142 90.1046 99.0374 91 100.142 91C101.247 91 102.142 90.1046 102.142 89V73ZM120.87 79.5858C121.651 80.3668 121.651 81.6332 120.87 82.4142L109.556 93.7279C108.775 94.509 107.509 94.509 106.728 93.7279C105.947 92.9469 105.947 91.6805 106.728 90.8995L118.042 79.5858C118.823 78.8047 120.089 78.8047 120.87 79.5858ZM93.5563 109.728C94.3373 108.947 94.3373 107.68 93.5563 106.899C92.7752 106.118 91.5089 106.118 90.7279 106.899L79.4142 118.213C78.6331 118.994 78.6331 120.26 79.4142 121.041C80.1952 121.822 81.4615 121.822 82.2426 121.041L93.5563 109.728ZM109.556 106.899C108.775 106.118 107.509 106.118 106.728 106.899C105.947 107.68 105.947 108.947 106.728 109.728L118.042 121.041C118.823 121.822 120.089 121.822 120.87 121.041C121.651 120.26 121.651 118.994 120.87 118.213L109.556 106.899ZM82.2426 79.5858C81.4615 78.8047 80.1952 78.8047 79.4142 79.5858C78.6331 80.3668 78.6331 81.6332 79.4142 82.4142L90.7279 93.7279C91.5089 94.509 92.7752 94.509 93.5563 93.7279C94.3373 92.9469 94.3373 91.6805 93.5563 90.8995L82.2426 79.5858ZM100.142 109.627C101.247 109.627 102.142 110.522 102.142 111.627V127.627C102.142 128.732 101.247 129.627 100.142 129.627C99.0375 129.627 98.1421 128.732 98.1421 127.627V111.627C98.1421 110.522 99.0375 109.627 100.142 109.627ZM88.8284 102.313C89.9329 102.313 90.8284 101.418 90.8284 100.313C90.8284 99.2089 89.9329 98.3135 88.8284 98.3135H72.8284C71.7238 98.3135 70.8284 99.2089 70.8284 100.313C70.8284 101.418 71.7238 102.313 72.8284 102.313H88.8284ZM129.456 100.313C129.456 101.418 128.56 102.313 127.456 102.313H111.456C110.351 102.313 109.456 101.418 109.456 100.313C109.456 99.2089 110.351 98.3135 111.456 98.3135H127.456C128.56 98.3135 129.456 99.2089 129.456 100.313Z" fill="black"/>
</svg>
