<svg width="200" height="200" viewBox="0 0 200 200" fill="none" xmlns="http://www.w3.org/2000/svg">
<path d="M112.043 10C82.1958 10 58 19.0096 58 30.1234C58 41.2373 82.1958 50.2469 112.043 50.2469C128.77 50.2469 142.331 46.4331 142.331 41.7284C142.331 37.0237 128.77 33.2099 112.043 33.2099C82.1958 33.2099 58 42.2194 58 53.3333C58 64.4472 82.1958 73.4571 112.043 73.4571C128.77 73.4571 142.331 69.6431 142.331 64.9383C142.331 60.2336 128.77 56.4197 112.043 56.4197C82.1958 56.4197 58 65.4846 58 76.6666C58 87.8486 82.1958 96.9138 112.043 96.9138C128.77 96.9138 142.331 93.0998 142.331 88.395C142.331 83.6902 128.77 79.8768 112.043 79.8768C82.1958 79.8768 58 88.8861 58 100C58 111.114 82.1958 120.123 112.043 120.123C128.77 120.123 142.331 116.31 142.331 111.605C142.331 106.9 128.77 103.086 112.043 103.086C82.1958 103.086 58 112.096 58 123.21C58 134.324 82.1958 143.333 112.043 143.333C128.77 143.333 142.331 139.519 142.331 134.815C142.331 130.11 128.77 126.296 112.043 126.296C82.1958 126.296 58 135.306 58 146.419C58 157.533 82.1958 166.543 112.043 166.543C128.77 166.543 142.331 162.729 142.331 158.024C142.331 153.32 128.77 149.506 112.043 149.506C82.1958 149.506 58 158.571 58 169.753C58 180.935 82.1958 190 112.043 190" stroke="black" stroke-width="4" stroke-linecap="round"/>
</svg>
