<svg width="200" height="200" viewBox="0 0 200 200" fill="none" xmlns="http://www.w3.org/2000/svg">
<path d="M49.1026 95.5804C48.7533 96.6283 49.3197 97.7609 50.3675 98.1102C51.4154 98.4595 52.5481 97.8932 52.8974 96.8453L49.1026 95.5804ZM144 129.213L161.357 113.979L139.486 106.564L144 129.213ZM52.8974 96.8453C53.9628 93.649 57.5312 89.2604 62.7471 85.0138C67.8901 80.8265 74.3387 77.0197 80.7627 74.8583C87.2303 72.6823 93.3698 72.2705 98.133 74.4119C102.759 76.4915 106.593 81.2182 108.023 90.5168L111.977 89.9086C110.407 79.7072 105.991 73.5589 99.7732 70.7636C93.6926 68.03 86.3947 68.7431 79.4872 71.0672C72.5362 73.4058 65.6724 77.474 60.2216 81.9118C54.8438 86.2903 50.5372 91.2766 49.1026 95.5804L52.8974 96.8453ZM108.023 90.5168C109.391 99.4085 105.389 107.105 99.0003 113.151C92.5939 119.213 83.9797 123.404 76.7801 125.144C73.169 126.016 70.0713 126.234 67.8673 125.867C65.6159 125.492 64.8763 124.653 64.6916 123.905C64.4475 122.916 64.7823 120.897 67.2648 117.49C69.6736 114.184 73.8208 109.967 80.2566 104.769L77.7433 101.657C71.1791 106.959 66.7325 111.429 64.032 115.134C61.4051 118.739 60.1149 122.056 60.8083 124.864C61.5611 127.913 64.3215 129.332 67.2107 129.813C70.1474 130.301 73.8309 129.972 77.7198 129.032C85.5202 127.147 94.781 122.65 101.75 116.056C108.736 109.445 113.609 100.517 111.977 89.9086L108.023 90.5168ZM80.2566 104.769C99.8641 88.9318 116.342 86.3968 127.955 89.8628C139.633 93.348 146.785 102.98 147.79 112.381L151.767 111.956C150.587 100.921 142.293 89.9675 129.099 86.0298C115.841 82.0729 98.0219 85.2779 77.7433 101.657L80.2566 104.769Z" fill="black"/>
</svg>
