<svg width="200" height="200" viewBox="0 0 200 200" fill="none" xmlns="http://www.w3.org/2000/svg">
<path d="M40 76C46.6667 70.6667 53.3333 70.6667 60 76C66.6667 81.3333 73.3333 81.3333 80 76C86.6667 70.6667 93.3333 70.6667 100 76C106.667 81.3333 113.333 81.3333 120 76C126.667 70.6667 133.333 70.6667 140 76C146.667 81.3333 153.333 81.3333 160 76" stroke="black" stroke-width="4" stroke-linecap="round"/>
<path d="M40 100C46.6667 94.6667 53.3333 94.6667 60 100C66.6667 105.333 73.3333 105.333 80 100C86.6667 94.6667 93.3333 94.6667 100 100C106.667 105.333 113.333 105.333 120 100C126.667 94.6667 133.333 94.6667 140 100C146.667 105.333 153.333 105.333 160 100" stroke="black" stroke-width="4" stroke-linecap="round"/>
<path d="M40 124C46.6667 118.667 53.3333 118.667 60 124C66.6667 129.333 73.3333 129.333 80 124C86.6667 118.667 93.3333 118.667 100 124C106.667 129.333 113.333 129.333 120 124C126.667 118.667 133.333 118.667 140 124C146.667 129.333 153.333 129.333 160 124" stroke="black" stroke-width="4" stroke-linecap="round"/>
</svg>
