<svg width="200" height="200" viewBox="0 0 200 200" fill="none" xmlns="http://www.w3.org/2000/svg">
<path d="M160 70L160 40L130 40L160 70Z" fill="#746BEB"/>
<path d="M130 70L130 40L100 40L130 70Z" fill="#746BEB"/>
<path d="M100 70L100 40L70 40L100 70Z" fill="#746BEB"/>
<path d="M70 70L70 40L40 40L70 70Z" fill="#746BEB"/>
<path d="M70 100L70 70L40 70L70 100Z" fill="#746BEB"/>
<path d="M70 130L70 100L40 100L70 130Z" fill="#746BEB"/>
<path d="M70 160L70 130L40 130L70 160Z" fill="#746BEB"/>
<path d="M100 100L100 70L70 70L100 100Z" fill="#746BEB"/>
<path d="M100 130L100 100L70 100L100 130Z" fill="#746BEB"/>
<path d="M100 160L100 130L70 130L100 160Z" fill="#746BEB"/>
<path d="M130 100L130 70L100 70L130 100Z" fill="#746BEB"/>
<path d="M130 130L130 100L100 100L130 130Z" fill="#746BEB"/>
<path d="M130 160L130 130L100 130L130 160Z" fill="#746BEB"/>
<path d="M160 100L160 70L130 70L160 100Z" fill="#746BEB"/>
<path d="M160 130L160 100L130 100L160 130Z" fill="#746BEB"/>
<path d="M160 160L160 130L130 130L160 160Z" fill="#746BEB"/>
</svg>
