<svg width="200" height="200" viewBox="0 0 200 200" fill="none" xmlns="http://www.w3.org/2000/svg">
<rect x="40" y="40" width="120" height="120" fill="#7FA6BC"/>
<path d="M86 76L86.8971 78.7277C87.8893 81.7445 90.2555 84.1107 93.2723 85.1029L96 86L93.2723 86.8971C90.2555 87.8893 87.8893 90.2555 86.8971 93.2723L86 96L85.1029 93.2723C84.1107 90.2555 81.7445 87.8893 78.7277 86.8971L76 86L78.7277 85.1029C81.7445 84.1107 84.1107 81.7445 85.1029 78.7277L86 76Z" fill="white"/>
<path d="M86 104L86.8971 106.728C87.8893 109.745 90.2555 112.111 93.2723 113.103L96 114L93.2723 114.897C90.2555 115.889 87.8893 118.255 86.8971 121.272L86 124L85.1029 121.272C84.1107 118.255 81.7445 115.889 78.7277 114.897L76 114L78.7277 113.103C81.7445 112.111 84.1107 109.745 85.1029 106.728L86 104Z" fill="white"/>
<path d="M114 76L114.897 78.7277C115.889 81.7445 118.255 84.1107 121.272 85.1029L124 86L121.272 86.8971C118.255 87.8893 115.889 90.2555 114.897 93.2723L114 96L113.103 93.2723C112.111 90.2555 109.745 87.8893 106.728 86.8971L104 86L106.728 85.1029C109.745 84.1107 112.111 81.7445 113.103 78.7277L114 76Z" fill="white"/>
<path d="M114 104L114.897 106.728C115.889 109.745 118.255 112.111 121.272 113.103L124 114L121.272 114.897C118.255 115.889 115.889 118.255 114.897 121.272L114 124L113.103 121.272C112.111 118.255 109.745 115.889 106.728 114.897L104 114L106.728 113.103C109.745 112.111 112.111 109.745 113.103 106.728L114 104Z" fill="white"/>
</svg>
