<svg width="200" height="200" viewBox="0 0 200 200" fill="none" xmlns="http://www.w3.org/2000/svg">
<mask id="path-1-inside-1_6_7317" fill="white">
<path fill-rule="evenodd" clip-rule="evenodd" d="M58.155 100C46.956 89.0999 40 73.8623 40 57H160C160 73.8623 153.044 89.0999 141.845 100C153.044 110.9 160 126.138 160 143H40C40 126.138 46.956 110.9 58.155 100Z"/>
</mask>
<path fill-rule="evenodd" clip-rule="evenodd" d="M58.155 100C46.956 89.0999 40 73.8623 40 57H160C160 73.8623 153.044 89.0999 141.845 100C153.044 110.9 160 126.138 160 143H40C40 126.138 46.956 110.9 58.155 100Z" fill="white"/>
<path d="M58.155 100L60.9449 102.866L63.89 100L60.9449 97.1336L58.155 100ZM40 57V53H36V57H40ZM160 57H164V53H160V57ZM141.845 100L139.055 97.1336L136.11 100L139.055 102.866L141.845 100ZM160 143V147H164V143H160ZM40 143H36V147H40V143ZM60.9449 97.1336C50.4876 86.9554 44 72.7389 44 57H36C36 74.9857 43.4243 91.2444 55.3651 102.866L60.9449 97.1336ZM40 61H160V53H40V61ZM156 57C156 72.7389 149.512 86.9554 139.055 97.1336L144.635 102.866C156.576 91.2444 164 74.9857 164 57H156ZM164 143C164 125.014 156.576 108.756 144.635 97.1336L139.055 102.866C149.512 113.045 156 127.261 156 143H164ZM40 147H160V139H40V147ZM55.3651 97.1336C43.4243 108.756 36 125.014 36 143H44C44 127.261 50.4876 113.045 60.9449 102.866L55.3651 97.1336Z" fill="black" mask="url(#path-1-inside-1_6_7317)"/>
</svg>
