<svg width="200" height="200" viewBox="0 0 200 200" fill="none" xmlns="http://www.w3.org/2000/svg">
<circle cx="72" cy="72" r="28" fill="white" stroke="black" stroke-width="4"/>
<path d="M71.2087 50.8078L72 48.4017L72.7913 50.8078C75.9664 60.4618 83.5382 68.0336 93.1922 71.2087L95.5983 72L93.1922 72.7913C83.5382 75.9664 75.9664 83.5382 72.7913 93.1922L72 95.5983L71.2087 93.1922C68.0336 83.5382 60.4618 75.9664 50.8078 72.7913L48.4017 72L50.8078 71.2087C60.4618 68.0336 68.0336 60.4618 71.2087 50.8078Z" fill="#A17FBC" stroke="black" stroke-width="4"/>
<circle cx="72" cy="128" r="28" fill="white" stroke="black" stroke-width="4"/>
<circle cx="128" cy="72" r="28" fill="white" stroke="black" stroke-width="4"/>
<circle cx="128" cy="128" r="28" fill="white" stroke="black" stroke-width="4"/>
<path d="M127.209 106.808L128 104.402L128.791 106.808C131.966 116.462 139.538 124.034 149.192 127.209L151.598 128L149.192 128.791C139.538 131.966 131.966 139.538 128.791 149.192L128 151.598L127.209 149.192C124.034 139.538 116.462 131.966 106.808 128.791L104.402 128L106.808 127.209C116.462 124.034 124.034 116.462 127.209 106.808Z" fill="#BCA47F" stroke="black" stroke-width="4"/>
</svg>
