<svg width="200" height="200" viewBox="0 0 200 200" fill="none" xmlns="http://www.w3.org/2000/svg">
<path d="M49.6 85.8C48.9373 84.9163 47.6837 84.7373 46.8 85.4C45.9163 86.0627 45.7373 87.3163 46.4 88.2L49.6 85.8ZM152.949 99.4497C153.197 98.3734 152.526 97.2996 151.45 97.0512L133.911 93.0037C132.834 92.7554 131.761 93.4265 131.512 94.5028C131.264 95.5791 131.935 96.6529 133.011 96.9013L148.602 100.499L145.004 116.089C144.755 117.166 145.427 118.239 146.503 118.488C147.579 118.736 148.653 118.065 148.901 116.989L152.949 99.4497ZM46.4 88.2C53.133 97.1773 66.4433 108.465 84.6488 113.43C102.937 118.417 126.01 116.977 152.06 100.696L149.94 97.304C124.79 113.023 102.863 114.25 85.7012 109.57C68.4567 104.868 55.867 94.156 49.6 85.8L46.4 88.2Z" fill="black"/>
</svg>
