<svg width="200" height="200" viewBox="0 0 200 200" fill="none" xmlns="http://www.w3.org/2000/svg">
<path d="M101.416 105.074L101.447 105.136L101.477 105.199L101.506 105.263L101.535 105.327L101.563 105.392L101.591 105.458L101.618 105.524L101.644 105.591L101.67 105.658L101.694 105.726L101.718 105.794L101.742 105.863L101.764 105.933L101.786 106.003L101.807 106.073L101.828 106.144L101.847 106.216L101.866 106.288L101.884 106.361L101.902 106.434L101.918 106.507L101.934 106.581L101.949 106.656L101.963 106.73L101.976 106.806L101.989 106.882L102 106.958L102.011 107.034L102.021 107.111L102.03 107.189L102.038 107.266L102.045 107.345L102.052 107.423L102.057 107.502L102.062 107.581L102.065 107.661L102.068 107.741L102.07 107.821L102.071 107.901L102.071 107.982L102.07 108.063L102.068 108.144L102.066 108.226L102.062 108.308L102.057 108.39L102.052 108.472L102.045 108.555L102.037 108.637L102.029 108.72L102.019 108.803L102.009 108.887L101.997 108.97L101.985 109.054L101.972 109.137L101.957 109.221L101.942 109.305L101.925 109.389L101.908 109.473L101.889 109.558L101.87 109.642L101.849 109.726L101.828 109.811L101.805 109.895L101.782 109.98L101.757 110.064L101.731 110.149L101.705 110.233L101.677 110.318L101.648 110.402L101.618 110.486L101.587 110.571L101.556 110.655L101.523 110.739L101.489 110.823L101.454 110.907L101.418 110.991L101.38 111.074L101.342 111.158L101.303 111.241L101.263 111.324L101.221 111.407L101.179 111.49L101.135 111.572L101.091 111.655L101.045 111.737L100.999 111.818L100.951 111.9L100.902 111.981L100.853 112.062L100.802 112.143L100.75 112.223L100.697 112.303L100.643 112.383L100.588 112.462L100.532 112.541L100.475 112.619L100.417 112.697L100.358 112.775L100.297 112.852L100.236 112.929L100.174 113.006L100.111 113.082L100.046 113.157L99.981 113.232L99.9146 113.306L99.8473 113.38L99.7789 113.454L99.7095 113.527L99.6392 113.599L99.5678 113.671L99.4955 113.742L99.4221 113.813L99.3478 113.883L99.2725 113.952L99.1962 114.021L99.119 114.089L99.0408 114.156L98.9616 114.223L98.8815 114.289L98.8004 114.355L98.7184 114.42L98.6355 114.484L98.5516 114.547L98.4668 114.609L98.3811 114.671L98.2945 114.732L98.207 114.793L98.1186 114.852L98.0292 114.911L97.9391 114.969L97.848 115.026L97.7561 115.082L97.6633 115.137L97.5696 115.192L97.4752 115.245L97.3798 115.298L97.2837 115.35L97.1867 115.401L97.089 115.451L96.9904 115.5L96.891 115.548L96.7909 115.595L96.6899 115.642L96.5882 115.687L96.4858 115.731L96.3826 115.775L96.2786 115.817L96.174 115.858L96.0686 115.899L95.9625 115.938L95.8557 115.976L95.7482 116.013L95.6401 116.049L95.5313 116.084L95.4218 116.118L95.3117 116.151L95.2009 116.183L95.0895 116.214L94.9775 116.243L94.8649 116.272L94.7518 116.299L94.638 116.325L94.5237 116.35L94.4088 116.374L94.2934 116.396L94.1774 116.418L94.061 116.438L93.944 116.457L93.8265 116.475L93.7086 116.492L93.5901 116.507L93.4713 116.521L93.3519 116.534L93.2322 116.546L93.112 116.556L92.9914 116.565L92.8705 116.573L92.7491 116.58L92.6274 116.585L92.5054 116.589L92.383 116.592L92.2603 116.594L92.1372 116.594L92.0139 116.593L91.8903 116.59L91.7664 116.587L91.6423 116.581L91.5179 116.575L91.3933 116.567L91.2685 116.558L91.1435 116.548L91.0183 116.536L90.893 116.523L90.7675 116.508L90.6418 116.492L90.5161 116.475L90.3902 116.456L90.2642 116.436L90.1382 116.415L90.0121 116.392L89.8859 116.368L89.7597 116.342L89.6335 116.315L89.5073 116.287L89.3811 116.257L89.255 116.226L89.1288 116.193L89.0028 116.159L88.8768 116.124L88.7509 116.087L88.6251 116.049L88.4994 116.009L88.3739 115.968L88.2485 115.925L88.1233 115.882L87.9983 115.836L87.8735 115.789L87.7489 115.741L87.6245 115.692L87.5004 115.641L87.3766 115.588L87.253 115.534L87.1298 115.479L87.0068 115.422L86.8842 115.364L86.7619 115.304L86.64 115.243L86.5185 115.181L86.3973 115.117L86.2766 115.052L86.1563 114.985L86.0364 114.917L85.917 114.848L85.7981 114.777L85.6797 114.705L85.5618 114.631L85.4444 114.556L85.3275 114.479L85.2112 114.401L85.0955 114.322L84.9804 114.242L84.8658 114.16L84.7519 114.076L84.6386 113.991L84.526 113.905L84.4141 113.818L84.3028 113.729L84.1923 113.639L84.0824 113.547L83.9733 113.454L83.8649 113.36L83.7574 113.264L83.6505 113.168L83.5445 113.069L83.4393 112.97L83.3349 112.869L83.2314 112.767L83.1287 112.663L83.0269 112.559L82.926 112.453L82.826 112.346L82.7269 112.237L82.6288 112.127L82.5316 112.016L82.4354 111.904L82.3401 111.79L82.2459 111.676L82.1527 111.56L82.0604 111.443L81.9693 111.324L81.8792 111.205L81.7901 111.084L81.7022 110.962L81.6153 110.839L81.5296 110.715L81.445 110.59L81.3615 110.463L81.2792 110.336L81.1981 110.207L81.1181 110.077L81.0393 109.946L80.9618 109.814L80.8855 109.681L80.8104 109.547L80.7366 109.412L80.664 109.276L80.5927 109.139L80.5228 109.001L80.4541 108.862L80.3867 108.722L80.3207 108.581L80.256 108.439L80.1927 108.296L80.1307 108.152L80.0701 108.007L80.011 107.861L79.9532 107.714L79.8968 107.567L79.8419 107.419L79.7884 107.269L79.7364 107.119L79.6858 106.968L79.6367 106.817L79.5891 106.664L79.543 106.511L79.4984 106.357L79.4553 106.202L79.4137 106.047L79.3737 105.89L79.3352 105.733L79.2983 105.576L79.263 105.418L79.2292 105.259L79.1971 105.099L79.1665 104.939L79.1375 104.778L79.1102 104.617L79.0844 104.455L79.0604 104.292L79.0379 104.129L79.0171 103.965L78.998 103.801L78.9805 103.637L78.9647 103.472L78.9506 103.306L78.9382 103.14L78.9275 102.974L78.9185 102.807L78.9112 102.639L78.9056 102.472L78.9018 102.304L78.8997 102.136L78.8993 101.967L78.9007 101.798L78.9038 101.629L78.9087 101.46L78.9153 101.29L78.9237 101.12L78.9339 100.95L78.9459 100.779L78.9596 100.609L78.9752 100.438L78.9925 100.267L79.0116 100.097L79.0325 99.9256L79.0553 99.7545L79.0798 99.5834L79.1062 99.4122L79.1343 99.241L79.1643 99.0698L79.1961 98.8986L79.2298 98.7275L79.2652 98.5564L79.3025 98.3854L79.3416 98.2145L79.3826 98.0437L79.4254 97.873L79.47 97.7025L79.5164 97.5321L79.5647 97.362L79.6148 97.1921L79.6668 97.0223L79.7206 96.8529L79.7763 96.6837L79.8337 96.5148L79.8931 96.3463L79.9542 96.178L80.0172 96.0101L80.0821 95.8426L80.1487 95.6755L80.2172 95.5088L80.2876 95.3425L80.3598 95.1767L80.4337 95.0113L80.5096 94.8465L80.5872 94.6821L80.6667 94.5183L80.748 94.355L80.8311 94.1923L80.916 94.0302L81.0027 93.8687L81.0912 93.7079L81.1816 93.5477L81.2737 93.3881L81.3676 93.2293L81.4633 93.0712L81.5608 92.9138L81.6601 92.7571L81.7611 92.6012L81.8639 92.4461L81.9685 92.2919L82.0748 92.1384L82.1829 91.9858L82.2927 91.8341L82.4042 91.6833L82.5175 91.5333L82.6325 91.3843L82.7492 91.2363L82.8676 91.0892L82.9877 90.9431L83.1095 90.798L83.233 90.654L83.3582 90.511L83.485 90.369L83.6135 90.2281L83.7437 90.0884L83.8754 89.9497L84.0088 89.8122L84.1439 89.6759L84.2805 89.5407L84.4188 89.4067L84.5586 89.2739L84.7 89.1424L84.843 89.0121L84.9875 88.8831L85.1336 88.7554L85.2812 88.629L85.4303 88.5039L85.581 88.3801L85.7332 88.2577L85.8868 88.1367L86.0419 88.0171L86.1985 87.8989L86.3565 87.7821L86.516 87.6667L86.6769 87.5529L86.8392 87.4405L87.0029 87.3296L87.168 87.2202L87.3345 87.1123L87.5023 87.006L87.6714 86.9013L87.8419 86.7981L88.0137 86.6965L88.1868 86.5966L88.3612 86.4982L88.5368 86.4015L88.7137 86.3065L88.8919 86.2131L89.0712 86.1215L89.2518 86.0315L89.4335 85.9433L89.6164 85.8567L89.8005 85.772L89.9857 85.689L90.1721 85.6077L90.3595 85.5283L90.548 85.4507L90.7376 85.3749L90.9283 85.3009L91.1199 85.2288L91.3126 85.1585L91.5063 85.0901L91.701 85.0236L91.8967 84.959L92.0932 84.8962L92.2907 84.8355L92.4892 84.7766L92.6885 84.7197L92.8886 84.6648L93.0897 84.6118L93.2915 84.5608L93.4942 84.5118L93.6976 84.4648L93.9018 84.4199L94.1068 84.3769L94.3125 84.336L94.5189 84.2972L94.726 84.2604L94.9338 84.2256L95.1422 84.193L95.3512 84.1624L95.5609 84.1339L95.7711 84.1075L95.9819 84.0833L96.1932 84.0611L96.4051 84.0411L96.6175 84.0233L96.8303 84.0075L97.0436 83.994L97.2573 83.9826L97.4715 83.9734L97.686 83.9663L97.9009 83.9614L98.1162 83.9587L98.3318 83.9583L98.5476 83.96L98.7638 83.9639L98.9802 83.9701L99.1968 83.9784L99.4137 83.989L99.6307 84.0018L99.848 84.0169L100.065 84.0342L100.283 84.0537L100.5 84.0755L100.718 84.0995L100.936 84.1258L101.153 84.1544L101.371 84.1852L101.589 84.2183L101.806 84.2536L102.024 84.2913L102.242 84.3312L102.459 84.3733L102.676 84.4178L102.893 84.4645L103.11 84.5135L103.327 84.5648L103.543 84.6183L103.759 84.6742L103.975 84.7323L104.191 84.7927L104.406 84.8554L104.621 84.9204L104.836 84.9876L105.05 85.0571L105.263 85.1289L105.477 85.203L105.689 85.2793L105.902 85.3579L106.113 85.4388L106.325 85.522L106.535 85.6074L106.745 85.6951L106.955 85.785L107.163 85.8772L107.372 85.9716L107.579 86.0683L107.786 86.1672L107.992 86.2684L108.197 86.3718L108.401 86.4774L108.605 86.5852L108.807 86.6952L109.009 86.8075L109.21 86.9219L109.41 87.0386L109.609 87.1574L109.808 87.2785L110.005 87.4016L110.201 87.527L110.396 87.6545L110.59 87.7842L110.783 87.916L110.975 88.05L111.166 88.186L111.356 88.3242L111.544 88.4645L111.732 88.6069L111.918 88.7514L112.103 88.898L112.286 89.0466L112.469 89.1973L112.65 89.35L112.829 89.5048L113.008 89.6616L113.185 89.8204L113.36 89.9812L113.534 90.144L113.707 90.3087L113.878 90.4755L114.048 90.6441L114.216 90.8147L114.383 90.9873L114.548 91.1617L114.712 91.3381L114.874 91.5163L115.034 91.6964L115.193 91.8784L115.35 92.0621L115.505 92.2478L115.659 92.4352L115.811 92.6244L115.961 92.8154L116.11 93.0081L116.257 93.2026L116.402 93.3989L116.545 93.5968L116.686 93.7965L116.825 93.9978L116.963 94.2008L117.098 94.4054L117.232 94.6116L117.364 94.8195L117.494 95.0289L117.622 95.2399L117.747 95.4525L117.871 95.6666L117.993 95.8823L118.113 96.0994L118.23 96.318L118.346 96.538L118.46 96.7595L118.571 96.9824L118.68 97.2067L118.787 97.4324L118.892 97.6595L118.995 97.8878L119.095 98.1175L119.194 98.3485L119.29 98.5808L119.384 98.8143L119.475 99.049L119.565 99.2849L119.652 99.5221L119.736 99.7603L119.819 99.9998L119.899 100.24L119.976 100.482L120.052 100.725L120.125 100.968L120.195 101.213L120.263 101.459L120.329 101.706L120.393 101.953L120.453 102.202L120.512 102.452L120.568 102.702L120.621 102.953L120.672 103.205L120.721 103.458L120.767 103.712L120.81 103.967L120.851 104.222L120.889 104.478L120.925 104.734L120.958 104.991L120.989 105.249L121.017 105.508L121.042 105.767L121.065 106.027L121.086 106.287L121.103 106.547L121.118 106.808L121.131 107.07L121.14 107.332L121.147 107.594L121.152 107.857L121.154 108.12L121.153 108.384L121.149 108.647L121.143 108.911L121.134 109.175L121.122 109.44L121.108 109.704L121.091 109.969L121.071 110.234L121.049 110.499L121.024 110.764L120.996 111.029L120.965 111.294L120.932 111.559L120.896 111.824L120.857 112.089L120.816 112.353L120.771 112.618L120.724 112.883L120.675 113.147L120.622 113.411L120.567 113.675L120.509 113.939L120.449 114.202L120.385 114.465L120.319 114.727L120.25 114.99L120.179 115.251L120.104 115.513L120.027 115.774L119.947 116.034L119.865 116.294L119.78 116.553L119.692 116.812L119.601 117.07L119.508 117.328L119.412 117.585L119.313 117.841L119.211 118.096L119.107 118.351L119 118.605L118.89 118.858L118.778 119.11L118.663 119.361L118.546 119.612L118.425 119.861L118.302 120.11L118.177 120.357L118.049 120.604L117.918 120.849L117.784 121.094L117.648 121.337L117.509 121.579L117.368 121.821L117.224 122.06L117.077 122.299L116.928 122.537L116.777 122.773L116.623 123.008L116.466 123.241L116.307 123.474L116.145 123.705L115.98 123.934L115.814 124.162L115.644 124.389L115.473 124.614L115.298 124.838L115.122 125.06L114.943 125.28L114.761 125.499L114.577 125.717L114.391 125.932L114.202 126.146L114.011 126.359L113.818 126.569L113.622 126.778L113.424 126.985L113.223 127.191L113.021 127.394L112.816 127.596L112.609 127.796L112.399 127.994L112.188 128.19L111.974 128.384L111.758 128.576L111.54 128.766L111.319 128.954L111.097 129.14L110.872 129.324L110.646 129.506L110.417 129.686L110.186 129.863L109.953 130.039L109.719 130.212L109.482 130.383L109.243 130.552L109.002 130.719L108.76 130.883L108.515 131.045L108.269 131.205L108.02 131.362L107.77 131.517L107.518 131.67L107.264 131.82L107.009 131.968L106.752 132.114L106.492 132.257L106.232 132.397L105.969 132.535L105.705 132.671L105.44 132.803L105.172 132.934L104.903 133.062L104.633 133.187L104.361 133.309L104.087 133.429L103.812 133.547L103.536 133.661L103.258 133.773L102.979 133.883L102.698 133.989L102.416 134.093L102.133 134.194L101.848 134.292L101.562 134.388L101.275 134.481L100.987 134.57L100.697 134.658L100.407 134.742L100.115 134.823L99.8217 134.902L99.5276 134.977L99.2325 135.05L98.9364 135.12L98.6393 135.187L98.3413 135.25L98.0423 135.311L97.7424 135.369L97.4416 135.424L97.14 135.476L96.8375 135.526L96.5343 135.572L96.2303 135.615L95.9256 135.654L95.6202 135.691L95.3141 135.725L95.0074 135.756L94.7001 135.784L94.3922 135.808L94.0838 135.83L93.7749 135.849L93.4654 135.864L93.1556 135.876L92.8453 135.885L92.5346 135.891L92.2236 135.894L91.9123 135.894L91.6006 135.89L91.2887 135.884L90.9766 135.874L90.6643 135.861L90.3518 135.845L90.0392 135.826L89.7265 135.803L89.4137 135.778L89.1009 135.749L88.7881 135.717L88.4753 135.682L88.1626 135.643L87.85 135.602L87.5375 135.557L87.2252 135.509L86.913 135.458L86.6011 135.404L86.2895 135.346L85.9781 135.285L85.6671 135.221L85.3564 135.154L85.0462 135.084L84.7363 135.01L84.4269 134.933L84.118 134.853L83.8096 134.77L83.5018 134.684L83.1946 134.594L82.888 134.502L82.582 134.406L82.2768 134.307L81.9722 134.204L81.6684 134.099L81.3654 133.99L81.0633 133.878L80.7619 133.764L80.4615 133.645L80.162 133.524L79.8634 133.4L79.5659 133.272L79.2693 133.142L78.9738 133.008L78.6794 132.871L78.3861 132.731L78.0939 132.588L77.8029 132.442L77.5132 132.293L77.2247 132.141L76.9374 131.986L76.6515 131.827L76.3669 131.666L76.0837 131.502L75.8019 131.334L75.5215 131.164L75.2426 130.991L74.9652 130.814L74.6894 130.635L74.4151 130.453L74.1424 130.268L73.8713 130.079L73.6019 129.888L73.3342 129.695L73.0682 129.498L72.8039 129.298L72.5414 129.096L72.2808 128.891L72.022 128.682L71.765 128.472L71.51 128.258L71.2569 128.041L71.0057 127.822L70.7566 127.6L70.5094 127.376L70.2643 127.148L70.0213 126.919L69.7804 126.686L69.5417 126.451L69.3051 126.213L69.0707 125.972L68.8385 125.729L68.6086 125.484L68.381 125.235L68.1557 124.985L67.9327 124.732L67.712 124.476L67.4938 124.218L67.2779 123.957L67.0646 123.695L66.8536 123.429L66.6452 123.162L66.4393 122.892L66.236 122.619L66.0352 122.345L65.837 122.068L65.6414 121.789L65.4485 121.508L65.2583 121.224L65.0708 120.938L64.8859 120.651L64.7039 120.361L64.5246 120.069L64.3481 119.775L64.1744 119.479L64.0035 119.181L63.8355 118.881L63.6704 118.579L63.5082 118.275L63.349 117.969L63.1926 117.661L63.0393 117.352L62.8889 117.04L62.7416 116.727L62.5973 116.412L62.4561 116.096L62.3179 115.778L62.1828 115.458L62.0508 115.136L61.922 114.813L61.7963 114.488L61.6738 114.162L61.5545 113.834L61.4384 113.505L61.3255 113.174L61.2159 112.842L61.1095 112.508L61.0064 112.174L60.9065 111.837L60.81 111.5L60.7168 111.161L60.627 110.821L60.5405 110.48L60.4574 110.138L60.3776 109.794L60.3013 109.45L60.2284 109.104L60.1588 108.758L60.0928 108.41L60.0302 108.062L59.971 107.712L59.9153 107.362L59.8631 107.011L59.8144 106.659L59.7693 106.306L59.7276 105.952L59.6895 105.598L59.6549 105.243L59.6238 104.888L59.5964 104.532L59.5724 104.175L59.5521 103.818L59.5354 103.46L59.5222 103.102L59.5127 102.743L59.5067 102.384L59.5044 102.025L59.5057 101.665L59.5106 101.305L59.5192 100.945L59.5314 100.585L59.5472 100.224L59.5667 99.8633L59.5898 99.5025L59.6166 99.1416L59.6471 98.7808L59.6812 98.4199L59.719 98.0591L59.7604 97.6984L59.8055 97.3378L59.8543 96.9774L59.9068 96.6172L59.9629 96.2572L60.0228 95.8975L60.0862 95.5381L60.1534 95.1791L60.2242 94.8204L60.2987 94.4622L60.3769 94.1044L60.4588 93.7472L60.5443 93.3905L60.6334 93.0344L60.7263 92.6789L60.8228 92.324L60.9229 91.9698L61.0267 91.6164L61.1342 91.2637L61.2452 90.9119L61.3599 90.5609L61.4783 90.2107L61.6002 89.8615L61.7258 89.5132L61.855 89.1659L61.9878 88.8197L62.1242 88.4745L62.2642 88.1304L62.4077 87.7875L62.5548 87.4457L62.7055 87.1052L62.8597 86.7659L63.0175 86.4279L63.1788 86.0912L63.3436 85.7559L63.5119 85.422L63.6837 85.0895L63.859 84.7585L64.0378 84.429L64.2201 84.101L64.4057 83.7746L64.5948 83.4499L64.7874 83.1268L64.9833 82.8054L65.1826 82.4857L65.3853 82.1678L65.5914 81.8517L65.8008 81.5374L66.0135 81.2249L66.2296 80.9144L66.4489 80.6058L66.6715 80.2992L66.8974 79.9946L67.1265 79.6921L67.3589 79.3916L67.5944 79.0932L67.8332 78.797L68.0751 78.5029L68.3201 78.2111L68.5683 77.9215L68.8196 77.6342L69.0739 77.3492L69.3314 77.0665L69.5919 76.7863L69.8554 76.5084L70.1219 76.233L70.3913 75.96L70.6638 75.6896L70.9391 75.4217L71.2174 75.1564L71.4985 74.8936L71.7825 74.6336L72.0694 74.3761L72.359 74.1214L72.6515 73.8694L72.9467 73.6201L73.2446 73.3737L73.5452 73.13L73.8485 72.8892L74.1545 72.6513L74.4631 72.4163L74.7743 72.1842L75.0881 71.9551L75.4044 71.7289L75.7232 71.5058L76.0445 71.2857L76.3682 71.0687L76.6944 70.8548L77.023 70.644L77.354 70.4364L77.6873 70.2319L78.0228 70.0307L78.3607 69.8327L78.7008 69.6379L79.0432 69.4464L79.3877 69.2582L79.7343 69.0734L80.0831 68.8919L80.434 68.7138L80.7869 68.5391L81.1418 68.3678L81.4987 68.2L81.8576 68.0356L82.2184 67.8747L82.5811 67.7174L82.9456 67.5635L83.312 67.4133L83.6801 67.2666L84.05 67.1235L84.4215 66.984L84.7948 66.8482L85.1697 66.716L85.5462 66.5876L85.9243 66.4628L86.3039 66.3417L86.685 66.2243L87.0675 66.1108L87.4515 66.0009L87.8369 65.8949L88.2236 65.7927L88.6116 65.6943L89.0009 65.5997L89.3914 65.5089L89.7832 65.4221L90.176 65.3391L90.57 65.26L90.9651 65.1849L91.3612 65.1136L91.7584 65.0463L92.1565 64.9829L92.5555 64.9235L92.9554 64.8681L93.3561 64.8166L93.7577 64.7692L94.16 64.7258L94.563 64.6863L94.9667 64.651L95.3711 64.6196L95.7761 64.5923L96.1816 64.5691L96.5877 64.5499L96.9942 64.5348L97.4012 64.5237L97.8086 64.5168L98.2163 64.514L98.6244 64.5152L99.0327 64.5206L99.4413 64.5301L99.8501 64.5437L100.259 64.5614L100.668 64.5833L101.077 64.6093L101.486 64.6394L101.895 64.6737L102.304 64.7121L102.713 64.7546L103.122 64.8013L103.531 64.8521L103.939 64.9071L104.347 64.9663L104.755 65.0296L105.163 65.097L105.57 65.1686L105.976 65.2443L106.383 65.3242L106.788 65.4082L107.193 65.4964L107.598 65.5887L108.002 65.6851L108.405 65.7857L108.807 65.8904L109.209 65.9992L109.61 66.1122L110.01 66.2292L110.409 66.3504L110.807 66.4756L111.204 66.605L111.6 66.7384L111.995 66.8759L112.389 67.0175L112.782 67.1631L113.174 67.3128L113.564 67.4666L113.953 67.6243L114.341 67.7861L114.727 67.9519L115.112 68.1218L115.496 68.2956L115.878 68.4733L116.258 68.6551L116.637 68.8408L117.015 69.0304L117.391 69.224L117.765 69.4215L118.137 69.6229L118.507 69.8281L118.876 70.0373L119.243 70.2502L119.608 70.4671L119.971 70.6877L120.332 70.9121L120.691 71.1404L121.048 71.3724L121.403 71.6081L121.756 71.8476L122.106 72.0908L122.455 72.3376L122.801 72.5882L123.145 72.8424L123.486 73.1002L123.825 73.3616L124.162 73.6267L124.496 73.8953L124.828 74.1674L125.158 74.4431L125.484 74.7222L125.809 75.0048L126.13 75.2909L126.449 75.5804L126.765 75.8733L127.079 76.1696L127.39 76.4693L127.697 76.7722L128.002 77.0785L128.305 77.388L128.604 77.7008L128.9 78.0168L129.194 78.336L129.484 78.6584L129.771 78.9839L130.055 79.3125L130.336 79.6441L130.614 79.9789L130.889 80.3166L131.161 80.6573L131.429 81.001L131.694 81.3476L131.956 81.6971L132.214 82.0495L132.469 82.4047L132.72 82.7627L132.969 83.1234L133.213 83.4869L133.454 83.8531L133.692 84.222L133.926 84.5935L134.157 84.9675L134.384 85.3442L134.607 85.7234L134.827 86.1051L135.042 86.4892L135.255 86.8757L135.463 87.2647L135.668 87.656L135.869 88.0496L136.066 88.4455L136.259 88.8436L136.448 89.2439L136.633 89.6464L136.815 90.051L136.992 90.4577L137.166 90.8665L137.335 91.2772L137.501 91.69L137.663 92.1046L137.82 92.5212L137.973 92.9396L138.122 93.3598L138.268 93.7818L138.409 94.2055L138.545 94.6309L138.678 95.058L138.806 95.4867L138.93 95.9169L139.05 96.3487L139.166 96.7819L139.277 97.2166L139.384 97.6527L139.487 98.0901L139.585 98.5289L139.68 98.9689L139.769 99.4101L139.855 99.8526L139.935 100.296L140.012 100.741L140.084 101.187L140.152 101.633L140.215 102.081L140.274 102.53L140.328 102.979L140.378 103.429L140.423 103.881L140.464 104.332L140.5 104.785L140.532 105.238L140.559 105.692L140.582 106.146L140.6 106.601L140.613 107.057L140.622 107.512L140.627 107.968L140.626 108.425L140.622 108.882L140.612 109.339L140.598 109.796L140.58 110.253L140.557 110.711L140.529 111.168L140.496 111.626L140.459 112.083L140.418 112.541L140.371 112.998L140.321 113.455L140.265 113.912L140.205 114.368L140.14 114.825L140.071 115.28L139.997 115.736L139.918 116.191L139.835 116.645L139.747 117.099L139.654 117.553L139.557 118.005L139.455 118.457L139.349 118.909L139.238 119.359L139.122 119.809L139.002 120.258L138.878 120.705L138.748 121.152L138.614 121.598L138.476 122.043L138.333 122.486L138.185 122.929L138.033 123.37L137.877 123.81L137.716 124.249L137.55 124.686L137.38 125.122L137.205 125.557L137.026 125.99L136.843 126.421L136.655 126.851L136.462 127.279L136.265 127.706L136.064 128.131L135.858 128.554L135.648 128.975L135.434 129.395L135.215 129.812L134.992 130.228L134.765 130.641L134.533 131.053L134.297 131.463L134.057 131.87L133.812 132.275L133.564 132.678L133.311 133.079L133.054 133.477L132.792 133.873L132.527 134.267L132.258 134.659L131.984 135.047L131.706 135.434L131.425 135.817L131.139 136.199L130.849 136.577L130.556 136.953L130.258 137.326L129.956 137.696L129.651 138.064L129.342 138.429L129.028 138.79L128.711 139.149L128.39 139.505L128.066 139.858L127.738 140.208L127.405 140.554L127.07 140.898L126.73 141.239L126.387 141.576L126.041 141.91L125.691 142.24L125.337 142.568L124.98 142.892L124.619 143.212L124.255 143.53L123.887 143.843L123.517 144.154L123.142 144.46L122.765 144.763L122.384 145.063L122 145.359L121.613 145.651L121.223 145.939L120.829 146.224L120.432 146.505L120.033 146.782L119.63 147.055L119.225 147.324L118.816 147.59L118.404 147.851L117.99 148.109L117.573 148.362L117.153 148.612L116.73 148.857L116.305 149.098L115.877 149.335L115.446 149.568L115.013 149.797L114.577 150.022L114.138 150.242L113.697 150.458L113.254 150.67L112.808 150.877L112.36 151.08L111.91 151.279L111.457 151.473L111.003 151.663L110.546 151.848L110.087 152.029L109.625 152.205L109.162 152.377L108.697 152.544L108.23 152.707L107.761 152.865L107.29 153.018L106.817 153.167L106.343 153.311L105.866 153.451L105.388 153.586L104.909 153.716L104.428 153.841L103.945 153.962L103.461 154.077L102.975 154.188L102.489 154.295L102 154.396L101.511 154.492L101.02 154.584L100.528 154.671L100.034 154.753L99.5402 154.83L99.0448 154.902L98.5484 154.969L98.0511 155.031L97.5528 155.088L97.0537 155.14L96.5538 155.187L96.0532 155.23L95.5518 155.267L95.0498 155.299L94.5471 155.326L94.0439 155.348L93.5402 155.365L93.0361 155.377L92.5315 155.385L92.0266 155.386L91.5214 155.383L91.0159 155.375L90.5102 155.362L90.0044 155.343L89.4984 155.32L88.9924 155.291L88.4865 155.258L87.9805 155.219L87.4747 155.175L86.969 155.126L86.4636 155.072L85.9584 155.013L85.4535 154.949L84.949 154.879L84.4449 154.805L83.9412 154.725L83.4381 154.64L82.9356 154.551L82.4336 154.456L81.9324 154.356L81.4318 154.251L80.9321 154.14L80.4331 154.025L79.9351 153.905L79.438 153.779L78.9418 153.649L78.4467 153.513L77.9527 153.373L77.4598 153.227L76.9682 153.077L76.4777 152.921L75.9886 152.76L75.5007 152.595L75.0143 152.424L74.5294 152.248L74.0459 152.068L73.5639 151.882L73.0836 151.692L72.6049 151.496L72.128 151.296L71.6527 151.091L71.1793 150.881L70.7077 150.666L70.238 150.446L69.7703 150.221L69.3045 149.991L68.8409 149.757L68.3793 149.518L67.9198 149.274L67.4626 149.026L67.0076 148.772L66.5549 148.514L66.1046 148.251L65.6566 147.984L65.2111 147.712L64.768 147.435L64.3275 147.154L63.8896 146.868L63.4544 146.578L63.0218 146.283L62.5919 145.984L62.1648 145.68L61.7405 145.371L61.3191 145.059L60.9006 144.741L60.4851 144.42L60.0725 144.094L59.663 143.764L59.2566 143.429L58.8534 143.09L58.4533 142.747L58.0565 142.4L57.6629 142.049L57.2726 141.693L56.8857 141.334L56.5023 140.97L56.1222 140.602L55.7457 140.23L55.3726 139.855L55.0032 139.475L54.6373 139.091L54.2751 138.704L53.9167 138.313L53.5619 137.917L53.2109 137.519L52.8638 137.116L52.5205 136.71L52.1811 136.3L51.8456 135.886L51.5141 135.469L51.1866 135.048L50.8632 134.624L50.5439 134.196L50.2286 133.765L49.9176 133.33L49.6107 132.892L49.3081 132.451L49.0097 132.006L48.7157 131.559L48.426 131.108L48.1406 130.654L47.8597 130.196L47.5832 129.736L47.3112 129.273L47.0437 128.807L46.7807 128.337L46.5223 127.865L46.2685 127.39L46.0194 126.913L45.7749 126.432L45.5351 125.949L45.3 125.463L45.0697 124.975L44.8441 124.484L44.6234 123.99L44.4075 123.494L44.1965 122.996L43.9904 122.495L43.7892 121.992L43.5929 121.486L43.4016 120.979L43.2153 120.469L43.034 119.957L42.8578 119.443L42.6866 118.927L42.5206 118.409L42.3596 117.889L42.2038 117.367L42.0531 116.843L41.9077 116.317L41.7674 115.79L41.6323 115.261L41.5025 114.731L41.3779 114.198L41.2586 113.665L41.1446 113.129L41.036 112.593L40.9326 112.055L40.8346 111.516L40.742 110.975L40.6547 110.433L40.5728 109.89L40.4964 109.346L40.4253 108.801L40.3597 108.255L40.2996 107.708L40.2449 107.161L40.1956 106.612L40.1519 106.062L40.1136 105.512L40.0809 104.961L40.0537 104.41L40.0319 103.858L40.0158 103.305L40.0051 102.752L40 102.199L40.0004 101.645L40.0065 101.091L40.018 100.537L40.0352 99.9827L40.0579 99.4282L40.0861 98.8737L40.12 98.3192L40.1595 97.7647L40.2045 97.2104L40.2551 96.6562L40.3113 96.1022L40.3731 95.5485L40.4405 94.9952L40.5135 94.4423L40.592 93.8898L40.6762 93.3378L40.7659 92.7864L40.8612 92.2356L40.9621 91.6855L41.0686 91.1361L41.1806 90.5875L41.2982 90.0397L41.4213 89.4929L41.55 88.947L41.6842 88.4022L41.824 87.8584L41.9693 87.3157L42.1201 86.7742L42.2764 86.234L42.4383 85.6951L42.6056 85.1575L42.7784 84.6213L42.9566 84.0866L43.1404 83.5534L43.3295 83.0218L43.5241 82.4918L43.7241 81.9636L43.9295 81.437L44.1403 80.9123L44.3565 80.3894L44.578 79.8684L44.8049 79.3494L45.0371 78.8324L45.2746 78.3174L45.5173 77.8046L45.7654 77.294L46.0187 76.7856L46.2772 76.2795L46.5409 75.7758L46.8098 75.2744L47.0839 74.7755L47.3631 74.2791L47.6474 73.7852L47.9369 73.294L48.2314 72.8054L48.5309 72.3196L48.8355 71.8365L49.1451 71.3562L49.4596 70.8788L49.7791 70.4043L50.1035 69.9328L50.4328 69.4643L50.767 68.9988L51.106 68.5366L51.4498 68.0774L51.7984 67.6215L52.1517 67.1689L52.5098 66.7196L52.8725 66.2737L53.2399 65.8312L53.6119 65.3921L53.9885 64.9566L54.3696 64.5247L54.7553 64.0963L55.1455 63.6716L55.5401 63.2507L55.9391 62.8335L56.3425 62.42L56.7502 62.0105L57.1623 61.6048L57.5786 61.203L57.9992 60.8053L58.4239 60.4116L58.8528 60.0219L59.2859 59.6363L59.723 59.2549L60.1641 58.8778L60.6093 58.5048L61.0584 58.1361L61.5114 57.7718L61.9683 57.4119L62.429 57.0563L62.8936 56.7052L63.3618 56.3586L63.8338 56.0165L64.3094 55.679L64.7887 55.3461L65.2715 55.0178L65.7579 54.6943L66.2477 54.3754L66.741 54.0613L67.2376 53.7521L67.7376 53.4476L68.2409 53.148L68.7474 52.8534L69.2572 52.5636L69.77 52.2789L70.286 51.9991L70.8051 51.7244L71.3271 51.4548L71.8521 51.1903L72.38 50.9309L72.9108 50.6767L73.4444 50.4277L73.9807 50.1839L74.5197 49.9454L75.0614 49.7122L75.6056 49.4843L76.1525 49.2618L76.7018 49.0446L77.2535 48.8329L77.8077 48.6266L78.3641 48.4257L78.9229 48.2304L79.4838 48.0405L80.047 47.8562L80.6122 47.6775L81.1796 47.5043L81.7489 47.3367L82.3202 47.1748L82.8933 47.0186L83.4684 46.868L84.0451 46.7231L84.6237 46.5839L85.2039 46.4505L85.7857 46.3228L86.369 46.2009L86.9539 46.0848L87.5402 45.9745L88.1278 45.87L88.7168 45.7714L89.3071 45.6787L89.8986 45.5918L90.4912 45.5108L91.0849 45.4357L91.6797 45.3666L92.2754 45.3034L92.872 45.2461L93.4695 45.1948L94.0678 45.1494L94.6668 45.1101L95.2665 45.0767L95.8668 45.0493L96.4677 45.028L97.069 45.0126L97.6708 45.0033L98.273 45L98.8754 45.0028L99.4782 45.0115L100.081 45.0264L100.684 45.0473L101.287 45.0743L101.89 45.1073L102.493 45.1464L103.096 45.1915L103.699 45.2428L104.302 45.3001L104.904 45.3634L105.506 45.4329L106.107 45.5084L106.708 45.59L107.309 45.6776L107.909 45.7713L108.508 45.8711L109.106 45.9769L109.704 46.0888L110.301 46.2067L110.897 46.3307L111.492 46.4607L112.086 46.5967L112.679 46.7388L113.27 46.8868L113.861 47.0409L114.45 47.201L115.038 47.367L115.624 47.539L116.21 47.717L116.793 47.9009L117.375 48.0908L117.955 48.2866L118.534 48.4883L119.111 48.6959L119.686 48.9094L120.259 49.1287L120.83 49.3539L121.399 49.5849L121.966 49.8217L122.531 50.0644L123.094 50.3128L123.655 50.567L124.213 50.8269L124.769 51.0925L125.323 51.3638L125.874 51.6408L126.422 51.9235L126.968 52.2118L127.512 52.5056L128.052 52.8051L128.59 53.1101L129.125 53.4207L129.657 53.7368L130.186 54.0583L130.713 54.3853L131.236 54.7178L131.756 55.0556L132.273 55.3988L132.787 55.7473L133.297 56.1012L133.804 56.4603L134.308 56.8247L134.809 57.1943L135.305 57.569L135.799 57.949L136.289 58.334L136.775 58.7242L137.257 59.1193L137.736 59.5195L138.211 59.9247L138.682 60.3348L139.149 60.7499L139.612 61.1698L140.071 61.5945L140.526 62.024L140.977 62.4583L141.424 62.8973L141.867 63.341L142.305 63.7893L142.739 64.2422L143.169 64.6997L143.594 65.1617L144.015 65.6281L144.432 66.099L144.843 66.5743L145.251 67.0539L145.653 67.5378L146.051 68.0259L146.445 68.5183L146.833 69.0148L147.217 69.5155L147.596 70.0202L147.97 70.5289L148.339 71.0416L148.703 71.5583L149.062 72.0788L149.416 72.6031L149.764 73.1313L150.108 73.6631L150.447 74.1987L150.78 74.7378L151.108 75.2806L151.431 75.8269L151.748 76.3766L152.06 76.9298L152.367 77.4864L152.668 78.0462L152.964 78.6094L153.254 79.1757L153.538 79.7453L153.817 80.3179L154.091 80.8935L154.359 81.4722L154.621 82.0538L154.877 82.6383L155.128 83.2256L155.372 83.8156L155.611 84.4084L155.845 85.0039L156.072 85.6019L156.293 86.2025L156.509 86.8055L156.718 87.411L156.922 88.0189L157.119 88.629L157.311 89.2414L157.496 89.856L157.676 90.4727L157.849 91.0915L158.016 91.7123L158.177 92.335L158.332 92.9596L158.48 93.5861L158.623 94.2143L158.759 94.8441L158.889 95.4757L159.012 96.1088L159.13 96.7434L159.241 97.3795L159.345 98.0169L159.444 98.6557L159.536 99.2958L159.621 99.937L159.7 100.579L159.773 101.223L159.84 101.867L159.899 102.513L159.953 103.159L160 103.806" stroke="black" stroke-width="4" stroke-linecap="round"/>
</svg>
