<svg width="200" height="200" viewBox="0 0 200 200" fill="none" xmlns="http://www.w3.org/2000/svg">
<path fill-rule="evenodd" clip-rule="evenodd" d="M135 100C135 119.33 119.33 135 100 135C80.67 135 65 119.33 65 100C65 80.67 80.67 65 100 65C119.33 65 135 80.67 135 100ZM139 100C139 121.539 121.539 139 100 139C78.4609 139 61 121.539 61 100C61 78.4609 78.4609 61 100 61C121.539 61 139 78.4609 139 100ZM100.142 71C101.247 71 102.142 71.8954 102.142 73V89C102.142 90.1046 101.247 91 100.142 91C99.0374 91 98.142 90.1046 98.142 89V73C98.142 71.8954 99.0374 71 100.142 71ZM120.87 82.4142C121.651 81.6332 121.651 80.3668 120.87 79.5858C120.089 78.8047 118.823 78.8047 118.042 79.5858L106.728 90.8995C105.947 91.6805 105.947 92.9469 106.728 93.7279C107.509 94.509 108.775 94.509 109.556 93.7279L120.87 82.4142ZM93.5563 106.899C94.3373 107.68 94.3373 108.947 93.5563 109.728L82.2426 121.041C81.4615 121.822 80.1952 121.822 79.4142 121.041C78.6331 120.26 78.6331 118.994 79.4142 118.213L90.7279 106.899C91.5089 106.118 92.7752 106.118 93.5563 106.899ZM106.728 106.899C107.509 106.118 108.775 106.118 109.556 106.899L120.87 118.213C121.651 118.994 121.651 120.26 120.87 121.041C120.089 121.822 118.823 121.822 118.042 121.041L106.728 109.728C105.947 108.947 105.947 107.68 106.728 106.899ZM79.4142 79.5858C80.1952 78.8047 81.4615 78.8047 82.2426 79.5858L93.5563 90.8995C94.3373 91.6805 94.3373 92.9469 93.5563 93.7279C92.7752 94.509 91.5089 94.509 90.7279 93.7279L79.4142 82.4142C78.6331 81.6332 78.6331 80.3668 79.4142 79.5858ZM102.142 111.627C102.142 110.522 101.247 109.627 100.142 109.627C99.0375 109.627 98.1421 110.522 98.1421 111.627V127.627C98.1421 128.732 99.0375 129.627 100.142 129.627C101.247 129.627 102.142 128.732 102.142 127.627V111.627ZM90.8284 100.313C90.8284 101.418 89.9329 102.313 88.8284 102.313H72.8284C71.7238 102.313 70.8284 101.418 70.8284 100.313C70.8284 99.2089 71.7238 98.3135 72.8284 98.3135H88.8284C89.9329 98.3135 90.8284 99.2089 90.8284 100.313ZM127.456 102.313C128.56 102.313 129.456 101.418 129.456 100.313C129.456 99.2089 128.56 98.3135 127.456 98.3135H111.456C110.351 98.3135 109.456 99.2089 109.456 100.313C109.456 101.418 110.351 102.313 111.456 102.313H127.456Z" fill="black"/>
</svg>
