<svg width="200" height="200" viewBox="0 0 200 200" fill="none" xmlns="http://www.w3.org/2000/svg">
<path d="M121 117.1C121 138.027 103.992 155 83 155C62.0085 155 45 138.027 45 117.1C45 96.1733 62.0085 79.2002 83 79.2002C103.992 79.2002 121 96.1733 121 117.1Z" stroke="black" stroke-width="4"/>
<path d="M155 82.9C155 103.827 137.992 120.8 117 120.8C96.0085 120.8 79 103.827 79 82.9C79 61.9731 96.0085 45 117 45C137.992 45 155 61.9731 155 82.9Z" fill="#746BEB" stroke="black" stroke-width="4"/>
<mask id="mask0_6_8244" style="mask-type:alpha" maskUnits="userSpaceOnUse" x="81" y="46" width="72" height="73">
<ellipse cx="117" cy="82.9003" rx="36" ry="35.91" fill="#746BEB"/>
</mask>
<g mask="url(#mask0_6_8244)">
<path fill-rule="evenodd" clip-rule="evenodd" d="M210.832 63.7262L134.566 -12.3491L131.274 -9.06528L207.54 67.0101L210.832 63.7262ZM199.858 74.6719L123.592 -1.40339L120.3 1.88044L196.566 77.9558L199.858 74.6719ZM112.619 9.54281L188.885 85.6182L185.593 88.902L109.327 12.8266L112.619 9.54281ZM177.911 96.5644L101.645 20.489L98.3532 23.7728L174.619 99.8482L177.911 96.5644ZM80.1597 20.9493L174.349 114.904L171.057 118.187L76.8676 24.2331L80.1597 20.9493ZM167.538 130.001L71.8223 34.5247L68.5302 37.8085L164.246 133.285L167.538 130.001ZM68.7246 53.3272L144.991 129.402L141.699 132.686L65.4326 56.611L68.7246 53.3272ZM134.017 140.348L57.7512 64.2729L54.4592 67.5567L130.725 143.632L134.017 140.348ZM46.7776 75.2191L123.044 151.294L119.751 154.578L43.4855 78.5029L46.7776 75.2191ZM112.07 162.241L35.8042 86.1658L32.5121 89.4496L108.778 165.525L112.07 162.241Z" fill="white"/>
</g>
</svg>
