<svg width="200" height="200" viewBox="0 0 200 200" fill="none" xmlns="http://www.w3.org/2000/svg">
<path d="M152.028 118.459C147.741 120.934 141.626 120.185 134.851 116.052C128.149 111.963 121.253 104.792 115.865 95.4592C110.476 86.126 107.715 76.5688 107.524 68.7206C107.332 60.7863 109.741 55.1161 114.028 52.6411C118.315 50.1662 124.43 50.9148 131.205 55.0486C137.907 59.1376 144.803 66.3079 150.191 75.641C155.58 84.9742 158.341 94.5315 158.532 102.38C158.724 110.314 156.315 115.984 152.028 118.459Z" stroke="black" stroke-width="4"/>
<path d="M85.8952 156.641C81.6084 159.116 75.4932 158.367 68.7182 154.233C62.0166 150.144 55.1206 142.974 49.7321 133.641C44.3436 124.308 41.582 114.75 41.3916 106.902C41.1991 98.968 43.6084 93.2978 47.8952 90.8228C52.182 88.3478 58.2971 89.0964 65.0722 93.2303C71.7737 97.3192 78.6697 104.49 84.0582 113.823C89.4467 123.156 92.2084 132.713 92.3988 140.561C92.5912 148.496 90.182 154.166 85.8952 156.641Z" stroke="black" stroke-width="4"/>
<path d="M114.028 52.6411L48.5248 90.4593" stroke="black" stroke-width="4"/>
<path d="M152.028 118.459L86.5248 156.277" stroke="black" stroke-width="4"/>
</svg>
