<svg width="200" height="200" viewBox="0 0 200 200" fill="none" xmlns="http://www.w3.org/2000/svg">
<path d="M52 100C48.6419 97.4814 46.1613 93.9701 44.9097 89.9634C43.6581 85.9566 43.6989 81.6577 45.0263 77.6754C46.3537 73.6932 48.9005 70.2296 52.3058 67.7752C55.7111 65.3207 59.8024 64 64 64C68.1976 64 72.2889 65.3207 75.6942 67.7752C79.0995 70.2296 81.6463 73.6932 82.9737 77.6754C84.3011 81.6577 84.3419 85.9566 83.0903 89.9634C81.8387 93.9701 79.3581 97.4814 76 100C72.6419 102.519 70.1613 106.03 68.9097 110.037C67.6581 114.043 67.6989 118.342 69.0263 122.325C70.3537 126.307 72.9005 129.77 76.3058 132.225C79.7111 134.679 83.8024 136 88 136C92.1976 136 96.2889 134.679 99.6942 132.225C103.1 129.77 105.646 126.307 106.974 122.325C108.301 118.342 108.342 114.043 107.09 110.037C105.839 106.03 103.358 102.519 100 100C96.6419 97.4814 94.1613 93.9701 92.9097 89.9634C91.6581 85.9566 91.6989 81.6577 93.0263 77.6754C94.3537 73.6932 96.9005 70.2296 100.306 67.7752C103.711 65.3207 107.802 64 112 64C116.198 64 120.289 65.3207 123.694 67.7752C127.1 70.2296 129.646 73.6932 130.974 77.6754C132.301 81.6577 132.342 85.9566 131.09 89.9634C129.839 93.9701 127.358 97.4814 124 100C120.642 102.519 118.161 106.03 116.91 110.037C115.658 114.043 115.699 118.342 117.026 122.325C118.354 126.307 120.9 129.77 124.306 132.225C127.711 134.679 131.802 136 136 136C140.198 136 144.289 134.679 147.694 132.225C151.1 129.77 153.646 126.307 154.974 122.325C156.301 118.342 156.342 114.043 155.09 110.037C153.839 106.03 151.358 102.519 148 100" stroke="black" stroke-width="4" stroke-linecap="round"/>
</svg>
