<svg width="200" height="200" viewBox="0 0 200 200" fill="none" xmlns="http://www.w3.org/2000/svg">
<path d="M100 40L107.199 63.809L122.961 44.5672L120.501 69.3188L142.426 57.5736L130.681 79.4995L155.433 77.039L136.191 92.8012L160 100L136.191 107.199L155.433 122.961L130.681 120.501L142.426 142.426L120.501 130.681L122.961 155.433L107.199 136.191L100 160L92.8012 136.191L77.039 155.433L79.4995 130.681L57.5736 142.426L69.3188 120.501L44.5672 122.961L63.809 107.199L40 100L63.809 92.8012L44.5672 77.039L69.3188 79.4995L57.5736 57.5736L79.4995 69.3188L77.039 44.5672L92.8012 63.809L100 40Z" fill="#746BEB"/>
</svg>
