<svg width="200" height="200" viewBox="0 0 200 200" fill="none" xmlns="http://www.w3.org/2000/svg">
<path d="M40 88C46.6667 82.6667 53.3333 82.6667 60 88C66.6667 93.3333 73.3333 93.3333 80 88C86.6667 82.6667 93.3333 82.6667 100 88C106.667 93.3333 113.333 93.3333 120 88C126.667 82.6667 133.333 82.6667 140 88C146.667 93.3333 153.333 93.3333 160 88" stroke="black" stroke-width="4" stroke-linecap="round"/>
<path d="M40 112C46.6667 106.667 53.3333 106.667 60 112C66.6667 117.333 73.3333 117.333 80 112C86.6667 106.667 93.3333 106.667 100 112C106.667 117.333 113.333 117.333 120 112C126.667 106.667 133.333 106.667 140 112C146.667 117.333 153.333 117.333 160 112" stroke="black" stroke-width="4" stroke-linecap="round"/>
</svg>
