<svg width="200" height="200" viewBox="0 0 200 200" fill="none" xmlns="http://www.w3.org/2000/svg">
<path d="M98.4106 62.6925L100 64.7747L101.59 62.6925C104.313 59.1261 107.823 56.2375 111.847 54.2526C115.872 52.2676 120.3 51.24 124.787 51.2501L124.792 49.2501L124.797 51.2501C130.55 51.2342 136.181 52.9072 140.993 56.0618C145.804 59.2164 149.583 63.7138 151.862 68.9962C154.141 74.2787 154.819 80.1139 153.813 85.7783C152.806 91.4427 150.16 96.6871 146.2 100.861L146.173 100.89L146.151 100.915L101.263 147.546L101.262 147.547C101.099 147.717 100.903 147.852 100.686 147.944C100.469 148.037 100.236 148.084 100 148.084C99.7646 148.084 99.5314 148.037 99.3146 147.944C99.0978 147.852 98.9018 147.717 98.7385 147.547L98.7374 147.546L53.825 100.89C53.8236 100.888 53.8222 100.887 53.8209 100.885C49.8577 96.7141 47.2061 91.4712 46.1948 85.8068C45.1832 80.1405 45.8576 74.3018 48.1344 69.0153C50.4112 63.7289 54.1902 59.2273 59.0023 56.0691C63.8145 52.911 69.448 51.2354 75.2039 51.2501V51.2501L75.2135 51.2501C79.7005 51.24 84.1291 52.2676 88.1531 54.2526C92.1772 56.2375 95.6878 59.1261 98.4106 62.6925Z" stroke="black" stroke-width="4"/>
</svg>
