<svg width="200" height="200" viewBox="0 0 200 200" fill="none" xmlns="http://www.w3.org/2000/svg">
<path fill-rule="evenodd" clip-rule="evenodd" d="M80 60C80 71.0457 71.0457 80 60 80C48.9543 80 40 71.0457 40 60C40 48.9543 48.9543 40 60 40C71.0457 40 80 48.9543 80 60ZM80 140C80 151.046 71.0457 160 60 160C48.9543 160 40 151.046 40 140C40 128.954 48.9543 120 60 120C71.0457 120 80 128.954 80 140ZM140 80C151.046 80 160 71.0457 160 60C160 48.9543 151.046 40 140 40C128.954 40 120 48.9543 120 60C120 71.0457 128.954 80 140 80ZM160 140C160 151.046 151.046 160 140 160C128.954 160 120 151.046 120 140C120 128.954 128.954 120 140 120C151.046 120 160 128.954 160 140ZM100 120C111.046 120 120 111.046 120 100C120 88.9543 111.046 80 100 80C88.9543 80 80 88.9543 80 100C80 111.046 88.9543 120 100 120Z" fill="#3BB3BD"/>
</svg>
