<svg width="200" height="200" viewBox="0 0 200 200" fill="none" xmlns="http://www.w3.org/2000/svg">
<path d="M100.964 101.964C102.68 84.6875 96.921 66.8083 83.6863 53.5736C70.4516 40.3389 52.5724 34.5795 35.2954 36.2954C33.5795 53.5724 39.3389 71.4516 52.5736 84.6863C65.8083 97.921 83.6875 103.68 100.964 101.964Z" fill="#3BB3BD"/>
<path d="M98.2954 101.964C96.5795 84.6875 102.339 66.8083 115.574 53.5736C128.808 40.3389 146.687 34.5795 163.964 36.2954C165.68 53.5724 159.921 71.4516 146.686 84.6863C133.452 97.921 115.572 103.68 98.2954 101.964Z" fill="#FFC700"/>
<path d="M100.964 98.555C102.68 115.832 96.921 133.711 83.6863 146.946C70.4516 160.181 52.5724 165.94 35.2954 164.224C33.5795 146.947 39.3389 129.068 52.5736 115.833C65.8083 102.599 83.6875 96.8392 100.964 98.555Z" fill="#746BEB"/>
<path d="M98.2954 98.555C96.5795 115.832 102.339 133.711 115.574 146.946C128.808 160.181 146.687 165.94 163.964 164.224C165.68 146.947 159.921 129.068 146.686 115.833C133.452 102.599 115.572 96.8392 98.2954 98.555Z" fill="black"/>
</svg>
