<svg width="200" height="200" viewBox="0 0 200 200" fill="none" xmlns="http://www.w3.org/2000/svg">
<path d="M80.2254 100.225L100.024 120.024L80.2254 139.823C69.2907 150.758 51.5621 150.758 40.6274 139.823C29.6927 128.889 29.6927 111.16 40.6274 100.225C51.5621 89.2907 69.2907 89.2907 80.2254 100.225Z" stroke="black" stroke-width="4"/>
<path d="M119.824 100.226L100.025 120.025L119.824 139.824C130.758 150.758 148.487 150.758 159.422 139.824C170.356 128.889 170.356 111.16 159.422 100.226C148.487 89.2909 130.758 89.2909 119.824 100.226Z" stroke="black" stroke-width="4"/>
<path d="M119.823 100.225C130.758 89.2907 130.758 71.5621 119.823 60.6274C108.889 49.6927 91.1601 49.6927 80.2254 60.6274C69.2907 71.5621 69.2908 89.2907 80.2254 100.225C91.1601 111.16 108.889 111.16 119.823 100.225Z" fill="#BCA47F" stroke="black" stroke-width="4"/>
</svg>
