<svg width="200" height="200" viewBox="0 0 200 200" fill="none" xmlns="http://www.w3.org/2000/svg">
<path d="M124.394 86.9188C124.786 86.7518 125.028 86.3538 124.998 85.9288L124.394 86.9188ZM124.394 86.9188L106.732 94.4883M124.394 86.9188L106.732 94.4883M106.732 94.4883L106.166 93.9226L104.752 95.3368L105.54 97.1751L106.275 96.86L128.707 119.293C129.098 119.684 129.098 120.316 128.707 120.707L120.707 128.707C120.512 128.902 120.256 129 120 129C119.744 129 119.488 128.902 119.293 128.707L106.732 94.4883ZM103.964 93.4985L101.249 94.6621L103.338 96.751L126.586 120L120 126.585L96.7512 103.337L94.6623 101.248L93.4987 103.963L86.216 120.957L73.4165 73.4161L120.958 86.2156L103.964 93.4985ZM127.293 120.707C127.292 120.706 127.292 120.706 127.291 120.705L127.293 120.707L127.293 120.707ZM71.7366 72.9638L71.741 72.965C71.7396 72.9646 71.7381 72.9642 71.7366 72.9638Z" fill="#746BEB" stroke="black" stroke-width="4"/>
</svg>
