<svg width="200" height="200" viewBox="0 0 200 200" fill="none" xmlns="http://www.w3.org/2000/svg">
<mask id="path-1-inside-1_6_7279" fill="white">
<path fill-rule="evenodd" clip-rule="evenodd" d="M115 160H85V136.213L68.1802 153.033L46.967 131.82L63.7869 115H40V85H61.8069L45.8283 70.1602L66.2437 48.1781L85 65.5977V40H115V63.7869L131.82 46.967L153.033 68.1802L136.213 85H160V115H138.193L154.172 129.84L133.756 151.822L115 134.402V160Z"/>
</mask>
<path fill-rule="evenodd" clip-rule="evenodd" d="M115 160H85V136.213L68.1802 153.033L46.967 131.82L63.7869 115H40V85H61.8069L45.8283 70.1602L66.2437 48.1781L85 65.5977V40H115V63.7869L131.82 46.967L153.033 68.1802L136.213 85H160V115H138.193L154.172 129.84L133.756 151.822L115 134.402V160Z" fill="#746BEB"/>
<path d="M85 160H81V164H85V160ZM115 160V164H119V160H115ZM85 136.213H89V126.556L82.1716 133.385L85 136.213ZM68.1802 153.033L65.3518 155.861L68.1802 158.69L71.0086 155.861L68.1802 153.033ZM46.967 131.82L44.1386 128.991L41.3102 131.82L44.1386 134.648L46.967 131.82ZM63.7869 115L66.6153 117.828L73.4437 111H63.7869V115ZM40 115H36V119H40V115ZM40 85V81H36V85H40ZM61.8069 85V89H71.9917L64.5289 82.0691L61.8069 85ZM45.8283 70.1602L42.8973 67.4381L40.1753 70.3691L43.1062 73.0911L45.8283 70.1602ZM66.2437 48.1781L68.9658 45.2472L66.0348 42.5251L63.3128 45.4561L66.2437 48.1781ZM85 65.5977L82.2779 68.5286L89 74.7716V65.5977H85ZM85 40V36H81V40H85ZM115 40H119V36H115V40ZM115 63.7869H111V73.4437L117.828 66.6153L115 63.7869ZM131.82 46.967L134.648 44.1386L131.82 41.3102L128.991 44.1386L131.82 46.967ZM153.033 68.1802L155.861 71.0087L158.69 68.1802L155.861 65.3518L153.033 68.1802ZM136.213 85L133.385 82.1716L126.556 89H136.213V85ZM160 85H164V81H160V85ZM160 115V119H164V115H160ZM138.193 115V111H128.008L135.471 117.931L138.193 115ZM154.172 129.84L157.103 132.562L159.825 129.631L156.894 126.909L154.172 129.84ZM133.756 151.822L131.034 154.753L133.965 157.475L136.687 154.544L133.756 151.822ZM115 134.402L117.722 131.471L111 125.228V134.402H115ZM85 164H115V156H85V164ZM81 136.213V160H89V136.213H81ZM71.0086 155.861L87.8284 139.042L82.1716 133.385L65.3518 150.205L71.0086 155.861ZM44.1386 134.648L65.3518 155.861L71.0086 150.205L49.7954 128.991L44.1386 134.648ZM60.9584 112.172L44.1386 128.991L49.7954 134.648L66.6153 117.828L60.9584 112.172ZM40 119H63.7869V111H40V119ZM36 85V115H44V85H36ZM61.8069 81H40V89H61.8069V81ZM43.1062 73.0911L59.0848 87.9309L64.5289 82.0691L48.5503 67.2292L43.1062 73.0911ZM63.3128 45.4561L42.8973 67.4381L48.7592 72.8822L69.1746 50.9002L63.3128 45.4561ZM87.7221 62.6668L68.9658 45.2472L63.5216 51.1091L82.2779 68.5286L87.7221 62.6668ZM81 40V65.5977H89V40H81ZM115 36H85V44H115V36ZM119 63.7869V40H111V63.7869H119ZM128.991 44.1386L112.172 60.9584L117.828 66.6153L134.648 49.7955L128.991 44.1386ZM155.861 65.3518L134.648 44.1386L128.991 49.7955L150.205 71.0087L155.861 65.3518ZM139.042 87.8284L155.861 71.0087L150.205 65.3518L133.385 82.1716L139.042 87.8284ZM160 81H136.213V89H160V81ZM164 115V85H156V115H164ZM138.193 119H160V111H138.193V119ZM156.894 126.909L140.915 112.069L135.471 117.931L151.45 132.771L156.894 126.909ZM136.687 154.544L157.103 132.562L151.241 127.118L130.826 149.1L136.687 154.544ZM112.278 137.333L131.034 154.753L136.479 148.891L117.722 131.471L112.278 137.333ZM119 160V134.402H111V160H119Z" fill="black" mask="url(#path-1-inside-1_6_7279)"/>
</svg>
