<svg width="200" height="200" viewBox="0 0 200 200" fill="none" xmlns="http://www.w3.org/2000/svg">
<path d="M100 128L100 100L128 100C143.464 100 156 112.536 156 128C156 143.464 143.464 156 128 156C112.536 156 100 143.464 100 128Z" stroke="black" stroke-width="4"/>
<path d="M100 128C100 143.464 87.464 156 72 156C56.536 156 44 143.464 44 128C44 112.536 56.536 100 72 100C87.464 100 100 112.536 100 128Z" stroke="black" stroke-width="4"/>
<path d="M100 72L100 100L128 100C143.464 100 156 87.464 156 72C156 56.536 143.464 44 128 44C112.536 44 100 56.536 100 72Z" stroke="black" stroke-width="4"/>
<path d="M100 72C100 56.536 87.464 44 72 44C56.536 44 44 56.536 44 72C44 87.464 56.536 100 72 100C87.464 100 100 87.464 100 72Z" stroke="black" stroke-width="4"/>
</svg>
