<svg width="200" height="200" viewBox="0 0 200 200" fill="none" xmlns="http://www.w3.org/2000/svg">
<path fill-rule="evenodd" clip-rule="evenodd" d="M105.283 40.2294C103.542 40.0775 101.78 40 100 40C96.2691 40 92.6178 40.3405 89.0754 40.9922L159.008 110.925C159.659 107.382 160 103.731 160 100C160 98.2198 159.922 96.4576 159.771 94.7168L105.283 40.2294ZM119.664 43.2965C136.983 49.3015 150.698 63.0172 156.704 80.336L119.664 43.2965ZM156.634 119.864L80.1358 43.3663C76.0872 44.7863 72.237 46.6281 68.638 48.839L151.161 131.362C153.372 127.763 155.214 123.913 156.634 119.864ZM146.458 137.972L62.0276 53.5423C58.9249 56.0813 56.0813 58.925 53.5423 62.0276L137.972 146.458C141.075 143.919 143.919 141.075 146.458 137.972ZM131.362 151.161L48.839 68.638C46.6281 72.2371 44.7862 76.0873 43.3663 80.1359L119.864 156.634C123.913 155.214 127.763 153.372 131.362 151.161ZM110.925 159.008L40.9922 89.0755C40.3405 92.6179 40 96.2692 40 100C40 101.78 40.0775 103.542 40.2294 105.283L94.7167 159.771C96.4576 159.922 98.2197 160 100 160C103.731 160 107.382 159.659 110.925 159.008ZM43.2965 119.664L80.3359 156.703C63.0172 150.698 49.3016 136.983 43.2965 119.664Z" fill="#3BB3BD"/>
</svg>
