<svg width="200" height="200" viewBox="0 0 200 200" fill="none" xmlns="http://www.w3.org/2000/svg">
<path fill-rule="evenodd" clip-rule="evenodd" d="M136.639 96.9142C147.576 87.1003 154.825 72.9594 155.87 56.9999H132.041C130.51 70.1044 121.556 80.9625 109.526 84.7798C119.626 86.4465 128.885 90.7207 136.639 96.9142ZM139.705 99.5354C151.249 88.9873 158.837 73.9142 159.877 56.9999C159.959 55.6774 160 54.3436 160 52.9999H156H132.273H128.273C128.273 69.1531 115.615 82.2478 100 82.2478C84.3854 82.2478 71.7273 69.1531 71.7273 52.9999H67.7273H44H40C40 54.3436 40.0413 55.6774 40.1226 56.9999C41.1625 73.9142 48.7514 88.9873 60.2948 99.5354C48.7514 110.084 41.1625 125.157 40.1226 142.071C40.0413 143.393 40 144.727 40 146.071H44H67.7273H71.7273C71.7273 129.918 84.3854 116.823 100 116.823C115.615 116.823 128.273 129.918 128.273 146.071H132.273H156H160C160 144.727 159.959 143.393 159.877 142.071C158.837 125.157 151.249 110.084 139.705 99.5354ZM133.497 99.5354C124.139 92.2852 112.533 88.002 100 88.002C87.4668 88.002 75.8611 92.2852 66.5034 99.5354C75.8611 106.786 87.4668 111.069 100 111.069C112.533 111.069 124.139 106.786 133.497 99.5354ZM63.3615 102.157C52.424 111.971 45.175 126.111 44.1304 142.071H67.9594C69.4899 128.966 78.4438 118.108 90.4745 114.291C80.3744 112.624 71.115 108.35 63.3615 102.157ZM109.526 114.291C119.626 112.624 128.885 108.35 136.639 102.157C147.576 111.971 154.825 126.111 155.87 142.071H132.041C130.51 128.966 121.556 118.108 109.526 114.291ZM63.3615 96.9142C52.424 87.1003 45.175 72.9594 44.1304 56.9999H67.9594C69.4899 70.1044 78.4438 80.9625 90.4745 84.7798C80.3744 86.4465 71.115 90.7207 63.3615 96.9142Z" fill="black"/>
</svg>
