<svg width="200" height="200" viewBox="0 0 200 200" fill="none" xmlns="http://www.w3.org/2000/svg">
<path d="M100 144.238C112.637 156.875 133.126 156.875 145.763 144.238L100 98.4749C87.3634 111.112 87.3634 131.601 100 144.238Z" stroke="black" stroke-width="4"/>
<path d="M100.001 55.7628C87.3635 43.1257 66.8748 43.1257 54.2377 55.7628L100.001 101.526C112.638 88.8886 112.638 68.3998 100.001 55.7628Z" stroke="black" stroke-width="4"/>
<path d="M55.763 100C43.126 112.637 43.126 133.126 55.763 145.763L101.526 100C88.8888 87.3634 68.4001 87.3634 55.763 100Z" stroke="black" stroke-width="4"/>
<path d="M144.238 100C156.875 87.363 156.875 66.8743 144.238 54.2372L98.4749 100C111.112 112.637 131.601 112.637 144.238 100Z" stroke="black" stroke-width="4"/>
<path d="M131.281 131.281C149.153 131.281 163.64 116.793 163.64 98.9215L98.9219 98.9216C98.9219 116.793 113.41 131.281 131.281 131.281Z" fill="#FFC700" stroke="black" stroke-width="4"/>
<path d="M68.7201 68.7197C50.8486 68.7197 36.3608 83.2074 36.3608 101.079L101.079 101.079C101.079 83.2075 86.5916 68.7197 68.7201 68.7197Z" fill="#3BB3BD" stroke="black" stroke-width="4"/>
<path d="M68.72 131.281C68.72 149.152 83.2077 163.64 101.079 163.64L101.079 98.9217C83.2077 98.9217 68.72 113.409 68.72 131.281Z" fill="#746BEB" stroke="black" stroke-width="4"/>
<path d="M131.281 68.7196C131.281 50.8481 116.794 36.3603 98.922 36.3603L98.922 101.079C116.794 101.079 131.281 86.5911 131.281 68.7196Z" fill="#BC7F7F" stroke="black" stroke-width="4"/>
</svg>
