<svg width="200" height="200" viewBox="0 0 200 200" fill="none" xmlns="http://www.w3.org/2000/svg">
<path d="M108.746 65.0764L120.316 50.9516L118.51 69.1209L118.139 72.8524L121.445 71.0818L137.54 62.46L128.918 78.5551L127.148 81.8606L130.879 81.4897L149.048 79.6835L134.924 91.254L132.023 93.6303L135.612 94.7156L153.09 100L135.612 105.284L132.023 106.37L134.924 108.746L149.048 120.316L130.879 118.51L127.148 118.139L128.918 121.445L137.54 137.54L121.445 128.918L118.139 127.148L118.51 130.879L120.316 149.048L108.746 134.924L106.37 132.023L105.284 135.612L100 153.09L94.7156 135.612L93.6303 132.023L91.254 134.924L79.6835 149.048L81.4897 130.879L81.8606 127.148L78.5551 128.918L62.46 137.54L71.0818 121.445L72.8524 118.139L69.1209 118.51L50.9516 120.316L65.0764 108.746L67.9773 106.37L64.3879 105.284L46.9104 100L64.3879 94.7156L67.9773 93.6303L65.0764 91.254L50.9516 79.6835L69.1209 81.4897L72.8524 81.8606L71.0818 78.5551L62.46 62.46L78.5551 71.0818L81.8606 72.8524L81.4897 69.1209L79.6835 50.9516L91.254 65.0764L93.6303 67.9773L94.7156 64.3879L100 46.9104L105.284 64.3879L106.37 67.9773L108.746 65.0764Z" stroke="black" stroke-width="4"/>
</svg>
