<svg width="200" height="200" viewBox="0 0 200 200" fill="none" xmlns="http://www.w3.org/2000/svg">
<path d="M100 44.1792L112.365 66.866L113.137 68.2834L114.686 67.8274L139.471 60.5287L132.173 85.314L131.717 86.8626L133.134 87.6351L155.821 100L133.134 112.365L131.717 113.137L132.173 114.686L139.471 139.471L114.686 132.173L113.137 131.717L112.365 133.134L100 155.821L87.6351 133.134L86.8626 131.717L85.314 132.173L60.5287 139.471L67.8274 114.686L68.2834 113.137L66.866 112.365L44.1792 100L66.866 87.6351L68.2834 86.8626L67.8274 85.314L60.5287 60.5287L85.314 67.8274L86.8626 68.2834L87.6351 66.866L100 44.1792Z" stroke="black" stroke-width="4"/>
</svg>
