<svg width="200" height="200" viewBox="0 0 200 200" fill="none" xmlns="http://www.w3.org/2000/svg">
<path d="M124.792 49.9186C119.996 49.9078 115.263 51.006 110.963 53.1274C106.662 55.2487 102.91 58.3358 100 62.1473C97.0904 58.3358 93.3385 55.2487 89.0379 53.1274C84.7373 51.006 80.0044 49.9078 75.209 49.9186C69.0615 49.9028 63.0446 51.6925 57.905 55.0655C52.7654 58.4386 48.7293 63.2465 46.2976 68.8927C43.8658 74.5389 43.1455 80.7748 44.2259 86.8268C45.3064 92.8787 48.14 98.4801 52.3753 102.936L97.2965 149.601C97.6465 149.965 98.0663 150.255 98.5309 150.453C98.9955 150.651 99.4953 150.753 100 150.753C100.505 150.753 101.005 150.651 101.47 150.453C101.934 150.255 102.354 149.965 102.704 149.601L147.625 102.936L147.652 102.906C151.88 98.4479 154.707 92.8465 155.782 86.7966C156.857 80.7468 156.132 74.5144 153.698 68.8724C151.264 63.2305 147.228 58.427 142.089 55.0577C136.951 51.6885 130.936 49.9015 124.792 49.9186V49.9186Z" fill="#3BB3BD"/>
</svg>
