<svg width="200" height="200" viewBox="0 0 200 200" fill="none" xmlns="http://www.w3.org/2000/svg">
<path fill-rule="evenodd" clip-rule="evenodd" d="M160 40H40V160H160V40ZM82.3336 100C73.6019 97.6768 65.3457 93.0722 58.4989 86.1859C46.8267 74.4465 41.7472 58.5872 43.2605 43.262C58.4979 41.74 74.2664 46.8487 85.9386 58.5882C93.1246 65.8156 97.8117 74.6044 100 83.8688C102.188 74.6044 106.876 65.8156 114.062 58.5882C125.734 46.8487 141.502 41.74 156.74 43.262C158.253 58.5872 153.174 74.4465 141.501 86.1859C134.655 93.0722 126.398 97.6768 117.667 100C126.398 102.323 134.655 106.928 141.501 113.814C153.174 125.554 158.253 141.413 156.74 156.738C141.502 158.26 125.734 153.151 114.062 141.412C106.876 134.184 102.189 125.396 100 116.131C97.8117 125.396 93.1246 134.184 85.9386 141.412C74.2664 153.151 58.4979 158.26 43.2605 156.738C41.7472 141.413 46.8267 125.554 58.4989 113.814C65.3457 106.928 73.6019 102.323 82.3336 100Z" fill="#A17FBC"/>
</svg>
