<svg width="200" height="200" viewBox="0 0 200 200" fill="none" xmlns="http://www.w3.org/2000/svg">
<path fill-rule="evenodd" clip-rule="evenodd" d="M117.983 98.3848C128.136 88.2311 128.136 71.7688 117.983 61.6152C107.829 51.4616 91.3669 51.4616 81.2132 61.6152C71.0596 71.7689 71.0596 88.2311 81.2132 98.3848C91.3669 108.538 107.829 108.538 117.983 98.3848ZM120.811 58.7868C109.095 47.0711 90.1005 47.0711 78.3848 58.7868C69.3593 67.8123 67.2868 81.1579 72.1674 92.1674C61.1579 87.2868 47.8123 89.3593 38.7868 98.3848C27.0711 110.101 27.0711 129.095 38.7868 140.811C50.5025 152.527 69.4975 152.527 81.2132 140.811L99.598 122.426L99.5981 122.427L117.983 140.811C129.699 152.527 148.694 152.527 160.409 140.811C172.125 129.096 172.125 110.101 160.409 98.3849C151.384 89.3594 138.038 87.2869 127.029 92.1676C131.909 81.158 129.837 67.8124 120.811 58.7868ZM107.393 108.975C102.293 110.342 96.9032 110.342 91.8033 108.975L99.598 116.77L99.5981 116.77L107.393 108.975ZM96.7696 119.598L78.3848 101.213C68.2311 91.0596 51.7688 91.0596 41.6152 101.213C31.4616 111.367 31.4616 127.829 41.6152 137.983C51.7689 148.136 68.2311 148.136 78.3848 137.983L96.7696 119.598ZM102.426 119.598L120.811 101.213C130.965 91.0597 147.427 91.0597 157.581 101.213C167.734 111.367 167.734 127.829 157.581 137.983C147.427 148.137 130.965 148.137 120.811 137.983L102.426 119.598Z" fill="black"/>
</svg>
