<svg width="200" height="200" viewBox="0 0 200 200" fill="none" xmlns="http://www.w3.org/2000/svg">
<mask id="path-1-inside-1_6_7316" fill="white">
<path fill-rule="evenodd" clip-rule="evenodd" d="M68.3775 75C77.5592 69.2948 88.3948 66 100 66C111.605 66 122.441 69.2948 131.623 75H160C160 84.118 157.966 92.761 154.327 100.5C157.966 108.239 160 116.882 160 126H131.623C122.441 131.705 111.605 135 100 135C88.3948 135 77.5592 131.705 68.3775 126H40C40 116.882 42.0339 108.239 45.6727 100.5C42.0339 92.761 40 84.118 40 75H68.3775Z"/>
</mask>
<path fill-rule="evenodd" clip-rule="evenodd" d="M68.3775 75C77.5592 69.2948 88.3948 66 100 66C111.605 66 122.441 69.2948 131.623 75H160C160 84.118 157.966 92.761 154.327 100.5C157.966 108.239 160 116.882 160 126H131.623C122.441 131.705 111.605 135 100 135C88.3948 135 77.5592 131.705 68.3775 126H40C40 116.882 42.0339 108.239 45.6727 100.5C42.0339 92.761 40 84.118 40 75H68.3775Z" fill="#FFC700"/>
<path d="M68.3775 75V79H69.519L70.4886 78.3975L68.3775 75ZM131.623 75L129.511 78.3975L130.481 79H131.623V75ZM160 75H164V71H160V75ZM154.327 100.5L150.707 98.798L149.907 100.5L150.707 102.202L154.327 100.5ZM160 126V130H164V126H160ZM131.623 126V122H130.481L129.511 122.602L131.623 126ZM68.3775 126L70.4886 122.602L69.519 122H68.3775V126ZM40 126H36V130H40V126ZM45.6727 100.5L49.2925 102.202L50.0928 100.5L49.2925 98.798L45.6727 100.5ZM40 75V71H36V75H40ZM100 62C87.6274 62 76.0634 65.5149 66.2663 71.6025L70.4886 78.3975C79.0549 73.0747 89.1623 70 100 70V62ZM133.734 71.6025C123.937 65.5149 112.373 62 100 62V70C110.838 70 120.945 73.0747 129.511 78.3975L133.734 71.6025ZM131.623 79H160V71H131.623V79ZM156 75C156 83.5175 154.101 91.5803 150.707 98.798L157.947 102.202C161.831 93.9416 164 84.7186 164 75H156ZM164 126C164 116.281 161.831 107.058 157.947 98.798L150.707 102.202C154.101 109.42 156 117.483 156 126H164ZM131.623 130H160V122H131.623V130ZM129.511 122.602C120.945 127.925 110.838 131 100 131V139C112.373 139 123.937 135.485 133.734 129.398L129.511 122.602ZM100 131C89.1623 131 79.0549 127.925 70.4886 122.602L66.2664 129.398C76.0634 135.485 87.6274 139 100 139V131ZM40 130H68.3775V122H40V130ZM42.0529 98.798C38.1689 107.058 36 116.281 36 126H44C44 117.483 45.8988 109.42 49.2925 102.202L42.0529 98.798ZM49.2925 98.798C45.8988 91.5803 44 83.5175 44 75H36C36 84.7186 38.1689 93.9416 42.0529 102.202L49.2925 98.798ZM40 79H68.3775V71H40V79Z" fill="black" mask="url(#path-1-inside-1_6_7316)"/>
</svg>
