<svg width="200" height="200" viewBox="0 0 200 200" fill="none" xmlns="http://www.w3.org/2000/svg">
<path d="M82.2721 54.2485C94.6438 66.6202 100.259 83.1882 99.1147 99.3754C82.9274 100.52 66.3595 94.9045 53.9878 82.5328C41.6161 70.1611 36.001 53.5932 37.1452 37.4059C53.3325 36.2618 69.9004 41.8769 82.2721 54.2485Z" fill="#3BB3BD" stroke="black" stroke-width="4"/>
<path d="M145.272 82.5328C132.9 94.9045 116.332 100.52 100.145 99.3754C99.001 83.1882 104.616 66.6202 116.988 54.2485C129.359 41.8769 145.927 36.2618 162.115 37.4059C163.259 53.5932 157.644 70.1611 145.272 82.5328Z" fill="#BCA47F" stroke="black" stroke-width="4"/>
<path d="M82.2721 144.792C94.6438 132.421 100.259 115.853 99.1147 99.6656C82.9274 98.5214 66.3595 104.137 53.9878 116.508C41.6161 128.88 36.001 145.448 37.1452 161.635C53.3325 162.779 69.9004 157.164 82.2721 144.792Z" fill="#FFC700" stroke="black" stroke-width="4"/>
<path d="M145.272 116.508C132.9 104.137 116.332 98.5214 100.145 99.6656C99.001 115.853 104.616 132.421 116.988 144.792C129.359 157.164 145.927 162.779 162.115 161.635C163.259 145.448 157.644 128.88 145.272 116.508Z" fill="#BC7F7F" stroke="black" stroke-width="4"/>
</svg>
