<svg width="200" height="200" viewBox="0 0 200 200" fill="none" xmlns="http://www.w3.org/2000/svg">
<path fill-rule="evenodd" clip-rule="evenodd" d="M160 52.0198V40H147.98L160 52.0198ZM136.667 40L160 63.3335V74.6472L125.353 40H136.667ZM114.039 40H102.725L160 97.2746V85.9609L114.039 40ZM160 108.588L91.4117 40H80.098L160 119.902V108.588ZM160 131.216L68.7843 40H57.4705L160 142.53V131.216ZM160 153.843L46.1568 40H40V45.1565L154.844 160H160V153.843ZM143.53 160L40 56.4702V67.7843L132.216 160H143.53ZM120.902 160L40 79.098V90.4117L109.588 160H120.902ZM98.2746 160L40 101.725V113.039L86.9609 160H98.2746ZM75.6472 160L40 124.353V135.667L64.3335 160H75.6472ZM53.0198 160L40 146.98V160H53.0198Z" fill="#A17FBC"/>
</svg>
