<svg width="200" height="200" viewBox="0 0 200 200" fill="none" xmlns="http://www.w3.org/2000/svg">
<path fill-rule="evenodd" clip-rule="evenodd" d="M121.042 79.5858C121.823 80.3668 121.823 81.6332 121.042 82.4142L109.728 93.7279C108.947 94.509 107.681 94.509 106.9 93.7279C106.118 92.9469 106.118 91.6805 106.9 90.8995L118.213 79.5858C118.994 78.8047 120.261 78.8047 121.042 79.5858ZM93.7279 109.728C94.509 108.947 94.509 107.68 93.7279 106.899C92.9469 106.118 91.6805 106.118 90.8995 106.899L79.5858 118.213C78.8047 118.994 78.8047 120.26 79.5858 121.041C80.3668 121.822 81.6332 121.822 82.4142 121.041L93.7279 109.728ZM109.728 106.899C108.947 106.118 107.681 106.118 106.9 106.899C106.118 107.68 106.118 108.947 106.9 109.728L118.213 121.041C118.994 121.822 120.261 121.822 121.042 121.041C121.823 120.26 121.823 118.994 121.042 118.213L109.728 106.899ZM82.4142 79.5858C81.6332 78.8047 80.3668 78.8047 79.5858 79.5858C78.8047 80.3668 78.8047 81.6332 79.5858 82.4142L90.8995 93.7279C91.6805 94.509 92.9469 94.509 93.7279 93.7279C94.509 92.9469 94.509 91.6805 93.7279 90.8995L82.4142 79.5858Z" fill="black"/>
</svg>
