<svg width="200" height="200" viewBox="0 0 200 200" fill="none" xmlns="http://www.w3.org/2000/svg">
<path fill-rule="evenodd" clip-rule="evenodd" d="M99.8906 113.073C102.372 102.629 107.687 92.7213 115.834 84.5736C129.069 71.3389 146.948 65.5795 164.225 67.2954C165.941 84.5724 160.182 102.452 146.947 115.686C134.053 128.58 116.75 134.379 99.8907 133.082C83.0313 134.379 65.7285 128.58 52.8343 115.686C39.5997 102.452 33.8403 84.5724 35.5561 67.2954C52.8332 65.5795 70.7124 71.3389 83.947 84.5736C92.0947 92.7213 97.4093 102.629 99.8906 113.073ZM81.1186 87.402C92.616 98.8994 98.0704 114.148 97.4771 129.216C82.4088 129.81 67.1601 124.355 55.6628 112.858C44.1654 101.361 38.711 86.1118 39.3043 71.0435C54.3725 70.4502 69.6213 75.9047 81.1186 87.402ZM118.663 87.402C107.165 98.8994 101.711 114.148 102.304 129.216C117.372 129.81 132.621 124.355 144.119 112.858C155.616 101.361 161.07 86.1118 160.477 71.0435C145.409 70.4502 130.16 75.9047 118.663 87.402Z" fill="black"/>
</svg>
