<svg width="200" height="200" viewBox="0 0 200 200" fill="none" xmlns="http://www.w3.org/2000/svg">
<path fill-rule="evenodd" clip-rule="evenodd" d="M99.6299 82.0734C102.111 71.6293 107.426 61.7213 115.574 53.5736C128.808 40.3389 146.687 34.5795 163.964 36.2954C165.68 53.5724 159.921 71.4516 146.686 84.6863C133.792 97.5805 116.489 103.379 99.6299 102.082C82.7706 103.379 65.4678 97.5805 52.5736 84.6863C39.3389 71.4516 33.5795 53.5724 35.2954 36.2954C52.5724 34.5795 70.4516 40.3389 83.6863 53.5736C91.834 61.7213 97.1485 71.6293 99.6299 82.0734ZM80.8579 56.402C92.3552 67.8994 97.8097 83.1481 97.2164 98.2164C82.1481 98.8097 66.8994 93.3552 55.402 81.8579C43.9047 70.3605 38.4502 55.1118 39.0435 40.0435C54.1118 39.4502 69.3605 44.9047 80.8579 56.402ZM118.402 56.402C106.905 67.8994 101.45 83.1481 102.043 98.2164C117.112 98.8097 132.36 93.3552 143.858 81.8579C155.355 70.3605 160.81 55.1118 160.216 40.0435C145.148 39.4502 129.899 44.9047 118.402 56.402Z" fill="black"/>
<path fill-rule="evenodd" clip-rule="evenodd" d="M99.6299 118.446C102.111 128.89 107.426 138.798 115.574 146.946C128.808 160.181 146.687 165.94 163.964 164.224C165.68 146.947 159.921 129.068 146.686 115.833C133.792 102.939 116.489 97.1405 99.6299 98.4374C82.7706 97.1405 65.4678 102.939 52.5736 115.833C39.3389 129.068 33.5795 146.947 35.2954 164.224C52.5724 165.94 70.4516 160.181 83.6863 146.946C91.834 138.798 97.1485 128.89 99.6299 118.446ZM80.8579 144.118C92.3552 132.62 97.8097 117.371 97.2164 102.303C82.1481 101.71 66.8994 107.164 55.402 118.662C43.9047 130.159 38.4502 145.408 39.0435 160.476C54.1118 161.069 69.3605 155.615 80.8579 144.118ZM118.402 144.118C106.905 132.62 101.45 117.371 102.043 102.303C117.112 101.71 132.36 107.164 143.858 118.662C155.355 130.159 160.81 145.408 160.216 160.476C145.148 161.069 129.899 155.615 118.402 144.118Z" fill="black"/>
</svg>
