<svg width="200" height="200" viewBox="0 0 200 200" fill="none" xmlns="http://www.w3.org/2000/svg">
<path d="M138 61.8182C138 66.7681 134.294 71.6897 127.327 75.4902C120.435 79.2494 110.777 81.6364 100 81.6364C89.223 81.6364 79.5653 79.2494 72.6734 75.4902C65.7059 71.6897 62 66.7681 62 61.8182C62 56.8682 65.7059 51.9467 72.6734 48.1462C79.5653 44.387 89.223 42 100 42C110.777 42 120.435 44.387 127.327 48.1462C134.294 51.9467 138 56.8682 138 61.8182Z" fill="#3BB3BD" stroke="black" stroke-width="4"/>
<path d="M138 138.182C138 143.132 134.294 148.053 127.327 151.854C120.435 155.613 110.777 158 100 158C89.223 158 79.5653 155.613 72.6734 151.854C65.7059 148.053 62 143.132 62 138.182C62 133.232 65.7059 128.31 72.6734 124.51C79.5653 120.751 89.223 118.364 100 118.364C110.777 118.364 120.435 120.751 127.327 124.51C134.294 128.31 138 133.232 138 138.182Z" fill="#7FBC8C" stroke="black" stroke-width="4"/>
<path d="M62 61.8184L62 137.455" stroke="black" stroke-width="4"/>
<path d="M138 61.8184L138 137.455" stroke="black" stroke-width="4"/>
<path d="M100 82L100 158" stroke="black" stroke-width="4.19524"/>
</svg>
