<svg width="200" height="200" viewBox="0 0 200 200" fill="none" xmlns="http://www.w3.org/2000/svg">
<path fill-rule="evenodd" clip-rule="evenodd" d="M102.001 61.1461C106.936 60.21 110.667 55.8741 110.667 50.6667C110.667 44.7756 105.892 40 100.001 40C94.1097 40 89.334 44.7756 89.334 50.6667C89.334 55.8741 93.0656 60.21 98.0007 61.1461V89.1233L102.001 89.1233L102.001 61.1461ZM61.1461 102.001C60.21 106.936 55.8741 110.668 50.6667 110.668C44.7756 110.668 40 105.892 40 100.001C40 94.1099 44.7756 89.3343 50.6667 89.3343C55.8741 89.3343 60.21 93.0659 61.1461 98.0009H89.1233V102.001H61.1461ZM98.0004 138.855C93.0654 139.791 89.3338 144.127 89.3338 149.335C89.3338 155.226 94.1094 160.001 100 160.001C105.891 160.001 110.667 155.226 110.667 149.335C110.667 144.127 106.936 139.791 102 138.855L102 110.878H98.0004V138.855ZM149.334 89.3338C144.127 89.3338 139.791 93.0654 138.855 98.0005L110.878 98.0004V102L138.855 102C139.791 106.936 144.127 110.667 149.334 110.667C155.226 110.667 160.001 105.891 160.001 100C160.001 94.1094 155.226 89.3338 149.334 89.3338ZM128.89 73.9383C133.042 76.7659 138.746 76.3386 142.428 72.6564C146.594 68.4908 146.594 61.7371 142.428 57.5715C138.263 53.4059 131.509 53.4059 127.343 57.5715C123.661 61.2537 123.234 66.9583 126.062 71.1098L106.279 90.8927L109.107 93.7211L128.89 73.9383ZM71.1133 73.9388C66.9618 76.7664 61.2572 76.3391 57.575 72.6569C53.4094 68.4913 53.4094 61.7376 57.575 57.572C61.7406 53.4064 68.4943 53.4064 72.6599 57.572C76.3421 61.2542 76.7694 66.9588 73.9418 71.1103L93.7246 90.8932L90.8962 93.7216L71.1133 73.9388ZM71.1133 126.059C66.9618 123.231 61.2572 123.659 57.575 127.341C53.4094 131.507 53.4094 138.26 57.575 142.426C61.7406 146.592 68.4943 146.592 72.6599 142.426C76.3421 138.744 76.7694 133.039 73.9418 128.888L93.7246 109.105L90.8962 106.276L71.1133 126.059ZM142.428 127.341C138.746 123.659 133.042 123.231 128.89 126.059L109.107 106.276L106.279 109.105L126.062 128.888C123.234 133.039 123.661 138.744 127.343 142.426C131.509 146.592 138.263 146.592 142.428 142.426C146.594 138.26 146.594 131.507 142.428 127.341Z" fill="#A17FBC"/>
</svg>
