<svg width="200" height="200" viewBox="0 0 200 200" fill="none" xmlns="http://www.w3.org/2000/svg">
<mask id="path-1-inside-1_6_7299" fill="white">
<path fill-rule="evenodd" clip-rule="evenodd" d="M80 60C80 71.0457 71.0457 80 60 80C48.9543 80 40 71.0457 40 60C40 48.9543 48.9543 40 60 40C71.0457 40 80 48.9543 80 60ZM80 140C80 151.046 71.0457 160 60 160C48.9543 160 40 151.046 40 140C40 128.954 48.9543 120 60 120C71.0457 120 80 128.954 80 140ZM140 80C151.046 80 160 71.0457 160 60C160 48.9543 151.046 40 140 40C128.954 40 120 48.9543 120 60C120 71.0457 128.954 80 140 80ZM160 140C160 151.046 151.046 160 140 160C128.954 160 120 151.046 120 140C120 128.954 128.954 120 140 120C151.046 120 160 128.954 160 140ZM100 120C111.046 120 120 111.046 120 100C120 88.9543 111.046 80 100 80C88.9543 80 80 88.9543 80 100C80 111.046 88.9543 120 100 120Z"/>
</mask>
<path d="M60 84C73.2548 84 84 73.2548 84 60H76C76 68.8366 68.8366 76 60 76V84ZM36 60C36 73.2548 46.7452 84 60 84V76C51.1634 76 44 68.8366 44 60H36ZM60 36C46.7452 36 36 46.7452 36 60H44C44 51.1634 51.1634 44 60 44V36ZM84 60C84 46.7452 73.2548 36 60 36V44C68.8366 44 76 51.1634 76 60H84ZM60 164C73.2548 164 84 153.255 84 140H76C76 148.837 68.8366 156 60 156V164ZM36 140C36 153.255 46.7452 164 60 164V156C51.1634 156 44 148.837 44 140H36ZM60 116C46.7452 116 36 126.745 36 140H44C44 131.163 51.1634 124 60 124V116ZM84 140C84 126.745 73.2548 116 60 116V124C68.8366 124 76 131.163 76 140H84ZM156 60C156 68.8366 148.837 76 140 76V84C153.255 84 164 73.2548 164 60H156ZM140 44C148.837 44 156 51.1634 156 60H164C164 46.7452 153.255 36 140 36V44ZM124 60C124 51.1634 131.163 44 140 44V36C126.745 36 116 46.7452 116 60H124ZM140 76C131.163 76 124 68.8366 124 60H116C116 73.2548 126.745 84 140 84V76ZM140 164C153.255 164 164 153.255 164 140H156C156 148.837 148.837 156 140 156V164ZM116 140C116 153.255 126.745 164 140 164V156C131.163 156 124 148.837 124 140H116ZM140 116C126.745 116 116 126.745 116 140H124C124 131.163 131.163 124 140 124V116ZM164 140C164 126.745 153.255 116 140 116V124C148.837 124 156 131.163 156 140H164ZM116 100C116 108.837 108.837 116 100 116V124C113.255 124 124 113.255 124 100H116ZM100 84C108.837 84 116 91.1634 116 100H124C124 86.7452 113.255 76 100 76V84ZM84 100C84 91.1634 91.1634 84 100 84V76C86.7452 76 76 86.7452 76 100H84ZM100 116C91.1634 116 84 108.837 84 100H76C76 113.255 86.7452 124 100 124V116Z" fill="black" mask="url(#path-1-inside-1_6_7299)"/>
</svg>
