<svg width="200" height="200" viewBox="0 0 200 200" fill="none" xmlns="http://www.w3.org/2000/svg">
<path d="M113.244 86.4145C112.462 85.6333 111.196 85.6333 110.415 86.4145L105.829 91C102.515 94.3137 97.1427 94.3137 93.829 91L89.2435 86.4145C88.4623 85.6333 87.1957 85.6333 86.4145 86.4145V86.4145C85.6333 87.1957 85.6333 88.4623 86.4145 89.2435L91 93.829C94.3137 97.1427 94.3137 102.515 91 105.829L86.4145 110.414C85.6333 111.196 85.6333 112.462 86.4145 113.244V113.244C87.1957 114.025 88.4623 114.025 89.2435 113.243L93.829 108.658C97.1427 105.344 102.515 105.344 105.829 108.658L110.415 113.243C111.196 114.025 112.462 114.025 113.243 113.243V113.243C114.025 112.462 114.025 111.196 113.243 110.415L108.658 105.829C105.344 102.515 105.344 97.1427 108.658 93.829L113.243 89.2435C114.025 88.4623 114.025 87.1957 113.244 86.4145V86.4145Z" fill="#746BEB"/>
</svg>
